<?xml version="1.0" encoding="UTF-8"?>
<svg xmlns="http://www.w3.org/2000/svg" xmlns:xlink="http://www.w3.org/1999/xlink" viewBox="0 0 64 64">
  <defs>
    <style>
      .cls-1 {
        fill: url(#linear-gradient-2);
      }

      .cls-2, .cls-3 {
        fill: #fff;
      }

      .cls-4 {
        fill: #fdb902;
      }

      .cls-5, .cls-3, .cls-6 {
        opacity: .5;
      }

      .cls-7, .cls-8 {
        fill: #cca3b1;
        mix-blend-mode: multiply;
      }

      .cls-9 {
        fill: #fda827;
      }

      .cls-10 {
        isolation: isolate;
      }

      .cls-11 {
        fill: #680202;
      }

      .cls-12 {
        fill: #42df60;
      }

      .cls-13, .cls-14 {
        fill: #2b2829;
      }

      .cls-13, .cls-15 {
        mix-blend-mode: screen;
      }

      .cls-8, .cls-16 {
        opacity: .3;
      }

      .cls-17 {
        opacity: .4;
      }

      .cls-6 {
        fill: #e6cfd7;
      }

      .cls-6, .cls-18, .cls-19 {
        mix-blend-mode: overlay;
      }

      .cls-18 {
        fill: #998a8f;
      }

      .cls-20 {
        fill: #fdd6ab;
      }

      .cls-19 {
        fill: #8c8588;
      }

      .cls-21 {
        fill: #dcc0a7;
      }

      .cls-22 {
        fill: #670007;
      }

      .cls-23 {
        fill: url(#linear-gradient);
      }

      .cls-24 {
        fill: #fd2d00;
      }

      .cls-25 {
        fill: #fb6c9d;
      }

      .cls-26 {
        opacity: .25;
      }

      .cls-27 {
        fill: #fd8505;
      }
    </style>
    <linearGradient id="linear-gradient" x1="64" y1="34.03" x2="5.45" y2="34.03" gradientUnits="userSpaceOnUse">
      <stop offset="0" stop-color="#cf925b"/>
      <stop offset=".25" stop-color="#ca8e57"/>
      <stop offset=".51" stop-color="#be824c"/>
      <stop offset=".78" stop-color="#a96f3a"/>
      <stop offset="1" stop-color="#925a26"/>
    </linearGradient>
    <linearGradient id="linear-gradient-2" x1="61.28" y1="31.49" x2="1.36" y2="31.49" gradientUnits="userSpaceOnUse">
      <stop offset="0" stop-color="#e8b586"/>
      <stop offset=".25" stop-color="#e3b182"/>
      <stop offset=".5" stop-color="#d7a577"/>
      <stop offset=".76" stop-color="#c29164"/>
      <stop offset="1" stop-color="#a9794e"/>
    </linearGradient>
  </defs>
  <g class="cls-10">
    <g id="_Слой_2" data-name="Слой 2">
      <g id="_Слой_1-2" data-name="Слой 1">
        <g>
          <g>
            <path class="cls-23" d="M60.49,6.68c-1.75-1.6-4.41-2.62-7.38-2.62H14.98c-5.26,0-9.53,3.19-9.53,7.11V55.87c0,2.22,1.37,4.2,3.51,5.51,1.75,1.6,4.41,2.62,7.38,2.62H54.47c5.26,0,9.53-3.19,9.53-7.11V12.19c0-2.22-1.37-4.2-3.51-5.51Z"/>
            <path class="cls-1" d="M57.77,4.65c-.41-.37-.86-.71-1.36-1.02-1.75-1.6-4.41-2.62-7.38-2.62H10.89C5.64,1.02,1.36,4.21,1.36,8.13V52.83c0,2.22,1.37,4.2,3.51,5.51,.41,.37,.86,.71,1.36,1.02,1.75,1.6,4.41,2.62,7.38,2.62H51.74c5.26,0,9.53-3.19,9.53-7.11V10.16c0-2.22-1.37-4.2-3.51-5.51Z"/>
            <path class="cls-21" d="M47.66,0H9.53C4.28,0,0,3.19,0,7.11V51.81c0,3.92,4.28,7.11,9.53,7.11H47.66c5.26,0,9.53-3.19,9.53-7.11V7.11c0-3.92-4.28-7.11-9.53-7.11Z"/>
          </g>
          <path class="cls-18" d="M5.89,14.33c-.01-2.85,.17-6.06,2.96-8,2.12-1.47,5.21-1.81,8.09-1.99,6.68-.42,13.42-.36,20.09,.18,3.3,.26,6.79,.71,9.28,2.36,3.69,2.45,3.93,6.61,3.9,10.29-.08,9.24-.15,18.48-.23,27.72-.02,2.2-.08,4.51-1.54,6.42-1.54,2-4.45,3.25-7.46,3.8-3.01,.55-6.15,.48-9.24,.41-5.15-.12-10.31-.24-15.43-.71-2.79-.26-9.22-.18-10.19-2.65-.66-1.68-.07-4.15-.07-5.9,0-2.02-.02-4.03-.03-6.05-.02-4.03-.04-8.06-.06-12.1-.02-4.59-.04-9.18-.07-13.78Z"/>
          <path class="cls-18" d="M20.65,20.31c-3.25-.39-6.54-1.19-8.94-2.87-2.39-1.69-3.67-4.43-2.38-6.69,.89-1.57,2.87-2.69,5.01-3.3,2.14-.61,4.45-.77,6.74-.89,5.74-.3,11.52-.39,17.22,.17,2.22,.22,4.55,.57,6.21,1.7,2.93,1.99,2.55,5.66,.4,8.14-5.33,6.17-16.02,4.75-24.26,3.75Z"/>
          <path class="cls-13" d="M9.75,46.11c-.57-1.77-.49-3.61-.4-5.43,.37-7.55,.74-15.09,1.11-22.64,.14-2.75,.39-5.74,2.81-7.82,2.2-1.89,5.7-2.58,9.03-2.93,4.04-.42,8.14-.47,12.2-.14,3.7,.3,7.69,1.06,9.9,3.3,1.87,1.9,2.03,4.41,2.12,6.77,.33,9.07,.66,18.2-1.13,27.18-.4,1.99-1,4.12-2.97,5.5-2.25,1.58-5.63,1.75-8.72,1.75-5.06,0-10.12-.25-15.13-.73-4.65-.45-7.58-.99-8.81-4.8Z"/>
          <path class="cls-7" d="M47.66,1.02h-1.63c4.51,0,8.17,2.73,8.17,6.1V51.81c0,3.37-3.66,6.1-8.17,6.1h1.63c4.51,0,8.17-2.73,8.17-6.1V7.11c0-3.37-3.66-6.1-8.17-6.1Z"/>
          <path class="cls-6" d="M44.83,56.21c2.15-.26,4.29-1.07,5.39-2.47,.86-1.09,1-2.4,1.05-3.66,.05-1.24,.02-2.47-.08-3.71-.07-.81-.31-1.78-1.32-2.08-.75-.23-1.65,.04-2.16,.52-.51,.47-.69,1.1-.74,1.7-.11,1.25,.25,2.52-.08,3.75-.39,1.42-1.68,2.63-3.23,3.51-1.13,.64-4.12,1.25-4.5,2.21,1.43,.58,4.04,.42,5.67,.23Z"/>
          <path class="cls-19" d="M3.88,2.71c-1.55,1.11-2.52,2.67-2.52,4.4v26.08c12.35-3.44,32.73-4.39,54.47,14.33v-14.97C26.86,28.05,11.39,13.17,3.88,2.71Z"/>
          <path class="cls-3" d="M3.58,9.23c.26-1.79,1.27-3.6,3.21-4.67,2.66-1.47,6.31-1.25,9.61-.96,1.02,.09,2.32,.39,2.36,1.15,.03,.67-.97,1.08-1.84,1.21-2.2,.34-4.63-.04-6.59,.77-1.42,.58-2.33,1.69-2.8,2.85s-.56,2.38-.73,3.58c-.07,.46-.15,.93-.44,1.34-1.08,1.49-2.05,.48-2.43-.37-.6-1.35-.53-3.5-.32-4.91Z"/>
          <g class="cls-15">
            <ellipse class="cls-14" cx="32.66" cy="10.91" rx="4.07" ry="3.03"/>
            <path class="cls-14" d="M43.37,11.71c.45,.84-.09,1.78-1.21,2.12-1.12,.34-2.39-.07-2.84-.91-.45-.84,.09-1.78,1.21-2.12,1.12-.34,2.39,.07,2.84,.91Z"/>
            <path class="cls-14" d="M40.11,16.13c.37,.7-.08,1.49-1.01,1.77-.93,.28-1.99-.06-2.37-.76-.37-.7,.08-1.49,1.01-1.77,.93-.28,1.99,.06,2.37,.76Z"/>
          </g>
          <g class="cls-15">
            <path class="cls-14" d="M23.64,45.38c.8,1.49-.17,3.17-2.16,3.77-1.99,.6-4.25-.13-5.05-1.61-.8-1.49,.17-3.17,2.16-3.77,1.99-.6,4.25,.13,5.05,1.61Z"/>
            <path class="cls-14" d="M20.79,40.39c.22,.41-.05,.87-.59,1.03-.54,.16-1.16-.03-1.38-.44-.22-.41,.05-.87,.59-1.03,.54-.16,1.16,.03,1.38,.44Z"/>
            <path class="cls-14" d="M15.3,41.5c.45,.84-.09,1.78-1.21,2.12-1.12,.34-2.39-.07-2.84-.91-.45-.84,.09-1.78,1.21-2.12,1.12-.34,2.39,.07,2.84,.91Z"/>
          </g>
          <path class="cls-8" d="M51.02,35.95c.79,1.47-.17,3.15-2.14,3.74-1.98,.59-4.22-.12-5.01-1.6-.79-1.47,.17-3.15,2.14-3.74,1.98-.59,4.22,.12,5.01,1.6Z"/>
          <path class="cls-8" d="M53.92,29.6c.58,1.08-.12,2.3-1.57,2.74-1.45,.43-3.09-.09-3.67-1.17-.58-1.08,.12-2.3,1.57-2.74,1.45-.43,3.09,.09,3.67,1.17Z"/>
          <path class="cls-8" d="M45.56,30.99c.37,.7-.08,1.49-1.01,1.77-.93,.28-1.99-.06-2.37-.76-.37-.7,.08-1.49,1.01-1.77,.93-.28,1.99,.06,2.37,.76Z"/>
          <path class="cls-8" d="M10.65,25.55c.41,.75-.09,1.61-1.1,1.92-1.01,.3-2.16-.06-2.57-.82-.41-.75,.09-1.61,1.1-1.92,1.01-.3,2.16,.06,2.57,.82Z"/>
          <path class="cls-8" d="M11.29,21.09c.21,.39-.04,.84-.57,1-.53,.16-1.13-.03-1.34-.43-.21-.39,.04-.84,.57-1,.53-.16,1.13,.03,1.34,.43Z"/>
          <path class="cls-8" d="M6.59,20.15c.34,.63-.07,1.34-.91,1.59-.84,.25-1.79-.05-2.13-.68-.34-.63,.07-1.34,.91-1.59,.84-.25,1.79,.05,2.13,.68Z"/>
        </g>
      </g>
      <g id="_Слой_7" data-name="Слой 7">
        <path class="cls-9" d="M44.72,39.56c.63,2.53,.3,5.29-.91,7.6-1.2,2.31-3.27,4.16-5.71,5.1-1,.38-2.05,.62-3.11,.77-.03,0-.05,0-.08,.01-2.94,.41-5.92,.19-8.88-.03-1.23-.09-2.46-.18-3.68-.38-.82-.13-1.64-.31-2.41-.6-.08-.03-.15-.06-.23-.09-.9-.36-1.74-.85-2.58-1.34-.8-.47-1.61-.94-2.32-1.54-2.21-1.87-3.19-5-2.65-7.83,.15-.76,.4-1.5,.78-2.19l.25-.47c-.75-1.02-.86-2.39-.64-3.64,.41-2.35,1.8-4.34,3.42-6.13,.55-.6,1.12-1.19,1.69-1.75l-.05,.04c.34-.6,.93-1.01,1.54-1.34,2.35-1.3,5.11-1.72,7.79-1.64,2.68,.08,5.33,.64,7.96,1.19,1.76,.37,3.52,.74,5.27,1.11l.38-.1c.8,1.05,1.61,2.09,2.41,3.14,1.16,1.51,2.35,3.07,2.86,4.91,.51,1.84,.2,4.04-1.26,5.26l.16-.07Z"/>
        <path class="cls-2" d="M37.78,46.37c-.39,2.41-1.49,4.63-2.86,6.67-2.94,.41-5.92,.19-8.88-.03-1.23-.09-2.46-.18-3.68-.38-.82-.13-1.64-.31-2.41-.6-.08-.03-.15-.06-.23-.09-.53-1.52-.95-3.07-1.15-4.67-.24-1.99-.12-4.04,.57-5.92,.19-.52,.42-1.02,.76-1.46,.32-.42,.73-.76,1.15-1.08,3.26-2.46,7.59-3.44,11.59-2.63,.8,.16,1.6,.4,2.28,.84,1.04,.69,1.72,1.81,2.18,2.97,.8,2.01,1.04,4.24,.7,6.38Z"/>
        <path class="cls-22" d="M13.51,38.39c-1-1.38-.77-3.25-.24-4.76,.56-1.58,1.55-2.97,2.65-4.22,.64-.73,1.32-1.42,2.01-2.11,.14-.14,.14-.38,0-.51-.15-.15-.36-.12-.51,0-.02,.01-.03,.03-.05,.04,.19,.15,.38,.29,.57,.44,.34-.58,.93-.95,1.51-1.26,.66-.35,1.35-.64,2.06-.86,1.42-.44,2.91-.65,4.4-.68,3.32-.07,6.59,.69,9.82,1.38,.93,.2,1.87,.39,2.8,.59,.48,.1,.95,.2,1.43,.3,.17,.03,.29,.04,.45,0,.08-.02,.17-.04,.25-.06-.14-.06-.27-.11-.41-.17,.72,.93,1.43,1.87,2.15,2.8,.64,.83,1.29,1.66,1.86,2.55,.98,1.53,1.71,3.32,1.36,5.16-.17,.91-.59,1.75-1.3,2.36-.27,.23,.02,.75,.35,.61,.05-.02,.11-.04,.16-.07-.15-.08-.3-.17-.45-.25,.79,3.21-.01,6.72-2.16,9.24-.99,1.16-2.22,2.1-3.6,2.75-1.65,.77-3.49,1.07-5.29,1.19-1.93,.13-3.86,.04-5.79-.09-1.92-.13-3.86-.22-5.75-.59-.89-.18-1.75-.44-2.56-.83-.83-.4-1.63-.88-2.42-1.35-.73-.44-1.46-.9-2.07-1.49-.48-.46-.89-.99-1.23-1.56-1.37-2.33-1.51-5.31-.23-7.71,.08-.15,.16-.31,.24-.46,.22-.41-.41-.78-.63-.37-.26,.49-.52,.97-.71,1.49-.26,.68-.41,1.4-.48,2.13-.14,1.44,.1,2.91,.66,4.24,.6,1.43,1.55,2.62,2.81,3.53,.76,.55,1.58,1.01,2.39,1.47,.85,.49,1.73,.94,2.66,1.25,1.87,.61,3.89,.72,5.84,.87,1.99,.15,3.98,.3,5.98,.25,1.97-.04,3.99-.24,5.86-.9,1.55-.54,2.96-1.42,4.14-2.56,2.48-2.41,3.72-5.93,3.3-9.36-.06-.45-.13-.9-.24-1.34-.04-.17-.27-.33-.45-.25l-.16,.07,.35,.61c1.43-1.21,1.8-3.23,1.49-5.01-.36-2.08-1.69-3.85-2.95-5.49-.83-1.09-1.67-2.17-2.5-3.26-.1-.13-.24-.21-.41-.17l-.38,.1h.19c-1.65-.35-3.3-.7-4.95-1.04-1.59-.34-3.19-.68-4.8-.92-3.04-.46-6.2-.58-9.17,.33-.79,.24-1.56,.56-2.29,.95-.69,.37-1.37,.83-1.77,1.53-.09,.16-.05,.36,.09,.47,.15,.12,.33,.09,.48-.03,.02-.01,.03-.03,.05-.04-.17-.17-.34-.34-.51-.51-1.29,1.28-2.56,2.61-3.57,4.13-.97,1.47-1.71,3.19-1.75,4.98-.02,1,.19,2.04,.79,2.86,.11,.16,.32,.24,.5,.13,.16-.09,.25-.34,.13-.5Z"/>
        <g class="cls-16">
          <path class="cls-22" d="M45,41.3c.15,2.01-.25,4.07-1.19,5.85-1.2,2.31-3.27,4.16-5.71,5.1-1,.38-2.05,.62-3.11,.77-.03,0-.05,0-.08,.01-2.94,.41-5.92,.19-8.88-.03-1.23-.09-2.46-.18-3.68-.38-.82-.13-1.64-.31-2.41-.6-.08-.03-.15-.06-.23-.09-.9-.36-1.74-.85-2.58-1.34-.8-.47-1.61-.94-2.32-1.54-2.02-1.71-3.02-4.48-2.76-7.1,.2,2.08,1.16,4.08,2.76,5.43,.71,.6,1.52,1.07,2.32,1.54,.84,.49,1.68,.98,2.58,1.34,.08,.03,.15,.06,.23,.09,.78,.29,1.59,.47,2.41,.6,1.22,.2,2.45,.29,3.68,.38,2.96,.22,5.94,.44,8.88,.03,.03,0,.05,0,.08-.01,1.06-.15,2.11-.39,3.11-.77,2.43-.94,4.5-2.79,5.71-5.1,.68-1.3,1.07-2.73,1.19-4.19Z"/>
        </g>
        <ellipse class="cls-9" cx="17.38" cy="48.62" rx="3.06" ry="4.78" transform="translate(-10 4.84) rotate(-12.35)"/>
        <ellipse class="cls-9" cx="17.38" cy="48.62" rx="3.06" ry="4.78" transform="translate(-10 4.84) rotate(-12.35)"/>
        <ellipse class="cls-2" cx="17.52" cy="49.25" rx="1.33" ry="2.3" transform="translate(-10.13 4.89) rotate(-12.35)"/>
        <ellipse class="cls-9" cx="38" cy="48.62" rx="4.78" ry="3.06" transform="translate(-17.63 75.34) rotate(-77.65)"/>
        <ellipse class="cls-9" cx="38" cy="48.62" rx="4.78" ry="3.06" transform="translate(-17.63 75.34) rotate(-77.65)"/>
        <g class="cls-16">
          <path class="cls-22" d="M36.91,53.3c1.65,.36,3.45-1.44,4.01-4.02,.09-.41,.14-.82,.16-1.21-.68,2.28-2.34,3.81-3.87,3.47-1.39-.3-2.23-2.04-2.13-4.11-.05,.18-.1,.36-.14,.54-.57,2.58,.32,4.97,1.97,5.33Z"/>
        </g>
        <g class="cls-17">
          <path class="cls-2" d="M34.81,49.18c.68-2.28,2.34-3.81,3.87-3.47,1.39,.3,2.23,2.04,2.13,4.11,.05-.18,.1-.36,.14-.54,.57-2.58-.32-4.97-1.97-5.33-1.65-.36-3.45,1.44-4.01,4.02-.09,.41-.14,.82-.16,1.21Z"/>
        </g>
        <g>
          <line class="cls-9" x1="39.32" y1="46.06" x2="39.92" y2="44.4"/>
          <path class="cls-22" d="M39.32,46.43s-.08,0-.12-.02c-.19-.07-.29-.28-.22-.47l.6-1.66c.07-.19,.28-.29,.47-.22,.19,.07,.29,.28,.22,.47l-.6,1.66c-.05,.15-.19,.24-.34,.24Z"/>
        </g>
        <g>
          <line class="cls-9" x1="37.8" y1="45.82" x2="37.73" y2="44.08"/>
          <path class="cls-22" d="M37.8,46.18c-.19,0-.36-.15-.36-.35l-.07-1.74c0-.2,.15-.37,.35-.38,.2,0,.37,.15,.38,.35l.07,1.74c0,.2-.15,.37-.35,.38,0,0-.01,0-.02,0Z"/>
        </g>
        <ellipse class="cls-2" cx="37.86" cy="49.25" rx="2.3" ry="1.33" transform="translate(-18.35 75.7) rotate(-77.65)"/>
        <ellipse class="cls-9" cx="29.02" cy="20.7" rx="15.88" ry="11.18"/>
        <g>
          <path class="cls-9" d="M21.65,12.39c.32-.85,.65-1.73,.62-2.64-.04-1.3-.9-2.55-2.1-3.06-1.2-.51-2.69-.26-3.66,.62-.4,.37-.72,.82-.95,1.32-.21,.45-.36,.95-.36,1.45,0,.98,.54,1.9,1.27,2.57,.72,.66,1.62,1.11,2.5,1.55"/>
          <path class="cls-22" d="M22.05,12.49c.13-.35,.26-.7,.37-1.05,.12-.39,.2-.78,.25-1.18,.04-.36,.02-.72-.04-1.07-.06-.32-.16-.62-.3-.92-.13-.29-.31-.56-.51-.82-.18-.23-.38-.44-.61-.61-.25-.2-.52-.37-.82-.5-.3-.13-.61-.23-.94-.27-.33-.05-.66-.06-.99-.03-.33,.04-.65,.1-.96,.22-.31,.11-.61,.26-.87,.45-.29,.2-.55,.43-.77,.7-.23,.28-.44,.59-.6,.92-.17,.35-.32,.72-.39,1.1-.04,.21-.07,.42-.07,.63,0,.19,.02,.38,.05,.57,.06,.34,.18,.67,.33,.98,.16,.31,.36,.6,.58,.87,.21,.25,.45,.48,.71,.69,.29,.24,.6,.45,.93,.64,.3,.18,.61,.34,.91,.5,.15,.08,.3,.15,.45,.23,.1,.05,.21,.07,.32,.04,.09-.03,.2-.1,.24-.19,.05-.09,.08-.21,.04-.32-.03-.1-.09-.2-.19-.24-.57-.29-1.15-.57-1.68-.93-.15-.1-.3-.2-.44-.32,.03,.02,.06,.04,.08,.06-.33-.26-.63-.54-.89-.88,.02,.03,.04,.06,.06,.08-.2-.26-.37-.55-.5-.85,.01,.03,.03,.07,.04,.1-.1-.25-.18-.51-.22-.78,0,.04,0,.07,.01,.11-.03-.24-.03-.48,0-.72,0,.04,0,.07-.01,.11,.04-.32,.14-.64,.26-.94-.01,.03-.03,.07-.04,.1,.15-.36,.34-.69,.58-1-.02,.03-.04,.06-.06,.08,.19-.24,.4-.46,.64-.64-.03,.02-.06,.04-.08,.06,.23-.18,.48-.32,.75-.43-.03,.01-.07,.03-.1,.04,.3-.12,.61-.21,.92-.25-.04,0-.07,0-.11,.01,.31-.04,.63-.04,.95,0-.04,0-.07,0-.11-.01,.29,.04,.57,.11,.83,.23-.03-.01-.07-.03-.1-.04,.26,.11,.51,.26,.74,.43-.03-.02-.06-.04-.08-.06,.24,.18,.45,.4,.63,.64-.02-.03-.04-.06-.06-.08,.19,.25,.35,.52,.47,.81-.01-.03-.03-.07-.04-.1,.12,.28,.2,.57,.24,.87,0-.04,0-.07-.01-.11,.04,.32,.03,.65,0,.97v-.11c-.06,.54-.23,1.05-.41,1.56-.05,.15-.11,.29-.16,.44-.04,.09,0,.23,.04,.32,.05,.08,.15,.17,.24,.19,.1,.02,.22,.02,.32-.04,.03-.02,.06-.04,.08-.06,.05-.05,.09-.11,.11-.18h0Z"/>
        </g>
        <g>
          <path class="cls-9" d="M37.85,13.12c-.41-.81-.83-1.65-.9-2.56-.09-1.3,.63-2.63,1.77-3.26,1.14-.63,2.65-.54,3.7,.23,.44,.32,.8,.74,1.08,1.21,.26,.43,.46,.9,.51,1.4,.11,.98-.34,1.95-.99,2.68-.65,.74-1.49,1.27-2.32,1.8"/>
          <path class="cls-22" d="M38.2,12.92c-.17-.34-.34-.67-.49-1.02,.01,.03,.03,.07,.04,.1-.18-.42-.32-.87-.39-1.32v.11c-.02-.29-.03-.59,.01-.88,0,.04,0,.07-.01,.11,.04-.31,.13-.61,.25-.9-.01,.03-.03,.07-.04,.1,.12-.29,.28-.56,.47-.81-.02,.03-.04,.06-.06,.08,.18-.23,.39-.44,.62-.62-.03,.02-.06,.04-.08,.06,.22-.17,.46-.31,.72-.42-.03,.01-.07,.03-.1,.04,.28-.12,.57-.2,.87-.24-.04,0-.07,0-.11,.01,.32-.04,.65-.04,.97,0-.04,0-.07,0-.11-.01,.31,.04,.61,.12,.9,.24-.03-.01-.07-.03-.1-.04,.26,.11,.51,.25,.73,.43-.03-.02-.06-.04-.08-.06,.26,.2,.5,.45,.7,.71-.02-.03-.04-.06-.06-.08,.24,.31,.44,.64,.59,1-.01-.03-.03-.07-.04-.1,.11,.26,.19,.52,.22,.8,0-.04,0-.07-.01-.11,.03,.24,.03,.49,0,.73,0-.04,0-.07,.01-.11-.04,.29-.12,.57-.24,.85,.01-.03,.03-.07,.04-.1-.14,.33-.33,.64-.55,.93,.02-.03,.04-.06,.06-.08-.32,.42-.71,.77-1.13,1.09,.03-.02,.06-.04,.08-.06-.44,.34-.91,.64-1.39,.94-.09,.06-.16,.14-.19,.24-.03,.1-.01,.23,.04,.32,.06,.09,.14,.16,.24,.19,.11,.02,.22,.02,.32-.04,.61-.39,1.22-.78,1.77-1.25,.53-.45,1.01-.99,1.33-1.61,.16-.32,.3-.66,.37-1.01,.04-.19,.06-.39,.07-.58,0-.2-.01-.39-.04-.59-.06-.37-.19-.73-.36-1.07-.16-.33-.37-.64-.6-.93-.23-.29-.5-.53-.79-.75-.27-.2-.57-.35-.88-.47-.31-.12-.64-.19-.97-.22-.33-.04-.67-.02-1,.02-.3,.04-.59,.12-.87,.24-.17,.07-.33,.15-.49,.24-.15,.09-.3,.2-.43,.31-.25,.2-.47,.44-.66,.7-.18,.23-.33,.48-.44,.75-.13,.3-.23,.6-.29,.93-.06,.33-.08,.66-.04,.99,.04,.38,.12,.76,.25,1.12,.13,.37,.29,.72,.46,1.07,.08,.16,.16,.31,.23,.47,.04,.09,.15,.16,.24,.19,.1,.03,.23,.01,.32-.04,.09-.06,.16-.14,.19-.24,.03-.11,.01-.21-.04-.32h0Z"/>
        </g>
        <path class="cls-9" d="M44.91,20.7c0,.31-.02,.62-.05,.93-.67,5.74-7.5,10.25-15.83,10.25-7.77,0-14.23-3.92-15.61-9.1-.18-.67-.27-1.37-.27-2.07,0-3.22,1.94-6.13,5.04-8.17,.31,.2,.63,.36,.96,.53l1.56-1.05c.12-.31,.24-.64,.31-.96,2.35-.97,5.09-1.52,8.01-1.52,3.37,0,6.5,.74,9.07,2,.09,.43,.29,.83,.49,1.23l1.72,.91c.2-.12,.39-.25,.59-.39,2.49,1.97,4.01,4.57,4.01,7.42Z"/>
        <path class="cls-2" d="M44.85,21.63c-.67,5.74-7.5,10.25-15.83,10.25-7.77,0-14.23-3.92-15.61-9.1,1.45-1.54,3.63-2.4,5.74-2.21,1.02,.09,2.01,.41,3.03,.48,1.41,.11,2.9-.28,3.93-1.25,.77-.73,1.25-1.73,2.04-2.44,.89-.79,2.17-1.11,3.33-.86,1.16,.25,2.18,1.09,2.67,2.17,.51,1.15,.49,2.62,1.45,3.45,.85,.74,2.16,.65,3.23,.27,1.07-.38,2.07-.99,3.19-1.16,.97-.15,1.92,.04,2.84,.4Z"/>
        <g class="cls-16">
          <path class="cls-22" d="M44.91,20.7c0,.31-.02,.62-.05,.93-.67,5.74-7.5,10.25-15.83,10.25-7.77,0-14.23-3.92-15.61-9.1-.18-.67-.27-1.37-.27-2.07,0-.21,0-.43,.03-.64,.04,.49,.12,.97,.25,1.44,1.38,5.18,7.85,9.1,15.61,9.1,8.33,0,15.16-4.51,15.83-10.25,.01-.1,.02-.2,.03-.29,.02,.21,.03,.42,.03,.64Z"/>
        </g>
        <g>
          <path class="cls-22" d="M29.02,9.88c3.13,0,6.05,.65,8.49,1.77,.17,.08,.37,.01,.46-.15,0,0,0,0,0,0,.1-.18,.03-.42-.16-.51-.79-.36-1.63-.68-2.51-.94-1.99-.59-4.11-.89-6.29-.89s-4.29,.3-6.29,.89c-.5,.15-.99,.32-1.47,.5-.2,.08-.29,.3-.2,.49,0,0,0,0,0,0,.08,.17,.28,.25,.46,.18,2.22-.86,4.78-1.34,7.49-1.34Z"/>
          <path class="cls-22" d="M43.97,16.16c-.59-.98-1.36-1.88-2.29-2.71-.3-.26-.75-.24-1.03,.04,0,0,0,0,0,0,0,0-.02,.02-.02,.02,2.44,1.91,3.92,4.43,3.92,7.18,0,5.96-6.96,10.81-15.52,10.81s-15.52-4.85-15.52-10.81c0-2.99,1.75-5.7,4.57-7.66,.15-.1,.2-.3,.11-.46,0,0,0,0,0,0-.1-.19-.35-.26-.53-.13-.03,.02-.05,.03-.08,.05-1.5,1.06-2.68,2.29-3.51,3.66-.86,1.44-1.3,2.96-1.3,4.54s.44,3.1,1.3,4.54c.83,1.37,2.01,2.61,3.51,3.66,1.49,1.05,3.23,1.87,5.15,2.45,1.99,.59,4.11,.89,6.29,.89s4.29-.3,6.29-.89c1.93-.57,3.66-1.4,5.15-2.45,1.5-1.06,2.68-2.29,3.51-3.66,.86-1.44,1.3-2.96,1.3-4.54s-.44-3.1-1.3-4.54Z"/>
        </g>
        <path class="cls-9" d="M33.82,9.47c-.18,.19-.36,.38-.54,.57-.08,.09-.16,.17-.24,.26h-7.18c.03-.25,.09-.5,.15-.75,.25-.91,.72-1.76,1.42-2.38,.77-.69,1.83-1.08,2.85-.98,.24,.02,.37,.29,.24,.49-.4,.64-.99,1.19-1.2,1.89-.03,.09-.05,.19-.06,.29,.05-.05,.1-.1,.15-.15,.71-.67,1.67-1.06,2.64-1.1,.2,0,.32,.23,.19,.39-.24,.3-.45,.62-.62,.96-.11,.22-.2,.46-.27,.7,.07-.04,.14-.07,.21-.11h0c.7-.31,1.53-.35,2.25-.09Z"/>
        <g>
          <path class="cls-4" d="M37.16,33.58c-.25-1.38-1.46-4.93-2.58-8.82-.11-.14-.22-.28-.31-.43-.11-.18-.19-.36-.24-.54-.54-.02-1.08-.08-1.61-.2-.42-.09-.82-.24-1.19-.44-.09,.02-.19,.03-.28,.03-.14,0-.28-.02-.41-.06-.04,0-.09,.02-.13,.03-.28,.19-.62,.3-.95,.3-.09,0-.17,0-.26-.02,0,0,0,0-.01,0-.2,.04-.41,.07-.62,.1-.26,.17-.58,.26-.88,.26-.44,0-.84-.19-1.16-.48-.01-.01-.03-.02-.04-.04-.22-.11-.42-.26-.58-.44-.21,.48-.42,.96-.62,1.43-.42,1-.81,1.98-1.17,2.9-.93,2.41-1.63,4.42-1.93,5.33-.1,.3,.06,.63,.37,.74,1.68,.64,7.09,2.36,14.1,1.02,.33-.06,.55-.37,.49-.69Z"/>
          <path class="cls-24" d="M24.13,27.17c.36-.92,.75-1.9,1.17-2.9,.22-.06,.46-.08,.71-.06,1.13,.08,1.98,1.02,1.91,2.1s-1.06,1.88-2.19,1.79c-.68-.05-1.26-.41-1.6-.92Z"/>
          <g class="cls-16">
            <path class="cls-11" d="M24.29,30.39c-.04,.41-.15,.8-.2,1.2,.15,0,.3,.03,.44,.07,0-.06,0-.13,0-.21,0,0,.33-1.13-.02-1.78-.07-.12-.16-.22-.28-.28,.04,.33,.1,.66,.06,1Z"/>
          </g>
          <g class="cls-5">
            <path class="cls-2" d="M24.18,27.22c.32,.25,.71,.41,1.15,.44,1.13,.08,2.11-.72,2.19-1.79,.03-.44-.1-.87-.34-1.21,.5,.39,.8,1,.75,1.65-.08,1.07-1.06,1.88-2.19,1.79-.66-.05-1.23-.39-1.57-.88Z"/>
          </g>
          <path class="cls-11" d="M37.5,33.52c-.15-.81-.63-2.32-1.24-4.24-.44-1.38-.93-2.93-1.41-4.53-.07-.05-.14-.1-.2-.16-.31-.28-.45-.7-.48-1.11-.04-.02-.09-.03-.14-.03-.17,0-.34-.02-.51-.03,0,.04,0,.08,0,.11,0,.06,0,.13,0,.2,.05,.13,.09,.26,.11,.4,.04,0,.09,0,.13,0,.05,.13,.12,.26,.19,.39,.05,.08,.1,.15,.16,.24,.49,1.68,1.01,3.31,1.47,4.75,.6,1.9,1.08,3.39,1.22,4.15,.02,.13-.07,.25-.21,.28-1.84,.35-3.57,.49-5.15,.49-4.42,0-7.66-1.07-8.76-1.49-.14-.05-.21-.18-.16-.31,.5-1.49,1.82-5.3,3.52-9.21,.06,.04,.12,.08,.18,.11,0-.05-.01-.11-.01-.16,0-.03,0-.06,0-.09-.02-.09-.03-.19-.03-.28,0-.11,0-.23,.04-.35-.02-.02-.03-.03-.05-.05-.08-.09-.2-.13-.31-.11-.12,.02-.21,.1-.26,.2-1.8,4.08-3.21,8.14-3.73,9.7-.16,.48,.09,1,.58,1.18,.85,.33,2.65,.93,5.13,1.27,1.28,.18,2.57,.27,3.86,.27,1.77,0,3.54-.17,5.3-.51,.53-.1,.86-.58,.77-1.09Z"/>
          <path class="cls-4" d="M26.14,31.33s.15-1.12-.59-1.17c0,0-.7-.08-.81,1.15,0,0-.03,.37-.37,.33,0,0-.28,.01-.22-.47,0,0,.33-1.13-.02-1.78-.15-.27-.46-.42-.77-.37-.37,.06-.88,.29-.74,1.2,0,0,.3,.81-.25,2.08"/>
          <g class="cls-5">
            <path class="cls-2" d="M24.76,31.47c.21-.8,.74-.74,.74-.74,.37,.03,.52,.33,.57,.61l.07-.02s.15-1.12-.59-1.17c0,0-.7-.08-.81,1.15,0,0,0,.05-.03,.11,.01,.02,.03,.03,.04,.05Z"/>
          </g>
          <g class="cls-5">
            <path class="cls-2" d="M22.61,30.11c-.08-.82,.4-1.04,.75-1.1,.31-.05,.63,.1,.77,.37,.22,.41,.17,1,.11,1.39,0-.28-.04-.58-.16-.81-.15-.27-.46-.42-.77-.37-.25,.04-.57,.16-.7,.52Z"/>
          </g>
          <path class="cls-11" d="M22.37,32.46s-.05,0-.07-.01c-.08-.04-.12-.14-.09-.22,.52-1.18,.25-1.94,.25-1.95,0-.01,0-.02,0-.03-.07-.45,0-.81,.22-1.06,.15-.18,.38-.3,.66-.34,.39-.06,.76,.13,.94,.46,.36,.67,.08,1.75,.04,1.89-.02,.19,.02,.25,.04,.26,0,0,.01,.01,.01,.01,0,0,.02,0,.03,0,.06,0,.09,0,.11-.02,.05-.04,.07-.13,.07-.16,.05-.53,.2-.91,.47-1.13,.24-.19,.47-.18,.52-.18,.21,.02,.39,.1,.51,.26,.31,.39,.23,1.07,.22,1.1-.01,.09-.1,.16-.19,.14-.09-.01-.16-.1-.14-.19h0c.02-.16,.03-.62-.15-.84-.07-.09-.16-.13-.28-.14,0,0,0,0,0,0-.02,0-.53-.03-.62,1,0,.02-.02,.25-.19,.39-.07,.05-.18,.12-.35,.1-.05,0-.16-.02-.25-.12-.11-.12-.15-.3-.13-.54,0,0,0-.02,0-.03,0-.01,.31-1.08,0-1.66-.11-.21-.35-.32-.6-.28-.2,.03-.35,.11-.46,.23-.15,.17-.19,.43-.14,.77,.05,.14,.27,.96-.26,2.18-.03,.06-.09,.1-.15,.1Z"/>
          <path class="cls-27" d="M29.57,36.7s-5.11-.26-8.36-2.64c-.35-.25-.5-.7-.4-1.12,.06-.26,.17-.54,.36-.8,.3-.41,.86-.53,1.3-.29,1.12,.63,3.9,1.99,7.24,2.16h-.2c3.33,.31,6.27-.63,7.47-1.09,.47-.18,1,.02,1.24,.47,.15,.29,.22,.59,.25,.85,.04,.44-.18,.85-.56,1.05-3.55,1.88-8.65,1.39-8.65,1.39"/>
          <g class="cls-5">
            <path class="cls-2" d="M20.82,32.93c.02-.08,.04-.17,.08-.25,.07,.22,.2,.41,.38,.54,2.79,2.04,6.95,2.53,8.07,2.62l.28,.02c1.12,.07,5.31,.2,8.36-1.41,.2-.11,.36-.28,.46-.48,.02,.09,.03,.18,.04,.26,.04,.44-.18,.85-.56,1.05-3.05,1.61-7.23,1.48-8.36,1.41h.01s-.03,0-.09,0c-.02,0-.04,0-.06,0h-.02c-.09,0-.13-.01-.13-.01h.01c-1.12-.1-5.28-.58-8.07-2.62-.35-.25-.5-.7-.4-1.12Z"/>
          </g>
          <path class="cls-11" d="M30.8,37.07c-.57,0-1.01-.02-1.28-.04-.03,0-.08,0-.14,0-.03,0-.06,0-.08,0-.46-.04-1.49-.14-2.76-.42-1.57-.34-3.8-1.01-5.52-2.27-.46-.33-.66-.91-.53-1.47,.09-.35,.23-.66,.42-.92,.4-.55,1.15-.71,1.73-.38,1.01,.57,3.66,1.89,6.85,2.1,.02,0,.03,0,.05,0h.2s.03,.02,.05,.02c3.19,.26,6-.66,7.08-1.07,.63-.24,1.34,.03,1.66,.63,.15,.29,.25,.61,.28,.97,.06,.57-.23,1.12-.73,1.38-1.89,1-4.19,1.33-5.79,1.44-.55,.04-1.06,.05-1.49,.05Zm-1.35-.71c.37,.03,1.46,.09,2.81,0,1.53-.1,3.73-.42,5.51-1.36,.26-.14,.41-.43,.38-.73-.03-.27-.1-.51-.21-.72-.16-.31-.51-.44-.83-.32-1.14,.44-4.13,1.41-7.52,1.1-3.4-.19-6.22-1.6-7.28-2.19-.3-.17-.66-.09-.87,.19-.14,.19-.24,.42-.31,.68-.07,.29,.04,.6,.27,.77,1.63,1.19,3.76,1.83,5.26,2.15,1.32,.29,2.39,.39,2.77,.41Z"/>
          <ellipse class="cls-24" cx="32.37" cy="29.56" rx="1.95" ry="2.05" transform="translate(.03 59.15) rotate(-84.86)"/>
          <g class="cls-5">
            <path class="cls-2" d="M30.66,30.62c.32,.25,.71,.41,1.15,.44,1.13,.08,2.11-.72,2.19-1.79,.03-.44-.1-.87-.34-1.21,.5,.39,.8,1,.75,1.65-.08,1.07-1.06,1.88-2.19,1.79-.66-.05-1.23-.39-1.57-.88Z"/>
          </g>
          <path class="cls-11" d="M25.89,28.32c-.06,0-.12,0-.18,0-.72-.05-1.38-.43-1.76-1.02-.04-.06-.05-.13-.02-.2,.39-1.01,.79-1.99,1.17-2.91,.03-.06,.08-.11,.14-.13,.25-.07,.51-.09,.78-.07,1.25,.09,2.19,1.14,2.11,2.33-.04,.56-.3,1.07-.73,1.45-.42,.36-.95,.55-1.51,.55Zm-1.52-1.18c.32,.42,.82,.7,1.37,.74,.51,.04,.99-.12,1.37-.44,.35-.3,.55-.71,.58-1.15,.07-.95-.7-1.79-1.7-1.86-.18-.01-.36,0-.53,.03-.36,.85-.72,1.76-1.08,2.69Z"/>
          <path class="cls-11" d="M32.39,31.73c-.06,0-.12,0-.18,0-1.25-.09-2.19-1.14-2.11-2.33,.04-.56,.3-1.07,.73-1.45,.46-.4,1.06-.59,1.68-.55,1.25,.09,2.19,1.14,2.11,2.33-.04,.56-.3,1.07-.73,1.45-.42,.36-.95,.55-1.51,.55Zm-.05-3.9c-.45,0-.88,.16-1.22,.45-.35,.3-.55,.71-.58,1.15-.07,.95,.7,1.79,1.7,1.86,.51,.04,.99-.12,1.37-.44,.35-.3,.55-.71,.58-1.15,.07-.95-.7-1.79-1.7-1.86-.05,0-.1,0-.15,0Z"/>
          <g class="cls-16">
            <path class="cls-11" d="M32.1,30.55c0-.12,.11-.2,.24-.19,.12,0,.21,.11,.21,.23,0,.12-.11,.2-.24,.19-.12,0-.21-.11-.21-.23Z"/>
          </g>
          <g class="cls-16">
            <path class="cls-11" d="M31.19,29.62c0-.12,.11-.2,.24-.19s.21,.11,.21,.23c0,.12-.11,.2-.24,.19-.12,0-.21-.11-.21-.23Z"/>
          </g>
          <g class="cls-16">
            <path class="cls-11" d="M33.23,29.2c0-.12,.11-.2,.24-.19s.21,.11,.21,.23c0,.12-.11,.2-.24,.19s-.21-.11-.21-.23Z"/>
          </g>
          <g class="cls-16">
            <path class="cls-11" d="M32.2,29.66c0-.12,.11-.2,.24-.19,.12,0,.21,.11,.21,.23,0,.12-.11,.2-.24,.19s-.21-.11-.21-.23Z"/>
          </g>
          <g class="cls-16">
            <path class="cls-11" d="M32.09,28.54c0-.12,.11-.2,.24-.19,.12,0,.21,.11,.21,.23,0,.12-.11,.2-.24,.19-.12,0-.21-.11-.21-.23Z"/>
          </g>
          <g class="cls-16">
            <ellipse class="cls-11" cx="25.67" cy="27.16" rx=".21" ry=".22" transform="translate(-3.68 50.29) rotate(-84.86)"/>
          </g>
          <g class="cls-16">
            <path class="cls-11" d="M26.4,26.78c0-.12,.11-.2,.24-.19,.12,0,.21,.11,.21,.23,0,.12-.11,.2-.24,.19-.12,0-.21-.11-.21-.23Z"/>
          </g>
          <g class="cls-16">
            <path class="cls-11" d="M25.71,25.13c0-.12,.11-.2,.24-.19,.12,0,.21,.11,.21,.23,0,.12-.11,.2-.24,.19-.12,0-.21-.11-.21-.23Z"/>
          </g>
          <g class="cls-16">
            <ellipse class="cls-11" cx="26.33" cy="25.86" rx=".21" ry=".22" transform="translate(-1.79 49.77) rotate(-84.86)"/>
          </g>
          <path class="cls-20" d="M30.41,23.14c-.28,.19-.62,.3-.95,.3-.09,0-.17,0-.26-.02,0,0,0,0-.01,0-.08,.01-.15,.03-.23,.04,.24,.13,.51,.21,.79,.22,.36,0,.77-.09,1.13-.47,.01-.02,.03-.03,.04-.05-.13,0-.26-.02-.38-.05-.04,0-.09,.02-.13,.03Z"/>
          <path class="cls-20" d="M28.23,30.27c-.15-.21-.37-.57-.41-.95-.01-.13-.15-.22-.28-.19-.11,.03-.24,.07-.36,.14-.11,.06-.14,.21-.06,.31,.15,.2,.39,.58,.51,1,.03,.11-.02,.23-.12,.28l-.72,.38c-.18,.09-.21,.32-.08,.46,.28,.29,.82,.68,1.64,.51,.48-.1,.91-.38,1.14-.8,.17-.3,.26-.7,.06-1.17-.07-.17-.28-.24-.44-.15l-.52,.26c-.12,.06-.27,.02-.34-.08Z"/>
          <path class="cls-12" d="M34.17,33.09s-.78-.6-1.87-.5l.27-.83s1.22,.04,1.98,.64l-.38,.69Z"/>
          <path class="cls-12" d="M30.45,26.18s-.98-.21-1.9,.34l-.15-.86s1.11-.48,2.07-.26v.78Z"/>
          <g class="cls-16">
            <ellipse class="cls-11" cx="34.33" cy="27.23" rx=".38" ry=".2" transform="translate(4.73 59.54) rotate(-85.92)"/>
          </g>
          <g class="cls-16">
            <path class="cls-11" d="M25.08,28.88c.02-.21,.12-.37,.23-.37,.11,0,.19,.19,.17,.4-.02,.21-.12,.37-.23,.37-.11,0-.19-.19-.17-.4Z"/>
          </g>
          <g class="cls-16">
            <path class="cls-11" d="M29.98,31.99c.02-.21,.12-.37,.23-.37s.19,.19,.17,.4c-.02,.21-.12,.37-.23,.37-.11,0-.19-.19-.17-.4Z"/>
          </g>
          <g class="cls-16">
            <ellipse class="cls-11" cx="29.67" cy="27.38" rx=".38" ry=".2" transform="translate(.25 55.03) rotate(-85.92)"/>
          </g>
          <g class="cls-16">
            <path class="cls-11" d="M31.77,23.39c0,.2,.07,.36,.18,.37,.09,0,.17-.1,.21-.24-.13-.04-.26-.08-.38-.13Z"/>
          </g>
          <g class="cls-16">
            <path class="cls-11" d="M35.02,31.16c.02-.21,.12-.37,.23-.37,.11,0,.19,.19,.17,.4-.02,.21-.12,.37-.23,.37-.11,0-.19-.19-.17-.4Z"/>
          </g>
          <path class="cls-27" d="M29.57,34.71s-.07,0-.1,0h.2s-.07,.01-.1,0Z"/>
          <g class="cls-16">
            <path class="cls-11" d="M20.82,32.93c.06-.26,.17-.54,.36-.8,.3-.41,.86-.53,1.3-.29,1.11,.63,3.84,1.97,7.14,2.15,3.29,.3,6.18-.63,7.37-1.08,.47-.18,1,.02,1.24,.47,.15,.29,.22,.59,.25,.85,.02,.18-.01,.36-.08,.52-.04-.21-.1-.44-.22-.65-.24-.45-.77-.65-1.24-.47-1.19,.46-4.08,1.38-7.37,1.08-3.3-.19-6.03-1.53-7.14-2.15-.44-.25-.99-.13-1.3,.29-.15,.2-.24,.41-.31,.62-.04-.17-.05-.35,0-.53Z"/>
          </g>
          <g class="cls-16">
            <path class="cls-11" d="M30.33,29.39c.08-1.07,1.06-1.88,2.19-1.79,.66,.05,1.23,.39,1.57,.88-.32-.25-.71-.41-1.15-.44-1.13-.08-2.11,.72-2.19,1.79-.03,.45,.1,.87,.34,1.21-.5-.39-.8-1-.75-1.65Z"/>
          </g>
          <g class="cls-5">
            <path class="cls-2" d="M26.65,31.37c.31,.25,.79,.47,1.46,.34,.48-.1,.91-.38,1.14-.8,.12-.22,.2-.49,.16-.81,.06,.03,.11,.08,.14,.15,.2,.48,.11,.88-.06,1.17-.23,.42-.65,.7-1.14,.8-.82,.17-1.36-.22-1.64-.51-.09-.1-.1-.23-.05-.34Z"/>
          </g>
          <g class="cls-16">
            <path class="cls-11" d="M25.19,24.34c-.01,.05-.02,.1-.03,.15,0,0,0,0,0,0,0,0,0,0,0,0-.02,.08-.05,.16-.09,.24-.03,.07-.07,.14-.11,.2,.37-.25,.84-.38,1.33-.35,.44,.03,.84,.19,1.15,.44-.34-.49-.91-.83-1.57-.88-.24-.02-.47,0-.69,.06,0,.05,.01,.09,0,.13Z"/>
          </g>
          <path class="cls-11" d="M27.96,32.42c-.68,0-1.15-.36-1.38-.6-.1-.11-.15-.25-.12-.39,.02-.14,.11-.27,.24-.34l.72-.38s.05-.05,.04-.09c-.11-.41-.35-.77-.48-.95-.06-.09-.09-.2-.07-.3,.02-.1,.09-.2,.18-.25,.11-.07,.25-.12,.4-.15,.11-.03,.23,0,.33,.06,.09,.06,.15,.17,.16,.28,.04,.34,.25,.69,.38,.87,0,0,0,0,0,0,.03,.04,.09,.05,.13,.03l.52-.26c.12-.06,.27-.07,.4-.02,.13,.05,.23,.14,.28,.26,.19,.45,.17,.9-.06,1.32-.25,.45-.71,.77-1.25,.88-.15,.03-.29,.04-.42,.04Zm-.36-3.13s-.01,0-.02,0c-.12,.03-.23,.07-.32,.12-.01,0-.02,.02-.02,.03,0,0,0,.02,0,.03,.15,.2,.41,.6,.54,1.06,.05,.19-.03,.38-.21,.47l-.72,.38s-.06,.05-.07,.09c0,.02,0,.06,.03,.1,.28,.29,.77,.61,1.49,.46,.45-.09,.82-.35,1.02-.72,.18-.33,.2-.67,.05-1.03-.02-.05-.06-.07-.08-.08-.04-.02-.09-.01-.13,0l-.52,.26c-.19,.1-.43,.04-.55-.13h0c-.18-.25-.4-.63-.44-1.03,0-.02-.02-.03-.02-.04,0,0-.02-.01-.04-.01Z"/>
          <g class="cls-5">
            <path class="cls-2" d="M30.27,23.23c-.25,.14-.54,.22-.81,.22-.09,0-.17,0-.26-.02,0,0,0,0-.01,0-.08,.02-.16,.03-.24,.04,.29,.16,.62,.24,.96,.22,.34-.02,.72-.15,1.03-.52-.1,0-.19,0-.28-.03-.13,.05-.26,.07-.38,.08Z"/>
          </g>
          <path class="cls-11" d="M29.8,23.86s-.03,0-.04,0c-.3,0-.6-.09-.87-.24-.06-.03-.1-.1-.08-.17,.01-.07,.07-.12,.14-.14,.08-.01,.16-.03,.23-.04h0s.04,0,.06,0c.08,.01,.15,.02,.23,.02,.29,0,.6-.1,.85-.27,.02-.01,.04-.02,.06-.03,.04-.01,.09-.02,.13-.03,.03,0,.05,0,.08,0,.11,.03,.23,.05,.34,.05,.06,0,.11,.03,.14,.09,.03,.05,.03,.12,0,.17-.02,.03-.04,.05-.06,.08-.32,.34-.74,.53-1.21,.53Zm.68-.56c-.11,.08-.23,.14-.36,.19,.16-.04,.3-.1,.43-.2,0,0-.01,0-.02,0-.02,0-.04,0-.06,.01Z"/>
          <g class="cls-5">
            <path class="cls-2" d="M31.66,25.23c.43-.08,.53,.4,.53,.4,0,.11,0,.2,.02,.27,.06,.25,.48,.32,.64,.1,.13-.17,.2-.45,.25-.75-.04,.48-.11,1.02-.31,1.3-.16,.22-.57,.15-.64-.1-.02-.07-.03-.16-.02-.27,0,0-.11-.48-.53-.4-.3,.06-.46,.45-.54,.8h-.02s.06-1.24,.62-1.35Z"/>
          </g>
          <g class="cls-5">
            <path class="cls-2" d="M32.3,32.59l.27-.83s.01,0,.03,0l-.16,.5c1.09-.1,1.87,.5,1.87,.5l.21-.38s.02,.01,.03,.02l-.38,.69s-.78-.6-1.87-.5Z"/>
          </g>
          <path class="cls-11" d="M34.17,33.25s-.07-.01-.1-.03c0,0-.75-.56-1.76-.46-.06,0-.11-.02-.15-.06-.04-.04-.05-.1-.03-.16l.27-.83c.02-.07,.09-.12,.16-.12,.05,0,1.28,.05,2.08,.67,.06,.05,.08,.14,.04,.21l-.38,.69s-.06,.07-.11,.08c-.01,0-.02,0-.03,0Zm-1.63-.84c.73,0,1.3,.28,1.57,.44l.22-.4c-.57-.38-1.35-.48-1.65-.51l-.15,.48s0,0,.01,0Z"/>
          <g class="cls-5">
            <path class="cls-2" d="M28.54,26.5l-.15-.86s.01,0,.03-.01l.09,.52c.93-.55,1.91-.34,1.91-.34v-.43s.03,0,.04,0l-.02,.78s-.98-.21-1.91,.34Z"/>
          </g>
          <path class="cls-11" d="M28.54,26.69s-.05,0-.07-.02c-.05-.02-.09-.07-.09-.12l-.15-.86c-.01-.08,.03-.15,.1-.18,.05-.02,1.17-.5,2.17-.27,.08,.02,.13,.09,.13,.17v.78s-.04,.1-.08,.13c-.04,.03-.09,.04-.14,.03-.01,0-.93-.19-1.78,.32-.03,.02-.06,.02-.09,.02Zm.04-.92l.09,.5c.66-.32,1.3-.31,1.62-.28v-.45c-.68-.1-1.42,.13-1.7,.23Z"/>
          <path class="cls-11" d="M31.2,26.75s-.03,0-.04,0c-.09-.02-.14-.11-.12-.2,.03-.12,.04-.25,.05-.39,.02-.27,.04-.58,.26-.84,.15-.17,.4-.26,.62-.21,.17,.04,.3,.16,.35,.33,.02,.08,.03,.17,.04,.25,.03,.28,.06,.29,.18,.28,.11,0,.25-.15,.31-.8,.02-.18,.02-.36,.03-.53,0-.05,0-.11,0-.16,0-.04,0-.08,0-.13,0-.2,0-.43,.1-.62,.04-.08,.14-.12,.22-.08,.08,.04,.12,.14,.08,.22-.06,.12-.06,.3-.06,.47,0,.05,0,.09,0,.14,0,.05,0,.11,0,.16,0,.18-.01,.37-.03,.56-.03,.29-.11,1.06-.62,1.1-.47,.04-.51-.36-.53-.58,0-.07-.02-.14-.03-.19-.02-.05-.05-.08-.1-.1-.09-.02-.23,.03-.29,.1-.15,.18-.17,.39-.18,.64,0,.15-.02,.3-.06,.45-.02,.08-.09,.13-.16,.13Z"/>
          <path class="cls-11" d="M34.37,26.06c-.05,0-.11,0-.17-.03,0,0,0,0,0,0-.45-.16-.51-.7-.53-.96-.03-.24-.01-.46,0-.68,.02-.18,.03-.36,0-.53-.01-.09,.05-.18,.15-.19,.09-.01,.18,.05,.19,.15,.02,.2,0,.4,0,.6-.02,.2-.03,.4,0,.61,0,0,0,0,0,0,.03,.35,.1,.6,.31,.68,.08,.02,.12,0,.15-.02,.11-.08,.18-.32,.19-.51,0-.09,.08-.16,.17-.16,.09,0,.16,.08,.16,.17,0,.27-.1,.61-.33,.77-.08,.06-.18,.09-.28,.09Z"/>
          <g class="cls-16">
            <path class="cls-11" d="M34.75,24.97c-.08,.25-.21,.43-.42,.41,0,0-.47,.02-.48-1.24,0,0,0,0,0,0-.13,1.77,.46,1.75,.46,1.75,.33,.02,.46-.42,.5-.85-.02-.03-.04-.05-.07-.08Z"/>
          </g>
          <g class="cls-16">
            <path class="cls-11" d="M31.31,25.43c-.08,.32-.09,.64-.09,.64l.04,.02c.04-.2,.1-.42,.19-.59-.05-.02-.09-.04-.14-.06Z"/>
          </g>
          <g class="cls-16">
            <path class="cls-11" d="M32.24,25.42s-.07,.03-.1,.04c.04,.09,.06,.17,.06,.17,0,.11,0,.2,.01,.27,.05,.25,.41,.31,.55,.1,.24-.37,.28-1.19,.31-1.73,0,0,0-.02-.01-.03-.04,.47-.1,.97-.28,1.24-.13,.21-.46,.16-.54-.06Z"/>
          </g>
        </g>
        <path class="cls-9" d="M13.3,38.76c2.16,1.7,5.19,2.08,7.83,1.33,.89-.25,1.75-.62,2.47-1.2,.41-.32,.76-.7,1.09-1.1,.44-.53,.84-1.12,1-1.79,.16-.67,.04-1.44-.45-1.92-.38-.38-.93-.54-1.47-.61-1.6-.22-3.28,.23-4.57,1.21"/>
        <path class="cls-25" d="M21.01,11.04c-1.02,.42-1.97,.92-2.83,1.49-.17-.11-.34-.24-.5-.38-.42-.39-.74-.92-.74-1.5,0-.29,.09-.58,.21-.84,.13-.29,.32-.56,.55-.77,.56-.51,1.43-.66,2.13-.36,.7,.3,1.2,1.02,1.22,1.78,0,.2-.02,.39-.05,.58Z"/>
        <path class="cls-9" d="M39.62,34.27c-.93-1.17-2.55-1.83-4-1.43-1.44,.4-2.53,1.97-2.2,3.43,.15,.66,.54,1.24,.96,1.77,.65,.81,1.41,1.56,2.33,2.04,1.21,.64,2.65,.79,4,.56s2.75-.33,3.9-1.08"/>
        <path class="cls-22" d="M24.23,24.45c.25-.05,.5-.14,.74-.25,.24-.11,.45-.24,.65-.41,.2-.16,.37-.36,.51-.57,.06-.1,.12-.2,.16-.31,.06-.13,.11-.26,.14-.4,.07-.31,.08-.62,0-.93-.02-.09-.09-.17-.17-.22-.08-.05-.19-.06-.28-.04-.09,.03-.17,.08-.22,.17-.05,.09-.06,.18-.04,.28,0,.04,.02,.09,.02,.13,0-.03,0-.06-.01-.1,.02,.14,.02,.29,0,.43,0-.03,0-.06,.01-.1-.02,.16-.07,.32-.13,.48,.01-.03,.02-.06,.04-.09-.07,.16-.16,.31-.26,.45,.02-.02,.04-.05,.06-.07-.12,.15-.25,.28-.4,.39,.02-.02,.05-.04,.07-.06-.18,.14-.38,.25-.59,.34,.03-.01,.06-.02,.09-.04-.19,.08-.39,.14-.6,.19-.09,.02-.17,.09-.22,.17-.05,.08-.06,.19-.04,.28,.03,.09,.08,.17,.17,.22,.09,.05,.18,.06,.28,.04h0Z"/>
        <path class="cls-22" d="M33.62,22.1c-.06,.12-.1,.24-.14,.37-.03,.13-.05,.26-.07,.39-.03,.23,0,.47,.03,.7,.04,.23,.12,.44,.21,.66,.08,.19,.18,.36,.3,.53,.15,.2,.31,.4,.49,.57,.07,.07,.16,.11,.26,.11,.09,0,.2-.04,.26-.11,.06-.07,.11-.16,.11-.26,0-.1-.04-.19-.11-.26-.13-.12-.25-.26-.36-.4,.02,.02,.04,.05,.06,.07-.16-.2-.29-.43-.39-.66,.01,.03,.02,.06,.04,.09-.08-.2-.14-.4-.17-.61,0,.03,0,.06,.01,.1-.03-.19-.03-.39,0-.58,0,.03,0,.06-.01,.1,.02-.16,.06-.32,.13-.47-.01,.03-.02,.06-.04,.09,0-.02,.02-.04,.03-.06,.04-.09,.06-.18,.04-.28-.02-.08-.09-.18-.17-.22-.08-.04-.19-.07-.28-.04-.09,.03-.18,.08-.22,.17h0Z"/>
        <path class="cls-22" d="M25.62,23.14c.18,.26,.43,.47,.71,.62,.26,.14,.55,.25,.85,.3,.17,.03,.33,.04,.5,.04,.2,0,.41-.03,.61-.06,.35-.06,.69-.15,1.03-.25,.38-.11,.77-.22,1.17-.28-.03,0-.06,0-.1,.01,.29-.04,.57-.04,.86,0-.03,0-.06,0-.1-.01,.34,.05,.68,.14,1.01,.26,.33,.11,.65,.25,.99,.31,.25,.04,.49,.05,.73,0,.09-.02,.17-.09,.22-.17,.05-.08,.06-.19,.04-.28-.06-.19-.25-.3-.45-.25-.04,0-.07,.02-.11,.02,.03,0,.06,0,.1-.01-.12,.02-.24,.01-.36,0,.03,0,.06,0,.1,.01-.34-.05-.67-.19-.99-.3-.33-.11-.67-.22-1.01-.27-.2-.03-.4-.05-.6-.05-.2,0-.41,.03-.61,.06-.35,.06-.69,.15-1.03,.25-.38,.11-.77,.22-1.17,.28,.03,0,.06,0,.1-.01-.25,.03-.5,.05-.75,.01,.03,0,.06,0,.1,.01-.22-.03-.43-.09-.63-.17,.03,.01,.06,.02,.09,.04-.17-.07-.32-.16-.47-.27,.02,.02,.05,.04,.07,.06-.1-.08-.19-.17-.27-.27,.02,.02,.04,.05,.06,.07-.01-.02-.03-.03-.04-.05-.06-.08-.12-.14-.22-.17-.09-.02-.2-.01-.28,.04-.08,.05-.15,.12-.17,.22-.02,.09-.02,.2,.04,.28h0Z"/>
        <path class="cls-25" d="M41.72,12.57c-.24,.27-.52,.5-.82,.7-.83-.66-1.77-1.25-2.8-1.75-.02-.11-.04-.21-.05-.32-.06-.79,.38-1.59,1.07-1.97,.69-.38,1.6-.32,2.24,.14,.27,.19,.48,.45,.65,.73,.16,.26,.28,.55,.31,.85,.07,.59-.21,1.18-.6,1.62Z"/>
        <path class="cls-22" d="M29.9,21.5c-.35-.23-.68-.48-1-.75-.21-.17-.42-.36-.53-.6-.12-.24-.11-.56,.07-.76,.08-.09,.2-.14,.31-.19,.76-.32,1.64-.37,2.43-.14,.16,.05,.33,.11,.46,.23,.13,.11,.22,.28,.19,.45-.03,.18-.17,.32-.31,.44-.44,.4-.88,.8-1.32,1.2l-.3,.11Z"/>
        <path class="cls-22" d="M30.24,23.35c.08-.17,.15-.34,.19-.51,.05-.18,.07-.36,.09-.54,.03-.33,0-.68-.1-1-.05-.2-.13-.39-.23-.57-.04-.08-.13-.14-.22-.17-.09-.02-.2-.01-.28,.04-.17,.11-.22,.32-.13,.5,.03,.06,.06,.12,.09,.18-.01-.03-.02-.06-.04-.09,.09,.21,.14,.42,.17,.64,0-.03,0-.06-.01-.1,.03,.23,.03,.46,0,.69,0-.03,0-.06,.01-.1-.03,.22-.09,.44-.17,.64,.01-.03,.02-.06,.04-.09-.01,.03-.03,.06-.04,.09-.04,.09-.06,.18-.04,.28,.02,.08,.09,.18,.17,.22,.08,.04,.19,.07,.28,.04,.09-.03,.18-.08,.22-.17h0Z"/>
        <ellipse class="cls-2" cx="30.43" cy="19.64" rx=".58" ry=".26"/>
        <g>
          <ellipse class="cls-22" cx="23.84" cy="17.72" rx="1.31" ry="2.48" transform="translate(-.31 .43) rotate(-1.03)"/>
          <ellipse class="cls-2" cx="24.06" cy="16.3" rx=".48" ry=".63" transform="translate(-2.7 4.95) rotate(-11.13)"/>
          <g class="cls-26">
            <ellipse class="cls-2" cx="23.66" cy="19.34" rx=".41" ry=".51" transform="translate(-6.59 15.03) rotate(-31.15)"/>
          </g>
        </g>
        <g>
          <ellipse class="cls-22" cx="36.15" cy="17.72" rx="1.31" ry="2.48" transform="translate(-.54 1.14) rotate(-1.8)"/>
          <ellipse class="cls-2" cx="35.86" cy="16.32" rx=".63" ry=".48" transform="translate(14.53 49.44) rotate(-81.69)"/>
          <g class="cls-26">
            <ellipse class="cls-2" cx="36.41" cy="19.33" rx=".51" ry=".41" transform="translate(2.12 42.21) rotate(-61.67)"/>
          </g>
        </g>
        <g class="cls-17">
          <path class="cls-2" d="M22.21,9.19c-.37-.58-.91-1.06-1.55-1.33-1.2-.51-2.69-.26-3.66,.62-.4,.36-.72,.82-.95,1.32-.21,.45-.36,.95-.36,1.45,0,.18,.02,.35,.05,.52-.33-.51-.54-1.1-.53-1.7,0-.5,.15-.99,.36-1.45,.23-.49,.54-.95,.95-1.32,.97-.88,2.45-1.13,3.66-.62,1.03,.44,1.81,1.42,2.03,2.51Z"/>
        </g>
        <path class="cls-22" d="M21.22,8c.17,.22,.31,.46,.42,.71,.1,.25,.17,.5,.21,.76,.03,.29,.03,.58,0,.87-.03,.19-.07,.38-.12,.56,.21-.1,.45-.15,.68-.15,.06,0,.13,0,.19,.01,.03-.17,.06-.34,.08-.51,.04-.36,.02-.72-.04-1.07-.06-.32-.16-.62-.3-.92-.13-.29-.31-.56-.51-.82-.18-.23-.38-.44-.61-.61-.25-.2-.52-.37-.82-.5-.3-.13-.61-.23-.94-.27-.33-.05-.66-.06-.99-.03-.33,.04-.65,.1-.96,.22-.31,.11-.61,.26-.87,.45-.29,.2-.55,.43-.77,.7-.23,.28-.44,.59-.6,.92-.17,.35-.32,.72-.39,1.1-.04,.21-.07,.42-.07,.63,0,.19,.02,.38,.05,.57,.06,.34,.18,.67,.33,.98,.16,.31,.36,.6,.58,.87,.21,.25,.45,.48,.71,.69,.17,.14,.35,.27,.54,.4,.06-.09,.12-.17,.19-.24,.13-.13,.28-.24,.45-.32-.05-.03-.11-.07-.16-.1-.13-.09-.27-.18-.4-.28-.31-.24-.59-.51-.83-.81-.18-.24-.33-.49-.45-.76-.09-.22-.15-.44-.19-.67-.02-.2-.02-.41,0-.61,.04-.28,.13-.56,.23-.83,.14-.33,.32-.64,.53-.92,.17-.21,.35-.4,.56-.56,.2-.15,.42-.28,.66-.38,.26-.11,.54-.18,.82-.22,.28-.03,.56-.03,.84,0,.25,.04,.5,.1,.74,.2,.23,.1,.44,.23,.64,.38,.21,.17,.4,.36,.56,.56Z"/>
        <g class="cls-17">
          <path class="cls-2" d="M43.23,12.58c.16-.43,.23-.88,.17-1.34-.06-.5-.25-.97-.51-1.4-.28-.47-.64-.89-1.08-1.21-1.05-.77-2.56-.86-3.7-.23-.38,.21-.71,.49-.98,.83,.28-.8,.84-1.51,1.58-1.92,1.14-.63,2.65-.54,3.7,.23,.44,.32,.8,.74,1.08,1.21,.26,.43,.46,.9,.51,1.4,.1,.87-.25,1.73-.78,2.43Z"/>
        </g>
        <g class="cls-17">
          <path class="cls-2" d="M21.03,10.15c-.22-.39-.56-.72-.97-.9-.7-.3-1.57-.15-2.13,.36-.24,.21-.42,.48-.55,.77-.12,.26-.21,.55-.21,.84,0,.1,0,.2,.03,.3-.15-.27-.24-.57-.24-.87,0-.29,.09-.58,.21-.84,.13-.29,.32-.56,.55-.77,.56-.51,1.43-.66,2.13-.36,.6,.26,1.06,.83,1.19,1.47Z"/>
        </g>
        <g class="cls-17">
          <path class="cls-2" d="M41.91,12.32c.09-.26,.13-.53,.1-.8-.03-.3-.15-.59-.31-.85-.17-.28-.39-.54-.65-.73-.64-.47-1.55-.52-2.24-.14-.26,.14-.48,.34-.65,.58,.17-.48,.51-.91,.96-1.16,.69-.38,1.6-.32,2.24,.14,.27,.19,.48,.45,.65,.73,.16,.26,.28,.55,.31,.85,.05,.49-.12,.97-.41,1.38Z"/>
        </g>
        <path class="cls-22" d="M44.4,9.94c-.06-.37-.19-.73-.36-1.07-.16-.33-.37-.64-.6-.93-.23-.29-.5-.53-.79-.75-.27-.2-.57-.35-.88-.47-.31-.12-.64-.19-.97-.22-.33-.04-.67-.02-1,.02-.3,.04-.59,.12-.87,.24-.17,.07-.33,.15-.49,.24-.15,.09-.3,.2-.43,.31-.25,.2-.47,.44-.66,.7-.18,.23-.33,.48-.44,.75-.13,.3-.23,.6-.29,.93-.06,.33-.08,.66-.04,.99,.02,.16,.04,.31,.07,.46,.04,0,.08,0,.13,0,.28,0,.53,.07,.76,.2-.06-.19-.1-.39-.13-.58-.03-.26-.03-.52,0-.79,.04-.27,.12-.54,.22-.79,.11-.25,.25-.49,.42-.72,.16-.2,.34-.39,.55-.55,.19-.14,.4-.27,.62-.37,.25-.1,.51-.17,.77-.21,.28-.03,.57-.03,.85,0,.27,.04,.54,.11,.8,.22,.23,.1,.44,.22,.64,.37,.23,.19,.44,.4,.63,.64,.21,.28,.39,.59,.54,.91,.09,.22,.16,.45,.19,.69,.02,.2,.02,.41,0,.62-.04,.25-.11,.5-.21,.74-.13,.3-.3,.58-.49,.84-.31,.39-.67,.72-1.06,1.03-.1,.08-.21,.16-.31,.23,.08,.06,.16,.12,.24,.19,.13,.12,.23,.27,.31,.43,.21-.15,.41-.31,.61-.47,.53-.45,1.01-.99,1.33-1.61,.16-.32,.3-.66,.37-1.01,.04-.19,.06-.39,.07-.58,0-.2-.01-.39-.04-.59Z"/>
        <g class="cls-17">
          <path class="cls-2" d="M30.53,6.67c-.4,.64-.99,1.19-1.2,1.89,0-.15,0-.3,.04-.45l.02-.18c-1.3,.11-2.54,.84-3.27,1.92l-.04-.13c0-.07-.03-.13-.06-.18,.25-.91,.72-1.76,1.42-2.38,.77-.69,1.83-1.08,2.85-.98,.24,.02,.37,.29,.24,.49Z"/>
        </g>
        <g class="cls-17">
          <path class="cls-2" d="M31.48,8.8c-.61-.35-1.36-.16-2.06-.09,.71-.67,1.67-1.06,2.64-1.1,.2,0,.32,.23,.19,.39-.24,.3-.45,.62-.62,.96,0,0,0-.02,0-.02-.03-.07-.09-.11-.15-.15Z"/>
        </g>
        <g class="cls-17">
          <path class="cls-2" d="M33.82,9.47c-.18,.19-.36,.38-.54,.57-.43-.45-1.11-.64-1.72-.48,.7-.31,1.53-.35,2.25-.09Z"/>
        </g>
        <path class="cls-22" d="M26.21,10.39c.07-.5,.2-.99,.39-1.45-.01,.03-.02,.06-.04,.09,.17-.39,.38-.77,.64-1.11-.02,.02-.04,.05-.06,.07,.22-.28,.47-.54,.76-.76-.02,.02-.05,.04-.07,.06,.27-.21,.57-.38,.89-.52-.03,.01-.06,.02-.09,.04,.31-.13,.63-.22,.96-.26-.03,0-.06,0-.1,.01,.26-.03,.53-.04,.8-.01-.03,0-.06,0-.1-.01,.03,0,.06,.01,.09,.02-.03-.01-.06-.02-.09-.04,.02,.01,.05,.02,.07,.04-.02-.02-.05-.04-.07-.06,.02,.02,.04,.04,.06,.06-.02-.02-.04-.05-.06-.07,.02,.02,.03,.05,.04,.07-.01-.03-.02-.06-.04-.09,.01,.03,.02,.05,.02,.08,0-.03,0-.06-.01-.1,0,.03,0,.06,0,.09,0-.03,0-.06,.01-.1,0,.03-.01,.06-.02,.09,.01-.03,.02-.06,.04-.09-.03,.08-.09,.15-.13,.21-.05,.07-.1,.14-.15,.21-.1,.14-.21,.28-.32,.42-.2,.27-.4,.55-.53,.85-.09,.2-.16,.4-.19,.62,0,.03,0,.06-.01,.1,0,.05,0,.1,.03,.14,.03,.07,.08,.14,.15,.17,.14,.07,.33,.06,.44-.06,.13-.14,.28-.27,.43-.39-.02,.02-.05,.04-.07,.06,.28-.22,.59-.39,.91-.53-.03,.01-.06,.02-.09,.04,.34-.14,.7-.24,1.07-.29-.03,0-.06,0-.1,.01,.07,0,.15-.02,.22-.02,.07,0,.14-.02,.21,0-.03,0-.06,0-.1-.01,.02,0,.04,0,.06,.02-.03-.01-.06-.02-.09-.04,.02,0,.03,.02,.05,.03-.02-.02-.05-.04-.07-.06,.02,.01,.03,.03,.04,.04-.02-.02-.04-.05-.06-.07,.01,.02,.03,.04,.04,.06-.01-.03-.02-.06-.04-.09,0,.02,.01,.04,.02,.06,0-.03,0-.06-.01-.1,0,.02,0,.04,0,.06,0-.03,0-.06,.01-.1,0,.02,0,.04-.02,.06,.01-.03,.02-.06,.04-.09,0,.02-.02,.03-.03,.05,.02-.02,.04-.05,.06-.07-.17,.22-.34,.44-.48,.68-.14,.24-.26,.49-.37,.75-.05,.13-.1,.27-.14,.4-.02,.06-.02,.13,0,.19,.02,.08,.07,.14,.13,.19,.12,.09,.27,.1,.4,.03,.09-.05,.18-.09,.27-.13-.03,.01-.06,.02-.09,.04,.25-.1,.51-.17,.77-.21-.03,0-.06,0-.1,.01,.28-.04,.55-.04,.83,0-.03,0-.06,0-.1-.01,.2,.03,.4,.08,.6,.15-.05-.2-.11-.41-.16-.61-.26,.27-.52,.55-.78,.82-.07,.07-.11,.16-.11,.26,0,.09,.04,.2,.11,.26,.07,.06,.16,.11,.26,.11,.1,0,.19-.04,.26-.11,.26-.27,.52-.55,.78-.82,.09-.09,.13-.23,.09-.35-.04-.13-.13-.21-.25-.25-.68-.24-1.46-.25-2.15-.03-.21,.07-.41,.15-.6,.26,.18,.14,.36,.27,.53,.41,.05-.16,.1-.31,.17-.47-.01,.03-.02,.06-.04,.09,.16-.38,.37-.74,.62-1.07-.02,.02-.04,.05-.06,.07,.06-.08,.13-.15,.18-.23,.06-.09,.09-.2,.09-.31,0-.21-.12-.41-.29-.52-.16-.1-.34-.09-.51-.07-.16,.01-.33,.04-.49,.07-.27,.05-.54,.13-.79,.23-.28,.11-.55,.24-.8,.41-.28,.18-.55,.4-.78,.64l.61,.35c.02-.17,.07-.34,.14-.5-.01,.03-.02,.06-.04,.09,.24-.57,.68-1.03,1.03-1.54,.11-.16,.21-.33,.19-.53,0-.12-.04-.23-.1-.33-.06-.1-.14-.18-.24-.23-.18-.1-.39-.11-.59-.11-.16,0-.32,0-.48,.03-.35,.04-.69,.12-1.02,.25-.33,.13-.64,.29-.92,.49-.57,.4-1.03,.93-1.37,1.53-.33,.58-.56,1.22-.67,1.87-.01,.08-.03,.15-.04,.23-.02,.05-.02,.1,0,.15,0,.05,.02,.09,.04,.14,.04,.08,.13,.15,.22,.17,.09,.02,.2,.02,.28-.04,.07-.05,.15-.13,.17-.22h0Z"/>
        <g class="cls-16">
          <path class="cls-22" d="M18.44,53.3c-1.65,.36-3.45-1.44-4.01-4.02-.09-.41-.14-.82-.16-1.21,.68,2.28,2.34,3.81,3.87,3.47,1.39-.3,2.23-2.04,2.13-4.11,.05,.18,.1,.36,.14,.54,.57,2.58-.32,4.97-1.97,5.33Z"/>
        </g>
        <g class="cls-17">
          <path class="cls-2" d="M20.54,49.18c-.68-2.28-2.34-3.81-3.87-3.47-1.39,.3-2.23,2.04-2.13,4.11-.05-.18-.1-.36-.14-.54-.57-2.58,.32-4.97,1.97-5.33,1.65-.36,3.45,1.44,4.01,4.02,.09,.41,.14,.82,.16,1.21Z"/>
        </g>
        <path class="cls-22" d="M17.97,53.71c-.77,0-1.54-.36-2.24-1.06-.81-.81-1.41-1.98-1.7-3.29-.29-1.32-.23-2.63,.17-3.7,.42-1.13,1.15-1.86,2.08-2.06,.92-.2,1.9,.15,2.75,1,.81,.81,1.41,1.98,1.7,3.29,.29,1.32,.23,2.63-.17,3.7-.42,1.13-1.15,1.86-2.08,2.06-.17,.04-.34,.06-.51,.06Zm-1.18-9.44c-.12,0-.24,.01-.35,.04-.67,.15-1.22,.72-1.55,1.6-.35,.94-.4,2.11-.14,3.29,.26,1.18,.79,2.22,1.5,2.93,.67,.67,1.41,.95,2.08,.81,.67-.15,1.22-.72,1.55-1.6,.35-.94,.4-2.11,.14-3.29h0c-.26-1.18-.79-2.22-1.5-2.93-.55-.55-1.15-.84-1.73-.84Z"/>
        <g>
          <line class="cls-9" x1="16.18" y1="46.06" x2="15.58" y2="44.4"/>
          <path class="cls-22" d="M16.18,46.43c-.15,0-.29-.09-.34-.24l-.6-1.66c-.07-.19,.03-.4,.22-.47,.19-.07,.4,.03,.47,.22l.6,1.66c.07,.19-.03,.4-.22,.47-.04,.01-.08,.02-.12,.02Z"/>
        </g>
        <g>
          <line class="cls-9" x1="17.58" y1="45.82" x2="17.65" y2="44.08"/>
          <path class="cls-22" d="M17.58,46.18s-.01,0-.02,0c-.2,0-.36-.18-.35-.38l.07-1.74c0-.2,.18-.36,.38-.35,.2,0,.36,.18,.35,.38l-.07,1.74c0,.2-.17,.35-.36,.35Z"/>
        </g>
        <path class="cls-22" d="M37.41,53.71c-.17,0-.34-.02-.51-.06-.92-.2-1.66-.93-2.08-2.06-.4-1.07-.45-2.38-.17-3.7,.29-1.31,.89-2.48,1.7-3.29,.85-.85,1.83-1.21,2.75-1,.92,.2,1.66,.93,2.08,2.06,.4,1.07,.45,2.38,.17,3.7-.29,1.31-.89,2.48-1.7,3.29-.69,.69-1.47,1.06-2.24,1.06Zm1.18-9.44c-.57,0-1.17,.29-1.73,.84-.71,.71-1.24,1.75-1.5,2.93h0c-.26,1.18-.21,2.35,.14,3.29,.33,.89,.88,1.45,1.55,1.6,.67,.15,1.41-.14,2.08-.81,.71-.71,1.24-1.75,1.5-2.93,.26-1.18,.21-2.35-.14-3.29-.33-.89-.88-1.45-1.55-1.6-.12-.03-.23-.04-.35-.04Zm-3.58,3.7h0Z"/>
        <g class="cls-16">
          <path class="cls-22" d="M16.18,29.09s-.02-.05-.04-.07c.1-.22,.21-.44,.32-.65l-.29,.73Z"/>
        </g>
        <g class="cls-16">
          <path class="cls-22" d="M13.04,38.86c.11,.06,.22,.13,.32,.22,.07,.02,.13,.04,.2,.06,.28,.08,.54,.19,.81,.31,.25,.11,.5,.24,.76,.36,.41,.15,.85,.24,1.28,.33,.42,.1,.85,.18,1.28,.25,.87,.1,1.74,.09,2.61,0,.63-.1,1.26-.25,1.86-.48,.35-.16,.68-.35,.99-.56,.52-.43,1-.9,1.5-1.35-1.24,.58-2.51,1.09-3.86,1.27-1.72,.23-3.6-.13-4.83-1.36-.58-.58-.99-1.33-1.17-2.13-.19-.87-.1-1.77,.05-2.64,.25-1.42,.69-2.8,1.31-4.1-.04-.08-.1-.16-.17-.22-1.62,1.79-3.02,3.79-3.42,6.13-.22,1.25-.11,2.62,.64,3.64l-.15,.28Z"/>
        </g>
        <g class="cls-5">
          <path class="cls-2" d="M25.69,36.01c-.16,.67-.56,1.26-1,1.79-.33,.4-.68,.78-1.09,1.1-.37,.29-.77,.53-1.19,.73,.01,0,.02-.02,.04-.03,.41-.32,.76-.7,1.09-1.1,.44-.53,.84-1.12,1-1.79,.16-.67,.04-1.44-.45-1.92-.38-.38-.93-.54-1.47-.61-1.17-.16-2.38,.03-3.44,.53l.03-.02c1.28-.98,2.96-1.43,4.57-1.21,.53,.07,1.08,.23,1.47,.61,.49,.48,.61,1.25,.45,1.92Z"/>
        </g>
        <path class="cls-22" d="M13.04,39.02c.31,.24,.63,.47,.97,.66,.34,.19,.7,.36,1.06,.51,.71,.29,1.46,.46,2.22,.56,.74,.09,1.48,.1,2.22,.02,.78-.08,1.55-.25,2.3-.51,.82-.29,1.59-.7,2.24-1.27,.32-.28,.61-.59,.88-.92,.27-.33,.54-.68,.74-1.05,.39-.71,.58-1.57,.32-2.36-.06-.19-.14-.37-.26-.53-.13-.19-.29-.35-.48-.49-.32-.24-.71-.38-1.1-.46-.81-.16-1.64-.15-2.45,0-.78,.15-1.55,.45-2.23,.87-.16,.1-.31,.21-.46,.32-.08,.06-.14,.12-.17,.22-.02,.09-.01,.2,.04,.28,.05,.08,.12,.15,.22,.17,.09,.02,.2,.02,.28-.04,.33-.25,.68-.47,1.06-.65,.04-.02,.09-.04,.13-.06,.02,0,.04-.02,.07-.03,.01,0,.03-.01,.04-.02,.06-.03-.06,.03-.02,0,.1-.04,.19-.08,.29-.11,.2-.07,.4-.13,.6-.18,.23-.06,.45-.1,.69-.13-.03,0-.06,0-.1,.01,.54-.07,1.09-.07,1.64,0-.03,0-.06,0-.1-.01,.18,.03,.36,.06,.54,.11,.09,.02,.17,.05,.26,.08,.01,0,.09,.04,.03,.01-.06-.03,.02,0,.03,.01,.04,.02,.08,.04,.12,.06,.08,.04,.15,.09,.22,.14,.04,.03-.06-.05-.03-.02,0,0,.02,.01,.02,.02,.02,.01,.03,.03,.05,.04,.04,.03,.07,.07,.1,.1,.01,.01,.07,.09,.08,.09,0,0-.05-.06-.03-.04,0,0,.01,.01,.02,.02,.01,.02,.03,.04,.04,.06,.05,.07,.09,.15,.12,.22,0,0,0,.02,.01,.03,.02,.04-.03-.08-.02-.04,0,.02,.02,.05,.03,.07,.02,.04,.03,.09,.04,.13,.03,.1,.05,.19,.06,.29,0-.03,0-.06-.01-.1,.03,.21,.03,.43,0,.64,0-.03,0-.06,.01-.1-.02,.12-.04,.24-.07,.35-.02,.06-.03,.12-.05,.17-.01,.03-.02,.06-.03,.09,0,.02-.01,.03-.02,.05,0,.01-.03,.07,0,.02,.03-.06,0,0,0,.01,0,.01-.01,.03-.02,.04-.01,.03-.02,.05-.04,.08-.03,.06-.06,.13-.1,.19-.06,.11-.13,.22-.2,.33-.07,.11-.15,.21-.22,.31,0,.01-.02,.02-.03,.03-.05,.06,.04-.05,.01-.01-.02,.03-.04,.05-.06,.08-.04,.05-.08,.1-.12,.15-.18,.21-.36,.42-.56,.62-.1,.1-.19,.19-.29,.28-.05,.04-.1,.08-.15,.12-.03,.02-.05,.04-.08,.06-.01,0-.02,.02-.03,.03,.08-.07,.02-.02,0,0-.21,.16-.42,.3-.65,.42-.12,.07-.23,.13-.35,.18-.06,.03-.11,.05-.17,.08-.03,.01-.06,.03-.09,.04-.02,0-.03,.01-.05,.02-.06,.03,.08-.03,0,0-.24,.1-.48,.19-.73,.26-.52,.16-1.06,.28-1.6,.35,.03,0,.06,0,.1-.01-.65,.09-1.32,.11-1.98,.06-.19-.01-.37-.03-.56-.06,.03,0,.06,0,.1,.01-.55-.07-1.1-.2-1.63-.38-.13-.04-.26-.09-.39-.14-.03-.01-.06-.02-.09-.04-.02,0-.14-.06-.02,0-.07-.03-.13-.06-.2-.09-.25-.12-.5-.24-.74-.39-.13-.08-.27-.16-.39-.25-.06-.04-.12-.09-.18-.13-.03-.02-.06-.05-.09-.07-.01,0-.03-.02-.04-.03-.03-.02-.02-.02,.03,.02-.01,0-.02-.02-.03-.02-.08-.06-.15-.11-.26-.11-.09,0-.2,.04-.26,.11-.06,.07-.11,.16-.11,.26,0,.09,.03,.2,.11,.26h0Z"/>
        <g>
          <path class="cls-9" d="M23.28,34.91q.97-.33,1.88-.61"/>
          <path class="cls-22" d="M23.37,35.26c.46-.16,.92-.32,1.39-.46,.16-.05,.33-.1,.49-.15,.09-.03,.17-.09,.22-.17,.05-.08,.06-.19,.04-.28-.03-.09-.08-.17-.17-.22-.09-.05-.19-.07-.28-.04-.46,.14-.91,.27-1.36,.43-.17,.06-.35,.12-.52,.18-.09,.03-.17,.08-.22,.17-.05,.08-.06,.19-.04,.28,.03,.09,.08,.17,.17,.22,.08,.04,.19,.07,.28,.04h0Z"/>
        </g>
        <g>
          <path class="cls-9" d="M23.55,36.48c.64-.12,1.6-.12,2.09-.3"/>
          <path class="cls-22" d="M23.65,36.83c.09-.02,.17-.03,.26-.04-.03,0-.06,0-.1,.01,.53-.07,1.07-.09,1.59-.19,.11-.02,.23-.05,.33-.09,.09-.03,.17-.08,.22-.17,.05-.08,.06-.19,.04-.28-.03-.09-.08-.17-.17-.22-.08-.04-.19-.07-.28-.04-.19,.07-.4,.1-.6,.13,.03,0,.06,0,.1-.01-.4,.05-.79,.07-1.19,.13-.13,.02-.26,.03-.4,.06-.09,.02-.17,.09-.22,.17-.05,.08-.06,.19-.04,.28,.03,.09,.08,.17,.17,.22,.09,.05,.18,.06,.28,.04h0Z"/>
        </g>
        <g class="cls-16">
          <path class="cls-22" d="M36.23,39.67c.34,.26,.71,.46,1.09,.64,.58,.23,1.19,.39,1.81,.49,.47,.05,.95,.06,1.42,.02,.84-.14,1.68-.36,2.47-.68,.52-.23,1.02-.51,1.48-.85,.31-.25,.59-.53,.85-.84,.21-.29,.39-.6,.54-.93,.11-.28,.2-.58,.25-.88,.04-.42,.02-.85-.02-1.27-.16-.97-.49-1.9-.87-2.8-.26-.59-.55-1.16-.92-1.69-.11-.13-.24-.26-.37-.38-.21-.14-.38-.32-.51-.54-.03-.08-.06-.15-.1-.23-.07,0-.14-.02-.2-.02l-.39-.08c.5,1.15,1.01,2.32,1.25,3.55,.24,1.24,.2,2.56-.36,3.69-.65,1.3-1.93,2.2-3.33,2.6-1.39,.39-2.89,.31-4.3,0l-.07,.05c.1,.03,.19,.08,.26,.13Z"/>
        </g>
        <g class="cls-5">
          <path class="cls-2" d="M39.85,34.5c-.93-.71-2.16-1.04-3.28-.73-1.44,.4-2.53,1.97-2.2,3.43,.15,.66,.54,1.24,.96,1.77,.1,.12,.19,.24,.29,.35-.45-.38-.86-.83-1.23-1.29-.42-.53-.82-1.11-.96-1.77-.32-1.46,.76-3.03,2.2-3.43,1.44-.4,3.06,.26,4,1.43l.22,.24Z"/>
        </g>
        <path class="cls-22" d="M39.88,34.01c-.45-.56-1.04-1.01-1.7-1.29-.34-.15-.69-.26-1.06-.31-.2-.03-.39-.05-.59-.05-.2,0-.39,.02-.58,.05-.71,.1-1.36,.44-1.87,.94-.49,.48-.87,1.11-1,1.79-.07,.37-.08,.74-.02,1.11,.07,.4,.23,.79,.44,1.14,.21,.37,.47,.7,.74,1.03,.25,.3,.51,.59,.79,.86,.3,.29,.62,.55,.96,.79,.35,.24,.71,.43,1.1,.59,.77,.32,1.61,.46,2.44,.46,.43,0,.85-.04,1.27-.11,.39-.06,.78-.12,1.18-.18,.8-.13,1.6-.3,2.34-.65,.17-.08,.34-.18,.5-.28,.16-.1,.24-.33,.13-.5-.1-.16-.33-.24-.5-.13-.22,.15-.46,.27-.71,.37,.03-.01,.06-.02,.09-.04-.84,.35-1.75,.48-2.65,.62-.26,.04-.52,.09-.78,.12,.03,0,.06,0,.1-.01-.61,.08-1.24,.09-1.85,0,.03,0,.06,0,.1,.01-.51-.07-1.02-.2-1.5-.4,.03,.01,.06,.02,.09,.04-.46-.19-.88-.45-1.28-.75,.02,.02,.05,.04,.07,.06-.6-.47-1.13-1.04-1.6-1.64,.02,.02,.04,.05,.06,.07-.27-.34-.51-.71-.68-1.11,.01,.03,.02,.06,.04,.09-.09-.23-.17-.46-.2-.71,0,.03,0,.06,.01,.1-.03-.23-.03-.45,0-.68,0,.03,0,.06-.01,.1,.03-.25,.1-.49,.2-.73-.01,.03-.02,.06-.04,.09,.11-.25,.25-.49,.42-.71-.02,.02-.04,.05-.06,.07,.17-.22,.37-.42,.59-.59-.02,.02-.05,.04-.07,.06,.21-.16,.44-.3,.69-.4-.03,.01-.06,.02-.09,.04,.25-.1,.5-.17,.77-.21-.03,0-.06,0-.1,.01,.31-.04,.62-.04,.93,0h-.1c.34,.03,.68,.13,1,.26-.03-.01-.06-.02-.09-.04,.34,.14,.65,.33,.94,.55-.02-.02-.05-.04-.07-.06,.26,.2,.5,.44,.71,.69,.05,.07,.17,.11,.26,.11,.09,0,.2-.04,.26-.11,.06-.07,.11-.16,.11-.26,0-.1-.04-.18-.11-.26h0Z"/>
        <g>
          <path class="cls-9" d="M35.35,32.92c.34,.49,.69,.99,1.03,1.48"/>
          <path class="cls-22" d="M35.04,33.1c.34,.49,.69,.99,1.03,1.48,.05,.08,.12,.14,.22,.17,.09,.02,.2,.01,.28-.04,.08-.05,.15-.12,.17-.22,.02-.09,.02-.2-.04-.28-.34-.49-.69-.99-1.03-1.48-.05-.08-.12-.14-.22-.17-.09-.02-.2-.01-.28,.04-.08,.05-.15,.12-.17,.22-.02,.09-.02,.2,.04,.28h0Z"/>
        </g>
        <g>
          <path class="cls-9" d="M33.74,34.82c.31,.22,1.27,.79,1.61,.97"/>
          <path class="cls-22" d="M33.55,35.13c.19,.13,.39,.25,.58,.37,.24,.15,.48,.29,.72,.43,.1,.06,.2,.11,.3,.17,.08,.05,.19,.06,.28,.04,.08-.02,.18-.09,.22-.17,.04-.08,.07-.19,.04-.28-.03-.09-.08-.17-.17-.22-.45-.24-.89-.51-1.32-.78-.1-.06-.19-.12-.29-.19-.07-.05-.2-.06-.28-.04-.08,.02-.18,.09-.22,.17-.04,.08-.07,.19-.04,.28,.01,.03,.02,.06,.04,.09,.03,.05,.08,.1,.13,.13h0Z"/>
        </g>
      </g>
    </g>
  </g>
</svg>