<?xml version="1.0" encoding="UTF-8"?>
<svg xmlns="http://www.w3.org/2000/svg" xmlns:xlink="http://www.w3.org/1999/xlink" viewBox="0 0 64 64">
  <defs>
    <style>
      .cls-1 {
        fill: url(#linear-gradient-2);
      }

      .cls-2, .cls-3 {
        fill: #fff;
      }

      .cls-4 {
        fill: #fef2f4;
      }

      .cls-5 {
        fill: #edc391;
      }

      .cls-6 {
        fill: #f8e9d4;
      }

      .cls-7 {
        fill: #a7a9ac;
      }

      .cls-7, .cls-8, .cls-9 {
        mix-blend-mode: overlay;
      }

      .cls-7, .cls-3 {
        opacity: .5;
      }

      .cls-8 {
        fill: #8c8587;
      }

      .cls-10 {
        fill: #2f2d30;
      }

      .cls-11 {
        isolation: isolate;
      }

      .cls-12 {
        fill: #b9bbcc;
      }

      .cls-13, .cls-14 {
        fill: #2b2829;
      }

      .cls-13, .cls-15 {
        mix-blend-mode: screen;
      }

      .cls-16 {
        fill: #dcc2a7;
      }

      .cls-17 {
        fill: #979caf;
      }

      .cls-18 {
        fill: #beb9bf;
      }

      .cls-19 {
        opacity: .48;
      }

      .cls-20 {
        opacity: .3;
      }

      .cls-21 {
        fill: #706f6b;
      }

      .cls-22 {
        fill: #d9e3ef;
      }

      .cls-23 {
        fill: #e6cfd4;
        mix-blend-mode: multiply;
      }

      .cls-24 {
        fill: #390075;
      }

      .cls-25 {
        fill: #cb975c;
      }

      .cls-26 {
        fill: url(#linear-gradient);
      }

      .cls-9 {
        fill: #998a8e;
      }
    </style>
    <linearGradient id="linear-gradient" x1="64" y1="34.03" x2="5.45" y2="34.03" gradientUnits="userSpaceOnUse">
      <stop offset="0" stop-color="#cf965b"/>
      <stop offset=".25" stop-color="#ca9257"/>
      <stop offset=".51" stop-color="#be864c"/>
      <stop offset=".78" stop-color="#a9733a"/>
      <stop offset="1" stop-color="#925d26"/>
    </linearGradient>
    <linearGradient id="linear-gradient-2" x1="61.28" y1="31.49" x2="1.36" y2="31.49" gradientUnits="userSpaceOnUse">
      <stop offset="0" stop-color="#e8b886"/>
      <stop offset=".25" stop-color="#e3b482"/>
      <stop offset=".5" stop-color="#d7a877"/>
      <stop offset=".76" stop-color="#c29464"/>
      <stop offset="1" stop-color="#a97c4e"/>
    </linearGradient>
  </defs>
  <g class="cls-11">
    <g id="_Слой_2" data-name="Слой 2">
      <g id="_Слой_1-2" data-name="Слой 1">
        <g>
          <g>
            <path class="cls-26" d="M60.49,6.68c-1.75-1.6-4.41-2.62-7.38-2.62H14.98c-5.26,0-9.53,3.19-9.53,7.11V55.87c0,2.22,1.37,4.2,3.51,5.51,1.75,1.6,4.41,2.62,7.38,2.62H54.47c5.26,0,9.53-3.19,9.53-7.11V12.19c0-2.22-1.37-4.2-3.51-5.51Z"/>
            <path class="cls-1" d="M57.77,4.65c-.41-.37-.86-.71-1.36-1.02-1.75-1.6-4.41-2.62-7.38-2.62H10.89C5.64,1.02,1.36,4.21,1.36,8.13V52.83c0,2.22,1.37,4.2,3.51,5.51,.41,.37,.86,.71,1.36,1.02,1.75,1.6,4.41,2.62,7.38,2.62H51.74c5.26,0,9.53-3.19,9.53-7.11V10.16c0-2.22-1.37-4.2-3.51-5.51Z"/>
            <path class="cls-16" d="M47.66,0H9.53C4.28,0,0,3.19,0,7.11V51.81c0,3.92,4.28,7.11,9.53,7.11H47.66c5.26,0,9.53-3.19,9.53-7.11V7.11c0-3.92-4.28-7.11-9.53-7.11Z"/>
          </g>
          <path class="cls-9" d="M5.89,14.33c-.01-2.85,.17-6.06,2.96-8,2.12-1.47,5.21-1.81,8.09-1.99,6.68-.42,13.42-.36,20.09,.18,3.3,.26,6.79,.71,9.28,2.36,3.69,2.45,3.93,6.61,3.9,10.29-.08,9.24-.15,18.48-.23,27.72-.02,2.2-.08,4.51-1.54,6.42-1.54,2-4.45,3.25-7.46,3.8s-6.15,.48-9.24,.41c-5.15-.12-10.31-.24-15.43-.71-2.79-.26-9.22-.18-10.19-2.65-.66-1.68-.07-4.15-.07-5.9,0-2.02-.02-4.03-.03-6.05-.02-4.03-.04-8.06-.06-12.1-.02-4.59-.04-9.18-.07-13.78Z"/>
          <path class="cls-9" d="M20.65,20.31c-3.25-.39-6.54-1.19-8.94-2.87-2.39-1.69-3.67-4.43-2.38-6.69,.89-1.57,2.87-2.69,5.01-3.3,2.14-.61,4.45-.77,6.74-.89,5.74-.3,11.52-.39,17.22,.17,2.22,.22,4.55,.57,6.21,1.7,2.93,1.99,2.55,5.66,.4,8.14-5.33,6.17-16.02,4.75-24.26,3.75Z"/>
          <path class="cls-13" d="M9.75,46.11c-.57-1.77-.49-3.61-.4-5.43,.37-7.55,.74-15.09,1.11-22.64,.14-2.75,.39-5.74,2.81-7.82,2.2-1.89,5.7-2.58,9.03-2.93,4.04-.42,8.14-.47,12.2-.14,3.7,.3,7.69,1.06,9.9,3.3,1.87,1.9,2.03,4.41,2.12,6.77,.33,9.07,.66,18.2-1.13,27.18-.4,1.99-1,4.12-2.97,5.5-2.25,1.58-5.63,1.75-8.72,1.75-5.06,0-10.12-.25-15.13-.73-4.65-.45-7.58-.99-8.81-4.8Z"/>
          <path class="cls-23" d="M47.66,1.02h-1.63c4.51,0,8.17,2.73,8.17,6.1V51.81c0,3.37-3.66,6.1-8.17,6.1h1.63c4.51,0,8.17-2.73,8.17-6.1V7.11c0-3.37-3.66-6.1-8.17-6.1Z"/>
          <path class="cls-7" d="M44.83,56.21c2.15-.26,4.29-1.07,5.39-2.47,.86-1.09,1-2.4,1.05-3.66,.05-1.24,.02-2.47-.08-3.71-.07-.81-.31-1.78-1.32-2.08-.75-.23-1.65,.04-2.16,.52-.51,.47-.69,1.1-.74,1.7-.11,1.25,.25,2.52-.08,3.75-.39,1.42-1.68,2.63-3.23,3.51-1.13,.64-4.12,1.25-4.5,2.21,1.43,.58,4.04,.42,5.67,.23Z"/>
          <path class="cls-8" d="M3.88,2.71c-1.55,1.11-2.52,2.67-2.52,4.4v26.08c12.35-3.44,32.73-4.39,54.47,14.33v-14.97C26.86,28.05,11.39,13.17,3.88,2.71Z"/>
          <path class="cls-3" d="M3.58,9.23c.26-1.79,1.27-3.6,3.21-4.67,2.66-1.47,6.31-1.25,9.61-.96,1.02,.09,2.32,.39,2.36,1.15,.03,.67-.97,1.08-1.84,1.21-2.2,.34-4.63-.04-6.59,.77-1.42,.58-2.33,1.69-2.8,2.85s-.56,2.38-.73,3.58c-.07,.46-.15,.93-.44,1.34-1.08,1.49-2.05,.48-2.43-.37-.6-1.35-.53-3.5-.32-4.91Z"/>
          <g class="cls-15">
            <path class="cls-14" d="M36.44,9.78c.84,1.55-.18,3.32-2.26,3.94-2.08,.62-4.45-.13-5.29-1.69-.84-1.55,.18-3.32,2.26-3.94,2.08-.62,4.45,.13,5.29,1.69Z"/>
            <path class="cls-14" d="M43.37,11.71c.45,.84-.09,1.78-1.21,2.12-1.12,.34-2.39-.07-2.84-.91-.45-.84,.09-1.78,1.21-2.12,1.12-.34,2.39,.07,2.84,.91Z"/>
            <path class="cls-14" d="M40.11,16.13c.37,.7-.08,1.49-1.01,1.77-.93,.28-1.99-.06-2.37-.76-.37-.7,.08-1.49,1.01-1.77,.93-.28,1.99,.06,2.37,.76Z"/>
          </g>
          <g class="cls-15">
            <path class="cls-14" d="M23.64,45.38c.8,1.49-.17,3.17-2.16,3.77-1.99,.6-4.25-.13-5.05-1.61-.8-1.49,.17-3.17,2.16-3.77,1.99-.6,4.25,.13,5.05,1.61Z"/>
            <path class="cls-14" d="M20.79,40.39c.22,.41-.05,.87-.59,1.03-.54,.16-1.16-.03-1.38-.44-.22-.41,.05-.87,.59-1.03,.54-.16,1.16,.03,1.38,.44Z"/>
            <path class="cls-14" d="M15.3,41.5c.45,.84-.09,1.78-1.21,2.12-1.12,.34-2.39-.07-2.84-.91-.45-.84,.09-1.78,1.21-2.12,1.12-.34,2.39,.07,2.84,.91Z"/>
          </g>
          <g class="cls-20">
            <ellipse class="cls-23" cx="47.45" cy="37.02" rx="3.85" ry="2.87"/>
            <path class="cls-23" d="M53.92,29.6c.58,1.08-.12,2.3-1.57,2.74-1.45,.43-3.09-.09-3.67-1.17-.58-1.08,.12-2.3,1.57-2.74,1.45-.43,3.09,.09,3.67,1.17Z"/>
            <path class="cls-23" d="M45.56,30.99c.37,.7-.08,1.49-1.01,1.77-.93,.28-1.99-.06-2.37-.76-.37-.7,.08-1.49,1.01-1.77,.93-.28,1.99,.06,2.37,.76Z"/>
            <path class="cls-23" d="M10.65,25.55c.41,.75-.09,1.61-1.1,1.92-1.01,.3-2.16-.06-2.57-.82-.41-.75,.09-1.61,1.1-1.92,1.01-.3,2.16,.06,2.57,.82Z"/>
            <path class="cls-23" d="M11.29,21.09c.21,.39-.04,.84-.57,1-.53,.16-1.13-.03-1.34-.43-.21-.39,.04-.84,.57-1,.53-.16,1.13,.03,1.34,.43Z"/>
            <path class="cls-23" d="M6.59,20.15c.34,.63-.07,1.34-.91,1.59-.84,.25-1.79-.05-2.13-.68-.34-.63,.07-1.34,.91-1.59,.84-.25,1.79,.05,2.13,.68Z"/>
          </g>
        </g>
      </g>
      <g id="_Слой_7" data-name="Слой 7">
        <g>
          <g>
            <g>
              <path class="cls-5" d="M22.54,50.68s-1.69,2.04-.37,3.01c1.33,.96,2.9-1.41,3.32-2.17"/>
              <path class="cls-24" d="M22.84,53.97c-.25,0-.48-.08-.7-.24-.3-.22-.48-.51-.52-.86-.13-1.01,.84-2.18,.88-2.23l.09,.07s-.97,1.18-.85,2.14c.04,.32,.2,.59,.47,.78,.27,.2,.57,.26,.89,.19,1.2-.27,2.3-2.25,2.34-2.33l.1,.05c-.05,.09-1.17,2.11-2.42,2.39-.09,.02-.19,.03-.28,.03Z"/>
            </g>
            <path class="cls-24" d="M22.84,54.4c-.34,0-.66-.11-.95-.32-.39-.29-.63-.68-.69-1.15-.15-1.16,.86-2.41,.97-2.55,.17-.2,.47-.23,.67-.06,.2,.17,.23,.47,.06,.67-.24,.29-.84,1.18-.76,1.82,.03,.21,.12,.36,.3,.49,.17,.13,.35,.16,.55,.12,.75-.17,1.65-1.36,2.07-2.13,.13-.23,.42-.32,.65-.19,.23,.13,.32,.42,.19,.65-.13,.23-1.29,2.28-2.7,2.6-.12,.03-.25,.04-.37,.04Z"/>
          </g>
          <path class="cls-5" d="M20.15,12.52s-1.78-6.55-6.19-5.38c-3.17,.84-1.82,7.1,1.49,8.29"/>
          <path class="cls-6" d="M13.96,7.14c-.84,.22-1.37,.83-1.62,1.63l.12,.21s1.09-1.67,2.79-1.14c1.7,.53,3.05,2.62,3.05,2.62l.89-.25c-.94-1.75-2.63-3.75-5.24-3.06Z"/>
          <path class="cls-25" d="M14.07,9.17c-1.54,.7,.44,4.63,2.07,5.29,1.63,.66-.53-5.99-2.07-5.29Z"/>
          <path class="cls-24" d="M15.46,15.91c-.05,0-.11,0-.16-.03-2.35-.84-3.7-3.81-3.61-6.08,.07-1.64,.85-2.78,2.15-3.12,2.02-.54,3.84,.31,5.27,2.45,1.03,1.54,1.48,3.2,1.5,3.27,.07,.25-.08,.52-.34,.59-.26,.07-.52-.08-.59-.34h0c-.02-.06-1.7-6.07-5.61-5.04-1.19,.31-1.41,1.54-1.44,2.23-.08,1.94,1.09,4.47,2.97,5.14,.25,.09,.38,.36,.29,.61-.07,.2-.25,.32-.45,.32Z"/>
          <path class="cls-4" d="M10.41,27.69S-.25,43.29,14,48.99c14.25,5.7,29.79,3.2,31.87-6.38,1.97-9.1-.87-15.25-.87-15.25"/>
          <path class="cls-12" d="M45.87,42.61c1.97-9.1-.87-15.25-.87-15.25,0,0,.41,4.55,.2,7.57-.21,3.03,1.19,7.37-5.94,11.81-7.13,4.43-10.11-.11-15.67-.62-5.56-.52-7.35,1.03-10.92-1.33-3.29-2.18-6.43-4.48-4.19-13.58-2.24,4.95-4.47,13.79,5.51,17.79,14.25,5.7,29.79,3.2,31.87-6.38Z"/>
          <path class="cls-17" d="M6.58,39.1c.03,3.79,1.76,7.62,7.42,9.89,14.25,5.7,29.79,3.2,31.87-6.38,0-.01,0-.02,0-.03-3.29,7.14-15.34,9.84-28.2,6.03-12.87-3.82-10.96-9.74-10.96-9.74l-.14,.24Z"/>
          <path class="cls-24" d="M29.07,52.5c-4.84,0-10.16-1.03-15.25-3.06-3.84-1.54-6.28-3.93-7.25-7.11-2.06-6.75,3.21-14.58,3.44-14.91,.15-.22,.45-.27,.66-.13,.22,.15,.27,.45,.13,.66-.05,.08-5.24,7.79-3.31,14.1,.88,2.89,3.13,5.07,6.69,6.5,9.35,3.74,19.46,4,25.75,.66,2.97-1.58,4.86-3.9,5.47-6.71,1.91-8.82-.8-14.89-.83-14.95-.11-.24,0-.52,.23-.63,.24-.11,.52,0,.63,.23,.12,.26,2.88,6.4,.9,15.55-.67,3.09-2.73,5.63-5.96,7.35-3.07,1.63-7,2.44-11.31,2.44Z"/>
          <path class="cls-4" d="M43.23,33.35c1.03-1.18,1.78-2.44,2.15-3.7,.41-1.05,.69-2.16,.81-3.32,.94-8.48-6.47-16.27-16.55-17.38-9.77-1.08-18.47,4.51-19.83,12.59-.93,1.16-1.51,2.68-1.64,4.66-.54,7.79,7.84,12.41,17.6,13.49,.9,.1,1.79,.14,2.67,.12,6.09,.06,11.56-2.44,14.79-6.45Z"/>
          <path class="cls-18" d="M19.26,31.95s-2.52,4.96,3.27,7.47c5.79,2.5,8.79-2.3,8.58-5.86l-11.85-1.61Z"/>
          <path class="cls-24" d="M26.82,21.8s-1.22-1.19-.57-1.27c.65-.08,1.92,.07,1.63,.44-.4,.52-.93,1.01-1.07,.83Z"/>
          <path class="cls-12" d="M29.65,8.95c-9.77-1.08-18.47,4.51-19.83,12.59-.06,.07-.11,.14-.17,.22,.85-.28,1.9-.92,3.06-.9,6.25,.12,6.67,3.22,8.75,2.03,2.07-1.19,3.13-3.31,5.94-2.65,3.45,.81,4.03,3.86,6.52,4.49,2.49,.63,3.79-2.35,8.86-.21,2.14,.9,2.36,2.92,2.85,4.43,.27-.84,.47-1.72,.57-2.62,.94-8.48-6.47-16.27-16.55-17.38Z"/>
          <path class="cls-22" d="M29.65,8.95c-8.04-.89-15.35,2.73-18.45,8.55l.24,.19s9.98-14.24,27.71-4.74l-.13-.61c-2.63-1.78-5.84-2.99-9.37-3.38Z"/>
          <path class="cls-17" d="M29.65,8.95c-1.06-.12-2.11-.16-3.14-.12-.13,3.21-.07,8.18,1.73,8.46,1.81,.29,3.18-4.54,4.31-7.67-1.13-.32-1.68-.54-2.9-.67Z"/>
          <path class="cls-12" d="M28.64,8.86c-.18-.01-.36-.02-.53-.03-.09,0-.18,0-.27,0-.16,0-.33,0-.49-.01-.1,0-.19,0-.29,0-.16,0-.31,0-.47,0-.02,0-.05,0-.07,0-.01,.28-.02,.57-.03,.87,1.79-.08,3.74,.09,5.83,.59,.08-.23,.16-.45,.23-.66-1.01-.28-1.56-.49-2.54-.63-.12-.02-.24-.03-.36-.05-.26-.03-.52-.05-.77-.07-.08,0-.16,0-.24-.01Z"/>
          <path class="cls-24" d="M9.07,31.42c-.18,0-.35-.1-.43-.27-.75-1.54-1.07-3.22-.94-5,.13-1.95,.7-3.57,1.67-4.83,1.48-8.32,10.39-13.97,20.34-12.86,10.32,1.14,17.93,9.18,16.97,17.91-.13,1.18-.41,2.33-.84,3.44-.1,.25-.37,.37-.62,.27-.25-.1-.37-.37-.27-.62,.4-1.03,.66-2.11,.78-3.2,.91-8.21-6.33-15.77-16.12-16.86-9.5-1.05-17.98,4.3-19.31,12.19-.01,.08-.05,.16-.1,.22-.91,1.13-1.41,2.57-1.54,4.39-.11,1.6,.17,3.12,.85,4.51,.12,.24,.02,.52-.22,.64-.07,.03-.14,.05-.21,.05Z"/>
          <g>
            <g>
              <path class="cls-21" d="M23.22,38.35c-9.55-3.62,2.94-15.54,5.15-14.23,2.85,1.69,3.5,17.51-5.15,14.23Z"/>
              <path class="cls-24" d="M25.41,38.86c-.65,0-1.38-.14-2.21-.45-2.18-.83-3.38-2.14-3.56-3.9-.36-3.49,3.42-7.89,6.29-9.73,1.13-.73,2.01-.98,2.47-.7,1.93,1.15,2.75,8.19,.89,12.06-.65,1.35-1.82,2.73-3.87,2.73Zm2.54-14.78c-.47,0-1.15,.27-1.96,.79-2.85,1.82-6.6,6.18-6.24,9.62,.18,1.72,1.35,3,3.49,3.81,.81,.31,1.53,.44,2.16,.44,2.01,0,3.15-1.35,3.78-2.66,.85-1.77,1.21-4.39,.96-7.03-.23-2.45-.94-4.37-1.8-4.88-.1-.06-.24-.09-.39-.09Z"/>
            </g>
            <g class="cls-19">
              <path class="cls-10" d="M29.71,35.1c-1.08,1.59-3.49,3.84-6.67,1.93-3.69-2.21-1.53-7.12-.51-9.12-2.91,3.47-4.66,8.26,.8,10.33,3.47,1.32,5.44-.45,6.38-3.14Z"/>
            </g>
            <path class="cls-5" d="M23.12,38.15s5.07-14.95,5.16-14.24c.09,.71-4.24,14.37-4.68,14.48-.44,.11-.48-.24-.48-.24Z"/>
            <path class="cls-5" d="M28.82,24.27s.3,10.24-2.84,14.38c0,0,1.51,.2,2.02-.39,0,0,2.89-11.24,.82-13.99Z"/>
            <path class="cls-5" d="M27.3,24.04c-3.47,1.57-6.47,9.16-7.4,11.7,.32,.66,.84,1.27,1.63,1.79l.15-.03c-.59-6.23,5.16-12.53,6.11-13.53-.15,0-.31,.03-.49,.08Z"/>
            <path class="cls-24" d="M25.4,39.27c-.73,0-1.52-.16-2.35-.47-2.34-.89-3.63-2.32-3.83-4.25-.38-3.66,3.52-8.23,6.48-10.13,1.31-.84,2.29-1.08,2.92-.71,2.1,1.25,3.03,8.49,1.05,12.6-.94,1.95-2.42,2.96-4.27,2.96Zm2.55-14.78c-.29,0-.88,.18-1.74,.73-2.68,1.72-6.38,5.99-6.05,9.22,.16,1.54,1.24,2.71,3.22,3.46h0c2.5,.95,4.32,.27,5.42-2.01,1.81-3.75,.86-10.45-.68-11.37-.04-.02-.09-.03-.17-.03Z"/>
          </g>
          <path class="cls-5" d="M39.31,14.78s3.52-5.19,7.21-2.49c2.65,1.94-.37,7.02-3.89,6.91"/>
          <path class="cls-6" d="M47.27,13.98l.17-.32c-.13-.53-.43-1.01-.93-1.38-2.69-1.97-5.3,.27-6.51,1.62l.02,.17s3.99-3.71,7.25-.1Z"/>
          <path class="cls-24" d="M39.17,14.69c.03-.47,.24-.83,.49-1.14,.24-.32,.55-.6,.86-.85,.32-.25,.63-.51,.98-.74,.34-.23,.71-.43,1.11-.58,.39-.16,.81-.27,1.24-.32,.11,0,.22-.02,.33-.02h.33s.33,.04,.33,.04c.11,.01,.22,.04,.32,.06,.43,.1,.84,.27,1.2,.48,.1,.05,.18,.12,.27,.17,.09,.06,.18,.11,.27,.19,.09,.07,.18,.14,.26,.23,.08,.08,.16,.16,.23,.26,.29,.37,.48,.81,.56,1.25,.08,.45,.07,.9,0,1.32-.16,.85-.53,1.62-1.02,2.29-.5,.67-1.12,1.25-1.84,1.68-.18,.1-.37,.2-.57,.29-.1,.05-.2,.08-.29,.13l-.15,.06c-.05,.02-.1,.04-.15,.05-.1,.03-.21,.06-.32,.07-.11,.01-.22,.03-.33,.01-.11-.01-.22-.03-.33-.07-.11-.05-.21-.11-.31-.2-.09-.08-.09-.21-.01-.3,0,0,0,0,0,0h.02c.09-.11,.18-.17,.27-.22,.08-.05,.17-.1,.25-.13,.08-.03,.16-.06,.24-.08,.08-.02,.16-.04,.24-.06,.04-.01,.08-.02,.12-.02l.12-.03c.08-.02,.17-.05,.24-.08,.16-.07,.31-.15,.47-.23,.6-.35,1.13-.85,1.56-1.42,.42-.57,.73-1.23,.85-1.89,.12-.67,.02-1.34-.36-1.82-.04-.06-.1-.12-.15-.17-.05-.06-.12-.11-.18-.16-.06-.05-.13-.1-.2-.15-.07-.05-.14-.1-.22-.14-.3-.18-.61-.3-.93-.38-.65-.16-1.34-.06-1.98,.2-.32,.13-.64,.3-.94,.5-.3,.2-.59,.42-.85,.68-.26,.26-.51,.53-.78,.78-.14,.13-.27,.25-.43,.36-.16,.11-.33,.22-.54,.29h-.02c-.1,.04-.2,0-.24-.11,0-.02-.01-.05-.01-.07Z"/>
          <g>
            <g>
              <path class="cls-24" d="M19.48,19.08c.45-1.09,1.54-1.68,2.44-1.32,.9,.36,1.27,1.53,.82,2.62-.45,1.09-1.54,1.68-2.44,1.32-.9-.36-1.27-1.53-.82-2.62Z"/>
              <path class="cls-24" d="M20.85,21.87c-.19,0-.39-.03-.57-.11-.39-.16-.71-.47-.88-.89-.23-.54-.22-1.2,.03-1.8l.05,.02-.05-.02c.46-1.12,1.58-1.73,2.51-1.36,.39,.16,.71,.47,.88,.89,.23,.54,.22,1.2-.03,1.81-.37,.9-1.16,1.46-1.94,1.46Zm.52-4.15c-.73,0-1.49,.54-1.83,1.39-.24,.58-.25,1.2-.03,1.71,.17,.39,.46,.68,.82,.83,.87,.35,1.93-.23,2.36-1.29,.24-.58,.25-1.2,.03-1.71-.17-.39-.46-.68-.82-.83-.17-.07-.35-.1-.53-.1Z"/>
            </g>
            <g>
              <path class="cls-2" d="M20.86,19.01c.19-.47,.65-.73,1.01-.58,.37,.15,.51,.65,.32,1.12-.19,.47-.65,.73-1.02,.58-.37-.15-.51-.65-.32-1.12Z"/>
              <path class="cls-24" d="M21.39,20.21c-.08,0-.16-.01-.23-.04-.16-.07-.29-.19-.37-.37-.1-.24-.1-.54,.02-.81h0c.2-.5,.69-.77,1.08-.61,.16,.07,.29,.19,.37,.37,.1,.24,.1,.54-.02,.81-.16,.4-.51,.66-.85,.66Zm-.48-1.19c-.1,.25-.11,.52-.02,.73,.06,.15,.17,.26,.31,.31,.34,.14,.77-.11,.95-.56,.1-.25,.11-.52,.02-.73-.06-.15-.17-.26-.31-.31-.34-.14-.77,.11-.95,.56h0Z"/>
            </g>
          </g>
          <path class="cls-25" d="M45.79,14.28c1.13,1.26-2.26,4.06-4.02,4.01s2.89-5.27,4.02-4.01Z"/>
          <path class="cls-24" d="M46.29,14.72c-.08-.1-.18-.21-.28-.28-.1-.08-.22-.13-.33-.16-.23-.06-.47-.02-.71,.07-.23,.09-.48,.24-.72,.4-.24,.15-.47,.32-.7,.5-.45,.35-.88,.75-1.25,1.18-.18,.22-.36,.44-.49,.69-.14,.24-.24,.5-.27,.78h0c0,.06-.06,.11-.12,.1-.05,0-.09-.04-.09-.09-.05-.32,0-.66,.12-.95,.05-.15,.12-.3,.2-.43,.07-.14,.16-.27,.25-.4,.35-.52,.79-.96,1.27-1.35,.24-.19,.49-.38,.76-.54,.27-.16,.55-.3,.88-.4,.09-.02,.17-.04,.25-.05h.13s.09-.02,.13-.01c.05,0,.09,0,.13,0,.04,0,.09,.02,.13,.03,.09,.02,.17,.06,.26,.09,.16,.08,.3,.2,.41,.33,.11,.14,.19,.28,.24,.44,.02,.06-.02,.12-.07,.13-.04,.01-.09,0-.11-.04h0Z"/>
          <path class="cls-24" d="M13.15,9.57c.03-.1,.08-.19,.15-.27,.03-.04,.07-.08,.11-.12,.04-.03,.08-.07,.13-.1,.19-.12,.44-.14,.66-.11,.06,0,.11,.02,.16,.04,.05,.02,.11,.03,.16,.05,.09,.04,.2,.08,.29,.14,.09,.05,.18,.1,.26,.17,.08,.06,.17,.12,.24,.19,.31,.27,.59,.59,.79,.95,.1,.18,.19,.37,.26,.56,.04,.1,.06,.2,.09,.3,.02,.1,.04,.2,.05,.32,.02,.17-.11,.33-.28,.35-.15,.02-.29-.08-.34-.22v-.03c-.03-.06-.06-.15-.09-.23-.03-.08-.06-.16-.09-.24-.06-.16-.13-.32-.21-.48-.16-.31-.35-.6-.58-.86-.06-.07-.12-.13-.18-.19-.06-.07-.13-.12-.19-.17-.03-.03-.07-.06-.1-.08l-.1-.07s-.07-.04-.11-.06c-.04-.02-.07-.04-.11-.05-.15-.06-.3-.08-.46-.04-.15,.04-.3,.15-.41,.29h0s-.04,.03-.06,.01c-.02-.01-.02-.03-.01-.05Z"/>
          <g>
            <g>
              <path class="cls-5" d="M17.43,30.15s3.46-2.5,4.64-.68-1.3,3.89-3.47,3.89"/>
              <path class="cls-24" d="M18.61,33.41h0v-.11h0c1.35,0,2.87-.84,3.45-1.91,.25-.45,.44-1.14-.04-1.89-.21-.33-.52-.53-.92-.61-1.45-.27-3.62,1.29-3.64,1.3l-.07-.09c.09-.07,2.23-1.6,3.73-1.32,.43,.08,.76,.3,.99,.66,.4,.62,.42,1.32,.05,2-.61,1.13-2.14,1.97-3.55,1.97Z"/>
            </g>
            <path class="cls-24" d="M17.39,30.09c.16-.2,.33-.37,.52-.53,.19-.16,.38-.31,.59-.44,.42-.27,.87-.49,1.38-.62,.25-.07,.52-.11,.8-.12,.28,0,.57,.04,.85,.15,.28,.11,.54,.3,.73,.54l.13,.18,.11,.18c.07,.13,.13,.26,.17,.4,.09,.28,.12,.58,.09,.87-.03,.29-.11,.57-.23,.82-.24,.51-.61,.91-1.03,1.23-.21,.16-.43,.3-.66,.41-.23,.12-.47,.21-.72,.28-.5,.13-1.03,.15-1.52-.01-.04-.01-.06-.05-.04-.09,0-.02,.02-.04,.04-.04h0c.46-.17,.87-.34,1.27-.53,.2-.1,.39-.2,.58-.31,.18-.11,.36-.24,.53-.37,.33-.27,.62-.58,.8-.93,.19-.35,.25-.73,.14-1.08-.03-.09-.06-.17-.11-.26l-.07-.12s-.05-.07-.08-.11c-.11-.13-.25-.23-.41-.28-.33-.11-.74-.07-1.16,.03-.42,.09-.85,.24-1.28,.4-.43,.16-.87,.33-1.34,.48h0s-.07,0-.09-.04c0-.02,0-.05,.01-.06Z"/>
          </g>
          <g>
            <g>
              <path class="cls-5" d="M34.13,33.1s-2.13-3.7-3.95-2.52c-1.83,1.18-.41,4.08,1.57,4.96"/>
              <path class="cls-24" d="M31.73,35.59c-1.29-.58-2.34-1.98-2.44-3.26-.06-.78,.24-1.4,.86-1.8,.36-.23,.75-.3,1.17-.19,1.48,.36,2.8,2.64,2.86,2.74l-.1,.06s-1.36-2.34-2.79-2.68c-.39-.09-.75-.03-1.08,.18-.74,.48-.85,1.19-.81,1.7,.09,1.22,1.14,2.61,2.37,3.16l-.05,.1Z"/>
            </g>
            <path class="cls-24" d="M34.08,33.14c-.36-.33-.69-.67-1.02-.99-.33-.32-.66-.63-1-.89-.34-.26-.7-.47-1.05-.5-.17-.02-.34,.01-.49,.09-.04,.02-.08,.04-.12,.06l-.12,.08c-.07,.06-.14,.12-.2,.19-.25,.28-.35,.65-.32,1.04,.03,.39,.16,.8,.35,1.18,.09,.19,.2,.38,.33,.56,.12,.18,.26,.35,.4,.52,.28,.34,.59,.66,.94,1.01h0s.03,.07,0,.1c-.02,.02-.04,.02-.06,.02-.51-.05-.99-.29-1.39-.61-.2-.16-.38-.35-.54-.55-.17-.2-.31-.42-.44-.65-.25-.46-.42-.98-.43-1.54,0-.28,.03-.57,.13-.84,.09-.28,.25-.54,.44-.75,.1-.11,.2-.2,.32-.29l.17-.12,.19-.11c.27-.13,.59-.2,.89-.19,.3,.01,.59,.1,.84,.21,.25,.12,.48,.27,.68,.43,.4,.33,.73,.72,1,1.13,.13,.21,.26,.42,.36,.65,.11,.22,.19,.45,.26,.7,0,.04-.01,.07-.05,.08-.02,0-.05,0-.06-.02h0Z"/>
          </g>
          <path class="cls-17" d="M35.97,15.82c.93,1.56-2.09,2.64-2.73,1.27s1.99-2.5,2.73-1.27Z"/>
          <path class="cls-17" d="M20.71,13.96c-1.28,1.29,1.39,3.06,2.34,1.89,.95-1.17-1.33-2.9-2.34-1.89Z"/>
          <g>
            <g>
              <path class="cls-5" d="M30.96,42.99s.89-4.18,2.99-3.61c2.1,.56,1.64,3.76,.03,5.21"/>
              <path class="cls-24" d="M34.01,44.63l-.07-.08c1.01-.9,1.57-2.55,1.29-3.74-.12-.5-.44-1.14-1.3-1.37-.38-.1-.75-.05-1.09,.16-1.26,.77-1.83,3.38-1.83,3.41l-.11-.02c.02-.11,.59-2.69,1.88-3.48,.37-.23,.76-.28,1.17-.17,.72,.19,1.19,.69,1.38,1.45,.3,1.25-.27,2.9-1.32,3.85Z"/>
            </g>
            <path class="cls-24" d="M30.89,42.98c-.02-.25,0-.5,.03-.74,.03-.25,.08-.49,.14-.73,.13-.48,.32-.95,.61-1.39,.14-.22,.31-.43,.51-.62,.2-.19,.45-.36,.73-.46,.28-.11,.61-.14,.91-.09l.22,.05,.2,.06c.13,.05,.27,.11,.39,.18,.25,.15,.48,.35,.65,.58,.17,.23,.3,.5,.38,.76,.16,.54,.15,1.09,.06,1.6-.05,.26-.12,.51-.22,.75-.09,.24-.21,.47-.35,.69-.28,.43-.66,.8-1.14,1.01-.03,.02-.08,0-.09-.04,0-.02,0-.04,0-.06h0c.23-.44,.43-.84,.59-1.25,.08-.21,.16-.41,.22-.62,.06-.21,.11-.42,.14-.63,.06-.42,.07-.85-.02-1.23-.09-.38-.3-.7-.62-.89-.08-.05-.16-.09-.25-.12l-.14-.04s-.09-.02-.13-.03c-.17-.02-.34,0-.5,.07-.32,.14-.6,.45-.84,.8-.25,.35-.47,.75-.68,1.15-.22,.41-.43,.83-.67,1.25h0s-.06,.05-.09,.03c-.02-.01-.03-.03-.03-.05Z"/>
            <path class="cls-24" d="M34.96,40.42l-.92,1.1,.35-1.39c.04-.18,.22-.28,.4-.24,.18,.04,.28,.22,.24,.4-.01,.05-.04,.09-.07,.13Z"/>
            <path class="cls-24" d="M33.69,39.85l-.8,1.22,.2-1.45c.03-.18,.19-.3,.37-.28,.18,.03,.3,.19,.28,.37,0,.05-.03,.09-.05,.13Z"/>
          </g>
          <g>
            <g>
              <path class="cls-5" d="M16.78,41.04s-.3-4.26-2.45-4-2.15,3.49-.76,5.15"/>
              <path class="cls-24" d="M13.53,42.23c-.91-1.08-1.24-2.8-.77-4,.29-.73,.83-1.16,1.57-1.25,.42-.05,.81,.06,1.14,.34,1.17,.97,1.37,3.6,1.38,3.71h-.11s-.2-2.69-1.34-3.62c-.31-.26-.66-.36-1.05-.31-.88,.11-1.29,.7-1.47,1.18-.45,1.14-.12,2.85,.75,3.88l-.09,.07Z"/>
            </g>
            <path class="cls-24" d="M16.72,41.05c-.18-.22-.28-.44-.37-.66-.08-.22-.13-.44-.2-.66-.12-.44-.27-.86-.45-1.25-.18-.38-.42-.73-.71-.91-.15-.09-.31-.13-.48-.14-.04,0-.09,0-.13,0l-.14,.02c-.09,.02-.18,.04-.27,.08-.34,.14-.61,.42-.76,.79-.16,.37-.23,.8-.19,1.22,.02,.21,.05,.43,.09,.64,.04,.21,.08,.43,.12,.64,.1,.43,.23,.86,.4,1.32h0s0,.07-.04,.08c-.02,0-.04,0-.05,0-.44-.27-.77-.69-1-1.15-.11-.23-.2-.48-.26-.73-.06-.25-.08-.51-.07-.78,0-.52,.07-1.05,.29-1.56,.11-.25,.26-.5,.46-.71,.2-.21,.45-.38,.72-.49,.13-.06,.27-.1,.41-.13,.07-.01,.14-.03,.21-.04h.22c.3-.02,.62,.06,.88,.2,.27,.14,.49,.35,.66,.56,.18,.21,.32,.45,.43,.68,.23,.47,.37,.96,.47,1.45,.09,.49,.16,.99-.11,1.5-.02,.03-.06,.05-.1,.03,0,0-.02-.01-.02-.02h0Z"/>
            <path class="cls-24" d="M14.83,37.17l.14,1.61-.75-1.44c-.08-.16-.02-.36,.14-.44,.16-.08,.36-.02,.44,.14,.02,.04,.03,.08,.04,.12Z"/>
            <path class="cls-24" d="M13.82,37.64l.07,1.46-.68-1.3c-.08-.16-.02-.36,.14-.44,.16-.08,.36-.02,.44,.14,.02,.04,.03,.09,.04,.14Z"/>
          </g>
          <path class="cls-24" d="M20.4,30.96c.26-.16,.51-.31,.78-.46,.13-.07,.27-.14,.41-.21,.07-.03,.14-.07,.22-.09,.04-.01,.08-.03,.13-.04,.04-.01,.11-.02,.17-.02,.13,0,.24,.1,.25,.23,0,.13-.1,.24-.23,.25,0,0-.02,0-.03,0h-.04s-.02-.02-.05-.01h-.04s-.05,0-.05,0c-.07,0-.14,.02-.21,.03-.14,.02-.29,.06-.43,.09-.29,.07-.58,.15-.87,.23Z"/>
          <path class="cls-24" d="M20.09,29.97c.27-.16,.55-.31,.84-.45,.15-.07,.29-.13,.45-.19,.08-.03,.16-.05,.26-.07,.05,0,.1-.01,.15-.01,.06,0,.13,0,.22,.06,.11,.07,.14,.22,.07,.33-.07,.11-.22,.14-.33,.07,.02,0,.01,0,0-.01-.02,0-.05-.01-.08-.01-.06,0-.14,0-.21,0-.15,.01-.3,.04-.45,.06-.31,.06-.61,.14-.92,.22Z"/>
          <path class="cls-24" d="M29.63,31.35c.15,.08,.28,.17,.42,.26,.14,.09,.27,.18,.4,.29,.13,.1,.25,.21,.37,.33,.11,.12,.22,.26,.24,.42-.06-.15-.19-.24-.32-.33-.13-.08-.27-.15-.41-.22-.14-.06-.29-.12-.44-.17-.15-.05-.3-.1-.44-.14-.13-.03-.2-.17-.17-.3,.03-.13,.17-.2,.3-.17,.02,0,.04,.01,.06,.02Z"/>
          <path class="cls-24" d="M30.3,30.65c.23,.15,.46,.31,.68,.46,.11,.08,.22,.16,.33,.24,.11,.09,.22,.17,.31,.28-.11-.08-.24-.12-.36-.17-.13-.05-.25-.09-.38-.14-.26-.09-.52-.17-.77-.24h0c-.13-.04-.2-.17-.16-.3,.04-.13,.17-.2,.3-.16,.02,0,.04,.02,.06,.03Z"/>
          <g>
            <path class="cls-24" d="M26.92,21.97s-.02,0-.03,0c-.58-.02-1-.83-1.07-.99-.08-.16,0-.35,.15-.43,.16-.08,.35,0,.42,.15h0c.15,.31,.41,.63,.52,.63,0,0,0,0,0,0,.18,0,.49-.25,.66-.43,.12-.13,.32-.14,.45-.02,.13,.12,.14,.32,.02,.45-.1,.11-.61,.64-1.13,.64Z"/>
            <path class="cls-24" d="M26.84,22.54s-.03,0-.04,0c-.17-.02-.3-.18-.28-.36l.07-.55c.02-.17,.18-.3,.36-.28,.17,.02,.3,.18,.28,.36l-.07,.55c-.02,.16-.16,.28-.32,.28Z"/>
            <path class="cls-24" d="M27.68,23.02c-.4,0-.75-.23-.95-.39-.25,.19-.49,.25-.74,.2-.5-.12-.72-.71-.75-.78-.04-.12,.02-.26,.15-.31,.12-.04,.26,.02,.31,.14,.04,.11,.2,.43,.41,.47,.16,.04,.34-.1,.46-.22,.05-.04,.11-.07,.17-.07,.06,0,.13,.03,.17,.08,.11,.12,.48,.42,.82,.4,.18-.02,.34-.13,.48-.35,.07-.11,.22-.14,.33-.07,.11,.07,.14,.22,.07,.33-.23,.34-.51,.53-.84,.56-.03,0-.06,0-.08,0Z"/>
          </g>
          <ellipse class="cls-22" cx="22.71" cy="10.73" rx="1.36" ry=".8" transform="translate(-1.4 3.67) rotate(-8.97)"/>
          <g>
            <path class="cls-24" d="M11.17,20.52c-.26-.05-.5-.14-.73-.25-.23-.11-.44-.23-.65-.37-.21-.14-.41-.28-.61-.44-.19-.16-.38-.33-.55-.53-.04-.05-.03-.12,.01-.16,.03-.02,.07-.03,.1-.02,.25,.07,.49,.16,.72,.27,.23,.11,.45,.22,.66,.35,.21,.13,.42,.27,.62,.43,.19,.16,.38,.33,.54,.55,.04,.05,.03,.12-.02,.16-.03,.02-.06,.03-.09,.02Z"/>
            <path class="cls-24" d="M10.68,21.67c-.23,.06-.45,.07-.66,.06-.22,0-.43-.04-.64-.08-.21-.04-.42-.1-.62-.17-.2-.07-.41-.15-.6-.27-.05-.03-.07-.1-.04-.16,.02-.03,.05-.05,.08-.05,.22-.04,.44-.05,.66-.04,.22,0,.43,.03,.64,.06,.21,.03,.42,.08,.62,.15,.2,.07,.41,.15,.6,.29,.05,.04,.07,.11,.03,.16-.02,.02-.04,.04-.07,.05Z"/>
            <path class="cls-24" d="M10.68,23.12c-.25,.12-.5,.19-.76,.24-.25,.05-.51,.08-.77,.1-.26,.02-.52,.02-.78,.01-.26-.01-.52-.03-.78-.09-.06-.01-.1-.07-.09-.13,0-.04,.03-.07,.07-.08,.25-.1,.5-.17,.76-.22,.25-.05,.51-.09,.77-.12,.26-.03,.51-.04,.77-.03,.26,.01,.52,.03,.79,.11,.06,.02,.1,.08,.08,.14,0,.03-.03,.06-.06,.07Z"/>
          </g>
          <g>
            <path class="cls-24" d="M44.83,24.63c.21-.17,.43-.29,.66-.4,.23-.11,.46-.19,.7-.27,.24-.07,.48-.14,.73-.18,.25-.05,.5-.08,.76-.09,.06,0,.11,.05,.11,.11,0,.04-.02,.07-.05,.09-.21,.15-.44,.27-.66,.38-.23,.11-.46,.2-.69,.29-.24,.08-.48,.15-.72,.2-.25,.05-.5,.08-.77,.07-.06,0-.11-.06-.11-.12,0-.03,.02-.06,.04-.08Z"/>
            <path class="cls-24" d="M45.11,25.85c.22-.09,.43-.12,.65-.14,.21-.02,.43-.01,.64,0,.21,.02,.42,.05,.64,.09,.21,.05,.42,.1,.63,.2,.06,.03,.08,.09,.06,.15-.01,.03-.04,.05-.07,.06-.22,.07-.43,.1-.65,.12-.21,.02-.43,.02-.64,.01-.21,0-.43-.03-.64-.07-.21-.05-.42-.11-.63-.22-.06-.03-.08-.1-.05-.16,.01-.03,.04-.04,.06-.05Z"/>
            <path class="cls-24" d="M44.81,27.27c.28-.01,.54,.03,.79,.08,.25,.05,.5,.13,.74,.22,.24,.09,.48,.19,.72,.3,.23,.11,.46,.24,.68,.4,.05,.04,.06,.11,.02,.16-.02,.03-.06,.05-.09,.05-.27,0-.53-.05-.78-.1-.25-.05-.5-.12-.75-.2-.25-.08-.49-.17-.72-.28-.23-.11-.46-.24-.68-.42-.05-.04-.05-.11-.01-.16,.02-.03,.05-.04,.08-.04Z"/>
          </g>
          <g>
            <g>
              <path class="cls-24" d="M36.29,21.49c-.11-1.17-.97-2.06-1.94-1.98-.97,.08-1.66,1.09-1.56,2.26,.11,1.17,.97,2.06,1.94,1.98,.97-.08,1.66-1.09,1.56-2.26Z"/>
              <path class="cls-24" d="M34.61,23.82c-.95,0-1.78-.89-1.88-2.04-.06-.65,.12-1.28,.5-1.73,.29-.35,.69-.56,1.11-.59,1-.08,1.89,.83,2,2.04h0c.06,.65-.12,1.28-.5,1.73-.29,.35-.69,.56-1.11,.59-.04,0-.08,0-.12,0Zm-.15-4.25s-.07,0-.11,0c-.39,.03-.75,.23-1.03,.55-.36,.43-.53,1.03-.48,1.65,.1,1.14,.94,2,1.88,1.93,.39-.03,.75-.23,1.03-.55,.36-.43,.53-1.03,.48-1.65h0c-.1-1.09-.88-1.93-1.76-1.93Z"/>
            </g>
            <g>
              <path class="cls-2" d="M34.99,21.01c-.05-.51-.4-.89-.8-.86-.4,.03-.68,.47-.63,.97,.05,.51,.4,.89,.8,.86,.4-.03,.68-.47,.63-.97Z"/>
              <path class="cls-24" d="M34.31,22.04c-.4,0-.76-.4-.81-.91-.03-.3,.05-.58,.22-.78,.12-.15,.28-.23,.46-.25,.42-.04,.81,.37,.86,.91h0c.03,.3-.05,.58-.22,.78-.12,.15-.28,.23-.46,.25-.02,0-.03,0-.05,0Zm-.07-1.83s-.03,0-.04,0c-.15,.01-.28,.08-.39,.21-.15,.18-.22,.43-.2,.7,.04,.48,.38,.84,.74,.81,.15-.01,.28-.08,.39-.21,.15-.18,.22-.43,.2-.7-.04-.46-.35-.81-.7-.81Z"/>
            </g>
          </g>
        </g>
      </g>
    </g>
  </g>
</svg>