<?xml version="1.0" encoding="UTF-8"?>
<svg xmlns="http://www.w3.org/2000/svg" xmlns:xlink="http://www.w3.org/1999/xlink" viewBox="0 0 64 64">
  <defs>
    <style>
      .cls-1 {
        fill: url(#linear-gradient-2);
      }

      .cls-2, .cls-3 {
        fill: #fff;
      }

      .cls-4 {
        fill: #a7a9ac;
      }

      .cls-4, .cls-5, .cls-3 {
        opacity: .5;
      }

      .cls-4, .cls-6, .cls-7, .cls-8 {
        mix-blend-mode: overlay;
      }

      .cls-9 {
        fill: #68e1eb;
      }

      .cls-9, .cls-10, .cls-11 {
        mix-blend-mode: multiply;
      }

      .cls-12 {
        opacity: .6;
      }

      .cls-13 {
        isolation: isolate;
      }

      .cls-14 {
        opacity: .2;
      }

      .cls-10 {
        fill: #a4edf3;
      }

      .cls-15 {
        fill: #ff5722;
      }

      .cls-16, .cls-17 {
        fill: #2b2829;
      }

      .cls-16, .cls-18 {
        mix-blend-mode: screen;
      }

      .cls-6 {
        fill: #848689;
      }

      .cls-19 {
        fill: #dcc2a7;
      }

      .cls-7 {
        fill: #8c9699;
      }

      .cls-20 {
        fill: #6b184e;
      }

      .cls-11 {
        opacity: .3;
      }

      .cls-21 {
        fill: #ed2e7a;
      }

      .cls-22 {
        fill: #ff6ca8;
      }

      .cls-23 {
        fill: #ffa726;
      }

      .cls-24 {
        fill: url(#linear-gradient);
      }

      .cls-8 {
        fill: #8c9899;
      }
    </style>
    <linearGradient id="linear-gradient" x1="64" y1="34.03" x2="5.45" y2="34.03" gradientUnits="userSpaceOnUse">
      <stop offset="0" stop-color="#cf965b"/>
      <stop offset=".25" stop-color="#ca9257"/>
      <stop offset=".51" stop-color="#be864c"/>
      <stop offset=".78" stop-color="#a9733a"/>
      <stop offset="1" stop-color="#925d26"/>
    </linearGradient>
    <linearGradient id="linear-gradient-2" x1="61.28" y1="31.49" x2="1.36" y2="31.49" gradientUnits="userSpaceOnUse">
      <stop offset="0" stop-color="#e8b886"/>
      <stop offset=".25" stop-color="#e3b482"/>
      <stop offset=".5" stop-color="#d7a877"/>
      <stop offset=".76" stop-color="#c29464"/>
      <stop offset="1" stop-color="#a97c4e"/>
    </linearGradient>
  </defs>
  <g class="cls-13">
    <g id="_Слой_2" data-name="Слой 2">
      <g id="_Слой_1-2" data-name="Слой 1">
        <g>
          <g>
            <path class="cls-24" d="M60.49,6.68c-1.75-1.6-4.41-2.62-7.38-2.62H14.98c-5.26,0-9.53,3.19-9.53,7.11V55.87c0,2.22,1.37,4.2,3.51,5.51,1.75,1.6,4.41,2.62,7.38,2.62H54.47c5.26,0,9.53-3.19,9.53-7.11V12.19c0-2.22-1.37-4.2-3.51-5.51Z"/>
            <path class="cls-1" d="M57.77,4.65c-.41-.37-.86-.71-1.36-1.02-1.75-1.6-4.41-2.62-7.38-2.62H10.89C5.64,1.02,1.36,4.21,1.36,8.13V52.83c0,2.22,1.37,4.2,3.51,5.51,.41,.37,.86,.71,1.36,1.02,1.75,1.6,4.41,2.62,7.38,2.62H51.74c5.26,0,9.53-3.19,9.53-7.11V10.16c0-2.22-1.37-4.2-3.51-5.51Z"/>
            <path class="cls-19" d="M47.66,0H9.53C4.28,0,0,3.19,0,7.11V51.81c0,3.92,4.28,7.11,9.53,7.11H47.66c5.26,0,9.53-3.19,9.53-7.11V7.11c0-3.92-4.28-7.11-9.53-7.11Z"/>
          </g>
          <path class="cls-8" d="M5.89,14.33c-.01-2.85,.17-6.06,2.96-8,2.12-1.47,5.21-1.81,8.09-1.99,6.68-.42,13.42-.36,20.09,.18,3.3,.26,6.79,.71,9.28,2.36,3.69,2.45,3.93,6.61,3.9,10.29-.08,9.24-.15,18.48-.23,27.72-.02,2.2-.08,4.51-1.54,6.42-1.54,2-4.45,3.25-7.46,3.8-3.01,.55-6.15,.48-9.24,.41-5.15-.12-10.31-.24-15.43-.71-2.79-.26-9.22-.18-10.19-2.65-.66-1.68-.07-4.15-.07-5.9,0-2.02-.02-4.03-.03-6.05-.02-4.03-.04-8.06-.06-12.1-.02-4.59-.04-9.18-.07-13.78Z"/>
          <path class="cls-7" d="M20.65,20.31c-3.25-.39-6.54-1.19-8.94-2.87-2.39-1.69-3.67-4.43-2.38-6.69,.89-1.57,2.87-2.69,5.01-3.3,2.14-.61,4.45-.77,6.74-.89,5.74-.3,11.52-.39,17.22,.17,2.22,.22,4.55,.57,6.21,1.7,2.93,1.99,2.55,5.66,.4,8.14-5.33,6.17-16.02,4.75-24.26,3.75Z"/>
          <path class="cls-16" d="M9.75,46.11c-.57-1.77-.49-3.61-.4-5.43,.37-7.55,.74-15.09,1.11-22.64,.14-2.75,.39-5.74,2.81-7.82,2.2-1.89,5.7-2.58,9.03-2.93,4.04-.42,8.14-.47,12.2-.14,3.7,.3,7.69,1.06,9.9,3.3,1.87,1.9,2.03,4.41,2.12,6.77,.33,9.07,.66,18.2-1.13,27.18-.4,1.99-1,4.12-2.97,5.5-2.25,1.58-5.63,1.75-8.72,1.75-5.06,0-10.12-.25-15.13-.73-4.65-.45-7.58-.99-8.81-4.8Z"/>
          <path class="cls-9" d="M47.66,1.02h-1.63c4.51,0,8.17,2.73,8.17,6.1V51.81c0,3.37-3.66,6.1-8.17,6.1h1.63c4.51,0,8.17-2.73,8.17-6.1V7.11c0-3.37-3.66-6.1-8.17-6.1Z"/>
          <path class="cls-4" d="M44.83,56.21c2.15-.26,4.29-1.07,5.39-2.47,.86-1.09,1-2.4,1.05-3.66,.05-1.24,.02-2.47-.08-3.71-.07-.81-.31-1.78-1.32-2.08-.75-.23-1.65,.04-2.16,.52-.51,.47-.69,1.1-.74,1.7-.11,1.25,.25,2.52-.08,3.75-.39,1.42-1.68,2.63-3.23,3.51-1.13,.64-4.12,1.25-4.5,2.21,1.43,.58,4.04,.42,5.67,.23Z"/>
          <path class="cls-6" d="M3.88,2.71c-1.55,1.11-2.52,2.67-2.52,4.4v26.08c12.35-3.44,32.73-4.39,54.47,14.33v-14.97C26.86,28.05,11.39,13.17,3.88,2.71Z"/>
          <path class="cls-3" d="M3.58,9.23c.26-1.79,1.27-3.6,3.21-4.67,2.66-1.47,6.31-1.25,9.61-.96,1.02,.09,2.32,.39,2.36,1.15,.03,.67-.97,1.08-1.84,1.21-2.2,.34-4.63-.04-6.59,.77-1.42,.58-2.33,1.69-2.8,2.85s-.56,2.38-.73,3.58c-.07,.46-.15,.93-.44,1.34-1.08,1.49-2.05,.48-2.43-.37-.6-1.35-.53-3.5-.32-4.91Z"/>
          <g class="cls-18">
            <path class="cls-17" d="M36.44,9.78c.84,1.55-.18,3.32-2.26,3.94-2.08,.62-4.45-.13-5.29-1.69-.84-1.55,.18-3.32,2.26-3.94,2.08-.62,4.45,.13,5.29,1.69Z"/>
            <ellipse class="cls-17" cx="41.34" cy="12.32" rx="2.18" ry="1.63"/>
            <path class="cls-17" d="M40.11,16.13c.37,.7-.08,1.49-1.01,1.77-.93,.28-1.99-.06-2.37-.76-.37-.7,.08-1.49,1.01-1.77,.93-.28,1.99,.06,2.37,.76Z"/>
          </g>
          <g class="cls-18">
            <path class="cls-17" d="M23.64,45.38c.8,1.49-.17,3.17-2.16,3.77-1.99,.6-4.25-.13-5.05-1.61-.8-1.49,.17-3.17,2.16-3.77,1.99-.6,4.25,.13,5.05,1.61Z"/>
            <path class="cls-17" d="M20.79,40.39c.22,.41-.05,.87-.59,1.03s-1.16-.03-1.38-.44c-.22-.41,.05-.87,.59-1.03,.54-.16,1.16,.03,1.38,.44Z"/>
            <path class="cls-17" d="M15.3,41.5c.45,.84-.09,1.78-1.21,2.12-1.12,.34-2.39-.07-2.84-.91-.45-.84,.09-1.78,1.21-2.12,1.12-.34,2.39,.07,2.84,.91Z"/>
          </g>
          <g class="cls-11">
            <path class="cls-10" d="M51.02,35.95c.79,1.47-.17,3.15-2.14,3.74-1.98,.59-4.22-.12-5.01-1.6-.79-1.47,.17-3.15,2.14-3.74,1.98-.59,4.22,.12,5.01,1.6Z"/>
            <path class="cls-10" d="M53.92,29.6c.58,1.08-.12,2.3-1.57,2.74-1.45,.43-3.09-.09-3.67-1.17-.58-1.08,.12-2.3,1.57-2.74,1.45-.43,3.09,.09,3.67,1.17Z"/>
            <path class="cls-10" d="M45.56,30.99c.37,.7-.08,1.49-1.01,1.77-.93,.28-1.99-.06-2.37-.76-.37-.7,.08-1.49,1.01-1.77,.93-.28,1.99,.06,2.37,.76Z"/>
            <path class="cls-10" d="M10.65,25.55c.41,.75-.09,1.61-1.1,1.92-1.01,.3-2.16-.06-2.57-.82-.41-.75,.09-1.61,1.1-1.92,1.01-.3,2.16,.06,2.57,.82Z"/>
            <path class="cls-10" d="M11.29,21.09c.21,.39-.04,.84-.57,1-.53,.16-1.13-.03-1.34-.43-.21-.39,.04-.84,.57-1,.53-.16,1.13,.03,1.34,.43Z"/>
            <path class="cls-10" d="M6.59,20.15c.34,.63-.07,1.34-.91,1.59-.84,.25-1.79-.05-2.13-.68-.34-.63,.07-1.34,.91-1.59s1.79,.05,2.13,.68Z"/>
          </g>
        </g>
      </g>
      <g id="_Слой_7" data-name="Слой 7">
        <g>
          <g>
            <path class="cls-2" d="M43.04,44.46c-.11,.65-.27,1.3-.51,1.93-1.09,2.89-3.66,5.57-8.78,6.99-2.38,.66-5.3,1.04-8.87,1.04-2.55,0-4.8-.3-6.76-.83-7.99-2.16-11.2-8.17-11.2-13.47v-.06c.03-6.46,5.47-16.08,19.69-13.96,4.33,.65,7.39,6.55,9.68,8.5,.78,.66,1.9,1.44,3.02,2.38,1.3,1.09,2.58,2.4,3.28,3.98,.46,1.04,.67,2.2,.46,3.49Z"/>
            <path class="cls-23" d="M35.06,48.59c0,1.65-.48,3.2-1.32,4.51-2.38,.66-5.3,1.04-8.87,1.04-2.55,0-4.8-.3-6.76-.83-.92-1.36-1.45-2.98-1.45-4.72,0-4.83,4.12-8.75,9.2-8.75s9.2,3.92,9.2,8.75Z"/>
            <path class="cls-20" d="M24.87,54.53c-2.48,0-4.79-.28-6.86-.84-3.75-1.01-6.79-2.99-8.8-5.7-1.73-2.34-2.68-5.23-2.68-8.14,0-3.16,1.34-7.7,5.09-10.94,2.57-2.22,7.26-4.61,15.03-3.46,3.16,.47,5.62,3.55,7.6,6.02,.82,1.03,1.6,2,2.27,2.57,.36,.3,.8,.64,1.27,1,2.52,1.93,6.33,4.84,5.62,9.2h0c-.51,3.15-2.59,7.3-9.57,9.23-2.53,.7-5.55,1.05-8.98,1.05Zm-2.09-28.61c-4.27,0-7.91,1.21-10.65,3.57-3.56,3.07-4.83,7.36-4.83,10.36,0,4.91,2.87,10.92,10.91,13.1,2,.54,4.24,.81,6.66,.81,3.36,0,6.31-.34,8.77-1.03,6.59-1.82,8.54-5.69,9.02-8.62,.64-3.91-2.81-6.55-5.33-8.47-.48-.36-.93-.71-1.3-1.02-.73-.62-1.49-1.57-2.37-2.67-1.9-2.37-4.26-5.31-7.12-5.74-1.3-.19-2.56-.29-3.77-.29Zm20.26,18.26h0Z"/>
            <path class="cls-2" d="M32.03,40.12s-.58,1.75-.99,2.77c-.41,1.02-1.43,2.54-.46,3.51,.97,.97,3.82,.18,6.11-3.14l-4.66-3.14Z"/>
            <g class="cls-14">
              <path class="cls-20" d="M31.74,40.98s-4.61,5.47-1,7.28c3.61,1.81,5.54-4.43,5.54-4.43,0,0-2.74,2.32-4.12,1.5-1.37-.81-.9-3.25-.43-4.35Z"/>
            </g>
            <path class="cls-20" d="M32.15,40.16c-.13,.58-.29,1.16-.45,1.73-.09,.29-.17,.57-.27,.86-.05,.14-.1,.29-.15,.43-.06,.14-.12,.28-.17,.42-.12,.27-.23,.54-.33,.8-.09,.26-.17,.53-.2,.77-.03,.25,0,.48,.08,.67,.04,.09,.1,.18,.18,.26,.07,.08,.15,.13,.24,.18,.1,.05,.21,.08,.32,.1,.12,.02,.24,.03,.37,.02,.25,0,.52-.06,.78-.13,.26-.08,.52-.18,.77-.3,.25-.12,.5-.26,.74-.42,.24-.16,.47-.33,.69-.51,.23-.18,.44-.38,.65-.57,.42-.4,.81-.84,1.19-1.29h0c.05-.06,.13-.06,.18-.02,.05,.04,.06,.11,.03,.16-.6,1.04-1.39,2-2.38,2.74-.5,.37-1.04,.69-1.65,.89-.31,.1-.63,.17-.97,.19-.34,.01-.7-.02-1.05-.18-.17-.08-.34-.2-.47-.34-.13-.13-.24-.29-.32-.47-.16-.35-.18-.74-.13-1.08,.05-.34,.15-.65,.27-.94,.12-.29,.26-.56,.39-.83,.07-.13,.13-.26,.19-.39,.06-.13,.12-.26,.18-.39,.12-.27,.23-.54,.35-.81,.23-.54,.46-1.09,.71-1.64h0c.03-.07,.11-.09,.17-.06,.06,.03,.09,.09,.07,.14Z"/>
            <path class="cls-2" d="M18.78,39.17s.25,1.27,1.02,2.34c.76,1.07,2.04,2.95,1.27,3.92-.76,.97-4.38,.2-5.24-2.7l2.95-3.56Z"/>
            <g class="cls-14">
              <path class="cls-20" d="M19.46,40.75s5.52,5.1,1.9,6.91-5.5-4.79-5.5-4.79c0,0,2.7,2.67,4.08,1.86s0-2.88-.48-3.98Z"/>
            </g>
            <path class="cls-20" d="M18.9,39.15c.18,.52,.41,1.04,.69,1.51,.14,.24,.29,.46,.45,.67,.18,.22,.35,.46,.52,.69,.33,.48,.65,.98,.88,1.55,.06,.14,.11,.29,.15,.44,.04,.15,.07,.31,.09,.48,.02,.17,.01,.35-.02,.53-.03,.18-.1,.37-.21,.53-.03,.04-.05,.08-.09,.12-.04,.04-.07,.08-.11,.12-.04,.03-.08,.06-.12,.1-.04,.03-.08,.05-.13,.08-.17,.09-.34,.15-.51,.18-.08,.02-.17,.03-.25,.04-.08,0-.16,.01-.24,.01-.08,0-.16,0-.24,0-.08,0-.16-.01-.23-.02-.62-.08-1.2-.3-1.72-.6-.26-.15-.51-.33-.74-.53-.23-.2-.44-.42-.62-.66-.18-.24-.34-.49-.47-.77-.12-.27-.22-.55-.28-.84-.02-.07,.03-.14,.1-.15,.06-.01,.12,.02,.15,.08h0c.4,1.03,1.2,1.85,2.16,2.31,.24,.12,.49,.22,.74,.29,.25,.08,.51,.13,.77,.15,.25,.02,.51,.02,.73-.03,.11-.02,.21-.06,.29-.11,.02-.01,.04-.02,.06-.04,.01-.01,.03-.02,.05-.04,.01-.01,.02-.03,.03-.04l.04-.05c.1-.15,.13-.35,.11-.58-.02-.23-.09-.48-.18-.72-.19-.49-.45-.97-.74-1.45-.14-.24-.3-.47-.45-.71-.16-.25-.3-.52-.42-.79-.23-.55-.4-1.11-.47-1.69,0-.07,.04-.13,.11-.14,.06,0,.12,.03,.14,.08h0Z"/>
            <g class="cls-14">
              <path class="cls-20" d="M43.04,44.46c-.11,.65-.27,1.3-.51,1.93l-.12,.02c2-5.96-5.72-7.52-5.72-7.52l2.61-1.9c2.16,1.82,4.27,4.22,3.74,7.47Z"/>
            </g>
            <g class="cls-14">
              <path class="cls-20" d="M43.04,44.46c-.11,.65-.27,1.3-.51,1.93-1.09,2.89-3.66,5.57-8.78,6.99-2.38,.66-5.3,1.04-8.87,1.04-2.55,0-4.8-.3-6.76-.83-7.99-2.16-11.2-8.17-11.2-13.47v-.06c2.03,4.42,8.79,12.7,19.69,12.7,9.34,0,18.03-5.98,15.98-11.8,.46,1.04,.67,2.2,.46,3.49Z"/>
            </g>
            <path class="cls-23" d="M42.49,48.21c-.3,1.9-1.14,3.07-2.35,3.16-1.01,.07-2.21-1.48-1.44-3.24,.69-1.59,1.51-3.52,2.51-3.64,1.01-.12,1.57,1.82,1.27,3.72Z"/>
            <g class="cls-12">
              <path class="cls-2" d="M38.71,49.47c.69-1.59,1.51-3.52,2.51-3.64,.73-.09,1.23,.91,1.33,2.2,.13-1.72-.41-3.32-1.33-3.21-1,.12-1.82,2.05-2.51,3.64-.26,.59-.29,1.15-.19,1.63,.04-.2,.1-.41,.19-.62Z"/>
            </g>
            <g class="cls-14">
              <path class="cls-20" d="M40.47,49.86c-.74,.05-1.58-.77-1.67-1.9-.02,.05-.05,.11-.07,.16-.77,1.76,.43,3.32,1.44,3.24,1.2-.09,2.05-1.26,2.35-3.16,.02-.14,.04-.28,.05-.42-.41,1.25-1.14,2-2.09,2.07Z"/>
            </g>
            <path class="cls-20" d="M40.08,51.75c-.54,0-1.11-.33-1.5-.88-.58-.82-.66-1.9-.22-2.9l.06-.14c.77-1.76,1.57-3.58,2.76-3.73,.36-.04,.71,.09,.99,.38,.66,.68,.95,2.24,.71,3.78h0c-.33,2.11-1.31,3.38-2.7,3.48-.03,0-.06,0-.1,0Zm1.23-6.89s-.03,0-.04,0c-.76,.09-1.56,1.93-2.15,3.27l-.06,.14c-.33,.75-.27,1.56,.15,2.15,.25,.36,.61,.58,.91,.56,1-.07,1.73-1.11,2-2.83,.23-1.46-.09-2.7-.5-3.13-.12-.13-.23-.15-.3-.15Zm1.18,3.35h0Z"/>
            <path class="cls-23" d="M9.29,49.49c.33,2.12,1.28,3.43,2.62,3.53,1.13,.08,2.47-1.65,1.6-3.62-.78-1.77-1.69-3.93-2.81-4.06-1.12-.14-1.75,2.04-1.42,4.16Z"/>
            <g class="cls-12">
              <path class="cls-2" d="M13.51,50.91c-.78-1.77-1.69-3.93-2.81-4.06-.82-.1-1.37,1.02-1.48,2.45-.15-1.92,.46-3.71,1.48-3.59,1.12,.14,2.03,2.29,2.81,4.06,.29,.65,.33,1.28,.22,1.83-.04-.23-.11-.46-.22-.69Z"/>
            </g>
            <g>
              <path class="cls-20" d="M11.48,45.73c.03,.11,.03,.21,.03,.32,0,.11,0,.22-.02,.32-.02,.22-.05,.43-.12,.65,0,.02-.02,.02-.04,.02,0,0-.02,0-.02-.02-.08-.21-.13-.43-.17-.64-.02-.11-.04-.21-.05-.32,0-.11-.01-.21,0-.32,.02-.11,.11-.18,.22-.17,.08,.01,.14,.07,.16,.15Z"/>
              <path class="cls-20" d="M10.1,45.82c.05,.11,.08,.22,.11,.33,.03,.11,.04,.23,.06,.35,.03,.23,.06,.47,.05,.71,0,.02-.01,.03-.03,.03,0,0-.02,0-.02-.01-.13-.21-.24-.42-.33-.63-.05-.11-.09-.22-.13-.33-.04-.11-.07-.22-.08-.34-.01-.11,.07-.2,.17-.21,.08,0,.16,.04,.2,.11Z"/>
            </g>
            <g class="cls-14">
              <path class="cls-20" d="M11.55,51.34c.82,.06,1.76-.85,1.87-2.12,.03,.06,.05,.12,.08,.18,.86,1.97-.48,3.7-1.6,3.62-1.34-.1-2.29-1.4-2.62-3.53-.02-.16-.04-.31-.06-.47,.46,1.4,1.27,2.24,2.34,2.32Z"/>
            </g>
            <path class="cls-20" d="M11.98,53.41s-.07,0-.1,0c-1.52-.11-2.61-1.51-2.97-3.85-.27-1.71,.05-3.43,.78-4.19,.31-.32,.67-.46,1.07-.41,1.31,.16,2.19,2.18,3.04,4.13l.07,.15c.48,1.1,.39,2.3-.25,3.2-.43,.6-1.04,.97-1.63,.97Zm-1.38-7.69c-.09,0-.22,.03-.37,.19-.55,.57-.8,2.09-.57,3.54h0c.31,1.95,1.13,3.12,2.27,3.2,.35,.02,.76-.23,1.06-.64,.48-.68,.54-1.59,.17-2.45l-.07-.15c-.66-1.51-1.56-3.58-2.43-3.68-.02,0-.04,0-.06,0Z"/>
            <g class="cls-14">
              <path class="cls-20" d="M8.41,33.71s2.17-2.59,3.7-1.44l-1.28-2.05s-2.3,2.97-2.42,3.5Z"/>
            </g>
            <ellipse class="cls-2" cx="11.27" cy="49.5" rx=".95" ry="1.43" transform="translate(-9.9 3.36) rotate(-11.82)"/>
            <g>
              <path class="cls-20" d="M42.25,45.4c-.02,.11-.06,.21-.1,.31-.04,.1-.09,.2-.15,.29-.11,.19-.22,.38-.36,.56,0,.01-.03,.01-.04,0,0,0-.01-.01-.01-.02,0-.23,.04-.44,.09-.66,.02-.11,.05-.21,.08-.32,.03-.1,.07-.2,.13-.3,.06-.09,.18-.12,.27-.07,.07,.04,.1,.12,.09,.2Z"/>
              <path class="cls-20" d="M40.94,44.95c0,.12,0,.23-.03,.35-.02,.12-.05,.23-.08,.34-.06,.23-.13,.45-.23,.68,0,.01-.02,.02-.04,.01,0,0-.01-.01-.02-.02-.04-.24-.05-.48-.06-.71,0-.12,0-.24,0-.35,.01-.12,.03-.23,.06-.35,.03-.1,.14-.16,.24-.13,.08,.02,.13,.1,.14,.18Z"/>
            </g>
            <ellipse class="cls-2" cx="40.62" cy="48.34" rx="1.35" ry=".89" transform="translate(-17.02 74.11) rotate(-74.04)"/>
          </g>
          <g>
            <path class="cls-23" d="M44.42,21.45c-.1,.3-.24,.58-.39,.84-1.42,2.35-4.76,3-4.76,3l.34,1.35c2.94,3.3,2.95,6.54,.85,9.08h0c-1.09,1.32-2.75,2.45-4.86,3.31-2.78,1.13-6.45-.22-10.27-.69-4.67-.57-9.55-.8-13.21-5.72-1.63-2.2-2.23-4.22-2.2-6.01,.03-1.39,.43-2.65,1.02-3.75,1.35-2.53,3.66-4.23,4.63-4.87h0s.08-.05,.12-.08c.2-.13,.32-.2,.32-.2,0,0,0-.02-.02-.05-.08-.22-.44-1.17-.74-2.4-.36-1.49-.63-3.4-.25-4.97,.18-.74,.51-1.4,1.04-1.9,2.75-2.6,8.65,4.17,8.65,4.17l1.48-.25c7.02-3.92,4.63-.31,4.63-.31,4.89-1.27,2.6,.81,2.6,.81,5.04,.66,1.16,1.86,1.16,1.86,0,0,3.78,2.6,6.07,3.04,2.29,.43,4.81,.71,3.78,3.74Z"/>
            <g class="cls-12">
              <path class="cls-2" d="M21.47,14.48s-3.1,1.32-4.05,3.5c-.32,.74-2.23,1.52-2.98,2.22-.93,.88-1.87,2.65-1.87,2.65h-1.63c1.35-2.53,3.66-4.23,4.63-4.87h0s.08-.05,.12-.08l.1,.08s3.69-3.69,5.67-3.5Z"/>
            </g>
            <g class="cls-12">
              <path class="cls-2" d="M30.78,12.12c.36-2.14-3.66,1.04-3.66,1.04l-2.56,.39s-3.02-3.09-5.69-4.56c-1.73-.96-2.97,.3-3.62,1.29,.18-.74,.51-1.4,1.04-1.9,2.75-2.6,8.65,4.17,8.65,4.17l1.48-.25c7.02-3.92,4.36-.18,4.36-.18Z"/>
              <path class="cls-2" d="M33.64,12.81c.31-.56-2.67-.52-2.67-.52,4.89-1.27,2.67,.52,2.67,.52Z"/>
              <path class="cls-2" d="M44.6,21.45c-.1,.3-.24,.58-.39,.84,.75-2.93-2.28-3.36-4.61-4.03-2.85-.81-5.47-3.46-5.47-3.46,2.76-1.02-.65-1.71-.65-1.71,5.04,.66,1.27,1.58,1.27,1.58,0,0,3.78,2.6,6.07,3.04,2.29,.43,4.81,.71,3.78,3.74Z"/>
            </g>
            <g class="cls-14">
              <path class="cls-20" d="M39.49,25.2s0-5.11-1.03-5.6c0,0,6.45,1.01,3.8,4.55l-2.76,1.05Z"/>
            </g>
            <path class="cls-2" d="M40.69,35.7h0c-1.09,1.32-2.75,2.45-4.86,3.31-2.78,1.13-6.99,.62-10.81,.15-4.67-.57-8.96-1.19-12.62-6.11-1.63-2.2-2.28-4.67-2.25-6.47,0-2.47,1.68-5.17,4.06-5.16,3.97,.02,4.05,4.24,7.25,4.99,3.21,.75,4.12-3.14,7.56-1.92,3.44,1.22,1.76,4.17,4.05,5.33,2.29,1.16,4.75-2.12,7.3-.14,1.42,1.1,2.03,4.08,.31,6.01Z"/>
            <path class="cls-20" d="M39.8,37.14c-.26,.27-.56,.5-.87,.71-.31,.21-.64,.38-.98,.53-.34,.16-.68,.29-1.03,.41-.35,.12-.71,.22-1.07,.28-.03,0-.06-.01-.07-.04,0-.02,0-.05,.02-.06l.91-.59c.3-.2,.6-.4,.89-.6,.29-.2,.57-.42,.85-.62,.28-.2,.56-.41,.85-.61h0c.18-.12,.42-.07,.53,.11,.1,.15,.08,.35-.04,.48Z"/>
            <g class="cls-14">
              <path class="cls-20" d="M35.93,37.6c-2.91,.73-7.24-1.01-11.06-1.48-4.67-.57-11.08-2.29-13.27-6.41-1.28-2.42-.69-4.33-.66-6.12,0-.05,0-.1,0-.15-.41,.93-.67,1.96-.69,3.08-.03,1.8,.56,3.82,2.2,6.01,3.66,4.92,7.75,4.89,12.42,5.47,3.82,.47,8.28,2.08,11.06,.95,2.11-.86,3.77-1.99,4.86-3.31h0c1.02-1.23,1.54-2.62,1.47-4.11-1.12,3.64-3.07,5.25-6.33,6.06Z"/>
            </g>
            <path class="cls-20" d="M39.66,37.14c-.11,0-.21-.04-.29-.13-.14-.16-.12-.4,.04-.54,.37-.32,.7-.65,.98-1,0,0,0,0,0,0,2.11-2.56,1.81-5.6-.84-8.58-.04-.05-.07-.1-.09-.16l-.34-1.35c-.03-.1,0-.21,.05-.3,.06-.09,.15-.15,.25-.17,.04,0,3.92-.81,4.86-3.59,.28-.83,.29-1.44,.03-1.89-.47-.8-1.83-1.05-3.15-1.29-.12-.02-.24-.04-.37-.07-2.34-.44-6.06-2.99-6.22-3.1-.12-.08-.18-.23-.16-.37,.02-.15,.13-.26,.27-.31,.47-.15,.98-.4,1.13-.55-.13-.1-.59-.34-2.22-.56-.15-.02-.27-.12-.32-.27-.04-.14,0-.3,.11-.4,.18-.16,.35-.4,.4-.52-.15-.05-.72-.14-2.64,.36-.15,.04-.32-.02-.41-.15-.09-.13-.1-.3,0-.43,.24-.36,.38-.79,.32-.89,0,0-.55-.43-4.45,1.74-.04,.02-.08,.04-.12,.04l-1.48,.25c-.13,.02-.27-.02-.35-.13-.04-.04-3.96-4.5-6.71-4.63-.56-.03-1.02,.13-1.39,.49-2.53,2.39,.03,8.83,.06,8.9,.07,.18,0,.38-.17,.48-.06,.03-5.8,3.36-5.9,8.57-.02,1.1,.21,2.22,.69,3.33,.08,.19,0,.42-.2,.5-.19,.08-.42,0-.5-.2-.52-1.22-.77-2.44-.75-3.65,.04-2.35,1.15-4.69,3.19-6.77,1.16-1.18,2.29-1.96,2.81-2.28-.51-1.39-2.35-6.99,.24-9.44,.53-.5,1.18-.73,1.95-.69,2.79,.14,6.34,3.89,7.11,4.73l1.2-.21c3.93-2.19,4.9-2.02,5.32-1.56,.27,.29,.24,.7,.13,1.06,1.65-.37,2.47-.3,2.74,.2,.16,.3,.06,.62-.11,.89,1.53,.26,2.19,.6,2.23,1.15,.04,.48-.45,.83-.97,1.08,1.15,.74,3.66,2.26,5.3,2.57,.12,.02,.24,.04,.36,.07,1.49,.27,3.03,.56,3.67,1.65,.38,.65,.39,1.47,.04,2.52-.91,2.66-3.95,3.71-5.05,4l.22,.88c2.84,3.23,3.13,6.69,.8,9.51,0,0,0,0,0,0-.31,.37-.67,.74-1.06,1.08-.07,.06-.16,.09-.25,.09Z"/>
            <path class="cls-20" d="M12.31,32.65c-.2-.14-.38-.31-.55-.48-.17-.17-.33-.35-.48-.54-.15-.19-.29-.38-.41-.59-.06-.1-.12-.21-.16-.32-.05-.11-.09-.22-.12-.34-.05-.21,.07-.42,.28-.47,.16-.04,.32,.03,.41,.15h0c.07,.1,.12,.2,.17,.3,.05,.1,.1,.2,.15,.3,.1,.2,.18,.41,.27,.62l.27,.64c.09,.22,.18,.43,.26,.66,.01,.03,0,.06-.04,.07-.02,0-.04,0-.05,0Z"/>
            <path class="cls-22" d="M39.5,24.14c-.04-1.32-.25-3.47-1.15-4.73,0,0,.88,.53,1.83,.76,.95,.23,2.11,.25,2.21,1.11,.27,2.18-2.89,2.86-2.89,2.86Z"/>
            <path class="cls-20" d="M39.49,25.67s-.01,0-.02,0c-.21-.01-.37-.19-.36-.4,0-.04,.2-3.86-1.08-5.64-.11-.15-.09-.35,.03-.48,.12-.13,.32-.16,.48-.07,0,0,.84,.51,1.72,.72,.17,.04,.36,.08,.54,.11,.82,.16,1.84,.35,1.96,1.32,.25,2.08-2.03,2.95-2.88,3.2,0,.5-.01,.84-.01,.88-.01,.2-.18,.36-.38,.36Zm-.27-5.41c.42,1.08,.58,2.37,.64,3.37,.78-.26,2.32-.96,2.15-2.31-.05-.39-.54-.51-1.34-.66-.19-.04-.39-.07-.58-.12-.3-.07-.6-.17-.86-.28Z"/>
            <path class="cls-22" d="M21.42,14.21c-1.65,.43-3.02,1.39-3.95,2.19-.02-.07-1.34-4.85,.25-5.6,1.6-.76,3.69,3.41,3.69,3.41Z"/>
            <g class="cls-14">
              <path class="cls-20" d="M21.47,14.21c-.83-.02-4.26,2.53-5.47,3.44-.08-.22-.44-1.17-.74-2.4,.54-1.78,1.22-3.93,2.52-4.45,1.6-.64,3.69,3.41,3.69,3.41Z"/>
            </g>
            <path class="cls-20" d="M16.25,18.08c-.08,0-.17-.03-.24-.08-.17-.13-.19-.37-.06-.54,.04-.05,.45-.56,1.15-1.19-.11-.42-.32-1.35-.42-2.34-.2-1.91,.12-3.08,.95-3.47,1.89-.9,3.97,3.12,4.2,3.58,.05,.1,.05,.22,0,.33-.05,.11-.14,.18-.25,.21-2.94,.77-5,3.33-5.02,3.36-.08,.1-.19,.14-.3,.14Zm1.95-6.99c-.09,0-.17,.02-.25,.06-.82,.39-.63,2.74-.2,4.57,.83-.65,1.91-1.33,3.17-1.75-.66-1.18-1.86-2.88-2.72-2.88Z"/>
            <ellipse class="cls-20" cx="23.25" cy="23.13" rx="2.1" ry="1.59" transform="translate(-9.53 23.97) rotate(-46.32)"/>
            <ellipse class="cls-2" cx="23.86" cy="22.78" rx=".71" ry=".53" transform="translate(-9.09 24.3) rotate(-46.32)"/>
            <g>
              <path class="cls-20" d="M27.52,28.13s-.73-1.27-.24-1.43c.48-.15,1.44,.32,1.53,.56,.18,.48-1.28,.87-1.28,.87Z"/>
              <path class="cls-20" d="M28.82,29.46s-.53,1.01-1.17,1.82c-.48,.62-1.03,1.12-1.46,.98-.44-.14-.59-.89-.63-1.69-.05-1.02,.1-2.11,.1-2.11,.39,.1,.98,.04,1.86-.32,0,0,.41,1.16,1.3,1.31Z"/>
              <path class="cls-21" d="M27.65,31.26c-.48,.62-1.03,1.12-1.46,.98-.44-.14-.59-.89-.63-1.69,.58,0,1.41,.1,2.09,.7Z"/>
              <path class="cls-2" d="M28.33,29.25h0s-.99,1.15-1.58,.95c-.6-.2-.48-1.72-.48-1.72,.33-.03,.74-.14,1.25-.34,0,0,.26,.73,.81,1.11h0Z"/>
              <path class="cls-20" d="M26.34,32.65c-.09,0-.18-.01-.27-.04-.54-.18-.84-.84-.89-2.03-.05-1.04,.1-2.13,.1-2.18,.03-.21,.22-.36,.43-.33,.21,.03,.36,.22,.33,.43,0,.01-.14,1.07-.1,2.04,.06,1.23,.35,1.34,.36,1.34,.1,.03,.45-.1,1.04-.85,.61-.78,1.12-1.76,1.13-1.77,.1-.19,.33-.26,.52-.16,.19,.1,.26,.33,.16,.52-.02,.04-.55,1.05-1.21,1.88-.61,.77-1.14,1.15-1.61,1.15Z"/>
              <path class="cls-20" d="M29.02,29.84c-.12,0-.24-.01-.36-.04-.69-.17-1.12-.78-1.34-1.18-1.03,.36-1.8,.34-2.3-.05-.65-.52-.52-1.44-.52-1.48,.03-.21,.23-.35,.44-.32,.21,.03,.35,.23,.32,.43,0,.01-.07,.53,.24,.77,.31,.24,.98,.18,1.88-.19,.1-.04,.21-.04,.3,0,.1,.04,.17,.12,.2,.22,.09,.25,.44,.93,.95,1.05,.38,.09,.84-.12,1.36-.61,.15-.15,.4-.14,.54,.01,.15,.15,.14,.4-.01,.54-.59,.56-1.16,.85-1.71,.85Z"/>
            </g>
            <path class="cls-20" d="M36.03,25.96c-.11-.03-.23-.05-.35-.06h-.09s-.09,0-.09,0c-.06,0-.12,0-.17,.01-.23,.03-.44,.1-.65,.2-.21,.09-.4,.23-.6,.37l-.28,.23c-.09,.09-.18,.17-.27,.25l-.32-.63c.13-.01,.25-.02,.37-.02,.12,0,.24,0,.36,0,.24,.01,.48,.04,.72,.1,.24,.06,.48,.12,.7,.24,.22,.11,.44,.26,.59,.46,.04,.06,.03,.14-.02,.18-.04,.03-.1,.04-.14,.01h0c-.18-.11-.38-.17-.58-.22-.2-.04-.41-.06-.62-.07-.21-.01-.43,0-.64,0-.11,0-.21,.01-.32,.02-.1,0-.22,.02-.31,.03-.2,.03-.39-.11-.42-.32-.02-.12,.02-.23,.1-.31h0c.1-.11,.2-.21,.31-.31,.11-.1,.23-.19,.34-.28,.25-.16,.5-.32,.8-.41,.29-.09,.61-.14,.92-.09,.08,.01,.15,.02,.23,.05,.04,.01,.07,.02,.11,.03l.11,.04c.14,.07,.27,.14,.39,.26,.05,.05,.05,.13,0,.18-.03,.03-.08,.05-.12,.03h-.03Z"/>
          </g>
          <g>
            <g>
              <path class="cls-15" d="M40.23,13.99c-.1,0-.2-.05-.27-.14-.09-.12-.09-.29,0-.41l.89-1.11c.18-.23,.2-.54,.04-.78-.61-.91-.86-2-.7-3.08,.31-2.19,2.2-3.84,4.41-3.84,.19,0,.38,.01,.56,.04,1.21,.16,2.28,.78,3.01,1.76,.73,.98,1.02,2.18,.82,3.38-.35,2.13-2.24,3.73-4.4,3.73,0,0,0,0,0,0-.23,0-.46-.02-.69-.05-.37-.06-.74-.16-1.08-.31-.08-.03-.16-.05-.25-.05s-.16,.02-.24,.05l-1.99,.8s-.08,.02-.12,.02Z"/>
              <path class="cls-20" d="M44.61,4.96c.17,0,.35,.01,.52,.03,2.32,.3,3.92,2.45,3.54,4.76-.33,2.01-2.09,3.45-4.07,3.45-.21,0-.42-.02-.63-.05-.35-.06-.69-.15-1-.29-.12-.05-.25-.08-.38-.08s-.25,.02-.36,.07l-1.99,.8,.89-1.11c.27-.34,.3-.81,.05-1.18-.54-.81-.8-1.81-.65-2.85,.29-2.05,2.06-3.55,4.08-3.55m0-.67c-2.38,0-4.42,1.78-4.75,4.13-.16,1.16,.11,2.34,.76,3.32,.08,.12,.07,.27-.02,.39l-.89,1.11c-.19,.24-.2,.57-.01,.82,.13,.17,.33,.27,.54,.27,.08,0,.17-.02,.25-.05l1.99-.8s.08-.02,.11-.02,.08,0,.12,.02c.37,.16,.76,.27,1.16,.34,.24,.04,.49,.06,.74,.06,1.12,0,2.22-.4,3.08-1.13,.88-.74,1.46-1.76,1.65-2.88,.21-1.3-.1-2.59-.89-3.64-.78-1.05-1.93-1.72-3.23-1.89-.2-.03-.4-.04-.61-.04h0Z"/>
            </g>
            <g class="cls-14">
              <path class="cls-20" d="M48.71,9.5s0-.09,.01-.13c0-.02,0-.05,0-.07,0-.05,0-.09,0-.14,0-.02,0-.04,0-.06,0-.06,0-.12,0-.18,0-.03,0-.05,0-.08,0-.04,0-.07,0-.11,0-.03,0-.06,0-.09,0-.03,0-.06-.01-.09,0-.03,0-.07-.01-.1,0-.02,0-.04-.01-.06-.01-.08-.03-.16-.05-.23,0-.01,0-.02,0-.03-.01-.04-.02-.09-.03-.13,0-.01,0-.03-.01-.04-.01-.04-.03-.09-.04-.13,0,0,0,0,0-.01-.06-.2-.14-.39-.24-.58,.13,.52,.15,1.08,.06,1.64-.31,1.9-1.9,3.29-3.74,3.44-1.95,.14-3-.38-3.57-1.14,0,0-.18-.68-.18-.69-.09-.14-.18-.29-.25-.44,0,0,0,0,0,0,0,.04,.02,.08,.03,.12,0,0,0,0,0,0,.12,.43,.3,.83,.54,1.19,.24,.36,.22,.84-.05,1.18l-.89,1.11,1.99-.8c.24-.1,.51-.09,.75,0,.31,.14,.65,.23,1,.29,.06,.01,.13,.02,.19,.02,.06,0,.12,.01,.18,.01,0,0,.02,0,.03,0,.05,0,.11,0,.16,0,.01,0,.03,0,.04,0,.05,0,.1,0,.15,0,.02,0,.03,0,.05,0,.05,0,.1,0,.14,0,.02,0,.04,0,.06,0,.05,0,.09,0,.14-.02,.02,0,.04,0,.06,0,.04,0,.09-.01,.13-.02,.02,0,.04,0,.06-.01,.04,0,.08-.02,.13-.03,.02,0,.04,0,.07-.01,.04,0,.08-.02,.12-.03,.02,0,.05-.01,.07-.02,.04-.01,.08-.02,.12-.04,.02,0,.05-.01,.07-.02,.04-.01,.08-.03,.11-.04,.02,0,.05-.02,.07-.03,.04-.01,.07-.03,.11-.05,.02-.01,.05-.02,.07-.03,.04-.02,.07-.03,.1-.05,.02-.01,.05-.02,.07-.04,.03-.02,.07-.04,.1-.05,.02-.01,.05-.03,.07-.04,.03-.02,.06-.04,.1-.06,.02-.01,.05-.03,.07-.04,.03-.02,.06-.04,.09-.06,.02-.02,.05-.03,.07-.05,.03-.02,.06-.04,.09-.06,.02-.02,.05-.03,.07-.05,.03-.02,.06-.04,.08-.07,.02-.02,.05-.04,.07-.06,.03-.02,.05-.05,.08-.07,.02-.02,.04-.04,.07-.06,.03-.02,.05-.05,.07-.07,.02-.02,.04-.04,.06-.07,.02-.02,.05-.05,.07-.07,.02-.02,.04-.05,.06-.07,.02-.03,.04-.05,.07-.08,.02-.02,.04-.05,.06-.07,.02-.03,.04-.05,.06-.08,.02-.03,.04-.05,.06-.08,.02-.03,.04-.05,.06-.08,.02-.03,.04-.06,.06-.08,.02-.03,.04-.05,.05-.08,.02-.03,.03-.06,.05-.09,.02-.03,.03-.05,.05-.08,.02-.03,.03-.06,.05-.09,.01-.03,.03-.06,.04-.08,.02-.03,.03-.06,.05-.1,.01-.03,.03-.06,.04-.08,.01-.03,.03-.07,.04-.1,.01-.03,.02-.06,.03-.08,.01-.04,.03-.07,.04-.11,0-.03,.02-.05,.03-.08,.01-.04,.02-.08,.03-.12,0-.03,.02-.05,.02-.08,.01-.04,.02-.09,.03-.13,0-.02,.01-.04,.02-.07,.01-.07,.03-.13,.04-.2,.01-.07,.02-.13,.03-.2,0-.02,0-.04,0-.06Z"/>
            </g>
            <g class="cls-5">
              <path class="cls-2" d="M40.7,8.84c.31-2.22,2.38-3.8,4.6-3.52,1.3,.17,2.38,.92,3.01,1.96-.59-1.2-1.75-2.1-3.18-2.28-2.23-.29-4.29,1.29-4.6,3.52-.14,.97,.08,1.91,.55,2.69-.35-.71-.49-1.53-.37-2.37Z"/>
            </g>
            <path class="cls-2" d="M43.32,7.5h0c.48-.35,1.14-.18,1.5,.3l.06,.07,.07-.06c.48-.35,1.16-.33,1.52,.15h0c.35,.48,.26,1.15-.22,1.51l-.07,.06-1.5,1.12c-.13,.09-.3,.07-.4-.06l-1.12-1.5-.06-.07c-.35-.48-.26-1.15,.22-1.51Z"/>
          </g>
        </g>
      </g>
    </g>
  </g>
</svg>