<?xml version="1.0" encoding="UTF-8"?>
<svg xmlns="http://www.w3.org/2000/svg" xmlns:xlink="http://www.w3.org/1999/xlink" viewBox="0 0 64 64">
  <defs>
    <style>
      .cls-1 {
        fill: url(#linear-gradient-2);
      }

      .cls-2 {
        fill: #e08122;
      }

      .cls-2, .cls-3, .cls-4, .cls-5, .cls-6, .cls-7, .cls-8, .cls-9, .cls-10, .cls-11, .cls-12, .cls-13, .cls-14, .cls-15, .cls-16, .cls-17, .cls-18, .cls-19 {
        fill-rule: evenodd;
      }

      .cls-3 {
        fill: #f9b229;
      }

      .cls-4 {
        fill: #fcd8a9;
      }

      .cls-5 {
        fill: #cccde1;
      }

      .cls-20 {
        fill: #d9ff7e;
      }

      .cls-20, .cls-21, .cls-22 {
        mix-blend-mode: overlay;
      }

      .cls-20, .cls-23 {
        opacity: .5;
      }

      .cls-6, .cls-23 {
        fill: #fff;
      }

      .cls-21 {
        fill: #8c8587;
      }

      .cls-7 {
        fill: #e1d1de;
      }

      .cls-24 {
        isolation: isolate;
      }

      .cls-25, .cls-26 {
        fill: #2b2829;
      }

      .cls-25, .cls-27 {
        mix-blend-mode: screen;
      }

      .cls-28 {
        fill: #dcc2a7;
      }

      .cls-8 {
        fill: #fddda8;
      }

      .cls-9 {
        fill: #f59f27;
      }

      .cls-10 {
        fill: #fae094;
      }

      .cls-11 {
        fill: #f0be00;
      }

      .cls-12 {
        fill: #622247;
      }

      .cls-29 {
        opacity: .3;
      }

      .cls-13 {
        fill: #e25493;
      }

      .cls-14 {
        fill: #e4291a;
      }

      .cls-15 {
        fill: #d71b16;
      }

      .cls-16 {
        fill: #d98d15;
      }

      .cls-17 {
        fill: #de8121;
      }

      .cls-18 {
        fill: #c11b1c;
      }

      .cls-30 {
        fill: url(#linear-gradient);
      }

      .cls-31 {
        fill: #8dc63f;
      }

      .cls-31, .cls-32 {
        mix-blend-mode: multiply;
      }

      .cls-32 {
        fill: #a3bf5f;
      }

      .cls-19 {
        fill: #d08945;
      }

      .cls-22 {
        fill: #998a8e;
      }
    </style>
    <linearGradient id="linear-gradient" x1="64" y1="34.03" x2="5.45" y2="34.03" gradientUnits="userSpaceOnUse">
      <stop offset="0" stop-color="#cf965b"/>
      <stop offset=".25" stop-color="#ca9257"/>
      <stop offset=".51" stop-color="#be864c"/>
      <stop offset=".78" stop-color="#a9733a"/>
      <stop offset="1" stop-color="#925d26"/>
    </linearGradient>
    <linearGradient id="linear-gradient-2" x1="61.28" y1="31.49" x2="1.36" y2="31.49" gradientUnits="userSpaceOnUse">
      <stop offset="0" stop-color="#e8b886"/>
      <stop offset=".25" stop-color="#e3b482"/>
      <stop offset=".5" stop-color="#d7a877"/>
      <stop offset=".76" stop-color="#c29464"/>
      <stop offset="1" stop-color="#a97c4e"/>
    </linearGradient>
  </defs>
  <g class="cls-24">
    <g id="_Слой_2" data-name="Слой 2">
      <g id="_Слой_1-2" data-name="Слой 1">
        <g>
          <g>
            <path class="cls-30" d="M60.49,6.68c-1.75-1.6-4.41-2.62-7.38-2.62H14.98c-5.26,0-9.53,3.19-9.53,7.11V55.87c0,2.22,1.37,4.2,3.51,5.51,1.75,1.6,4.41,2.62,7.38,2.62H54.47c5.26,0,9.53-3.19,9.53-7.11V12.19c0-2.22-1.37-4.2-3.51-5.51Z"/>
            <path class="cls-1" d="M57.77,4.65c-.41-.37-.86-.71-1.36-1.02-1.75-1.6-4.41-2.62-7.38-2.62H10.89C5.64,1.02,1.36,4.21,1.36,8.13V52.83c0,2.22,1.37,4.2,3.51,5.51,.41,.37,.86,.71,1.36,1.02,1.75,1.6,4.41,2.62,7.38,2.62H51.74c5.26,0,9.53-3.19,9.53-7.11V10.16c0-2.22-1.37-4.2-3.51-5.51Z"/>
            <path class="cls-28" d="M47.66,0H9.53C4.28,0,0,3.19,0,7.11V51.81c0,3.92,4.28,7.11,9.53,7.11H47.66c5.26,0,9.53-3.19,9.53-7.11V7.11c0-3.92-4.28-7.11-9.53-7.11Z"/>
          </g>
          <path class="cls-22" d="M5.89,14.33c-.01-2.85,.17-6.06,2.96-8,2.12-1.47,5.21-1.81,8.09-1.99,6.68-.42,13.42-.36,20.09,.18,3.3,.26,6.79,.71,9.28,2.36,3.69,2.45,3.93,6.61,3.9,10.29-.08,9.24-.15,18.48-.23,27.72-.02,2.2-.08,4.51-1.54,6.42-1.54,2-4.45,3.25-7.46,3.8-3.01,.55-6.15,.48-9.24,.41-5.15-.12-10.31-.24-15.43-.71-2.79-.26-9.22-.18-10.19-2.65-.66-1.68-.07-4.15-.07-5.9,0-2.02-.02-4.03-.03-6.05-.02-4.03-.04-8.06-.06-12.1-.02-4.59-.04-9.18-.07-13.78Z"/>
          <path class="cls-22" d="M20.65,20.31c-3.25-.39-6.54-1.19-8.94-2.87-2.39-1.69-3.67-4.43-2.38-6.69,.89-1.57,2.87-2.69,5.01-3.3,2.14-.61,4.45-.77,6.74-.89,5.74-.3,11.52-.39,17.22,.17,2.22,.22,4.55,.57,6.21,1.7,2.93,1.99,2.55,5.66,.4,8.14-5.33,6.17-16.02,4.75-24.26,3.75Z"/>
          <path class="cls-25" d="M9.75,46.11c-.57-1.77-.49-3.61-.4-5.43,.37-7.55,.74-15.09,1.11-22.64,.14-2.75,.39-5.74,2.81-7.82,2.2-1.89,5.7-2.58,9.03-2.93,4.04-.42,8.14-.47,12.2-.14,3.7,.3,7.69,1.06,9.9,3.3,1.87,1.9,2.03,4.41,2.12,6.77,.33,9.07,.66,18.2-1.13,27.18-.4,1.99-1,4.12-2.97,5.5-2.25,1.58-5.63,1.75-8.72,1.75-5.06,0-10.12-.25-15.13-.73-4.65-.45-7.58-.99-8.81-4.8Z"/>
          <path class="cls-31" d="M47.66,1.02h-1.63c4.51,0,8.17,2.73,8.17,6.1V51.81c0,3.37-3.66,6.1-8.17,6.1h1.63c4.51,0,8.17-2.73,8.17-6.1V7.11c0-3.37-3.66-6.1-8.17-6.1Z"/>
          <path class="cls-20" d="M44.83,56.21c2.15-.26,4.29-1.07,5.39-2.47,.86-1.09,1-2.4,1.05-3.66,.05-1.24,.02-2.47-.08-3.71-.07-.81-.31-1.78-1.32-2.08-.75-.23-1.65,.04-2.16,.52-.51,.47-.69,1.1-.74,1.7-.11,1.25,.25,2.52-.08,3.75-.39,1.42-1.68,2.63-3.23,3.51-1.13,.64-4.12,1.25-4.5,2.21,1.43,.58,4.04,.42,5.67,.23Z"/>
          <path class="cls-21" d="M3.88,2.71c-1.55,1.11-2.52,2.67-2.52,4.4v26.08c12.35-3.44,32.73-4.39,54.47,14.33v-14.97C26.86,28.05,11.39,13.17,3.88,2.71Z"/>
          <path class="cls-23" d="M3.58,9.23c.26-1.79,1.27-3.6,3.21-4.67,2.66-1.47,6.31-1.25,9.61-.96,1.02,.09,2.32,.39,2.36,1.15,.03,.67-.97,1.08-1.84,1.21-2.2,.34-4.63-.04-6.59,.77-1.42,.58-2.33,1.69-2.8,2.85s-.56,2.38-.73,3.58c-.07,.46-.15,.93-.44,1.34-1.08,1.49-2.05,.48-2.43-.37-.6-1.35-.53-3.5-.32-4.91Z"/>
          <g class="cls-27">
            <ellipse class="cls-26" cx="32.66" cy="10.91" rx="4.07" ry="3.03"/>
            <path class="cls-26" d="M43.37,11.71c.45,.84-.09,1.78-1.21,2.12-1.12,.34-2.39-.07-2.84-.91-.45-.84,.09-1.78,1.21-2.12,1.12-.34,2.39,.07,2.84,.91Z"/>
            <path class="cls-26" d="M40.11,16.13c.37,.7-.08,1.49-1.01,1.77-.93,.28-1.99-.06-2.37-.76-.37-.7,.08-1.49,1.01-1.77,.93-.28,1.99,.06,2.37,.76Z"/>
          </g>
          <g class="cls-27">
            <path class="cls-26" d="M23.64,45.38c.8,1.49-.17,3.17-2.16,3.77-1.99,.6-4.25-.13-5.05-1.61-.8-1.49,.17-3.17,2.16-3.77,1.99-.6,4.25,.13,5.05,1.61Z"/>
            <path class="cls-26" d="M20.79,40.39c.22,.41-.05,.87-.59,1.03-.54,.16-1.16-.03-1.38-.44-.22-.41,.05-.87,.59-1.03,.54-.16,1.16,.03,1.38,.44Z"/>
            <path class="cls-26" d="M15.3,41.5c.45,.84-.09,1.78-1.21,2.12-1.12,.34-2.39-.07-2.84-.91-.45-.84,.09-1.78,1.21-2.12,1.12-.34,2.39,.07,2.84,.91Z"/>
          </g>
          <g class="cls-29">
            <path class="cls-32" d="M51.02,35.95c.79,1.47-.17,3.15-2.14,3.74-1.98,.59-4.22-.12-5.01-1.6-.79-1.47,.17-3.15,2.14-3.74,1.98-.59,4.22,.12,5.01,1.6Z"/>
            <path class="cls-32" d="M53.92,29.6c.58,1.08-.12,2.3-1.57,2.74-1.45,.43-3.09-.09-3.67-1.17-.58-1.08,.12-2.3,1.57-2.74,1.45-.43,3.09,.09,3.67,1.17Z"/>
            <path class="cls-32" d="M45.56,30.99c.37,.7-.08,1.49-1.01,1.77-.93,.28-1.99-.06-2.37-.75-.37-.7,.08-1.49,1.01-1.77,.93-.28,1.99,.06,2.37,.76Z"/>
            <path class="cls-32" d="M10.65,25.55c.41,.75-.09,1.61-1.1,1.92-1.01,.3-2.16-.06-2.57-.82-.41-.75,.09-1.61,1.1-1.92,1.01-.3,2.16,.06,2.57,.82Z"/>
            <path class="cls-32" d="M11.29,21.09c.21,.39-.04,.84-.57,1-.53,.16-1.13-.03-1.34-.43-.21-.39,.04-.84,.57-1,.53-.16,1.13,.03,1.34,.43Z"/>
            <path class="cls-32" d="M6.59,20.15c.34,.63-.07,1.34-.91,1.59-.84,.25-1.79-.05-2.13-.68-.34-.63,.07-1.34,.91-1.59,.84-.25,1.79,.05,2.13,.68Z"/>
          </g>
        </g>
      </g>
      <g id="_Слой_7" data-name="Слой 7">
        <g>
          <g>
            <path class="cls-9" d="M37.46,38.1s5.53-2.14,8.15-6.83c3.27-5.85-1.7-6.89-6.59-4.15-1.62,.91-3.63,2.41-5.8,4.92l4.24,6.06Z"/>
            <path class="cls-6" d="M45,30.46c-2.22,.53-4.07-.96-3.93-3,0,0,.06-.53-.73-.61,.15-.07,.3-.13,.46-.19,.37-.14,.73-.26,1.08-.36,.82-.22,1.58-.31,2.24-.27,.63,.04,1.16,.21,1.54,.51,.37,.29,.59,.7,.65,1.25,.07,.73-.16,1.7-.78,2.92-.08-.16-.24-.29-.53-.25Z"/>
            <path class="cls-12" d="M37.59,38.42s5.64-2.18,8.32-6.98c.86-1.53,1.17-2.77,1.08-3.71-.07-.75-.4-1.32-.9-1.72-.49-.39-1.15-.6-1.92-.65-1.48-.1-3.4,.41-5.31,1.47-.89,.5-1.9,1.18-2.99,2.11-.92,.78-1.89,1.73-2.9,2.89l-.17,.2,4.54,6.5,.25-.1h0Zm7.73-7.3c-2.24,4.01-6.66,6.11-7.74,6.57l-3.93-5.62c.92-1.04,1.81-1.91,2.65-2.62,1.05-.89,2.03-1.55,2.89-2.03,1.79-1,3.57-1.48,4.93-1.39,.63,.04,1.16,.21,1.54,.51,.37,.29,.59,.7,.65,1.25,.08,.81-.21,1.91-.99,3.32Z"/>
          </g>
          <path class="cls-9" d="M35.68,27.03h-15.48s-2.36,4.35-3.46,8.54c-1.11,4.24-.21,10.55,2.71,13.74-.92,.41-1.09,.97-.83,1.5,.94,1.93,4.2,2.25,5.92,.98,1.54-1.13,2.35-3.3,2.26-5.14,.74,.12,1.5,.12,2.25,0-.08,1.84,.72,4.01,2.26,5.14,1.73,1.27,4.98,.95,5.92-.98,.26-.54,.1-1.1-.83-1.5,2.92-3.19,3.83-9.5,2.71-13.74-1.1-4.19-3.46-8.54-3.46-8.54Z"/>
          <path class="cls-6" d="M27.94,33.36c4.01,0,7.26,2.77,7.26,6.18s-3.25,6.18-7.26,6.18-7.26-2.77-7.26-6.18,3.25-6.18,7.26-6.18Z"/>
          <path class="cls-6" d="M24.35,51.53c.69-.51,1.22-1.24,1.58-2.06,.09-.21,.18-.43,.25-.66-.62,.87-.89,.32-1.56,.08-1.09-.41-2.19-.32-2.66-.24,0,.01,0,.03,0,.04,0,.19-.15,.34-.34,.34-.48,0-3.18,.57-2.72,1.62v.03c.07,.11,.14,.23,.21,.33,.47,.63,1.26,1.02,2.14,1.16,.89,.14,1.85,.02,2.61-.35,.17-.08,.32-.18,.47-.28Z"/>
          <path class="cls-6" d="M29.94,49.46c.36,.82,.89,1.55,1.58,2.06,.15,.11,.31,.2,.47,.28,.76,.37,1.72,.49,2.61,.35,.87-.14,1.67-.53,2.14-1.16,.08-.11,.14-.22,.2-.33v-.03c.47-1.04-2.23-1.61-2.7-1.62-.19,0-.34-.15-.34-.34,0-.01,0-.03,0-.04-.47-.07-1.58-.16-2.66,.24-.66,.25-.93,.8-1.56-.08,.07,.22,.15,.44,.25,.66Z"/>
          <path class="cls-17" d="M25.14,49.14c.35,.19,.61,.27,1.04-.33,.19-.61,.29-1.24,.3-1.85-.67-.1-1.4-.25-2.26-.47,.92,.76,1.17,1.74,.92,2.65Z"/>
          <path class="cls-17" d="M29.4,46.96c0,.6,.11,1.24,.3,1.85,.44,.61,.7,.52,1.04,.33-.25-.92,0-1.9,.92-2.65-.87,.22-1.6,.38-2.26,.47Z"/>
          <path class="cls-7" d="M30.74,49.14c-.35,.19-.61,.27-1.04-.33,.07,.22,.15,.44,.25,.66,.36,.82,.89,1.55,1.58,2.06,.15,.11,.31,.2,.47,.28,.76,.37,1.72,.49,2.61,.35,.4-.06,.78-.18,1.13-.35-2.57,.35-4.56-1.06-5-2.67Z"/>
          <path class="cls-7" d="M24.35,51.53c.69-.51,1.22-1.24,1.58-2.06,.09-.21,.18-.43,.25-.66-.44,.61-.7,.52-1.04,.33-.44,1.61-2.43,3.03-5,2.67,.34,.17,.73,.28,1.13,.35,.89,.14,1.85,.02,2.61-.35,.17-.08,.32-.18,.47-.28Z"/>
          <path class="cls-12" d="M35.48,27.37h-15.07c-.11,.2-.59,1.08-.83,1.58l-.72-.05c.42-.87,.98-1.89,1.04-2,.05-.12,.17-.2,.31-.2h15.48c.12,0,.24,.07,.3,.18,0,0,.65,1.17,1.12,2.14l-.7,.08c-.24-.5-.81-1.52-.92-1.73h0Zm-18.8,7.2c.06-.18,.25-.28,.42-.22,.18,.06,.28,.25,.22,.42-.83,2.71-.92,5.42-.35,8.29,.44,2.24,1.3,4.34,2.56,5.82,.55-.28,1.27-.54,2.1-.55,.19,0,.34,.15,.34,.33,0,.19-.15,.34-.34,.34-.48,0-3.18,.57-2.72,1.62v.03c.07,.11,.14,.23,.21,.33,.47,.63,1.26,1.02,2.14,1.16,.89,.14,1.85,.02,2.61-.35,.17-.08,.32-.18,.47-.28,.69-.51,1.22-1.24,1.58-2.06,.35-.8,.54-1.68,.55-2.5-.89-.13-1.89-.37-3.19-.72-.18-.05-.29-.23-.24-.41,.05-.18,.23-.29,.41-.24,3.75,1.02,5.19,1.02,8.94,0,.18-.05,.37,.06,.41,.24,.05,.18-.06,.36-.24,.41-1.3,.35-2.3,.59-3.19,.72,0,.83,.19,1.7,.55,2.5,.36,.82,.89,1.55,1.58,2.06,.15,.11,.31,.2,.47,.28,.76,.37,1.72,.49,2.61,.35,.87-.14,1.67-.53,2.14-1.16,.08-.11,.14-.22,.2-.33v-.03c.47-1.04-2.23-1.61-2.7-1.62-.19,0-.34-.15-.34-.34,0-.19,.16-.34,.34-.33,.83,0,1.55,.27,2.1,.55,1.26-1.48,2.11-3.58,2.56-5.82,.57-2.87,.48-5.58-.35-8.29-.06-.18,.04-.37,.22-.42,.18-.06,.37,.04,.42,.22,.89,2.78,.93,5.77,.37,8.62-.45,2.29-1.32,4.45-2.61,6.02,.32,.2,.52,.43,.64,.67,.16,.34,.14,.68-.01,1.02l-.03,.06c-.08,.16-.16,.3-.26,.43-.58,.79-1.54,1.26-2.57,1.43-1.02,.16-2.12,.02-3.02-.41-.2-.1-.4-.22-.57-.35-.79-.58-1.4-1.41-1.81-2.33-.38-.86-.58-1.8-.6-2.7-.26,.03-.52,.04-.78,.04s-.52-.01-.78-.04c-.02,.89-.22,1.84-.6,2.7-.41,.92-1.01,1.75-1.8,2.33-.18,.13-.37,.24-.57,.35-.89,.44-2,.57-3.02,.41-1.04-.17-2-.64-2.57-1.43-.1-.13-.19-.28-.26-.43l-.03-.06c-.15-.34-.17-.68-.01-1.02,.11-.24,.32-.47,.63-.67-1.29-1.56-2.16-3.73-2.61-6.02-.56-2.85-.52-5.84,.37-8.62Z"/>
          <g>
            <path class="cls-9" d="M33.02,9.62s2.72-2.31,5.31-2.14c4.41,.29,2.45,6.34,.36,8.5,0,0,.22,1.27,1.55,2.7,1.4,1.5,3.18,5.04,1.05,8.18-4.36,6.43-22.33,6.43-26.7,0-2.13-3.14-.35-6.68,1.05-8.18,1.33-1.43,1.55-2.7,1.55-2.7-2.09-2.16-4.04-8.21,.36-8.5,2.59-.17,5.31,2.14,5.31,2.14,.69-.34,1.48-.59,2.33-.77-.13-.24-.2-.43-.2-.43-.59-1.49,1.39-.38,1.39-.38-1.03-.62-.57-2.18,1.32-.28-1.88-1.9,1.59-2.52,3.34,1.16,.72,.17,1.39,.4,1.99,.69Z"/>
            <g>
              <path class="cls-6" d="M40.07,20.82c.93,.5,1.55,1.25,1.85,1.67h0s0,.02,0,.02c.01,.07,.02,.14,.04,.21,.01,.07,.02,.14,.03,.21,.08,.65,.07,1.32-.09,2-.14,.61-.4,1.22-.8,1.81-.25,.36-.54,.71-.87,1.03-.34,.33-.73,.64-1.15,.93-1.32,.89-2.99,1.57-4.84,2.03-1.96,.49-4.12,.73-6.29,.73s-4.33-.24-6.28-.73c-1.85-.46-3.53-1.14-4.84-2.03-.42-.29-.81-.6-1.15-.93-.33-.32-.63-.66-.87-1.03-.4-.59-.66-1.21-.8-1.81-.16-.68-.18-1.35-.09-2,0-.07,.02-.14,.03-.21,.01-.07,.02-.14,.04-.21h0s0-.02,0-.02c.29-.41,.92-1.17,1.85-1.67,.6-.32,1.32-.54,2.17-.5,.95,.05,1.73,.47,2.43,.85,.94,.51,1.74,.94,2.62,.3,.47-.34,.75-.95,1.05-1.59,1.65-3.57,6.06-3.57,7.71,0,.3,.64,.58,1.25,1.05,1.59,.89,.64,1.69,.21,2.62-.3,.7-.38,1.48-.8,2.44-.85,.85-.04,1.57,.18,2.17,.5Z"/>
              <path class="cls-2" d="M17.16,15.54c.38-.92,1.37-2.73,3.73-4.21,1.8-1.13-3.69-3.21-5.34-2.51-.17,.29-.28,.63-.34,1-.11,.75,0,1.63,.26,2.5,.36,1.23,1,2.43,1.68,3.23Z"/>
              <path class="cls-2" d="M34.98,11.33c2.36,1.48,3.36,3.3,3.73,4.21,.68-.8,1.32-2,1.68-3.23,.26-.87,.37-1.75,.26-2.5-.05-.37-.16-.71-.34-1-1.66-.69-7.14,1.39-5.34,2.51Z"/>
              <path class="cls-13" d="M35.77,11.77c3.45-3.79,5.2-2.27,1.82,1.97-.43-.78-.99-1.47-1.82-1.97Z"/>
              <path class="cls-13" d="M20.11,11.77c-3.45-3.79-5.2-2.27-1.83,1.97,.43-.78,.99-1.47,1.83-1.97Z"/>
              <path class="cls-4" d="M27.94,7c.85-.01,2.36,1.97,2.56,2.46,0,0,1.66,.29,2.39,1.03,0,0,4.77-4.03,7.43-1.7-.16-.27-.38-.49-.67-.66-.34-.21-.79-.34-1.34-.38-2.41-.16-4.96,1.94-5.11,2.07-.08,.07-.2,.09-.3,.04-.28-.14-.59-.26-.91-.38-.32-.11-.67-.21-1.02-.3-.08-.02-.15-.07-.19-.15-.75-1.58-1.81-2.32-2.58-2.49-.25-.05-.45-.05-.59,0-.1,.04-.16,.1-.18,.18-.02,.11,.03,.24,.1,.37,.14-.07,.28-.11,.41-.11Z"/>
              <path class="cls-4" d="M25.81,9.41s-.21-.14-.41-.39c-.04,.05-.1,.09-.17,.11-.41,.08-.82,.19-1.21,.32-.38,.12-.73,.27-1.06,.43-.09,.05-.21,.04-.3-.04,0,0-2.64-2.24-5.12-2.07-.56,.04-1,.17-1.34,.38-.28,.17-.5,.4-.66,.66,2.66-2.33,7.43,1.7,7.43,1.7,.73-.74,2.83-1.09,2.83-1.09Z"/>
              <path class="cls-4" d="M25.22,8.28c.18-.25,1.23,.61,1.39-.1-.07,.13-.24,.18-.37,.11,0,0-1.25-.69-1.02,0Z"/>
              <path class="cls-4" d="M26.11,7.26c0,.09,.04,.19,.11,.29,.48-.48,1.18,1.02,1.74,.44,0,0,0,0,0,0-.23,.17-.55-.12-.71-.27-.48-.44-.82-.6-1.03-.6-.05,0-.08,.01-.09,.03-.02,.02-.02,.06-.02,.11h0Z"/>
              <path class="cls-17" d="M16.44,19.14c1.69-1.88,1.18-3.01,1.04-3.24,0,.02-.01,.05-.02,.07,0,.02,0,.05,0,.07,0,0-.24,1.35-1.62,2.83-.71,.76-1.52,2.06-1.83,3.56,.19-.26,.5-.64,.92-.99,.3-.74,.8-1.5,1.51-2.29Z"/>
              <path class="cls-17" d="M39.44,19.14c.72,.79,1.21,1.55,1.51,2.29,.42,.36,.72,.73,.92,.99-.31-1.5-1.12-2.8-1.83-3.56-1.38-1.48-1.62-2.83-1.62-2.83,0-.02,0-.05,0-.07,0-.02,0-.04-.01-.07-.14,.23-.65,1.37,1.04,3.24Z"/>
              <path class="cls-7" d="M40.95,21.43c4.84,11.83-30.87,11.83-26.03,0-.42,.36-.72,.73-.92,.99-.03,.16-.06,.33-.08,.5-.16,1.22,.04,2.53,.89,3.79,.5,.73,1.19,1.38,2.01,1.95,2.7,1.83,6.9,2.75,11.11,2.75s8.41-.92,11.11-2.75c.83-.56,1.52-1.21,2.02-1.95,.85-1.25,1.05-2.57,.89-3.79-.02-.17-.05-.33-.08-.5-.19-.26-.5-.64-.92-.99Z"/>
              <g>
                <path class="cls-12" d="M31.46,17.19c0-.4,.1-.74,.26-1.02,.67-1.2,2.48-1.36,3.55-.51,1.4,1.1,.97,3.59,.7,2.76-1.04-2.35-3.47-1.76-4.51-1.22Z"/>
                <path class="cls-12" d="M24.42,17.19c0-.4-.1-.74-.26-1.02-.67-1.2-2.48-1.36-3.55-.51-1.4,1.1-.97,3.59-.7,2.76,1.04-2.35,3.47-1.76,4.51-1.22Z"/>
              </g>
              <path class="cls-12" d="M32.97,9.24c.32-.25,1.06-.79,2.01-1.26,.98-.49,2.18-.9,3.37-.82,.32,.02,.61,.07,.88,.15,.28,.08,.52,.19,.74,.32,.37,.23,.66,.52,.87,.86,.22,.37,.36,.79,.43,1.25,.06,.41,.06,.84,.02,1.29-.05,.48-.16,.97-.3,1.46-.2,.69-.49,1.37-.82,1.98-.34,.62-.72,1.18-1.11,1.61,.05,.18,.16,.49,.37,.89,.22,.42,.56,.94,1.06,1.49,.47,.5,.98,1.22,1.38,2.07,.33,.7,.59,1.49,.69,2.32,.09,.71,.07,1.45-.1,2.2-.16,.67-.44,1.34-.89,2-.27,.4-.58,.77-.94,1.11-.37,.36-.78,.69-1.24,1-1.36,.93-3.09,1.63-4.99,2.1-2.02,.5-4.23,.75-6.45,.75s-4.43-.25-6.45-.75c-1.91-.48-3.63-1.18-5-2.1-.45-.31-.87-.64-1.23-1-.36-.35-.68-.72-.94-1.11-.45-.66-.73-1.33-.89-2-.18-.75-.19-1.49-.1-2.2,.11-.83,.37-1.62,.69-2.32,.4-.85,.91-1.57,1.38-2.07,.51-.55,.85-1.06,1.07-1.49,.21-.4,.32-.71,.36-.89-.39-.43-.77-.99-1.11-1.61-.33-.62-.62-1.3-.82-1.98-.14-.49-.25-.98-.3-1.46-.05-.45-.05-.89,.01-1.29,.07-.46,.21-.88,.43-1.25,.21-.34,.49-.63,.86-.86,.22-.13,.46-.24,.74-.32,.26-.08,.56-.13,.88-.15,1.19-.08,2.39,.33,3.37,.82,.95,.47,1.69,1.02,2.01,1.26,.14-.07,.29-.13,.44-.19,.16-.06,.33-.12,.5-.18,.15-.05,.3-.09,.45-.14h0c.14-.04,.27-.07,.41-.11-.02-.04-.03-.07-.03-.08v-.02c-.27-.67-.21-1.01,0-1.17,.19-.14,.51-.12,.83-.03v-.03c0-.1,0-.2,.03-.29,.03-.09,.07-.17,.13-.24,.06-.08,.14-.14,.24-.18,.09-.04,.19-.06,.31-.06,.1,0,.21,.02,.33,.05,.09,.03,.19,.07,.29,.12v-.04c.03-.15,.09-.29,.19-.4,.1-.11,.22-.2,.38-.26,.13-.05,.28-.08,.44-.08,.15,0,.32,.01,.5,.05,.49,.11,1.08,.4,1.64,.92,.46,.42,.91,1,1.29,1.76,.16,.04,.31,.08,.46,.13,.16,.05,.31,.1,.47,.15,.14,.05,.28,.1,.41,.16,.13,.05,.25,.1,.37,.16h0Zm5.33-1.42c-1.19-.08-2.42,.4-3.37,.92-.95,.52-1.62,1.07-1.7,1.13-.05,.04-.11,.07-.17,.08-.07,0-.13,0-.19-.03h0c-.14-.07-.28-.13-.43-.2-.15-.06-.31-.12-.47-.18-.16-.06-.32-.11-.49-.16-.17-.05-.34-.09-.52-.14-.05-.01-.09-.03-.13-.06h0s-.07-.07-.09-.12c-.33-.71-.73-1.24-1.14-1.63-.49-.47-.99-.73-1.4-.82-.12-.03-.23-.04-.32-.04-.1,0-.18,.02-.24,.04-.04,.02-.08,.04-.1,.06-.02,.02-.04,.05-.04,.08-.03,.19,.16,.44,.32,.65h0c.04,.05,.08,.1,.1,.14,.15,.2,.23,.37,.08,.48-.27,.19-.6-.11-.77-.27h0c-.22-.21-.41-.35-.57-.44-.18-.1-.32-.14-.42-.14-.02,0-.03,0-.04,0,0,0,0,0,0,0,0,0,0,0,0,.02h0s0,.03,0,.05h0c0,.08,.04,.18,.11,.27,.06,.09,.15,.17,.27,.24,.08,.05,.13,.12,.15,.2,.02,.08,.01,.17-.03,.24-.04,.08-.12,.14-.2,.16-.08,.02-.17,.02-.25-.03h0s-.69-.38-.91-.29c-.06,.02-.08,.1-.01,.26v.02s.08,.18,.19,.39h0s.01,.03,.02,.05h0s0,.03,.01,.05c.02,.09,0,.18-.05,.25-.05,.07-.12,.12-.21,.14-.21,.04-.41,.09-.61,.14-.2,.05-.39,.11-.59,.17-.19,.06-.37,.13-.55,.2-.17,.07-.34,.15-.5,.22-.06,.03-.12,.04-.19,.03-.06,0-.12-.03-.17-.08h0s-2.63-2.22-5.07-2.06c-.27,.02-.51,.06-.73,.12-.23,.06-.42,.15-.59,.25-.28,.17-.49,.39-.65,.66-.17,.29-.28,.62-.33,.98-.05,.36-.05,.75,0,1.15,.05,.43,.14,.88,.27,1.33,.2,.67,.48,1.33,.8,1.92,.33,.61,.71,1.14,1.09,1.53,.04,.04,.07,.08,.08,.14,.02,.05,.02,.1,0,.16h0c-.01,.08-.28,1.4-1.63,2.86-.43,.46-.89,1.12-1.26,1.9-.3,.64-.54,1.36-.64,2.12-.08,.64-.07,1.3,.09,1.97,.14,.6,.39,1.2,.79,1.78,.24,.36,.53,.7,.86,1.01,.34,.33,.72,.63,1.14,.92,1.31,.89,2.97,1.56,4.81,2.02,1.95,.48,4.11,.73,6.26,.73s4.31-.24,6.27-.73c1.84-.46,3.5-1.13,4.81-2.02,.42-.29,.8-.59,1.14-.92,.33-.32,.62-.66,.86-1.01,.4-.59,.65-1.18,.79-1.78,.16-.67,.17-1.33,.09-1.97-.1-.76-.34-1.48-.64-2.12-.37-.78-.83-1.44-1.26-1.9-1.39-1.49-1.63-2.84-1.63-2.86-.01-.05,0-.11,0-.16,.01-.05,.04-.1,.08-.13,.38-.4,.76-.93,1.09-1.53,.32-.59,.61-1.25,.8-1.92,.13-.45,.22-.89,.27-1.33,.04-.4,.04-.79,0-1.15-.05-.36-.16-.7-.33-.98-.16-.26-.37-.49-.65-.66-.17-.1-.37-.19-.59-.25-.22-.06-.46-.1-.73-.12Z"/>
              <path class="cls-12" d="M17.18,9.3c.75,.11,1.87,.82,3.17,2.26,0,0,.01,.02,.02,.02,0,0,.01,.02,.02,.03,.05,.08,.06,.16,.04,.24-.02,.08-.07,.15-.14,.2-.2,.12-.37,.24-.54,.38-.16,.14-.32,.28-.45,.44-.14,.16-.27,.32-.39,.49-.12,.17-.23,.35-.33,.54,0,.02-.02,.03-.03,.04-.04,.06-.27,.38-.5,.79-.23,.41-.47,.9-.55,1.31-.02,.09-.06,.16-.13,.21-.07,.05-.15,.07-.23,.05h0c-.09-.02-.16-.06-.2-.13-.05-.07-.07-.15-.05-.24,.06-.32,.19-.66,.35-.99,.23-.49,.52-.94,.68-1.18-1.24-1.59-1.75-2.84-1.73-3.6,0-.32,.11-.56,.28-.7,.18-.15,.43-.2,.74-.16h0Zm1.15,1.28c-.52-.39-1.08-.7-1.48-.65-.06,.16-.12,.54,.2,1.3,.21,.49,.58,1.13,1.2,1.96,.08-.12,.16-.24,.24-.35,.1-.13,.2-.26,.32-.39,.12-.14,.26-.27,.4-.4,.13-.11,.27-.22,.41-.33-.29-.29-.77-.75-1.29-1.14Z"/>
              <path class="cls-12" d="M35.53,11.56c1.29-1.44,2.42-2.15,3.17-2.26,.31-.05,.56,0,.74,.16,.18,.15,.28,.38,.28,.7,.02,.76-.49,2.01-1.73,3.6,.16,.25,.45,.7,.68,1.18,.16,.33,.29,.67,.35,.99,.01,.09,0,.17-.05,.24-.05,.07-.12,.12-.21,.13h0c-.08,.02-.17,0-.23-.05-.07-.05-.11-.12-.13-.21h0c-.08-.41-.32-.91-.55-1.31-.23-.41-.46-.73-.5-.79-.01-.02-.02-.02-.03-.04-.1-.19-.21-.37-.33-.54-.12-.17-.25-.34-.39-.49-.14-.15-.29-.3-.45-.44-.16-.14-.34-.26-.54-.38-.08-.05-.13-.12-.15-.2-.02-.08,0-.17,.04-.24h0s.01-.02,.02-.03c0,0,.01-.02,.02-.02h0Zm3.5-1.63c-.4-.05-.96,.26-1.48,.65-.52,.39-1,.85-1.29,1.14,.14,.1,.28,.21,.41,.33,.14,.13,.27,.26,.4,.4,.11,.13,.22,.25,.32,.39,.08,.11,.17,.23,.24,.35,.63-.83,.99-1.47,1.2-1.96,.32-.76,.26-1.14,.2-1.3Z"/>
            </g>
          </g>
          <g>
            <path class="cls-19" d="M27.94,33.36c-2.15,0-4.09,.8-5.42,2.07,1.01,.34,1.75,.81,3.43,.95,.58,.05,1.25,.06,1.99,0,.74,.05,1.41,.04,1.99,0,1.68-.14,2.42-.61,3.43-.95-1.33-1.27-3.27-2.07-5.42-2.07Z"/>
            <g>
              <path class="cls-3" d="M24.35,25.54l18.77,5.5c1.14,.33,1.71-1.78,.55-2.06l-19.01-4.63c-.51-.13-.83,1.05-.32,1.19Z"/>
              <path class="cls-8" d="M24.38,24.89l19.01,4.63c.39,.1,.59,.4,.63,.75,.01-.03,.02-.06,.03-.09,.04-.13,.05-.26,.04-.39-.02-.27-.16-.52-.46-.59l-19.01-4.63c-.06-.02-.13,.05-.19,.14-.03,.05-.05,.11-.07,.17,0,0,.01,0,.02,0Z"/>
              <path class="cls-16" d="M24.28,25.13c0,.13,0,.31,.07,.33l18.81,5.46c.29,.09,.55-.1,.72-.39,.01-.02,.02-.03,.03-.05-.94,.39-19.61-5.71-19.63-5.35Z"/>
              <g>
                <path class="cls-12" d="M41.34,30.49l-.86-.27,.02-.06c.05-.13,.11-.27,.15-.42,.05-.14,.09-.29,.13-.44,.04-.15,.07-.3,.1-.45,.03-.15,.06-.3,.08-.44v-.06s.92,.21,.92,.21v.05c-.03,.15-.05,.31-.09,.47-.03,.16-.07,.31-.11,.47-.04,.16-.09,.32-.14,.47-.05,.15-.11,.3-.16,.44l-.02,.04h-.03Z"/>
                <path class="cls-12" d="M40.42,28.73c-.03,.15-.06,.3-.1,.45-.04,.15-.08,.3-.13,.44-.05,.15-.1,.29-.16,.42l-.02,.04-.51-.16,.02-.06c.05-.13,.1-.26,.15-.4,.04-.14,.09-.28,.13-.42,.04-.15,.07-.29,.1-.43,.03-.14,.05-.29,.07-.42v-.07s.53,.12,.53,.12v.05c-.02,.14-.05,.29-.08,.44Z"/>
              </g>
              <path class="cls-12" d="M24.42,25.32l18.78,5.5c.29,.08,.53-.06,.69-.28,.07-.1,.13-.23,.16-.36,.04-.13,.05-.26,.04-.39-.02-.27-.16-.52-.46-.59l-19.01-4.63c-.06-.02-.13,.05-.19,.14-.03,.06-.06,.12-.08,.19-.02,.07-.03,.14-.03,.2,0,.11,.03,.2,.09,.21h0Zm18.65,5.94l-18.77-5.5c-.29-.09-.42-.35-.42-.65,0-.11,.01-.22,.04-.33,.03-.11,.07-.21,.13-.31,.15-.26,.4-.43,.69-.35l19.01,4.63c.52,.13,.77,.54,.81,1h0c.01,.18,0,.37-.05,.55-.05,.18-.13,.35-.23,.5h0c-.26,.38-.68,.61-1.2,.46Z"/>
            </g>
            <path class="cls-14" d="M15.64,31.62s-.1,7.61,6.43,10.44c3.28,1.42,8.45,1.42,11.73,0,6.53-2.82,6.43-10.44,6.43-10.44-1.8-1.98-5.03-2.69-7.81-2.9-2.32-.18-6.66-.18-8.98,0-2.78,.22-6.01,.93-7.81,2.9Z"/>
            <path class="cls-6" d="M21.48,36.24c1.99,.53,4.21,.83,6.54,.83,.32,0,.62,0,.93-.02,.31-.01,.62-.03,.92-.05,.94-.06,1.85-.18,2.73-.33,.9-.16,1.76-.37,2.58-.61,.86-.26,1.68-.56,2.44-.91,.76-.35,1.47-.73,2.11-1.16l.09-.06-.02,.1c-.03,.2-.07,.41-.12,.63-.04,.2-.09,.41-.14,.62h0s-.01,.02-.01,.02c-.61,.49-1.29,.95-2.01,1.36-.72,.41-1.49,.77-2.3,1.08-.82,.32-1.69,.58-2.59,.79-.88,.2-1.8,.35-2.74,.43-.32,.03-.64,.05-.96,.07-.32,.01-.65,.02-.97,.02-2.25,0-4.39-.35-6.33-.97-2.01-.65-3.8-1.6-5.25-2.77h-.01s0-.02,0-.02c-.06-.25-.12-.49-.16-.73-.05-.23-.08-.45-.11-.65l-.02-.1,.09,.06c1.45,.99,3.27,1.8,5.34,2.36Z"/>
            <path class="cls-12" d="M15.98,31.76c.02,1,.39,7.47,6.23,9.99,1.6,.69,3.66,1.03,5.73,1.03s4.14-.35,5.73-1.03c5.84-2.52,6.2-8.99,6.22-9.99-.75-.79-1.75-1.36-2.86-1.77-1.46-.55-3.12-.81-4.63-.93-1.15-.09-2.81-.13-4.46-.13s-3.31,.05-4.46,.13c-1.52,.12-3.17,.39-4.64,.93-1.11,.41-2.11,.98-2.86,1.77h0Zm5.96,10.61c-6.55-2.83-6.64-10.29-6.63-10.73,0-.09,.02-.18,.09-.25,.84-.92,1.96-1.58,3.21-2.04,1.54-.57,3.25-.85,4.82-.97,1.17-.09,2.85-.14,4.51-.14s3.34,.05,4.51,.14c1.57,.12,3.28,.4,4.82,.97,1.25,.46,2.37,1.12,3.21,2.04h0c.05,.06,.09,.14,.09,.23,0,.02,.11,7.83-6.63,10.75-1.69,.73-3.85,1.09-6,1.09s-4.31-.36-6-1.09Z"/>
            <path class="cls-15" d="M27.94,30c5.97,0,10.81,1.27,10.81,2.83s-4.84,2.83-10.81,2.83-10.81-1.27-10.81-2.83,4.84-2.83,10.81-2.83Z"/>
            <path class="cls-18" d="M26.33,39.01c-1.66-.13-3.25-.44-4.71-.91-1.87-.6-3.54-1.47-4.94-2.53,.75,2.21,2.31,4.79,5.52,6.18,1.6,.69,3.66,1.03,5.73,1.03,.65,0,1.3-.03,1.93-.1,1.1-.12,2.15-.33,3.08-.65-1.23,.18-2.25,.15-3.08,0-1.58-.31-2.51-1.12-3.05-1.94-.23-.35-.38-.72-.49-1.07Z"/>
            <path class="cls-5" d="M16.69,35.57c1.4,1.06,3.07,1.92,4.94,2.53,1.47,.47,3.05,.79,4.71,.91-.23-.78-.23-1.52-.34-2.02-1.59-.12-3.11-.38-4.51-.76-2.02-.54-3.8-1.33-5.24-2.29,.1,.5,.24,1.05,.44,1.63Z"/>
            <path class="cls-18" d="M21.48,36.24c1.4,.38,2.92,.64,4.51,.76-.04-.18-.1-.33-.2-.44-.5-.58-1.6-.43-3.05-.6-3.3-.39-5.51-1.71-6.6-2.51,.03,.16,.06,.33,.1,.51,1.43,.96,3.22,1.75,5.24,2.29Z"/>
            <path class="cls-12" d="M27.94,29.7c3.01,0,5.74,.32,7.72,.84,2.09,.55,3.39,1.35,3.39,2.28s-1.29,1.74-3.39,2.28c-1.98,.52-4.71,.84-7.72,.84s-5.74-.32-7.72-.84c-2.09-.55-3.39-1.35-3.39-2.28s1.29-1.73,3.39-2.28c1.98-.52,4.71-.84,7.72-.84h0Zm7.57,1.4c-1.93-.5-4.61-.82-7.57-.82s-5.64,.31-7.57,.82c-1.82,.48-2.95,1.09-2.95,1.72s1.13,1.24,2.95,1.72c1.93,.5,4.61,.82,7.57,.82s5.64-.31,7.57-.82c1.82-.48,2.95-1.09,2.95-1.72s-1.13-1.24-2.95-1.72Z"/>
            <g>
              <g>
                <path class="cls-11" d="M34.11,27.71c1.77,0,3.2,1.43,3.2,3.2s-1.43,3.2-3.2,3.2-3.2-1.43-3.2-3.2,1.43-3.2,3.2-3.2Z"/>
                <path class="cls-10" d="M33.88,28.9h.47c.23,0,.41,.18,.41,.41h0c0,.22-.18,.41-.41,.41h-.47c-.22,0-.41-.18-.41-.41h0c0-.23,.19-.41,.41-.41Z"/>
                <path class="cls-10" d="M33.88,27.91h.47c.23,0,.41,.18,.41,.41h0c0,.23-.18,.41-.41,.41h-.47c-.22,0-.41-.18-.41-.41h0c0-.22,.19-.41,.41-.41Z"/>
                <path class="cls-10" d="M33.88,29.76h.47c.23,0,.41,.18,.41,.41h0c0,.58-1.29,.58-1.29,0h0c0-.23,.19-.41,.41-.41Z"/>
                <path class="cls-12" d="M34.11,27.5c.94,0,1.8,.38,2.41,1,.62,.62,1,1.47,1,2.41s-.38,1.79-1,2.41c-.62,.62-1.47,1-2.41,1s-1.79-.38-2.41-1c-.62-.62-1-1.47-1-2.41s.38-1.79,1-2.41c.62-.62,1.47-1,2.41-1h0Zm2.11,1.3c-.54-.54-1.29-.87-2.11-.87s-1.57,.33-2.11,.87c-.54,.54-.87,1.29-.87,2.11s.33,1.57,.87,2.11c.54,.54,1.29,.87,2.11,.87s1.57-.33,2.11-.87c.54-.54,.87-1.29,.87-2.11s-.33-1.57-.87-2.11Z"/>
                <path class="cls-12" d="M34.11,28.62c.64,0,1.21,.26,1.62,.67,.41,.41,.67,.99,.67,1.62s-.26,1.21-.67,1.62c-.41,.41-.99,.67-1.62,.67s-1.21-.26-1.62-.67c-.41-.42-.67-.99-.67-1.62s.26-1.21,.67-1.62c.41-.41,.99-.67,1.62-.67h0Zm1.32,.97c-.34-.34-.8-.55-1.32-.55s-.98,.21-1.32,.55-.55,.8-.55,1.32,.21,.98,.55,1.32c.34,.34,.8,.55,1.32,.55s.98-.21,1.32-.55c.34-.34,.55-.81,.55-1.32s-.21-.98-.55-1.32Z"/>
                <path class="cls-12" d="M34.11,29.59c.37,0,.7,.15,.94,.39,.24,.24,.38,.57,.38,.93s-.15,.69-.38,.93c-.24,.24-.57,.39-.94,.39s-.69-.15-.93-.39c-.24-.24-.38-.57-.38-.93s.15-.69,.38-.93c.24-.24,.57-.39,.93-.39h0Zm.64,.69c-.16-.16-.39-.26-.64-.26s-.47,.1-.63,.26c-.16,.16-.26,.39-.26,.63s.1,.47,.26,.63c.16,.16,.39,.26,.63,.26s.47-.1,.64-.26c.16-.16,.26-.39,.26-.63s-.1-.47-.26-.63Z"/>
              </g>
              <path class="cls-11" d="M24.5,25.16c-.09-1.3,.04-2.53,.8-2.73,.15,.14,.33,.26,.53,.35,.23,.11,.49,.17,.77,.17,.42,0,.88-.14,1.34-.5,.45,.36,.91,.5,1.34,.5,.28,0,.54-.07,.77-.17,.23-.11,.43-.25,.59-.41,.06-.06,.11-.12,.16-.18,.03,.5,.45,6.99,1.63,7.95,0,0,1.39,2.27-1.19,3.76,0,0-5.74,.37-6.29-.08,.07-3.22-.22-5.56-.44-8.66Z"/>
              <path class="cls-12" d="M24.28,25.18c-.06-.89-.02-1.76,.25-2.33,.14-.29,.33-.51,.59-.61,.04,.05,.08,.09,.12,.13,.1,.1,.21,.19,.33,.27-.3,0-.51,.15-.63,.41-.23,.48-.26,1.27-.2,2.1,.05,.72,.11,1.43,.16,2.12,.17,2.11,.32,4.02,.28,6.42,.81,.3,5.45,.02,6-.02,2.17-1.28,1.22-3.14,1.09-3.39-1.14-1.03-1.58-6.61-1.67-7.86,.02-.02,.04-.04,.05-.05,.12-.12,.22-.25,.29-.39,0,0,.01,.01,.02,.02,.05,.05,.07,.1,.07,.16,.02,.34,.42,6.89,1.55,7.8,.02,.02,.04,.04,.06,.07,.09,.15,1.42,2.5-1.28,4.06-.03,.02-.07,.03-.1,.03h0s-5.82,.38-6.45-.12c-.06-.05-.09-.12-.08-.19,.05-2.43-.1-4.36-.28-6.51-.05-.67-.11-1.36-.16-2.13h0Zm3.75-2.65s-.06-.04-.08-.06c-.05,.04-.1,.08-.15,.11h0c.08,.03,.17,0,.23-.05Z"/>
              <path class="cls-10" d="M26.49,26.87c-.9-.55-1.42-.24-1.63-.05,.01,.15,.02,.3,.04,.45,.02,.2,.03,.4,.05,.6,0,.11,.02,.23,.03,.34,0,.11,.02,.23,.03,.34,0,.11,.02,.22,.02,.33,.77,.39,1.52-.35,1.52-.35,.96,.57,1.57,.04,1.76-.17,.04-.05,.06-.07,.06-.07,.03,.02,.06,.05,.09,.07,.5,.36,.92,.2,1.2-.02,.17-.13,.28-.27,.33-.34,.02-.02,.03-.04,.03-.04,.01,.01,.02,.03,.04,.04,.27,.24,.83,.21,1.3,.14,0-.04-.02-.09-.03-.13-.02-.11-.05-.22-.07-.34-.13-.63-.24-1.31-.33-1.96-.48-.08-1.15,.1-1.31,.41-1.14-.4-1.29,.36-1.29,.36-1.14-.31-1.83,.4-1.83,.4Z"/>
              <path class="cls-12" d="M26.49,22.96c.04,1.29,.19,4.81,.08,5.01-.45-.37-.52-3.97-.54-5.1,.14,.05,.3,.08,.45,.09Z"/>
              <path class="cls-12" d="M28.12,22.59c.12,1.09,.47,4.46,.19,4.67-.29-.5-.54-3.56-.64-4.61,.09-.05,.18-.12,.27-.19,.06,.05,.12,.09,.18,.13Z"/>
              <path class="cls-12" d="M29.52,22.94c.08,2.82,.61,4.2,.47,4.27-.47-.23-.76-2.87-.87-4.26,.05,0,.11,0,.16,0,.08,0,.16,0,.24-.02Z"/>
            </g>
            <g>
              <path class="cls-3" d="M24.73,23.92l19.31,3.16c1.18,.19,1.48-1.97,.3-2.11l-19.43-2.27c-.53-.06-.69,1.14-.17,1.23Z"/>
              <path class="cls-8" d="M24.67,23.27l19.43,2.27c.4,.05,.63,.33,.71,.67,0-.03,.01-.06,.02-.1,.02-.13,.02-.27-.01-.39-.05-.27-.22-.49-.52-.53l-19.43-2.27c-.06,0-.12,.06-.17,.16-.02,.05-.04,.12-.05,.18,0,0,.01,0,.02,0Z"/>
              <path class="cls-16" d="M24.61,23.53c.01,.13,.04,.31,.11,.32l19.34,3.12c.3,.05,.53-.17,.67-.48,0-.02,.02-.04,.02-.05-.88,.5-20.16-3.27-20.13-2.91Z"/>
              <g>
                <path class="cls-12" d="M42.19,26.76l-.89-.16,.02-.06c.04-.14,.07-.29,.1-.44,.03-.15,.05-.3,.08-.45,.02-.15,.04-.31,.05-.46,.01-.15,.02-.3,.02-.45v-.06s.94,.09,.94,.09v.05c0,.15-.01,.31-.02,.47-.01,.16-.03,.32-.05,.48-.02,.16-.05,.32-.08,.48-.03,.16-.07,.31-.11,.46v.05s-.04,0-.04,0Z"/>
                <path class="cls-12" d="M41.06,25.12c-.01,.15-.03,.3-.05,.46-.02,.15-.05,.3-.08,.45-.03,.15-.07,.29-.11,.44v.04s-.54-.09-.54-.09l.02-.06c.04-.14,.07-.28,.1-.42,.03-.14,.05-.28,.08-.43,.02-.15,.04-.3,.05-.44,.01-.15,.02-.29,.02-.43v-.06l.53,.06v.05c0,.14,0,.29-.02,.45Z"/>
              </g>
              <path class="cls-12" d="M24.76,23.69l19.31,3.16c.3,.05,.52-.12,.65-.36,.06-.11,.1-.24,.12-.37,.02-.13,.02-.27-.01-.39-.05-.27-.22-.49-.52-.53l-19.43-2.27c-.06,0-.12,.06-.17,.16-.03,.06-.05,.13-.05,.2,0,.07-.01,.14,0,.21,.01,.11,.05,.19,.11,.2h0Zm19.23,3.62l-19.31-3.16c-.3-.05-.46-.3-.5-.6-.02-.11-.01-.22,0-.33,.02-.11,.05-.22,.09-.32,.12-.28,.34-.47,.65-.44l19.43,2.27c.53,.06,.83,.44,.92,.89h0c.04,.18,.04,.37,.01,.55-.02,.18-.08,.36-.16,.52h0c-.22,.41-.6,.69-1.13,.61Z"/>
            </g>
            <g>
              <path class="cls-11" d="M23.02,28.19c-1.65,0-2.98,1.34-2.98,2.98,0,.16,.01,.32,.04,.47,1.32,.5,3.24,.89,5.49,1.08,.28-.45,.44-.98,.44-1.55,0-1.65-1.34-2.98-2.98-2.98Z"/>
              <path class="cls-10" d="M23.25,29.27h-.47c-.23,0-.41,.18-.41,.41h0c0,.22,.18,.41,.41,.41h.47c.22,0,.41-.18,.41-.41h0c0-.23-.18-.41-.41-.41Z"/>
              <path class="cls-10" d="M23.25,28.27h-.47c-.23,0-.41,.18-.41,.41h0c0,.22,.18,.41,.41,.41h.47c.22,0,.41-.18,.41-.41h0c0-.22-.18-.41-.41-.41Z"/>
              <path class="cls-10" d="M23.25,30.12h-.47c-.23,0-.41,.18-.41,.41h0c0,.58,1.29,.58,1.29,0h0c0-.23-.18-.41-.41-.41Z"/>
              <path class="cls-12" d="M23.02,27.98c-.88,0-1.68,.36-2.26,.94-.58,.58-.94,1.38-.94,2.26,0,.13,0,.26,.02,.38,.14,.06,.3,.12,.46,.17-.04-.18-.06-.37-.06-.56,0-.77,.31-1.46,.81-1.96,.5-.5,1.19-.81,1.96-.81s1.46,.31,1.96,.81c.5,.5,.81,1.19,.81,1.96,0,.57-.17,1.1-.46,1.53,.16,.02,.31,.03,.47,.04,.26-.47,.41-1,.41-1.58,0-.88-.36-1.68-.94-2.26s-1.38-.94-2.26-.94Z"/>
              <path class="cls-12" d="M23.02,29.02c-.59,0-1.13,.24-1.52,.63-.39,.39-.63,.93-.63,1.52,0,.28,.05,.54,.15,.78,.17,.05,.36,.1,.55,.15-.17-.27-.27-.59-.27-.93,0-.48,.19-.91,.51-1.22,.31-.31,.74-.51,1.22-.51s.91,.19,1.22,.51c.31,.31,.51,.74,.51,1.22s-.19,.91-.51,1.22c-.06,.06-.12,.12-.19,.17,.18,.02,.37,.05,.56,.07,.35-.38,.57-.9,.57-1.46,0-.59-.24-1.13-.63-1.52-.39-.39-.93-.63-1.52-.63Z"/>
              <path class="cls-12" d="M23.02,29.91c-.35,0-.66,.14-.89,.37h0c-.23,.23-.37,.54-.37,.89s.14,.66,.37,.89h0c.1,.1,.21,.18,.33,.24,.22,.05,.45,.09,.69,.13,.3-.03,.56-.16,.76-.36h0c.23-.23,.37-.54,.37-.89s-.14-.66-.37-.89c-.23-.23-.54-.37-.89-.37h0Zm-.59,.67c.15-.15,.36-.24,.59-.24s.44,.09,.59,.25c.15,.15,.25,.36,.25,.59s-.09,.44-.24,.59h0c-.15,.15-.36,.25-.59,.25s-.44-.09-.59-.24h0c-.15-.15-.24-.36-.24-.59s.09-.44,.24-.59h0Z"/>
            </g>
            <g>
              <g>
                <path class="cls-11" d="M34,30.97c1.65,0,2.98,1.34,2.98,2.98,0,.16-.01,.32-.04,.47-1.32,.5-3.24,.89-5.49,1.08-.28-.45-.44-.98-.44-1.55,0-1.65,1.33-2.98,2.98-2.98Z"/>
                <path class="cls-10" d="M33.77,32.05h.47c.22,0,.41,.18,.41,.41h0c0,.22-.18,.41-.41,.41h-.47c-.23,0-.41-.18-.41-.41h0c0-.23,.18-.41,.41-.41Z"/>
                <path class="cls-10" d="M33.77,31.05h.47c.22,0,.41,.18,.41,.41h0c0,.22-.18,.41-.41,.41h-.47c-.23,0-.41-.18-.41-.41h0c0-.22,.18-.41,.41-.41Z"/>
                <path class="cls-10" d="M33.77,32.9h.47c.22,0,.41,.18,.41,.41h0c0,.58-1.29,.58-1.29,0h0c0-.22,.18-.41,.41-.41Z"/>
                <path class="cls-12" d="M34,30.76c.88,0,1.68,.36,2.26,.94s.94,1.38,.94,2.26c0,.13,0,.26-.02,.38-.14,.06-.29,.12-.46,.17,.04-.18,.05-.37,.05-.56,0-.77-.31-1.46-.81-1.96-.5-.5-1.19-.81-1.96-.81s-1.46,.31-1.96,.81c-.5,.5-.81,1.19-.81,1.96,0,.57,.17,1.1,.46,1.53-.16,.02-.31,.03-.47,.04-.26-.47-.42-1-.42-1.58,0-.88,.36-1.68,.94-2.26,.58-.58,1.38-.94,2.26-.94Z"/>
                <path class="cls-12" d="M34,31.8c.59,0,1.13,.24,1.52,.63,.39,.39,.63,.93,.63,1.52,0,.28-.05,.54-.14,.78-.18,.05-.36,.1-.55,.15,.17-.27,.27-.59,.27-.93,0-.48-.19-.91-.51-1.22-.31-.31-.74-.51-1.22-.51s-.91,.19-1.22,.51c-.31,.31-.5,.74-.5,1.22s.19,.91,.5,1.22c.06,.06,.13,.12,.19,.17-.18,.02-.37,.05-.55,.07-.35-.38-.57-.9-.57-1.46,0-.59,.24-1.13,.63-1.52,.39-.39,.93-.63,1.52-.63Z"/>
                <path class="cls-12" d="M34,32.69c.35,0,.66,.14,.89,.37h0c.23,.23,.37,.54,.37,.89s-.14,.66-.37,.89h0c-.09,.1-.2,.18-.32,.24-.22,.04-.46,.09-.69,.13-.29-.03-.56-.16-.76-.36h0c-.23-.23-.37-.54-.37-.89s.14-.66,.37-.89c.23-.23,.54-.37,.89-.37h0Zm.59,.67c-.15-.15-.36-.24-.59-.24s-.44,.09-.59,.24c-.15,.15-.25,.36-.25,.59s.09,.44,.25,.59h0c.15,.15,.36,.24,.59,.24s.44-.09,.59-.24h0c.15-.15,.24-.36,.24-.59s-.09-.44-.24-.59h0Z"/>
              </g>
              <g>
                <path class="cls-11" d="M22.09,30.59c1.77,0,3.2,1.43,3.2,3.2,0,.64-.19,1.23-.51,1.73-2.43-.2-4.48-.62-5.84-1.16-.03-.18-.05-.37-.05-.57,0-1.77,1.43-3.2,3.2-3.2Z"/>
                <path class="cls-10" d="M21.86,31.78h.47c.22,0,.41,.18,.41,.41h0c0,.22-.18,.41-.41,.41h-.47c-.23,0-.41-.18-.41-.41h0c0-.23,.18-.41,.41-.41Z"/>
                <path class="cls-10" d="M21.86,30.79h.47c.22,0,.41,.18,.41,.41h0c0,.22-.18,.41-.41,.41h-.47c-.23,0-.41-.18-.41-.41h0c0-.23,.18-.41,.41-.41Z"/>
                <path class="cls-10" d="M21.86,32.64h.47c.22,0,.41,.18,.41,.41h0c0,.58-1.29,.58-1.29,0h0c0-.23,.18-.41,.41-.41Z"/>
                <path class="cls-12" d="M25.5,33.79c0,.64-.18,1.24-.48,1.75-.16-.01-.32-.02-.48-.04,.34-.48,.54-1.07,.54-1.71,0-1.66-1.34-2.99-2.99-2.99s-2.99,1.33-2.99,2.99c0,.23,.02,.45,.07,.66-.17-.06-.32-.12-.47-.19-.02-.15-.03-.31-.03-.47,0-1.88,1.52-3.41,3.41-3.41s3.41,1.53,3.41,3.41Z"/>
                <path class="cls-12" d="M22.09,31.5c.63,0,1.21,.26,1.62,.67,.41,.41,.67,.99,.67,1.62s-.26,1.21-.67,1.62h0c-.2-.02-.39-.04-.58-.07,.1-.07,.2-.15,.28-.23,.34-.34,.55-.8,.55-1.32s-.21-.98-.55-1.32c-.34-.34-.8-.55-1.32-.55s-.98,.21-1.32,.55c-.34,.34-.55,.8-.55,1.32,0,.4,.13,.77,.34,1.08-.2-.05-.39-.1-.57-.15-.13-.28-.19-.6-.19-.92,0-.63,.26-1.21,.67-1.62,.41-.41,.99-.67,1.62-.67Z"/>
                <path class="cls-12" d="M22.09,32.47c.36,0,.7,.15,.93,.39s.39,.57,.39,.93-.15,.7-.39,.93c-.24,.24-.57,.39-.93,.39s-.69-.15-.93-.39c-.24-.24-.39-.57-.39-.93s.15-.69,.39-.93c.24-.24,.57-.39,.93-.39h0Zm.63,.69c-.16-.16-.39-.26-.63-.26s-.47,.1-.63,.26c-.16,.16-.26,.39-.26,.63s.1,.47,.26,.63c.16,.16,.39,.26,.63,.26s.47-.1,.63-.26c.16-.16,.26-.39,.26-.63s-.1-.47-.26-.63Z"/>
              </g>
              <g>
                <path class="cls-11" d="M28.54,30.41c2.18,0,3.96,1.77,3.96,3.96,0,.36-.05,.72-.14,1.05-1.32,.15-2.78,.24-4.32,.24-1.14,0-2.24-.05-3.28-.13-.11-.37-.17-.75-.17-1.16,0-2.18,1.77-3.96,3.96-3.96Z"/>
                <path class="cls-10" d="M28.22,31.9h.64c.3,0,.55,.25,.55,.55h0c0,.3-.25,.55-.55,.55h-.64c-.3,0-.55-.25-.55-.55h0c0-.3,.25-.55,.55-.55Z"/>
                <path class="cls-10" d="M28.22,30.56h.64c.3,0,.55,.25,.55,.55h0c0,.3-.25,.55-.55,.55h-.64c-.3,0-.55-.25-.55-.55h0c0-.3,.25-.55,.55-.55Z"/>
                <path class="cls-10" d="M28.22,33.05h.64c.3,0,.55,.25,.55,.55h0c0,.77-1.73,.77-1.73,0h0c0-.3,.25-.55,.55-.55Z"/>
                <path class="cls-12" d="M28.54,30.19c1.15,0,2.19,.47,2.95,1.22,.76,.75,1.22,1.8,1.22,2.95,0,.35-.04,.7-.13,1.03-.15,.02-.3,.04-.45,.05,.1-.34,.16-.7,.16-1.08,0-1.04-.42-1.97-1.1-2.65-.68-.68-1.62-1.1-2.65-1.1s-1.97,.42-2.65,1.1c-.68,.68-1.1,1.61-1.1,2.65,0,.41,.07,.8,.19,1.17-.15-.01-.31-.02-.46-.04-.1-.36-.16-.74-.16-1.14,0-1.15,.47-2.19,1.22-2.95s1.8-1.22,2.95-1.22Z"/>
                <path class="cls-12" d="M28.54,31.58c.77,0,1.47,.31,1.97,.82,.51,.5,.82,1.2,.82,1.97,0,.42-.09,.82-.26,1.18-.17,.01-.33,.02-.5,.03,.21-.35,.33-.77,.33-1.21,0-.65-.26-1.24-.69-1.67-.43-.43-1.02-.69-1.67-.69s-1.24,.26-1.67,.69c-.43,.43-.69,1.02-.69,1.67,0,.46,.13,.9,.36,1.26-.17,0-.33-.01-.5-.02-.19-.37-.29-.8-.29-1.24,0-.77,.31-1.47,.82-1.97,.5-.5,1.2-.82,1.97-.82Z"/>
                <path class="cls-12" d="M28.54,32.73c.45,0,.86,.18,1.16,.48,.3,.3,.48,.7,.48,1.16s-.18,.86-.48,1.15c-.04,.04-.08,.07-.12,.11-.5,.02-1.02,.03-1.55,.03-.17,0-.33,0-.5,0-.05-.04-.1-.08-.15-.13-.3-.29-.48-.7-.48-1.15s.18-.86,.48-1.16c.29-.3,.7-.48,1.15-.48h0Zm.86,.78c-.22-.22-.52-.35-.86-.35s-.64,.14-.86,.35-.35,.52-.35,.86,.14,.64,.35,.86c.22,.22,.52,.35,.86,.35s.64-.14,.86-.35c.22-.22,.35-.52,.35-.86s-.14-.64-.35-.86Z"/>
              </g>
            </g>
            <path class="cls-12" d="M38.56,33.78c-.56,.53-1.57,.98-2.91,1.33-1.98,.52-4.71,.84-7.72,.84s-5.74-.32-7.72-.84c-1.34-.35-2.35-.8-2.91-1.33h.96c.51,.28,1.22,.53,2.09,.76,1.93,.5,4.61,.82,7.57,.82s5.64-.31,7.57-.82c.87-.23,1.59-.49,2.09-.76h.96Z"/>
          </g>
          <path class="cls-12" d="M30.98,21.94c-.08,.17-.19,.33-.34,.48-.16,.16-.36,.31-.59,.41-.23,.11-.49,.17-.77,.17-.42,0-.88-.14-1.34-.5-.45,.36-.91,.5-1.34,.5-.28,0-.54-.07-.77-.17-.23-.11-.43-.25-.59-.41-.15-.15-.26-.32-.34-.48-.2,.05-.45,.05-.74,0-.18-.03-.3-.21-.27-.39,.03-.18,.21-.31,.39-.27,.92,.17,.96-.68,.96-.68,.01-.19,.17-.33,.36-.32,.19,.01,.33,.17,.32,.36,0,0-.03,.59-.42,.99,.03,.1,.11,.22,.23,.33,.11,.11,.24,.2,.39,.27,.15,.07,.32,.11,.5,.11,.33,0,.71-.14,1.09-.52,.13-.13,.34-.13,.48,0,.38,.38,.76,.52,1.09,.52,.18,0,.35-.05,.5-.11,.15-.07,.29-.17,.39-.27,.11-.11,.19-.23,.23-.33-.39-.4-.42-.98-.42-.99-.01-.19,.13-.35,.32-.36,.19-.01,.35,.13,.36,.32,0,0,.05,.85,.96,.68,.19-.03,.36,.09,.39,.27,.04,.18-.09,.36-.27,.39-.29,.05-.54,.05-.74,0Z"/>
          <path class="cls-12" d="M29.31,19.84c-.05,.34-.26,1.08-.57,1.59-.22,.35-.49,.6-.8,.57-.32,.03-.59-.22-.8-.57-.32-.51-.52-1.26-.57-1.6,0-.04,0-.07,.04-.09,.68-.57,2-.57,2.68,0,.03,.02,.04,.06,.04,.1Z"/>
          <g>
            <path class="cls-6" d="M13.61,34.28c-1.38,.92-1.55,3.09-.39,4.85,1.17,1.76,3.24,2.45,4.62,1.53,1.38-.92,1.55-3.09,.38-4.85-1.17-1.76-3.24-2.45-4.62-1.53Z"/>
            <path class="cls-12" d="M13.42,34.05c-.75,.51-1.18,1.36-1.25,2.31-.08,.94,.19,1.99,.81,2.93h0c.62,.94,1.48,1.59,2.38,1.88,.91,.3,1.85,.24,2.61-.26,.02,0,.03-.02,.05-.03,.75-.51,1.18-1.35,1.25-2.31,.16-2.04-1.25-4.17-3.19-4.81-.91-.3-1.85-.24-2.62,.26-.02,0-.03,.02-.05,.03h0Zm1.99,1.2c-.15,.05-.24,.21-.19,.36,.05,.15,.21,.24,.36,.19,2.41-.75,3.37,.81,1.51,2.59-.11,.11-.12,.29,0,.41,.11,.11,.29,.12,.41,0,.62-.6,.92-1.19,1.05-1.69,.15,.48,.2,.96,.17,1.41-.06,.79-.41,1.49-1.02,1.89h0c-.61,.41-1.39,.46-2.14,.21-.78-.26-1.53-.83-2.08-1.66h0c-.55-.83-.78-1.75-.72-2.56,.06-.79,.41-1.48,1.02-1.89h0c.61-.41,1.38-.46,2.14-.21,.49,.16,.96,.44,1.38,.84-.98-.17-1.87,.11-1.88,.11Z"/>
            <path class="cls-7" d="M13.93,35.58c-.07,.21-.11,.43-.13,.66,.04-.02,.08-.04,.12-.05,.31-.08,.65,.17,.75,.57,.1,.4-.06,.78-.37,.86-.14,.04-.28,0-.4-.07,.08,.35,.21,.69,.38,1.03,.08,.16,.18,.33,.28,.49,.32,.48,.71,.89,1.13,1.2,.25,.18,.51,.33,.77,.45,.06,.03,.12,.05,.18,.07-.35,.03-.72-.03-1.09-.15-.74-.25-1.47-.78-2.01-1.55-.02-.03-.05-.07-.07-.11h0c-.2-.3-.35-.61-.47-.92-.2-.54-.28-1.08-.25-1.59,0-.02,0-.03,0-.05,.05-.58,.25-1.11,.59-1.51,.06-.07,.13-.14,.2-.2,.07-.06,.15-.12,.23-.17h0s0,0,0,0c.37-.24,.79-.36,1.23-.36-.02,.02-.05,.03-.07,.05-.31,.21-.56,.48-.75,.8-.05,.09-.1,.18-.14,.28-.04,.1-.08,.2-.12,.3Z"/>
            <path class="cls-7" d="M17.49,38.81c.62-.6,.92-1.19,1.05-1.69,.15,.48,.2,.96,.17,1.41-.06,.79-.41,1.49-1.02,1.89h0c-.32,.21-.68,.33-1.05,.35-.03-.01-.06-.02-.09-.04,1.88-1.04,.25-.72,.28-2.2,0-.51,.44-.69,.32-1.35-.19-1.01-1.17-.93-1.5-1.4,2.38-.71,3.31,.84,1.46,2.61-.11,.11-.12,.29,0,.41,.11,.11,.29,.12,.41,0Z"/>
            <path class="cls-7" d="M17.29,35.15c-.67-.12-1.29-.03-1.62,.04,.17-.64-.43-.95-.64-1.03,.29,0,.59,.05,.88,.15,.49,.16,.96,.44,1.38,.84Z"/>
          </g>
        </g>
      </g>
    </g>
  </g>
</svg>