<?xml version="1.0" encoding="UTF-8"?>
<svg xmlns="http://www.w3.org/2000/svg" xmlns:xlink="http://www.w3.org/1999/xlink" viewBox="0 0 64 64">
  <defs>
    <style>
      .cls-1 {
        fill: url(#linear-gradient-2);
      }

      .cls-2 {
        opacity: .7;
      }

      .cls-3, .cls-4 {
        fill: #fff;
      }

      .cls-5 {
        fill: #650000;
      }

      .cls-6 {
        fill: #ddbcaf;
      }

      .cls-6, .cls-7, .cls-8 {
        mix-blend-mode: overlay;
      }

      .cls-6, .cls-4 {
        opacity: .5;
      }

      .cls-7 {
        fill: #8c8587;
      }

      .cls-9 {
        isolation: isolate;
      }

      .cls-10, .cls-11 {
        fill: #2b2829;
      }

      .cls-10, .cls-12 {
        mix-blend-mode: screen;
      }

      .cls-13 {
        fill: #dcc2a7;
      }

      .cls-14 {
        fill: #cca3ae;
        mix-blend-mode: multiply;
      }

      .cls-15 {
        fill: #f76d9b;
      }

      .cls-16 {
        opacity: .3;
      }

      .cls-17 {
        fill: url(#linear-gradient);
      }

      .cls-18 {
        fill: #fea726;
      }

      .cls-8 {
        fill: #998a8e;
      }
    </style>
    <linearGradient id="linear-gradient" x1="64" y1="34.03" x2="5.45" y2="34.03" gradientUnits="userSpaceOnUse">
      <stop offset="0" stop-color="#cf965b"/>
      <stop offset=".25" stop-color="#ca9257"/>
      <stop offset=".51" stop-color="#be864c"/>
      <stop offset=".78" stop-color="#a9733a"/>
      <stop offset="1" stop-color="#925d26"/>
    </linearGradient>
    <linearGradient id="linear-gradient-2" x1="61.28" y1="31.49" x2="1.36" y2="31.49" gradientUnits="userSpaceOnUse">
      <stop offset="0" stop-color="#e8b886"/>
      <stop offset=".25" stop-color="#e3b482"/>
      <stop offset=".5" stop-color="#d7a877"/>
      <stop offset=".76" stop-color="#c29464"/>
      <stop offset="1" stop-color="#a97c4e"/>
    </linearGradient>
  </defs>
  <g class="cls-9">
    <g id="_Слой_2" data-name="Слой 2">
      <g id="_Слой_1-2" data-name="Слой 1">
        <g>
          <g>
            <path class="cls-17" d="M60.49,6.68c-1.75-1.6-4.41-2.62-7.38-2.62H14.98c-5.26,0-9.53,3.19-9.53,7.11V55.87c0,2.22,1.37,4.2,3.51,5.51,1.75,1.6,4.41,2.62,7.38,2.62H54.47c5.26,0,9.53-3.19,9.53-7.11V12.19c0-2.22-1.37-4.2-3.51-5.51Z"/>
            <path class="cls-1" d="M57.77,4.65c-.41-.37-.86-.71-1.36-1.02-1.75-1.6-4.41-2.62-7.38-2.62H10.89C5.64,1.02,1.36,4.21,1.36,8.13V52.83c0,2.22,1.37,4.2,3.51,5.51,.41,.37,.86,.71,1.36,1.02,1.75,1.6,4.41,2.62,7.38,2.62H51.74c5.26,0,9.53-3.19,9.53-7.11V10.16c0-2.22-1.37-4.2-3.51-5.51Z"/>
            <path class="cls-13" d="M47.66,0H9.53C4.28,0,0,3.19,0,7.11V51.81c0,3.92,4.28,7.11,9.53,7.11H47.66c5.26,0,9.53-3.19,9.53-7.11V7.11c0-3.92-4.28-7.11-9.53-7.11Z"/>
          </g>
          <path class="cls-8" d="M5.89,14.33c-.01-2.85,.17-6.06,2.96-8,2.12-1.47,5.21-1.81,8.09-1.99,6.68-.42,13.42-.36,20.09,.18,3.3,.26,6.79,.71,9.28,2.36,3.69,2.45,3.93,6.61,3.9,10.29-.08,9.24-.15,18.48-.23,27.72-.02,2.2-.08,4.51-1.54,6.42-1.54,2-4.45,3.25-7.46,3.8-3.01,.55-6.15,.48-9.24,.41-5.15-.12-10.31-.24-15.43-.71-2.79-.26-9.22-.18-10.19-2.65-.66-1.68-.07-4.15-.07-5.9,0-2.02-.02-4.03-.03-6.05-.02-4.03-.04-8.06-.06-12.1-.02-4.59-.04-9.18-.07-13.78Z"/>
          <path class="cls-8" d="M20.65,20.31c-3.25-.39-6.54-1.19-8.94-2.87-2.39-1.69-3.67-4.43-2.38-6.69,.89-1.57,2.87-2.69,5.01-3.3,2.14-.61,4.45-.77,6.74-.89,5.74-.3,11.52-.39,17.22,.17,2.22,.22,4.55,.57,6.21,1.7,2.93,1.99,2.55,5.66,.4,8.14-5.33,6.17-16.02,4.75-24.26,3.75Z"/>
          <path class="cls-10" d="M9.75,46.11c-.57-1.77-.49-3.61-.4-5.43,.37-7.55,.74-15.09,1.11-22.64,.14-2.75,.39-5.74,2.81-7.82,2.2-1.89,5.7-2.58,9.03-2.93,4.04-.42,8.14-.47,12.2-.14,3.7,.3,7.69,1.06,9.9,3.3,1.87,1.9,2.03,4.41,2.12,6.77,.33,9.07,.66,18.2-1.13,27.18-.4,1.99-1,4.12-2.97,5.5-2.25,1.58-5.63,1.75-8.72,1.75-5.06,0-10.12-.25-15.13-.73-4.65-.45-7.58-.99-8.81-4.8Z"/>
          <path class="cls-14" d="M47.66,1.02h-1.63c4.51,0,8.17,2.73,8.17,6.1V51.81c0,3.37-3.66,6.1-8.17,6.1h1.63c4.51,0,8.17-2.73,8.17-6.1V7.11c0-3.37-3.66-6.1-8.17-6.1Z"/>
          <path class="cls-6" d="M44.83,56.21c2.15-.26,4.29-1.07,5.39-2.47,.86-1.09,1-2.4,1.05-3.66,.05-1.24,.02-2.47-.08-3.71-.07-.81-.31-1.78-1.32-2.08-.75-.23-1.65,.04-2.16,.52-.51,.47-.69,1.1-.74,1.7-.11,1.25,.25,2.52-.08,3.75-.39,1.42-1.68,2.63-3.23,3.51-1.13,.64-4.12,1.25-4.5,2.21,1.43,.58,4.04,.42,5.67,.23Z"/>
          <path class="cls-7" d="M3.88,2.71c-1.55,1.11-2.52,2.67-2.52,4.4v26.08c12.35-3.44,32.73-4.39,54.47,14.33v-14.97C26.86,28.05,11.39,13.17,3.88,2.71Z"/>
          <path class="cls-4" d="M3.58,9.23c.26-1.79,1.27-3.6,3.21-4.67,2.66-1.47,6.31-1.25,9.61-.96,1.02,.09,2.32,.39,2.36,1.15,.03,.67-.97,1.08-1.84,1.21-2.2,.34-4.63-.04-6.59,.77-1.42,.58-2.33,1.69-2.8,2.85s-.56,2.38-.73,3.58c-.07,.46-.15,.93-.44,1.34-1.08,1.49-2.05,.48-2.43-.37-.6-1.35-.53-3.5-.32-4.91Z"/>
          <g class="cls-12">
            <path class="cls-11" d="M36.44,9.78c.84,1.55-.18,3.32-2.26,3.94-2.08,.62-4.45-.13-5.29-1.69-.84-1.55,.18-3.32,2.26-3.94,2.08-.62,4.45,.13,5.29,1.69Z"/>
            <path class="cls-11" d="M43.37,11.71c.45,.84-.09,1.78-1.21,2.12-1.12,.34-2.39-.07-2.84-.91-.45-.84,.09-1.78,1.21-2.12,1.12-.34,2.39,.07,2.84,.91Z"/>
            <path class="cls-11" d="M40.11,16.13c.37,.7-.08,1.49-1.01,1.77-.93,.28-1.99-.06-2.37-.76-.37-.7,.08-1.49,1.01-1.77,.93-.28,1.99,.06,2.37,.76Z"/>
          </g>
          <g class="cls-12">
            <path class="cls-11" d="M23.64,45.38c.8,1.49-.17,3.17-2.16,3.77-1.99,.6-4.25-.13-5.05-1.61-.8-1.49,.17-3.17,2.16-3.77,1.99-.6,4.25,.13,5.05,1.61Z"/>
            <path class="cls-11" d="M20.79,40.39c.22,.41-.05,.87-.59,1.03-.54,.16-1.16-.03-1.38-.44-.22-.41,.05-.87,.59-1.03,.54-.16,1.16,.03,1.38,.44Z"/>
            <path class="cls-11" d="M15.3,41.5c.45,.84-.09,1.78-1.21,2.12-1.12,.34-2.39-.07-2.84-.91-.45-.84,.09-1.78,1.21-2.12,1.12-.34,2.39,.07,2.84,.91Z"/>
          </g>
          <g class="cls-16">
            <path class="cls-14" d="M51.02,35.95c.79,1.47-.17,3.15-2.14,3.74-1.98,.59-4.22-.12-5.01-1.6-.79-1.47,.17-3.15,2.14-3.74,1.98-.59,4.22,.12,5.01,1.6Z"/>
            <path class="cls-14" d="M53.92,29.6c.58,1.08-.12,2.3-1.57,2.74-1.45,.43-3.09-.09-3.67-1.17-.58-1.08,.12-2.3,1.57-2.74,1.45-.43,3.09,.09,3.67,1.17Z"/>
            <path class="cls-14" d="M45.56,30.99c.37,.7-.08,1.49-1.01,1.77-.93,.28-1.99-.06-2.37-.75-.37-.7,.08-1.49,1.01-1.77,.93-.28,1.99,.06,2.37,.76Z"/>
            <path class="cls-14" d="M10.65,25.55c.41,.75-.09,1.61-1.1,1.92-1.01,.3-2.16-.06-2.57-.82-.41-.75,.09-1.61,1.1-1.92,1.01-.3,2.16,.06,2.57,.82Z"/>
            <path class="cls-14" d="M11.29,21.09c.21,.39-.04,.84-.57,1-.53,.16-1.13-.03-1.34-.43-.21-.39,.04-.84,.57-1,.53-.16,1.13,.03,1.34,.43Z"/>
            <path class="cls-14" d="M6.59,20.15c.34,.63-.07,1.34-.91,1.59-.84,.25-1.79-.05-2.13-.68-.34-.63,.07-1.34,.91-1.59s1.79,.05,2.13,.68Z"/>
          </g>
        </g>
      </g>
      <g id="_Слой_7" data-name="Слой 7">
        <g>
          <g>
            <path class="cls-18" d="M16.58,48.95s-5.63,2.25-4.11,4.71c1.52,2.47,8.67-.76,11.1-3.48s-6.99-1.23-6.99-1.23Z"/>
            <g class="cls-16">
              <path class="cls-5" d="M23.33,48.77c-.06,.1-.14,.21-.25,.33-2.33,2.6-8.96,5.66-10.87,3.77,.01,.26,.09,.52,.26,.79,1.52,2.47,8.67-.76,11.1-3.48,.67-.75,.44-1.18-.24-1.41Z"/>
            </g>
            <path class="cls-5" d="M14.51,54.94c-.15,0-.29,0-.43-.02-.92-.08-1.58-.44-1.95-1.05-.34-.55-.41-1.13-.21-1.72,.67-2.01,4.36-3.5,4.51-3.57,.03-.01,.06-.02,.08-.02,.02,0,1.7-.27,3.45-.37,3.36-.2,4.06,.36,4.3,.79,.23,.42,.1,.91-.4,1.46-1.9,2.12-6.44,4.49-9.35,4.49Zm2.17-5.61c-1,.41-3.57,1.7-4.02,3.07-.12,.37-.08,.71,.13,1.06,.24,.39,.7,.62,1.35,.68,.12,.01,.24,.02,.37,.02,2.67,0,7-2.27,8.75-4.23,.26-.29,.33-.49,.29-.56-.03-.06-.4-.57-3.56-.39-1.55,.09-3.05,.31-3.33,.35Z"/>
          </g>
          <g>
            <path class="cls-18" d="M39.62,48.95s5.63,2.25,4.11,4.71c-1.52,2.47-8.67-.76-11.1-3.48-2.44-2.72,6.99-1.23,6.99-1.23Z"/>
            <g class="cls-16">
              <path class="cls-5" d="M32.87,48.77c.06,.1,.14,.21,.25,.33,2.33,2.6,8.96,5.66,10.87,3.77-.01,.26-.09,.52-.26,.79-1.52,2.47-8.67-.76-11.1-3.48-.67-.75-.44-1.18,.24-1.41Z"/>
            </g>
            <path class="cls-5" d="M41.69,54.94c-2.92,0-7.45-2.37-9.35-4.49-.49-.55-.62-1.04-.4-1.46,.24-.44,.94-.99,4.3-.79,1.75,.1,3.43,.37,3.45,.37,.03,0,.06,.01,.08,.02,.16,.06,3.85,1.55,4.51,3.57,.2,.59,.13,1.17-.21,1.72-.38,.61-1.03,.97-1.95,1.05-.14,.01-.28,.02-.43,.02Zm-6.75-6c-2,0-2.28,.38-2.3,.43-.04,.07,.04,.27,.29,.56,1.84,2.05,6.5,4.45,9.12,4.21,.66-.06,1.11-.29,1.35-.68,.21-.34,.26-.69,.13-1.06-.45-1.36-3.01-2.66-4.02-3.07-.27-.04-1.78-.26-3.33-.35-.48-.03-.89-.04-1.25-.04Z"/>
          </g>
          <g>
            <path class="cls-3" d="M45.16,33.57s-.1,1.87,.44,3.4c.18,.51,.33,1.03,.43,1.56,.58,3.27,1.28,12.72-9.67,13.19-1.28,.06-2.57-.04-3.84-.24-1-.16-2.66-.38-4.41-.38s-3.42,.21-4.41,.38c-1.27,.2-2.55,.3-3.84,.24-10.96-.47-10.25-9.92-9.67-13.19,.09-.53,.25-1.05,.43-1.56,.17-.47,.28-.98,.34-1.45,.15-1.06,.1-1.95,.1-1.95,0,0-3.77-1.37-4.2-6.9-.03-.42-.05-.86-.04-1.32,.13-6.59,5.48-8.54,5.57-8.57h0s0,0,0,0c-.57-1.57-.82-3.07-.91-4.37-.03-.43-.04-.85-.03-1.23,.02-2,1.59-3.63,3.59-3.73,3.24-.16,5.51,1.26,5.51,1.26,3.38-1.77,7.57-1.73,7.57-1.73,0,0,4.19-.04,7.57,1.73,0,0,2.27-1.42,5.51-1.26,2,.1,3.57,1.73,3.59,3.73,.02,1.53-.18,3.51-.94,5.6,0,0,5.44,1.93,5.57,8.57,.13,6.64-4.24,8.23-4.24,8.23Z"/>
            <path class="cls-18" d="M44.77,11.17c-.02-2-1.59-3.63-3.59-3.73-3.24-.16-5.51,1.26-5.51,1.26-3.38-1.77-7.57-1.73-7.57-1.73,0,0-4.19-.04-7.57,1.73,0,0-2.27-1.42-5.51-1.26-2,.1-3.57,1.73-3.59,3.73-.02,1.53,.18,3.51,.94,5.6,0,0,0,0,0,0,0,0,2.28-1.43,5.11,.57,4.66,3.3,7.81,.72,10.62,.72s5.98,2.28,10.62-.72c2.91-1.88,5.11-.57,5.11-.57,0,0,0,0,0,0,.76-2.09,.95-4.06,.94-5.6Z"/>
            <ellipse class="cls-3" cx="22.74" cy="14.51" rx=".84" ry="1.22" transform="translate(-1.19 26.95) rotate(-60)"/>
            <ellipse class="cls-3" cx="33.46" cy="14.51" rx="1.22" ry=".84" transform="translate(-2.77 18.67) rotate(-30)"/>
            <g class="cls-16">
              <path class="cls-5" d="M36.35,49.36c-1.28,.06-2.57-.04-3.84-.24-1-.16-2.66-.38-4.41-.38s-3.42,.21-4.41,.38c-1.27,.2-2.55,.3-3.84,.24-7.64-.33-9.61-5.02-9.91-8.94-.29,4.07,.63,10.91,9.91,11.3,1.28,.06,2.57-.04,3.84-.24,1-.16,2.66-.38,4.41-.38s3.42,.21,4.41,.38c1.27,.2,2.55,.3,3.84,.24,9.28-.4,10.19-7.23,9.91-11.3-.3,3.92-2.26,8.62-9.91,8.94Z"/>
            </g>
            <g class="cls-16">
              <path class="cls-5" d="M14.66,35.35s-1.65,.44-3.72,.17c.15-1.06,.1-1.95,.1-1.95,0,0-3.77-1.37-4.2-6.9,0,0,1.23,2.85,6.01,5.73,0,0,.56,1.71,1.81,2.94Z"/>
            </g>
            <g class="cls-16">
              <path class="cls-5" d="M41.54,35.35s1.65,.44,3.72,.17c-.15-1.06-.1-1.95-.1-1.95,0,0,3.77-1.37,4.2-6.9,0,0-1.23,2.85-6.01,5.73,0,0-.56,1.71-1.81,2.94Z"/>
            </g>
            <g class="cls-16">
              <path class="cls-5" d="M10.93,30.41c-.02-.2,0-.39,.01-.58,.02-.19,.05-.38,.1-.57,.09-.38,.22-.75,.41-1.1,.36-.71,.92-1.35,1.62-1.78,.35-.22,.73-.39,1.12-.5,.19-.06,.4-.09,.6-.13,.1-.01,.2-.02,.3-.03,.05,0,.1-.01,.15-.01h.15c.8-.01,1.57,.15,2.26,.47,.07,.03,.1,.12,.07,.19-.02,.05-.07,.08-.12,.08h0c-.74,.02-1.45,.05-2.11,.18-.17,.02-.33,.08-.49,.11-.16,.05-.32,.09-.47,.15-.15,.05-.3,.12-.45,.19-.07,.04-.14,.08-.21,.11-.07,.04-.14,.08-.21,.12-.54,.34-1.02,.79-1.44,1.33-.42,.53-.79,1.14-1.13,1.8h0s-.07,.06-.1,.04c-.02-.01-.04-.04-.04-.06Z"/>
            </g>
            <g class="cls-16">
              <path class="cls-5" d="M45.12,30.44c-.34-.66-.71-1.27-1.13-1.8-.42-.53-.9-.99-1.44-1.33-.07-.04-.14-.09-.21-.12-.07-.04-.14-.07-.21-.11-.15-.06-.29-.14-.45-.19-.15-.06-.31-.1-.47-.15-.16-.03-.32-.09-.49-.11-.66-.13-1.37-.16-2.11-.18h0c-.08,0-.14-.07-.14-.15,0-.05,.03-.1,.08-.12,.69-.33,1.47-.49,2.26-.48h.15s.1,.01,.15,.02c.1,0,.2,.02,.3,.03,.2,.04,.4,.07,.6,.13,.39,.11,.78,.28,1.12,.5,.7,.44,1.26,1.07,1.62,1.78,.18,.35,.32,.73,.41,1.1,.04,.19,.08,.38,.1,.57,.02,.19,.03,.38,.01,.58,0,.04-.04,.07-.08,.07-.03,0-.05-.02-.06-.04h0Z"/>
            </g>
            <g class="cls-16">
              <path class="cls-5" d="M17.48,17.34c-2.59-1.76-5.11-.57-5.11-.57,0,0,0,0,0,0-.57-1.57-.82-3.07-.91-4.37,1.3,2.14,2.74,2.92,2.74,2.92,2.72,0,3.26,1.96,3.27,2.02Z"/>
            </g>
            <g class="cls-16">
              <path class="cls-5" d="M38.72,17.34c2.59-1.76,5.11-.57,5.11-.57,0,0,0,0,0,0,.57-1.57,.82-3.07,.91-4.37-1.3,2.14-2.74,2.92-2.74,2.92-2.72,0-3.26,1.96-3.27,2.02Z"/>
            </g>
            <g class="cls-16">
              <path class="cls-5" d="M32.35,18.97s.31,1.14-1.29,1.5c-1.6,.36-2.06-1.45-2.06-1.45l-.91-.05-.91,.05s-.46,1.82-2.06,1.45c-1.6-.36-1.29-1.5-1.29-1.5,0,0-1.73,.92-.51,2.93,0,0,.29,4.54,4.76,4.54s4.76-4.54,4.76-4.54c1.22-2.02-.51-2.93-.51-2.93Z"/>
            </g>
            <g class="cls-2">
              <path class="cls-3" d="M15.02,8.33c3.24-.16,4.76,.89,4.76,.89,1.98-.61,4.15-.95,5.77-1.14,1.71-.2,3.43-.21,5.13,0,1.61,.19,3.73,.53,5.72,1.15,0,0,1.52-1.05,4.76-.89,1.93,.1,3.46,1.62,3.58,3.53,0-.24,0-.47,0-.69-.02-2-1.59-3.63-3.59-3.73-3.24-.16-5.51,1.26-5.51,1.26-3.38-1.77-7.57-1.73-7.57-1.73,0,0-4.19-.04-7.57,1.73,0,0-2.27-1.42-5.51-1.26-2,.1-3.57,1.73-3.59,3.73,0,.22,0,.45,0,.69,.12-1.91,1.65-3.43,3.58-3.53Z"/>
            </g>
            <g>
              <path class="cls-5" d="M12.19,16.43s.07-.03,.1-.05c.03-.02,.06-.03,.09-.04,.06-.03,.11-.05,.17-.07,.11-.05,.23-.08,.35-.12,.23-.07,.47-.12,.71-.15,.48-.06,.97-.06,1.44,.02,.12,.01,.24,.05,.35,.07l.17,.04c.06,.01,.11,.04,.17,.05l.34,.11c.11,.05,.22,.1,.32,.15,.22,.09,.41,.24,.6,.36,.05,.03,.09,.07,.14,.11,.04,.04,.09,.08,.13,.12,.09,.08,.17,.16,.25,.25,.03,.04,.03,.09,0,.12-.02,.02-.05,.03-.08,.02h0c-.11-.03-.22-.07-.32-.11-.11-.03-.2-.08-.31-.11-.1-.03-.21-.07-.31-.1-.05-.02-.1-.04-.15-.05l-.15-.04c-.4-.13-.82-.21-1.23-.25l-.31-.02c-.1,0-.21,0-.31,0-.21,0-.41,.03-.61,.06-.2,.03-.4,.08-.6,.13-.1,.03-.2,.06-.29,.09-.05,.02-.09,.03-.14,.05-.02,0-.05,.02-.07,.03l-.06,.02h-.03c-.2,.1-.43,0-.51-.2-.08-.19,0-.4,.17-.49Z"/>
              <path class="cls-5" d="M11.24,33.23s.02,.01,.04,.02l.05,.03,.1,.05c.07,.04,.14,.07,.21,.1,.15,.07,.3,.13,.45,.19,.16,.05,.32,.11,.48,.16l.5,.16h0s.06,.05,.05,.09c0,.02-.03,.04-.05,.05-.09,.03-.18,.05-.27,.07-.09,.02-.18,.03-.28,.04-.18,.02-.37,.02-.56,0-.19-.01-.37-.04-.56-.08-.09-.02-.19-.05-.28-.08-.05-.02-.09-.03-.14-.05-.02,0-.05-.02-.07-.03-.03-.01-.04-.02-.08-.04l-.03-.02c-.19-.1-.26-.34-.16-.54,.1-.19,.34-.26,.54-.16,.02,0,.04,.02,.05,.03Z"/>
              <path class="cls-5" d="M43.64,17.12l-.06-.02s-.04-.02-.07-.03c-.05-.02-.09-.03-.14-.05-.09-.03-.19-.06-.29-.09-.2-.05-.4-.1-.6-.13-.2-.03-.41-.05-.61-.06-.1,0-.21,0-.31,0l-.31,.02c-.41,.04-.83,.11-1.23,.25l-.15,.04c-.05,.01-.1,.04-.15,.05-.1,.04-.21,.07-.31,.1-.11,.03-.2,.08-.31,.11-.1,.04-.21,.07-.32,.1h0s-.09-.01-.11-.06c0-.03,0-.06,.02-.08,.08-.09,.16-.17,.25-.25,.04-.04,.09-.08,.13-.12,.04-.04,.09-.08,.14-.11,.2-.13,.39-.27,.6-.36,.11-.05,.21-.1,.32-.15l.34-.11c.06-.02,.11-.04,.17-.05l.17-.04c.12-.02,.23-.06,.35-.07,.47-.08,.96-.08,1.44-.02,.24,.03,.48,.08,.71,.15,.12,.04,.23,.07,.35,.12,.06,.02,.11,.05,.17,.07,.03,.01,.06,.03,.09,.04,.03,.02,.06,.03,.1,.05,.19,.11,.26,.35,.15,.53-.1,.18-.31,.25-.49,.17h-.03Z"/>
              <path class="cls-5" d="M45.35,33.91s-.05,.03-.08,.04c-.02,.01-.05,.02-.07,.03-.05,.02-.09,.04-.14,.05-.09,.03-.19,.06-.28,.08-.19,.04-.37,.07-.56,.08-.19,.01-.37,.01-.56,0-.09,0-.18-.02-.28-.04-.09-.02-.18-.04-.27-.07-.04-.01-.06-.05-.05-.09,0-.02,.03-.04,.05-.05h0s.5-.16,.5-.16c.16-.05,.32-.11,.48-.16,.16-.06,.31-.12,.45-.19,.07-.03,.14-.07,.21-.1l.1-.05,.05-.03s.03-.02,.04-.02c.17-.13,.42-.1,.55,.08,.13,.17,.1,.42-.08,.55-.02,.01-.03,.02-.05,.03l-.04,.02Z"/>
              <path class="cls-5" d="M42.36,16.77c-.17,0-.33-.12-.38-.29-.13-.47-.35-1-.35-1-.08-.2,.01-.43,.21-.52,.2-.08,.43,0,.52,.21,0,.02,.24,.58,.38,1.1,.06,.21-.07,.43-.28,.48-.03,0-.07,.01-.1,.01Z"/>
              <path class="cls-5" d="M13.84,16.77s-.07,0-.1-.01c-.21-.06-.33-.27-.28-.48,.14-.52,.37-1.08,.38-1.1,.08-.2,.31-.29,.52-.21,.2,.08,.29,.31,.21,.52,0,0-.22,.53-.35,1-.05,.18-.21,.29-.38,.29Z"/>
              <path class="cls-5" d="M20.74,9.04c-.06,.03-.13,.07-.2,.09-.07,.03-.14,.05-.21,.08-.07,.03-.15,.05-.22,.07-.08,.02-.15,.03-.24,.05h0c-.08,.01-.16-.04-.17-.13,0-.03,0-.05,0-.08,.03-.09,.08-.16,.12-.23,.05-.07,.1-.13,.15-.19,.05-.06,.11-.12,.17-.17,.06-.05,.12-.11,.18-.15h0c.18-.12,.42-.08,.55,.1,.12,.18,.08,.42-.1,.55,0,0-.02,.01-.03,.02Z"/>
              <path class="cls-5" d="M35.87,8.37c.07,.05,.12,.1,.18,.15,.06,.05,.11,.11,.17,.17,.05,.06,.1,.12,.15,.19,.05,.07,.09,.15,.12,.23,.03,.08,0,.16-.08,.2-.02,.01-.05,.01-.08,0h-.01c-.08-.01-.16-.03-.24-.05-.07-.02-.15-.04-.22-.07-.07-.02-.14-.05-.21-.08-.07-.03-.14-.06-.2-.09-.19-.11-.26-.35-.15-.54,.11-.19,.35-.26,.54-.15,.01,0,.02,.01,.03,.02h0Z"/>
              <g>
                <path class="cls-5" d="M28.1,20.36c1.76,2.15,3.86,1.03,3.86,1.03,0,0,.51,4.63-3.86,4.72-4.37-.08-3.86-4.72-3.86-4.72,0,0,2.1,1.12,3.86-1.03Z"/>
                <path class="cls-5" d="M29.57,18.41c-.2-.67-1.47-.7-1.47-.7,0,0-1.27,.03-1.47,.7-.2,.67,.84,1.23,1.47,1.23s1.67-.56,1.47-1.23Z"/>
                <path class="cls-15" d="M25.28,24.99s2.52-3.31,5.64,0c0,0-2.85,2.49-5.64,0Z"/>
                <g>
                  <path class="cls-3" d="M28.1,20.36c.55,.83,1.77,1.26,1.77,1.26v.07c0,.96-.77,1.74-1.73,1.76-.02,0-.03,0-.05,0s-.03,0-.05,0c-.96-.01-1.73-.8-1.73-1.76v-.07s1.22-.43,1.77-1.26Z"/>
                  <path class="cls-5" d="M28.1,23.74h-.05c-1.11-.01-2.02-.93-2.02-2.05v-.07c0-.13,.08-.24,.2-.28,.01,0,1.14-.41,1.62-1.14,.05-.08,.15-.13,.25-.13s.19,.05,.25,.13c.49,.73,1.61,1.14,1.62,1.14,.12,.04,.2,.15,.2,.28v.07c0,1.12-.91,2.04-2.02,2.05h-.05Zm-1.47-1.92c.06,.74,.68,1.32,1.43,1.33h.04s.04,0,.04,0c.75,0,1.36-.59,1.43-1.33-.33-.14-.99-.47-1.47-.98-.48,.52-1.14,.84-1.47,.98Z"/>
                  <path class="cls-5" d="M28.39,20.36c.02,.17,.03,.34,.03,.51,0,.17,0,.34-.02,.51-.01,.17-.03,.34-.07,.51-.04,.17-.07,.34-.14,.51-.02,.05-.08,.07-.13,.05-.03-.01-.04-.03-.05-.05-.07-.17-.11-.34-.14-.51-.03-.17-.05-.34-.07-.51-.01-.17-.02-.34-.02-.51,0-.17,0-.34,.03-.51,.02-.16,.17-.28,.34-.25,.13,.02,.23,.13,.25,.25Z"/>
                </g>
                <path class="cls-5" d="M28.1,26.45s0,0,0,0c-1.34-.03-2.39-.46-3.12-1.29-1.31-1.49-1.08-3.71-1.07-3.81,.01-.11,.08-.21,.18-.27,.1-.05,.22-.05,.32,0,.07,.04,1.88,.95,3.43-.94,.07-.08,.16-.13,.27-.13s.2,.05,.27,.13c1.55,1.89,3.36,.98,3.43,.94,.1-.05,.22-.05,.32,0,.1,.05,.17,.15,.18,.27,.01,.09,.24,2.31-1.07,3.81-.73,.83-1.78,1.26-3.12,1.29,0,0,0,0,0,0Zm-3.53-4.57c0,.67,.13,1.93,.92,2.83,.59,.68,1.47,1.03,2.61,1.05,1.14-.02,2.01-.38,2.61-1.05,.79-.9,.92-2.16,.92-2.83-.74,.21-2.21,.38-3.53-.99-1.32,1.37-2.79,1.21-3.53,.99Z"/>
                <path class="cls-5" d="M28.49,19.42v.95l-.06-.21,.02,.03s.02,.02,.03,.04c.02,.02,.04,.05,.06,.07,.04,.05,.09,.1,.13,.14,.09,.09,.19,.18,.29,.26,.2,.17,.43,.3,.66,.41,.24,.1,.49,.16,.74,.2h.19s.06,.02,.1,.02h.1s.2-.01,.2-.01l.19-.03h.1s.06-.03,.09-.04l.18-.05,.17-.07,.04-.02,.04-.02,.08-.05c.2-.12,.37-.29,.47-.51,.1-.21,.14-.46,.13-.71,0-.26-.05-.52-.15-.8h0s0-.09,.05-.1c.02,0,.05,0,.07,0,.28,.17,.48,.48,.57,.81,.09,.33,.06,.7-.07,1.04-.13,.34-.37,.64-.66,.85l-.11,.08-.06,.04-.06,.03-.24,.12c-.08,.03-.16,.06-.24,.08-.04,.01-.08,.03-.12,.04l-.12,.03c-.08,.02-.16,.03-.25,.05l-.25,.02h-.13s-.08,0-.13,0h-.25c-.34-.04-.67-.12-.99-.25-.31-.13-.6-.31-.86-.53-.13-.11-.25-.22-.36-.35-.06-.06-.11-.13-.16-.19-.03-.03-.05-.07-.08-.1-.01-.02-.03-.04-.04-.05l-.04-.06h0c-.04-.06-.06-.13-.06-.2h0v-.95c0-.22,.18-.39,.39-.39s.39,.18,.39,.39Z"/>
                <path class="cls-5" d="M28.49,19.42v.95h0c0,.08-.02,.15-.06,.21h0l-.04,.06s-.03,.04-.04,.05c-.03,.04-.05,.07-.08,.1-.05,.07-.11,.13-.16,.19-.11,.12-.23,.24-.36,.35-.26,.21-.55,.4-.86,.53-.31,.13-.65,.21-.99,.24h-.25s-.08,0-.13,0h-.13s-.25-.03-.25-.03c-.08-.01-.16-.03-.25-.05l-.12-.03s-.08-.03-.12-.04c-.08-.03-.16-.05-.24-.08l-.24-.12-.06-.03-.06-.04-.11-.08c-.29-.21-.53-.51-.66-.85-.13-.34-.16-.71-.07-1.04,.09-.33,.28-.64,.57-.81,.04-.02,.09-.01,.11,.03,.01,.02,.01,.05,0,.07h0c-.1,.29-.15,.55-.15,.8,0,.25,.03,.5,.13,.71,.1,.21,.27,.38,.47,.51l.08,.05,.04,.02,.04,.02,.17,.07,.18,.05s.06,.02,.09,.02h.1s.19,.04,.19,.04h.2s.1,.01,.1,.01c.03,0,.06,0,.1,0h.19c.26-.05,.5-.11,.74-.21,.23-.1,.46-.24,.66-.41,.1-.08,.2-.17,.29-.26,.04-.05,.09-.09,.13-.14,.02-.02,.04-.05,.06-.07,.01-.01,.02-.02,.03-.04l.02-.03-.06,.21v-.95c0-.22,.18-.39,.39-.39s.39,.18,.39,.39Z"/>
                <path class="cls-5" d="M19.12,18.57c-.03-.25,0-.48,.07-.72,.07-.23,.2-.45,.36-.65,.16-.2,.38-.36,.61-.49l.18-.09c.06-.03,.12-.05,.19-.07,.13-.05,.25-.07,.38-.09,.5-.08,1.06,0,1.52,.26,.23,.13,.44,.29,.61,.48,.04,.05,.08,.1,.12,.15,.04,.05,.07,.1,.11,.16,.03,.05,.07,.11,.1,.16,.02,.03,.03,.06,.04,.09,0,.01,.01,.03,.02,.05l.02,.06c.1,.21,.01,.46-.2,.56-.21,.1-.46,.01-.56-.2,0,0,0,0-.01-.01l-.02-.02s-.02-.03-.04-.05l-.08-.1c-.06-.06-.12-.12-.18-.18-.13-.11-.26-.2-.4-.27-.14-.07-.29-.12-.45-.15-.04-.01-.08-.01-.12-.02-.04,0-.08,0-.12-.01h-.12s-.08,0-.12,0c-.08,0-.16,.02-.24,.04-.04,.01-.08,.01-.12,.03-.04,.01-.07,.03-.11,.04-.14,.06-.29,.14-.42,.25-.13,.11-.27,.23-.4,.36-.13,.14-.27,.29-.41,.45h-.01c-.04,.06-.12,.07-.17,.02-.02-.02-.04-.05-.04-.07Z"/>
                <path class="cls-5" d="M36.86,18.62c-.14-.16-.28-.32-.41-.45-.13-.14-.27-.26-.4-.36-.13-.11-.27-.19-.42-.25-.04-.01-.07-.03-.11-.04-.04-.02-.08-.02-.12-.03-.08-.02-.16-.03-.24-.04-.04,0-.08,0-.12,0h-.12s-.08,0-.12,0c-.04,0-.08,0-.12,.02-.16,.02-.3,.08-.45,.15-.14,.07-.28,.16-.4,.27-.06,.06-.12,.12-.18,.18l-.08,.1s-.03,.03-.04,.05l-.02,.02s-.01,.02-.01,.01c-.1,.21-.35,.3-.56,.2-.21-.1-.3-.35-.2-.56l.02-.06s.01-.03,.02-.05c.01-.03,.03-.06,.04-.09,.03-.06,.06-.11,.1-.16,.03-.05,.07-.1,.11-.16,.04-.05,.08-.1,.12-.15,.17-.19,.38-.36,.61-.48,.47-.26,1.02-.34,1.52-.26,.13,.02,.26,.04,.38,.09,.06,.02,.13,.04,.19,.07l.18,.09c.23,.13,.45,.29,.61,.49,.16,.2,.28,.42,.36,.65,.07,.23,.11,.47,.07,.72,0,.07-.07,.11-.14,.1-.03,0-.06-.02-.07-.04h-.01Z"/>
              </g>
            </g>
            <g>
              <path class="cls-15" d="M14.21,15.32s1.1-2.73,3.82-4.82c0,0-1.1-.79-2.61-.84-1.03-.04-1.91,.76-1.95,1.8-.03,.97,.09,2.34,.74,3.87Z"/>
              <g class="cls-16">
                <path class="cls-5" d="M14.22,12.12c.03-.96,.85-1.7,1.8-1.66,.64,.02,1.19,.19,1.61,.36,.13-.11,.25-.21,.39-.31,0,0-1.1-.79-2.61-.84-1.03-.04-1.91,.76-1.95,1.8-.03,.97,.09,2.34,.74,3.87,0,0,.1-.26,.33-.68-.28-.98-.34-1.85-.31-2.52Z"/>
              </g>
              <path class="cls-5" d="M14.21,15.71c-.16,0-.3-.09-.36-.24-.7-1.64-.81-3.1-.78-4.03,.02-.6,.28-1.16,.72-1.57,.45-.41,1.03-.63,1.64-.61,1.62,.06,2.78,.88,2.83,.92,.1,.07,.16,.19,.16,.31,0,.12-.06,.24-.15,.32-2.6,1.99-3.68,4.63-3.69,4.65-.06,.15-.2,.24-.36,.25h0Zm1.13-5.66c-.38,0-.74,.14-1.01,.4-.29,.27-.45,.63-.47,1.02-.02,.69,.04,1.7,.4,2.86,.5-.92,1.48-2.42,3.07-3.77-.43-.21-1.12-.47-1.93-.51-.02,0-.04,0-.06,0Z"/>
            </g>
            <g>
              <path class="cls-15" d="M41.99,15.32s-1.1-2.73-3.82-4.82c0,0,1.1-.79,2.61-.84,1.03-.04,1.91,.76,1.95,1.8,.03,.97-.09,2.34-.74,3.87Z"/>
              <g class="cls-16">
                <path class="cls-5" d="M41.98,12.12c-.03-.96-.85-1.7-1.8-1.66-.64,.02-1.19,.19-1.61,.36-.13-.11-.25-.21-.39-.31,0,0,1.1-.79,2.61-.84,1.03-.04,1.91,.76,1.95,1.8,.03,.97-.09,2.34-.74,3.87,0,0-.1-.26-.33-.68,.28-.98,.34-1.85,.31-2.52Z"/>
              </g>
              <path class="cls-5" d="M41.99,15.71h0c-.16,0-.3-.1-.36-.25-.01-.03-1.1-2.66-3.69-4.65-.1-.08-.16-.19-.15-.32,0-.12,.06-.24,.16-.31,.05-.03,1.21-.86,2.83-.92,.61-.02,1.19,.19,1.64,.61,.44,.41,.7,.97,.72,1.57,.03,.94-.07,2.4-.78,4.03-.06,.14-.2,.24-.36,.24Zm-3.12-5.16c1.59,1.35,2.57,2.85,3.07,3.77,.36-1.16,.43-2.16,.4-2.86-.01-.39-.18-.75-.47-1.02-.29-.27-.67-.41-1.07-.4-.82,.03-1.51,.29-1.93,.51Z"/>
            </g>
            <path class="cls-5" d="M20.57,52.13c-.25,0-.49,0-.74-.02-3.7-.16-6.45-1.34-8.19-3.51-2.6-3.23-2.27-7.74-1.85-10.14,.09-.51,.23-1.04,.44-1.62,.4-1.12,.43-2.47,.43-3.01-.41-.2-1.25-.68-2.08-1.62-1.03-1.17-2.24-3.31-2.17-6.87,.07-3.57,1.64-5.81,2.95-7.06,1-.96,2-1.49,2.51-1.73-.58-1.71-.86-3.52-.84-5.39,.02-2.2,1.77-4.01,3.97-4.12,2.82-.14,4.91,.86,5.54,1.21,3.38-1.7,7.39-1.68,7.56-1.68,.16,0,4.17-.02,7.55,1.68,.64-.35,2.73-1.35,5.54-1.21,2.2,.11,3.94,1.92,3.97,4.12,.02,1.87-.26,3.68-.84,5.39,.52,.24,1.51,.77,2.51,1.73,1.31,1.25,2.89,3.49,2.95,7.06,.07,3.56-1.14,5.7-2.17,6.87-.83,.94-1.67,1.43-2.08,1.62,0,.54,.02,1.88,.43,3.01,.21,.59,.35,1.12,.44,1.62,.42,2.4,.75,6.91-1.85,10.14-1.74,2.17-4.5,3.35-8.19,3.51-1.25,.05-2.57-.03-3.92-.25-1.05-.17-2.65-.37-4.35-.37s-3.3,.2-4.35,.37c-1.09,.18-2.15,.26-3.18,.26ZM15.53,7.83c-.16,0-.32,0-.48,.01-1.78,.09-3.2,1.55-3.22,3.34-.02,1.91,.29,3.74,.92,5.46,.04,.1,.03,.21-.01,.3-.04,.1-.13,.17-.22,.2-.01,0-1.32,.48-2.62,1.73-1.73,1.66-2.63,3.84-2.69,6.48-.05,2.6,.62,4.78,1.94,6.3,1,1.15,2.03,1.54,2.04,1.55,.15,.05,.25,.19,.26,.35,0,.08,.1,1.97-.46,3.55-.19,.54-.33,1.03-.41,1.5-.32,1.83-.8,6.41,1.69,9.51,1.59,1.98,4.16,3.06,7.61,3.21,1.19,.05,2.46-.03,3.76-.24,1.08-.17,2.73-.38,4.48-.38s3.4,.21,4.48,.38c1.3,.21,2.56,.29,3.76,.24,3.46-.15,6.02-1.23,7.61-3.21,2.49-3.1,2.01-7.69,1.69-9.51-.08-.46-.22-.95-.41-1.5-.57-1.58-.47-3.47-.46-3.55,0-.16,.11-.29,.26-.35,0,0,1.04-.39,2.04-1.55,1.32-1.53,1.99-3.71,1.94-6.3-.05-2.63-.95-4.81-2.69-6.48-1.3-1.25-2.61-1.73-2.62-1.73-.1-.04-.18-.11-.22-.2-.04-.09-.05-.2-.01-.3,.63-1.72,.94-3.56,.92-5.46-.02-1.78-1.43-3.25-3.22-3.34-3.07-.15-5.26,1.19-5.28,1.2-.12,.07-.27,.08-.39,.01-3.25-1.71-7.34-1.69-7.38-1.68-.05,0-4.14-.02-7.39,1.68-.12,.07-.27,.06-.39-.01-.02-.01-1.99-1.21-4.8-1.21Z"/>
          </g>
          <g>
            <path class="cls-3" d="M13.35,27.25c-3.43,2.71,1.74,8.64,1.74,8.64l5.38-4.02s-3.8-7.24-7.12-4.62Z"/>
            <path class="cls-5" d="M15.01,35.95c-.39-.21-.68-.51-.93-.83-.26-.32-.48-.67-.69-1.03-.21-.36-.41-.71-.6-1.08-.19-.37-.36-.75-.5-1.14-.15-.39-.27-.8-.34-1.22-.08-.42-.11-.85-.08-1.29,.04-.44,.16-.88,.37-1.28l.08-.15s.06-.09,.09-.14l.1-.14,.05-.07,.05-.06,.22-.25,.25-.22c.33-.29,.74-.52,1.19-.63,.45-.12,.92-.1,1.36,.01,.43,.11,.83,.31,1.19,.54,.36,.23,.69,.5,1,.78,.61,.57,1.14,1.21,1.63,1.87,.12,.17,.24,.33,.35,.5,.12,.17,.24,.33,.36,.5,.11,.17,.22,.35,.3,.54,.08,.19,.13,.4,.12,.64,0,.07-.06,.12-.13,.12-.02,0-.04,0-.06-.02h0c-.2-.12-.34-.27-.47-.42-.13-.16-.24-.32-.34-.49-.1-.17-.2-.34-.31-.51-.11-.16-.23-.33-.34-.49-.47-.64-.98-1.25-1.55-1.78-.28-.26-.59-.51-.91-.71-.32-.2-.66-.37-1.01-.46-.35-.09-.7-.1-1.04-.01-.34,.09-.66,.26-.93,.5-.57,.46-.91,1.13-.98,1.87-.03,.37,0,.74,.07,1.12,.07,.37,.18,.75,.31,1.11,.14,.36,.29,.72,.47,1.07,.18,.35,.37,.7,.59,1.02,.22,.33,.45,.65,.66,.98,.22,.33,.42,.67,.55,1.08h0c.02,.06-.01,.13-.07,.15-.03,0-.06,0-.09,0Z"/>
            <path class="cls-5" d="M13.01,28.22c.02,.05,.04,.13,.05,.19l.06,.21c.04,.14,.08,.28,.12,.42,.05,.14,.09,.28,.14,.43,.04,.15,.1,.29,.14,.45h0s-.01,.09-.06,.1c-.02,0-.04,0-.06,0-.15-.09-.28-.2-.39-.33-.11-.13-.21-.26-.3-.41-.09-.14-.16-.3-.22-.46-.03-.08-.05-.16-.08-.24-.02-.09-.04-.16-.05-.27-.02-.18,.11-.33,.29-.35,.15-.01,.29,.08,.34,.22v.03Z"/>
            <path class="cls-5" d="M14.82,26.98c.02,.05,.04,.13,.05,.19l.06,.21c.04,.14,.08,.28,.12,.42,.05,.14,.09,.28,.14,.43,.04,.15,.1,.29,.14,.45h0s-.01,.09-.06,.1c-.02,0-.04,0-.06,0-.15-.09-.28-.2-.39-.33-.11-.13-.21-.26-.3-.41-.09-.14-.16-.3-.22-.46-.03-.08-.05-.16-.08-.24-.02-.09-.04-.16-.05-.27-.02-.18,.11-.33,.29-.35,.15-.01,.29,.08,.34,.22v.03Z"/>
          </g>
          <g>
            <path class="cls-3" d="M42.85,27.25c3.43,2.71-1.74,8.64-1.74,8.64l-5.38-4.02s3.8-7.24,7.12-4.62Z"/>
            <path class="cls-5" d="M41.03,35.81c.13-.41,.34-.75,.55-1.08,.21-.33,.44-.66,.66-.98,.22-.33,.41-.67,.59-1.02,.18-.35,.34-.71,.47-1.07,.14-.36,.25-.74,.31-1.11,.07-.37,.1-.75,.07-1.12-.06-.73-.4-1.4-.98-1.87-.28-.24-.6-.41-.93-.5-.34-.09-.69-.08-1.04,.01-.35,.09-.69,.25-1.01,.46-.32,.2-.62,.45-.91,.71-.57,.53-1.08,1.14-1.55,1.78-.12,.16-.23,.32-.34,.49-.11,.16-.21,.34-.31,.51-.1,.17-.21,.34-.34,.49-.13,.15-.27,.3-.47,.42h0c-.06,.04-.13,.02-.17-.04-.01-.02-.02-.04-.02-.06,0-.24,.05-.44,.12-.64,.08-.19,.18-.37,.3-.54,.12-.17,.24-.33,.36-.5,.12-.17,.23-.34,.35-.5,.49-.66,1.01-1.3,1.63-1.87,.31-.28,.64-.55,1-.78,.36-.23,.76-.42,1.19-.54,.43-.11,.91-.13,1.36-.01,.45,.11,.85,.34,1.19,.63l.25,.22,.22,.25,.05,.06,.05,.07,.1,.14s.07,.09,.09,.14l.08,.15c.21,.4,.33,.84,.37,1.28,.04,.44,0,.87-.08,1.29-.08,.42-.19,.83-.34,1.22-.15,.39-.31,.77-.5,1.14-.19,.37-.39,.73-.6,1.08-.21,.36-.43,.71-.69,1.03-.26,.32-.54,.62-.93,.83-.06,.03-.13,0-.15-.05-.01-.03-.02-.06,0-.09h0Z"/>
            <path class="cls-5" d="M43.82,28.32c0,.1-.03,.18-.05,.27-.02,.08-.05,.16-.08,.24-.06,.16-.13,.31-.22,.46-.08,.15-.18,.28-.3,.41-.11,.12-.24,.24-.39,.33-.04,.02-.09,.01-.11-.03-.01-.02-.01-.04,0-.06h0c.04-.17,.1-.31,.14-.46,.05-.14,.09-.29,.14-.43,.04-.14,.08-.28,.12-.42l.06-.21c.02-.07,.04-.14,.05-.19v-.03c.06-.17,.24-.26,.41-.21,.15,.05,.24,.19,.22,.34Z"/>
            <path class="cls-5" d="M42.01,27.08c0,.1-.03,.18-.05,.27-.02,.08-.05,.16-.08,.24-.06,.16-.13,.31-.22,.46-.08,.15-.18,.28-.3,.41-.11,.12-.24,.24-.39,.33-.04,.02-.09,.01-.11-.03-.01-.02-.01-.04,0-.06h0c.04-.17,.1-.31,.14-.46,.05-.14,.09-.29,.14-.43,.04-.14,.08-.28,.12-.42l.06-.21c.02-.07,.04-.14,.05-.19v-.03c.06-.17,.24-.26,.41-.21,.15,.05,.24,.19,.22,.34Z"/>
          </g>
        </g>
      </g>
    </g>
  </g>
</svg>