<?xml version="1.0" encoding="UTF-8"?>
<svg xmlns="http://www.w3.org/2000/svg" xmlns:xlink="http://www.w3.org/1999/xlink" viewBox="0 0 64 64">
  <defs>
    <style>
      .cls-1 {
        fill: url(#linear-gradient-2);
      }

      .cls-2 {
        fill: #feac52;
      }

      .cls-3 {
        fill: #d27423;
      }

      .cls-4 {
        fill: #ffa241;
      }

      .cls-5 {
        fill: #654a52;
      }

      .cls-6 {
        fill: #050305;
      }

      .cls-7 {
        fill: #f1898a;
      }

      .cls-8 {
        fill: #8c8587;
      }

      .cls-8, .cls-9, .cls-10, .cls-11 {
        mix-blend-mode: overlay;
      }

      .cls-12 {
        isolation: isolate;
      }

      .cls-13 {
        fill: #febc6c;
      }

      .cls-14 {
        fill: #fff;
      }

      .cls-14, .cls-11 {
        opacity: .5;
      }

      .cls-15 {
        fill: #030206;
      }

      .cls-16, .cls-17 {
        fill: #2b2829;
      }

      .cls-16, .cls-18 {
        mix-blend-mode: screen;
      }

      .cls-19 {
        fill: #dcc2a7;
      }

      .cls-20 {
        fill: #553a44;
      }

      .cls-21 {
        fill: #9fb8bc;
      }

      .cls-22 {
        opacity: .3;
      }

      .cls-9 {
        fill: #8c9399;
      }

      .cls-23 {
        fill: #fdfdfe;
      }

      .cls-24 {
        mix-blend-mode: multiply;
      }

      .cls-24, .cls-11 {
        fill: #88b6e4;
      }

      .cls-25 {
        fill: #dbeaee;
      }

      .cls-26 {
        fill: #fda84b;
      }

      .cls-10 {
        fill: #8c9499;
      }

      .cls-27 {
        fill: #ffb6b2;
      }

      .cls-28 {
        fill: url(#linear-gradient);
      }

      .cls-29 {
        fill: #a1b9be;
      }
    </style>
    <linearGradient id="linear-gradient" x1="64" y1="34.03" x2="5.45" y2="34.03" gradientUnits="userSpaceOnUse">
      <stop offset="0" stop-color="#cf965b"/>
      <stop offset=".25" stop-color="#ca9257"/>
      <stop offset=".51" stop-color="#be864c"/>
      <stop offset=".78" stop-color="#a9733a"/>
      <stop offset="1" stop-color="#925d26"/>
    </linearGradient>
    <linearGradient id="linear-gradient-2" x1="61.28" y1="31.49" x2="1.36" y2="31.49" gradientUnits="userSpaceOnUse">
      <stop offset="0" stop-color="#e8b886"/>
      <stop offset=".25" stop-color="#e3b482"/>
      <stop offset=".5" stop-color="#d7a877"/>
      <stop offset=".76" stop-color="#c29464"/>
      <stop offset="1" stop-color="#a97c4e"/>
    </linearGradient>
  </defs>
  <g class="cls-12">
    <g id="_Слой_2" data-name="Слой 2">
      <g id="_Слой_1-2" data-name="Слой 1">
        <g>
          <g>
            <path class="cls-28" d="M60.49,6.68c-1.75-1.6-4.41-2.62-7.38-2.62H14.98c-5.26,0-9.53,3.19-9.53,7.11V55.87c0,2.22,1.37,4.2,3.51,5.51,1.75,1.6,4.41,2.62,7.38,2.62H54.47c5.26,0,9.53-3.19,9.53-7.11V12.19c0-2.22-1.37-4.2-3.51-5.51Z"/>
            <path class="cls-1" d="M57.77,4.65c-.41-.37-.86-.71-1.36-1.02-1.75-1.6-4.41-2.62-7.38-2.62H10.89C5.64,1.02,1.36,4.21,1.36,8.13V52.83c0,2.22,1.37,4.2,3.51,5.51,.41,.37,.86,.71,1.36,1.02,1.75,1.6,4.41,2.62,7.38,2.62H51.74c5.26,0,9.53-3.19,9.53-7.11V10.16c0-2.22-1.37-4.2-3.51-5.51Z"/>
            <path class="cls-19" d="M47.66,0H9.53C4.28,0,0,3.19,0,7.11V51.81c0,3.92,4.28,7.11,9.53,7.11H47.66c5.26,0,9.53-3.19,9.53-7.11V7.11c0-3.92-4.28-7.11-9.53-7.11Z"/>
          </g>
          <path class="cls-10" d="M5.89,14.33c-.01-2.85,.17-6.06,2.96-8,2.12-1.47,5.21-1.81,8.09-1.99,6.68-.42,13.42-.36,20.09,.18,3.3,.26,6.79,.71,9.28,2.36,3.69,2.45,3.93,6.61,3.9,10.29-.08,9.24-.15,18.48-.23,27.72-.02,2.2-.08,4.51-1.54,6.42-1.54,2-4.45,3.25-7.46,3.8-3.01,.55-6.15,.48-9.24,.41-5.15-.12-10.31-.24-15.43-.71-2.79-.26-9.22-.18-10.19-2.65-.66-1.68-.07-4.15-.07-5.9,0-2.02-.02-4.03-.03-6.05-.02-4.03-.04-8.06-.06-12.1-.02-4.59-.04-9.18-.07-13.78Z"/>
          <path class="cls-9" d="M20.65,20.31c-3.25-.39-6.54-1.19-8.94-2.87-2.39-1.69-3.67-4.43-2.38-6.69,.89-1.57,2.87-2.69,5.01-3.3,2.14-.61,4.45-.77,6.74-.89,5.74-.3,11.52-.39,17.22,.17,2.22,.22,4.55,.57,6.21,1.7,2.93,1.99,2.55,5.66,.4,8.14-5.33,6.17-16.02,4.75-24.26,3.75Z"/>
          <path class="cls-16" d="M9.75,46.11c-.57-1.77-.49-3.61-.4-5.43,.37-7.55,.74-15.09,1.11-22.64,.14-2.75,.39-5.74,2.81-7.82,2.2-1.89,5.7-2.58,9.03-2.93,4.04-.42,8.14-.47,12.2-.14,3.7,.3,7.69,1.06,9.9,3.3,1.87,1.9,2.03,4.41,2.12,6.77,.33,9.07,.66,18.2-1.13,27.18-.4,1.99-1,4.12-2.97,5.5-2.25,1.58-5.63,1.75-8.72,1.75-5.06,0-10.12-.25-15.13-.73-4.65-.45-7.58-.99-8.81-4.8Z"/>
          <path class="cls-24" d="M47.66,1.02h-1.63c4.51,0,8.17,2.73,8.17,6.1V51.81c0,3.37-3.66,6.1-8.17,6.1h1.63c4.51,0,8.17-2.73,8.17-6.1V7.11c0-3.37-3.66-6.1-8.17-6.1Z"/>
          <path class="cls-11" d="M44.83,56.21c2.15-.26,4.29-1.07,5.39-2.47,.86-1.09,1-2.4,1.05-3.66,.05-1.24,.02-2.47-.08-3.71-.07-.81-.31-1.78-1.32-2.08-.75-.23-1.65,.04-2.16,.52-.51,.47-.69,1.1-.74,1.7-.11,1.25,.25,2.52-.08,3.75-.39,1.42-1.68,2.63-3.23,3.51-1.13,.64-4.12,1.25-4.5,2.21,1.43,.58,4.04,.42,5.67,.23Z"/>
          <path class="cls-8" d="M3.88,2.71c-1.55,1.11-2.52,2.67-2.52,4.4v26.08c12.35-3.44,32.73-4.39,54.47,14.33v-14.97C26.86,28.05,11.39,13.17,3.88,2.71Z"/>
          <path class="cls-14" d="M3.58,9.23c.26-1.79,1.27-3.6,3.21-4.67,2.66-1.47,6.31-1.25,9.61-.96,1.02,.09,2.32,.39,2.36,1.15,.03,.67-.97,1.08-1.84,1.21-2.2,.34-4.63-.04-6.59,.77-1.42,.58-2.33,1.69-2.8,2.85s-.56,2.38-.73,3.58c-.07,.46-.15,.93-.44,1.34-1.08,1.49-2.05,.48-2.43-.37-.6-1.35-.53-3.5-.32-4.91Z"/>
          <g class="cls-18">
            <path class="cls-17" d="M36.44,9.78c.84,1.55-.18,3.32-2.26,3.94-2.08,.62-4.45-.13-5.29-1.69-.84-1.55,.18-3.32,2.26-3.94,2.08-.62,4.45,.13,5.29,1.69Z"/>
            <path class="cls-17" d="M43.37,11.71c.45,.84-.09,1.78-1.21,2.12-1.12,.34-2.39-.07-2.84-.91-.45-.84,.09-1.78,1.21-2.12,1.12-.34,2.39,.07,2.84,.91Z"/>
            <path class="cls-17" d="M40.11,16.13c.37,.7-.08,1.49-1.01,1.77-.93,.28-1.99-.06-2.37-.76-.37-.7,.08-1.49,1.01-1.77,.93-.28,1.99,.06,2.37,.76Z"/>
          </g>
          <g class="cls-18">
            <path class="cls-17" d="M23.64,45.38c.8,1.49-.17,3.17-2.16,3.77-1.99,.6-4.25-.13-5.05-1.61-.8-1.49,.17-3.17,2.16-3.77,1.99-.6,4.25,.13,5.05,1.61Z"/>
            <path class="cls-17" d="M20.79,40.39c.22,.41-.05,.87-.59,1.03-.54,.16-1.16-.03-1.38-.44-.22-.41,.05-.87,.59-1.03,.54-.16,1.16,.03,1.38,.44Z"/>
            <path class="cls-17" d="M15.3,41.5c.45,.84-.09,1.78-1.21,2.12-1.12,.34-2.39-.07-2.84-.91-.45-.84,.09-1.78,1.21-2.12,1.12-.34,2.39,.07,2.84,.91Z"/>
          </g>
          <g class="cls-22">
            <ellipse class="cls-24" cx="47.45" cy="37.02" rx="3.85" ry="2.87"/>
            <path class="cls-24" d="M53.92,29.6c.58,1.08-.12,2.3-1.57,2.74-1.45,.43-3.09-.09-3.67-1.17-.58-1.08,.12-2.3,1.57-2.74,1.45-.43,3.09,.09,3.67,1.17Z"/>
            <path class="cls-24" d="M45.56,30.99c.37,.7-.08,1.49-1.01,1.77-.93,.28-1.99-.06-2.37-.75-.37-.7,.08-1.49,1.01-1.77,.93-.28,1.99,.06,2.37,.76Z"/>
            <path class="cls-24" d="M10.65,25.55c.41,.75-.09,1.61-1.1,1.92-1.01,.3-2.16-.06-2.57-.82-.41-.75,.09-1.61,1.1-1.92,1.01-.3,2.16,.06,2.57,.82Z"/>
            <path class="cls-24" d="M11.29,21.09c.21,.39-.04,.84-.57,1-.53,.16-1.13-.03-1.34-.43-.21-.39,.04-.84,.57-1,.53-.16,1.13,.03,1.34,.43Z"/>
            <path class="cls-24" d="M6.59,20.15c.34,.63-.07,1.34-.91,1.59-.84,.25-1.79-.05-2.13-.68-.34-.63,.07-1.34,.91-1.59,.84-.25,1.79,.05,2.13,.68Z"/>
          </g>
        </g>
      </g>
      <g id="_Слой_7" data-name="Слой 7">
        <g>
          <path class="cls-15" d="M47.72,26.57c-1.56-.85-3.33-1.21-5.09-1.38-.03,0-.06-.03-.07-.06-.44-2.68-1.28-5.21-2.51-7.57,0-.02,0-.04,.01-.06,1.02-.91,1.76-2,2.22-3.26,.78-2.17,.33-4.83-1.23-6.56-1.14-1.26-2.93-1.98-4.62-1.68-2.32,.42-3.74,2.47-4.19,4.65,0,0,0,0,0,0,0,.02-.03,.04-.06,.03-.38-.12-.79-.15-1.22-.11-.06,0-.07-.02-.04-.06,.29-.42,.54-1.2,.07-1.58-.49-.39-1.36-.08-1.82,.24-.07,.05-.1,.03-.08-.05,.12-.6,.28-1.19,.48-1.79,.03-.1,.05-.2,.06-.31,.02-.58-.61-.47-.96-.33-1.56,.61-2.85,2.01-3.63,3.46,0,0,0,.01-.01,.02-.02,.02-.05,.01-.07-.01-.23-.34-1.07-1.23-1.45-.51-.16,.3-.11,.89-.1,1.25,0,.03-.02,.06-.05,.06l-.98,.21h0s-.05-.01-.05-.04c-.37-2.43-1.91-4.89-4.58-5.17-2.86-.31-5.14,1.86-5.75,4.49-.62,2.68,.37,5.06,2.26,6.93,.02,.02,.02,.04,0,.07-1.28,2.37-2.03,4.99-2.38,7.66,0,.02-.02,.04-.04,.04-1.74,.18-3.59,.56-5.08,1.37-.2,.11-.17,.32,.1,.19,1.57-.74,3.25-1.01,4.94-1.22,0,0,0,0,0,0,.01,0,.03,.01,.03,.03l-.09,1.44s-.02,.04-.04,.04c-1.73,.34-3.35,.96-4.86,1.87-.24,.14-.12,.29,.1,.17,1.5-.8,3.09-1.35,4.76-1.66,0,0,0,0,0,0,.02,0,.03,.01,.03,.03,.05,.59,.16,1.17,.34,1.74,0,.02,0,.04-.02,.05-.62,.31-1.2,.68-1.75,1.09-.19,.14-.05,.25,.12,.14,.54-.34,1.11-.66,1.69-.96,0,0,0,0,0,0,.04-.02,.08,0,.09,.03,.35,.77,.81,1.47,1.38,2.08,.01,.01,.01,.03,0,.05-1.4,1.8-2.45,4.87-1.01,6.95,.01,.02,.02,.04,.02,.07-.12,1.09-.16,2.03-.1,2.82,.23,3.11,1.86,5.81,4.45,7.61,0,0,0,0,.01,.01,.01,.02,0,.04-.01,.06-.28,.17-.53,.37-.75,.6l-.24,.29c-.12,.2-.21,.42-.27,.65-.12,.79,.61,1.59,1.4,1.16,.02-.01,.04,0,.05,.01,.34,.43,1.02,.54,1.41,.1,0,0,0,0,0,0,.01-.01,.03-.01,.04,0,.4,.44,1.09,.36,1.66,.23,.49-.25,.94-.43,1.5-.52,.66-.1,1.25-.22,1.77-.66,.03-.03,.08-.04,.12-.03,2.51,.55,4.98,.54,7.41-.03,.04-.01,.09,0,.13,.03,.49,.38,1.01,.6,1.57,.66,.44,.04,.91,.2,1.43,.46,.21,.1,.49,.17,.85,.18,.38,.05,.72-.04,1-.28,.02-.01,.04-.01,.06,0,.48,.36,.94,.33,1.38-.09,.02-.02,.06-.03,.09-.02,.75,.28,1.39-.37,1.38-1.11l-.05-.21-.24-.49-.28-.35c-.24-.24-.51-.43-.79-.59,0,0-.01,0-.02-.01-.02-.02-.01-.05,.01-.07,3.47-2.47,4.96-6.28,4.37-10.47,0-.03,0-.05,.02-.07,.45-.7,.66-1.44,.65-2.2-.03-1.74-.59-3.3-1.69-4.67-.02-.03-.02-.06,0-.09,.55-.61,.99-1.28,1.3-2.01,.01-.03,.04-.04,.07-.03,.54,.21,1.04,.48,1.52,.79,.09,.06,.21,.12,.36,.19,.02,.01,.05,.01,.07,0,.14-.05,.05-.14-.02-.19-.57-.42-1.18-.78-1.82-1.09-.03-.01-.04-.04-.03-.07,.2-.56,.3-1.14,.32-1.73,0,0,0,0,0,0,0-.02,.02-.03,.04-.02,1.63,.32,3.19,.87,4.66,1.65,.09,.05,.18,.14,.26,.01,.01-.02,0-.04,0-.06-.07-.07-.18-.15-.31-.22-1.46-.84-2.98-1.42-4.57-1.76-.02,0-.04-.02-.04-.04l-.1-1.4h0s.02-.03,.03-.03c1.74,.18,3.44,.49,5.01,1.24,.02,.01,.05,.01,.07,.01,.05-.01,.07-.03,.08-.05,0-.06-.03-.13-.08-.16Zm-6.15-12.53c-.39,1.04-.99,1.96-1.83,2.78-.07,.07-.13,.06-.16-.04-.34-.55-.71-1.09-1.11-1.62-.69-.89-1.49-1.69-2.38-2.41-.02-.01-.02-.04-.01-.06,.39-.83,.92-1.54,1.58-2.13,.89-.8,2.17-1.27,3.25-.48,1.31,.96,1.17,2.58,.65,3.95Zm-6.71-6.55c2.38-1.81,5.4-.45,6.51,2.06,.04,.08,.02,.09-.05,.04-.21-.17-.43-.3-.66-.39-.97-.31-1.89-.2-2.75,.33-1.07,.71-1.86,1.65-2.38,2.81,0,0,0,0,0,0-.01,.02-.03,.02-.05,.01-.81-.5-1.64-.9-2.48-1.21-.02,0-.03-.03-.03-.05,.14-1.39,.82-2.74,1.89-3.6Zm-21.8,2.11c.36-.85,.9-1.53,1.63-2.06,1.56-1.2,3.59-1.18,5.08,.09,.71,.63,1.21,1.41,1.5,2.32,.14,.45,.26,.91,.35,1.37,0,.02,0,.04-.03,.05-.42,.14-.84,.3-1.24,.47-.4,.17-.8,.37-1.18,.58-.03,.02-.06,0-.08-.02-.28-.51-.59-.99-.94-1.43-.36-.47-.78-.88-1.27-1.21-.85-.65-1.81-.86-2.87-.62l-.46,.14-.47,.35s-.05,.02-.03-.02Zm.46,.5c2.09-1.34,4.17,.99,4.99,2.68,0,.02,0,.04-.01,.05-.61,.43-1.19,.89-1.74,1.39-.75,.72-1.41,1.51-1.99,2.37-.02,.14-.1,.17-.2,.07-1.42-1.49-3.17-4.87-1.05-6.56Zm-.82,25.45c.21-1.2,.67-2.3,1.39-3.32,.01-.02,.04-.03,.06-.02,0,0,.01,0,.01,0,0,0,0,0,0,0,.09,.07,.15,.13,.18,.2,.6,.5,1.19,.92,1.77,1.26,1.21,.71,2.48,1.81,3.49,2.9,.2,.19,.38,.39,.54,.62,.44,.49,.83,1.29,.37,1.89-.06,.07-.12,.07-.18,0-.12-.08-.23-.16-.33-.26-.22-.2-.7,.13-.36,.42,.14,.12,.27,.28,.38,.46,.41,.63-.42,1.01-.92,.68-.23-.15-.67-.64-.79-.02l.3,.34s0,0,0,.01c0,0,0,0,0,.01,0,0,0,0,0,0,0,0,0,0,0,0,0,0,0,0,0,.01h0s0,.01,0,.01c0,0,0,0,0,.01,0,0,0,0,0,0-.6,.39-1.26,.09-1.8-.24-.36-.1-.7-.26-1.01-.46-.75-.28-1.42-.69-1.99-1.24-1-.94-1.33-1.93-1.09-3.3Zm10.11,15.14c-.29,.17-.61,.27-.94,.29-.47,.03-.91,.15-1.33,.36-.34,.16-.6,.26-.79,.3-.25,.04-.9,.07-.81-.36,.03-.14,.01-.24-.06-.31-.02-.01-.03-.03-.04-.04l-.25-.13-.18,.22s-.03,.04-.04,.07c-.01,.25-.12,.46-.4,.49-.34,.03-.49-.14-.46-.51,0-.02,.02-.04,.04-.04h.35s-.07-.03-.07-.03l-.34-.09s-.05-.04-.05-.08c0-.08,0-.14-.02-.18-.13-.02-.22,.02-.28,.13l-.18,.2-.02,.09c-.08,.5-.94,.1-.48-.54,.22-.36,.51-.65,.86-.87,1.84-.83,3.8,.35,5.49,1,.02,0,.02,.02,0,.03Zm15.43,.12c.02,.28-.3,.72-.57,.41-.07-.08-.17-.59-.36-.53,0,.07-.04,.11-.11,.12l-.13,.14c.06,.19,.04,.37-.06,.53-.01,.02-.03,.04-.05,.04-.57,.19-.69-.07-.77-.56-.07-.06-.15-.09-.24-.1h-.18c-.05,.02-.09,.05-.12,.11,.3,.98-.96,.64-1.35,.43-.44-.24-.91-.39-1.41-.45-.46-.06-.7-.1-1.04-.31-.02-.01-.02-.02,0-.03,1.31-.51,3.81-1.86,5.2-1.03,.57,.22,.96,.62,1.18,1.2Zm.41-3.7c-.52,.56-1.17,1.09-1.95,1.61-.15,.1-.3,.13-.44,.08-.55-.02-1.09,.03-1.63,.13-.69,.2-1.22,.39-1.59,.55-3.27,1.44-7.27,1.62-10.62,.34-1.16-.44-1.8-.71-2.77-.94-.5-.08-1-.09-1.5-.05-.23,.02-.37-.06-.53-.2-1.19-.77-2.18-1.76-2.96-2.95-1.21-1.89-1.55-3.97-1.38-6.18,0,0,0,0,0,0,0,0,0,0,0,0,0,0,0,0,0,0,0,0,0,0,0,0,0,0,0,0,0,0,0,0,0,0,0,0,0,0,0,0,0,0,.08,.04,.14,.1,.19,.17,1.11,.77,2.26,1.24,3.49,1.76,.29,.12,.6,.2,.91,.22,.49,.02,.88-.15,1.18-.51,.01-.02,.04-.03,.06-.02,.71,.13,1.21-.11,1.52-.71,.1-.2,.1-.42,0-.66,0-.02,0-.04,.02-.05,.87-.42,.78-1.47,.42-2.21-.32-.56-.71-1.06-1.16-1.52l-.98-.98c-.05-.05-.04-.07,.03-.06l1.32,.3c4.57,.97,9.37,1.04,13.92-.04l1.34-.38s.05,0,.02,.03l-1.01,1.09c-.46,.51-.85,1.07-1.15,1.68-.32,.67-.32,1.72,.5,2.06,.02,0,.03,.03,.02,.05-.11,.31-.07,.6,.1,.85,.33,.47,.79,.65,1.4,.53,.02,0,.05,0,.06,.02,.27,.4,.6,.48,1.12,.51,.3-.01,.57-.07,.81-.17,1.09-.45,2.37-1.02,3.42-1.77l.2-.18c.07-.04,.12-.1,.16-.17,.03-.05,.05-.05,.05,.01,.2,2.91-.6,5.63-2.63,7.75Zm3.05-12.12c.32,1.4,.17,2.65-.86,3.71-.54,.55-1.18,.99-1.91,1.31-.4,.23-.82,.42-1.27,.58-.38,.29-.81,.41-1.3,.35-.1-.01-.19-.05-.28-.1-.2-.14,.16-.3,.21-.49-.06-.15-.17-.25-.33-.29-.37,.26-.66,.7-1.18,.39-.27-.16-.34-.38-.21-.65,.13-.23,.3-.42,.49-.58,.11-.09,.13-.19,.05-.31-.33-.53-.82,.51-.99,.18-.75-.64,.38-2.06,.83-2.54,.5-.58,1.05-1.12,1.63-1.62,.76-.64,1.2-1.05,1.89-1.44,.6-.34,1.16-.74,1.69-1.2,.02-.04,.06-.08,.1-.1,.02-.01,.04,0,.06,.01,.7,.81,1.15,1.75,1.35,2.81Zm.2-8.16s0,0,0,0c0,0,0,0,0,0,0,0,0,0,0,0,0,0,0,0,0,0,0,0,0,0,0,0,0,0,0,0-.01,0,0,0,0,0,0,0l-.8-.13-.69-.11c-.5-.08-.99-.14-1.46-.16-1.24-.06-2.67-.03-4.29,.08-.76,.05-1.34,.11-1.73,.17-.09,.01-.19,.13-.03,.14,.4,.03,.91-.02,1.19-.03,1.73-.05,3.33-.09,4.97,0l1.17,.15s.06,0,.09,.02l.87,.12,.69,.13s.03,.02,.03,.05c-.02,.54-.1,1.08-.25,1.61,0,0,0,0,0,0,0,0,0,0,0,0,0,0,0,.01-.01,.01,0,0,0,0,0,0,0,0-.02,0-.02,0,0,0,0,0,0,0l-.71-.3-.88-.29-.69-.2c-2.36-.69-4.96-.99-7.4-1.03-.09,0-.18,.05-.1,.14,.01,.02,.04,.03,.06,.03,.43,.07,.94,.14,1.52,.19,1.91,.19,3.89,.49,5.8,.99l.8,.24,.91,.3,.54,.19s.05,.04,.05,.07c0,0,0,.01,0,.02,0,0,0,.01,0,.02-.38,.9-.93,1.67-1.64,2.3-2.73,2.37-6.48,3.3-9.98,3.56-1.66,.17-3.32,.18-4.98,.02-2.76-.17-5.35-.76-7.75-1.78-.7-.3-1.38-.74-2.07-1.35-.9-.77-1.62-1.7-2.15-2.8,0-.02,0-.04,0-.05,0,0,0,0,0,0,0,0,0,0,0,0,0,0,0,0,0,0,0,0,.01,0,.02,0l.92-.31,1-.3c2.08-.54,4.18-.91,6.31-1.12,.78-.08,1.26-.13,1.43-.16,.23-.04,.21-.17,.01-.18-.11,0-.28,0-.51,0-1.13,.05-1.88,.1-2.28,.14-1.63,.19-3.24,.49-4.83,.91l-1.07,.32-1.08,.4s-.04,0-.04-.02c0,0,0,0,0,0-.16-.52-.24-1.04-.24-1.58,0-.02,.02-.04,.04-.04l.89-.14,.17-.02c.57-.11,1.14-.19,1.71-.23,2.07-.14,3.78-.04,6.21,0,.16,0,.32-.12,.04-.15-2.02-.25-4.04-.33-6.07-.23l-2.03,.25-.92,.15s-.02,0-.03-.01c0,0,0,0,0,0,0,0,0,0,0,0,0,0,0,0,0,0l.06-1.3s.03-.06,.06-.06l.42-.02s.04,0,.06,0c0,0,0,0,0,0,1.07-.07,2.13-.04,3.19,.08,1.84,.17,3.67,.46,5.48,.86,.09,.02,.19,.02,.28,0,.07-.01,.07-.03,0-.06-.25-.1-.51-.19-.78-.26-1.51-.41-3.04-.7-4.59-.89-1.16-.12-2.33-.15-3.49-.09l-.54,.02s0,0,0,0c0,0,0,0-.01,0,0,0,0,0,0,0,0,0,0,0-.01-.02,0,0,0,0,0-.01h0c.37-2.92,1.35-6.19,3.08-8.58,1.65-2.33,4.21-4.07,7.02-4.65,.39-.08,1.22-.11,1.27-.62,.03-.35,.04-.69,.03-1.01,0-.07,.02-.08,.07-.03,.34,.36,.56,.74,.66,1.16,.02,.08,.07,.14,.15,.17,.21,.09,.35,.04,.4-.14,.16-.49,.38-.94,.66-1.37,.62-1.02,1.44-1.83,2.48-2.42l.27-.15s.07-.01,.05,.04l-.3,1.03c-.08,.44-.12,.88-.12,1.32,0,.37,.26,.47,.54,.27,.39-.27,1.09-.7,1.6-.63,.02,0,.04,.02,.06,.03,.05,.07,.05,.15-.02,.22-.03,.15-.08,.27-.14,.38-.2,.36-.42,.69-.68,1.01,.04,.2,.15,.31,.36,.33,.7-.28,1.41-.3,2.14-.06,.24,.08,.27,.21,.09,.39-.2,.23-.45,.4-.74,.51-.75,.3,.69,.63,.85,.67,.17,.05,.3,.02,.38-.08-.04-.18-.14-.32-.29-.41,0,0,0,0,0,0,0,0,0,0,0,0,0,0,0,0,0-.01s0,0,0-.01c0,0,0,0,0,0l.53-.47c1.25,.47,2.36,1.16,3.33,2.07,1.49,1.4,2.67,3.09,3.53,5.08,.88,2.02,1.49,4.02,1.83,5.99,0,0,0,0,0,0,0,0,0,0,0,0,0,0-.01,.01-.02,.02,0,0,0,0,0,0l-.76-.07c-1.1-.04-2.19,0-3.27,.12-1.84,.19-3.64,.59-5.4,1.18-.02,0-.04,.02-.05,.04-.02,.09,.08,.11,.14,.1,1.65-.38,3.8-.84,5.61-1.01,.91-.08,1.83-.11,2.76-.07l.28,.02c.25,0,.48,.01,.71,.05,.02,0,.04,.02,.04,.04l.11,1.3s0,0,0,.01Z"/>
          <g>
            <path class="cls-13" d="M41.37,9.55c-1.11-2.51-4.14-3.87-6.51-2.06-1.07,.86-1.76,2.2-1.89,3.6,0,.02,.01,.04,.03,.05,.85,.31,1.67,.71,2.48,1.21,0,0,0,0,0,0,.02,0,.04,0,.05-.02,.52-1.16,1.31-2.1,2.38-2.81,.86-.53,1.78-.64,2.75-.33,.23,.09,.45,.22,.66,.39,.07,.06,.08,.04,.05-.04Z"/>
            <path class="cls-13" d="M19.77,7.63c-1.5-1.27-3.52-1.29-5.08-.09-.72,.53-1.27,1.21-1.63,2.06-.02,.05,0,.05,.03,.02l.47-.35,.46-.14c1.06-.24,2.02-.03,2.87,.62,.48,.34,.91,.74,1.27,1.21,.34,.44,.65,.91,.94,1.43,0,0,0,0,0,0,.02,.03,.05,.04,.08,.02,.77-.42,1.57-.77,2.42-1.05,.02,0,.03-.03,.03-.05-.09-.47-.21-.92-.35-1.37-.29-.91-.79-1.68-1.5-2.32Zm-5.06-.06s0,0,0,0c0,0,0,0,0,0,0,0,0,0,0-.01Z"/>
          </g>
          <path class="cls-6" d="M21.8,20.28c1.14,.48,1.83,1.69,1.49,2.88-.57,2-3.07,2.35-4.3,.75-.2-.3-.33-.62-.4-.97-.14-1.25,.49-2.26,1.65-2.7,.51-.14,1.03-.13,1.54,.04Zm-1.82,.73c-.56,.31-.86,.8-.9,1.45,0,.57,.19,1.05,.59,1.46,1.49,1.49,3.88-.33,3.02-2.16-.53-1.13-1.61-1.35-2.7-.91-.02,0-.03,.03-.03,.05l.02,.11Z"/>
          <path class="cls-6" d="M33.94,20.19c1.05,.3,1.66,1,1.83,2.08,.06,.53-.03,1.04-.27,1.52-.28,.44-.61,.74-1,.9-2.89,1.22-4.9-2.79-2.2-4.31,.53-.25,1.08-.31,1.65-.19Zm-1.7,.97c-.34,.22-.55,.52-.62,.93-.07,0-.1,.03-.11,.09-.02,1.2,.73,2.36,2.06,2.26,1.41-.18,2.19-1.67,1.42-2.9-.6-.94-1.79-1.21-2.74-.55-.02,.01-.03,.03-.03,.06v.12Z"/>
          <g>
            <path class="cls-20" d="M19.99,20.85s-.03,.03-.03,.05l.02,.11c.58-.03,.98,.18,1.21,.61,.45,.86-.15,1.87-1.14,1.81-.1,.18-.23,.34-.38,.48,1.49,1.49,3.88-.33,3.02-2.16-.53-1.13-1.61-1.35-2.7-.91Z"/>
            <path class="cls-20" d="M34.99,21.54c-.6-.94-1.79-1.21-2.74-.55-.02,.01-.03,.03-.03,.06v.12c.78-.36,1.52,.2,1.63,.98,.05-.1,.12-.16,.21-.17,.38-.05,.5,.71,.52,.96,.04,.54-.17,.96-.64,1.24-.13,.08-.27,.07-.37,.26,1.41-.18,2.19-1.67,1.42-2.9Z"/>
          </g>
          <g>
            <path class="cls-5" d="M34.58,22.93c-.02-.25-.14-1.01-.52-.96-.09,.01-.16,.07-.21,.17,.05,1.73-2.42,1.57-2.24-.06-.07,0-.1,.03-.11,.09-.02,1.2,.73,2.36,2.06,2.26,.09-.19,.23-.19,.37-.26,.47-.28,.68-.7,.64-1.24Z"/>
            <path class="cls-5" d="M19.07,22.45c0,.57,.19,1.05,.59,1.46,.15-.14,.28-.31,.38-.48-.53-.12-.86-.44-.97-.97Z"/>
          </g>
          <path class="cls-6" d="M26.21,26.24c-.24-.21-.48-.41-.57-.71-.19-.62,.38-1.08,.97-1.08,.7,0,2.16-.24,2.29,.78,.07,.57-.67,1.11-1.14,1.44-.58,.41-1.11-.04-1.56-.43Zm-.2-.86c.21,.34,1,1.26,1.47,1,.42-.24,.76-.58,1.01-1.02-.01-.28-.13-.43-.36-.46-.33-.04-.85-.04-1.55,0-.35,.02-.56,.12-.58,.49Z"/>
          <path class="cls-4" d="M16.37,25.49c.02,.06,0,.11-.04,.14-.31,.22-.57,.48-.77,.8l-2.03,.25c-.23-.4-.33-.8-.3-1.19,0-.07-.03-.1-.11-.08,1.09-.07,2.18-.05,3.26,.08Z"/>
          <path class="cls-26" d="M15.38,26.81l-.28,1.16c-.28-.12-.55-.27-.79-.45-.08-.06-.19-.14-.33-.23-.11-.08-.22-.16-.32-.25,.57-.11,1.14-.19,1.71-.23Z"/>
          <path class="cls-6" d="M28.98,28.81c-.17,2.81-3.15,2.75-3.33,.05,0-.06-.05-.1-.11-.1-.62-.02-1.14-.22-1.54-.62-.18-.17-.28-.45,.07-.51,.02,0,.05,0,.07,.02,.16,.11,.31,.27,.46,.36,.85,.52,1.9,.33,2.57-.41,.06-.07,.13-.07,.19,0,.84,.85,2.11,.97,2.95,.06,.06-.06,.13-.08,.21-.04,.35,.15,.11,.45-.07,.6-.41,.35-.88,.54-1.43,.57-.02,0-.04,.02-.04,.04Zm-2.72,.47c.12,.54,.55,1.21,1.18,1.12,.48-.07,.79-.51,.89-.97,.08-.2,.12-.41,.14-.63,0-.02-.01-.04-.03-.04-.38-.09-.75-.26-1.11-.5-.03-.02-.07-.02-.09,0-.28,.23-.63,.4-1.05,.51-.03,0-.04,.04-.04,.06l.12,.45Z"/>
          <g>
            <path class="cls-7" d="M40.92,10.09c-1.08-.79-2.36-.32-3.25,.48-.66,.59-1.19,1.3-1.58,2.13,0,.02,0,.04,.01,.06,.89,.72,1.69,1.52,2.38,2.41,.06-.01,.08-.05,.07-.09-.13-.8-.28-1.64-.09-2.36,.27-1.04,1.31-2,2.44-1.91,.14,.01,.21-.04,.2-.16-.09-.17-.15-.35-.19-.55Z"/>
            <path class="cls-7" d="M13.52,10.1c-.15,.32-.25,.63-.32,.94,1.68-.13,3.52,.9,3.51,2.76,0,.14-.09,.26,.04,.42,.55-.5,1.13-.96,1.74-1.39,.02-.01,.02-.03,.01-.05-.81-1.69-2.89-4.01-4.99-2.68Z"/>
            <path class="cls-7" d="M26.53,25.22c-.2,.04-.51-.02-.53,.15,.21,.34,1,1.26,1.47,1,.42-.24,.76-.58,1.01-1.02-.2-.06-.4-.1-.59-.12-.45-.05-.92-.1-1.37-.01Z"/>
            <path class="cls-7" d="M28.43,28.74c-.38-.09-.75-.26-1.11-.5-.03-.02-.07-.02-.09,0-.28,.23-.63,.4-1.05,.51-.03,0-.04,.04-.04,.06l.12,.45s.1-.01,.15,.07c.02,.03,.06,.03,.09,.02,.6-.41,1.15-.47,1.66,.13,0,0,0,0,0,0,.02,.01,.04,0,.05-.01,.03-.04,.06-.06,.1-.06,.08-.2,.12-.41,.14-.63,0-.02-.01-.04-.03-.04Z"/>
          </g>
          <g>
            <path class="cls-27" d="M41.1,10.64c0,.12-.06,.17-.2,.16-1.13-.09-2.17,.87-2.44,1.91-.19,.72-.04,1.56,.09,2.36,0,.05-.02,.08-.07,.09,.4,.53,.77,1.07,1.11,1.62,.85-.91,1.4-1.97,1.63-3.2,.19-.97,.21-2-.11-2.95Z"/>
            <path class="cls-27" d="M16.72,13.8c.01-1.86-1.83-2.88-3.51-2.76-.37,1.88,.15,3.75,1.34,5.28,.05,.06,.08,.13,.09,.2,0,.04,.05,.06,.12,.07,.58-.86,1.24-1.65,1.99-2.37-.13-.16-.04-.28-.04-.42Z"/>
            <path class="cls-27" d="M28.13,24.89c-.33-.04-.85-.04-1.55,0-.35,.02-.56,.12-.58,.49,.02-.18,.33-.12,.53-.15,.45-.08,.92-.03,1.37,.01,.19,.02,.38,.06,.59,.12-.01-.28-.13-.43-.36-.46Z"/>
            <path class="cls-27" d="M28.23,29.48s0,0,0,0c-.02,.01-.04,.01-.06,0-.51-.6-1.06-.54-1.66-.13-.03,.02-.07,.01-.09-.02-.05-.08-.1-.1-.15-.07,.12,.54,.55,1.21,1.18,1.12,.48-.07,.79-.51,.89-.97-.04,0-.08,.01-.1,.06Z"/>
          </g>
          <path class="cls-25" d="M34.45,41.98c-.96-.37-1.67-1.25-2.23-2.07-.95-1.38-2.59-1.53-4.1-1.58-.95-.03-1.92,.01-2.9,.12-.77,.09-1.63,.3-2.24,.79-.53,.42-.9,1.02-1.3,1.54-.32,.42-.72,.75-1.2,.98,.56-.51,.95-1,1.34-1.61,.47-.74,.43-1.83,.18-2.63,0-.03,0-.05,.03-.06,0,0,.01,0,.02,0,3.18,.44,6.39,.5,9.58,.25,.34-.03,.67-.06,.99-.11,.03,0,.05,.01,.06,.04,0,0,0,.01,0,.02-.29,1.22-.18,2.34,.67,3.29,.16,.18,.53,.52,1.1,1.03Z"/>
          <path class="cls-29" d="M37.94,40.18c-.14,.11-.23,.25-.26,.41-.38,.29-.81,.41-1.3,.35-.1-.01-.19-.05-.28-.1-.2-.14,.16-.3,.21-.49,.24,0,.47,0,.7-.05,.3-.06,.61-.09,.92-.11Z"/>
          <g>
            <path class="cls-3" d="M35.07,36.55s.05,0,.06-.02c.37-.36,1.05-.42,1.53-.33,1.55-.55,2.99-1.59,4.09-2.82l-.55-1.12c-.53,.46-1.09,.86-1.69,1.2-.69,.39-1.13,.8-1.89,1.44-.59,.5-1.13,1.04-1.63,1.62h.09Z"/>
            <path class="cls-3" d="M16.12,33.68c-.58-.34-1.17-.76-1.77-1.26l-.49,.92s.07,.01,.1,.03c.01,.01,.02,.03,.03,.06,.04,.18,.75,.73,.92,.88,.82,.71,1.72,1.31,2.68,1.82,.09,.04,.15,.11,.2,.2,.28-.07,.55-.07,.82-.02,.34,.07,.61,.11,.86,.29,.02,.01,.04,.01,.06,0,.02-.01,.05-.02,.08-.02-1.01-1.09-2.27-2.18-3.49-2.9Z"/>
            <path class="cls-3" d="M34.61,35.93l1.01-1.09s.02-.04-.02-.03l-1.34,.38,.35,.74Z"/>
            <path class="cls-3" d="M18.99,34.97l.98,.98c.1-.14,.18-.28,.25-.43,.05-.09,.12-.17,.12-.3l-1.32-.3c-.07-.02-.08,0-.03,.06Z"/>
            <path class="cls-3" d="M15.79,40.08c.31,.2,.65,.35,1.01,.46-.03-.11-.08-.2-.16-.29-.16-.23-.3-.48-.4-.74-.31-.14-.62-.27-.93-.4-.5-.2-.87-.42-1.29-.71-.1-.06-.14-.03-.13,.09,.52,.66,1.16,1.19,1.9,1.59Z"/>
            <path class="cls-3" d="M40.27,38.83s-.04-.02-.06,0c-.63,.35-1.33,.51-2,.85l-.28,.5c-.14,.11-.23,.25-.26,.41,.45-.16,.87-.35,1.27-.58,.44-.28,.86-.58,1.27-.89,.01-.09,.04-.16,.09-.22,0,0,0,0,0,0,0-.01,0-.03,0-.04l-.03-.02Z"/>
            <path class="cls-3" d="M13.52,39.65c-.07,.91-.02,1.79,.14,2.65,1.36,.3,2.73,.39,4.12,.27l.14-.94c-.31-.02-.62-.1-.91-.22-1.23-.52-2.38-.98-3.49-1.76Z"/>
            <path class="cls-3" d="M18.99,17.26c-.28,.16-.5,.37-.65,.63,.43-.03,.85-.01,1.26,.06,.54,.1,.91,.3,1.3,.66,.09,.08,.17,.08,.24-.02,.05-.06,.08-.16,.08-.3,.02-1.23-1.35-1.54-2.24-1.03Z"/>
            <path class="cls-3" d="M35.21,18.07c.08,.01,.1-.01,.06-.08-.23-.39-.55-.67-.96-.83-.93-.38-2.26,.12-2,1.32,.02,.09,.07,.17,.14,.23,.02,.01,.04,.02,.06,.01,.11-.04,.23-.1,.35-.19,.7-.47,1.48-.62,2.35-.46Z"/>
            <path class="cls-3" d="M37.46,41.46c-.24,.1-.51,.16-.81,.17l-.02,.77c0,.06,0,.17-.01,.32,0,0-.11,1.62-1.58,3.62-.19,.26-.4,.51-.4,.51-.06,.07-.11,.12-.14,.16l-.33,.71v.05c-.12,.38-.05,.74,.21,1.07,.03,.04,.09,.06,.14,.04,.09-.03,.13-.01,.13,.04,.54-.1,1.08-.14,1.63-.13,.09-.13,.23-.25,.43-.38,.24-.16,.52-.48,.71-.68,.71-.75,1.35-1.55,1.9-2.43,.59-.97,1.01-2,1.24-3.11,.2-.82,.3-1.66,.33-2.51-1.05,.75-2.33,1.31-3.42,1.77Z"/>
          </g>
          <g>
            <path class="cls-21" d="M41.05,25.42l-.28-.02c-.03,.43-.16,.84-.38,1.21l.69,.11c.07-.44,.06-.87-.03-1.3Z"/>
            <path class="cls-21" d="M40.01,28.31l.88,.29c.2-.39,.23-1.05,.28-1.51l-.87-.12s-.06-.03-.09-.02c-.24,.36-.54,.67-.89,.92-.02,.08-.02,.16,0,.23l.69,.2Z"/>
            <path class="cls-21" d="M15.01,28.13c-.12-.05,.07-.1,.09-.16-.28-.12-.55-.27-.79-.45-.08-.06-.19-.14-.33-.23-.11-.08-.22-.16-.32-.25l-.17,.02c-.02,.39,.04,.8,.16,1.25,.04,.14,.14,.19,.29,.14l1.07-.32Z"/>
            <path class="cls-21" d="M40.86,29.97c-.3,.49-.67,.92-1.11,1.29-.02,.02-.05,.02-.06,.01-.03-.02-.02-.04,.01-.08,.56-.63,.97-1.37,1.22-2.21l-.91-.3-.8-.24c-1.25,1.69-3.05,2.87-5,3.61-.43,.16-.97,.3-1.63,.43-4.39,.87-8.91,.8-13.2-.4-1.89-.53-3.73-1.38-4.32-3.44,0-.02-.02-.03-.05-.03-.06,0-.11-.02-.14-.06l-1,.3c-.03,.1-.02,.19,.04,.27,.53,1.08,1.26,2.32,2.12,3.23-.06,.09-.13,.1-.2,.03-.18-.17-.37-.32-.55-.49-.01-.01-.03-.01-.05,0l-.16,.15c.68,.6,1.37,1.05,2.07,1.35,2.41,1.02,4.99,1.61,7.75,1.78,1.66,.16,3.32,.15,4.98-.02,3.5-.26,7.25-1.19,9.98-3.56-.07-.09-.06-.18,.03-.25,.44-.36,.79-.79,1.05-1.28,.04-.07,.03-.26-.09-.07Z"/>
            <path class="cls-21" d="M23.43,25.24c.26-.13,.51-.26,.77-.39,1.82-.96,4.16-1.15,6.01-.14,.26,.14,.51,.28,.75,.43,.04,.03,.05,.02,.02-.02-1.28-2.11-3.5-2.61-5.7-1.65-.79,.35-1.45,1-1.9,1.72-.05,.07-.03,.09,.05,.05Z"/>
            <path class="cls-21" d="M20.34,35.22c0,.14-.07,.21-.12,.3-.07,.14-.15,.29-.25,.43,.45,.45,.84,.96,1.16,1.52,.36,.74,.45,1.79-.42,2.21-.02,0-.03,.03-.02,.05,.09,.24,.09,.46,0,.66-.31,.61-.81,.84-1.52,.71-.02,0-.05,0-.06,.02-.3,.36-.69,.53-1.18,.51l-.14,.94s0,.06,.02,.09c0-.02,0-.03,0-.04,0-.02,.03-.03,.06-.03,.93-.12,1.8-.35,2.61-.81,.56-.51,.95-1,1.34-1.61,.47-.74,.43-1.83,.18-2.63,0,0,0-.01,0-.02,0-.03,.03-.04,.05-.04,3.18,.44,6.39,.5,9.58,.25,.34-.03,.67-.06,.99-.11,0,0,.01,0,.02,0,.03,0,.04,.03,.04,.06-.29,1.22-.18,2.34,.67,3.29,.16,.18,.53,.52,1.1,1.03,.61,.28,1.25,.45,1.93,.49,.02,0,.07,0,.13,.03,.05,.02,.09,.05,.12,.07,0-.06,0-.12,0-.18l.02-.77c-.52-.04-.84-.11-1.12-.51-.01-.02-.04-.03-.06-.02-.6,.12-1.07-.06-1.4-.53-.17-.25-.21-.54-.1-.85,0-.02,0-.04-.02-.05-.82-.33-.82-1.38-.5-2.06,.31-.61,.69-1.17,1.15-1.68l-.35-.74c-4.56,1.08-9.36,1.01-13.92,.04Zm12.43,2.34s0,0,0,0c0,0,0,0,.01,0,0,0,0,0,0,0Z"/>
            <path class="cls-21" d="M18.71,39.94c-.92-.09-1.69-.22-2.31-.4-.05-.02-.1-.05-.15-.1v.07c.1,.27,.23,.51,.4,.74,.08,.08,.13,.18,.16,.29,.53,.34,1.2,.63,1.8,.24,0,0,0,0,0,0,.02-.02,.02-.05,0-.08l-.3-.34c.12-.62,.56-.13,.79,.02,.5,.33,1.33-.05,.92-.68-.37,.21-.81,.29-1.31,.24Zm-1.96,.14s0,0-.01,0c0,0,0,0,.01,0Zm-.02,.01s0,0,0,0c0,0,0,0,0,0Zm-.01,.02s0,0,0,0c0,0,0,0,0,0,0,0,0,0,0,0Zm.04-.04s.02,0,.02,0c0,0-.02,0-.02,0Z"/>
            <path class="cls-21" d="M34.8,40.44c.52,.31,.81-.13,1.18-.39,.16,.04,.27,.14,.33,.29,.24,0,.47,0,.7-.05,.3-.06,.61-.09,.92-.11l.28-.5v-.11c-.7,.28-1.58,.37-2.27,.4-.47,.08-.92,.02-1.35-.18-.13,.27-.06,.49,.21,.65Z"/>
            <path class="cls-21" d="M34.64,48.93c0-.05-.04-.07-.13-.04-.05,.02-.11,0-.14-.04-.26-.33-.33-.69-.2-1.07v-.05s.33-.71,.33-.71c-1.83,.85-3.81,1.18-5.85,1.26-3,.11-5.7-.07-8.59-.86l.11,.33c.02,.15,.01,.29-.03,.43-.07,.3-.23,.53-.49,.7,.97,.23,1.61,.5,2.77,.94,3.35,1.28,7.35,1.1,10.62-.34,.37-.16,.9-.35,1.59-.55Z"/>
            <path class="cls-21" d="M22.82,50.69c-.29,.17-.61,.27-.94,.29-.47,.03-.91,.15-1.33,.36-.34,.16-.6,.26-.79,.3-.25,.04-.9,.07-.81-.36,.03-.14,.01-.24-.06-.31-.02-.01-.03-.03-.04-.04l-.25-.13c.05-.11,.15-.17,.29-.17h.02c.1-.05,.16-.03,.19,.06,0,.02,.02,.03,.04,.03l1.67-.38c.17,0,.1-.06,.02-.09-.97-.37-2.12-.69-3.16-.61-.02,0-.04,0-.07,.02-.08,.05-.17,.05-.27,0,1.84-.83,3.8,.35,5.49,1,.02,0,.02,.02,0,.03Z"/>
            <path class="cls-21" d="M18.89,50.63c-.14,0-.24,.05-.29,.17l-.18,.22s-.03,.04-.04,.07c-.01,.25-.12,.46-.4,.49-.34,.03-.49-.14-.46-.51,0-.02,.02-.04,.04-.04h.35s-.07-.03-.07-.03l-.34-.09s-.05-.04-.05-.08c0-.08,0-.14-.02-.18-.13-.02-.22,.02-.28,.13l-.18,.2-.02,.09c-.08,.5-.94,.1-.48-.54,.24-.07,.48-.09,.72-.04,.08,.02,.17,.02,.25,0,.32-.06,.55,.13,.9,.08,.06,0,.11,.01,.15,.05,.18,.16,.24-.14,.4,0Z"/>
            <path class="cls-21" d="M37.68,51.23c-.07-.08-.17-.59-.36-.53,0,.07-.04,.11-.11,.12l-.13,.14c.06,.19,.04,.37-.06,.53-.01,.02-.03,.04-.05,.04-.57,.19-.69-.07-.77-.56-.07-.06-.15-.09-.24-.1h-.18c-.05,.02-.09,.05-.12,.11,.3,.98-.96,.64-1.35,.43-.44-.24-.91-.39-1.41-.45-.46-.06-.7-.1-1.04-.31-.02-.01-.02-.02,0-.03,1.31-.51,3.81-1.86,5.2-1.03-.71,.03-1.46,.15-2.26,.37-.4,.11-.69,.2-.87,.27,.63,.13,1.13,.32,1.85,.33,.05,0,.1,0,.14,.02l1.16-.05c.24-.07,.48-.07,.73,.01,.16,.05,.3,.13,.44,.25,.02,.28-.3,.72-.57,.41Z"/>
          </g>
          <g>
            <path class="cls-23" d="M20.05,23.43c.99,.06,1.59-.95,1.14-1.81-.23-.44-.63-.64-1.21-.61-.56,.31-.86,.8-.9,1.45,.12,.53,.44,.86,.97,.97Z"/>
            <path class="cls-23" d="M38.25,50.81c-.14-.11-.29-.2-.44-.25-.24-.08-.48-.08-.73-.01l-1.16,.05s-.09-.03-.14-.02c-.72,0-1.22-.2-1.85-.33,.18-.07,.47-.16,.87-.27,.8-.22,1.55-.34,2.26-.37,.57,.22,.96,.62,1.18,1.2Z"/>
            <path class="cls-23" d="M27.27,10.65c.05,.04,.13,.03,.17-.02,.12-.16,.22-.34,.29-.54,.2-.55,.4-1.09,.6-1.63l.05-.23s0-.05-.01-.07c-.04-.05-.1-.09-.17-.1-.37,.33-.71,.68-1.02,1.06-.08,.1-.13,.2-.15,.31-.05,.3-.03,.97,.23,1.22,0,0,0,0,0,0Z"/>
            <path class="cls-23" d="M40.36,32.18s-.04-.02-.06-.01c-.05,.03-.08,.06-.1,.1l.55,1.12c.27,.52,.47,1.08,.6,1.67l.08,.24c.26,1.45-.04,2.86-1.22,3.82-.41,.32-.83,.62-1.27,.89,.73-.32,1.36-.75,1.91-1.31,1.04-1.06,1.18-2.31,.86-3.71-.2-1.06-.65-1.99-1.35-2.81Z"/>
            <path class="cls-23" d="M13.8,38.85c.58,.55,1.24,.96,1.99,1.24-.74-.4-1.38-.93-1.9-1.59-.83-.94-.95-2.06-.69-3.26,.13-.67,.35-1.3,.66-1.9l.49-.92c-.03-.07-.09-.13-.18-.2,0,0,0,0,0,0-.02-.02-.06-.01-.07,.01-.72,1.02-1.18,2.12-1.39,3.32-.24,1.37,.09,2.35,1.09,3.3Z"/>
            <path class="cls-23" d="M41.24,39.34c-.04,.07-.1,.13-.16,.17l-.2,.18c-.02,.85-.13,1.69-.33,2.51-.24,1.11-.65,2.15-1.24,3.11-.55,.87-1.19,1.68-1.9,2.43-.19,.2-.47,.52-.71,.68-.19,.13-.34,.25-.43,.38,.14,.05,.29,.02,.44-.08,.78-.52,1.43-1.06,1.95-1.61,2.04-2.12,2.83-4.84,2.63-7.75,0-.06-.02-.06-.05-.01Z"/>
            <path class="cls-23" d="M17.69,48.56s0-.04-.01-.05c-.78-.62-1.47-1.33-2.07-2.14-.25-.32-.47-.68-.76-.96l-.08-.07c-.1-.2-.24-.37-.32-.57-.34-.79-.6-1.61-.78-2.47-.16-.86-.21-1.74-.14-2.65-.04-.08-.11-.13-.19-.17,0,0,0,0,0,0-.01,0-.03,0-.03,.02-.18,2.21,.16,4.29,1.38,6.18,.78,1.19,1.77,2.17,2.96,2.95,.02-.02,.04-.04,.06-.07Z"/>
            <path class="cls-23" d="M20,38.83c.1,.09,.21,.18,.33,.26,.06,.07,.13,.07,.18,0,.46-.59,.08-1.4-.37-1.89-.16-.22-.34-.43-.54-.62-.03,0-.05,0-.08,.02-.02,.01-.04,0-.06,0-.26-.17-.52-.22-.86-.29-.27-.06-.55-.05-.82,.02l-.22,.11-.17,.05c-.8,.69-1.39,1.88-1.14,2.95,.04,.05,.09,.09,.15,.1,.62,.18,1.39,.31,2.31,.4,.51,.05,.95-.03,1.31-.24-.11-.19-.24-.34-.38-.46-.33-.29,.14-.62,.36-.42Z"/>
            <path class="cls-23" d="M35.08,39.21c-.2,.15-.36,.34-.49,.58,.43,.2,.88,.26,1.35,.18,.69-.03,1.57-.12,2.26-.4,.04-.05,.07-.11,.08-.18,.21-1.15-.11-2.11-.95-2.88l-.09-.02c-.17-.12-.37-.22-.58-.28-.48-.09-1.16-.03-1.53,.33-.01,.01-.03,.02-.06,.02h-.09c-.45,.47-1.59,1.89-.83,2.53,.17,.33,.66-.7,.99-.18,.07,.12,.06,.22-.05,.31Z"/>
            <path class="cls-23" d="M39.58,16.78c.03,.1,.09,.12,.16,.04,.83-.82,1.44-1.75,1.83-2.78,.51-1.38,.66-2.99-.65-3.95,.03,.19,.1,.38,.19,.55,.32,.94,.3,1.98,.11,2.95-.24,1.22-.78,2.29-1.63,3.2Z"/>
            <path class="cls-23" d="M14.76,16.59c-.07,0-.11-.03-.12-.07-.02-.07-.05-.14-.09-.2-1.19-1.53-1.71-3.4-1.34-5.28,.06-.31,.17-.62,.32-.94-2.13,1.68-.37,5.07,1.05,6.56,.1,.11,.18,.07,.2-.07Z"/>
            <path class="cls-23" d="M37.64,15.5c.1,.14,.22,.37,.37,.53,.08,.08,.14,.17,.18,.26,.12,.26,.27,.51,.44,.75,.01,.02,.02,.04,.03,.06,0,.05,.03,.11,.07,.2,1.05,2.43,1.8,5.01,2.24,7.74l.76,.07s0,0,0,0c.01,0,.02-.02,.02-.03-.34-1.97-.95-3.97-1.83-5.99-.86-1.99-2.04-3.68-3.53-5.08-.04,.03-.03,.07,.02,.11,.42,.39,.83,.85,1.22,1.39Z"/>
            <path class="cls-23" d="M21.63,26.66c.28,.03,.12,.15-.04,.15-2.42-.03-4.14-.14-6.21,0l-.28,1.16c-.01,.06-.21,.11-.09,.16,1.59-.41,3.2-.71,4.83-.91,.39-.05,1.15-.1,2.28-.14,.23-.01,.41-.01,.51,0,.2,.01,.22,.14-.01,.18-.17,.03-.64,.08-1.43,.16-2.13,.21-4.24,.58-6.31,1.12,.03,.04,.08,.06,.14,.06,.02,0,.04,.01,.05,.03,.59,2.06,2.43,2.91,4.32,3.44,4.29,1.21,8.81,1.27,13.2,.4,.65-.13,1.2-.27,1.63-.43,1.94-.74,3.75-1.92,5-3.61-1.92-.5-3.89-.8-5.8-.99-.58-.06-1.09-.12-1.52-.19-.03,0-.05-.02-.06-.03-.08-.09,.01-.14,.1-.14,2.44,.04,5.04,.33,7.4,1.03-.02-.08-.02-.15,0-.23l-.28-1.07c-1.64-.1-3.24-.06-4.97,0-.28,0-.79,.06-1.19,.03-.16-.01-.06-.12,.03-.14,.39-.07,.97-.12,1.73-.17,1.62-.11,3.05-.13,4.29-.08-.34-.29-.65-.62-.92-.98-1.82,.17-3.96,.63-5.61,1.01-.07,.02-.16,0-.14-.1,0-.02,.02-.04,.05-.04,1.76-.6,3.56-.99,5.4-1.18-.66-.57-1.4-1.03-2.2-1.37-.28,.44-.61,.74-1,.9-2.89,1.22-4.9-2.79-2.2-4.31-.34-.39-.65-.81-.92-1.24-.58-.84-1.26-1.58-2.04-2.22-1.43-1.04-3.12-1.17-4.63-.2-.85,.58-1.42,1.34-2.03,2.22l-.87,1.34c1.14,.48,1.83,1.69,1.49,2.88-.57,2-3.07,2.35-4.3,.75-.72,.33-1.38,.7-1.99,1.1-.07,.05-.14,.07-.21,.08-.01,.01-.02,.03-.02,.05,1.55,.18,3.08,.48,4.59,.89,.26,.07,.52,.16,.78,.26,.07,.03,.07,.05,0,.06-.09,.02-.19,.01-.28,0-1.81-.4-3.64-.69-5.48-.86,.02,.06,0,.11-.04,.14-.31,.22-.57,.48-.77,.8,2.03-.1,4.05-.02,6.07,.23Zm8.83,1.53c-.41,.35-.88,.54-1.43,.57-.02,0-.04,.02-.04,.04-.17,2.81-3.15,2.75-3.33,.05,0-.06-.05-.1-.11-.1-.62-.02-1.14-.22-1.54-.62-.18-.17-.28-.45,.07-.51,.02,0,.05,0,.07,.02,.16,.11,.31,.27,.46,.36,.85,.52,1.9,.33,2.57-.41,.06-.07,.13-.07,.19,0,.84,.85,2.11,.97,2.95,.06,.06-.06,.13-.08,.21-.04,.35,.15,.11,.45-.07,.6Zm-3.84-3.75c.7,0,2.16-.24,2.29,.78,.07,.57-.67,1.11-1.14,1.44-.58,.41-1.11-.04-1.56-.43-.24-.21-.48-.41-.57-.71-.19-.62,.38-1.08,.97-1.08Zm-3.23,.75c.45-.72,1.11-1.37,1.9-1.72,2.2-.96,4.43-.46,5.7,1.65,.03,.04,.02,.05-.02,.02-.24-.15-.49-.29-.75-.43-1.85-1.01-4.19-.82-6.01,.14-.25,.13-.51,.26-.77,.39-.08,.04-.09,.02-.05-.05Z"/>
            <path class="cls-23" d="M12.69,25.04s.02,.04,.04,.04l.54-.02c.17-1.92,.55-3.79,1.15-5.62,.32-.98,.72-2.01,1.35-2.85,.02-.03,.02-.07,0-.12-1.73,2.39-2.71,5.65-3.08,8.57,0,0,0,0,0,0Z"/>
            <path class="cls-23" d="M12.61,26.83l.92-.15c-.23-.4-.33-.8-.3-1.19,0-.07-.03-.1-.11-.08l-.42,.02s-.06,.03-.06,.06l-.06,1.3s0,0,0,0c0,.02,.02,.03,.04,.03Z"/>
            <path class="cls-23" d="M41.76,25.47c-.23-.04-.46-.06-.71-.05,.09,.43,.1,.87,.03,1.3l.8,.13s0,0,0,0c.02,0,.03-.02,.03-.03l-.11-1.3s-.02-.04-.04-.04Z"/>
            <path class="cls-23" d="M12.82,28.84s.03,.03,.04,.02l1.08-.4c-.16,.05-.25,0-.29-.14-.12-.45-.18-.86-.16-1.25l-.89,.14s-.04,.02-.04,.04c0,.54,.08,1.07,.24,1.58,0,0,0,0,0,0Z"/>
            <path class="cls-23" d="M41.87,27.22l-.69-.13c-.05,.46-.08,1.12-.28,1.51l.71,.3s0,0,0,0c.02,0,.04,0,.05-.03,.14-.53,.23-1.06,.25-1.61,0-.02-.01-.04-.03-.05Z"/>
            <path class="cls-23" d="M12.97,29.15s0,0,0,0c-.03,.01-.04,.05-.03,.08,.53,1.09,1.25,2.03,2.15,2.8l.16-.15s.04-.01,.05,0c.17,.18,.37,.32,.55,.49,.07,.07,.14,.06,.2-.03-.86-.91-1.59-2.15-2.12-3.23-.06-.08-.07-.17-.04-.27l-.92,.31Z"/>
            <path class="cls-23" d="M39.9,31.32c-.09,.07-.09,.15-.03,.25,.72-.63,1.26-1.4,1.64-2.3,0,0,0,0,0,0,.02-.04,0-.09-.05-.1l-.54-.19c-.25,.84-.66,1.58-1.22,2.21-.04,.04-.04,.07-.01,.08,.02,0,.04,0,.06-.01,.44-.37,.81-.8,1.11-1.29,.12-.19,.13,0,.09,.07-.27,.49-.62,.92-1.05,1.28Z"/>
            <path class="cls-23" d="M34.99,46.59c.39-.42,1-1.2,1.36-2.32,.21-.65,.27-1.24,.28-1.69-.03-.02-.07-.05-.12-.07-.06-.02-.11-.03-.13-.03-.68-.05-1.32-.21-1.93-.49-.96-.37-1.67-1.25-2.23-2.07-.95-1.38-2.59-1.53-4.1-1.58-.95-.03-1.92,.01-2.9,.12-.77,.09-1.63,.3-2.24,.79-.53,.42-.9,1.02-1.3,1.54-.32,.42-.72,.75-1.2,.98-.82,.46-1.68,.7-2.61,.81-.03,0-.05,.02-.06,.03,0,.01,0,.03,0,.04,.09,1.68,.82,2.96,1.88,4.2,.09,.1,.2,.27,.33,.5,.02,.01,.04,.03,.05,.05,2.89,.79,5.58,.97,8.59,.86,2.04-.08,4.02-.41,5.85-1.26,.13-.17,.29-.32,.49-.43Z"/>
            <path class="cls-23" d="M20.8,50.34l-1.67,.38s-.04,0-.04-.03c-.03-.1-.09-.11-.19-.06h-.02c-.16-.15-.22,.15-.4-.01-.04-.04-.1-.05-.15-.05-.34,.04-.58-.14-.9-.08-.08,.02-.17,.02-.25,0-.24-.05-.49-.04-.72,.04,.22-.36,.51-.65,.86-.87,.09,.05,.18,.05,.27,0,.02-.01,.05-.02,.07-.02,1.04-.08,2.2,.23,3.16,.61,.08,.03,.14,.09-.02,.09Z"/>
            <path class="cls-23" d="M31.62,22.09c-.18,1.63,2.28,1.79,2.24,.06-.11-.79-.85-1.35-1.62-.98-.34,.22-.55,.52-.62,.93Z"/>
          </g>
          <path class="cls-2" d="M35.77,22.27c.06,.53-.03,1.04-.27,1.52,.8,.34,1.54,.79,2.2,1.37,1.08-.12,2.17-.16,3.27-.12-.45-2.73-1.19-5.3-2.24-7.74-.04-.08-.06-.15-.07-.2,0-.03-.01-.05-.03-.06-.17-.23-.32-.48-.44-.75-.04-.09-.1-.17-.18-.26-.15-.16-.27-.4-.37-.53-.4-.54-.8-1-1.22-1.39-.05-.04-.05-.08-.02-.11-.97-.91-2.08-1.6-3.33-2.07l-.53,.47s0,0,0,0c0,.01,0,.03,.01,.04,.16,.1,.25,.23,.29,.41-.09,.1-.22,.13-.38,.08-.15-.05-1.6-.38-.85-.67,.29-.12,.54-.29,.74-.51,.18-.18,.15-.31-.09-.39-.73-.24-1.45-.22-2.14,.06-.2-.02-.32-.13-.36-.33,.25-.32,.48-.66,.68-1.01,.07-.1,.11-.23,.14-.38,.07-.07,.07-.15,.02-.22-.01-.02-.03-.03-.06-.03-.51-.07-1.22,.36-1.6,.63-.29,.2-.54,.1-.54-.27,0-.44,.04-.88,.12-1.32l.3-1.03c.02-.06,0-.07-.05-.04l-.27,.15c-1.04,.59-1.86,1.4-2.48,2.42-.28,.43-.5,.89-.66,1.37-.06,.18-.19,.22-.4,.14-.08-.03-.13-.09-.15-.17-.1-.42-.32-.81-.66-1.16-.05-.05-.07-.04-.07,.03,.02,.32,0,.66-.03,1.01-.05,.51-.88,.54-1.27,.62-2.81,.57-5.36,2.32-7.02,4.65,.02,.05,.02,.09,0,.12-.62,.83-1.03,1.86-1.35,2.85-.59,1.83-.98,3.7-1.15,5.62,1.17-.06,2.33-.03,3.49,.09,0-.02,0-.04,.02-.05,.07,0,.14-.03,.21-.08,.61-.41,1.27-.77,1.99-1.1-.2-.3-.33-.62-.4-.97-.14-1.25,.49-2.26,1.65-2.7,.51-.14,1.03-.13,1.54,.04l.87-1.34c.6-.88,1.18-1.64,2.03-2.22,1.51-.97,3.2-.84,4.63,.2,.78,.64,1.47,1.38,2.04,2.22,.28,.43,.59,.85,.92,1.24,.53-.25,1.08-.31,1.65-.19,1.05,.3,1.66,1,1.83,2.08Zm.92-4.21s0,0,0,0c0,0,0,0,0,0,0,0,0,0,0,0Zm-21.2,3.97s.01,0,.02-.01c0,0,0,0,0,0,0,0-.02,0-.02,.01Zm2.43-4.24s0,0,0,0c0,0,0,0,0-.01,0,0,0,0,0,0Zm.38,5.09s0,0,0,0c0,0,0,0,0,0,0,0,0,0,0,0Zm.32-1.28s0,0,0,0c0,0,0,0,0,0,0,0,0,0,0,0Zm2.53-3.01c-.08,.09-.16,.1-.24,.02-.39-.36-.77-.56-1.3-.66-.42-.08-.84-.1-1.26-.06,.15-.25,.36-.46,.65-.63,.89-.52,2.26-.2,2.24,1.03,0,.14-.03,.24-.08,.3Zm1.5,.22s0,0,0,0c0,0,0,0,0,0,0,0,0,0,0,0Zm2.12-6.87s0,0,0,0c0,0,0,0,0,0,0,0,0,0,0,0Zm4.24-1.71s0,0,.01-.01c0,0,0,0,0,0,0,0-.01,0-.02,.01Zm5.52,4.69s0,0,0,0c0,0,0,0,0,0,0,0,0,0,0,0Zm-1.67,3.6c-.12,.08-.24,.15-.35,.19-.02,0-.05,0-.06-.01-.07-.06-.12-.13-.14-.23-.26-1.2,1.08-1.69,2-1.32,.41,.16,.73,.44,.96,.83,.04,.07,.02,.1-.06,.08-.87-.17-1.65-.02-2.35,.46Z"/>
          <path class="cls-2" d="M40.77,25.4c-.93-.04-1.86-.02-2.76,.07,.28,.36,.59,.69,.92,.98,.48,.03,.96,.08,1.46,.16,.22-.37,.34-.78,.38-1.21Z"/>
          <path class="cls-2" d="M40.22,26.96l-1.17-.15,.28,1.07c.35-.25,.65-.56,.89-.92Z"/>
          <path class="cls-2" d="M14.02,38.41c.42,.28,.79,.51,1.29,.71,.31,.12,.63,.26,.93,.4v-.07c-.24-1.07,.35-2.26,1.15-2.95l.17-.05,.22-.11c-.04-.09-.11-.15-.2-.2-.97-.5-1.86-1.11-2.68-1.82-.17-.14-.88-.7-.92-.88,0-.03-.02-.05-.03-.06-.03-.02-.06-.03-.1-.03-.31,.6-.52,1.23-.66,1.9-.26,1.2-.14,2.32,.69,3.26-.01-.13,.03-.16,.13-.09Z"/>
          <path class="cls-2" d="M41.44,35.29l-.08-.24c-.13-.59-.33-1.15-.6-1.67-1.09,1.22-2.53,2.26-4.09,2.82,.22,.07,.41,.16,.58,.28l.09,.02c.84,.77,1.16,1.73,.95,2.88-.01,.07-.04,.12-.08,.18v.11c.68-.34,1.38-.5,2.02-.85,.02,0,.04,0,.06,0l.03,.02s0,0,0,0c.01,.01,.01,.03,0,.04-.05,.06-.08,.14-.09,.22,1.19-.95,1.49-2.36,1.22-3.82Z"/>
          <path class="cls-2" d="M20.06,47.41s-.03-.04-.05-.05c-.13-.23-.25-.4-.33-.5-1.06-1.25-1.79-2.52-1.88-4.2-.02-.03-.02-.06-.02-.09-1.38,.12-2.76,.03-4.12-.27,.18,.86,.44,1.68,.78,2.47,.08,.19,.23,.36,.32,.57l.08,.07c.29,.28,.51,.64,.76,.96,.6,.8,1.29,1.51,2.07,2.14,.02,.01,.02,.04,.01,.05-.01,.03-.03,.05-.06,.07,.16,.15,.3,.22,.53,.2,.5-.04,1-.03,1.5,.05,.25-.17,.41-.41,.49-.7,.04-.13,.05-.27,.03-.43l-.11-.33Z"/>
        </g>
      </g>
    </g>
  </g>
</svg>