<?xml version="1.0" encoding="UTF-8"?>
<svg xmlns="http://www.w3.org/2000/svg" xmlns:xlink="http://www.w3.org/1999/xlink" viewBox="0 0 64 64">
  <defs>
    <style>
      .cls-1 {
        fill: #1875bc;
      }

      .cls-2 {
        fill: url(#linear-gradient-2);
      }

      .cls-3, .cls-4 {
        fill: #fff;
      }

      .cls-5 {
        fill: #242021;
      }

      .cls-6 {
        fill: #f89d40;
      }

      .cls-7 {
        fill: #fddfb3;
        opacity: .3;
      }

      .cls-7, .cls-8 {
        mix-blend-mode: multiply;
      }

      .cls-9 {
        fill: #8c8587;
      }

      .cls-9, .cls-10, .cls-11 {
        mix-blend-mode: overlay;
      }

      .cls-10, .cls-4 {
        opacity: .5;
      }

      .cls-10, .cls-8 {
        fill: #fdd08c;
      }

      .cls-12 {
        isolation: isolate;
      }

      .cls-13, .cls-14 {
        fill: #2b2829;
      }

      .cls-13, .cls-15 {
        mix-blend-mode: screen;
      }

      .cls-16 {
        fill: #dcc2a7;
      }

      .cls-17 {
        fill: #fc7373;
      }

      .cls-18 {
        fill: #ffa940;
      }

      .cls-19 {
        fill: url(#linear-gradient);
      }

      .cls-11 {
        fill: #998a8e;
      }
    </style>
    <linearGradient id="linear-gradient" x1="64" y1="34.03" x2="5.45" y2="34.03" gradientUnits="userSpaceOnUse">
      <stop offset="0" stop-color="#cf965b"/>
      <stop offset=".25" stop-color="#ca9257"/>
      <stop offset=".51" stop-color="#be864c"/>
      <stop offset=".78" stop-color="#a9733a"/>
      <stop offset="1" stop-color="#925d26"/>
    </linearGradient>
    <linearGradient id="linear-gradient-2" x1="61.28" y1="31.49" x2="1.36" y2="31.49" gradientUnits="userSpaceOnUse">
      <stop offset="0" stop-color="#e8b886"/>
      <stop offset=".25" stop-color="#e3b482"/>
      <stop offset=".5" stop-color="#d7a877"/>
      <stop offset=".76" stop-color="#c29464"/>
      <stop offset="1" stop-color="#a97c4e"/>
    </linearGradient>
  </defs>
  <g class="cls-12">
    <g id="_Слой_2" data-name="Слой 2">
      <g id="_Слой_1-2" data-name="Слой 1">
        <g>
          <g>
            <path class="cls-19" d="M60.49,6.68c-1.75-1.6-4.41-2.62-7.38-2.62H14.98c-5.26,0-9.53,3.19-9.53,7.11V55.87c0,2.22,1.37,4.2,3.51,5.51,1.75,1.6,4.41,2.62,7.38,2.62H54.47c5.26,0,9.53-3.19,9.53-7.11V12.19c0-2.22-1.37-4.2-3.51-5.51Z"/>
            <path class="cls-2" d="M57.77,4.65c-.41-.37-.86-.71-1.36-1.02-1.75-1.6-4.41-2.62-7.38-2.62H10.89C5.64,1.02,1.36,4.21,1.36,8.13V52.83c0,2.22,1.37,4.2,3.51,5.51,.41,.37,.86,.71,1.36,1.02,1.75,1.6,4.41,2.62,7.38,2.62H51.74c5.26,0,9.53-3.19,9.53-7.11V10.16c0-2.22-1.37-4.2-3.51-5.51Z"/>
            <path class="cls-16" d="M47.66,0H9.53C4.28,0,0,3.19,0,7.11V51.81c0,3.92,4.28,7.11,9.53,7.11H47.66c5.26,0,9.53-3.19,9.53-7.11V7.11c0-3.92-4.28-7.11-9.53-7.11Z"/>
          </g>
          <path class="cls-11" d="M5.89,14.33c-.01-2.85,.17-6.06,2.96-8,2.12-1.47,5.21-1.81,8.09-1.99,6.68-.42,13.42-.36,20.09,.18,3.3,.26,6.79,.71,9.28,2.36,3.69,2.45,3.93,6.61,3.9,10.29-.08,9.24-.15,18.48-.23,27.72-.02,2.2-.08,4.51-1.54,6.42-1.54,2-4.45,3.25-7.46,3.8s-6.15,.48-9.24,.41c-5.15-.12-10.31-.24-15.43-.71-2.79-.26-9.22-.18-10.19-2.65-.66-1.68-.07-4.15-.07-5.9,0-2.02-.02-4.03-.03-6.05-.02-4.03-.04-8.06-.06-12.1-.02-4.59-.04-9.18-.07-13.78Z"/>
          <path class="cls-11" d="M20.65,20.31c-3.25-.39-6.54-1.19-8.94-2.87-2.39-1.69-3.67-4.43-2.38-6.69,.89-1.57,2.87-2.69,5.01-3.3,2.14-.61,4.45-.77,6.74-.89,5.74-.3,11.52-.39,17.22,.17,2.22,.22,4.55,.57,6.21,1.7,2.93,1.99,2.55,5.66,.4,8.14-5.33,6.17-16.02,4.75-24.26,3.75Z"/>
          <path class="cls-13" d="M9.75,46.11c-.57-1.77-.49-3.61-.4-5.43,.37-7.55,.74-15.09,1.11-22.64,.14-2.75,.39-5.74,2.81-7.82,2.2-1.89,5.7-2.58,9.03-2.93,4.04-.42,8.14-.47,12.2-.14,3.7,.3,7.69,1.06,9.9,3.3,1.87,1.9,2.03,4.41,2.12,6.77,.33,9.07,.66,18.2-1.13,27.18-.4,1.99-1,4.12-2.97,5.5-2.25,1.58-5.63,1.75-8.72,1.75-5.06,0-10.12-.25-15.13-.73-4.65-.45-7.58-.99-8.81-4.8Z"/>
          <path class="cls-8" d="M47.66,1.02h-1.63c4.51,0,8.17,2.73,8.17,6.1V51.81c0,3.37-3.66,6.1-8.17,6.1h1.63c4.51,0,8.17-2.73,8.17-6.1V7.11c0-3.37-3.66-6.1-8.17-6.1Z"/>
          <path class="cls-10" d="M44.83,56.21c2.15-.26,4.29-1.07,5.39-2.47,.86-1.09,1-2.4,1.05-3.66,.05-1.24,.02-2.47-.08-3.71-.07-.81-.31-1.78-1.32-2.08-.75-.23-1.65,.04-2.16,.52-.51,.47-.69,1.1-.74,1.7-.11,1.25,.25,2.52-.08,3.75-.39,1.42-1.68,2.63-3.23,3.51-1.13,.64-4.12,1.25-4.5,2.21,1.43,.58,4.04,.42,5.67,.23Z"/>
          <path class="cls-9" d="M3.88,2.71c-1.55,1.11-2.52,2.67-2.52,4.4v26.08c12.35-3.44,32.73-4.39,54.47,14.33v-14.97C26.86,28.05,11.39,13.17,3.88,2.71Z"/>
          <path class="cls-4" d="M3.58,9.23c.26-1.79,1.27-3.6,3.21-4.67,2.66-1.47,6.31-1.25,9.61-.96,1.02,.09,2.32,.39,2.36,1.15,.03,.67-.97,1.08-1.84,1.21-2.2,.34-4.63-.04-6.59,.77-1.42,.58-2.33,1.69-2.8,2.85s-.56,2.38-.73,3.58c-.07,.46-.15,.93-.44,1.34-1.08,1.49-2.05,.48-2.43-.37-.6-1.35-.53-3.5-.32-4.91Z"/>
          <g class="cls-15">
            <ellipse class="cls-14" cx="32.66" cy="10.91" rx="4.07" ry="3.03"/>
            <path class="cls-14" d="M43.37,11.71c.45,.84-.09,1.78-1.21,2.12-1.12,.34-2.39-.07-2.84-.91-.45-.84,.09-1.78,1.21-2.12,1.12-.34,2.39,.07,2.84,.91Z"/>
            <path class="cls-14" d="M40.11,16.13c.37,.7-.08,1.49-1.01,1.77-.93,.28-1.99-.06-2.37-.76-.37-.7,.08-1.49,1.01-1.77,.93-.28,1.99,.06,2.37,.76Z"/>
          </g>
          <g class="cls-15">
            <path class="cls-14" d="M23.64,45.38c.8,1.49-.17,3.17-2.16,3.77-1.99,.6-4.25-.13-5.05-1.61-.8-1.49,.17-3.17,2.16-3.77,1.99-.6,4.25,.13,5.05,1.61Z"/>
            <path class="cls-14" d="M20.79,40.39c.22,.41-.05,.87-.59,1.03-.54,.16-1.16-.03-1.38-.44-.22-.41,.05-.87,.59-1.03,.54-.16,1.16,.03,1.38,.44Z"/>
            <path class="cls-14" d="M15.3,41.5c.45,.84-.09,1.78-1.21,2.12-1.12,.34-2.39-.07-2.84-.91-.45-.84,.09-1.78,1.21-2.12,1.12-.34,2.39,.07,2.84,.91Z"/>
          </g>
          <path class="cls-7" d="M51.02,35.95c.79,1.47-.17,3.15-2.14,3.74-1.98,.59-4.22-.12-5.01-1.6-.79-1.47,.17-3.15,2.14-3.74,1.98-.59,4.22,.12,5.01,1.6Z"/>
          <path class="cls-7" d="M53.92,29.6c.58,1.08-.12,2.3-1.57,2.74-1.45,.43-3.09-.09-3.67-1.17-.58-1.08,.12-2.3,1.57-2.74,1.45-.43,3.09,.09,3.67,1.17Z"/>
          <path class="cls-7" d="M45.56,30.99c.37,.7-.08,1.49-1.01,1.77-.93,.28-1.99-.06-2.37-.76-.37-.7,.08-1.49,1.01-1.77,.93-.28,1.99,.06,2.37,.76Z"/>
          <path class="cls-7" d="M10.65,25.55c.41,.75-.09,1.61-1.1,1.92-1.01,.3-2.16-.06-2.57-.82-.41-.75,.09-1.61,1.1-1.92,1.01-.3,2.16,.06,2.57,.82Z"/>
          <path class="cls-7" d="M11.29,21.09c.21,.39-.04,.84-.57,1-.53,.16-1.13-.03-1.34-.43-.21-.39,.04-.84,.57-1,.53-.16,1.13,.03,1.34,.43Z"/>
          <path class="cls-7" d="M6.59,20.15c.34,.63-.07,1.34-.91,1.59-.84,.25-1.79-.05-2.13-.68-.34-.63,.07-1.34,.91-1.59,.84-.25,1.79,.05,2.13,.68Z"/>
        </g>
      </g>
      <g id="_Слой_7" data-name="Слой 7">
        <g>
          <g>
            <g>
              <g>
                <g>
                  <path class="cls-18" d="M15.06,51.46c.42,.26,4.65-1.29,4.65-1.29,0-.74-.61-1.42-1.74-1.65s-4.36-.06-4.68,1.45c-.32,1.52,.71,1.32,.71,1.32,.19,.48,.94,.13,.94,.13l.13,.03Z"/>
                  <path d="M14.42,51.64c-.08,0-.16-.01-.23-.04-.1-.04-.18-.11-.24-.21-.12,0-.39,0-.58-.2-.23-.24-.29-.65-.16-1.23,.19-.88,1.25-1.27,2.11-1.45,.99-.2,2.1-.19,2.68-.07,1.1,.22,1.82,.9,1.82,1.73v.06l-.06,.02s-1.07,.39-2.17,.74c-2.16,.69-2.45,.6-2.54,.55l-.09-.02c-.08,.03-.3,.12-.52,.12Zm-.37-.44l.03,.07c.03,.08,.09,.14,.17,.17,.25,.1,.65-.09,.65-.09h.03s.17,.03,.17,.03h.01c.26,.17,2.78-.64,4.52-1.27-.03-.72-.68-1.3-1.67-1.5-1.06-.21-4.27-.06-4.58,1.39-.11,.51-.07,.88,.12,1.07,.19,.2,.49,.15,.49,.15h.07Z"/>
                </g>
                <path d="M13.91,51.33s-.27-.76,.14-1.31l.14,.11c-.35,.47-.12,1.14-.12,1.14l-.17,.06Z"/>
              </g>
              <path d="M14.85,51.45s-.23-.88,.2-1.31l.12,.12c-.36,.36-.16,1.13-.15,1.14l-.17,.05Z"/>
            </g>
            <g>
              <g>
                <g>
                  <path class="cls-18" d="M40.36,51.46c-.42,.26-4.65-1.29-4.65-1.29,0-.74,.61-1.42,1.74-1.65s4.36-.06,4.68,1.45c.32,1.52-.71,1.32-.71,1.32-.19,.48-.94,.13-.94,.13l-.13,.03Z"/>
                  <path d="M41,51.64c-.22,0-.45-.09-.52-.12l-.09,.02c-.09,.05-.39,.14-2.54-.55-1.1-.35-2.16-.74-2.17-.74l-.06-.02v-.06c0-.83,.71-1.51,1.82-1.73,.58-.12,1.69-.13,2.68,.07,.86,.18,1.92,.57,2.11,1.45,.12,.58,.07,1-.16,1.23-.2,.2-.46,.21-.58,.2-.05,.1-.13,.17-.24,.21-.07,.03-.15,.04-.23,.04Zm-.51-.31h.03s.4,.2,.65,.1c.08-.03,.13-.09,.17-.17l.03-.07h.07s.3,.06,.49-.13c.18-.19,.22-.56,.12-1.07-.31-1.45-3.52-1.6-4.58-1.39-.99,.2-1.64,.78-1.67,1.5,1.74,.63,4.25,1.44,4.52,1.28h.01s.17-.05,.17-.05Z"/>
                </g>
                <path d="M41.51,51.33l-.17-.06s.24-.67-.12-1.14l.14-.11c.41,.55,.15,1.28,.14,1.31Z"/>
              </g>
              <path d="M40.57,51.45l-.17-.05s.21-.78-.15-1.14l.12-.12c.44,.44,.21,1.28,.2,1.31Z"/>
            </g>
          </g>
          <g>
            <g>
              <path class="cls-18" d="M40.68,34.03c-2.13-6.71-12.46-4.48-12.97-4.36-.51-.11-10.83-2.35-12.97,4.36-2.19,6.88-3.54,13.47,1.98,16.18,5.51,2.71,7.66-1.05,10.99-1.07,3.32,.01,5.47,3.77,10.99,1.07,5.52-2.71,4.17-9.3,1.98-16.18Z"/>
              <path d="M20.48,51.27c-1.08,0-2.32-.26-3.79-.99-2.56-1.26-3.84-3.42-3.93-6.61-.08-2.99,.92-6.57,1.9-9.68,.49-1.56,1.47-2.76,2.89-3.58,1.14-.66,2.58-1.07,4.27-1.22,2.86-.26,5.5,.29,5.88,.37,.38-.08,3.03-.64,5.88-.37,1.69,.15,3.13,.57,4.27,1.22,1.43,.82,2.4,2.02,2.89,3.58,.99,3.11,1.99,6.69,1.9,9.68-.09,3.19-1.37,5.35-3.93,6.61-1.47,.72-2.71,.99-3.79,.99-1.6,0-2.86-.57-4.03-1.1-1.06-.48-2.06-.94-3.2-.94-1.14,0-2.14,.46-3.2,.94-1.17,.53-2.43,1.1-4.03,1.1Zm2.94-21.97c-3.24,0-7.35,.83-8.59,4.75-.98,3.1-1.98,6.66-1.9,9.62,.09,3.12,1.34,5.23,3.83,6.45,3.55,1.75,5.65,.8,7.67-.12,1.08-.49,2.1-.95,3.28-.96,1.18,0,2.2,.47,3.28,.96,2.02,.92,4.12,1.86,7.67,.12,2.49-1.22,3.75-3.34,3.83-6.45,.08-2.97-.91-6.53-1.9-9.62-2.11-6.64-12.43-4.4-12.86-4.31h-.02s-.02,0-.02,0c-.18-.04-2.02-.44-4.27-.44Z"/>
            </g>
            <g>
              <path class="cls-3" d="M38.21,37.42c-.66-7.94-10.04-7.77-10.5-7.75-.47-.01-9.84-.18-10.5,7.75-.68,8.14-.97,11.82,7.07,11.82,0,0,2.55-.32,3.41-.11h0s.01,0,.02,0c0,0,.01,0,.02,0h0c.85-.22,3.41,.1,3.41,.1,8.04,0,7.75-3.68,7.07-11.82Z"/>
              <path d="M31.14,49.33h-.01s-2.42-.3-3.31-.12v.06l-.11-.03-.11,.03v-.06c-.89-.17-3.28,.12-3.31,.12h-.01c-3.13,0-5.03-.54-6.14-1.75-1.71-1.86-1.43-5.16-1.02-10.16,.15-1.83,.78-3.39,1.88-4.61,.88-.99,2.06-1.77,3.5-2.32,2.49-.95,4.94-.91,5.21-.9,.27,0,2.72-.05,5.21,.9,1.45,.55,2.62,1.33,3.5,2.32,1.09,1.23,1.72,2.78,1.88,4.61,.42,5,.69,8.3-1.02,10.16-1.12,1.21-3.01,1.75-6.14,1.75Zm-2.51-.36c1.04,0,2.4,.16,2.52,.18,3.03,0,4.94-.54,6.01-1.7,1.66-1.8,1.38-5.07,.97-10.03h0c-.27-3.27-2.04-5.55-5.27-6.78-2.46-.94-4.88-.9-5.14-.89-.27,0-2.69-.05-5.15,.89-3.22,1.23-4.99,3.51-5.27,6.78-.41,4.95-.69,8.23,.97,10.03,1.07,1.16,2.97,1.7,6.01,1.7,.17-.02,2.58-.31,3.43-.11,.22-.05,.55-.07,.91-.07Z"/>
            </g>
          </g>
          <path d="M22.32,38.52s.03-.04,.09-.1c.06-.06,.15-.15,.28-.26,.12-.11,.28-.24,.46-.38,.18-.14,.4-.29,.64-.43,.24-.15,.51-.3,.81-.43,.15-.07,.3-.13,.46-.2,.08-.03,.16-.06,.24-.09,.04-.01,.08-.03,.12-.04,.04-.01,.08-.03,.13-.04,.09-.03,.17-.05,.26-.08,.09-.02,.18-.04,.27-.06,.04-.01,.09-.02,.13-.03,.05,0,.09-.02,.14-.02,.09-.02,.18-.03,.28-.05,.09-.01,.19-.02,.28-.03l.14-.02h.14c.09-.01,.19-.02,.28-.02,.09,0,.19,0,.29,0,.38,0,.76,.05,1.13,.11,.18,.03,.36,.08,.54,.11,.18,.05,.35,.1,.52,.15,.17,.06,.33,.12,.49,.18,.16,.07,.31,.14,.46,.2,.04,.02,.07,.03,.11,.05,.04,.02,.07,.04,.11,.06,.07,.04,.14,.07,.21,.11,.07,.04,.13,.07,.2,.11,.07,.03,.13,.07,.19,.11,.12,.07,.24,.14,.35,.21,.06,.03,.11,.07,.16,.11,.05,.04,.1,.07,.15,.1,.09,.07,.18,.13,.26,.19,.04,.03,.08,.06,.11,.09,.04,.03,.07,.06,.1,.08,.13,.1,.23,.18,.3,.24,.07,.06,.1,.09,.1,.09,0,0-.04-.03-.11-.08-.07-.05-.18-.12-.31-.22-.03-.02-.07-.05-.11-.08-.04-.03-.08-.05-.12-.08-.08-.05-.17-.11-.27-.17-.05-.03-.1-.06-.15-.09-.05-.03-.1-.07-.16-.1-.11-.06-.23-.13-.35-.2-.06-.03-.12-.07-.19-.1-.07-.03-.13-.06-.2-.1-.07-.03-.14-.07-.21-.1-.04-.02-.07-.03-.11-.05-.04-.02-.07-.03-.11-.05-.15-.06-.3-.13-.46-.19-.16-.05-.32-.11-.49-.17-.17-.05-.34-.09-.51-.14-.09-.02-.18-.04-.27-.05-.09-.02-.18-.04-.27-.05-.36-.05-.73-.1-1.1-.1-.09,0-.19,0-.28,0-.09,0-.19,0-.28,.01h-.14s-.14,.02-.14,.02c-.09,.01-.18,.02-.27,.03-.36,.06-.72,.12-1.05,.22-.04,.01-.08,.02-.13,.03-.04,.01-.08,.03-.12,.04-.08,.03-.16,.05-.24,.08-.16,.06-.31,.11-.46,.18-.3,.12-.57,.26-.81,.4-.12,.07-.24,.14-.35,.2-.11,.07-.21,.13-.31,.2-.19,.13-.35,.25-.48,.35-.13,.1-.23,.18-.29,.24-.07,.06-.1,.09-.1,.09Z"/>
          <g>
            <g>
              <g>
                <path class="cls-18" d="M33.81,7.86s-.39-3.9,2.75-4.57c3.14-.67,2.93,4.67-1.5,5.41l-1.24-.84Z"/>
                <path d="M35.03,8.79l-1.31-.88v-.04s-.1-1,.19-2.07c.39-1.42,1.3-2.32,2.62-2.6,.75-.16,1.38,0,1.78,.46,.49,.56,.59,1.48,.26,2.41-.5,1.41-1.81,2.43-3.51,2.71h-.03Zm-1.14-.98l1.18,.8c1.61-.28,2.86-1.25,3.34-2.59,.31-.87,.22-1.72-.23-2.23-.36-.41-.92-.56-1.61-.41-1.27,.27-2.1,1.1-2.48,2.47-.25,.91-.21,1.77-.2,1.96Z"/>
              </g>
              <g>
                <path class="cls-3" d="M34.78,8.12s2.07-4.34,2.9-3.85c.82,.49-.12,3.47-2.9,3.85Z"/>
                <path d="M34.63,8.23l.07-.15c.07-.15,1.74-3.63,2.7-3.92,.12-.04,.23-.03,.32,.03,.29,.17,.4,.61,.29,1.16-.2,1-1.22,2.58-3.22,2.85l-.16,.02Zm2.91-3.91s-.05,0-.08,.01c-.7,.21-1.99,2.59-2.52,3.67,1.79-.32,2.72-1.76,2.9-2.68,.1-.47,.02-.85-.2-.98-.03-.02-.06-.03-.1-.03Z"/>
              </g>
              <g>
                <path class="cls-18" d="M16.76,9.39s-.31-3.91-3.52-4.01c-3.21-.1-2.05,5.11,2.44,5.06l1.07-1.05Z"/>
                <path d="M15.61,10.53c-1.69,0-3.13-.76-3.86-2.04-.49-.85-.56-1.78-.18-2.42,.31-.52,.91-.8,1.67-.78,1.35,.04,2.4,.77,3.04,2.09,.48,.99,.56,1.96,.56,2v.04s-1.12,1.1-1.12,1.1h-.04s-.05,0-.07,0Zm-2.46-5.06c-.66,0-1.15,.24-1.42,.69-.35,.58-.28,1.44,.18,2.24,.7,1.23,2.09,1.95,3.71,1.95,.01,0,.02,0,.04,0l1.02-.99c-.02-.19-.13-1.05-.54-1.9-.62-1.28-1.59-1.95-2.88-1.99-.03,0-.06,0-.09,0Z"/>
              </g>
              <g>
                <path class="cls-3" d="M15.84,9.82s-2.82-3.9-3.54-3.27c-.72,.63,.74,3.39,3.54,3.27Z"/>
                <path d="M15.67,9.91c-1.9,0-3.13-1.32-3.49-2.23-.21-.53-.18-.97,.07-1.2,.08-.07,.19-.1,.31-.09,.99,.11,3.26,3.24,3.36,3.37l.1,.13h-.16c-.06,0-.12,.01-.18,.01Zm-3.16-3.34c-.06,0-.1,.02-.14,.05-.19,.17-.2,.55-.03,1,.35,.87,1.51,2.12,3.33,2.12h0c-.71-.97-2.41-3.08-3.13-3.16-.01,0-.03,0-.04,0Z"/>
              </g>
            </g>
            <g>
              <path class="cls-18" d="M38.54,13.97c-1.66-9.07-12.8-8.74-13.54-8.7h0s0,0-.02,0c-.01,0-.02,0-.02,0h0c-.74,.1-11.76,1.77-11.77,10.98,0,0-6.52,1.07-4.84,9.97,1.68,8.9,13.88,3.91,13.88,3.91,0,0,2.14,1.16,5.06,.91h0s.01,0,.02,0c0,0,.01,0,.02,0h0c2.91-.27,4.82-1.8,4.82-1.8,0,0,12.89,2.73,12.95-6.32,.06-9.05-6.55-8.95-6.55-8.95Z"/>
              <path d="M15.36,31.61c-1.4,0-2.86-.22-4.09-.89-1.6-.87-2.62-2.38-3.01-4.48-.59-3.14-.24-5.66,1.05-7.49,1.37-1.95,3.39-2.48,3.8-2.57,.02-2.1,.61-3.97,1.76-5.57,.94-1.3,2.25-2.43,3.9-3.34,2.71-1.5,5.52-1.98,6.11-2.07h0s.12-.02,.12-.02h.09s0,0,0,0c.6-.02,3.44-.05,6.37,.95,1.79,.61,3.28,1.48,4.44,2.59,1.42,1.37,2.33,3.1,2.73,5.17,.42,.01,2.5,.17,4.19,1.85,1.59,1.58,2.39,3.99,2.37,7.19-.01,2.14-.74,3.8-2.17,4.94-1.9,1.53-4.72,1.85-6.77,1.85-.02,0-.05,0-.07,0-2.05,0-3.73-.33-4.01-.38-.27,.2-2.09,1.51-4.74,1.78h0s-.21,.02-.21,.02h0c-2.66,.2-4.69-.76-4.99-.91-.26,.1-1.87,.72-3.88,1.09-.88,.16-1.91,.29-2.98,.29ZM24.98,5.36h-.01c-.33,.05-3.28,.49-6.13,2.06-3.69,2.05-5.56,5.02-5.57,8.83v.07s-.07,.01-.07,.01c-.02,0-2.28,.4-3.76,2.51-1.25,1.79-1.6,4.27-1.01,7.36,.39,2.04,1.37,3.51,2.92,4.36,2.12,1.15,4.95,.95,6.95,.58,2.17-.4,3.87-1.09,3.88-1.1l.04-.02,.04,.02s2.16,1.14,5.01,.9h.04c2.86-.27,4.75-1.76,4.77-1.78l.03-.03h.04s1.81,.39,4.02,.39c.02,0,.05,0,.07,0,2.03,0,4.8-.32,6.66-1.81,1.38-1.11,2.09-2.73,2.1-4.81,.02-3.14-.76-5.52-2.31-7.06-1.83-1.81-4.12-1.8-4.14-1.8h-.07s-.01-.07-.01-.07c-.69-3.75-3.06-6.34-7.06-7.7-3.08-1.04-6.06-.95-6.39-.93h-.02Z"/>
            </g>
            <g>
              <path class="cls-6" d="M27.96,5.42c-1.57-.2-2.74-.16-2.96-.16h0s0,0-.02,0c-.01,0-.02,0-.02,0h0c-.22,.03-1.38,.2-2.89,.68,0,0,1.43,2.01,1.58,5.07,0,0,.2,2.5,2.04,2.37h0s.01,0,.02,0c0,0,.01,0,.02,0h0c1.84-.2,1.59-2.69,1.59-2.69-.4-3.03,.65-5.27,.65-5.27Z"/>
              <path d="M25.61,13.49h0s-.04,0-.06,0c-1.78,0-1.99-2.43-1.99-2.45-.14-2.99-1.5-4.95-1.56-5.03l-.07-.1,.12-.04c1.38-.44,2.47-.62,2.82-.67h0s.12-.02,.12-.02h.09s0,0,0,0c.36-.01,1.46-.02,2.89,.16l.12,.02-.05,.11c-.04,.09-1.03,2.26-.64,5.22,0,.03,.23,2.51-1.58,2.78h0s-.21,.02-.21,.02Zm-3.4-7.49c.29,.45,1.4,2.32,1.53,5.02,0,.1,.21,2.41,1.95,2.28h.04c1.73-.19,1.52-2.5,1.51-2.6-.35-2.67,.4-4.72,.61-5.21-1.5-.18-2.62-.15-2.83-.14h-.03c-.21,.03-1.31,.2-2.76,.65Z"/>
            </g>
            <g>
              <g>
                <g>
                  <path class="cls-3" d="M23,13.76c.31,2.22-.72,4.2-2.3,4.42-1.58,.22-3.95-1.28-4.26-3.51-.31-2.22,1.55-4.32,3.13-4.54,1.58-.22,3.11,1.4,3.42,3.62Z"/>
                  <path d="M21.09,18.14c-.12,.04-.25,.07-.37,.09-.8,.11-1.79-.2-2.64-.85-.93-.7-1.52-1.66-1.67-2.7-.14-1.03,.16-2.12,.86-3.05,.64-.85,1.5-1.42,2.3-1.54,.78-.11,1.57,.21,2.22,.91,.65,.69,1.1,1.67,1.25,2.75,.15,1.08,0,2.14-.44,2.99-.37,.71-.9,1.19-1.51,1.4Zm-1.9-7.87c-.66,.22-1.34,.73-1.85,1.41-.69,.92-.99,1.98-.85,2.99,.14,1.01,.72,1.95,1.64,2.64,.82,.62,1.8,.94,2.57,.83,.75-.11,1.4-.62,1.83-1.44,.43-.83,.58-1.87,.44-2.94-.15-1.07-.58-2.03-1.23-2.71-.64-.67-1.4-.99-2.15-.88-.13,.02-.27,.05-.4,.09Z"/>
                </g>
                <g>
                  <ellipse class="cls-18" cx="20.34" cy="14.72" rx="2.3" ry="3.09" transform="translate(-1.84 2.96) rotate(-7.97)"/>
                  <circle cx="20.58" cy="14.95" r="2.01"/>
                  <path class="cls-3" d="M19.47,13.07c.09,.61-.1,1.15-.42,1.19-.32,.04-.65-.42-.73-1.03-.09-.61,.1-1.15,.42-1.19,.32-.04,.65,.42,.73,1.03Z"/>
                  <path class="cls-3" d="M22.46,15.96c.04,.26-.14,.5-.41,.54s-.5-.14-.54-.41c-.04-.26,.14-.5,.41-.54,.26-.04,.5,.14,.54,.41Z"/>
                </g>
              </g>
              <g>
                <g>
                  <path class="cls-3" d="M28.22,13.77c.31,2.22,1.84,3.84,3.42,3.62,1.58-.22,3.44-2.32,3.13-4.54-.31-2.22-2.68-3.73-4.26-3.51-1.58,.22-2.61,2.2-2.3,4.42Z"/>
                  <path d="M32.08,17.33c-.14,.05-.29,.08-.43,.1-.78,.11-1.57-.21-2.22-.91-.65-.69-1.1-1.67-1.25-2.75-.15-1.08,0-2.14,.44-2.99,.44-.85,1.11-1.37,1.89-1.48,.8-.11,1.79,.2,2.64,.85,.93,.7,1.52,1.66,1.67,2.7,.14,1.03-.16,2.12-.86,3.05-.53,.7-1.2,1.21-1.88,1.44Zm-1.91-7.86c-.6,.2-1.11,.67-1.47,1.36-.43,.83-.58,1.87-.44,2.94h0c.15,1.07,.58,2.03,1.23,2.71,.64,.67,1.4,.99,2.15,.88,.77-.11,1.63-.68,2.25-1.5,.69-.92,.99-1.98,.85-2.99-.14-1.01-.72-1.95-1.64-2.64-.82-.62-1.8-.94-2.57-.83-.12,.02-.24,.05-.36,.08Z"/>
                </g>
                <g>
                  <ellipse class="cls-18" cx="31.04" cy="13.96" rx="2.3" ry="3.09" transform="translate(-1.63 4.44) rotate(-7.97)"/>
                  <circle cx="30.87" cy="14.25" r="2.01"/>
                  <ellipse class="cls-3" cx="32" cy="12.05" rx=".58" ry="1.12" transform="translate(-1.36 4.55) rotate(-7.97)"/>
                  <path class="cls-3" d="M29.35,15.73c.04,.26,.28,.44,.54,.41s.44-.28,.41-.54c-.04-.26-.28-.44-.54-.41-.26,.04-.44,.28-.41,.54Z"/>
                </g>
              </g>
            </g>
            <g>
              <path class="cls-3" d="M38.54,13.97s-2.72-.45-6.82,2.47c-4.09,2.91-2.92-1.34-5.82-1.12h0s-.01,0-.02,0c0,0-.01,0-.02,0h0c-2.9,.3-.99,4.27-5.53,2.14-4.56-2.14-7.15-1.21-7.15-1.21-6.58,2.72-4.43,10.38-4.43,10.38,2.24,7.63,13.47,3.5,13.47,3.5,0,0,2.14,1.16,5.06,.91h0s.01,0,.02,0c0,0,.01,0,.02,0h0c2.91-.27,4.82-1.8,4.82-1.8,0,0,11.78,2.06,12.63-5.84,0,0,.74-7.92-6.22-9.42Z"/>
              <path d="M15.97,31.33c-1.42,0-2.93-.21-4.22-.86-1.53-.77-2.57-2.05-3.09-3.81,0-.02-.54-1.96-.25-4.21,.17-1.32,.58-2.49,1.23-3.48,.81-1.23,1.99-2.17,3.51-2.8,.11-.04,2.68-.92,7.22,1.21,2.6,1.22,2.99,.44,3.49-.55,.34-.67,.73-1.44,1.9-1.59h0s.21-.02,.21-.02h0c1.18-.05,1.69,.63,2.15,1.23,.67,.88,1.2,1.58,3.53-.08,4.09-2.91,6.77-2.5,6.89-2.48h0c1.61,.35,2.94,1.06,3.95,2.13,.81,.85,1.43,1.93,1.83,3.2,.68,2.16,.5,4.16,.5,4.18-.2,1.83-.99,3.27-2.36,4.3-1.91,1.44-4.63,1.8-6.58,1.86-1.93,.05-3.49-.19-3.76-.23-.26,.2-2.09,1.51-4.74,1.78h0s-.21,.02-.21,.02h0c-2.66,.2-4.7-.76-4.99-.91-.25,.09-1.75,.6-3.65,.9-.76,.12-1.65,.21-2.59,.21Zm-1.17-15.19c-1.02,0-1.57,.19-1.59,.19-2.69,1.11-4.25,3.18-4.63,6.14-.28,2.21,.24,4.12,.25,4.14,.5,1.71,1.51,2.96,3,3.7,4.02,2.02,10.29-.24,10.36-.27h.04s.04,0,.04,0c.02,.01,2.16,1.14,5.01,.9h.04c2.85-.27,4.75-1.76,4.77-1.78l.03-.02h.04c.07,.02,6.64,1.13,10.24-1.58,1.33-1,2.1-2.41,2.29-4.18,0-.02,.18-1.99-.5-4.12-.9-2.84-2.8-4.59-5.65-5.21-.08-.01-2.77-.38-6.75,2.45-2.48,1.76-3.11,.93-3.78,.05-.46-.61-.94-1.24-2.09-1.15h-.04c-1.14,.12-1.5,.83-1.85,1.51-.5,.99-.98,1.92-3.73,.63-2.42-1.14-4.29-1.4-5.5-1.4Z"/>
            </g>
            <path d="M26.43,22.36c-.5-2.21-.37-4.11-.37-4.13h.18s-.13,1.9,.37,4.09l-.17,.04Z"/>
            <g>
              <g>
                <g>
                  <g>
                    <path d="M26.49,22.14s-1.16,1.52-3.05,.48c0,0,1.26,1.21,1.83,3.22,.45,1.57,1.23,1.67,1.55,1.64,.1,0,.19-.02,.29-.03,.32-.03,1.07-.27,1.23-1.89,.21-2.08,1.23-3.49,1.23-3.49-1.67,1.36-3.08,.07-3.08,.07Z"/>
                    <path d="M26.74,27.57c-.38,0-1.12-.21-1.55-1.71-.56-1.96-1.8-3.17-1.81-3.18l-.48-.46,.58,.32c1.8,.99,2.92-.44,2.93-.46l.06-.08,.07,.06c.06,.05,1.38,1.22,2.97-.07l.51-.42-.39,.54s-1.01,1.42-1.21,3.45c-.17,1.69-.97,1.94-1.31,1.97-.1,0-.19,.02-.29,.03-.03,0-.06,0-.09,0Zm-2.94-4.69c.41,.49,1.16,1.52,1.56,2.93,.43,1.51,1.16,1.61,1.45,1.58,.1,0,.19-.02,.29-.03,.29-.02,.99-.25,1.15-1.81,.15-1.46,.69-2.6,1.01-3.16-1.35,.83-2.48,.09-2.77-.13-.24,.27-1.23,1.2-2.7,.62Z"/>
                  </g>
                  <g>
                    <path class="cls-17" d="M26.83,27.48c.1,0,.19-.02,.29-.03,.28-.02,.87-.21,1.13-1.3-.21-.52-.61-.86-1.05-.83-.15,.01-.29,.07-.41,.16-.14-.07-.28-.1-.43-.09-.43,.04-.77,.45-.88,1,.45,1.03,1.07,1.1,1.35,1.08Z"/>
                    <path d="M26.74,27.57c-.31,0-.91-.14-1.34-1.13v-.03s0-.03,0-.03c.12-.61,.5-1.03,.96-1.07,.14-.01,.29,.01,.43,.07,.13-.09,.26-.14,.41-.15,.46-.04,.91,.3,1.14,.88v.03s0,.03,0,.03c-.28,1.17-.94,1.35-1.21,1.37-.1,0-.19,.02-.29,.03-.03,0-.06,0-.09,0Zm-1.17-1.18c.44,.97,1.02,1.02,1.25,1h0c.1,0,.19-.02,.29-.03,.23-.02,.79-.18,1.05-1.21-.2-.49-.57-.78-.95-.74-.13,.01-.25,.06-.36,.15l-.04,.03-.05-.02c-.13-.06-.25-.09-.38-.08-.37,.03-.69,.39-.8,.9Z"/>
                  </g>
                  <g>
                    <path class="cls-3" d="M26.24,24.85l1.01-.09c.42-.04,.75-.38,.77-.81l.05-1.26c-.93,.03-1.57-.55-1.57-.55,0,0-.5,.65-1.38,.81l.22,1.21c.08,.43,.47,.73,.91,.69Z"/>
                    <path d="M26.16,24.94c-.45,0-.83-.32-.91-.77l-.23-1.29,.09-.02c.83-.15,1.32-.77,1.32-.78l.06-.08,.07,.06s.63,.56,1.51,.53h.09s-.05,1.35-.05,1.35c-.02,.47-.38,.85-.85,.89l-1.01,.09s-.06,0-.09,0Zm-.94-1.92l.2,1.12c.07,.39,.42,.65,.81,.62l1.01-.09c.38-.03,.67-.35,.69-.72l.04-1.17c-.74,0-1.28-.37-1.47-.51-.15,.17-.6,.6-1.28,.76Z"/>
                  </g>
                  <rect x="26.52" y="22.13" width=".18" height="2.67" transform="translate(-2 2.48) rotate(-5.14)"/>
                  <polygon points="26.88 25.48 26.9 26.66 26.71 25.5 26.88 25.48"/>
                </g>
                <path d="M29.64,22.13l-.13-.12c.08-.09,1.9-2.08,3.69-1.96v.18c-1.71-.11-3.54,1.88-3.56,1.9Z"/>
                <path d="M23.39,22.69s-2.18-1.65-3.83-1.24l-.04-.17c1.74-.44,3.89,1.2,3.98,1.27l-.11,.14Z"/>
                <path d="M33.03,19.38s.02,.02,.05,.05c.01,.02,.03,.04,.05,.06,.02,.03,.04,.06,.05,.09,.02,.03,.04,.07,.05,.12,.01,.04,.03,.09,.04,.14,0,.05,.02,.1,.02,.15,0,.05,0,.11,0,.16,0,.05-.02,.11-.03,.16-.01,.05-.03,.1-.05,.14-.02,.05-.04,.09-.07,.13-.02,.04-.05,.07-.07,.1-.02,.03-.04,.06-.07,.08-.02,.02-.04,.04-.06,.06-.03,.03-.05,.05-.05,.05,0,0,0-.03,.03-.07,0-.02,.02-.05,.03-.07,.01-.03,.02-.06,.04-.09,0-.02,.01-.03,.02-.05,0-.02,.02-.04,.02-.06,.01-.04,.02-.08,.04-.12,0-.04,.02-.09,.03-.13,0-.05,.02-.09,.02-.14,0-.05,0-.09,0-.14,0-.02,0-.05,0-.07,0-.02,0-.04,0-.07,0-.04,0-.09-.01-.13,0-.04-.01-.08-.02-.11-.01-.07-.03-.13-.04-.17-.01-.04-.02-.07-.02-.07Z"/>
                <path d="M19.58,20.59s0,.03,0,.07c0,.04,0,.11,0,.18,0,.04,0,.08,0,.12,0,.04,0,.08,.01,.13,0,.02,0,.04,0,.07,0,.02,0,.04,.01,.07,0,.04,.02,.09,.03,.13,.01,.04,.03,.09,.04,.13,.02,.04,.04,.08,.05,.12,.02,.04,.04,.08,.06,.11,0,.02,.02,.04,.03,.05,.01,.02,.02,.03,.03,.05,.02,.03,.03,.06,.05,.09,.02,.02,.03,.05,.04,.07,.02,.04,.04,.06,.04,.06,0,0-.02-.01-.06-.03-.02-.01-.04-.03-.07-.04-.03-.02-.05-.04-.08-.07-.03-.03-.06-.05-.09-.09-.03-.03-.06-.07-.09-.11-.02-.04-.05-.09-.07-.13-.02-.05-.04-.1-.06-.15-.01-.05-.03-.1-.03-.16,0-.05,0-.1,0-.15,0-.05,0-.1,.01-.14,0-.04,.02-.09,.03-.12,.01-.04,.03-.07,.04-.1,.01-.03,.03-.05,.04-.07,.02-.04,.04-.06,.04-.06Z"/>
              </g>
              <path d="M25.91,28.37s.04,.02,.11,.05c.07,.03,.17,.06,.29,.1,.06,.02,.13,.03,.2,.05,.07,.02,.14,.03,.22,.04,.08,0,.16,.02,.24,.02,.08,0,.16,0,.24,0,.08,0,.16-.02,.24-.03,.08-.02,.16-.03,.23-.06,.04-.01,.07-.03,.11-.04,.04-.01,.07-.03,.1-.04,.03-.01,.06-.03,.09-.04,.03-.01,.06-.03,.09-.04,.05-.03,.11-.06,.15-.09,.04-.03,.08-.05,.11-.07,.06-.04,.1-.06,.1-.06,0,0-.03,.03-.08,.09-.02,.03-.06,.06-.1,.1-.04,.04-.08,.08-.14,.12-.05,.04-.11,.08-.18,.12-.03,.02-.07,.04-.1,.06-.04,.02-.07,.04-.11,.05-.04,.02-.08,.03-.12,.04-.02,0-.04,.01-.06,.02-.02,0-.04,.01-.06,.02-.09,.02-.17,.03-.26,.04-.09,0-.18,0-.27,0-.09,0-.17-.02-.25-.04-.08-.02-.16-.04-.23-.07-.07-.02-.14-.05-.2-.08-.12-.06-.21-.12-.27-.16-.06-.05-.09-.08-.09-.08Z"/>
            </g>
            <g>
              <ellipse class="cls-17" cx="13.78" cy="19.36" rx="1.74" ry="1.23" transform="translate(-1.68 1.31) rotate(-5.14)"/>
              <ellipse class="cls-17" cx="37.93" cy="17.19" rx="1.74" ry="1.23" transform="translate(-1.39 3.47) rotate(-5.14)"/>
            </g>
            <path d="M32.08,29.16s.03-.02,.09-.06c.05-.04,.13-.1,.22-.17,.18-.15,.4-.37,.57-.63,.04-.06,.09-.13,.12-.2,.04-.07,.07-.13,.1-.2,.03-.07,.05-.13,.07-.2,.02-.06,.04-.13,.05-.18,.01-.06,.02-.11,.03-.16,0-.05,0-.09,.01-.12,0-.07,0-.11,0-.11,0,0,0,.04,0,.11,0,.03,0,.08,0,.12,0,.05,0,.1-.02,.16,0,.06-.02,.12-.04,.19-.02,.07-.04,.14-.06,.21-.03,.07-.05,.14-.09,.21-.03,.07-.07,.14-.11,.21-.16,.28-.37,.52-.55,.69-.09,.08-.16,.15-.22,.2-.05,.04-.09,.07-.09,.07l-.1-.15Z"/>
            <path d="M22.16,30.19s0,0-.02-.02c-.01-.01-.03-.03-.05-.05-.04-.05-.1-.11-.17-.19-.07-.08-.14-.18-.21-.29-.04-.05-.07-.11-.11-.17-.03-.06-.07-.12-.1-.18-.03-.06-.06-.12-.09-.19-.03-.06-.05-.12-.08-.19-.02-.06-.04-.12-.06-.18-.02-.06-.03-.11-.04-.16,0-.05-.02-.1-.03-.14,0-.04,0-.08-.01-.11,0-.06,0-.09,0-.09,0,0,0,.03,.02,.09,0,.03,.01,.07,.02,.11,.01,.04,.02,.09,.04,.14,.01,.05,.03,.1,.05,.16,.02,.06,.04,.11,.07,.17,.02,.06,.06,.12,.09,.18,.03,.06,.07,.12,.1,.18,.04,.06,.08,.11,.11,.17,.04,.05,.08,.11,.12,.16,.08,.1,.16,.19,.23,.26,.07,.07,.13,.13,.17,.17,.02,.02,.04,.03,.05,.04,.01,.01,.02,.02,.02,.02l-.12,.13Z"/>
            <path d="M21.05,9.4s-1.24-.2-2.02-.61l.4,.4s-.75,.05-1.24-.02l.44,.19s-1.08,.42-1.5,.29c0,0,.32,.19,.57,.25,0,0-.79,.43-1.26,.3,0,0,.53,.28,.77,.18,0,0-.44,.56-1.07,.51,0,0,.31,.16,.63,.05,0,0-.22,.14-.63,.67,0,0,.53-.5,.9-.53,0,0,2.09-2.02,4.02-1.69Z"/>
            <path d="M29.58,8.63s1.19-.42,1.87-.96l-.32,.46s.74-.08,1.22-.24l-.4,.27s1.14,.22,1.53,.02c0,0-.28,.24-.51,.34,0,0,.85,.29,1.29,.07,0,0-.47,.37-.72,.32,0,0,.53,.47,1.14,.31,0,0-.27,.21-.61,.16,0,0,.24,.1,.74,.55,0,0-.61-.4-.98-.37,0,0-2.41-1.62-4.25-.95Z"/>
            <g>
              <path class="cls-1" d="M31.66,8.3c-2.59,.27-4.51,2.49-4.46,5.05-1.24-.21-2.34,.07-3.02,.33-.47-2.52-2.81-4.3-5.41-4.03-2.73,.28-4.72,2.74-4.44,5.47,.28,2.73,2.74,4.72,5.47,4.44,2.5-.26,4.38-2.34,4.46-4.79,.52-.23,1.74-.66,3.08-.33,.58,2.38,2.85,4.03,5.35,3.77,2.73-.28,4.72-2.74,4.44-5.47-.28-2.73-2.74-4.72-5.47-4.44Zm-11.97,10.22c-2.16,.23-4.11-1.35-4.33-3.52-.23-2.16,1.35-4.11,3.52-4.33,2.16-.23,4.11,1.35,4.33,3.52,.23,2.16-1.35,4.11-3.52,4.33Zm12.89-1.34c-2.16,.23-4.11-1.35-4.33-3.52-.23-2.16,1.35-4.11,3.52-4.33,2.16-.23,4.11,1.35,4.33,3.52,.23,2.16-1.35,4.11-3.52,4.33Z"/>
              <path class="cls-5" d="M19.28,19.67c-1.16,0-2.27-.39-3.18-1.13-1.05-.85-1.71-2.06-1.85-3.41-.29-2.78,1.74-5.28,4.52-5.57,1.27-.13,2.54,.22,3.56,.99,.99,.74,1.67,1.81,1.92,3.02,.69-.25,1.72-.48,2.86-.31,0-1.23,.45-2.41,1.26-3.34,.84-.96,2.01-1.56,3.28-1.7v.09s0-.09,0-.09c2.78-.29,5.28,1.74,5.57,4.52,.29,2.78-1.74,5.28-4.52,5.57-2.49,.26-4.82-1.37-5.44-3.79-1.26-.3-2.43,.1-2.92,.31-.11,2.49-2.05,4.56-4.54,4.82-.18,.02-.36,.03-.53,.03Zm0-9.96c-.17,0-.33,0-.5,.03-2.68,.28-4.64,2.69-4.36,5.37,.14,1.3,.77,2.47,1.79,3.29,1.02,.82,2.29,1.2,3.59,1.07,2.42-.25,4.3-2.28,4.38-4.71v-.06s.05-.02,.05-.02c.48-.22,1.76-.68,3.14-.33h.05s.01,.06,.01,.06c.58,2.37,2.84,3.96,5.26,3.71,2.68-.28,4.64-2.69,4.36-5.37-.28-2.68-2.69-4.64-5.37-4.36-2.51,.26-4.43,2.44-4.38,4.96v.11s-.1-.02-.1-.02c-1.2-.2-2.28,.06-2.97,.32l-.1,.04-.02-.1c-.43-2.32-2.5-3.99-4.81-3.99Zm0,8.93c-2.04,0-3.79-1.55-4.01-3.62-.23-2.21,1.38-4.2,3.59-4.43,2.21-.23,4.2,1.38,4.43,3.59,.23,2.21-1.38,4.2-3.59,4.43-.14,.01-.28,.02-.42,.02Zm0-7.89c-.13,0-.27,0-.4,.02-2.12,.22-3.66,2.12-3.44,4.24,.22,2.12,2.12,3.66,4.24,3.44h0c2.12-.22,3.66-2.12,3.44-4.24-.21-1.98-1.89-3.46-3.83-3.46Zm12.88,6.55c-.92,0-1.81-.31-2.53-.9-.84-.68-1.36-1.64-1.47-2.71-.23-2.21,1.38-4.2,3.59-4.43,2.21-.23,4.2,1.38,4.43,3.59,.23,2.21-1.38,4.2-3.59,4.43-.14,.01-.28,.02-.42,.02Zm0-7.89c-.13,0-.27,0-.4,.02-2.12,.22-3.66,2.12-3.44,4.24,.11,1.02,.61,1.94,1.41,2.59,.8,.65,1.81,.95,2.83,.84,2.12-.22,3.66-2.12,3.44-4.24-.21-1.98-1.89-3.46-3.83-3.46Z"/>
            </g>
            <g>
              <path d="M28.44,15.83c.09,1.38-.96,2.57-2.34,2.66-1.38,.09-2.57-.96-2.66-2.34-.09-1.38,1.06-1.04,2.44-1.13,1.38-.09,2.47-.58,2.56,.8Z"/>
              <path class="cls-3" d="M23.86,15.65s0,0,0,.03c0,.02,0,.04,0,.07,0,.03,0,.07,.01,.11,0,.04,.01,.09,.02,.14,0,.05,.02,.11,.03,.16,.01,.06,.03,.12,.04,.18,.02,.06,.03,.12,.05,.19,0,.03,.02,.06,.03,.09,.01,.03,.02,.06,.04,.09,.02,.06,.05,.12,.08,.18l.02,.04s.01,.03,.02,.04c.01,.03,.03,.06,.04,.08,0,.01,.01,.03,.02,.04,0,.01,.02,.03,.02,.04,.02,.03,.03,.05,.05,.08,.03,.05,.06,.1,.09,.14,.01,.02,.03,.04,.04,.06,.01,.02,.03,.04,.04,.06,.03,.03,.05,.06,.07,.09,.04,.05,.06,.08,.06,.08,0,0-.03-.02-.09-.05-.03-.02-.06-.04-.1-.06-.04-.02-.07-.06-.12-.09-.04-.04-.09-.07-.13-.12-.02-.02-.04-.05-.06-.07-.01-.01-.02-.03-.03-.04,0-.01-.02-.03-.03-.04-.02-.03-.04-.06-.06-.09,0-.01-.02-.03-.03-.05,0-.02-.02-.03-.02-.05-.03-.06-.07-.13-.09-.2-.01-.03-.02-.07-.04-.1,0-.04-.02-.07-.03-.11,0-.04-.02-.07-.02-.11,0-.04-.01-.07-.02-.1,0-.03,0-.07,0-.1,0-.03,0-.07,0-.1,0-.06,0-.12,.01-.18,0-.05,.02-.1,.02-.15,0-.04,.02-.08,.03-.11,0-.03,.02-.05,.02-.07,0-.02,.01-.02,.01-.02Z"/>
            </g>
          </g>
          <g>
            <g>
              <path class="cls-1" d="M21.36,28.18l2.11,10.22s-1.35,.04-1,1.26l-6.47,1.12c-.64,.11-1.24-.3-1.39-.93l-2.08-9.29c-.09-.4,.17-.79,.57-.87l8.26-1.52Z"/>
              <path class="cls-5" d="M15.79,40.89c-.6,0-1.13-.41-1.26-1.01l-2.08-9.29c-.05-.22,0-.44,.11-.62,.12-.19,.31-.31,.53-.35l8.34-1.53,.02,.08,2.13,10.32h-.11s-.58,.02-.85,.38c-.14,.19-.17,.45-.07,.78l.03,.09-6.56,1.14c-.08,.01-.15,.02-.22,.02Zm5.5-12.61l-8.17,1.5c-.17,.03-.32,.13-.41,.27-.1,.14-.13,.32-.09,.49l2.08,9.29c.13,.58,.7,.96,1.28,.86l6.37-1.1c-.08-.34-.03-.62,.13-.83,.24-.33,.68-.42,.88-.44l-2.07-10.04Z"/>
            </g>
            <g>
              <path class="cls-3" d="M22.41,39.41c-.07-.67,.45-.9,.79-.97l-2.1-10.01-8.12,1.48c-.17,.03-.26,.22-.31,.37-.06,.19,.07,.4,.27,.42,.02,0,.04,0,.06,0l7.43-1.41,2,10.11Z"/>
              <path d="M22.33,39.43l-1.98-10.03-7.35,1.39s-.05,0-.08,0c-.12-.01-.22-.08-.29-.18-.07-.11-.09-.24-.05-.36,.08-.25,.21-.4,.38-.43l8.21-1.5,2.14,10.18-.09,.02c-.36,.08-.78,.3-.72,.88l-.17,.03Zm-1.84-10.23l1.92,9.7c.12-.25,.35-.43,.69-.52l-2.07-9.84-8.04,1.47c-.13,.02-.2,.18-.24,.31-.02,.07-.01,.15,.03,.21,.04,.06,.09,.09,.16,.1,.02,0,.03,0,.03,0l7.52-1.42Z"/>
            </g>
            <path class="cls-5" d="M20.33,29.3s-.02-.63,.73-.95l.07,.16c-.64,.28-.63,.78-.63,.78h-.18Z"/>
            <g>
              <path class="cls-3" d="M13.97,31.64c.14,0,5.93-1.12,5.93-1.12l.56,2.53-6,1.09-.49-2.49Z"/>
              <path d="M14.39,34.24l-.53-2.68h.11c.18-.01,4.33-.81,5.92-1.12l.08-.02,.6,2.7-6.18,1.12Zm-.32-2.52l.46,2.32,5.83-1.06-.52-2.35c-1.05,.2-5.05,.98-5.76,1.09Z"/>
            </g>
            <g>
              <path class="cls-18" d="M12.25,36.41s-.56,2.34,1.29,2.22c1.85-.12,2.11-.4,1.85-1.15-.26-.75-1.01-1.54-3.14-1.08Z"/>
              <path d="M13.4,38.73c-.43,0-.76-.14-.98-.4-.56-.66-.27-1.88-.26-1.93v-.05s.07-.01,.07-.01c2.19-.48,2.97,.35,3.24,1.13,.08,.24,.15,.52,0,.75-.2,.3-.74,.44-1.93,.52-.05,0-.09,0-.14,0Zm-1.08-2.24c-.05,.24-.2,1.2,.23,1.72,.21,.25,.54,.37,.97,.34,1.1-.07,1.63-.2,1.79-.44,.08-.13,.08-.3-.02-.59-.35-1.01-1.38-1.37-2.98-1.03Z"/>
            </g>
            <g>
              <path class="cls-18" d="M12.15,34.23s-1.99,1.64,.09,2.57c2.08,.94,3.09-.21,2.95-.94-.14-.73-.7-1.73-3.04-1.64Z"/>
              <path d="M13.68,37.25c-.39,0-.88-.09-1.47-.36-.6-.27-.94-.63-.99-1.06-.11-.83,.84-1.63,.88-1.66l.02-.02h.03c2.3-.09,2.97,.88,3.13,1.71,.07,.36-.11,.76-.45,1.04-.17,.14-.55,.36-1.15,.36Zm-1.49-2.93c-.14,.12-.89,.81-.8,1.48,.05,.37,.35,.68,.89,.92,1.42,.64,2.18,.23,2.44,.02,.29-.23,.45-.57,.39-.86-.21-1.1-1.2-1.63-2.92-1.57Z"/>
            </g>
            <g>
              <path class="cls-18" d="M12.9,32.23l.2,.88s1.75-.4,1.75,.75-.37,1.47-1.71,1.47-1.54-1.22-1.54-1.69,.44-1.14,1.31-1.42Z"/>
              <path d="M13.14,35.42c-1.29,0-1.63-1.11-1.63-1.77,0-.51,.48-1.21,1.37-1.5l.09-.03,.2,.89c.26-.05,1.04-.15,1.48,.19,.19,.15,.29,.38,.29,.66,0,1.2-.42,1.56-1.8,1.56Zm-.3-3.07c-.75,.28-1.16,.87-1.16,1.3,0,.16,.04,1.6,1.46,1.6,1.29,0,1.62-.29,1.62-1.39,0-.23-.07-.4-.22-.52-.45-.36-1.4-.14-1.41-.14l-.09,.02-.2-.87Z"/>
            </g>
            <path class="cls-5" d="M12.86,33.49l-.18-.02c.03-.29,.37-.43,.38-.43l.07,.16-.03-.08,.03,.08s-.25,.11-.27,.29Z"/>
          </g>
          <g>
            <g>
              <path class="cls-1" d="M37.2,39.61l.72-12.33,1.25-1.81,.52,.06,1.01,1.95-.76,12.27c0,.14-.13,.25-.27,.24l-2.24-.11c-.14,0-.25-.13-.24-.27Z"/>
              <path class="cls-5" d="M39.69,40.08s-.01,0-.02,0l-2.24-.11c-.09,0-.18-.04-.24-.11-.06-.07-.09-.16-.09-.25l.73-12.36,1.3-1.87,.62,.07,1.04,2.02v.02s-.76,12.27-.76,12.27c-.01,.18-.16,.32-.34,.32Zm-2.4-.46s.01,.09,.04,.12c.03,.03,.07,.05,.12,.05l2.24,.11c.09,0,.17-.07,.17-.16l.76-12.24-.97-1.89-.42-.05-1.21,1.74-.72,12.31Z"/>
            </g>
            <g>
              <polygon class="cls-5" points="39.18 25.47 39.49 24.74 39.7 25.53 39.18 25.47"/>
              <path class="cls-5" d="M39.82,25.63l-.76-.09,.46-1.08,.3,1.16Zm-.51-.24l.27,.03-.11-.42-.16,.38Z"/>
            </g>
            <g>
              <path class="cls-18" d="M40.7,27.48l-1.01-1.95-.52-.06-1.25,1.81s.96,.66,2.78,.2Z"/>
              <path d="M39.47,27.73c-1.02,0-1.56-.36-1.59-.38l-.07-.05,1.33-1.92,.62,.07,1.08,2.09-.11,.03c-.48,.12-.9,.16-1.25,.16Zm-1.42-.48c.25,.13,1.12,.49,2.52,.17l-.93-1.81-.42-.05-1.17,1.68Z"/>
            </g>
            <g>
              <ellipse class="cls-18" cx="39.93" cy="37.43" rx=".89" ry="1.15" transform="translate(-1.74 72.92) rotate(-83.57)"/>
              <path d="M40,38.41c-.06,0-.12,0-.18-.01-.32-.04-.62-.17-.83-.37-.22-.21-.32-.47-.29-.73,.06-.53,.66-.91,1.34-.83,.32,.04,.62,.17,.83,.37,.22,.21,.32,.47,.29,.73-.03,.26-.19,.49-.45,.65-.2,.12-.45,.19-.71,.19Zm-.14-1.78c-.51,0-.94,.29-.99,.68-.02,.21,.06,.42,.24,.59,.18,.18,.44,.29,.73,.32,.29,.03,.56-.02,.78-.15,.21-.13,.34-.31,.36-.52h0c.02-.21-.06-.42-.24-.59-.18-.18-.44-.29-.73-.32-.05,0-.11,0-.16,0Z"/>
            </g>
            <g>
              <ellipse class="cls-18" cx="37.3" cy="34.23" rx="1.07" ry="1.38" transform="translate(-2.95 3.53) rotate(-5.21)"/>
              <path d="M37.35,35.69c-.28,0-.55-.13-.78-.36-.24-.25-.39-.61-.42-.99s.05-.76,.24-1.05c.19-.3,.47-.48,.78-.51,.31-.03,.62,.1,.86,.36,.24,.25,.39,.61,.42,.99,.07,.8-.38,1.51-1.02,1.56h0s-.06,0-.09,0Zm-.1-2.75s-.05,0-.07,0c-.26,.02-.49,.18-.65,.43-.17,.26-.24,.6-.21,.94,.03,.35,.17,.66,.38,.89,.21,.22,.46,.33,.72,.31,.54-.05,.92-.66,.86-1.37-.03-.35-.17-.66-.38-.89-.19-.2-.41-.31-.65-.31Z"/>
            </g>
            <g>
              <ellipse class="cls-18" cx="39.91" cy="35.94" rx="1.07" ry="1.38" transform="translate(-.27 71.57) rotate(-83.57)"/>
              <path d="M39.99,37.1c-.07,0-.14,0-.21-.01-.39-.04-.74-.2-.99-.44-.26-.25-.38-.56-.34-.87,.03-.31,.22-.58,.53-.77,.3-.18,.67-.26,1.06-.21,.39,.04,.74,.2,.99,.44,.26,.25,.38,.56,.34,.87h0c-.07,.58-.66,.99-1.38,.99Zm-.16-2.14c-.28,0-.54,.07-.76,.2-.26,.16-.42,.38-.44,.64-.03,.26,.07,.51,.29,.72,.22,.22,.54,.36,.88,.4,.71,.08,1.33-.29,1.39-.83,.03-.26-.07-.51-.29-.72-.22-.22-.54-.36-.88-.4-.06,0-.13-.01-.19-.01Z"/>
            </g>
            <g>
              <ellipse class="cls-18" cx="39.82" cy="34.26" rx="1.12" ry="1.47" transform="translate(1.31 69.99) rotate(-83.57)"/>
              <path d="M39.91,35.47c-.07,0-.15,0-.22-.01-.41-.05-.78-.21-1.04-.46-.27-.26-.4-.58-.36-.91,.07-.66,.83-1.12,1.68-1.02,.85,.1,1.48,.71,1.41,1.37h0c-.07,.6-.7,1.04-1.45,1.04Zm-.18-2.24c-.67,0-1.22,.37-1.28,.88-.03,.27,.08,.54,.31,.76,.24,.23,.57,.38,.94,.42,.75,.08,1.42-.3,1.48-.87,.06-.56-.5-1.09-1.25-1.18-.07,0-.14-.01-.21-.01Z"/>
            </g>
          </g>
        </g>
      </g>
    </g>
  </g>
</svg>