<?xml version="1.0" encoding="UTF-8"?>
<svg xmlns="http://www.w3.org/2000/svg" xmlns:xlink="http://www.w3.org/1999/xlink" viewBox="0 0 64 64">
  <defs>
    <style>
      .cls-1 {
        fill: #561741;
      }

      .cls-2 {
        fill: url(#linear-gradient-2);
      }

      .cls-3, .cls-4 {
        fill: #fff;
      }

      .cls-5, .cls-6 {
        fill: #ae66ac;
      }

      .cls-5, .cls-7 {
        mix-blend-mode: multiply;
      }

      .cls-8 {
        fill: #8c8587;
      }

      .cls-8, .cls-6, .cls-9 {
        mix-blend-mode: overlay;
      }

      .cls-10 {
        fill: #e15a96;
      }

      .cls-11 {
        isolation: isolate;
      }

      .cls-4 {
        opacity: .5;
      }

      .cls-12, .cls-13 {
        fill: #2b2829;
      }

      .cls-12, .cls-14 {
        mix-blend-mode: screen;
      }

      .cls-15 {
        fill: #dcc2a7;
      }

      .cls-16 {
        opacity: .3;
      }

      .cls-17 {
        fill: #ffc392;
      }

      .cls-18 {
        fill: #ff8f18;
      }

      .cls-19 {
        fill: url(#linear-gradient);
      }

      .cls-7 {
        fill: #b50e81;
      }

      .cls-20 {
        opacity: .27;
      }

      .cls-9 {
        fill: #998a8e;
      }
    </style>
    <linearGradient id="linear-gradient" x1="64" y1="34.03" x2="5.45" y2="34.03" gradientUnits="userSpaceOnUse">
      <stop offset="0" stop-color="#cf965b"/>
      <stop offset=".25" stop-color="#ca9257"/>
      <stop offset=".51" stop-color="#be864c"/>
      <stop offset=".78" stop-color="#a9733a"/>
      <stop offset="1" stop-color="#925d26"/>
    </linearGradient>
    <linearGradient id="linear-gradient-2" x1="61.28" y1="31.49" x2="1.36" y2="31.49" gradientUnits="userSpaceOnUse">
      <stop offset="0" stop-color="#e8b886"/>
      <stop offset=".25" stop-color="#e3b482"/>
      <stop offset=".5" stop-color="#d7a877"/>
      <stop offset=".76" stop-color="#c29464"/>
      <stop offset="1" stop-color="#a97c4e"/>
    </linearGradient>
  </defs>
  <g class="cls-11">
    <g id="_Слой_2" data-name="Слой 2">
      <g id="_Слой_1-2" data-name="Слой 1">
        <g>
          <g>
            <path class="cls-19" d="M60.49,6.68c-1.75-1.6-4.41-2.62-7.38-2.62H14.98c-5.26,0-9.53,3.19-9.53,7.11V55.87c0,2.22,1.37,4.2,3.51,5.51,1.75,1.6,4.41,2.62,7.38,2.62H54.47c5.26,0,9.53-3.19,9.53-7.11V12.19c0-2.22-1.37-4.2-3.51-5.51Z"/>
            <path class="cls-2" d="M57.77,4.65c-.41-.37-.86-.71-1.36-1.02-1.75-1.6-4.41-2.62-7.38-2.62H10.89C5.64,1.02,1.36,4.21,1.36,8.13V52.83c0,2.22,1.37,4.2,3.51,5.51,.41,.37,.86,.71,1.36,1.02,1.75,1.6,4.41,2.62,7.38,2.62H51.74c5.26,0,9.53-3.19,9.53-7.11V10.16c0-2.22-1.37-4.2-3.51-5.51Z"/>
            <path class="cls-15" d="M47.66,0H9.53C4.28,0,0,3.19,0,7.11V51.81c0,3.92,4.28,7.11,9.53,7.11H47.66c5.26,0,9.53-3.19,9.53-7.11V7.11c0-3.92-4.28-7.11-9.53-7.11Z"/>
          </g>
          <path class="cls-9" d="M5.89,14.33c-.01-2.85,.17-6.06,2.96-8,2.12-1.47,5.21-1.81,8.09-1.99,6.68-.42,13.42-.36,20.09,.18,3.3,.26,6.79,.71,9.28,2.36,3.69,2.45,3.93,6.61,3.9,10.29-.08,9.24-.15,18.48-.23,27.72-.02,2.2-.08,4.51-1.54,6.42-1.54,2-4.45,3.25-7.46,3.8-3.01,.55-6.15,.48-9.24,.41-5.15-.12-10.31-.24-15.43-.71-2.79-.26-9.22-.18-10.19-2.65-.66-1.68-.07-4.15-.07-5.9,0-2.02-.02-4.03-.03-6.05-.02-4.03-.04-8.06-.06-12.1-.02-4.59-.04-9.18-.07-13.78Z"/>
          <path class="cls-9" d="M20.65,20.31c-3.25-.39-6.54-1.19-8.94-2.87-2.39-1.69-3.67-4.43-2.38-6.69,.89-1.57,2.87-2.69,5.01-3.3,2.14-.61,4.45-.77,6.74-.89,5.74-.3,11.52-.39,17.22,.17,2.22,.22,4.55,.57,6.21,1.7,2.93,1.99,2.55,5.66,.4,8.14-5.33,6.17-16.02,4.75-24.26,3.75Z"/>
          <path class="cls-12" d="M9.75,46.11c-.57-1.77-.49-3.61-.4-5.43,.37-7.55,.74-15.09,1.11-22.64,.14-2.75,.39-5.74,2.81-7.82,2.2-1.89,5.7-2.58,9.03-2.93,4.04-.42,8.14-.47,12.2-.14,3.7,.3,7.69,1.06,9.9,3.3,1.87,1.9,2.03,4.41,2.12,6.77,.33,9.07,.66,18.2-1.13,27.18-.4,1.99-1,4.12-2.97,5.5-2.25,1.58-5.63,1.75-8.72,1.75-5.06,0-10.12-.25-15.13-.73-4.65-.45-7.58-.99-8.81-4.8Z"/>
          <path class="cls-7" d="M47.66,1.02h-1.63c4.51,0,8.17,2.73,8.17,6.1V51.81c0,3.37-3.66,6.1-8.17,6.1h1.63c4.51,0,8.17-2.73,8.17-6.1V7.11c0-3.37-3.66-6.1-8.17-6.1Z"/>
          <path class="cls-6" d="M44.83,56.21c2.15-.26,4.29-1.07,5.39-2.47,.86-1.09,1-2.4,1.05-3.66,.05-1.24,.02-2.47-.08-3.71-.07-.81-.31-1.78-1.32-2.08-.75-.23-1.65,.04-2.16,.52-.51,.47-.69,1.1-.74,1.7-.11,1.25,.25,2.52-.08,3.75-.39,1.42-1.68,2.63-3.23,3.51-1.13,.64-4.12,1.25-4.5,2.21,1.43,.58,4.04,.42,5.67,.23Z"/>
          <path class="cls-8" d="M3.88,2.71c-1.55,1.11-2.52,2.67-2.52,4.4v26.08c12.35-3.44,32.73-4.39,54.47,14.33v-14.97C26.86,28.05,11.39,13.17,3.88,2.71Z"/>
          <path class="cls-4" d="M3.58,9.23c.26-1.79,1.27-3.6,3.21-4.67,2.66-1.47,6.31-1.25,9.61-.96,1.02,.09,2.32,.39,2.36,1.15,.03,.67-.97,1.08-1.84,1.21-2.2,.34-4.63-.04-6.59,.77-1.42,.58-2.33,1.69-2.8,2.85-.47,1.16-.56,2.38-.73,3.58-.07,.46-.15,.93-.44,1.34-1.08,1.49-2.05,.48-2.43-.37-.6-1.35-.53-3.5-.32-4.91Z"/>
          <g class="cls-14">
            <ellipse class="cls-13" cx="32.66" cy="10.91" rx="4.07" ry="3.03"/>
            <ellipse class="cls-13" cx="41.34" cy="12.32" rx="2.18" ry="1.63"/>
            <path class="cls-13" d="M40.11,16.13c.37,.7-.08,1.49-1.01,1.77-.93,.28-1.99-.06-2.37-.76-.37-.7,.08-1.49,1.01-1.77,.93-.28,1.99,.06,2.37,.76Z"/>
          </g>
          <g class="cls-14">
            <path class="cls-13" d="M23.64,45.38c.8,1.49-.17,3.17-2.16,3.77-1.99,.6-4.25-.13-5.05-1.61-.8-1.49,.17-3.17,2.16-3.77,1.99-.6,4.25,.13,5.05,1.61Z"/>
            <path class="cls-13" d="M20.79,40.39c.22,.41-.05,.87-.59,1.03-.54,.16-1.16-.03-1.38-.44-.22-.41,.05-.87,.59-1.03,.54-.16,1.16,.03,1.38,.44Z"/>
            <path class="cls-13" d="M15.3,41.5c.45,.84-.09,1.78-1.21,2.12-1.12,.34-2.39-.07-2.84-.91-.45-.84,.09-1.78,1.21-2.12,1.12-.34,2.39,.07,2.84,.91Z"/>
          </g>
          <g class="cls-16">
            <path class="cls-5" d="M51.02,35.95c.79,1.47-.17,3.15-2.14,3.74-1.98,.59-4.22-.12-5.01-1.6-.79-1.47,.17-3.15,2.14-3.74,1.98-.59,4.22,.12,5.01,1.6Z"/>
            <path class="cls-5" d="M53.92,29.6c.58,1.08-.12,2.3-1.57,2.74-1.45,.43-3.09-.09-3.67-1.17-.58-1.08,.12-2.3,1.57-2.74,1.45-.43,3.09,.09,3.67,1.17Z"/>
            <path class="cls-5" d="M45.56,30.99c.37,.7-.08,1.49-1.01,1.77-.93,.28-1.99-.06-2.37-.75-.37-.7,.08-1.49,1.01-1.77,.93-.28,1.99,.06,2.37,.76Z"/>
            <path class="cls-5" d="M10.65,25.55c.41,.75-.09,1.61-1.1,1.92-1.01,.3-2.16-.06-2.57-.82-.41-.75,.09-1.61,1.1-1.92,1.01-.3,2.16,.06,2.57,.82Z"/>
            <path class="cls-5" d="M11.29,21.09c.21,.39-.04,.84-.57,1-.53,.16-1.13-.03-1.34-.43-.21-.39,.04-.84,.57-1,.53-.16,1.13,.03,1.34,.43Z"/>
            <path class="cls-5" d="M6.59,20.15c.34,.63-.07,1.34-.91,1.59-.84,.25-1.79-.05-2.13-.68-.34-.63,.07-1.34,.91-1.59,.84-.25,1.79,.05,2.13,.68Z"/>
          </g>
        </g>
      </g>
      <g id="_Слой_7" data-name="Слой 7">
        <g>
          <path class="cls-18" d="M39.74,26.26l-11.93,.9-12.57,1.65s-7.11,5.27-4.75,15.07c2.39,9.8,17.31,9.27,17.31,9.27,0,0,14.93,.55,17.31-9.27,2.4-9.81-5.37-17.63-5.37-17.63Z"/>
          <path class="cls-17" d="M10.71,44.33c-.73-10.53,7.26-15.23,7.26-15.23l-2.7-.28s-7.11,5.27-4.75,15.07"/>
          <path class="cls-3" d="M35.59,52.22c.98-1.38,2.11-3.86,1.33-7.32-1.25-5.62-9.1-5.3-9.1-5.3,0,0-7.84-.31-9.1,5.3-.77,3.47,.36,5.94,1.33,7.32,4.03,1.08,7.76,.95,7.76,.95,0,0,3.74,.13,7.78-.95Z"/>
          <g class="cls-20">
            <path class="cls-1" d="M27.83,50.41s-14.52,.51-17.66-8.4c.08,.61,.19,1.23,.35,1.88,2.39,9.8,17.31,9.27,17.31,9.27,0,0,14.93,.55,17.31-9.27,.16-.65,.27-1.26,.35-1.88-3.12,8.91-17.64,8.4-17.64,8.4Z"/>
          </g>
          <path class="cls-1" d="M28.28,53.54c-.25,0-.4,0-.45-.01-.29,.01-3.91,.1-7.86-.97-2.39-.65-4.4-1.59-5.96-2.79-1.99-1.53-3.28-3.48-3.85-5.8-1.26-5.18,.12-9.12,1.52-11.5,1.51-2.58,3.28-3.92,3.37-3.96l.08-.06,12.68-1.67,12.09-.92,.12,.12c.08,.08,2,2.03,3.66,5.24,1.54,2.96,3.09,7.57,1.83,12.75-.57,2.32-1.86,4.27-3.85,5.8-1.57,1.21-3.58,2.14-5.96,2.79-3.27,.89-6.29,.98-7.43,.98Zm-.45-.77h.01s3.74,.12,7.67-.95c5.19-1.41,8.32-4.11,9.27-8.03,1.19-4.96-.29-9.39-1.78-12.24-1.36-2.65-2.96-4.44-3.41-4.91l-11.72,.89-12.46,1.64c-.35,.27-1.84,1.55-3.1,3.72-1.9,3.27-2.39,6.95-1.42,10.9,.95,3.92,4.06,6.62,9.27,8.03,3.93,1.06,7.63,.95,7.67,.95h0Z"/>
          <g class="cls-20">
            <path class="cls-1" d="M15.38,28.25s2.88,4.79,12.73,4.79c12.93,0,12.35-6.06,12.35-6.06l-25.08,1.27Z"/>
          </g>
          <g>
            <path class="cls-3" d="M15.09,44.53c-2,.99-.64,6.48,1.41,7.88,2.1,1.45,4-.44,4-2.09,.02-1.45-3.08-6.95-5.4-5.8Z"/>
            <path class="cls-3" d="M15.09,44.53c-2,.99-.64,6.48,1.41,7.88,2.1,1.45,4-.44,4-2.09,.02-1.45-3.08-6.95-5.4-5.8Z"/>
            <path class="cls-18" d="M16.22,47.06c-1.5,.78-.92,4.61,.67,5.59,1.63,1,3.26-.56,3.42-1.76,.26-2.03-2.37-4.72-4.09-3.83Z"/>
            <path class="cls-3" d="M17.47,49.21c-1.78,.7-.36,3.12,1.03,2.43,1.38-.69,.7-3.12-1.03-2.43Z"/>
            <path class="cls-1" d="M18.03,53.32c-.58,0-1.16-.19-1.73-.59-1.64-1.13-2.69-4.27-2.55-6.33,.08-1.09,.49-1.86,1.17-2.2l.17,.33-.17-.33c.71-.35,1.54-.26,2.4,.27,1.9,1.18,3.58,4.25,3.57,5.86,0,1.07-.69,2.18-1.65,2.69-.39,.2-.79,.3-1.22,.3Zm-2.2-8.58c-.2,0-.38,.04-.57,.13-.56,.27-.71,1-.76,1.59-.15,1.99,.96,4.78,2.21,5.65,.93,.65,1.7,.49,2.16,.23,.73-.37,1.24-1.23,1.24-2.02,0-1.36-1.59-4.19-3.22-5.2-.36-.26-.74-.38-1.06-.38Z"/>
            <path class="cls-1" d="M15.4,46.76c-.12,0-.25-.06-.31-.17l-.82-1.23c-.11-.17-.07-.4,.1-.52,.17-.11,.4-.07,.52,.1l.82,1.23c.11,.17,.07,.4-.1,.52-.06,.04-.13,.07-.21,.07Z"/>
            <path class="cls-1" d="M16.51,46.07c-.15,0-.28-.08-.35-.22l-.55-1.23c-.08-.19,0-.41,.19-.5,.19-.08,.41,0,.5,.19l.55,1.23c.08,.19,0,.41-.19,.5-.06,.02-.11,.03-.16,.03Z"/>
          </g>
          <g>
            <path class="cls-3" d="M36.35,44.65c2.02-.94,5.45,3.56,5.27,6.03-.18,2.56-2.85,2.85-4.13,1.81-1.14-.88-3.48-6.74-1.14-7.84Z"/>
            <path class="cls-3" d="M36.35,44.65c2.02-.94,5.45,3.56,5.27,6.03-.18,2.56-2.85,2.85-4.13,1.81-1.14-.88-3.48-6.74-1.14-7.84Z"/>
            <path class="cls-18" d="M37.44,47.33c1.54-.68,4.35,1.94,4.12,3.79-.23,1.9-2.48,2.19-3.52,1.56-1.75-1.06-2.39-4.57-.6-5.35Z"/>
            <path class="cls-3" d="M38.52,49.42c1.66-.95,2.66,1.67,1.25,2.32-1.41,.66-2.87-1.4-1.25-2.32Z"/>
            <path class="cls-1" d="M39.15,53.43c-.69,0-1.38-.21-1.92-.64-1.25-.99-2.6-4.23-2.33-6.45,.12-.99,.57-1.7,1.28-2.03h0c.7-.32,1.55-.16,2.46,.46,1.7,1.17,3.49,3.96,3.35,5.94-.09,1.17-.66,2.05-1.62,2.48-.38,.17-.79,.25-1.22,.25Zm-2.65-8.44c-.48,.22-.77,.7-.85,1.44-.22,1.91,.98,4.91,2.05,5.77,.63,.5,1.62,.63,2.36,.29,.49-.21,1.08-.7,1.16-1.83,.11-1.53-1.38-4.13-3.01-5.27-.47-.33-1.15-.66-1.71-.4h0Z"/>
            <path class="cls-1" d="M37.59,46.43c-.16,0-.3-.1-.36-.26l-.45-1.4c-.07-.2,.04-.4,.25-.48,.2-.07,.4,.04,.48,.25l.45,1.4c.07,.2-.04,.4-.25,.48-.04-.01-.08,.01-.12,.01Z"/>
            <path class="cls-1" d="M36.38,46.86c-.13,0-.27-.08-.33-.2l-.63-1.18c-.1-.18-.02-.41,.16-.51s.41-.02,.51,.16l.63,1.18c.1,.18,.02,.41-.16,.51-.06,.02-.12,.04-.18,.04Z"/>
          </g>
          <g>
            <path class="cls-18" d="M43.7,27.68c-1.31,1.91-3.06,3.18-3.06,3.18l3.08,4.2s3.98-2.76,4.5-5.85c.58-3.36-2.46-4.53-4.52-1.53Z"/>
            <path class="cls-3" d="M48.12,27.72c.08-.93-.63-1.7-1.52-1.7s-1.84,.71-2.3,1.38c-.46,.7-.98,1.42-1.26,2.19-.19,.52-.84,1.72-.28,2.52,.4,.6,1.62,.35,2.36,.11,1.31-.41,2.02-1.06,2.72-2.02,.69-.96,.28-2.49,.28-2.49"/>
            <path class="cls-1" d="M42.68,36.25c-.12,0-.25-.07-.32-.18-.11-.18-.06-.4,.12-.52,.04-.03,4.77-2.95,5.37-6.39,.22-1.31-.15-2.39-.97-2.71-.89-.36-2.02,.2-2.88,1.46-1.33,1.93-3.07,3.22-3.15,3.27-.17,.12-.4,.09-.54-.08-.12-.17-.09-.4,.08-.54,.01-.01,1.72-1.26,2.97-3.09,1.07-1.55,2.56-2.22,3.79-1.72,1.16,.47,1.72,1.86,1.42,3.55-.66,3.77-5.52,6.78-5.72,6.9-.03,.02-.1,.04-.17,.04Z"/>
            <g>
              <path class="cls-1" d="M46.88,28.49c-.08,0-.16-.02-.23-.08-.17-.12-.19-.36-.07-.54l1-1.3c.12-.17,.36-.19,.54-.07,.17,.12,.19,.36,.07,.54l-1,1.3c-.08,.09-.19,.15-.3,.15Z"/>
              <path class="cls-1" d="M45.87,27.73s-.09-.01-.15-.02c-.19-.08-.28-.3-.2-.5l.54-1.31c.08-.19,.3-.28,.5-.2s.28,.3,.2,.5l-.54,1.31c-.07,.13-.2,.22-.36,.22Z"/>
            </g>
          </g>
          <g>
            <path class="cls-18" d="M12.79,27.82c1.31,1.91,3.06,3.18,3.06,3.18l-3.08,4.2s-3.98-2.76-4.5-5.85c-.58-3.36,2.46-4.53,4.52-1.53Z"/>
            <path class="cls-3" d="M8.37,27.85c-.08-.93,.63-1.7,1.52-1.7s1.84,.71,2.3,1.38c.46,.7,.98,1.42,1.26,2.19,.19,.52,.84,1.72,.28,2.52-.4,.6-1.62,.35-2.36,.11-1.31-.41-2.02-1.06-2.72-2.02-.68-.94-.28-2.49-.28-2.49"/>
            <path class="cls-1" d="M13.81,36.38c-.07,0-.13-.02-.19-.06-.2-.12-5.06-3.13-5.72-6.9-.29-1.69,.27-3.07,1.42-3.55,1.23-.51,2.71,.17,3.79,1.72,1.26,1.83,2.96,3.08,2.97,3.09,.17,.12,.2,.36,.08,.54-.12,.17-.36,.2-.54,.08-.07-.06-1.81-1.34-3.15-3.27-.86-1.25-1.99-1.83-2.88-1.46-.82,.33-1.19,1.4-.97,2.71,.6,3.44,5.33,6.36,5.37,6.39,.18,.11,.23,.33,.12,.52-.06,.12-.18,.19-.3,.19Z"/>
            <g>
              <path class="cls-1" d="M9.61,28.62c-.11,0-.22-.04-.29-.15l-1-1.3c-.12-.17-.1-.4,.07-.54,.17-.12,.4-.1,.54,.07l1,1.3c.12,.17,.1,.4-.07,.54-.08,.06-.17,.08-.25,.08Z"/>
              <path class="cls-1" d="M10.61,27.86c-.15,0-.29-.09-.35-.23l-.55-1.31c-.08-.19,.01-.41,.2-.5s.41,.01,.5,.2l.54,1.31c.08,.19-.01,.41-.2,.5-.04,.02-.1,.03-.15,.03Z"/>
            </g>
          </g>
          <g>
            <g>
              <path class="cls-18" d="M39.51,13.87s5.04-5.38,1.93-7.88-6.23,2.95-6.23,2.95l4.3,4.94Z"/>
              <path class="cls-17" d="M41.44,5.99c.18,.13,.32,.29,.45,.45-2.84-1.17-5.47,3.41-5.47,3.41l3.29,3.79c-.13,.16-.21,.23-.21,.23l-4.3-4.94s3.14-5.43,6.24-2.94Z"/>
              <g class="cls-20">
                <path class="cls-1" d="M37.32,10.42s.87-1.66,1.86-2.48c.92-.75,1.42-.03,1.74,.32,.64,.74,.04,3.37-1.6,5.21l-2.01-3.06Z"/>
              </g>
              <path class="cls-1" d="M39.5,14.44l-4.76-5.46,.13-.23c.08-.13,1.91-3.28,4.29-3.74,.89-.17,1.74,.06,2.51,.68,.7,.57,1.08,1.28,1.15,2.18,.19,2.77-2.9,6.11-3.04,6.26l-.29,.31Zm-3.82-5.54l3.83,4.4c.75-.87,2.7-3.38,2.56-5.37-.04-.68-.32-1.21-.87-1.64-.6-.49-1.22-.66-1.9-.54-1.69,.32-3.17,2.43-3.62,3.15Z"/>
              <path class="cls-10" d="M36.9,9.63s.78-1.27,1.72-1.9c.86-.57,1.34,0,1.65,.29,.61,.59,.11,2.64-1.4,4.03l-1.98-2.42Z"/>
              <path class="cls-1" d="M38.82,12.61l-2.4-2.96,.15-.22c.03-.06,.86-1.31,1.81-1.99,.4-.29,.89-.39,1.33-.28,.39,.1,.71,.36,.88,.73,.42,.9,.15,2.96-1.5,4.48l-.27,.25Zm-1.44-3l1.52,1.89c1.14-1.24,1.28-2.76,1.03-3.29-.1-.2-.26-.28-.38-.31-.22-.06-.49,0-.7,.17-.63,.44-1.21,1.17-1.46,1.55Z"/>
            </g>
            <g>
              <path class="cls-18" d="M16.04,13.87s-5.04-5.38-1.93-7.88c3.1-2.49,6.23,2.95,6.23,2.95l-4.3,4.94Z"/>
              <path class="cls-17" d="M14.11,5.99c-.18,.13-.32,.29-.45,.45,2.84-1.17,5.47,3.41,5.47,3.41l-3.29,3.79c.13,.16,.21,.23,.21,.23l4.3-4.92s-3.14-5.44-6.24-2.95Z"/>
              <g class="cls-20">
                <path class="cls-1" d="M18.23,10.42s-.87-1.66-1.86-2.48c-.92-.75-1.42-.03-1.74,.32-.64,.74-.04,3.37,1.6,5.21l2.01-3.06Z"/>
              </g>
              <path class="cls-1" d="M16.05,14.44l-.28-.3c-.13-.13-3.23-3.49-3.04-6.26,.07-.88,.45-1.62,1.15-2.18,.78-.63,1.62-.85,2.51-.68,2.37,.45,4.2,3.61,4.29,3.74l.13,.23-4.77,5.45Zm-.22-8.72c-.52,0-1,.19-1.49,.57-.54,.42-.82,.96-.87,1.64-.15,1.99,1.82,4.5,2.56,5.37l3.83-4.41c-.45-.7-1.93-2.82-3.63-3.14-.13-.02-.27-.03-.4-.03Z"/>
              <path class="cls-10" d="M18.65,9.63s-.78-1.27-1.72-1.9c-.86-.57-1.34,0-1.65,.29-.61,.59-.11,2.64,1.4,4.03l1.98-2.42Z"/>
              <path class="cls-1" d="M16.73,12.61l-.29-.27c-1.66-1.53-2.13-3.74-1.44-4.56,.49-.57,1.49-.84,2.16-.35,.95,.68,1.78,1.94,1.81,2l.15,.22-2.38,2.95Zm-.4-4.68c-.28,0-.59,.15-.77,.35-.33,.39-.09,1.95,1.08,3.22l1.53-1.89c-.27-.37-.85-1.13-1.46-1.57-.1-.07-.23-.1-.38-.1Z"/>
            </g>
            <path class="cls-18" d="M41.06,17.7c-1.83-3.26-2.02-11.23-13.06-11.32h-.18c-11.05,.09-11.23,8.05-13.08,11.32-1.12,1.99-3.46,5.07-1.15,9.13,2.59,4.56,10.44,3.09,14.24,3.15h.18c3.8-.06,11.81,1.4,14.24-3.15,2.16-4.12-.06-7.15-1.18-9.13Z"/>
            <path class="cls-17" d="M14.78,17.67c2.99-2.51,2.99-9.54,14.05-9.61h.18c5.35,.04,8.15,1.92,9.81,4.22-1.52-2.98-4.23-5.84-10.83-5.9h-.18c-11.05,.09-11.23,8.05-13.08,11.32"/>
            <path class="cls-3" d="M27.99,29.98h0c2.37-.03,6.4,.52,9.67-.17,1.97-.41,3.66-1.28,4.57-3,.4-.77,.66-1.5,.79-2.18,.01-1.53-.35-3.13-1.41-4.16-.85-.84-2.05-1.22-3.22-1.22-1.17-.01-2.32,.32-3.43,.76-1,.39-2.22,.84-3.08,.16-.32-.26-.54-.65-.78-.97-.83-1.09-1.89-1.86-3.23-1.86s-2.41,.77-3.23,1.86c-.25,.33-.45,.71-.78,.97-.86,.69-2.07,.23-3.08-.16-1.09-.42-2.24-.76-3.43-.76-1.17,.01-2.37,.38-3.22,1.22-1.05,1.04-1.42,2.65-1.41,4.15,.15,.7,.4,1.44,.85,2.2,.97,1.72,2.68,2.59,4.64,3,3.26,.7,7.22,.13,9.59,.17h0"/>
            <g class="cls-20">
              <path class="cls-1" d="M42.22,24.89c-.9,1.55-2.6,2.32-4.57,2.7-3.27,.63-7.3,.12-9.67,.15h-.18c-2.37-.03-6.33,.47-9.59-.15-1.95-.37-3.67-1.15-4.64-2.7-.29-.46-.51-.9-.66-1.33-.13,.54-.19,1.07-.19,1.62,.15,.63,.4,1.28,.85,1.98,.97,1.55,2.68,2.32,4.64,2.7,3.26,.63,7.22,.12,9.59,.15h.18c2.37-.03,6.4,.48,9.67-.15,1.97-.37,3.66-1.15,4.57-2.7,.4-.69,.66-1.34,.79-1.95,0-.55-.04-1.08-.18-1.62-.16,.41-.36,.85-.61,1.31Z"/>
            </g>
            <path class="cls-10" d="M26.33,19.54c.06-.41,.92-.88,1.56-.88s1.45,.54,1.45,.95-1.02,1.24-1.51,1.24c-.49,.01-1.55-.89-1.51-1.31Z"/>
            <path class="cls-1" d="M27.84,21.22c-.54,0-1.22-.56-1.53-.9-.26-.3-.38-.58-.35-.83,.09-.7,1.22-1.22,1.93-1.22,.8,0,1.83,.65,1.83,1.32s-1.24,1.63-1.89,1.63Zm-1.13-1.64c.08,.27,.86,.88,1.12,.88s1.05-.6,1.12-.87c-.03-.16-.58-.57-1.07-.57-.51,.02-1.09,.39-1.16,.56Z"/>
            <g>
              <path class="cls-1" d="M23.71,18.1c-.09,0-.18-.03-.25-.09-.06-.04-1.34-1.12-3.29-.07-.18,.1-.41,.03-.51-.16-.1-.18-.03-.41,.16-.51,1.31-.71,2.41-.63,3.14-.38-.64-.86-1.72-1.15-1.73-1.15-.2-.06-.32-.26-.27-.46s.26-.32,.46-.27c.09,.02,2.29,.63,2.69,2.65,.03,.16-.04,.31-.18,.39-.09,.02-.15,.04-.21,.04Z"/>
              <path class="cls-1" d="M32.03,18.1c-.07,0-.12-.01-.19-.04-.13-.08-.21-.23-.18-.39,.39-2.02,2.59-2.62,2.69-2.65,.2-.06,.4,.07,.46,.27s-.07,.4-.27,.46c-.02,.01-1.11,.3-1.73,1.15,.74-.23,1.82-.32,3.13,.38,.18,.1,.25,.32,.16,.51-.1,.18-.32,.25-.51,.16-1.98-1.06-3.28,.06-3.29,.07-.08,.06-.17,.09-.26,.09Z"/>
            </g>
            <path class="cls-1" d="M33.68,30.54c-1.12,0-2.22-.06-3.23-.1-.75-.03-1.46-.07-2.08-.08h0s-.46,0-.46,0h-.46s0,0,0,0c-.61,.01-1.32,.04-2.07,.08-4.16,.2-9.89,.5-12.11-3.43-2.18-3.84-.38-6.88,.8-8.89,.12-.21,.25-.41,.35-.61,.35-.61,.64-1.4,.96-2.31,.67-1.85,1.51-4.15,3.29-5.97,2.04-2.07,4.91-3.12,8.75-3.2h0s.38-.01,.38-.01h.56c3.84,.1,6.71,1.15,8.75,3.22,1.81,1.82,2.64,4.12,3.29,5.97,.32,.92,.63,1.71,.96,2.31h0c.1,.17,.2,.36,.31,.56,1.16,1.99,2.93,5,.85,8.93-1.57,2.99-5.31,3.54-8.87,3.54Zm-5.48-.94c.67,0,1.46,.03,2.28,.08,4.03,.2,9.55,.48,11.4-3.03,1.89-3.57,.31-6.25-.83-8.21-.11-.19-.22-.38-.32-.57h0c-.37-.67-.69-1.53-1.02-2.43-1.31-3.64-3.1-8.62-11.72-8.69h-.18c-8.61,.07-10.42,5.05-11.72,8.69-.32,.9-.64,1.76-1.02,2.43-.11,.2-.23,.4-.36,.63-1.16,1.97-2.77,4.67-.79,8.14,1.99,3.51,7.45,3.23,11.42,3.04,.92-.04,1.78-.09,2.49-.08h.37Z"/>
            <path class="cls-17" d="M20.97,12.39c-.31-.87,2.66-1.98,2.96-1.14,.31,.83-2.65,1.98-2.96,1.14Z"/>
            <path class="cls-17" d="M34.74,12.39c.31-.87-2.66-1.98-2.96-1.14-.32,.83,2.65,1.98,2.96,1.14Z"/>
            <path class="cls-1" d="M22.11,22.7s2.3-.6,5.45-.6,6.04,.77,6.04,.77c0,0,.6,4.16-5.8,4.09-6.12-.09-5.69-4.25-5.69-4.25Z"/>
            <path class="cls-3" d="M28.72,23.93h-1.72c-.12,0-.23-.07-.27-.17l-.61-2.08h3.48l-.61,2.08c-.02,.1-.13,.17-.27,.17Z"/>
            <path class="cls-1" d="M27.87,24.31c-.21,0-.38-.17-.38-.38v-1.78c0-.21,.17-.38,.38-.38s.38,.17,.38,.38v1.78c-.01,.21-.18,.38-.38,.38Z"/>
            <path class="cls-10" d="M30.18,24.99c-1.28-.3-2.2,.54-2.2,.54,0,0-.69-.76-2.05-.45-.85,.19-1.35,.76-1.61,1.16,.83,.4,1.95,.69,3.51,.71,1.78,.02,3-.28,3.86-.74-.26-.45-.73-1.04-1.51-1.23Z"/>
            <path class="cls-1" d="M28.01,27.33h-.19c-2.32-.03-4.02-.64-5.06-1.8-1.16-1.3-1.02-2.81-1.02-2.88l.02-.26,.26-.07c.09-.02,2.39-.61,5.55-.61s6.02,.75,6.14,.78l.23,.07,.03,.25c.01,.07,.2,1.54-.9,2.8-1,1.15-2.71,1.72-5.07,1.72Zm-5.52-4.33c.02,.42,.16,1.28,.84,2.04,.89,.99,2.41,1.51,4.5,1.54,2.22,.03,3.8-.46,4.68-1.45,.66-.74,.75-1.56,.75-1.95-.78-.18-3.16-.69-5.68-.69-2.45-.01-4.38,.37-5.08,.51Z"/>
            <g>
              <path class="cls-1" d="M42.19,14.3c-.1,0-.2-.04-.28-.12-.13-.16-.12-.39,.03-.54l3.65-3.24c.16-.13,.39-.12,.54,.03s.12,.39-.03,.54l-3.65,3.24c-.08,.06-.17,.09-.26,.09Z"/>
              <path class="cls-1" d="M43.41,16.72c-.15,0-.28-.09-.35-.22-.08-.19,.01-.41,.2-.5l2.84-1.22c.19-.08,.41,.01,.5,.2,.08,.19-.01,.41-.2,.5l-2.84,1.22c-.06,.02-.11,.02-.16,.02Z"/>
            </g>
            <g>
              <path class="cls-1" d="M13.77,14.3c-.09,0-.18-.03-.25-.09l-3.65-3.24c-.16-.13-.17-.37-.03-.54,.13-.16,.37-.17,.54-.03l3.65,3.24c.16,.13,.17,.37,.03,.54-.08,.08-.18,.12-.29,.12Z"/>
              <path class="cls-1" d="M12.56,16.72s-.1-.01-.15-.03l-2.84-1.22c-.19-.08-.28-.3-.2-.5,.08-.19,.3-.28,.5-.2l2.84,1.22c.19,.08,.28,.3,.2,.5-.07,.16-.2,.23-.36,.23Z"/>
            </g>
          </g>
        </g>
      </g>
    </g>
  </g>
</svg>