<?xml version="1.0" encoding="UTF-8"?>
<svg xmlns="http://www.w3.org/2000/svg" xmlns:xlink="http://www.w3.org/1999/xlink" viewBox="0 0 64 64">
  <defs>
    <style>
      .cls-1 {
        fill: #fef6c5;
      }

      .cls-2 {
        fill: #feeb7c;
      }

      .cls-3 {
        fill: url(#linear-gradient-2);
      }

      .cls-4 {
        fill: #8c6239;
      }

      .cls-5 {
        fill: #ab6d25;
      }

      .cls-6, .cls-7 {
        fill: #fff;
      }

      .cls-8 {
        fill: #daa86b;
      }

      .cls-9 {
        fill: #8c8587;
      }

      .cls-9, .cls-10, .cls-11 {
        mix-blend-mode: overlay;
      }

      .cls-12 {
        fill: #ff6d33;
      }

      .cls-13 {
        fill: #c1272d;
      }

      .cls-14 {
        isolation: isolate;
      }

      .cls-7, .cls-10 {
        opacity: .5;
      }

      .cls-15 {
        fill: #ff7bac;
      }

      .cls-16 {
        mix-blend-mode: multiply;
      }

      .cls-16, .cls-10 {
        fill: #c8bbff;
      }

      .cls-17, .cls-18 {
        fill: #2b2829;
      }

      .cls-17, .cls-19 {
        mix-blend-mode: screen;
      }

      .cls-20 {
        fill: #dcc2a7;
      }

      .cls-21 {
        fill: #603813;
      }

      .cls-22 {
        fill: #f98e59;
      }

      .cls-23 {
        fill: #fef6c7;
      }

      .cls-24 {
        opacity: .3;
      }

      .cls-25 {
        fill: #ed7fa7;
      }

      .cls-26 {
        fill: none;
      }

      .cls-27 {
        fill: #f9b48d;
      }

      .cls-28 {
        fill: #ccc;
      }

      .cls-29 {
        fill: url(#linear-gradient);
      }

      .cls-30 {
        fill: #ff9d76;
      }

      .cls-31 {
        fill: #edaabc;
      }

      .cls-32 {
        fill: #ffe3d9;
      }

      .cls-11 {
        fill: #998a8e;
      }
    </style>
    <linearGradient id="linear-gradient" x1="64" y1="34.03" x2="5.45" y2="34.03" gradientUnits="userSpaceOnUse">
      <stop offset="0" stop-color="#cf965b"/>
      <stop offset=".25" stop-color="#ca9257"/>
      <stop offset=".51" stop-color="#be864c"/>
      <stop offset=".78" stop-color="#a9733a"/>
      <stop offset="1" stop-color="#925d26"/>
    </linearGradient>
    <linearGradient id="linear-gradient-2" x1="61.28" y1="31.49" x2="1.36" y2="31.49" gradientUnits="userSpaceOnUse">
      <stop offset="0" stop-color="#e8b886"/>
      <stop offset=".25" stop-color="#e3b482"/>
      <stop offset=".5" stop-color="#d7a877"/>
      <stop offset=".76" stop-color="#c29464"/>
      <stop offset="1" stop-color="#a97c4e"/>
    </linearGradient>
  </defs>
  <g class="cls-14">
    <g id="_Слой_2" data-name="Слой 2">
      <g id="_Слой_1-2" data-name="Слой 1">
        <g>
          <g>
            <path class="cls-29" d="M60.49,6.68c-1.75-1.6-4.41-2.62-7.38-2.62H14.98c-5.26,0-9.53,3.19-9.53,7.11V55.87c0,2.22,1.37,4.2,3.51,5.51,1.75,1.6,4.41,2.62,7.38,2.62H54.47c5.26,0,9.53-3.19,9.53-7.11V12.19c0-2.22-1.37-4.2-3.51-5.51Z"/>
            <path class="cls-3" d="M57.77,4.65c-.41-.37-.86-.71-1.36-1.02-1.75-1.6-4.41-2.62-7.38-2.62H10.89C5.64,1.02,1.36,4.21,1.36,8.13V52.83c0,2.22,1.37,4.2,3.51,5.51,.41,.37,.86,.71,1.36,1.02,1.75,1.6,4.41,2.62,7.38,2.62H51.74c5.26,0,9.53-3.19,9.53-7.11V10.16c0-2.22-1.37-4.2-3.51-5.51Z"/>
            <path class="cls-20" d="M47.66,0H9.53C4.28,0,0,3.19,0,7.11V51.81c0,3.92,4.28,7.11,9.53,7.11H47.66c5.26,0,9.53-3.19,9.53-7.11V7.11c0-3.92-4.28-7.11-9.53-7.11Z"/>
          </g>
          <path class="cls-11" d="M5.89,14.33c-.01-2.85,.17-6.06,2.96-8,2.12-1.47,5.21-1.81,8.09-1.99,6.68-.42,13.42-.36,20.09,.18,3.3,.26,6.79,.71,9.28,2.36,3.69,2.45,3.93,6.61,3.9,10.29-.08,9.24-.15,18.48-.23,27.72-.02,2.2-.08,4.51-1.54,6.42-1.54,2-4.45,3.25-7.46,3.8-3.01,.55-6.15,.48-9.24,.41-5.15-.12-10.31-.24-15.43-.71-2.79-.26-9.22-.18-10.19-2.65-.66-1.68-.07-4.15-.07-5.9,0-2.02-.02-4.03-.03-6.05-.02-4.03-.04-8.06-.06-12.1-.02-4.59-.04-9.18-.07-13.78Z"/>
          <path class="cls-11" d="M20.65,20.31c-3.25-.39-6.54-1.19-8.94-2.87-2.39-1.69-3.67-4.43-2.38-6.69,.89-1.57,2.87-2.69,5.01-3.3,2.14-.61,4.45-.77,6.74-.89,5.74-.3,11.52-.39,17.22,.17,2.22,.22,4.55,.57,6.21,1.7,2.93,1.99,2.55,5.66,.4,8.14-5.33,6.17-16.02,4.75-24.26,3.75Z"/>
          <path class="cls-17" d="M9.75,46.11c-.57-1.77-.49-3.61-.4-5.43,.37-7.55,.74-15.09,1.11-22.64,.14-2.75,.39-5.74,2.81-7.82,2.2-1.89,5.7-2.58,9.03-2.93,4.04-.42,8.14-.47,12.2-.14,3.7,.3,7.69,1.06,9.9,3.3,1.87,1.9,2.03,4.41,2.12,6.77,.33,9.07,.66,18.2-1.13,27.18-.4,1.99-1,4.12-2.97,5.5-2.25,1.58-5.63,1.75-8.72,1.75-5.06,0-10.12-.25-15.13-.73-4.65-.45-7.58-.99-8.81-4.8Z"/>
          <path class="cls-16" d="M47.66,1.02h-1.63c4.51,0,8.17,2.73,8.17,6.1V51.81c0,3.37-3.66,6.1-8.17,6.1h1.63c4.51,0,8.17-2.73,8.17-6.1V7.11c0-3.37-3.66-6.1-8.17-6.1Z"/>
          <path class="cls-10" d="M44.83,56.21c2.15-.26,4.29-1.07,5.39-2.47,.86-1.09,1-2.4,1.05-3.66,.05-1.24,.02-2.47-.08-3.71-.07-.81-.31-1.78-1.32-2.08-.75-.23-1.65,.04-2.16,.52s-.69,1.1-.74,1.7c-.11,1.25,.25,2.52-.08,3.75-.39,1.42-1.68,2.63-3.23,3.51-1.13,.64-4.12,1.25-4.5,2.21,1.43,.58,4.04,.42,5.67,.23Z"/>
          <path class="cls-9" d="M3.88,2.71c-1.55,1.11-2.52,2.67-2.52,4.4v26.08c12.35-3.44,32.73-4.39,54.47,14.33v-14.97C26.86,28.05,11.39,13.17,3.88,2.71Z"/>
          <path class="cls-7" d="M3.58,9.23c.26-1.79,1.27-3.6,3.21-4.67,2.66-1.47,6.31-1.25,9.61-.96,1.02,.09,2.32,.39,2.36,1.15,.03,.67-.97,1.08-1.84,1.21-2.2,.34-4.63-.04-6.59,.77-1.42,.58-2.33,1.69-2.8,2.85s-.56,2.38-.73,3.58c-.07,.46-.15,.93-.44,1.34-1.08,1.49-2.05,.48-2.43-.37-.6-1.35-.53-3.5-.32-4.91Z"/>
          <g class="cls-19">
            <path class="cls-18" d="M36.44,9.78c.84,1.55-.18,3.32-2.26,3.94-2.08,.62-4.45-.13-5.29-1.69-.84-1.55,.18-3.32,2.26-3.94,2.08-.62,4.45,.13,5.29,1.69Z"/>
            <path class="cls-18" d="M43.37,11.71c.45,.84-.09,1.78-1.21,2.12-1.12,.34-2.39-.07-2.84-.91-.45-.84,.09-1.78,1.21-2.12,1.12-.34,2.39,.07,2.84,.91Z"/>
            <ellipse class="cls-18" cx="38.42" cy="16.63" rx="1.82" ry="1.36"/>
          </g>
          <g class="cls-19">
            <path class="cls-18" d="M23.64,45.38c.8,1.49-.17,3.17-2.16,3.77-1.99,.6-4.25-.13-5.05-1.61-.8-1.49,.17-3.17,2.16-3.77,1.99-.6,4.25,.13,5.05,1.61Z"/>
            <path class="cls-18" d="M20.79,40.39c.22,.41-.05,.87-.59,1.03-.54,.16-1.16-.03-1.38-.44-.22-.41,.05-.87,.59-1.03,.54-.16,1.16,.03,1.38,.44Z"/>
            <path class="cls-18" d="M15.3,41.5c.45,.84-.09,1.78-1.21,2.12-1.12,.34-2.39-.07-2.84-.91-.45-.84,.09-1.78,1.21-2.12,1.12-.34,2.39,.07,2.84,.91Z"/>
          </g>
          <g class="cls-24">
            <path class="cls-16" d="M51.02,35.95c.79,1.47-.17,3.15-2.14,3.74-1.98,.59-4.22-.12-5.01-1.6-.79-1.47,.17-3.15,2.14-3.74,1.98-.59,4.22,.12,5.01,1.6Z"/>
            <path class="cls-16" d="M53.92,29.6c.58,1.08-.12,2.3-1.57,2.74-1.45,.43-3.09-.09-3.67-1.17-.58-1.08,.12-2.3,1.57-2.74,1.45-.43,3.09,.09,3.67,1.17Z"/>
            <path class="cls-16" d="M45.56,30.99c.37,.7-.08,1.49-1.01,1.77-.93,.28-1.99-.06-2.37-.75-.37-.7,.08-1.49,1.01-1.77,.93-.28,1.99,.06,2.37,.76Z"/>
            <path class="cls-16" d="M10.65,25.55c.41,.75-.09,1.61-1.1,1.92-1.01,.3-2.16-.06-2.57-.82-.41-.75,.09-1.61,1.1-1.92,1.01-.3,2.16,.06,2.57,.82Z"/>
            <path class="cls-16" d="M11.29,21.09c.21,.39-.04,.84-.57,1-.53,.16-1.13-.03-1.34-.43-.21-.39,.04-.84,.57-1,.53-.16,1.13,.03,1.34,.43Z"/>
            <path class="cls-16" d="M6.59,20.15c.34,.63-.07,1.34-.91,1.59-.84,.25-1.79-.05-2.13-.68-.34-.63,.07-1.34,.91-1.59,.84-.25,1.79,.05,2.13,.68Z"/>
          </g>
        </g>
      </g>
      <g id="_Слой_7" data-name="Слой 7">
        <g>
          <path class="cls-26" d="M34.14,37.85s0-.07,0-.1c0,.03,0,.07,0,.1Z"/>
          <path class="cls-26" d="M34.19,37.33s0-.07,.01-.11c0,.04,0,.07-.01,.11Z"/>
          <path class="cls-26" d="M34.16,37.59s0-.07,0-.1c0,.03,0,.07,0,.1Z"/>
          <path class="cls-26" d="M34.13,38.11s0-.07,0-.1c0,.03,0,.07,0,.1Z"/>
          <path class="cls-26" d="M43.86,29.59c-.07-.08-.14-.17-.21-.25,.07,.08,.14,.17,.21,.25Z"/>
          <path class="cls-26" d="M25.76,28.2s0,0,0,0c.07,.03,.14,.06,.21,.09-.07-.03-.14-.06-.21-.09Z"/>
          <path class="cls-26" d="M34.66,16.32c-.06-.1-.13-.2-.2-.3,0,0,0,0,0,0,.07,.1,.14,.2,.2,.3,0,0,0,0,0,0Z"/>
          <path class="cls-26" d="M26.12,28.36c.13,.05,.27,.11,.4,.15-.14-.05-.27-.1-.4-.15Z"/>
          <path class="cls-26" d="M34.27,36.81s.01-.07,.02-.11c0,.04-.01,.07-.02,.11Z"/>
          <path class="cls-26" d="M34.66,38.58c.14-.13,.27-.26,.41-.4,0,0,0,0,0,0-.13,.14-.27,.27-.41,.4Z"/>
          <polygon class="cls-26" points="43.44 40.49 43.44 40.49 43.44 40.49 43.44 40.49"/>
          <path class="cls-26" d="M34.23,37.07s.01-.07,.02-.11c0,.04-.01,.07-.02,.11Z"/>
          <path class="cls-26" d="M34.13,38.26s0,.02,0,.03c0,.07,0,.14,0,.21,0-.08,0-.16,0-.24Z"/>
          <path class="cls-26" d="M34.14,39.06c0-.13-.01-.27-.01-.4,0,.13,0,.27,.01,.4Z"/>
          <path class="cls-26" d="M44.08,29.86c-.05-.06-.1-.12-.15-.18,.05,.06,.1,.12,.15,.18Z"/>
          <path class="cls-26" d="M34.66,38.58c-.08,.08-.16,.15-.24,.22,.08-.07,.16-.15,.24-.22Z"/>
          <path class="cls-26" d="M44.32,30.17c-.05-.07-.1-.13-.16-.2,.05,.07,.1,.13,.16,.2Z"/>
          <polygon class="cls-26" points="39.61 41.19 39.61 41.19 39.61 41.19 39.61 41.19"/>
          <path class="cls-26" d="M44.78,30.78c-.04-.06-.08-.11-.12-.17,.04,.06,.08,.11,.12,.17Z"/>
          <polygon class="cls-26" points="34.43 15.98 34.42 15.98 34.43 15.98 34.43 15.98"/>
          <path class="cls-26" d="M45.4,31.85c-.05-.11-.11-.23-.17-.34,.06,.11,.12,.22,.17,.34Z"/>
          <path class="cls-26" d="M44.99,31.1c-.04-.07-.08-.13-.13-.2,.04,.07,.09,.13,.13,.2Z"/>
          <path class="cls-26" d="M44.58,30.5c-.06-.08-.11-.15-.17-.23,.06,.08,.12,.15,.17,.23Z"/>
          <polygon class="cls-26" points="45.04 31.19 45.04 31.19 45.04 31.19 45.04 31.19"/>
          <path class="cls-22" d="M9.58,24.73c-.45,.28-.93,.48-1.47,.57-1.11,.22-2.11,0-3.22,.33-.25,.08-.5,.04-.74-.07,.07,.17,.22,.33,.38,.45,.17,.13,.36,.23,.55,.3,.17,.06,.34,.1,.52,.13,.18-.13,.37-.26,.58-.37,.21-.11,.43-.22,.66-.31,.85-.34,1.79-.52,2.77-.69,0-.1,0-.22-.03-.35Z"/>
          <path class="cls-27" d="M4.9,25.63c1.11-.33,2.11-.11,3.22-.33,.53-.08,1.02-.29,1.47-.57,0,0,0-.02,0-.03-.03-.16-.07-.33-.17-.49-.09-.15-.24-.27-.45-.3-.2-.03-.42,0-.64,.12-.11,.05-.21,.12-.31,.2-.05,.04-.1,.08-.16,.13-.1,.08-.2,.17-.3,.25-.04-.09-.07-.22-.12-.3v-.02s-.01,0-.01,0h0s-.01-.03-.02-.04c-.01-.02-.03-.03-.05-.05-.07-.06-.15-.11-.25-.15-.09-.04-.2-.07-.3-.09-.11-.02-.22-.04-.33-.05-.11,0-.21,0-.32,.02-.1,.02-.19,.06-.27,.12-.08,.06-.14,.14-.17,.23-.02,.04-.02,.09-.03,.13v.02s0,.02,0,.02c0,0,0,.02,0,.02l.04,.1,.09,.22c-.12-.01-.25-.03-.37-.04h-.14s-.09-.02-.09-.02c-.12,0-.24,0-.36,0-.23,.02-.43,.11-.58,.26-.07,.07-.12,.16-.15,.25-.02,.09-.02,.18,0,.27,0,0,0,.01,0,.02,.24,.11,.49,.15,.74,.07Z"/>
          <path class="cls-2" d="M22.21,43.43c-.39,1.49-1.03,2.93-1.83,4.2,.2-.02,.4-.04,.6-.05,1.34-.12,2.7-.29,4.09-.56,1.38-.28,2.79-.64,4.14-1.22,.34-.14,.67-.3,1.01-.46,.17-.08,.33-.18,.49-.27l.25-.14,.24-.15c.16-.1,.32-.19,.47-.3,.15-.11,.31-.22,.46-.33,.31-.22,.6-.47,.88-.72,.57-.52,1.1-1.11,1.58-1.74-.24-.87-.4-1.75-.44-2.63-3.28,2.84-7.55,4.19-11.93,4.36Z"/>
          <path class="cls-2" d="M24.85,25.71c0-.08,.02-.16,.02-.24,0,.08-.01,.16-.02,.24Z"/>
          <path class="cls-2" d="M24.82,25.97c0-.08,.02-.16,.03-.23,0,.08-.02,.16-.03,.23Z"/>
          <path class="cls-2" d="M24.87,25.45c0-.08,.01-.16,.02-.24,0,.08-.01,.16-.02,.24Z"/>
          <path class="cls-2" d="M24.89,25.18c0-.08,0-.16,.01-.24,0,.08,0,.16-.01,.24Z"/>
          <path class="cls-2" d="M24.64,27.02c.01-.07,.03-.15,.04-.22-.01,.07-.03,.15-.04,.22Z"/>
          <path class="cls-2" d="M24.69,26.75c.01-.07,.03-.15,.04-.22-.01,.07-.03,.15-.04,.22Z"/>
          <path class="cls-2" d="M24.9,24.92c0-.08,0-.16,0-.25,0,.08,0,.16,0,.25Z"/>
          <path class="cls-2" d="M24.78,26.23c.01-.08,.02-.15,.03-.23,0,.08-.02,.15-.03,.23Z"/>
          <path class="cls-2" d="M24.74,26.49c.01-.08,.02-.15,.04-.23-.01,.08-.02,.15-.04,.23Z"/>
          <path class="cls-2" d="M24.59,27.27c.02-.07,.03-.14,.05-.21-.01,.07-.03,.14-.05,.21Z"/>
          <path class="cls-2" d="M24.58,27.33c-.01,.05-.02,.1-.03,.15,0,0,0,0,0,0,.01-.05,.02-.1,.03-.15Z"/>
          <path class="cls-2" d="M24.91,24.37s0,.02,0,.03c0-.01,0-.02,0-.03,0,0,0,0,0,0Z"/>
          <path class="cls-2" d="M24.91,24.41c0,.08,0,.17,0,.25,0-.08,0-.17,0-.25Z"/>
          <path class="cls-2" d="M30.66,32.27c-.39-.15-.73-.42-.99-.76-.26-.34-.44-.73-.53-1.11-.09-.36-.13-.72-.14-1.06-.02-.05-.05-.11-.07-.16-.21-.47-.4-.94-.63-1.37-.44-.87-1.15-1.51-1.85-2.09-.15-.12-.29-.24-.43-.36,0,.17-.01,.35-.02,.51-.02,.42-.05,.84-.09,1.25-.04,.37-.08,.73-.14,1.08,.07,.03,.14,.06,.21,.09,.05,.02,.1,.04,.15,.06,.13,.05,.27,.11,.4,.15,.55,.22,.89,.67,.89,1.11,.22,2.44,1.66,4.99,4.32,5.21,.22,.11,.55,.33,.67,.67,.23,1.27,.86,2.17,1.73,2.8,0-.01,0-.02,0-.03,0,0,0-.02,0-.03,0-.04,0-.08,0-.12,0-.03,0-.07,0-.1,0-.05,0-.11,0-.16,0-.03,0-.07,0-.1,0-.05,0-.1,.01-.16,0-.03,0-.07,0-.1,0-.05,.01-.1,.02-.16,0-.04,0-.07,.01-.11,0-.05,.01-.1,.02-.15,0-.04,.01-.07,.02-.11,0-.05,.02-.1,.03-.15,0-.04,.01-.07,.02-.11,0-.04,.02-.09,.03-.13-.06-.19-.12-.38-.18-.58-.12-.42-.24-.85-.39-1.27-.08-.21-.16-.42-.26-.62-.1-.2-.22-.4-.36-.58-.28-.36-.65-.67-1.05-.95-.07-.05-.13-.09-.2-.13-.03,0-.05,0-.07,0-.35,0-.74-.02-1.13-.17Z"/>
          <path class="cls-6" d="M3.23,31.61c1.22-1.44,1.55-3.22,2.99-4.32,3.32-2.53,7.49-2.3,11.58-2.6,.11-.17,.23-.34,.35-.5-.46,.04-.91,.08-1.36,.13-2.5,.27-4.83,.6-6.95,.95-1.06,.17-2.06,.34-2.95,.7-.89,.34-1.62,.9-2.17,1.54-.55,.64-.93,1.33-1.21,2-.27,.67-.45,1.31-.56,1.9-.01,.06-.02,.12-.03,.17,.1,.1,.2,.15,.3,.05Z"/>
          <path class="cls-23" d="M23.41,30.72s.02-.05,.04-.08c-.01,.03-.02,.05-.04,.08Z"/>
          <path class="cls-23" d="M23.72,30.02s.04-.09,.05-.13c-.02,.04-.04,.09-.05,.13Z"/>
          <path class="cls-23" d="M23.62,30.26s.03-.08,.05-.12c-.02,.04-.03,.08-.05,.12Z"/>
          <path class="cls-23" d="M23.52,30.49s.03-.07,.05-.11c-.02,.04-.03,.07-.05,.11Z"/>
          <path class="cls-23" d="M6.84,34.96c2.88-1.82,6.6-3.4,9.92-2.71-.15-.19-.28-.41-.37-.64-.13-.35-.17-.72-.18-1.09-.01,0-.02-.09-.03-.28,0-.18,0-.45,.02-.79,.05-.69,.25-1.68,.68-2.83,.11-.29,.23-.59,.37-.9,.14-.31,.31-.62,.5-.93,.02-.03,.04-.07,.07-.1-4.09,.3-8.26,.07-11.58,2.6-1.44,1.11-1.77,2.88-2.99,4.32-.1,.1-.19,.05-.3-.05-.07,.37-.11,.71-.14,1.02,.44,.82,.89,1.64,1.36,2.43,.9-.05,1.8-.08,2.68-.06Z"/>
          <path class="cls-23" d="M34.12,38.66c0-.06,0-.11,0-.17,0-.07,0-.14,0-.21-.87-.63-1.5-1.52-1.73-2.8-.11-.33-.44-.55-.67-.67-2.66-.22-4.1-2.77-4.32-5.21,0-.44-.33-.89-.89-1.11-.14-.05-.27-.1-.4-.15-.05-.02-.1-.04-.15-.06-.07-.03-.14-.06-.21-.09-.07,.42-.16,.82-.27,1.2-.1,.35-.22,.68-.35,.99-.13,.31-.27,.61-.41,.88-.58,1.1-1.23,1.87-1.71,2.36-.12,.12-.23,.23-.33,.32-.1,.09-.19,.16-.26,.21-.15,.1-.24,.14-.25,.13,0,0,0,0,0,0-.47,.27-.89,.19-1.64,.02-.03,0-.07-.02-.1-.02,2.3,2.39,2.63,5.88,1.78,9.14,4.38-.17,8.65-1.52,11.93-4.36,0-.13-.01-.27-.01-.4Z"/>
          <path class="cls-23" d="M24.09,29.05c.02-.06,.04-.11,.06-.17-.02,.06-.04,.11-.06,.17Z"/>
          <path class="cls-23" d="M24.33,28.3c.02-.06,.04-.13,.05-.19-.02,.06-.04,.13-.05,.19Z"/>
          <path class="cls-23" d="M23.81,29.78s.04-.09,.06-.14c-.02,.05-.04,.1-.06,.14Z"/>
          <path class="cls-23" d="M24.4,28.05c.02-.07,.04-.13,.05-.2-.02,.07-.03,.13-.05,.2Z"/>
          <path class="cls-23" d="M24.17,28.8c.02-.06,.04-.12,.06-.18-.02,.06-.04,.12-.06,.18Z"/>
          <path class="cls-23" d="M24.25,28.55c.02-.06,.04-.12,.06-.18-.02,.06-.04,.12-.06,.18Z"/>
          <path class="cls-23" d="M24,29.3c.02-.05,.04-.11,.06-.16-.02,.05-.04,.11-.06,.16Z"/>
          <path class="cls-23" d="M24.47,27.79c.02-.07,.03-.13,.05-.2-.02,.07-.03,.13-.05,.2Z"/>
          <path class="cls-23" d="M23.91,29.54c.02-.05,.04-.1,.06-.15-.02,.05-.04,.1-.06,.15Z"/>
          <path class="cls-23" d="M24.54,27.48s0,0,0,0c0,.02,0,.04-.01,.06,0-.02,0-.04,.01-.06Z"/>
          <path class="cls-2" d="M2.79,32.59c-.06,.63-.07,1.15-.06,1.54,0,.32,.02,.56,.03,.72,0,.16,.01,.24,0,.25,.47-.03,.93-.05,1.39-.08-.48-.79-.93-1.61-1.36-2.43Z"/>
          <path class="cls-5" d="M2.85,35.63c.02,.12,.05,.25,.07,.41,.12,.62,.32,1.53,.75,2.64,.43,1.11,1.1,2.44,2.2,3.73,1.09,1.29,2.65,2.5,4.55,3.45,.95,.48,2,.88,3.11,1.22,1.11,.33,2.3,.6,3.55,.67,1.06,.06,2.16-.02,3.28-.12,.81-1.27,1.44-2.71,1.83-4.2-4.19,.16-8.49-.76-12.1-2.5-2.67-1.23-4.45-3.44-5.95-5.91-.46,.02-.93,.05-1.39,.08,0,0,.02,.08,.05,.24,.01,.08,.03,.18,.04,.3Z"/>
          <path class="cls-8" d="M20.43,34.28c-.92-.21-1.8-.58-2.6-1.09,0,0,0,0,0,0-.4-.26-.78-.56-1.07-.94-3.31-.69-7.04,.89-9.92,2.71-.88-.02-1.78,.01-2.68,.06,1.5,2.47,3.28,4.68,5.95,5.91,3.62,1.74,7.91,2.66,12.1,2.5,.85-3.26,.52-6.75-1.78-9.14Z"/>
          <path class="cls-5" d="M34.27,36.81c0,.05-.02,.1-.03,.15,0,.04-.01,.07-.02,.11,0,.05-.02,.1-.02,.15,0,.04,0,.07-.01,.11,0,.05-.01,.1-.02,.16,0,.03,0,.07,0,.1,0,.05,0,.1-.01,.16,0,.03,0,.07,0,.1,0,.05,0,.11,0,.16,0,.03,0,.07,0,.1,0,.04,0,.08,0,.12,.17,.14,.35,.25,.54,.35h0c.14-.13,.27-.27,.41-.4-.19-.3-.36-.63-.52-.98-.09-.2-.17-.41-.24-.63,0,.04-.02,.09-.03,.13,0,.04-.01,.07-.02,.11Z"/>
          <path class="cls-8" d="M34.12,38.66c0,.13,0,.27,.01,.4,.1-.08,.19-.17,.29-.26,.08-.07,.16-.15,.24-.22,0,0,0,0,0,0-.19-.1-.37-.21-.54-.35,0,0,0,.02,0,.03,0,.08,0,.16,0,.24,0,.06,0,.11,0,.17Z"/>
          <path class="cls-5" d="M34.66,38.58h0s0,0,0,0c-.08,.08-.16,.15-.24,.22-.1,.09-.19,.17-.29,.26,.05,.88,.2,1.76,.44,2.63,.45-.61,.86-1.26,1.2-1.96,.06-.12,.12-.25,.18-.38-.06-.07-.12-.14-.19-.21-.24-.29-.48-.61-.7-.96-.13,.14-.27,.27-.41,.4Z"/>
          <path class="cls-8" d="M40.29,14.32c-.01,.16,0,.31,.02,.46,0,.03,.01,.06,.02,.09,.02,0,.05,0,.07,0-.07-.18-.11-.37-.11-.55Z"/>
          <path class="cls-8" d="M43.97,15.23c0-.23,.03-.47,.07-.7,.03-.23,.1-.48,.15-.7,.05-.22,.05-.43-.03-.64-.07-.2-.21-.39-.38-.54-.2-.17-.45-.28-.71-.33-.26-.05-.53-.05-.79,0-.52,.09-.99,.33-1.34,.67-.02,.02-.03,.03-.05,.05,.16-.15,.34-.26,.51-.34,.24-.12,.48-.2,.69-.25,.21-.05,.39-.09,.55-.08,.15,0,.27,.04,.34,.09,.07,.05,.08,.1,.07,.1,0,0,.03,.02,.04,.07,.01,.06,0,.14-.04,.24-.04,.1-.11,.2-.17,.33-.06,.13-.13,.28-.19,.46-.03,.08-.06,.17-.09,.26,.05,.03,.1,.06,.15,.09,.26,.19,.38,.48,.51,.76,.1,.22,.14,.46,.13,.7,0,.08-.04,.13-.11,.15-.03,0-.08-.03-.12-.06-.18-.17-.35-.35-.54-.5-.09-.07-.17-.13-.27-.19,0,.02,0,.04,0,.05,0,.13,0,.27,.02,.41,.37,.13,.75,.29,1.12,.47,.18,.09,.36,.2,.55,.3-.05-.28-.07-.56-.07-.86Z"/>
          <path class="cls-8" d="M49.87,24.1c.06,.31,.1,.61,.13,.91,.29,.02,.57-.05,.81-.14,.28-.11,.52-.25,.74-.35,.22-.11,.41-.2,.58-.25,.17-.06,.32-.06,.41-.02,.09,.04,.12,.09,.11,.09,0,0,.05,.02,.09,.11,.04,.09,.05,.23,.06,.4,0,.09,0,.18,0,.29-.01,.09-.03,.18-.07,.27,.09-.09,.18-.19,.26-.29,.03-.24,.03-.47,0-.68-.04-.21-.11-.41-.23-.56-.11-.16-.26-.28-.42-.34-.16-.07-.32-.08-.47-.05-.15,.03-.29,.09-.42,.15-.13,.06-.25,.12-.36,.17-.45,.19-.72,.21-.72,.19,0,0-.06,.04-.18,.07-.07,.01-.18,.03-.3,.02Z"/>
          <path class="cls-5" d="M52.71,25.41s-.02,.04-.03,.07c-.1,.23-.25,.47-.43,.72-.09,.13-.18,.26-.28,.4-.1,.14-.2,.28-.32,.42-.12,.14-.27,.27-.44,.38-.17,.1-.37,.18-.57,.24-.26,.07-.55,.1-.85,.06,0,.02,0,.03-.01,.05,.47,.09,.96,.04,1.39-.13,.54-.21,.97-.61,1.26-1.05,.3-.45,.47-.95,.53-1.42,0,0,0,0,0,0-.08,.1-.17,.19-.26,.29Z"/>
          <path class="cls-31" d="M42.8,13.14c.07-.13,.14-.24,.19-.32,.05-.09,.07-.16,.07-.21,0-.05-.02-.08,0-.08,0,0-.03-.03-.09-.07-.07-.03-.18-.06-.32-.05-.14,0-.32,.05-.52,.11-.2,.06-.43,.14-.65,.27-.23,.13-.46,.29-.65,.53-.06,.07-.11,.14-.15,.22,.43,0,.86,.04,1.29,.12,.19,.03,.37,.09,.54,.17,.03-.08,.06-.17,.1-.24,.07-.17,.15-.33,.22-.46Z"/>
          <path class="cls-31" d="M42.2,14.89s.01-.09,.02-.13c-.32-.19-.65-.35-1-.49-.24-.1-.48-.2-.72-.29-.01,.07-.03,.14-.03,.22-.01,.23,.04,.47,.14,.7,.13,.02,.26,.04,.4,.06,.39,.07,.79,.17,1.2,.29-.01-.12-.01-.25,0-.36Z"/>
          <path class="cls-25" d="M50.6,27.47c.19-.05,.37-.12,.53-.21,.16-.09,.29-.21,.41-.34,.12-.13,.22-.27,.32-.4,.04-.05,.07-.1,.11-.15-.09,.05-.18,.1-.28,.15-.55,.17-1.13,.22-1.71,.17-.03,.29-.08,.57-.14,.84,.26,.04,.52,.01,.76-.05Z"/>
          <path class="cls-31" d="M51.69,26.51c.1-.04,.19-.09,.28-.15,.06-.08,.12-.16,.18-.24,.18-.25,.34-.48,.44-.69,.11-.21,.12-.42,.12-.59,0-.17,0-.3-.02-.39-.02-.08-.06-.12-.05-.12,0,0-.04-.03-.12-.05-.08-.02-.21,0-.37,.05-.16,.06-.34,.16-.56,.27-.21,.12-.45,.26-.74,.38-.24,.1-.53,.18-.84,.16,0,.06,0,.11,.01,.17,.02,.46,0,.91-.04,1.35,.58,.06,1.16,0,1.71-.17Z"/>
          <path class="cls-4" d="M42.88,13.18c.06-.13,.12-.24,.17-.33,.04-.1,.06-.18,.04-.24-.01-.06-.04-.08-.04-.07,0,0,0,.03,0,.08,0,.05-.02,.12-.07,.21-.05,.08-.12,.19-.19,.32-.07,.13-.14,.28-.22,.46-.03,.08-.06,.16-.1,.24,.04,.02,.07,.04,.11,.06,.03-.09,.06-.18,.09-.26,.06-.17,.13-.33,.19-.46Z"/>
          <path class="cls-4" d="M42.35,14.9s0-.04,0-.05c-.05-.03-.09-.06-.14-.09,0,.04-.01,.09-.02,.13-.01,.12,0,.24,0,.36,.01,0,.03,0,.04,.01,.04,.01,.09,.03,.13,.05-.02-.14-.03-.28-.02-.41Z"/>
          <path class="cls-4" d="M40.5,13.98c-.05-.02-.11-.04-.16-.06-.02,.08-.03,.17-.04,.26,0,.04,0,.09,0,.13,0,.19,.04,.37,.11,.55,.07,0,.14,.02,.21,.03-.1-.23-.15-.47-.14-.7,0-.07,.01-.15,.03-.22Z"/>
          <path class="cls-4" d="M41.46,12.8c.23-.13,.45-.21,.65-.27,.2-.06,.38-.1,.52-.11,.14,0,.26,.02,.32,.05,.07,.03,.09,.07,.09,.07,0,0,0-.05-.07-.1-.07-.05-.19-.09-.34-.09-.16,0-.34,.03-.55,.08-.21,.05-.44,.13-.69,.25-.17,.09-.35,.2-.51,.34-.07,.06-.14,.13-.2,.2-.08,.1-.15,.2-.22,.32,.06,0,.12,0,.19,0,.05-.08,.1-.16,.15-.22,.19-.24,.42-.41,.65-.53Z"/>
          <path class="cls-4" d="M50.64,27.63c.2-.05,.4-.13,.57-.24,.17-.1,.32-.24,.44-.38,.12-.14,.23-.28,.32-.42,.1-.14,.19-.27,.28-.4,.17-.26,.33-.49,.43-.72,0-.02,.02-.04,.03-.07,.03-.09,.06-.19,.07-.27,.01-.11,.01-.21,0-.29-.01-.17-.02-.31-.06-.4-.04-.09-.08-.12-.09-.11,0,0,.03,.04,.05,.12,.02,.08,.02,.22,.02,.39,0,.17-.02,.37-.12,.59-.1,.21-.26,.44-.44,.69-.06,.08-.12,.16-.18,.24-.04,.05-.07,.1-.11,.15-.1,.13-.2,.27-.32,.4-.12,.13-.25,.25-.41,.34-.16,.09-.34,.16-.53,.21-.24,.06-.5,.08-.76,.05-.01,.06-.03,.12-.04,.18,.29,.04,.58,.01,.85-.06Z"/>
          <path class="cls-4" d="M50.85,25c.29-.12,.53-.27,.74-.38,.21-.12,.4-.21,.56-.27,.16-.06,.29-.08,.37-.05,.08,.02,.12,.06,.12,.05,0,0-.02-.05-.11-.09-.09-.04-.24-.03-.41,.02-.17,.05-.36,.14-.58,.25-.22,.11-.46,.25-.74,.35-.24,.09-.52,.16-.81,.14,0,.05,0,.1,.01,.15,.31,.02,.6-.07,.84-.16Z"/>
          <path class="cls-8" d="M38.65,19.75s0,.02-.01,.02c0,0,0-.02,.01-.02Z"/>
          <path class="cls-8" d="M40.35,19.34c-.03,.05-.06,.11-.09,.16,.03-.05,.06-.11,.09-.16Z"/>
          <path class="cls-8" d="M45.47,22.87c-.05,.22-.12,.44-.2,.65,.09-.21,.16-.43,.2-.65Z"/>
          <path class="cls-8" d="M40.83,17.51s0,.1,0,.15c0-.05,0-.1,0-.15Z"/>
          <path class="cls-8" d="M37.95,20.59s-.1,.07-.15,.11c.05-.03,.1-.07,.15-.11Z"/>
          <path class="cls-8" d="M40.83,17.67c0,.05,0,.1-.01,.16,0-.05,0-.1,.01-.16Z"/>
          <path class="cls-8" d="M45.26,23.53c-.03,.07-.06,.14-.09,.21,.03-.07,.06-.14,.09-.21Z"/>
          <path class="cls-8" d="M40.83,17.34s0,.09,0,.13c0-.04,0-.09,0-.13Z"/>
          <path class="cls-8" d="M40.77,18.16c-.04,.23-.11,.46-.19,.68,.08-.22,.15-.45,.19-.68Z"/>
          <path class="cls-8" d="M40.82,17.83c0,.05-.01,.11-.02,.16,0-.05,.01-.11,.02-.16Z"/>
          <path class="cls-8" d="M35.15,15.84c-.37,.14-.61,.24-.69,.19,.07,.1,.14,.2,.2,.3,.16-.17,.32-.33,.49-.49Z"/>
          <path class="cls-8" d="M40.8,17.99c0,.05-.02,.11-.03,.16,.01-.05,.02-.11,.03-.16Z"/>
          <path class="cls-8" d="M40.57,18.84c-.02,.05-.04,.1-.06,.16,.02-.05,.04-.1,.06-.16Z"/>
          <polygon class="cls-8" points="34.43 15.98 34.42 15.98 34.43 15.98 34.43 15.98"/>
          <path class="cls-8" d="M45.53,22.44c-.01,.15-.03,.29-.06,.43,.03-.14,.05-.28,.06-.43Z"/>
          <path class="cls-8" d="M45.54,22.22c0,.06,0,.12,0,.18,0-.06,0-.12,0-.18Z"/>
          <polygon class="cls-8" points="38.34 20.22 38.34 20.22 38.34 20.22 38.34 20.22"/>
          <path class="cls-8" d="M38.56,19.92s0,0,0,.01c0,0,0,0,0-.01Z"/>
          <path class="cls-8" d="M40.8,17s0,.06,.01,.09c0-.03,0-.06-.01-.09Z"/>
          <path class="cls-8" d="M40.77,16.19c.38,.77,.41,1.58,.2,2.4-.08,.33-.21,.66-.32,.98,0,0,.03,0,.05-.01,.35-.08,.69-.19,1.05-.24,.9-.13,1.77-.04,2.58,.41,.89,.49,1.4,1.25,1.49,2.27,.07,.82-.14,1.58-.53,2.3-.47,.87-1.15,1.54-1.96,2.08-.5,.33-1.04,.58-1.61,.74,.69,.7,1.32,1.46,1.94,2.21,.07,.08,.14,.17,.21,.25,.03,.03,.05,.06,.08,.09,.05,.06,.1,.12,.15,.18,.03,.04,.06,.07,.09,.11,.05,.07,.1,.13,.16,.2,.03,.03,.05,.07,.08,.1,.06,.08,.12,.15,.17,.23,.03,.04,.05,.07,.08,.11,.04,.06,.08,.11,.12,.17,.03,.04,.05,.08,.08,.12,.04,.07,.09,.13,.13,.2,.02,.03,.04,.06,.06,.09,0,0,0,0,0,0,2.81-1.27,4.14-4.44,4.38-7.68-.08-.3-.18-.61-.3-.91-.27-.69-.62-1.36-1.03-2.01,0,.59-.08,1.18-.19,1.77-.02,.13-.07,.26-.1,.38-.01,0-.02,0-.04,0-.02-.05-.04-.1-.05-.15-.03-.21-.05-.42-.1-.62-.09-.4-.18-.8-.29-1.19-.17-.63-.38-1.24-.72-1.81-.17-.28-.36-.54-.55-.81,.02-.02,.03-.04,.05-.05-.15-.15-.29-.29-.44-.43-.72-.67-1.5-1.22-2.29-1.63-.4-.21-.8-.38-1.2-.52-.4-.13-.81-.23-1.2-.31-.41-.07-.8-.12-1.19-.15,.42,.26,.76,.64,.99,1.13Z"/>
          <path class="cls-8" d="M40.5,19.01s-.04,.1-.06,.14c.02-.05,.04-.1,.06-.14Z"/>
          <path class="cls-8" d="M40.82,17.17s0,.08,0,.11c0-.04,0-.08,0-.11Z"/>
          <path class="cls-8" d="M40.43,19.18s-.04,.09-.07,.14c.02-.05,.05-.09,.07-.14Z"/>
          <path class="cls-5" d="M45.04,31.19s0,0,0,0c.06,.11,.13,.21,.19,.32,.06,.11,.12,.22,.17,.34,.24,.51,.41,1.05,.63,1.57,.03-.04,.1-.1,.19-.19,.14-.14,.36-.35,.62-.64,.51-.57,1.23-1.43,1.86-2.65,.31-.61,.6-1.3,.8-2.08,.2-.77,.3-1.63,.24-2.53-.03-.6-.14-1.21-.31-1.83-.24,3.24-1.57,6.41-4.38,7.68Z"/>
          <path class="cls-1" d="M33.87,20.07c-.01-.06-.03-.13-.04-.2,0,.07,.02,.13,.04,.2Z"/>
          <path class="cls-1" d="M33.93,20.27c-.02-.06-.04-.13-.05-.19,.02,.07,.03,.13,.05,.19Z"/>
          <path class="cls-1" d="M34.01,20.49c-.03-.06-.05-.12-.07-.18,.02,.06,.04,.12,.07,.18Z"/>
          <path class="cls-1" d="M33.83,19.85c0-.07-.02-.14-.02-.21,0,.07,.01,.14,.02,.21Z"/>
          <path class="cls-1" d="M36.36,20.82s0,0,0,0c0,0,0,0,0,0Z"/>
          <path class="cls-1" d="M34.1,20.68c-.03-.06-.06-.12-.09-.18,.03,.06,.06,.12,.09,.18Z"/>
          <polygon class="cls-1" points="34.09 21.68 34.09 21.68 34.09 21.68 34.09 21.68"/>
          <path class="cls-1" d="M34.23,20.91c-.04-.06-.07-.12-.11-.18,.03,.06,.07,.12,.11,.18Z"/>
          <path class="cls-1" d="M33.81,19.64c0-.07,0-.14,0-.22,0,.07,0,.14,0,.22Z"/>
          <path class="cls-1" d="M36.8,21.04s-.02,0-.03,0c0,0,.02,0,.03,0Z"/>
          <path class="cls-1" d="M36.72,21.03s-.02,0-.03,0c0,0,.02,0,.03,0Z"/>
          <path class="cls-1" d="M37.13,24.31c0,.16,0,.32,.03,.48-.01-.07-.02-.14-.02-.21,0-.09,0-.18,0-.27Z"/>
          <path class="cls-1" d="M45.4,31.85c-.05-.11-.11-.23-.17-.34-.06-.11-.12-.22-.19-.32,0,0,0,0,0,0-.02-.03-.04-.06-.06-.09-.04-.07-.08-.13-.13-.2-.03-.04-.05-.08-.08-.12-.04-.06-.08-.11-.12-.17-.03-.04-.05-.08-.08-.11-.06-.08-.11-.15-.17-.23-.03-.03-.05-.07-.08-.1-.05-.07-.1-.13-.16-.2-.03-.04-.06-.07-.09-.11-.05-.06-.1-.12-.15-.18-.03-.03-.05-.06-.08-.09-.07-.08-.14-.17-.21-.25-.63-.76-1.26-1.51-1.94-2.21-.4,.11-.82,.19-1.24,.22-.85,.06-1.66-.1-2.38-.59-.93-.63-1.33-1.53-1.28-2.64,.03-.68,.27-1.31,.6-1.93-.07,.01-.11,.02-.16,.03-.37,.08-.75,.1-1.13,.07-1.42-.12-2.39-1.13-2.6-2.48-.1-.66,0-1.3,.23-1.93,.14-.39,.31-.76,.54-1.1-.04,0-.09,0-.13-.01-.78-.11-1.44-1-1.89-1.89-.11,.22,.11,.55-.11,.55-.33,0-.55-.44-.89-.44-.11,.11,.22,.44,0,.33-.55-.22-.78-1-1.55-.89,.11,.11,.11,.22,.11,.33-1-.11-2.22-.44-2.99,.22,.33-.11,.55,.11,.89,.11-.55,.44-1.33,.55-1.89,1.11,.33,0,.67,0,1,.11-.67,.22-1.44,.33-2,1,.22-.11,.33,.11,.44,.11-.33,0-.65,.08-.96,.22-.08,.15-.27,.47-.45,.99-.05,.14-.1,.3-.14,.48,.02,.61,.2,1.17,.47,1.68,.08-.07,.17-.14,.27-.19,.24-.14,.51-.24,.79-.24,.14,0,.29,.02,.43,.1,.14,.07,.25,.2,.3,.34,.03,.07,.05,.13,.06,.2,0,.03,.01,.07,.01,.1,0,0,0,0,0,0v.02s0,0,0,0c0,0,0,0,0,0,0,0,0,0,0,0h.02c.08-.05,.16-.08,.24-.09,.16-.03,.32-.03,.48,0,.15,.03,.3,.08,.43,.18,.13,.1,.22,.25,.24,.41,.02,.16-.02,.3-.07,.41-.05,.12-.12,.22-.18,.31-.13,.18-.26,.34-.4,.47-.14,.13-.31,.21-.45,.25-.06,.02-.11,.02-.16,.03,.94,.8,1.96,1.54,2.72,2.34,.02,.02,.03,.03,.04,.05,.09-.19,.14-.29,.16-.29h0s0-.16,.1-.42c.02-.07,.05-.14,.09-.21,.02-.04,.04-.08,.06-.12,0-.01,.03-.05,.05-.08,0,0,0-.01,.01-.02-.01-.02-.02-.03-.03-.05-.03-.05-.06-.09-.08-.14-.21-.38-.32-.77-.36-1.16-.04-.38-.01-.75,.07-1.08,.08-.33,.21-.61,.36-.85,.3-.48,.66-.77,.91-.93,.26-.16,.42-.21,.43-.19,0,.02-.13,.1-.37,.28-.23,.18-.55,.48-.81,.94-.13,.23-.24,.5-.31,.81-.06,.3-.08,.64-.03,.99,.05,.35,.16,.71,.35,1.05,.1,.17,.21,.34,.34,.47,.07,.07,.14,.12,.22,.16,.04,.02,.08,.03,.12,.04,.03,0,.09,0,.15,0,.04-.17,.14-.44,.29-.73,.12-.23,.27-.44,.42-.55,.06-.04,.11-.07,.15-.09,0-.02-.01-.04-.02-.06,0-.03-.01-.06-.02-.09-.02-.12-.01-.22-.01-.31,0-.05,0-.09,0-.14,0-.05,0-.1,0-.15-.02-.4,.01-.78,.09-1.14,.04-.18,.11-.37,.22-.52,.11-.16,.26-.26,.39-.36,.13-.09,.28-.19,.47-.21,.19,0,.34,.06,.46,.12,.5,.25,.8,.59,.99,.83,.18,.24,.26,.39,.24,.4,.02-.01,.13,.11,.31,.35,.09,.12,.19,.28,.29,.47,.1,.19,.21,.42,.27,.69,.06,.28,.05,.61-.1,.93-.08,.16-.2,.31-.37,.41-.09,.05-.2,.09-.3,.09-.11,0-.2-.01-.29-.03-.38-.07-.72-.26-1.06-.45-.33-.19-.67-.37-1.04-.53l-.14-.06s-.09-.03-.15-.06c-.04-.02-.08-.05-.12-.08-.02,.03-.05,.07-.08,.12-.09,.13-.19,.32-.3,.55-.15,.29-.31,.54-.42,.67,0,.05-.02,.1-.02,.15v.05s0,.04,0,.04c0,.02,0,.03,0,.05,0,0,0,.02,0,.03,.01,.04,.02,.08,.03,.12,.05,.2,.11,.42,.18,.63,.06,.16,.13,.33,.19,.49,0,.01,.01,.02,.02,.03,.2,.18,.37,.39,.54,.6,.47,.59,.94,1.18,1.39,1.78,.08,.06,.17,.12,.25,.17,.4,.27,.8,.49,1.18,.68,.18,.09,.35,.17,.51,.25,.12,.04,.25,.08,.38,.12-.02,0-.04,.01-.06,.02,.08,.04,.17,.07,.25,.1,.33,.13,.65,.2,.93,.19,.28-.01,.52-.08,.7-.15,.19-.07,.33-.14,.43-.19,0,0,0,0,0,0,0-.02,0-.04,0-.06,0-.02,0-.05-.01-.08-.02-.06-.06-.13-.09-.18-.06-.11-.11-.18-.08-.22,.02-.03,.12-.02,.24,.07,.06,.05,.13,.1,.19,.2,.03,.05,.06,.12,.06,.19,0,.07,0,.14-.02,.2-.03,.09-.07,.16-.1,.23-.04,.07-.08,.12-.12,.17-.08,.1-.16,.16-.22,.19v-.02s0,.02-.01,.03c-.02,.01-.04,.01-.08,0h-.01s.01-.07,.01-.07c0-.06,.04-.15,.09-.25,.02-.06,.05-.11,.07-.17,.02-.04,.04-.09,.05-.13-.09,.06-.21,.13-.36,.21-.19,.09-.43,.19-.74,.22-.31,.03-.66-.03-1.01-.15-.16-.06-.32-.12-.49-.19-.14,.05-.28,.1-.42,.15-.12,.04-.24,.09-.36,.13,.26,.41,.52,.82,.75,1.24,.03,.06,.06,.12,.1,.18,.17,.32,.32,.64,.39,.99,0,0,0,0,0,0,0,.04-.37-.04-1-.14,.53,1.19,.96,2.46,1.61,3.61,1,1.55,2.77,3.33,4.77,2.44,0,.44-.44,.67-.67,1,.89,.11,1.66-.55,2.44-.67,.33-.11-.11,.44,0,.44,1,0,1.22-1.11,1.77-1.77v.67c.22-1,.78-2,.89-2.99,.33,.22,.33,.67,.55,.89,.21-.36,.46-.68,.74-.97-.03-.18-.06-.35-.1-.51-.19-.83-.39-1.32-.35-1.34,0,0,0-.02,.03-.04-.22-.51-.39-1.06-.63-1.57Z"/>
          <path class="cls-1" d="M36.63,21.01s-.01,0-.02,0c0,0,.01,0,.02,0Z"/>
          <path class="cls-1" d="M33.84,18.92c.01-.09,.03-.18,.05-.28-.02,.09-.03,.18-.05,.28Z"/>
          <path class="cls-1" d="M33.84,18.92c-.02,.17-.04,.33-.04,.49,0-.07,0-.15,0-.22,0-.09,.02-.18,.03-.27Z"/>
          <path class="cls-1" d="M36.27,20.55s0,0,0,0c0,0,0,0,0,0Z"/>
          <path class="cls-1" d="M36.27,20.44s0-.01,0-.02c0,0,0,.02,0,.02Z"/>
          <path class="cls-1" d="M36.54,20.97s0,0,0,0c0,0,0,0,0,0Z"/>
          <path class="cls-1" d="M36.41,20.88s0,0,0,0c0,0,0,0,0,0Z"/>
          <path class="cls-1" d="M36.29,20.66s0,0,0,0c0,0,0,0,0,0Z"/>
          <path class="cls-1" d="M37.14,24.07s0-.06,.01-.09c0,.03,0,.06-.01,.09Z"/>
          <path class="cls-1" d="M37.16,23.89s0-.06,.01-.09c0,.03,0,.06-.01,.09Z"/>
          <path class="cls-1" d="M37.2,23.71s.01-.05,.02-.08c0,.03-.01,.05-.02,.08Z"/>
          <path class="cls-1" d="M37.13,24.25s0-.07,0-.1c0,.03,0,.07,0,.1Z"/>
          <path class="cls-1" d="M37.24,23.52s.01-.04,.02-.06c0,.02-.01,.04-.02,.06Z"/>
          <polygon class="cls-6" points="34.43 15.98 34.42 15.98 34.42 15.98 34.42 15.98 34.43 15.98"/>
          <path class="cls-6" d="M34.08,15.92c-.1-.05-.22-.12-.34-.22-.12-.1-.25-.21-.4-.33-.29-.24-.64-.53-1.05-.8-.21-.14-.43-.26-.67-.37-.06-.03-.12-.05-.18-.08-.06-.03-.13-.05-.19-.07-.06-.02-.13-.04-.2-.06h-.05s0-.01,0-.01h0s0,0,0,0l.02,.02s.06,.05,.08,.08l.57,.53-.73-.28c-.42-.16-.82-.27-1.19-.35-.18-.04-.36-.07-.53-.09-.08-.01-.16-.02-.24-.03-.04,0-.08,0-.11-.01-.01,0-.02,0-.02,0h0s-.02,0-.02,0c-.03,0-.07,0-.1-.01-.02,0-.04,0-.05,0h-.03s0,0,0,0c0,0,0,0,0,0h0c.04,.05,.07,.09,.1,.12,.06,.07,.11,.14,.1,.15,0,.02-.12,.03-.33,.03-.21,0-.51,.01-.88,.05-.37,.04-.81,.12-1.27,.27-.12,.04-.24,.08-.36,.12-.06,.02-.12,.04-.18,.07l-.09,.04-.04,.02h0s-.02,.01-.02,.01h0s0,0,0,0c.11,.03,.22,.06,.32,.08,.11,.04,.38,.04,.18,.17-.09,.1-.19,.2-.28,.29-.05,.05-.09,.1-.14,.15-.18,.2-.36,.39-.52,.58-.32,.38-.6,.73-.83,1.03-.06,.07-.11,.15-.16,.21-.03,.03-.05,.07-.07,.1l-.02,.02h0s-.02,.03-.02,.03c-.03,.03-.05,.06-.07,.09,0,0,0,0,0,.01h0s.02,0,.02,0c.01,0,.03,0,.04,0,.03,0,.06,0,.08,0,.04,0,.07,0,.1,0,.06,0,.09,.01,.09,.03,0,0,0,.04-.04,.1,.3-.13,.63-.22,.96-.22-.11,0-.22-.22-.44-.11,.55-.67,1.33-.78,2-1-.33-.11-.67-.11-1-.11,.55-.55,1.33-.67,1.89-1.11-.33,0-.55-.22-.89-.11,.78-.67,2-.33,2.99-.22,0-.11,0-.22-.11-.33,.78-.11,1,.67,1.55,.89,.22,.11-.11-.22,0-.33,.33,0,.55,.44,.89,.44,.22,0,0-.33,.11-.55,.44,.89,1.11,1.77,1.89,1.89,.04,0,.09,0,.13,.01,.07-.11,.15-.21,.24-.31,.04-.05,.08-.09,.12-.13-.06-.1-.13-.2-.2-.3-.02,0-.03-.02-.03-.05,0,.02-.13,.04-.34-.06Z"/>
          <path class="cls-2" d="M23.59,20.31s.05,.02,.07,.04c.12,.07,.23,.17,.32,.29,.04,.06,.08,.12,.11,.19l.02,.04h0s0,.01,0,.01h0s0,0,0,0h0s0,0,0,0h0s0,0,0,0c0,0,0,0,0,0h0s.04-.05,.04-.05c.02-.02,.05-.04,.07-.06-.28-.51-.45-1.07-.47-1.68-.07,.26-.12,.55-.15,.88,0,.11-.01,.22-.02,.33Z"/>
          <path class="cls-2" d="M24.88,23.62c0-.08-.01-.17-.02-.25,0,.08,.02,.17,.02,.25Z"/>
          <path class="cls-2" d="M24.81,22.98s.01,.09,.02,.13c0-.04-.01-.09-.02-.13,0,0,0,0,0,0Z"/>
          <path class="cls-2" d="M25.73,23.04s-.09,.03-.25,.02c.04,.05,.08,.1,.11,.15,.28,.41,.38,.9,.41,1.35,.01,.15,.01,.29,.01,.44,.2,.16,.4,.33,.61,.5,.36,.29,.72,.6,1.06,.95,.34,.35,.65,.76,.88,1.22,.17,.31,.31,.63,.45,.95,0-.12,.02-.24,.03-.35,.03-.27,.07-.53,.11-.77-.01-.02-.04-.03-.06-.05-.06-.04-.12-.1-.17-.16-.05-.06-.1-.12-.13-.19-.07-.13-.12-.27-.13-.41-.01-.14,0-.27,.03-.38,.03-.11,.06-.21,.09-.3,.06-.19,.12-.34,.18-.47,.01-.03,.03-.06,.04-.09-.01-.02-.03-.03-.04-.05-.76-.8-1.78-1.54-2.72-2.34-.08,.01-.15,.01-.21,.01-.2,0-.31-.02-.31-.04Z"/>
          <path class="cls-2" d="M24.86,23.37c0-.08-.02-.17-.03-.25,.01,.08,.02,.17,.03,.25Z"/>
          <path class="cls-2" d="M24.9,23.88c0-.08-.01-.17-.02-.25,0,.08,.01,.17,.02,.25Z"/>
          <path class="cls-2" d="M32.43,32.46c.34,.25,.67,.54,.92,.88,.15,.2,.28,.41,.39,.63,.11,.22,.2,.44,.27,.66,.15,.44,.27,.88,.38,1.29,.12,.42,.24,.81,.4,1.18,.31,.74,.71,1.38,1.14,1.91,.21,.27,.44,.5,.66,.72,.22,.21,.44,.4,.66,.57,.43,.33,.84,.57,1.19,.7,.36,.14,.65,.18,.85,.19,.19,0,.3,0,.31,0,0,0,0,0,0,0,0-.01,.02-.02,.06-.04l.05-.02-.02,.07c-.02,.05-.05,.13-.11,.23-.02,.03-.04,.06-.06,.1-.02,.02-.03,.04-.05,.06,0,0,0,0,0,0h.03s.03,0,.05-.01c.01,0,.03,0,.04,0h.02s0,0,0,0h.03c.18-.02,.37-.05,.58-.08,.2-.03,.42-.08,.65-.13,.06-.01,.11-.03,.17-.04l.09-.02,.1-.03c.23-.07,.48-.16,.73-.24-.12,.2-.24,.41-.36,.62-.04,.07-.08,.14-.12,.2l-.02,.04s0,0,0,0h0s0,0,0,0c0,0,0,0,0,0l.06-.02s.05-.02,.07-.03c.05-.02,.1-.04,.14-.06,.37-.17,.68-.38,.93-.58,.49-.4,.72-.73,.76-.7h0s0,0,0,0c0-.01,.06,0,.15,.08,.04,.04,.09,.08,.13,.15,.01,.02,.02,.03,.03,.05,0,.01,.01,.02,.02,.04,.01,.02,.02,.04,.03,.06,0,0,0,0,0,0h0s.01-.02,.01-.02l.03-.02s.04-.04,.06-.06c.07-.06,.14-.13,.22-.21,.15-.16,.31-.34,.46-.56,.15-.22,.29-.46,.41-.74,.06-.14,.11-.28,.16-.43,.01-.04,.02-.08,.03-.11l.02-.06s0-.03,.01-.05v-.06c.05-.16,.09-.33,.12-.49l.11,.19,.05,.08,.02,.04c.04,.07,.03,.04,.04,.05,.02,0,.04,0,.07-.02,.05-.02,.11-.06,.16-.1,.01-.01,.02-.02,.03-.03l.04-.04,.07-.09c.05-.06,.09-.12,.14-.19,.33-.52,.44-1.13,.45-1.68,0-.34-.03-.67-.07-.96-.28,.29-.53,.61-.74,.97-.22-.22-.22-.67-.55-.89-.11,1-.67,2-.89,2.99v-.67c-.55,.67-.78,1.77-1.77,1.77-.11,0,.33-.55,0-.44-.78,.11-1.55,.78-2.44,.67,.22-.33,.67-.55,.67-1-2,.89-3.77-.89-4.77-2.44-.65-1.16-1.08-2.43-1.61-3.61-.21-.03-.44-.07-.7-.1-.36-.04-.76-.08-1.2-.1Z"/>
          <path class="cls-2" d="M24.9,23.89s0,.05,0,.08c0,0,0,0,0,0,0-.03,0-.05,0-.08Z"/>
          <path class="cls-12" d="M31.84,22.97c-.1,0-.2-.03-.28-.07,0,.07,0,.15,.01,.21,0,.02,0,.04,.01,.06,0,.01,0,.02,0,.03,0,.01,.02,.02,.05,.04,.03,.02,.07,.03,.13,.05l.14,.06c.38,.16,.74,.35,1.07,.55,.33,.19,.64,.36,.96,.43,.08,.02,.16,.03,.22,.03,.07,0,.12-.02,.18-.05,.03-.02,.06-.04,.08-.06-.8-.51-1.57-1.19-2.59-1.28Z"/>
          <path class="cls-30" d="M31.64,21.33s-.03,.1-.04,.15c-.06,.33-.09,.69-.06,1.06,0,.05,0,.09,.01,.14,0,.05,0,.11,0,.16,0,.02,0,.05,0,.07,.08,.04,.17,.07,.28,.07,1.03,.09,1.79,.77,2.59,1.28,.08-.06,.15-.15,.2-.24,.11-.19,.14-.41,.13-.62-.98-.96-1.58-3.16-3.12-2.06Z"/>
          <path class="cls-32" d="M33.76,21.36c-.21-.2-.52-.5-.99-.71-.12-.05-.24-.09-.34-.08-.11,.01-.22,.08-.34,.17-.12,.09-.24,.19-.32,.31-.06,.08-.1,.18-.13,.28,1.54-1.1,2.14,1.1,3.12,2.06,0-.05,0-.1-.02-.15-.04-.25-.13-.47-.21-.66-.09-.19-.17-.35-.24-.48-.14-.26-.22-.4-.2-.42,0,0,0,0,0,0-.02,.01-.13-.11-.33-.32Z"/>
          <path class="cls-6" d="M37.31,23.28c-.02,.06-.04,.11-.05,.17,0,.02-.01,.04-.02,.06,0,.04-.02,.07-.03,.11,0,.03-.01,.05-.02,.08,0,.03-.01,.06-.02,.1,0,.03,0,.06-.01,.09,0,.03,0,.06-.01,.09,0,.03,0,.06-.01,.09,0,.03,0,.05,0,.08,0,.03,0,.07,0,.1,0,.02,0,.04,0,.07,0,.09,0,.18,0,.27,.99,1.45,3.21,1.59,4.8,.93,1.42-.53,2.72-1.46,3.54-2.64,0,0,0,0,0,0,.03-.14,.05-.28,.06-.43,0-.01,0-.03,0-.04,0-.06,0-.12,0-.18,0-.07,0-.15,0-.23-.07-.86-.46-1.53-1.2-1.99-.53-.33-1.12-.45-1.73-.45-1.19,0-2.25,.4-3.21,1.08-.31,.21-.59,.46-.75,.59-.65,.69-1.09,1.31-1.34,2.06Zm1.94,.55c.27-.5,.67-.87,1.16-1.15,.3-.17,.62-.28,.96-.26,.46,.02,.7,.34,.61,.79-.09,.43-.31,.77-.64,1.09-.22,.24-.5,.45-.82,.6-.31,.15-.63,.25-.98,.18-.28-.05-.44-.24-.48-.52-.03-.26,.06-.5,.18-.73Z"/>
          <path class="cls-28" d="M41.93,25.52c-1.59,.65-3.81,.52-4.8-.93,0,.07,.01,.14,.02,.21,.12,.76,.51,1.34,1.16,1.74,.57,.36,1.21,.47,1.87,.45,1.16-.02,2.19-.44,3.13-1.1,.79-.56,1.44-1.25,1.85-2.14,.03-.07,.06-.14,.09-.21,0,0,0,0,0-.01,.09-.21,.16-.43,.2-.65,0,0,0,0,0,0-.82,1.19-2.11,2.12-3.54,2.64Z"/>
          <path class="cls-28" d="M38.34,20.22s0,0,0,0c-.12,.13-.25,.26-.39,.37-.05,.04-.1,.07-.15,.11-.27,.19-.57,.32-.9,.34-.03,0-.06,0-.09,0,0,0-.02,0-.03,0-.02,0-.04,0-.06,0,0,0-.02,0-.03,0-.02,0-.04,0-.06-.01,0,0-.01,0-.02,0-.02,0-.05-.02-.07-.03,0,0,0,0,0,0-.05-.02-.09-.05-.13-.09,0,0,0,0,0,0-.02-.02-.03-.03-.04-.05,0,0,0,0,0,0-.01-.02-.03-.04-.04-.06h0c-1.08-.05-2.18-.57-2.51-1.56,0,.07,0,.15,0,.22,0,0,0,0,0,0,0,.07,0,.14,0,.22,0,0,0,0,0,0,0,.07,.01,.14,.02,.21,0,0,0,.01,0,.02,0,.07,.02,.13,.04,.2,0,0,0,0,0,0,.02,.07,.03,.13,.05,.19,0,.01,0,.02,.01,.04,.02,.06,.04,.12,.07,.18,0,0,0,0,0,.01,.03,.06,.06,.12,.09,.18,0,.01,.01,.03,.02,.04,.03,.06,.07,.12,.11,.18,.46,.7,1.13,1.03,1.95,1.09,.47,.03,.93-.04,1.37-.19,.1-.03,.2-.1,.26-.18,.6-.75,1.34-1.31,2.18-1.77,.12-.06,.21-.21,.27-.34,.03-.05,.06-.11,.09-.16,0,0,0-.02,.01-.03,.02-.05,.05-.09,.07-.14,0,0,0-.02,.01-.02,.02-.05,.04-.1,.06-.14,0,0,0,0,0-.01,.02-.05,.04-.1,.06-.16,0,0,0,0,0,0,.08-.22,.15-.45,.19-.68,0,0,0,0,0,0-.66,.85-1.48,1.56-2.43,2.06Z"/>
          <path class="cls-6" d="M38.02,14.89c-.27,.01-.53,.06-.78,.13,.25-.05,.51-.1,.78-.13Z"/>
          <path class="cls-6" d="M35.17,16.28c-.63,.68-1.1,1.45-1.29,2.37-.02,.09-.03,.18-.05,.28,0,0,0,0,0,0-.01,.09-.02,.18-.03,.27,.33,.99,1.43,1.51,2.51,1.56h0s-.03-.06-.03-.09c0,0,0,0,0,0,0-.03-.01-.07-.02-.1,0,0,0,0,0,0,0-.03,0-.07,0-.11,0,0,0-.01,0-.02,0-.04,0-.07,.02-.11,.08-.35,.28-.64,.53-.9,.05-.05,.1-.1,.16-.15,.33-.27,.68-.49,1.11-.54,.33-.04,.57,.08,.66,.33,.06,.17,.04,.35-.02,.52-.02,.06-.05,.12-.07,.18,0,0,0,.02-.01,.02-.02,.05-.05,.1-.08,.14,0,0,0,0,0,.01-.06,.1-.13,.2-.21,.29,0,0,0,0,0,0,.95-.5,1.77-1.21,2.43-2.06,0,0,0,0,0,0,.01-.05,.02-.11,.03-.16,0,0,0,0,0,0,0-.05,.01-.11,.02-.16,0,0,0,0,0,0,0-.05,0-.1,.01-.16,0,0,0-.01,0-.02,0-.05,0-.1,0-.15,0-.01,0-.02,0-.03,0-.04,0-.09,0-.13,0-.02,0-.04,0-.05,0-.04,0-.08,0-.11,0-.03,0-.06-.01-.09,0-.03,0-.06-.01-.09,0-.06-.02-.12-.03-.17-.16-.82-.8-1.51-1.57-1.79-.15,0-.31,0-.45,0-.98,.04-1.8,.21-2.45,.39-.14,.08-.28,.17-.41,.27-.25,.18-.47,.38-.71,.58Z"/>
          <path class="cls-6" d="M41.44,23.66c.09-.1,.08-.25-.02-.35-.08-.07-.25-.06-.33,.03-.08,.09-.07,.24,.02,.33,.1,.1,.23,.09,.33,0Z"/>
          <path class="cls-6" d="M41.15,24.05c.04-.06,.07-.16,.04-.22-.04-.08-.2-.08-.26-.02-.07,.07-.07,.17,.01,.25,.07,.07,.16,.07,.21,0Z"/>
          <path class="cls-6" d="M38.31,19.78c.09-.09,.08-.22,0-.31-.09-.08-.22-.08-.31,.02-.09,.09-.08,.21,.02,.31,.09,.09,.21,.08,.3-.01Z"/>
          <path class="cls-6" d="M38.05,20.11c.03-.05,.06-.16,.03-.19-.05-.06-.15-.08-.23-.01-.06,.07-.05,.14,.01,.21,.06,.07,.14,.06,.18,0Z"/>
          <path class="cls-2" d="M29.73,30.84c-.06-.04-.12-.09-.17-.14,.09,.22,.21,.42,.35,.61,.23,.3,.53,.54,.85,.67,.32,.13,.68,.15,1.03,.17,.7,.02,1.34,.1,1.87,.19,1.05,.19,1.67,.42,1.66,.46-.07-.35-.23-.68-.39-.99-1.64-.47-3.68,.23-5.2-.97Z"/>
          <path class="cls-1" d="M32.97,30.73c-.7,.18-1.48,.29-2.29,.18-.14-.03-.29-.07-.43-.14-.14-.07-.26-.17-.36-.29-.2-.23-.31-.5-.36-.77-.05-.27-.06-.54-.05-.79,0-.25,.02-.5,.05-.74-.07-.05-.14-.11-.19-.19,0,0,0-.01,0-.02,0,.1-.02,.2-.02,.3-.02,.31-.04,.64-.02,.98,.01,.34,.05,.7,.15,1.05,.04,.13,.08,.26,.13,.39,.05,.05,.11,.09,.17,.14,1.52,1.2,3.56,.5,5.2,.97-.03-.06-.06-.12-.1-.18-.24-.42-.49-.84-.75-1.24-.04,.01-.07,.03-.11,.04-.32,.11-.66,.22-1.01,.31Z"/>
          <path class="cls-1" d="M31.57,27.38c.05,.08,.1,.15,.15,.23,0,0,0,0,0,0,.1,.12,.2,.24,.3,.35,.28,.29,.59,.55,.9,.77-.45-.6-.92-1.2-1.39-1.78-.17-.21-.34-.42-.54-.6,.09,.19,.19,.39,.31,.58,.09,.15,.18,.3,.28,.45Z"/>
          <path class="cls-15" d="M29.77,28.93c0,.24,0,.49,.06,.72,.05,.23,.14,.46,.3,.63,.15,.18,.36,.28,.61,.32,.18,.03,.37,.04,.55,.04,.09,0,.19,0,.28,0,.09,0,.18,0,.28-.02,.08,0,.17-.02,.25-.03-.02-.05-.05-.09-.07-.14-.14-.27-.31-.54-.56-.73-.17-.13-.38-.21-.58-.29-.06-.02-.14-.05-.2,0-.04-.35-.14-.69-.36-.96-.01-.01-.02-.03-.03-.04-.08-.02-.15-.04-.22-.06-.08-.02-.17-.05-.25-.07,0,0,0,0,0,0-.02,.2-.03,.41-.03,.62Z"/>
          <path class="cls-13" d="M30.68,29.44c.05-.04,.13-.02,.2,0,.2,.08,.41,.16,.58,.29,.25,.18,.41,.45,.56,.73,.02,.05,.05,.09,.07,.14,.28-.04,.55-.09,.81-.15,.34-.08,.67-.18,.99-.29,.16-.05,.31-.11,.47-.16h.04s0-.01,0-.01h.02s.03-.01,.03-.01c-.03-.01-.05-.02-.08-.03-.13-.06-.26-.12-.38-.18-.24-.13-.46-.26-.66-.4-.2-.13-.39-.26-.56-.38-.17-.12-.32-.23-.46-.34-.28-.22-.45-.45-.55-.6-.01-.02-.02-.03-.03-.05l-.04,.03-.08,.06-.06,.04s-.08,.06-.12,.08c-.08,.05-.16,.1-.25,.15-.18,.09-.38,.15-.58,.15-.11,0-.22-.02-.32-.04,.01,.01,.02,.02,.03,.04,.22,.27,.32,.62,.36,.96Z"/>
          <rect class="cls-6" x="29.16" y="25.16" width="0" height="0"/>
          <path class="cls-6" d="M29.08,25.58c-.04,.13-.08,.29-.12,.48-.02,.09-.05,.19-.06,.29,.2,.12,.44,.15,.73,.05,0,0,0,.01,0,.02,.16-.26,.3-.43,.36-.4,.08,.04-.02,.39-.22,.79-.05,.09-.09,.18-.14,.26,.03,.13,.09,.25,.22,.34,.43,.21,.9,.01,1.16-.36-.16-.29-.31-.59-.42-.88-.11-.31-.18-.62-.25-.9-.02-.07-.03-.14-.04-.21v-.05s-.02-.02-.02-.02c0,0,0,0,0,0,0,0,0-.02,0-.02,0,0-.01,0-.02,0,0,0-.01,0-.02,0-.01,0-.02,0-.03,0-.02,0-.04,0-.06-.01-.08-.02-.15-.06-.21-.1-.03-.02-.06-.04-.08-.07-.01-.01-.02-.02-.04-.04-.01-.02-.03-.03-.04-.05-.04-.06-.06-.11-.09-.16,0-.02-.02-.03-.02-.05,0,0-.01-.02-.02-.03-.01-.02-.04-.02-.06,0,0,0-.01,.01-.02,.02,0,0-.01,.01-.02,.04-.02,.04-.05,.07-.07,.11-.04,.07-.08,.13-.11,.19-.12,.24-.19,.38-.21,.37,.02,0-.01,.16-.08,.42Z"/>
          <path class="cls-28" d="M29.49,26.67c.04-.09,.09-.17,.14-.25,0,0,0-.01,0-.02-.29,.1-.54,.07-.73-.05-.02,.1-.02,.21,0,.31,.04,.21,.15,.43,.37,.57,0,0,0,0,0,0,.04-.15,.11-.35,.22-.57Z"/>
          <path class="cls-28" d="M29.85,27.4c-.13-.09-.19-.2-.22-.34-.08,.13-.16,.24-.22,.31,.01,.02,.03,.04,.04,.07,.04,.09,.05,.17,.07,.24,.02,.06,.04,.12,.07,.17,.03,.05,.06,.08,.12,.11,.05,.03,.13,.05,.2,.07,.08,.02,.15,.04,.23,.06,.16,.05,.32,.08,.47,.08,.15,0,.3-.04,.44-.12,.07-.04,.15-.08,.22-.13,.04-.02,.07-.05,.11-.08l.09-.06h0s0,0,0,0h0s0,0,0-.01c-.05-.08-.1-.15-.15-.23-.1-.15-.19-.31-.28-.46,0-.02-.02-.03-.03-.05-.25,.38-.73,.58-1.16,.36Z"/>
          <path class="cls-27" d="M23.86,21.97c.65,.03,1.3,0,1.95-.08v-.04s0-.04,0-.04v-.16c0-.12,0-.24,0-.36,0-.06,0-.12-.01-.17,0-.03,0-.05-.01-.08,0-.05-.02-.1-.04-.14-.04-.08-.1-.15-.17-.19-.08-.04-.18-.06-.28-.06-.21,0-.44,.09-.64,.2-.1,.06-.2,.13-.28,.21l-.03,.03h0s-.01,.02-.02,.03l-.03,.04s-.04,.05-.07,.08l-.07,.09c-.09,.12-.17,.23-.26,.35,0-.12-.01-.25-.02-.38v-.07s0-.06,0-.06c0-.03,0-.08-.01-.11l-.02-.08v-.02s0,0,0,0v-.02s-.05-.09-.08-.13c-.06-.08-.14-.15-.22-.21-.17-.1-.38-.12-.57-.07-.19,.05-.34,.18-.44,.35-.07,.12-.11,.26-.14,.4,.3,.11,.64,.18,.95,.22,.22,0,.33,.44,.55,.44Z"/>
          <path class="cls-27" d="M27.28,21.61c-.02-.1-.07-.18-.15-.24-.09-.06-.2-.1-.32-.12-.12-.02-.26-.01-.38,.02-.06,.01-.12,.04-.17,.06h0s-.02,.02-.03,.02l-.04,.03-.02,.02-.02,.03-.05,.07s-.04,.06-.06,.09l-.06,.1c-.04,.06-.07,.12-.11,.18,.48-.06,.96-.14,1.44-.24,0-.01,0-.02,0-.03Z"/>
          <path class="cls-22" d="M26.03,22.99c.19-.03,.48-.08,.71-.33,.12-.12,.23-.29,.35-.47,.06-.09,.11-.18,.15-.28,.03-.09,.05-.18,.04-.27-.48,.1-.96,.18-1.44,.24-.01,.02-.03,.04-.04,.06v-.06c-.65,.08-1.3,.11-1.95,.08-.22,0-.33-.44-.55-.44-.31-.04-.65-.11-.95-.22-.01,.06-.02,.12-.03,.18-.02,.17-.01,.33,.03,.47,0,0,0,0,0,0,.23-.04,.47-.06,.72-.04,.24,.02,.48,.09,.7,.17,.22,.08,.44,.17,.66,.26,.22,.1,.44,.21,.64,.35,.11,.08,.22,.17,.32,.27,.22,.05,.34,.06,.34,.08,0-.02,.11-.03,.3-.05Z"/>
          <path class="cls-23" d="M16.75,32.25c.29,.37,.67,.68,1.07,.94,2.15,.09,4.48-.33,5.48-2.23,.04-.07,.07-.15,.11-.23,.01-.03,.02-.05,.04-.08,.02-.05,.05-.1,.07-.15,.02-.04,.03-.07,.05-.11,.02-.04,.04-.08,.05-.13,.02-.04,.03-.08,.05-.12,.02-.04,.03-.08,.05-.11,.02-.04,.04-.09,.05-.13,.01-.04,.03-.07,.04-.11,.02-.05,.04-.09,.06-.14,.01-.03,.03-.07,.04-.1,.02-.05,.04-.1,.06-.15,.01-.03,.02-.06,.03-.09,.02-.05,.04-.11,.06-.16,.01-.03,.02-.06,.03-.09,.02-.06,.04-.11,.06-.17,0-.03,.02-.06,.03-.08,.02-.06,.04-.12,.06-.18,0-.03,.02-.05,.02-.08,.02-.06,.04-.12,.06-.18,0-.02,.01-.05,.02-.07,.02-.06,.04-.13,.05-.19,0-.02,.01-.04,.02-.07,.02-.07,.04-.13,.05-.2,0-.02,.01-.04,.02-.06,.02-.07,.03-.13,.05-.2,0-.02,0-.04,.01-.06,0-.02,0-.04,.01-.06,.01-.05,.02-.1,.03-.15,0-.02,0-.03,.01-.05,.02-.07,.03-.14,.05-.21,0-.02,0-.03,0-.05,.01-.07,.03-.15,.04-.22,0-.01,0-.03,0-.04,.01-.07,.03-.15,.04-.22,0-.01,0-.02,0-.04,.01-.08,.02-.15,.04-.23,0-.01,0-.02,0-.03,.01-.08,.02-.15,.03-.23,0-.01,0-.02,0-.03,0-.08,.02-.16,.03-.23,0,0,0-.02,0-.03,0-.08,.02-.16,.02-.24,0,0,0-.02,0-.02,0-.08,.01-.16,.02-.24,0,0,0-.01,0-.02,0-.08,0-.16,.01-.24,0,0,0-.01,0-.02,0-.08,0-.16,0-.25,0,0,0,0,0-.01,0-.08,0-.17,0-.25,0,0,0,0,0-.01,0-.01,0-.02,0-.03,0-.07,0-.14,0-.22,0,0,0,0,0,0,0-.06,0-.12,0-.17,0-.03,0-.05,0-.08,0,0,0,0,0,0,0-.08-.01-.17-.02-.25,0,0,0,0,0,0,0-.08-.01-.17-.02-.25,0,0,0,0,0,0,0-.08-.02-.17-.03-.25,0,0,0,0,0,0,0-.04-.01-.09-.02-.13,0-.03,0-.06-.01-.1-.01,0-.02-.02-.04-.02-2.09,.09-4.58-.42-5.89,1.55-1.22,1.77-1.22,3.66-2.33,5.43-.08,.11-.18,.17-.29,.21-.02,.3-.03,.46-.04,.46,.01,.37,.05,.75,.18,1.09,.09,.23,.21,.45,.37,.64Z"/>
          <path class="cls-6" d="M16.54,29.84c1.11-1.77,1.11-3.66,2.33-5.43,1.31-1.97,3.8-1.46,5.89-1.55-.14-.08-.29-.16-.45-.23-.42-.18-.85-.37-1.26-.41-.42-.04-.84,.08-1.27,.17-.43,.1-.84,.2-1.23,.35-.39,.14-.75,.32-1.07,.55-.64,.45-1.13,1.04-1.51,1.64-.19,.3-.36,.6-.5,.9-.15,.3-.27,.59-.38,.87-.45,1.13-.67,2.09-.76,2.77-.03,.24-.05,.43-.06,.59,.11-.04,.21-.11,.29-.21Z"/>
          <path class="cls-2" d="M24.81,22.98s.01,.09,.02,.13c0,0,0,0,0,0,.01,.08,.02,.17,.03,.25,0,0,0,0,0,0,0,.08,.02,.17,.02,.25,0,0,0,0,0,0,0,.08,.01,.17,.02,.25,0,0,0,0,0,0,0,.03,0,.05,0,.08,0,.06,0,.11,0,.17,0,0,0,0,0,0,0,.07,0,.14,0,.22,0,.01,0,.02,0,.03,0,0,0,0,0,.01,0,.08,0,.17,0,.25,0,0,0,0,0,.01,0,.08,0,.16,0,.25,0,0,0,.01,0,.02,0,.08,0,.16-.01,.24,0,0,0,.01,0,.02,0,.08-.01,.16-.02,.24,0,0,0,.02,0,.02,0,.08-.01,.16-.02,.24,0,0,0,.02,0,.03,0,.08-.02,.16-.03,.23,0,.01,0,.02,0,.03,0,.08-.02,.15-.03,.23,0,.01,0,.02,0,.03-.01,.08-.02,.15-.04,.23,0,.01,0,.02,0,.04-.01,.07-.03,.15-.04,.22,0,.01,0,.03,0,.04-.01,.07-.03,.15-.04,.22,0,.02,0,.03,0,.05-.01,.07-.03,.14-.05,.21,0,.02,0,.03-.01,.05-.01,.05-.02,.1-.03,.15,0,.02,0,.04-.01,.06,0,.02,0,.04-.01,.06-.02,.07-.03,.13-.05,.2,0,.02-.01,.04-.02,.06-.02,.07-.03,.13-.05,.2,0,.02-.01,.04-.02,.07-.02,.06-.04,.13-.05,.19,0,.02-.01,.05-.02,.07-.02,.06-.04,.12-.06,.18,0,.03-.02,.05-.02,.08-.02,.06-.04,.12-.06,.18,0,.03-.02,.06-.03,.08-.02,.06-.04,.11-.06,.17-.01,.03-.02,.06-.03,.09-.02,.05-.04,.11-.06,.16-.01,.03-.02,.06-.03,.09-.02,.05-.04,.1-.06,.15-.01,.03-.03,.07-.04,.1-.02,.05-.04,.1-.06,.14-.01,.04-.03,.07-.04,.11-.02,.04-.04,.09-.05,.13-.02,.04-.03,.08-.05,.11-.02,.04-.03,.08-.05,.12-.02,.04-.04,.08-.05,.13-.02,.04-.03,.07-.05,.11-.02,.05-.05,.1-.07,.15-.01,.03-.02,.05-.04,.08-.04,.08-.07,.15-.11,.23-1,1.9-3.33,2.32-5.48,2.23,0,0,0,0,0,0,.79,.51,1.68,.88,2.6,1.09,.03,0,.07,.02,.1,.02,.76,.16,1.18,.24,1.64-.02,0-.01,.08-.06,.21-.18,.07-.06,.15-.13,.24-.23,.09-.09,.19-.21,.31-.33,.45-.51,1.07-1.29,1.61-2.37,.14-.27,.26-.56,.38-.87,.12-.31,.23-.63,.32-.98,.19-.68,.31-1.44,.38-2.24,.04-.4,.06-.81,.08-1.23,.01-.42,.04-.85,0-1.28-.03-.42-.12-.85-.36-1.19-.14-.2-.33-.37-.55-.5,0,.03,.01,.06,.01,.1Z"/>
          <g>
            <path class="cls-21" d="M53.21,24.41c-.05-.24-.14-.47-.29-.65-.14-.18-.33-.32-.52-.39-.2-.08-.41-.09-.59-.04-.18,.04-.32,.12-.45,.19-.13,.07-.24,.14-.34,.19-.42,.22-.68,.28-.67,.3,0,.02,.27,0,.72-.19,.11-.05,.23-.11,.36-.17,.13-.06,.27-.13,.42-.15,.15-.03,.32-.02,.47,.05,.16,.07,.31,.19,.42,.34,.11,.15,.19,.35,.23,.56,.04,.21,.03,.44,0,.68,0,0,0,0,0,0-.06,.48-.23,.98-.53,1.42-.3,.45-.73,.84-1.26,1.05-.43,.17-.92,.22-1.39,.13,0-.02,0-.03,.01-.05,.01-.06,.03-.12,.04-.18,.06-.27,.11-.55,.14-.84,.05-.44,.06-.89,.04-1.35,0-.06,0-.11-.01-.17,0-.05,0-.1-.01-.15-.03-.3-.07-.61-.13-.91,.12,0,.22-.01,.3-.02,.13-.03,.19-.06,.18-.07,0-.01-.07,0-.19,0-.08,0-.19,0-.31-.02-.1-.5-.25-1-.44-1.5-.33-.87-.8-1.72-1.35-2.52-.04-.36-.14-.72-.39-.99-.3-.33-.64-.61-1.04-.78-.25-.26-.5-.51-.76-.75-.48-.44-.98-.82-1.49-1.16-.08-.33-.12-.68-.1-1.05,0-.22,.03-.44,.07-.66,.04-.23,.1-.44,.15-.69,.02-.12,.05-.26,.04-.4,0-.14-.03-.28-.08-.41-.09-.26-.26-.49-.47-.68-.25-.22-.55-.35-.85-.4-.31-.06-.61-.05-.9,0-.58,.1-1.1,.38-1.49,.76-.24,.23-.41,.51-.53,.79-.24,0-.48,.03-.72,.06-.01,0-.02,0-.03,.01,0,.01,0,.03,0,.04,.17,.05,.33,.11,.5,.15,.06,.01,.11,.02,.17,.04-.02,.09-.04,.17-.05,.26-.03,.24-.03,.48,.02,.7,0,0,0,.01,0,.02-.29-.02-.57-.03-.84-.03-.08-.03-.16-.05-.24-.07-.93-.24-1.82-.09-2.68,.32-.32,.15-.62,.34-.89,.55-.13,.06-.25,.12-.36,.17-.13,.07-.24,.12-.34,.15-.18,.06-.29,.04-.3,.05,0,0,0,0,0,0h0s0,0,0,0c0,.02,.02,.04,.03,.05,0,0,0,0,0,0,.08,.05,.31-.05,.69-.19-.17,.15-.33,.32-.49,.49,0,0,0,0,0,0-.04,.04-.08,.09-.12,.13-.09,.1-.16,.2-.24,.31-.23,.34-.4,.72-.54,1.1-.23,.62-.34,1.27-.23,1.93,.21,1.35,1.18,2.36,2.6,2.48,.38,.03,.76,0,1.13-.07,.04,0,.09-.02,.16-.03-.33,.62-.57,1.24-.6,1.93-.06,1.11,.35,2,1.28,2.64,.72,.49,1.52,.65,2.38,.59,.43-.03,.84-.1,1.24-.22,.56-.16,1.1-.4,1.61-.74,.81-.54,1.49-1.22,1.96-2.08,.39-.72,.6-1.48,.53-2.3-.09-1.02-.6-1.78-1.49-2.27-.81-.45-1.68-.54-2.58-.41-.35,.05-.7,.16-1.05,.24-.02,0-.04,0-.05,.01,.11-.33,.24-.65,.32-.98,.21-.82,.18-1.63-.2-2.4-.24-.49-.57-.86-.99-1.13,.38,.03,.78,.08,1.19,.15,.39,.08,.8,.18,1.2,.31,.4,.14,.81,.31,1.2,.52,.8,.42,1.57,.97,2.29,1.63,.15,.14,.3,.28,.44,.43-.01,.01-.03,.03-.05,.05,.19,.28,.39,.54,.55,.81,.34,.56,.54,1.18,.72,1.81,.11,.39,.2,.79,.29,1.19,.05,.21,.06,.42,.1,.62,0,.05,.03,.1,.05,.15,.01,0,.02,0,.04,0,.03-.13,.08-.25,.1-.38,.11-.58,.19-1.17,.19-1.77,.41,.65,.77,1.33,1.03,2.01,.12,.3,.22,.6,.3,.91,.17,.61,.27,1.23,.31,1.83,.05,.9-.04,1.75-.24,2.53-.2,.78-.48,1.47-.8,2.08-.63,1.21-1.35,2.08-1.86,2.65-.26,.28-.47,.49-.62,.64-.09,.09-.16,.15-.19,.19-.02,.02-.03,.03-.03,.04,0,0,.1-.05,.26-.18,.16-.13,.39-.32,.66-.6,.55-.55,1.3-1.4,1.97-2.63,.32-.58,.61-1.25,.82-2,.54,.11,1.1,.05,1.58-.15,.61-.24,1.08-.69,1.39-1.18,.32-.49,.49-1.04,.55-1.55,.03-.26,.03-.51-.02-.76Zm-15.19-9.51c-.28,.04-.54,.08-.78,.13,.25-.07,.51-.12,.78-.13Zm4.59,4.66c.61,0,1.2,.12,1.73,.45,.73,.46,1.13,1.13,1.2,1.99,0,.08,0,.15,0,.23,0,.06,0,.12,0,.18,0,.01,0,.03,0,.04-.01,.15-.03,.29-.06,.43,0,0,0,0,0,0,0,0,0,0,0,0-.05,.22-.12,.44-.2,.65,0,0,0,0,0,.01-.03,.07-.06,.14-.09,.21-.42,.89-1.06,1.58-1.85,2.14-.94,.66-1.96,1.08-3.13,1.1-.66,.01-1.3-.1-1.87-.45-.65-.4-1.04-.99-1.16-1.74-.03-.16-.03-.32-.03-.48,0-.02,0-.04,0-.07,0-.03,0-.07,0-.1,0-.03,0-.05,0-.08,0-.03,0-.06,.01-.09,0-.03,0-.06,.01-.09,0-.03,0-.06,.01-.09,0-.03,.01-.06,.02-.1,0-.03,.01-.05,.02-.08,0-.04,.02-.07,.03-.11,0-.02,.01-.04,.02-.06,.02-.06,.03-.12,.05-.17,.24-.75,.69-1.37,1.34-2.06,.16-.13,.44-.38,.75-.59,.96-.67,2.02-1.08,3.21-1.08Zm-1.84-2.73c.01,.06,.02,.12,.03,.17,0,.03,0,.06,.01,.09,0,.03,0,.06,.01,.09,0,.04,0,.08,0,.11,0,.02,0,.04,0,.05,0,.04,0,.09,0,.13,0,.01,0,.02,0,.03,0,.05,0,.1,0,.15,0,0,0,.01,0,.02,0,.05,0,.1-.01,.16,0,0,0,0,0,0,0,.05-.01,.11-.02,.16,0,0,0,0,0,0,0,.05-.02,.11-.03,.16,0,0,0,0,0,0,0,0,0,0,0,0-.04,.23-.11,.46-.19,.68,0,0,0,0,0,0-.02,.05-.04,.1-.06,.16,0,0,0,0,0,.01-.02,.05-.04,.1-.06,.14,0,0,0,.02-.01,.02-.02,.05-.04,.09-.07,.14,0,0,0,.02-.01,.03-.03,.05-.06,.11-.09,.16-.07,.13-.16,.27-.27,.34-.84,.46-1.58,1.02-2.18,1.77-.06,.08-.17,.15-.26,.18-.44,.15-.9,.23-1.37,.19-.82-.06-1.49-.39-1.95-1.09-.04-.06-.07-.12-.11-.18,0-.01-.02-.03-.02-.04-.03-.06-.06-.12-.09-.18,0,0,0,0,0-.01-.03-.06-.05-.12-.07-.18,0-.01,0-.02-.01-.04-.02-.06-.04-.13-.05-.19,0,0,0,0,0,0-.01-.06-.03-.13-.04-.2,0,0,0-.01,0-.02,0-.07-.02-.14-.02-.21,0,0,0,0,0,0,0-.07,0-.14,0-.22,0,0,0,0,0,0,0-.16,.01-.33,.04-.49,0,0,0,0,0,0,.01-.09,.03-.18,.05-.28,.18-.92,.66-1.68,1.29-2.37,.23-.19,.46-.4,.71-.58,.14-.1,.27-.18,.41-.27,.65-.19,1.47-.36,2.45-.39,.15,0,.3,0,.45,0,.78,.28,1.41,.96,1.57,1.79Zm2.73-1.04c-.37-.19-.74-.34-1.12-.47-.04-.02-.09-.03-.13-.05-.01,0-.03,0-.04-.01-.41-.13-.81-.22-1.2-.29-.13-.02-.27-.04-.4-.06-.07,0-.14-.02-.21-.03-.03,0-.05,0-.07,0,0-.03-.01-.06-.02-.09-.02-.15-.03-.3-.02-.46,0-.04,0-.09,0-.13,0-.09,.02-.18,.04-.26,.05,.02,.11,.04,.16,.06,.24,.09,.48,.19,.72,.29,.34,.14,.68,.29,1,.49,.05,.03,.09,.06,.14,.09,.09,.06,.18,.12,.27,.19,.19,.15,.36,.33,.54,.5,.03,.03,.08,.07,.12,.06,.07-.01,.11-.06,.11-.15,0-.25-.04-.48-.13-.7-.12-.28-.24-.57-.51-.76-.05-.03-.1-.06-.15-.09-.04-.02-.07-.04-.11-.06-.17-.08-.35-.13-.54-.17-.43-.08-.86-.12-1.29-.12-.06,0-.12,0-.19,0,.06-.12,.14-.23,.22-.32,.06-.08,.13-.14,.2-.2,.02-.02,.03-.03,.05-.05,.35-.33,.82-.58,1.34-.67,.26-.04,.53-.05,.79,0,.26,.05,.51,.16,.71,.33,.17,.15,.3,.34,.38,.54,.07,.21,.08,.41,.03,.64-.05,.22-.11,.47-.15,.7-.04,.24-.06,.47-.07,.7,0,.29,.02,.58,.07,.86-.18-.11-.36-.21-.55-.3Z"/>
            <path class="cls-21" d="M39.07,24.56c.03,.28,.2,.46,.48,.52,.35,.07,.67-.03,.98-.18,.32-.15,.6-.35,.82-.6,.33-.32,.55-.66,.64-1.09,.09-.45-.15-.77-.61-.79-.35-.02-.67,.09-.96,.26-.49,.28-.9,.65-1.16,1.15-.12,.23-.21,.46-.18,.73Zm2.01-1.22c.08-.09,.26-.1,.33-.03,.11,.1,.11,.25,.02,.35-.1,.1-.23,.1-.33,0-.09-.09-.1-.24-.02-.33Zm-.15,.47c.06-.06,.22-.06,.26,.02,.03,.06,0,.16-.04,.22-.05,.07-.14,.08-.21,0-.08-.08-.08-.18-.01-.25Z"/>
            <path class="cls-21" d="M38.09,18.72c-.43,.05-.79,.27-1.11,.54-.06,.05-.11,.1-.16,.15-.25,.26-.45,.55-.53,.9,0,.04-.01,.08-.02,.11,0,0,0,.02,0,.02,0,.04,0,.07,0,.11,0,0,0,0,0,0,0,.04,0,.07,.02,.1,0,0,0,0,0,0,0,.03,.02,.06,.03,.09h0s.02,.04,.04,.06c0,0,0,0,0,0,.01,.02,.03,.04,.04,.05,0,0,0,0,0,0,.04,.04,.08,.07,.13,.09,0,0,0,0,0,0,.02,.01,.04,.02,.07,.03,0,0,.01,0,.02,0,.02,0,.04,.01,.06,.01,0,0,.02,0,.03,0,.02,0,.04,0,.06,0,0,0,.02,0,.03,0,.03,0,.06,0,.09,0,.34-.02,.63-.15,.9-.34,.05-.03,.1-.07,.15-.11,.14-.11,.28-.23,.39-.37,0,0,0,0,0,0,.08-.09,.15-.19,.21-.29,0,0,0,0,0-.01,.03-.05,.05-.09,.08-.14,0,0,0-.02,.01-.02,.03-.06,.05-.12,.07-.18,.06-.17,.08-.35,.02-.52-.09-.25-.33-.37-.66-.33Zm-.04,1.4c-.04,.07-.12,.08-.18,0-.06-.07-.08-.14-.01-.21,.08-.07,.18-.05,.23,.01,.03,.03,0,.14-.03,.19Zm.26-.33c-.09,.09-.21,.1-.3,.01-.1-.1-.11-.22-.02-.31,.09-.09,.23-.1,.31-.02,.09,.09,.1,.23,0,.31Z"/>
            <path class="cls-21" d="M46.35,34.8c.03,.16,.07,.33,.1,.51,.05,.29,.08,.62,.07,.96,0,.55-.11,1.16-.45,1.68-.05,.06-.09,.13-.14,.19l-.07,.09-.04,.04s-.02,.02-.03,.03c-.05,.04-.1,.08-.16,.1-.03,.01-.05,.02-.07,.02,0,0,0,.02-.04-.05l-.02-.04-.05-.08-.11-.19c-.04,.17-.07,.33-.11,.49v.06s-.03,.05-.03,.05l-.02,.06s-.02,.08-.03,.11c-.05,.15-.1,.3-.16,.43-.12,.28-.26,.52-.41,.74-.15,.22-.31,.4-.46,.56-.08,.08-.15,.15-.22,.21-.02,.02-.04,.04-.06,.06l-.03,.02h-.01s0,.02,0,.02c0,0,0,0,0,0,0-.02-.02-.04-.03-.06,0-.01-.01-.02-.02-.04-.01-.02-.02-.04-.03-.05-.05-.07-.09-.12-.13-.15-.08-.07-.14-.09-.15-.08h0s-.27,.3-.76,.7c-.24,.2-.56,.4-.93,.58-.05,.02-.09,.04-.14,.06-.02,.01-.05,.02-.07,.03l-.06,.02s0,0,0,0c0,0,0,0,0,0h0s0,0,0,0l.02-.04c.04-.07,.08-.13,.12-.2,.12-.21,.24-.41,.36-.62-.25,.08-.5,.17-.73,.24l-.1,.03-.09,.02c-.06,.02-.11,.03-.17,.04-.22,.06-.44,.1-.65,.13-.2,.03-.4,.06-.58,.08h-.03s0,0,0,0h-.02s-.03,0-.04,.01c-.02,0-.03,0-.05,0h-.03s0,0,0,0c.01-.02,.03-.04,.05-.06,.02-.04,.04-.07,.06-.1,.06-.09,.09-.17,.11-.23l.02-.07-.05,.02s-.06,.03-.06,.04c0,0,0,0,0,0,0,0,0,0,.01,0-.03,.04-.07,.09-.13,.14-.03,.03-.09,.1-.18,.17-.09,.07-.22,.17-.35,.26,.01,0,.01,.01,.03,.02,.03,0,.06,0,.08,0,.06,0,.12,0,.18,0,.07,0,.13,0,.2,0,.07,0,.14,0,.21,0,.18,0,.39-.02,.6-.04,.21-.03,.44-.06,.68-.11,.06-.01,.12-.03,.18-.04,.05-.01,.11-.03,.16-.04,0,0,0,0,0,0,0,0,0,0,0,0-.07,.13-.15,.26-.22,.38-.03,.05-.06,.1-.09,.15-.03,.05-.05,.1-.08,.14-.03,.05-.05,.09-.08,.14v.02s-.02,.02,0,0h.04s.08-.04,.08-.04c.21-.07,.42-.13,.62-.2l.09-.04s.05-.02,.08-.03c.05-.02,.1-.05,.15-.07,.39-.2,.71-.44,.95-.67,.24-.23,.4-.44,.5-.6,.08-.13,.12-.21,.12-.25,.01,.02,.04,.06,.08,.12,.03,.04,.06,.09,.09,.15,0,.02,.01,.03,.02,.05h0s0,.03,0,.04c0,.01,.01,.03,.01,.04,.02,.06,.03,.14,.05,.22,0,0,0,0,.01,0h.02s.04-.04,.04-.04c.03-.02,.05-.04,.08-.06,.03-.02,.06-.04,.09-.06,.01-.01,.03-.02,.04-.03l.03-.02c.08-.06,.16-.13,.25-.2,.17-.15,.35-.34,.52-.56,.17-.22,.33-.48,.47-.77,.07-.15,.13-.3,.18-.46,.01-.04,.02-.08,.04-.12l.02-.06s0,0,0,0h0s0,0,0,0h0s0,0,0,0c0,0,.05,0,.08,0,.06,0,.11-.02,.16-.04,.09-.04,.17-.09,.25-.16,.02-.02,.04-.03,.05-.05l.04-.05,.08-.1c.06-.07,.1-.14,.16-.21,.19-.29,.31-.62,.38-.93,.07-.32,.09-.63,.09-.92-.01-.59-.12-1.1-.24-1.52-.25-.84-.53-1.31-.56-1.29-.04,.02,.16,.51,.35,1.34Z"/>
            <path class="cls-21" d="M24.91,24.37c0-.07,0-.14,0-.22,0,.07,0,.14,0,.22,0,0,0,0,0,0Z"/>
            <path class="cls-21" d="M39.3,41.18c-.2-.01-.5-.05-.85-.19-.36-.14-.77-.37-1.19-.7-.22-.16-.44-.35-.66-.57-.22-.21-.44-.45-.66-.72-.43-.53-.83-1.17-1.14-1.91-.16-.37-.28-.76-.4-1.18-.12-.42-.23-.85-.38-1.29-.08-.22-.17-.44-.27-.66-.11-.22-.23-.43-.39-.63-.26-.34-.58-.63-.92-.88,.44,.02,.85,.06,1.2,.1,.26,.03,.49,.07,.7,.1,.63,.1,.99,.18,1,.14,0,0,0,0,0,0,.01-.04-.61-.27-1.66-.46-.53-.09-1.16-.17-1.87-.19-.35-.02-.71-.03-1.03-.17-.33-.13-.62-.37-.85-.67-.15-.19-.26-.4-.35-.61-.05-.13-.1-.26-.13-.39-.1-.35-.13-.71-.15-1.05-.01-.34,0-.67,.02-.98,0-.1,.02-.2,.02-.3,0,0,0,.01,0,.02,.04,.07,.11,.14,.19,.19-.03,.24-.05,.48-.05,.74,0,.25,0,.52,.05,.79,.05,.27,.17,.55,.36,.77,.1,.11,.22,.21,.36,.29,.14,.07,.29,.11,.43,.14,.82,.11,1.59,0,2.29-.18,.35-.09,.69-.2,1.01-.31,.04-.01,.07-.03,.11-.04,.12-.04,.24-.09,.36-.13,.14-.05,.28-.1,.42-.15,.17,.07,.33,.14,.49,.19,.36,.12,.71,.18,1.01,.15,.31-.03,.55-.13,.74-.22,.16-.08,.28-.15,.36-.21-.02,.04-.03,.09-.05,.13-.02,.06-.05,.12-.07,.17-.04,.11-.08,.19-.09,.25v.07s0,0,0,0c.03,.02,.06,.02,.08,0,0,0,.01-.01,.01-.03v.02c.06-.03,.14-.09,.22-.19,.04-.05,.08-.11,.12-.17,.04-.07,.07-.14,.1-.23,.02-.06,.03-.13,.02-.2,0-.07-.03-.14-.06-.19-.06-.1-.13-.15-.19-.2-.12-.09-.22-.1-.24-.07-.03,.04,.02,.11,.08,.22,.03,.05,.07,.12,.09,.18,.01,.03,.01,.05,.01,.08,0,.02,0,.03,0,.06,0,0,0,0,0,0-.1,.05-.24,.11-.43,.19-.19,.07-.43,.14-.7,.15-.28,.01-.59-.06-.93-.19-.08-.03-.16-.07-.25-.1,.02,0,.04-.01,.06-.02-.13-.04-.25-.08-.38-.12-.17-.08-.34-.16-.51-.25-.38-.2-.78-.41-1.18-.68-.08-.06-.17-.11-.25-.17-.31-.22-.62-.48-.9-.77-.1-.11-.2-.23-.3-.35,0,0,0,0,0,0-.05-.08-.1-.15-.15-.23-.1-.15-.19-.3-.28-.45-.11-.2-.22-.39-.31-.58,0-.01-.01-.02-.02-.03-.07-.16-.13-.33-.19-.49-.07-.21-.13-.43-.18-.63-.01-.04-.02-.08-.03-.12,0,0,0-.02,0-.03,0-.02,0-.04,0-.05,0,0,0-.03,0-.04v-.05c.01-.05,.02-.1,.03-.15,.11-.13,.27-.37,.42-.67,.11-.23,.22-.42,.3-.55,.03-.05,.06-.08,.08-.12,.04,.04,.08,.06,.12,.08,.06,.03,.11,.05,.15,.06l.14,.06c.37,.16,.71,.33,1.04,.53,.33,.19,.68,.38,1.06,.45,.09,.02,.19,.03,.29,.03,.11,0,.22-.04,.3-.09,.17-.1,.29-.25,.37-.41,.16-.32,.16-.65,.1-.93-.06-.28-.17-.51-.27-.69-.11-.19-.21-.34-.29-.47-.17-.25-.29-.37-.31-.35,0,0,0,0,0,0-.02,.02,.07,.16,.2,.42,.07,.13,.15,.29,.24,.48,.08,.19,.17,.41,.21,.66,0,.05,.01,.1,.02,.15,0,.2-.02,.42-.13,.62-.05,.09-.12,.17-.2,.24-.03,.02-.05,.04-.08,.06-.06,.03-.11,.05-.18,.05-.07,0-.14-.01-.22-.03-.32-.07-.63-.24-.96-.43-.33-.2-.69-.39-1.07-.55l-.14-.06c-.05-.02-.1-.04-.13-.05-.03-.02-.04-.03-.05-.04,0,0,0-.01,0-.03,0-.02,0-.04-.01-.06,0-.06-.01-.13-.01-.21,0-.02,0-.04,0-.07,0-.05,0-.11,0-.16,0-.05,0-.09-.01-.14-.02-.37,0-.73,.06-1.06,.01-.05,.02-.1,.04-.15,.03-.1,.07-.2,.13-.28,.08-.12,.2-.21,.32-.31,.12-.09,.23-.16,.34-.17,.11-.01,.23,.03,.34,.08,.47,.21,.78,.5,.99,.71,.21,.21,.31,.33,.33,.32,0,0,0,0,0,0,.02-.01-.06-.16-.24-.4-.19-.23-.49-.58-.99-.83-.12-.06-.27-.13-.46-.12-.19,.01-.34,.11-.47,.21-.13,.09-.27,.2-.39,.36-.11,.16-.18,.34-.22,.52-.08,.36-.11,.74-.09,1.14,0,.05,0,.1,0,.15,0,.05,0,.09,0,.14,0,.09,0,.2,.01,.31,0,.03,0,.06,.02,.09,0,.02,.01,.04,.02,.06-.04,.02-.1,.05-.15,.09-.15,.11-.3,.32-.42,.55-.15,.29-.25,.56-.29,.73-.06,0-.12,0-.15,0-.04,0-.08-.02-.12-.04-.08-.04-.15-.1-.22-.16-.13-.13-.25-.3-.34-.47-.19-.34-.31-.7-.35-1.05-.05-.35-.03-.69,.03-.99,.07-.3,.18-.58,.31-.81,.26-.46,.58-.76,.81-.94,.23-.18,.38-.26,.37-.28,0-.01-.17,.03-.43,.19-.26,.16-.61,.45-.91,.93-.15,.24-.28,.52-.36,.85-.08,.33-.11,.69-.07,1.08,.04,.38,.16,.78,.36,1.16,.02,.05,.05,.09,.08,.14,0,.02,.02,.03,.03,.05,0,0-.01,.01-.01,.02-.02,.03-.04,.07-.05,.08-.02,.04-.04,.08-.06,.12-.04,.08-.07,.15-.09,.21-.09,.26-.11,.41-.1,.42h0s.09-.13,.21-.37c.03-.06,.07-.12,.11-.19,.02-.03,.05-.07,.07-.11,.01-.02,.02-.03,.02-.04,0,0,.01-.02,.02-.02,.01-.02,.04-.01,.06,0,0,0,.01,.02,.02,.03,0,.02,.02,.03,.02,.05,.02,.05,.05,.1,.09,.16,.01,.01,.02,.03,.04,.05,.01,.01,.02,.03,.04,.04,.02,.02,.05,.05,.08,.07,.06,.04,.13,.08,.21,.1,.02,0,.04,0,.06,.01,.01,0,.02,0,.03,0,0,0,.03,0,.02,0,0,0,.02,0,.02,0,0,0,0,.01,0,.02,0,0,0,0,0,0v.02s.02,.05,.02,.05c.01,.07,.03,.14,.04,.21,.06,.28,.13,.58,.25,.9,.11,.3,.25,.59,.42,.88,0,.02,.02,.03,.03,.05,.09,.15,.18,.31,.28,.46,.05,.08,.1,.15,.15,.23,0,.01,0,.01,0,.01h0s0,0,0,0h0s-.09,.06-.09,.06c-.04,.03-.07,.05-.11,.08-.07,.05-.14,.09-.22,.13-.15,.07-.3,.12-.44,.12-.15,0-.31-.03-.47-.08-.08-.02-.16-.04-.23-.06-.08-.02-.15-.05-.2-.07-.06-.03-.09-.06-.12-.11-.03-.05-.05-.11-.07-.17-.02-.06-.03-.15-.07-.24,0-.02-.02-.05-.04-.07,.06-.07,.14-.18,.22-.31,.05-.08,.09-.16,.14-.26,.2-.4,.3-.75,.22-.79-.06-.03-.21,.14-.36,.4-.05,.08-.09,.16-.14,.25-.11,.22-.19,.42-.22,.57,0,0,0,0,0,0-.22-.14-.34-.36-.37-.57-.02-.1-.01-.21,0-.31,.02-.1,.04-.2,.06-.29,.05-.19,.09-.34,.12-.48,.07-.26,.11-.41,.08-.42h0s-.07,.09-.16,.29c-.01,.03-.03,.06-.04,.09-.05,.13-.12,.28-.18,.47-.03,.09-.06,.19-.09,.3-.03,.11-.04,.24-.03,.38,.01,.14,.06,.27,.13,.41,.04,.07,.08,.13,.13,.19,.05,.06,.12,.11,.17,.16,.03,.02,.05,.04,.06,.05-.05,.24-.08,.49-.11,.77-.01,.11-.02,.23-.03,.35-.14-.32-.28-.64-.45-.95-.24-.45-.54-.86-.88-1.22-.34-.36-.7-.66-1.06-.95-.21-.17-.41-.33-.61-.5,0-.14,0-.29-.01-.44-.03-.45-.13-.93-.41-1.35-.03-.05-.07-.1-.11-.15,.16,0,.25,0,.25-.02,0-.02-.12-.03-.34-.08-.1-.1-.2-.19-.32-.27-.2-.14-.42-.25-.64-.35-.22-.1-.43-.18-.66-.26-.22-.08-.46-.15-.7-.17-.25-.02-.49,0-.72,.04,0,0,0,0,0,0-.04-.14-.05-.3-.03-.47,0-.06,.02-.12,.03-.18,.03-.14,.07-.28,.14-.4,.1-.17,.25-.3,.44-.35,.19-.06,.4-.04,.57,.07,.08,.05,.16,.12,.22,.21,.03,.04,.06,.09,.08,.13v.02s.01,0,.01,0v.02s.03,.08,.03,.08c0,.03,0,.07,.01,.11v.06s0,.07,0,.07c0,.13,.01,.25,.02,.38,.09-.12,.17-.23,.26-.35l.07-.09s.04-.05,.07-.08l.03-.04s0-.01,.02-.02h0s.03-.04,.03-.04c.09-.08,.18-.15,.28-.21,.2-.12,.43-.2,.64-.2,.11,0,.2,.02,.28,.06,.08,.04,.14,.11,.17,.19,.02,.04,.03,.09,.04,.14,0,.02,0,.05,.01,.08,0,.05,0,.11,.01,.17,0,.12,0,.24,0,.36v.16s0,.04,0,.04v.04s0,.06,0,.06c.01-.02,.03-.04,.04-.06,.04-.06,.07-.12,.11-.18l.06-.1s.04-.07,.06-.09l.05-.07,.02-.03,.02-.02,.04-.03s.01,0,.03-.02h0c.05-.03,.11-.05,.17-.07,.12-.03,.26-.03,.38-.02,.12,.02,.24,.06,.32,.12,.09,.06,.14,.15,.15,.24,0,.01,0,.02,0,.03,0,.09-.01,.18-.04,.27-.04,.1-.09,.19-.15,.28-.12,.18-.23,.34-.35,.47-.24,.25-.52,.3-.71,.33-.19,.03-.3,.04-.3,.05,0,.01,.1,.04,.31,.04,.06,0,.13,0,.21-.01,.05,0,.11-.02,.16-.03,.15-.04,.31-.12,.45-.25,.14-.13,.27-.29,.4-.47,.07-.09,.13-.19,.18-.31,.05-.12,.09-.26,.07-.41-.02-.15-.11-.31-.24-.41-.13-.1-.28-.15-.43-.18-.15-.02-.31-.02-.48,0-.08,.02-.16,.04-.24,.08h-.02s0,.01,0,.02c0,0,0,0,0,0,0,0,0,0,0,0v-.02s0,0,0,0c0-.03,0-.06-.01-.1-.01-.07-.03-.13-.06-.2-.06-.13-.16-.26-.3-.34-.14-.07-.29-.1-.43-.1-.29,0-.55,.1-.79,.24-.09,.06-.18,.12-.27,.19-.02,.02-.05,.04-.07,.06l-.04,.04h0s0,0,0,0h0s0,0,0,0h0s0,0,0,0c0,0,0,0,0,0h0s-.02-.05-.02-.05c-.03-.07-.07-.13-.11-.19-.08-.12-.19-.22-.32-.29-.02-.01-.05-.03-.07-.04,0-.11,0-.22,.02-.33,.03-.32,.08-.62,.15-.88,.04-.17,.09-.33,.14-.48,.19-.51,.37-.84,.45-.99,.03-.06,.05-.09,.04-.1,0-.01-.03-.02-.09-.03-.03,0-.06,0-.1,0-.03,0-.05,0-.08,0-.01,0-.03,0-.04,0h-.02s0,0,0,0c0,0,0,0,0-.01,.02-.03,.05-.06,.07-.09l.02-.02h0s.02-.03,.02-.03c.02-.03,.05-.07,.07-.1,.05-.07,.11-.14,.16-.21,.23-.3,.51-.65,.83-1.03,.16-.19,.34-.38,.52-.58,.05-.05,.09-.1,.14-.15,.09-.1,.19-.19,.28-.29,.2-.13-.07-.13-.18-.17-.11-.03-.22-.06-.32-.08,0,0,0,0,0,0h0s.02-.01,.02-.01h0s.04-.02,.04-.02l.09-.04c.06-.03,.12-.05,.18-.07,.12-.05,.24-.08,.36-.12,.47-.14,.9-.22,1.27-.27,.37-.04,.67-.05,.88-.05,.21,0,.33,0,.33-.03,.01-.01-.04-.08-.1-.15-.03-.03-.06-.07-.1-.11h0s0,0,0-.01h0s.03,0,.03,0c.02,0,.04,0,.05,0,.03,0,.06,0,.1,.01h.02s0,0,0,0c0,0,0,0,.02,0,.04,0,.07,0,.11,.01,.08,0,.16,.02,.24,.03,.16,.02,.34,.05,.53,.09,.37,.08,.77,.19,1.19,.35l.73,.28-.57-.53s-.05-.05-.08-.08l-.02-.02s0,0,0,0h0s0,0,0,0h.05c.07,.03,.13,.05,.2,.07,.06,.02,.13,.04,.19,.07,.06,.02,.12,.05,.18,.08,.24,.11,.46,.24,.67,.37,.41,.27,.76,.56,1.05,.8,.15,.12,.28,.23,.4,.33,.12,.1,.24,.17,.34,.22,.21,.1,.34,.08,.34,.06,0,0,0,0,0,0,0-.02-.12-.05-.28-.16-.08-.06-.18-.14-.28-.25-.11-.1-.23-.23-.37-.36-.28-.27-.62-.58-1.04-.88-.21-.15-.45-.29-.7-.41-.06-.03-.13-.06-.2-.09-.07-.03-.14-.05-.21-.08-.07-.02-.14-.05-.22-.06h-.06s-.07-.03-.1-.04c-.07-.01-.13-.02-.2-.02-.08,0-.16-.02-.24-.03-.08,0-.16-.01-.24-.02h-.12s-.06-.01-.06-.01h-.02s0,0,0,0l.02,.02c.05,.05,.11,.1,.16,.15,.04,.04,.08,.07,.12,.11-.21-.05-.41-.09-.6-.12-.19-.03-.38-.05-.55-.06-.09,0-.17-.01-.25-.01-.04,0-.08,0-.12,0-.06,0-.11,0-.17,0-.1,0-.2,0-.3,0-.04,0-.09,0-.13,0-.02,0-.04,0-.06,0h-.01s0,0,.01,.01l.03,.02c.13,.11,.24,.19,.33,.25,.06,.05,.12,.08,.16,.11-.05-.01-.13-.03-.22-.04-.21-.03-.52-.06-.91-.05-.38,.02-.84,.07-1.34,.21-.12,.04-.25,.07-.38,.12-.06,.02-.13,.04-.19,.07l-.1,.04s-.03,.01-.05,.02l-.08,.04c-.11,.05-.23,.11-.35,.16-.06,.03-.12,.06-.18,.09l-.09,.04-.05,.02h-.02s-.01,.02-.01,.02c0,0-.01,0,0,0,.13,.04,.26,.07,.39,.11,.14,.04,.28,.07,.42,.11l.09,.02h0s0,0,0,0h0s0,0,0,0h0s0,0,0,0h0c-.05,.06-.09,.11-.14,.16-.18,.2-.36,.41-.51,.6-.32,.39-.58,.76-.79,1.08-.05,.08-.1,.16-.15,.23-.05,.09-.1,.17-.15,.25-.05,.09-.11,.18-.15,.26,0,0-.02,.02-.01,.02h.04s.05,0,.07-.01c.04,0,.09-.01,.13-.02,.08-.01,.14-.02,.2-.03,.05,0,.08-.02,.11-.02,.03,0,.05-.01,.06-.02-.03,.03-.09,.11-.17,.23-.06,.08-.12,.2-.19,.33-.08,.13-.14,.29-.22,.47-.14,.36-.28,.83-.35,1.38-.01,.09-.02,.19-.02,.28-.19-.05-.38-.04-.56,.01-.13,.04-.26,.1-.36,.19-.11,.09-.19,.19-.25,.31-.13,.23-.17,.47-.19,.7-.01,.18-.01,.37,.04,.56-.13,.03-.25,.06-.38,.09-.43,.1-.86,.21-1.26,.36-.41,.15-.79,.35-1.13,.59-.35,.25-.65,.54-.91,.84-.55,.05-1.09,.1-1.62,.16-2.51,.28-4.84,.63-6.95,.99-.03,0-.06,0-.09,.01,.02-.12,.01-.25,0-.38-.02-.17-.05-.36-.16-.56-.05-.1-.13-.19-.23-.27-.1-.08-.22-.13-.35-.15-.25-.05-.54,0-.79,.11-.13,.06-.25,.13-.36,.22-.06,.04-.11,.09-.17,.13,0,0-.02,.01-.02,.01,0,0,0-.01-.01-.02h0s0-.01,0-.01v-.02s-.03-.03-.05-.04c-.02-.02-.04-.05-.07-.07-.1-.09-.21-.15-.32-.2-.11-.05-.23-.09-.35-.11-.12-.03-.24-.05-.37-.06-.25-.02-.55,.01-.79,.2-.12,.09-.21,.22-.27,.36-.03,.07-.04,.15-.05,.24v.03s0,0,0,0h0s0,0,0,0h-.05s-.1-.01-.1-.01c-.13,0-.27,0-.41,0-.14,.02-.28,.05-.41,.11-.13,.06-.25,.14-.35,.25-.1,.11-.18,.23-.22,.38-.04,.15-.04,.31,.01,.45,.05,.14,.13,.25,.22,.35,.09,.1,.18,.18,.28,.26,.2,.15,.42,.26,.64,.34,.11,.04,.21,.07,.32,.09-.26,.22-.49,.45-.7,.7-.56,.66-.94,1.38-1.22,2.06-.27,.69-.44,1.34-.54,1.93-.21,1.19-.21,2.13-.18,2.76,.02,.32,.04,.56,.06,.72,.02,.16,.03,.24,.04,.24,0,0,0-.08,0-.25,0-.16-.02-.4-.03-.72,0-.4,0-.92,.06-1.54,.03-.31,.08-.66,.14-1.02,.01-.06,.02-.11,.03-.17,.11-.59,.29-1.23,.56-1.9,.28-.67,.66-1.36,1.21-2,.55-.64,1.27-1.2,2.17-1.54,.89-.35,1.89-.52,2.95-.7,2.12-.34,4.44-.67,6.95-.95,.45-.05,.9-.09,1.36-.13-.13,.17-.25,.34-.35,.5-.02,.03-.04,.07-.07,.1-.19,.31-.36,.62-.5,.93-.14,.31-.27,.61-.37,.9-.43,1.16-.63,2.14-.68,2.83-.03,.34-.03,.61-.02,.79,0,.18,.02,.28,.03,.28,.02,0,.02-.16,.04-.46,.01-.16,.03-.36,.06-.59,.09-.67,.31-1.64,.76-2.77,.11-.28,.24-.57,.38-.87,.15-.3,.31-.6,.5-.9,.38-.59,.87-1.19,1.51-1.64,.32-.22,.68-.41,1.07-.55,.39-.14,.8-.25,1.23-.35,.43-.1,.86-.22,1.27-.17,.42,.04,.84,.23,1.26,.41,.16,.07,.31,.14,.45,.23,.01,0,.02,.02,.04,.02,0,.03,0,.06,.01,.1,0,0,0,0,0,0,0-.03,0-.06-.01-.1,.22,.14,.41,.3,.55,.5,.24,.34,.33,.77,.36,1.19,.03,.42,0,.86,0,1.28-.02,.42-.04,.83-.08,1.23-.07,.8-.19,1.55-.38,2.24-.1,.34-.21,.67-.32,.98-.12,.31-.25,.6-.38,.87-.54,1.09-1.16,1.86-1.61,2.37-.11,.12-.22,.24-.31,.33-.09,.09-.17,.17-.24,.23-.13,.11-.21,.16-.21,.18,0,0,0,0,0,0,0,0,.1-.03,.25-.13,.08-.05,.16-.12,.26-.21,.1-.09,.21-.2,.33-.32,.48-.49,1.14-1.26,1.71-2.36,.15-.27,.28-.57,.41-.88,.13-.31,.25-.64,.35-.99,.11-.38,.2-.78,.27-1.2,0,0,0,0,0,0,.06-.35,.11-.71,.14-1.08,.04-.41,.07-.82,.09-1.25,0-.17,.01-.34,.02-.51,.14,.12,.29,.24,.43,.36,.7,.58,1.41,1.22,1.85,2.09,.23,.43,.42,.9,.63,1.37,.02,.05,.05,.11,.07,.16,0,.34,.04,.69,.14,1.06,.1,.38,.27,.77,.53,1.11,.26,.34,.6,.62,.99,.76,.39,.15,.78,.16,1.13,.17,.03,0,.05,0,.07,0,.07,.04,.13,.09,.2,.13,.4,.28,.77,.58,1.05,.95,.14,.18,.26,.38,.36,.58,.1,.2,.19,.41,.26,.62,.15,.42,.27,.85,.39,1.27,.06,.19,.12,.39,.18,.58,.07,.22,.15,.43,.24,.63,.15,.35,.33,.68,.52,.98,0,0,0,0,0,0,.22,.35,.45,.67,.7,.96,.06,.07,.12,.14,.19,.21-.06,.13-.12,.25-.18,.38-.34,.69-.74,1.35-1.2,1.96-.47,.63-1,1.22-1.58,1.74-.28,.25-.57,.5-.88,.72-.15,.11-.31,.22-.46,.33-.15,.11-.32,.2-.47,.3l-.24,.15-.25,.14c-.16,.09-.33,.18-.49,.27-.34,.16-.66,.33-1.01,.46-1.35,.58-2.76,.94-4.14,1.22-1.39,.26-2.76,.43-4.09,.56-.2,.02-.4,.04-.6,.05-1.13,.1-2.22,.18-3.28,.12-1.25-.07-2.44-.33-3.55-.67-1.11-.34-2.16-.74-3.11-1.22-1.91-.95-3.46-2.16-4.55-3.45-1.1-1.29-1.76-2.62-2.2-3.73-.44-1.11-.63-2.03-.75-2.64-.03-.16-.05-.29-.07-.41-.02-.12-.03-.22-.04-.3-.02-.16-.04-.24-.05-.24,0,0,0,.08,.01,.24,0,.08,.02,.18,.03,.3,.02,.12,.04,.26,.06,.41,.1,.62,.28,1.55,.7,2.68,.42,1.12,1.07,2.47,2.18,3.8,1.1,1.32,2.66,2.56,4.59,3.53,.96,.49,2.02,.91,3.14,1.25,1.12,.34,2.33,.62,3.6,.7,1.27,.08,2.58-.04,3.92-.16,1.34-.12,2.72-.29,4.12-.55,1.4-.28,2.82-.64,4.2-1.23,.35-.14,.69-.31,1.03-.47,.17-.09,.33-.18,.5-.27l.25-.14,.24-.15c.16-.1,.33-.2,.49-.31,.16-.11,.31-.22,.47-.34,.31-.23,.61-.48,.9-.74,1.16-1.05,2.13-2.34,2.85-3.79,.04-.09,.09-.18,.13-.27,.09,.09,.18,.18,.27,.26,.23,.21,.46,.4,.69,.56,.45,.33,.88,.55,1.26,.68,.38,.13,.69,.15,.89,.14,.21-.01,.31-.04,.31-.05,0,0,0,0,0,0,0-.01-.12,0-.31,0Zm-9.48-12.87c.08,.02,.16,.05,.25,.07,.07,.02,.15,.04,.22,.06,.1,.02,.21,.04,.32,.04,.2,0,.4-.06,.58-.15,.09-.04,.17-.09,.25-.15,.04-.03,.08-.05,.12-.08l.06-.04,.08-.06,.04-.03s.02,.03,.03,.05c.1,.16,.27,.39,.55,.6,.14,.11,.29,.22,.46,.34,.17,.12,.35,.25,.56,.38,.2,.13,.42,.27,.66,.4,.12,.06,.25,.13,.38,.18,.02,.01,.05,.02,.08,.03,0,0-.02,0-.03,.01h-.02s0,0,0,0h-.04c-.15,.06-.31,.12-.47,.17-.32,.1-.65,.2-.99,.29-.26,.06-.54,.12-.81,.15-.08,.01-.17,.02-.25,.03-.09,0-.18,.02-.28,.02-.09,0-.18,0-.28,0-.18,0-.38-.01-.55-.04-.25-.04-.45-.14-.61-.32-.15-.18-.25-.4-.3-.63-.05-.23-.06-.48-.06-.72,0-.21,.01-.42,.03-.62,0,0,0,0,0,0Zm-22.98-2.54c-.23,.09-.45,.2-.66,.31-.2,.11-.39,.24-.58,.37-.17-.03-.35-.07-.52-.13-.2-.07-.38-.17-.55-.3-.16-.13-.32-.29-.38-.45,0,0,0-.01,0-.02-.03-.09-.03-.18,0-.27,.03-.09,.08-.18,.15-.25,.14-.15,.34-.24,.58-.26,.12-.01,.24-.01,.36,0h.09s.14,.02,.14,.02c.12,.01,.25,.03,.37,.04l-.09-.22-.04-.1s0-.02,0-.02c0,0,0-.02,0-.02v-.02s0-.09,.03-.13c.03-.09,.09-.17,.17-.23,.07-.06,.17-.1,.27-.12,.1-.02,.21-.03,.32-.02,.11,0,.22,.02,.33,.05,.11,.02,.21,.05,.3,.09,.09,.04,.18,.09,.25,.15,.02,.01,.03,.03,.05,.05,0,0,.01,.02,.02,.02h0s0,.02,0,.02v.02c.06,.08,.09,.21,.13,.3,.1-.08,.2-.17,.3-.25,.05-.05,.1-.09,.16-.13,.1-.08,.21-.15,.31-.2,.21-.11,.43-.15,.64-.12,.2,.03,.36,.15,.45,.3,.09,.15,.13,.33,.17,.49,0,.01,0,.02,0,.03,.02,.13,.03,.25,.03,.35-.98,.17-1.92,.35-2.77,.69Z"/>
            <path class="cls-21" d="M24.9,23.97s0,0,0,0c0,.06,0,.12,0,.17,0-.06,0-.11,0-.17Z"/>
          </g>
        </g>
      </g>
    </g>
  </g>
</svg>