<?xml version="1.0" encoding="UTF-8"?>
<svg xmlns="http://www.w3.org/2000/svg" xmlns:xlink="http://www.w3.org/1999/xlink" viewBox="0 0 64 64">
  <defs>
    <style>
      .cls-1 {
        fill: #231f20;
      }

      .cls-1, .cls-2 {
        mix-blend-mode: soft-light;
      }

      .cls-3 {
        fill: url(#linear-gradient-2);
      }

      .cls-4, .cls-5, .cls-2, .cls-6 {
        fill: #fff;
      }

      .cls-7 {
        fill: #a7a9ac;
      }

      .cls-7, .cls-8, .cls-6, .cls-9 {
        mix-blend-mode: overlay;
      }

      .cls-7, .cls-5 {
        opacity: .5;
      }

      .cls-8 {
        fill: #8c8587;
      }

      .cls-10 {
        isolation: isolate;
      }

      .cls-11, .cls-12 {
        fill: #2b2829;
      }

      .cls-11, .cls-13 {
        mix-blend-mode: screen;
      }

      .cls-14 {
        fill: #dcc2a7;
      }

      .cls-6 {
        opacity: .6;
      }

      .cls-15 {
        opacity: .3;
      }

      .cls-16 {
        fill: #e6cfd4;
        mix-blend-mode: multiply;
      }

      .cls-17 {
        fill: #822162;
      }

      .cls-18 {
        fill: #ffd4c5;
      }

      .cls-19 {
        fill: #f27380;
      }

      .cls-20 {
        fill: url(#linear-gradient);
      }

      .cls-21 {
        fill: #f7b519;
      }

      .cls-22 {
        fill: #f9eac0;
      }

      .cls-9 {
        fill: #998a8e;
      }
    </style>
    <linearGradient id="linear-gradient" x1="64" y1="34.03" x2="5.45" y2="34.03" gradientUnits="userSpaceOnUse">
      <stop offset="0" stop-color="#cf965b"/>
      <stop offset=".25" stop-color="#ca9257"/>
      <stop offset=".51" stop-color="#be864c"/>
      <stop offset=".78" stop-color="#a9733a"/>
      <stop offset="1" stop-color="#925d26"/>
    </linearGradient>
    <linearGradient id="linear-gradient-2" x1="61.28" y1="31.49" x2="1.36" y2="31.49" gradientUnits="userSpaceOnUse">
      <stop offset="0" stop-color="#e8b886"/>
      <stop offset=".25" stop-color="#e3b482"/>
      <stop offset=".5" stop-color="#d7a877"/>
      <stop offset=".76" stop-color="#c29464"/>
      <stop offset="1" stop-color="#a97c4e"/>
    </linearGradient>
  </defs>
  <g class="cls-10">
    <g id="_Слой_2" data-name="Слой 2">
      <g id="_Слой_1-2" data-name="Слой 1">
        <g>
          <g>
            <path class="cls-20" d="M60.49,6.68c-1.75-1.6-4.41-2.62-7.38-2.62H14.98c-5.26,0-9.53,3.19-9.53,7.11V55.87c0,2.22,1.37,4.2,3.51,5.51,1.75,1.6,4.41,2.62,7.38,2.62H54.47c5.26,0,9.53-3.19,9.53-7.11V12.19c0-2.22-1.37-4.2-3.51-5.51Z"/>
            <path class="cls-3" d="M57.77,4.65c-.41-.37-.86-.71-1.36-1.02-1.75-1.6-4.41-2.62-7.38-2.62H10.89C5.64,1.02,1.36,4.21,1.36,8.13V52.83c0,2.22,1.37,4.2,3.51,5.51,.41,.37,.86,.71,1.36,1.02,1.75,1.6,4.41,2.62,7.38,2.62H51.74c5.26,0,9.53-3.19,9.53-7.11V10.16c0-2.22-1.37-4.2-3.51-5.51Z"/>
            <path class="cls-14" d="M47.66,0H9.53C4.28,0,0,3.19,0,7.11V51.81c0,3.92,4.28,7.11,9.53,7.11H47.66c5.26,0,9.53-3.19,9.53-7.11V7.11c0-3.92-4.28-7.11-9.53-7.11Z"/>
          </g>
          <path class="cls-9" d="M5.89,14.33c-.01-2.85,.17-6.06,2.96-8,2.12-1.47,5.21-1.81,8.09-1.99,6.68-.42,13.42-.36,20.09,.18,3.3,.26,6.79,.71,9.28,2.36,3.69,2.45,3.93,6.61,3.9,10.29-.08,9.24-.15,18.48-.23,27.72-.02,2.2-.08,4.51-1.54,6.42-1.54,2-4.45,3.25-7.46,3.8s-6.15,.48-9.24,.41c-5.15-.12-10.31-.24-15.43-.71-2.79-.26-9.22-.18-10.19-2.65-.66-1.68-.07-4.15-.07-5.9,0-2.02-.02-4.03-.03-6.05-.02-4.03-.04-8.06-.06-12.1-.02-4.59-.04-9.18-.07-13.78Z"/>
          <path class="cls-9" d="M20.65,20.31c-3.25-.39-6.54-1.19-8.94-2.87-2.39-1.69-3.67-4.43-2.38-6.69,.89-1.57,2.87-2.69,5.01-3.3,2.14-.61,4.45-.77,6.74-.89,5.74-.3,11.52-.39,17.22,.17,2.22,.22,4.55,.57,6.21,1.7,2.93,1.99,2.55,5.66,.4,8.14-5.33,6.17-16.02,4.75-24.26,3.75Z"/>
          <path class="cls-11" d="M9.75,46.11c-.57-1.77-.49-3.61-.4-5.43,.37-7.55,.74-15.09,1.11-22.64,.14-2.75,.39-5.74,2.81-7.82,2.2-1.89,5.7-2.58,9.03-2.93,4.04-.42,8.14-.47,12.2-.14,3.7,.3,7.69,1.06,9.9,3.3,1.87,1.9,2.03,4.41,2.12,6.77,.33,9.07,.66,18.2-1.13,27.18-.4,1.99-1,4.12-2.97,5.5-2.25,1.58-5.63,1.75-8.72,1.75-5.06,0-10.12-.25-15.13-.73-4.65-.45-7.58-.99-8.81-4.8Z"/>
          <path class="cls-16" d="M47.66,1.02h-1.63c4.51,0,8.17,2.73,8.17,6.1V51.81c0,3.37-3.66,6.1-8.17,6.1h1.63c4.51,0,8.17-2.73,8.17-6.1V7.11c0-3.37-3.66-6.1-8.17-6.1Z"/>
          <path class="cls-7" d="M44.83,56.21c2.15-.26,4.29-1.07,5.39-2.47,.86-1.09,1-2.4,1.05-3.66,.05-1.24,.02-2.47-.08-3.71-.07-.81-.31-1.78-1.32-2.08-.75-.23-1.65,.04-2.16,.52-.51,.47-.69,1.1-.74,1.7-.11,1.25,.25,2.52-.08,3.75-.39,1.42-1.68,2.63-3.23,3.51-1.13,.64-4.12,1.25-4.5,2.21,1.43,.58,4.04,.42,5.67,.23Z"/>
          <path class="cls-8" d="M3.88,2.71c-1.55,1.11-2.52,2.67-2.52,4.4v26.08c12.35-3.44,32.73-4.39,54.47,14.33v-14.97C26.86,28.05,11.39,13.17,3.88,2.71Z"/>
          <path class="cls-5" d="M3.58,9.23c.26-1.79,1.27-3.6,3.21-4.67,2.66-1.47,6.31-1.25,9.61-.96,1.02,.09,2.32,.39,2.36,1.15,.03,.67-.97,1.08-1.84,1.21-2.2,.34-4.63-.04-6.59,.77-1.42,.58-2.33,1.69-2.8,2.85s-.56,2.38-.73,3.58c-.07,.46-.15,.93-.44,1.34-1.08,1.49-2.05,.48-2.43-.37-.6-1.35-.53-3.5-.32-4.91Z"/>
          <g class="cls-13">
            <path class="cls-12" d="M36.44,9.78c.84,1.55-.18,3.32-2.26,3.94-2.08,.62-4.45-.13-5.29-1.69-.84-1.55,.18-3.32,2.26-3.94,2.08-.62,4.45,.13,5.29,1.69Z"/>
            <path class="cls-12" d="M43.37,11.71c.45,.84-.09,1.78-1.21,2.12-1.12,.34-2.39-.07-2.84-.91-.45-.84,.09-1.78,1.21-2.12,1.12-.34,2.39,.07,2.84,.91Z"/>
            <path class="cls-12" d="M40.11,16.13c.37,.7-.08,1.49-1.01,1.77-.93,.28-1.99-.06-2.37-.76-.37-.7,.08-1.49,1.01-1.77,.93-.28,1.99,.06,2.37,.76Z"/>
          </g>
          <g class="cls-13">
            <path class="cls-12" d="M23.64,45.38c.8,1.49-.17,3.17-2.16,3.77-1.99,.6-4.25-.13-5.05-1.61-.8-1.49,.17-3.17,2.16-3.77,1.99-.6,4.25,.13,5.05,1.61Z"/>
            <path class="cls-12" d="M20.79,40.39c.22,.41-.05,.87-.59,1.03-.54,.16-1.16-.03-1.38-.44-.22-.41,.05-.87,.59-1.03,.54-.16,1.16,.03,1.38,.44Z"/>
            <path class="cls-12" d="M15.3,41.5c.45,.84-.09,1.78-1.21,2.12-1.12,.34-2.39-.07-2.84-.91-.45-.84,.09-1.78,1.21-2.12,1.12-.34,2.39,.07,2.84,.91Z"/>
          </g>
          <g class="cls-15">
            <ellipse class="cls-16" cx="47.45" cy="37.02" rx="3.85" ry="2.87"/>
            <path class="cls-16" d="M53.92,29.6c.58,1.08-.12,2.3-1.57,2.74-1.45,.43-3.09-.09-3.67-1.17-.58-1.08,.12-2.3,1.57-2.74,1.45-.43,3.09,.09,3.67,1.17Z"/>
            <path class="cls-16" d="M45.56,30.99c.37,.7-.08,1.49-1.01,1.77-.93,.28-1.99-.06-2.37-.76-.37-.7,.08-1.49,1.01-1.77,.93-.28,1.99,.06,2.37,.76Z"/>
            <path class="cls-16" d="M10.65,25.55c.41,.75-.09,1.61-1.1,1.92-1.01,.3-2.16-.06-2.57-.82-.41-.75,.09-1.61,1.1-1.92,1.01-.3,2.16,.06,2.57,.82Z"/>
            <path class="cls-16" d="M11.29,21.09c.21,.39-.04,.84-.57,1-.53,.16-1.13-.03-1.34-.43-.21-.39,.04-.84,.57-1,.53-.16,1.13,.03,1.34,.43Z"/>
            <path class="cls-16" d="M6.59,20.15c.34,.63-.07,1.34-.91,1.59-.84,.25-1.79-.05-2.13-.68-.34-.63,.07-1.34,.91-1.59,.84-.25,1.79,.05,2.13,.68Z"/>
          </g>
        </g>
      </g>
      <g id="_Слой_8" data-name="Слой 8">
        <g>
          <path class="cls-22" d="M26.1,21.53s0-6.58-1.6-10.61c-1.6-4.04-4.02-7.25-7.95-5.79-3.93,1.46-3.83,5.77-3.71,7.81,.12,2.05,3.33,8.95,6.19,11.1,0,0,4.32-2.34,7.06-2.5Z"/>
          <path class="cls-18" d="M23.89,21.88s-.1-1.8-.68-3.98c-.58-2.17-1.24-4.42-1.62-5-.38-.58-1.44-2.45-3.13-2.2s-1.16,4.42-1.16,4.78,.59,3.17,1.9,4.82c1.31,1.65,2.24,2.58,2.24,2.58l2.46-1Z"/>
          <path class="cls-22" d="M31.29,21.54s0-6.58,1.6-10.61c1.6-4.04,4.02-7.25,7.95-5.79,3.93,1.46,3.83,5.77,3.71,7.81-.12,2.05-3.59,9.26-6.46,11.41,0,0-4.06-2.65-6.8-2.82Z"/>
          <path class="cls-18" d="M33.65,22.08s.32-3.83,1.42-5.97c1.1-2.15,2.26-3.62,3.02-4.15,.75-.52,1.51-.87,1.88-.46,.38,.41,.96,1.22,.43,3.54-.52,2.32-2.83,5.72-3.44,6.48-.62,.77-1.19,1.54-1.19,1.54l-2.12-.98Z"/>
          <path class="cls-22" d="M27.95,21.32s-5.72-.24-11.83,5.78c-6.11,6.01-3.65,13.69-2.91,14.87,.74,1.18,4.63,7.07,15.3,6.97,10.68-.1,14.4-5,15.22-6.48s2.2-4.53,1.37-7.21c-.83-2.68-1.59-6.14-3.99-8.3s-4.86-5.15-13.16-5.63Z"/>
          <path class="cls-22" d="M12.52,31.23c-.11-.02-.22-.03-.33,0-.25,.08-.36,.4-.29,.66,.07,.26,.26,.46,.46,.63-.21-.08-.47-.02-.61,.16-.14,.17-.16,.42-.1,.63,.06,.21,.19,.4,.33,.57,.24,.3,.51,.6,.86,.76s.8,.16,1.09-.09c.22-.19,.32-.48,.38-.76,.05-.28,.07-.58-.01-.86-.08-.25-.23-.47-.31-.71-.05-.15-.06-.34-.16-.46-.25-.32-.93-.45-1.31-.52Z"/>
          <path class="cls-22" d="M43.65,31.83c.14-.06,.28-.11,.42-.17,.12-.05,.25-.1,.38-.12,.16-.02,.31,.01,.46,.04,.2,.04,.44,.11,.47,.31,.02,.13-.06,.25-.14,.34-.09,.09-.19,.18-.25,.29,.13-.01,.26-.02,.37,.05,.07,.05,.11,.13,.14,.21,.08,.28,0,.59-.18,.82-.18,.23-.43,.39-.69,.51-.14,.06-.29,.12-.44,.1-.11-.01-.2-.06-.3-.12-.14-.08-.28-.17-.39-.3-.14-.16-.21-.36-.27-.57-.05-.19-.08-.38-.06-.57,.03-.19,.13-.34,.2-.52,.06-.16,.1-.26,.28-.33Z"/>
          <path class="cls-18" d="M17.03,33.11c-.25,.12-.47,.32-.6,.57-.04,.08-.08,.17-.06,.26,.04,.16,.23,.23,.39,.27,.36,.08,.72,.12,1.08,.13,.23,0,.46,0,.67-.08,.21-.08,.4-.25,.45-.47,.26-1.01-1.45-.91-1.94-.68Z"/>
          <path class="cls-18" d="M38.12,32.7l-.43,.03c-.15,0-.31,.02-.45,.09-.14,.06-.26,.2-.26,.35,0,.12,.06,.22,.14,.31,.31,.36,.84,.45,1.31,.46,.38,0,.8-.03,1.07-.3,.24-.24,.16-.61-.13-.76-.39-.2-.82-.19-1.25-.17Z"/>
          <path class="cls-4" d="M27,36.8c.07,.12,.15,.25,.27,.33,.13,.1,.3,.13,.46,.15,.64,.1,1.36,.13,1.87-.26,.44-.34,.62-.91,.75-1.45,.02-.08,.04-.17-.01-.23-.04-.06-.12-.07-.19-.08-.75-.12-1.43-.62-1.77-1.3-.18,.34-.36,.69-.66,.93-.18,.15-.4,.25-.62,.29-.17,.03-.46-.04-.56,.12-.18,.31,.31,1.23,.46,1.5Z"/>
          <path class="cls-19" d="M27.78,31.27c-.06,.01-.12,.03-.15,.08-.05,.07-.02,.16,.02,.23,.07,.14,.16,.27,.27,.38,.15,.15,.35,.27,.56,.24,.14-.02,.26-.1,.37-.18,.06-.04,.11-.08,.15-.13,.15-.19,.16-.55-.12-.58-.36-.04-.75-.11-1.1-.03Z"/>
          <path class="cls-22" d="M20.74,52c-.32,.65-.65,1.33-.65,2.06h16.88c-.35-1-.68-2.01-1.1-2.99-.41-.95-.88-1.93-1.71-2.54-.65-.48-1.47-.69-2.26-.83-2.26-.4-4.6-.35-6.84,.14-1.11,.24-1.95,.42-2.67,1.33-.68,.86-1.16,1.85-1.64,2.83Z"/>
          <path class="cls-21" d="M45.61,26.66c0,.07,.06,.11,.12,.15,.3,.22,.55,.51,.73,.84,.08-.21,.18-.41,.33-.58,.15-.17,.34-.3,.56-.34-.27-.12-.55-.24-.73-.47-.03-.04-.06-.09-.11-.13-.28-.24-.58,.45-.9,.53Z"/>
          <path class="cls-21" d="M43.84,47.68c-.15,.11-.32,.18-.48,.25,.35,.2,.73,.44,.83,.84,.17-.19,.34-.38,.52-.56,.07-.07,.14-.14,.23-.16,.1-.03,.22,0,.31-.04-.32-.04-.61-.23-.81-.48-.09-.11-.15-.31-.28-.22-.12,.08-.19,.28-.32,.37Z"/>
          <path class="cls-21" d="M10.11,46.94c-.35,.38-.81,.64-1.3,.81,.78,.16,1.46,.72,1.76,1.46,.12,.3,.19,.64,.35,.92,.06-.58,.33-1.13,.75-1.54s.98-.66,1.57-.69c-.5-.18-1.59-1.12-1.75-1.07-.28-.18-.32-.95-.65-.91-.34,.04-.45,.82-.72,1.03Z"/>
          <path class="cls-21" d="M9.45,28.05c.5,.28,.85,.83,.89,1.4,.19-.16,.26-.41,.36-.64,.17-.38,.48-.69,.85-.88-.17-.09-.36-.13-.55-.19-.2-.07-.38-.18-.48-.38-.08-.17-.08-.39-.28-.19-.14,.15-.18,.38-.31,.55-.06,.07-.36,.4-.48,.33Z"/>
          <g>
            <path class="cls-17" d="M44.18,31.13c-2.74-5.76-8.11-9.29-14.42-9.98-7.2-.78-13.5,3.6-16.64,9.93-.17,.35,.36,.66,.53,.31,3.04-6.16,9.1-10.41,16.11-9.67,6.11,.65,11.27,4.13,14.04,9.62,.13,.25,.5,.03,.38-.22h0Z"/>
            <path class="cls-17" d="M13.82,31.55c-.23-.28-.56-.39-.9-.44-.33-.05-.7-.1-1,.1-.24,.16-.36,.45-.32,.73,.05,.36,.37,.64,.66,.82,.27,.18,.61-.25,.35-.46-.14-.11-.31-.21-.4-.37-.13-.23,.09-.3,.29-.31,.33-.02,.73,0,.97,.26,.21,.23,.53-.11,.34-.34h0Z"/>
            <path class="cls-17" d="M12.51,32.27c-.67-.22-1.1,.49-1.01,1.08,.09,.57,.68,1.3,1.31,1.21,.21-.03,.23-.31,.11-.43-.2-.22-.5-.28-.69-.53-.16-.21-.34-.91,.15-.85,.3,.04,.44-.37,.13-.47h0Z"/>
            <path class="cls-17" d="M12.26,34.25c-.75,2.18-.4,4.74,.29,6.91,.63,2,2.18,3.57,3.87,4.75,3.4,2.37,7.54,3.2,11.61,3.33,4.47,.15,9.21-.72,12.94-3.32,1.69-1.18,3.23-2.75,3.88-4.75,.7-2.18,1.06-4.72,.36-6.94-.13-.41-.77-.23-.64,.18,.7,2.24,.33,5.27-.69,7.4-.89,1.86-2.69,3.3-4.45,4.29-3.46,1.95-7.49,2.61-11.4,2.49-3.5-.11-6.98-.74-10.08-2.48-1.77-.99-3.55-2.43-4.46-4.29-1.04-2.14-1.41-5.16-.76-7.43,.09-.3-.37-.42-.47-.13h0Z"/>
          </g>
          <path class="cls-17" d="M43.9,31.89c.24-.26,.64-.28,.97-.26,.15,0,.37,.03,.34,.23-.02,.16-.32,.34-.45,.44-.26,.21,.08,.63,.35,.46,.29-.19,.61-.46,.66-.82,.04-.28-.08-.57-.32-.73-.29-.19-.67-.14-1-.1-.35,.05-.67,.16-.9,.44-.19,.23,.12,.56,.34,.34h0Z"/>
          <path class="cls-17" d="M45.01,32.75c.49-.07,.31,.64,.15,.85-.19,.25-.5,.31-.69,.53-.11,.13-.09,.4,.11,.43,.63,.09,1.21-.64,1.31-1.21,.1-.59-.34-1.3-1.01-1.08-.31,.1-.17,.51,.13,.47h0Z"/>
          <path class="cls-17" d="M26.29,21.53c.05-2.74-.18-5.33-.81-8-.51-2.18-1.12-4.46-2.47-6.29-1.07-1.45-2.65-2.62-4.48-2.82-1.84-.21-3.26,.7-4.36,2.11-1.54,1.95-1.89,4.5-1.47,6.9,.7,3.96,3.03,8.26,6.12,10.81,.32,.27,.7-.22,.35-.46-1.68-1.16-2.78-3.15-3.75-4.91-.81-1.46-1.5-3-1.91-4.62-.57-2.22-.58-4.63,.63-6.65,.99-1.66,2.62-2.94,4.67-2.56,2.17,.41,3.76,2.2,4.69,4.09,1.77,3.62,2.58,8.4,2.4,12.39-.01,.25,.39,.25,.39,0h0Z"/>
          <path class="cls-17" d="M31.36,21.53c-.11-2.45,.28-4.95,.81-7.34,.48-2.16,1.05-4.42,2.29-6.28,1.36-2.04,3.74-3.47,6.23-2.74,1.92,.56,3.33,2.45,3.67,4.37,.51,2.89-.67,6.39-1.99,8.88-1,1.9-2.46,4.12-4.28,5.35-.35,.23,.02,.72,.35,.46,3.77-3.03,6.19-7.83,6.58-12.63,.22-2.66-.87-5.45-3.38-6.7-2.88-1.43-6.03,.23-7.66,2.71-1.26,1.9-1.83,4.22-2.32,6.42-.55,2.5-.73,4.92-.69,7.48,0,.25,.41,.25,.39,0h0Z"/>
          <path class="cls-17" d="M24,21.86c.02-.43,.07-.97-.06-1.38-.04-.12-.19-.09-.21,.03-.02,.22,.02,.45,.04,.68,.01,.23,.01,.45,0,.68,0,.14,.22,.14,.22,0h0Z"/>
          <path class="cls-17" d="M23.78,20.08s0,0,0,0,0,0,0,0h0Z"/>
          <path class="cls-17" d="M23.8,19.7c-.28-1.51-.6-3.1-1.15-4.53-.42-1.09-.69-2.3-1.42-3.24-.93-1.19-2.86-2.32-3.7-.41-.06,.14,.14,.27,.22,.13,.89-1.71,2.74-.3,3.45,.78,.45,.69,.62,1.49,.91,2.25,.66,1.66,.97,3.37,1.47,5.08,.04,.14,.24,.08,.21-.06h0Z"/>
          <path class="cls-17" d="M17.31,12.24c-.82,4.23,.89,7.83,4.04,10.62,.1,.09,.28-.03,.19-.15-1.06-1.39-2.42-2.48-3.2-4.09-.96-1.98-1.14-4.17-.82-6.33,.02-.13-.18-.19-.21-.06h0Z"/>
          <path class="cls-17" d="M33.77,22.28c.17-1.37,.37-2.74,.74-4.08,.37-1.35,1.05-2.5,1.59-3.77,.03-.06-.04-.13-.1-.08-1.88,1.94-2.22,5.37-2.52,7.92-.02,.19,.27,.18,.29,0h0Z"/>
          <path class="cls-17" d="M36.46,13.85c.09-.14,.16-.29,.16-.46,0-.13-.17-.13-.21-.03-.05,.12-.1,.24-.18,.35-.1,.14,.14,.28,.24,.14h0Z"/>
          <path class="cls-17" d="M37.5,12.73c.66-.84,2.46-2.01,2.87-.34,.31,1.22-.01,2.56-.37,3.73-.68,2.22-2.16,4.09-3.62,5.86-.11,.13,.07,.33,.19,.19,2.24-2.37,4.42-5.71,4.2-9.12-.05-.8-.22-1.85-1.19-1.92-.93-.07-1.81,.72-2.27,1.44-.07,.11,.1,.25,.18,.14h0Z"/>
          <path class="cls-17" d="M36.01,22.38c-.04,.07-.07,.13-.07,.21,0,.08,.09,.14,.16,.09,.07-.04,.1-.09,.14-.16,.09-.16-.15-.3-.24-.14h0Z"/>
          <ellipse class="cls-17" cx="24.24" cy="29.51" rx="1.7" ry="2.42"/>
          <ellipse class="cls-17" cx="32.15" cy="29.51" rx="1.7" ry="2.42"/>
          <path class="cls-17" d="M29.08,31.19c-.49-.1-1.09-.17-1.56,.03-.12,.05-.05,.25,.07,.25,.24,0,.49-.06,.73-.08,.25-.01,.49,0,.73,.03,.13,.02,.16-.2,.03-.23h0Z"/>
          <path class="cls-17" d="M27.41,31.39c.02,.27,.2,.51,.38,.71,.16,.17,.46,.35,.67,.18,.08-.07,.03-.19-.06-.22-.08-.03-.16,0-.24-.04-.09-.03-.17-.11-.23-.18-.12-.14-.26-.29-.28-.48-.02-.13-.25-.1-.23,.03h0Z"/>
          <path class="cls-17" d="M28.4,32.38c.26-.06,.52-.21,.7-.41,.14-.16,.32-.5,.17-.7-.06-.08-.17-.09-.22,0-.05,.08-.05,.16-.07,.25-.03,.11-.1,.2-.17,.28-.14,.15-.33,.23-.51,.33-.14,.08-.04,.29,.11,.25h0Z"/>
          <path class="cls-17" d="M28.18,33.86c-.38,.9-1.23,1.31-2.17,1.22-.33-.03-.64-.1-.94-.25-.53-.26-1.23-1.02-.41-1.53,.19-.12,.02-.39-.17-.29-1.17,.56-.27,1.87,.56,2.21,1.31,.53,2.9,.11,3.4-1.29,.06-.17-.2-.23-.27-.07h0Z"/>
          <path class="cls-17" d="M28.22,33.93c.49,1.4,2.09,1.82,3.4,1.29,.84-.34,1.74-1.65,.56-2.21-.2-.09-.36,.18-.17,.29,.7,.43,.26,1.15-.23,1.44-.34,.2-.73,.3-1.12,.33-.94,.08-1.79-.32-2.17-1.22-.07-.16-.33-.1-.27,.07h0Z"/>
          <path class="cls-17" d="M26.48,35.15c-.14,.62,.16,1.72,.73,2.09,.09,.06,.23-.06,.16-.16-.36-.5-.77-1.21-.65-1.86,.03-.15-.2-.22-.24-.07h0Z"/>
          <path class="cls-17" d="M27.36,37.33c.64,.25,1.31,.33,1.99,.16,.21-.05,.12-.37-.09-.33-.62,.12-1.23,.13-1.84-.05-.14-.04-.2,.17-.06,.22h0Z"/>
          <path class="cls-17" d="M29.38,37.46c.64-.36,1.04-1.41,1.09-2.11,.01-.21-.31-.21-.33,0-.05,.67-.44,1.44-.92,1.9-.12,.11,.03,.29,.17,.21h0Z"/>
          <path class="cls-17" d="M28.17,34.06c-.05,.39-.05,.8-.05,1.19,0,.18,.27,.18,.28,0,.02-.38,.05-.78,.02-1.15-.01-.13-.22-.18-.24-.03h0Z"/>
          <path class="cls-17" d="M28.15,35.53c0,.1,0,.15,.06,.22,.03,.03,.09,.03,.12,0,.06-.07,.06-.13,.06-.22,0-.16-.25-.16-.24,0h0Z"/>
          <path class="cls-17" d="M29.89,39.18c-.49,.28-1.03,.43-1.6,.38-.47-.04-.79-.27-1.21-.42-.09-.03-.15,.07-.11,.14,.2,.42,.8,.54,1.22,.59,.66,.07,1.28-.1,1.85-.44,.16-.1,.02-.35-.15-.26h0Z"/>
          <path class="cls-17" d="M18.36,32.85c-.43-.16-.86-.1-1.27,.09-.3,.14-.78,.36-.72,.75,.01,.08,.13,.1,.18,.05,.22-.22,.4-.4,.69-.53,.33-.15,.68-.21,1.04-.1,.17,.06,.24-.2,.07-.27h0Z"/>
          <path class="cls-17" d="M16.35,33.91c.06,.1,.15,.19,.27,.19,.06,0,.09-.07,.07-.12-.02-.05-.06-.09-.07-.14-.03-.26-.39-.11-.27,.07h0Z"/>
          <path class="cls-17" d="M16.94,34.33c.49,.12,1.05,.12,1.53-.06,.28-.11,.65-.42,.45-.74-.04-.06-.15-.08-.18,0-.08,.17-.08,.3-.28,.41-.12,.07-.29,.1-.43,.14-.34,.09-.68,.15-1.02,.02-.15-.05-.22,.2-.07,.24h0Z"/>
          <path class="cls-17" d="M18.92,33.25c0-.1-.05-.16-.14-.19-.12-.04-.21,.12-.12,.21,0,0,0-.01,0-.02,0,.17,.25,.17,.26,0h0Z"/>
          <path class="cls-17" d="M39.24,32.65c-.35-.13-.77-.12-1.14-.14-.31-.01-.66-.06-.89,.17-.07,.07,0,.16,.09,.15,.33-.05,.61-.06,.95-.04,.3,.02,.65,0,.93,.1,.15,.05,.21-.18,.07-.24h0Z"/>
          <path class="cls-17" d="M36.93,32.96c0,.12-.03,.24,.05,.33,.02,.02,.06,.03,.09,.01,.1-.07,.11-.2,.14-.31,.05-.19-.26-.24-.27-.04h0Z"/>
          <path class="cls-17" d="M37.09,33.63c.71,.28,1.32,.64,2.11,.41,.54-.16,.71-.45,.47-.97-.06-.12-.26-.03-.21,.09,.09,.24-.18,.56-.4,.64-.16,.06-.42,.06-.59,.04-.42-.03-.93-.18-1.28-.41-.13-.08-.24,.14-.09,.2h0Z"/>
          <path class="cls-17" d="M39.39,33.1c.17,0,.17-.26,0-.26s-.17,.26,0,.26h0Z"/>
          <path class="cls-17" d="M22.93,48.27c-1.35,1.65-2.84,3.52-3.12,5.7-.04,.31,.47,.37,.55,.07,.51-2.06,1.82-3.72,2.98-5.46,.16-.24-.22-.54-.4-.31h0Z"/>
          <path class="cls-17" d="M33.78,48.58c1.16,1.74,2.47,3.4,2.98,5.46,.07,.3,.59,.24,.55-.07-.28-2.18-1.77-4.05-3.12-5.7-.18-.22-.56,.07-.4,.31h0Z"/>
          <path class="cls-17" d="M9.12,28.1c.4,0,.84-.05,1.07-.43,.11-.19,.17-.42,.22-.63,.06-.24,.15-.52,.07-.76-.03-.08-.14-.1-.18-.02-.17,.29-.15,.7-.26,1.03-.08,.22-.18,.39-.41,.47-.16,.06-.36,.08-.53,.11-.13,.02-.1,.23,.03,.23h0Z"/>
          <path class="cls-17" d="M10.28,26.33c.02,.39-.01,.98,.26,1.29,.3,.35,.77,.33,1.19,.39,.08,.01,.15-.04,.13-.13-.07-.33-.63-.18-.85-.27-.49-.19-.45-.87-.56-1.31-.02-.09-.17-.08-.17,.02h0Z"/>
          <path class="cls-17" d="M9.14,28.1c.39,.12,.81,.29,.93,.71,.08,.28,.12,.63,.29,.88,.06,.09,.2,.06,.21-.06,.01-.23-.08-.45-.14-.67-.06-.2-.09-.46-.21-.63-.21-.28-.72-.43-1.04-.47-.14-.02-.16,.2-.03,.24h0Z"/>
          <path class="cls-17" d="M10.58,29.64c.1-.3,.19-.6,.3-.89,.14-.38,.35-.55,.77-.58,.2-.02,.2-.32,0-.31-.38,.03-.69,.11-.9,.45-.24,.37-.3,.86-.41,1.27-.04,.16,.19,.22,.24,.07h0Z"/>
          <g>
            <g>
              <path class="cls-17" d="M10.75,44.79c-.17,.8-.11,1.64-.83,2.19-.64,.5-1.38,.47-2.13,.66-.15,.04-.1,.24,.03,.25,.77,.07,1.7-.17,2.3-.67,.76-.62,.7-1.48,.85-2.37,.02-.15-.2-.22-.23-.06h0Z"/>
              <path class="cls-17" d="M10.75,44.86c.15,.89,.09,1.74,.85,2.37,.6,.49,1.54,.73,2.3,.67,.13-.01,.18-.21,.03-.25-.75-.18-1.48-.15-2.13-.66-.71-.56-.66-1.39-.83-2.19-.03-.15-.26-.09-.23,.06h0Z"/>
            </g>
            <g>
              <path class="cls-17" d="M10.98,50.73c.17-.8,.11-1.64,.83-2.19,.64-.5,1.38-.47,2.13-.66,.15-.04,.1-.24-.03-.25-.77-.07-1.7,.17-2.3,.67-.76,.62-.7,1.48-.85,2.37-.02,.15,.2,.22,.23,.06h0Z"/>
              <path class="cls-17" d="M10.98,50.67c-.15-.89-.09-1.74-.85-2.37-.6-.49-1.54-.73-2.3-.67-.13,.01-.18,.21-.03,.25,.75,.18,1.48,.15,2.13,.66,.71,.56,.66,1.39,.83,2.19,.03,.15,.26,.09,.23-.06h0Z"/>
            </g>
          </g>
          <g>
            <g>
              <path class="cls-17" d="M44.15,46.68c-.08,.34-.06,.7-.39,.92-.27,.18-.59,.12-.86,.26-.1,.05-.07,.2,.03,.23,.33,.11,.83-.07,1.08-.29,.34-.29,.32-.68,.37-1.09,.02-.14-.2-.16-.24-.03h0Z"/>
              <path class="cls-17" d="M44.14,46.71c.05,.41,.03,.8,.37,1.09,.25,.22,.76,.4,1.08,.29,.1-.03,.13-.18,.03-.23-.27-.14-.59-.08-.86-.26-.33-.22-.3-.58-.39-.92-.03-.13-.26-.1-.24,.03h0Z"/>
            </g>
            <g>
              <path class="cls-17" d="M44.38,49.26c.08-.34,.06-.7,.39-.92,.27-.18,.59-.12,.86-.26,.1-.05,.07-.2-.03-.23-.33-.11-.83,.07-1.08,.29-.34,.29-.32,.68-.37,1.09-.02,.14,.21,.16,.24,.03h0Z"/>
              <path class="cls-17" d="M44.38,49.23c-.05-.41-.03-.8-.37-1.09-.25-.22-.76-.4-1.08-.29-.1,.03-.13,.18-.03,.23,.27,.14,.59,.08,.86,.26,.33,.22,.3,.58,.39,.92,.03,.13,.26,.1,.24-.03h0Z"/>
            </g>
          </g>
          <g>
            <g>
              <path class="cls-17" d="M46.32,25.43c-.08,.34-.06,.7-.39,.92-.27,.18-.59,.12-.86,.26-.1,.05-.07,.2,.03,.23,.33,.11,.83-.07,1.08-.29,.34-.29,.32-.68,.37-1.09,.02-.14-.2-.16-.24-.03h0Z"/>
              <path class="cls-17" d="M46.32,25.46c.05,.41,.03,.8,.37,1.09,.25,.22,.76,.4,1.08,.29,.1-.03,.13-.18,.03-.23-.27-.14-.59-.08-.86-.26-.33-.22-.3-.58-.39-.92-.03-.13-.26-.1-.24,.03h0Z"/>
            </g>
            <g>
              <path class="cls-17" d="M46.55,28.01c.08-.34,.06-.7,.39-.92,.27-.18,.59-.12,.86-.26,.1-.05,.07-.2-.03-.23-.33-.11-.83,.07-1.08,.29-.34,.29-.32,.68-.37,1.09-.02,.14,.21,.16,.24,.03h0Z"/>
              <path class="cls-17" d="M46.56,27.98c-.05-.41-.03-.8-.37-1.09-.25-.22-.76-.4-1.08-.29-.1,.03-.13,.18-.03,.23,.27,.14,.59,.08,.86,.26,.33,.22,.3,.58,.39,.92,.03,.13,.26,.1,.24-.03h0Z"/>
            </g>
          </g>
          <path class="cls-17" d="M24.27,23.17c.33-.09,.69-.17,1.01-.04,.1,.04,.2,.11,.25,.21,.05,.1,.06,.23-.01,.32-.03,.04-.07,.06-.11,.09-.11,.06-.25,.09-.38,.08-.09,0-.18-.04-.26-.06-.34-.08-.71-.05-1.04,.08-.05,.02-.1,.05-.16,.05-.35,.03-.04-.33,.05-.41,.18-.17,.4-.26,.64-.33Z"/>
          <path class="cls-17" d="M32.61,23.17c-.33-.09-.69-.17-1.01-.04-.1,.04-.2,.11-.25,.21-.05,.1-.06,.23,.01,.32,.03,.04,.07,.06,.11,.09,.11,.06,.25,.09,.38,.08,.09,0,.18-.04,.26-.06,.34-.08,.71-.05,1.04,.08,.05,.02,.1,.05,.16,.05,.35,.03,.04-.33-.05-.41-.18-.17-.4-.26-.64-.33Z"/>
          <path class="cls-17" d="M15.21,25.09c-1.04-.93-2.07-1.87-3.12-2.79-.13-.11-.31,.07-.19,.19,1.03,.94,2.08,1.86,3.11,2.79,.13,.11,.32-.07,.19-.19h0Z"/>
          <path class="cls-17" d="M11.42,21.7c-.1-.1-.19-.22-.33-.26-.07-.02-.12,.05-.11,.11,.02,.13,.12,.24,.2,.34,.13,.18,.39-.03,.24-.18h0Z"/>
          <path class="cls-17" d="M10.73,21.18c-.09-.08-.16-.17-.25-.25-.09-.08-.18-.15-.27-.23-.18-.16-.34-.33-.52-.48-.11-.09-.25,.05-.16,.16,.16,.19,.36,.35,.55,.52,.09,.08,.18,.16,.27,.23,.1,.08,.19,.12,.29,.19,.07,.05,.16-.06,.09-.12h0Z"/>
          <path class="cls-17" d="M9.82,35.68c-.44-.05-1.02-.15-1.44,0-.09,.03-.11,.18,0,.2,.22,.04,.45,0,.68,0,.25,0,.51,.01,.76,.04,.16,.01,.16-.23,0-.25h0Z"/>
          <path class="cls-17" d="M7.67,35.91c.18,0,.18-.28,0-.28s-.18,.28,0,.28h0Z"/>
          <path class="cls-17" d="M9.94,40.05c-.33,.16-.66,.33-.98,.49-.28,.14-.61,.27-.81,.51-.08,.1,.02,.23,.14,.18,.6-.29,1.19-.65,1.79-.96,.15-.08,.02-.29-.13-.22h0Z"/>
          <path class="cls-17" d="M10.5,41.85s-.04,.05-.06,.08c-.11,.13,.06,.3,.19,.19,.03-.02,.05-.04,.08-.06,.14-.12-.08-.34-.2-.2h0Z"/>
          <path class="cls-17" d="M18.3,49.08c-.62,.88-1.66,1.71-2.01,2.75-.03,.1,.11,.19,.18,.11,.37-.45,.68-.96,1.05-1.42,.35-.43,.68-.85,.96-1.33,.07-.12-.11-.22-.19-.11h0Z"/>
          <path class="cls-17" d="M15.69,52.66c-.06,.07-.12,.13-.15,.22-.02,.09,.06,.17,.15,.15,.09-.03,.15-.09,.22-.15,.16-.13-.09-.38-.22-.22h0Z"/>
          <path class="cls-17" d="M38.27,48.82c.8,.96,1.5,2.03,2.35,2.95,.1,.11,.27-.03,.2-.16-.63-1.07-1.56-2.04-2.39-2.96-.1-.11-.25,.05-.16,.16h0Z"/>
          <path class="cls-17" d="M41.32,52.46c.19,0,.19-.3,0-.3s-.19,.3,0,.3h0Z"/>
          <path class="cls-17" d="M41.04,48.01c.13,.08,.24,.23,.39,.27,.09,.02,.15-.06,.14-.14-.03-.17-.25-.3-.39-.38-.16-.09-.29,.15-.14,.24h0Z"/>
          <path class="cls-17" d="M41.67,24.66c.49-.55,.99-1.11,1.48-1.66,.44-.5,.95-.98,1.3-1.54,.08-.13-.09-.24-.2-.15-.53,.44-.97,1.03-1.42,1.55-.46,.53-.92,1.05-1.39,1.58-.13,.15,.09,.38,.22,.22h0Z"/>
          <path class="cls-17" d="M45.1,20.78c.18,0,.18-.28,0-.28s-.18,.28,0,.28h0Z"/>
          <path class="cls-17" d="M43.17,25.58c.22-.11,.42-.28,.62-.43,.18-.13,.37-.24,.5-.42,.06-.09-.04-.21-.14-.18-.22,.07-.4,.25-.59,.38-.19,.14-.39,.27-.56,.44-.11,.11,.03,.27,.16,.21h0Z"/>
          <path class="cls-17" d="M45.18,24.05c.08-.05,.15-.09,.2-.17,.04-.07-.01-.18-.1-.18-.1,0-.17,.05-.25,.1-.16,.1-.01,.35,.15,.25h0Z"/>
          <path class="cls-17" d="M46.41,38.74c.16,0,.32,0,.48,.01,.14,0,.29,.02,.41-.06,.08-.05,.08-.16,0-.21-.12-.08-.27-.06-.41-.06-.16,0-.32,0-.48,.01-.19,0-.19,.3,0,.3h0Z"/>
          <path class="cls-17" d="M47.91,38.75s.03-.01,.04-.02c.07-.03,.07-.15,0-.18-.01,0-.03-.01-.04-.02-.23-.1-.23,.31,0,.21h0Z"/>
          <g>
            <path class="cls-4" d="M23.26,28.18c-.15,.24-.24,.52-.26,.8,0,.05,0,.1,.03,.13,.02,.03,.06,.04,.1,.05,.22,.05,.47-.03,.62-.2,.06-.07,.11-.16,.15-.25,.12-.26,.19-.55,.11-.83-.02-.07-.06-.14-.12-.15-.3-.08-.5,.23-.64,.44Z"/>
            <path class="cls-2" d="M25.1,29.54c-.05,.06-.08,.13-.1,.2-.11,.32-.15,.69-.39,.93-.17,.16-.42,.24-.65,.19-.09-.02-.18-.06-.27-.04-.18,.03-.25,.27-.18,.43,.08,.16,.25,.25,.43,.29,.38,.09,.81-.02,1.1-.28,.3-.27,.45-.68,.56-1.07,.05-.17,.14-.51,.03-.68-.11-.17-.43-.11-.54,.02Z"/>
            <path class="cls-6" d="M25.22,30.04c-.11,0-.24,.05-.25,.16-.01,.09,.06,.18,.14,.22-.06,0-.12,0-.17,.03-.02,.01-.04,.03-.05,.05-.01,.03,0,.06,0,.09,0,.08-.09,.13-.16,.16-.07,.03-.14,.07-.15,.15-.02,.08,.05,.15,.12,.19,.07,.04,.14,.06,.22,.05,.07,0,.15-.06,.18-.12,.03-.07,0-.16-.06-.2,.08,.02,.18-.02,.22-.09,.04-.08,.03-.18-.03-.24,.12-.03,.17-.09,.26-.17,.07-.06,.13-.15,0-.19-.03-.01-.02-.04-.06-.04-.07,0-.13-.04-.21-.04Z"/>
            <path class="cls-6" d="M24.22,31.11s-.1-.04-.15-.04c-.02,0-.04,0-.06,0-.03,.01-.05,.03-.06,.06-.04,.07-.04,.16,0,.22,.05,.06,.15,.07,.21,.02,.05-.05,.05-.14,.05-.21"/>
            <path class="cls-1" d="M24.14,27.81c.09,.2,.05,.43,0,.64-.07,.25-.17,.5-.36,.67-.19,.18-.48,.26-.71,.15-.17,.49-.02,1.02,.13,1.51,.16-.57,.5-1.08,.96-1.45,.4-.32,.92-.54,1.41-.41,.04-.24-.03-.49-.13-.71-.15-.33-.39-.64-.73-.78-.2-.09-.5-.13-.71-.03-.32,.15,.05,.21,.14,.4Z"/>
          </g>
          <g>
            <path class="cls-4" d="M31.08,28.13c-.15,.24-.24,.52-.26,.8,0,.05,0,.1,.03,.13,.02,.03,.06,.04,.1,.05,.22,.05,.47-.03,.62-.2,.06-.07,.11-.16,.15-.25,.12-.26,.19-.55,.11-.83-.02-.07-.06-.14-.12-.15-.3-.08-.5,.23-.64,.44Z"/>
            <path class="cls-2" d="M32.92,29.49c-.05,.06-.08,.13-.1,.2-.11,.32-.15,.69-.39,.93-.17,.16-.42,.24-.65,.19-.09-.02-.18-.06-.27-.04-.18,.03-.25,.27-.18,.43,.08,.16,.25,.25,.43,.29,.38,.09,.81-.02,1.1-.28,.3-.27,.45-.68,.56-1.07,.05-.17,.14-.51,.03-.68-.11-.17-.43-.11-.54,.02Z"/>
            <path class="cls-6" d="M33.04,29.99c-.11,0-.24,.05-.25,.16-.01,.09,.06,.18,.14,.22-.06,0-.12,0-.17,.03-.02,.01-.04,.03-.05,.05-.01,.03,0,.06,0,.09,0,.08-.09,.13-.16,.16-.07,.03-.14,.07-.15,.15-.02,.08,.05,.15,.12,.19,.07,.04,.14,.06,.22,.05s.15-.06,.18-.12c.03-.07,0-.16-.06-.2,.08,.02,.18-.02,.22-.09,.04-.08,.03-.18-.03-.24,.12-.03,.17-.09,.26-.17,.07-.06,.13-.15,0-.19-.03-.01-.02-.04-.06-.04-.07,0-.13-.04-.21-.04Z"/>
            <path class="cls-6" d="M32.04,31.06s-.1-.04-.15-.04c-.02,0-.04,0-.06,0-.03,.01-.05,.03-.06,.06-.04,.07-.04,.16,0,.22,.05,.06,.15,.07,.21,.02,.05-.05,.05-.14,.05-.21"/>
            <path class="cls-1" d="M31.95,27.76c.09,.2,.05,.43,0,.64-.07,.25-.17,.5-.36,.67-.19,.18-.48,.26-.71,.15-.17,.49-.02,1.02,.13,1.51,.16-.57,.5-1.08,.96-1.45,.4-.32,.92-.54,1.41-.41,.04-.24-.03-.49-.13-.71-.15-.33-.39-.64-.73-.78-.2-.09-.5-.13-.71-.03-.32,.15,.05,.21,.14,.4Z"/>
          </g>
          <path class="cls-1" d="M13.23,37.96s3.66,7.28,15.13,7.28,15.08-4.36,15.82-6.6c0,0-.07,9.82-15.93,9.53-15.87-.29-15.03-10.22-15.03-10.22Z"/>
          <path class="cls-1" d="M28.51,45.95c-2.33-.09-4.64-.52-6.9-1.1,2.23,1.58,5.05,2.16,7.78,2.07,1.18-.04,2.36-.2,3.48-.54,.86-.26,2.24-.68,2.83-1.41-.31-.01-.67,.17-.97,.27-.62,.2-1.27,.34-1.91,.45-1.43,.25-2.88,.32-4.32,.27Z"/>
          <path class="cls-2" d="M27.69,30.31c-.07,.16-.08,.34-.09,.52,.37,.04,.74,0,1.11-.05,.03,0,.07,0,.09-.02,.28-.14,.01-.72-.2-.82-.33-.15-.78,.04-.91,.37Z"/>
          <path class="cls-1" d="M13.11,33.58c.16,.11,.34,.27,.3,.46-.12,.04-.25-.03-.36-.11-.14-.1-.28-.2-.42-.3-.13-.09-.45-.28-.23-.4,.2-.12,.56,.25,.7,.35Z"/>
          <path class="cls-1" d="M44.22,33.63c-.04,.06-.06,.14-.02,.2,.09,.13,.77-.15,.73-.36-.05-.34-.61,.02-.71,.16Z"/>
          <g>
            <path class="cls-1" d="M22.63,19.76c-1.25,.58-2.65,.77-4.02,.83-.27,.01-.55,.02-.82,0-.47-.05-.92-.21-1.36-.37,.58,1.41,1.74,2.49,2.87,3.51,.51-.46,1.12-.77,1.73-1.08,.41-.21,.82-.41,1.23-.62,.34-.17,.68-.34,1.04-.47,.37-.13,.75-.22,1.14-.31,.38-.08,.75-.17,1.13-.25,.2-1.28,.21-2.6,0-3.88-.1-.65-.35,.12-.45,.33-.17,.35-.4,.68-.65,.97-.51,.58-1.15,1.03-1.84,1.36Z"/>
            <path class="cls-1" d="M20.02,11.45c-.27-.19-.59-.32-.92-.34-.33-.02-.68,.09-.9,.34-.17,.18-.26,.42-.34,.65-.37,1.15-.44,2.39-.19,3.57,.03-.51,.07-1.03,.24-1.52,.17-.49,.47-.95,.92-1.2,.47-.26,1.06-.27,1.57-.08,.51,.19,.92,.54,1.27,.95-.51-.84-.8-1.78-1.65-2.37Z"/>
            <path class="cls-2" d="M18.12,5.34c-.22-.03-.45-.05-.67-.02-.23,.02-.45,.09-.66,.18-.88,.36-1.59,1.08-2.06,1.9-.47,.83-.72,1.77-.87,2.71-.03,.18-.05,.36-.01,.54,.04,.18,.15,.35,.32,.41,.18,.06,.37,0,.53-.09,.93-.54,1.11-1.82,1.88-2.58,.43-.43,1.04-.66,1.64-.71,.61-.05,1.22,.06,1.8,.26,.26,.09,.51,.19,.78,.2,.27,0,.56-.09,.7-.33,.4-.71-.57-1.34-1.05-1.65-.7-.44-1.51-.7-2.32-.8Z"/>
            <path class="cls-1" d="M21.36,22.07s.04,.04,.06,.05c.02,0,.04,0,.06-.01l1.75-.69c.05-.02,.11-.05,.14-.1,.03-.04,.03-.1,.03-.15,0-.44-.02-.88-.08-1.31-.19,.53-.44,1.1-.95,1.33-.2,.08-.41,.11-.62,.11-.46,0-.85-.14-1.28-.24,.24,.37,.59,.69,.88,1.03Z"/>
          </g>
          <g>
            <path class="cls-1" d="M34.7,19.82c1.25,.58,2.65,.77,4.02,.83,.27,.01,.55,.02,.82,0,.47-.05,.92-.21,1.36-.37-.58,1.41-1.74,2.49-2.87,3.51-.51-.46-1.12-.77-1.73-1.08-.41-.21-.82-.41-1.23-.62-.34-.17-.68-.34-1.04-.47-.37-.13-.75-.22-1.14-.31-.38-.08-.75-.17-1.13-.25-.2-1.28-.21-2.6,0-3.88,.1-.65,.35,.12,.45,.33,.17,.35,.4,.68,.65,.97,.51,.58,1.15,1.03,1.84,1.36Z"/>
            <path class="cls-1" d="M37.31,11.5c.27-.19,.59-.32,.92-.34,.33-.02,.68,.09,.9,.34,.17,.18,.26,.42,.34,.65,.37,1.15,.44,2.39,.19,3.57-.03-.51-.07-1.03-.24-1.52-.17-.49-.47-.95-.92-1.2-.47-.26-1.06-.27-1.57-.08-.51,.19-.92,.54-1.27,.95,.51-.84,.8-1.78,1.65-2.37Z"/>
            <path class="cls-2" d="M39.21,5.39c.22-.03,.45-.05,.67-.02,.23,.02,.45,.09,.66,.18,.88,.36,1.59,1.08,2.06,1.9,.47,.83,.72,1.77,.87,2.71,.03,.18,.05,.36,.01,.54-.04,.18-.15,.35-.32,.41-.18,.06-.37,0-.53-.09-.93-.54-1.11-1.82-1.88-2.58-.43-.43-1.04-.66-1.64-.71-.61-.05-1.22,.06-1.8,.26-.26,.09-.51,.19-.78,.2-.27,0-.57-.09-.7-.33-.4-.71,.57-1.34,1.05-1.65,.7-.44,1.51-.7,2.32-.8Z"/>
            <path class="cls-1" d="M35.97,22.12s-.04,.04-.06,.05c-.02,0-.04,0-.06-.01-.58-.23-1.17-.46-1.75-.69-.05-.02-.11-.05-.14-.1-.03-.04-.03-.1-.03-.15,0-.44,.02-.88,.08-1.31,.19,.53,.44,1.1,.95,1.33,.2,.08,.41,.11,.62,.11,.46,0,.85-.14,1.28-.24-.24,.37-.59,.69-.88,1.03Z"/>
          </g>
          <path class="cls-1" d="M26.12,35.65c.06,0,.12,.01,.17,.05,.04,.03,.06,.08,.07,.13,.11,.34,.16,.71,.38,.98,.09,.11,.21,.23,.16,.36-.31-.18-.51-.51-.79-.75-.35-.29-.81-.42-1.17-.69-.26-.2-.61-.59-.61-.94,.51,.46,1.1,.78,1.79,.86Z"/>
          <path class="cls-1" d="M30.57,35.64c-.14,.52-.36,1.01-.65,1.47,.45-.18,.84-.49,1.13-.88,.04-.06,.08-.12,.14-.16,.06-.05,.13-.08,.2-.11,.27-.12,.52-.29,.75-.49,.11-.1,.53-.57,.13-.46-.27,.08-.55,.32-.83,.43-.09,.03-.86,.19-.87,.21Z"/>
          <path class="cls-1" d="M28.45,39.65c-.52-.07-1.04-.19-1.54-.38-.01,.16,.05,.31,.13,.45,.34,.58,.97,1,1.64,1.02,.51,.01,1.53-.41,1.53-1.05,0-.37-.41-.27-.64-.17-.37,.15-.72,.18-1.12,.13Z"/>
          <path class="cls-1" d="M23.35,49.23s.07-.1,.12-.13c.11-.07,.26-.03,.39,0,1.47,.45,3.02,.51,4.55,.56,.58,.02,1.17,.04,1.75,0,1.1-.06,2.17-.32,3.26-.46,.09-.01,.19-.02,.28,0,.12,.04,.19,.15,.26,.25,.35,.51,.65,1.05,.92,1.61-1.9-.3-3.83-.32-5.75-.38-1.21-.04-2.42-.1-3.63,.04-1.49,.16-2.78,.7-4.12,1.33,.16-.46,.59-.88,.87-1.28,.37-.52,.74-1.04,1.11-1.56Z"/>
        </g>
      </g>
    </g>
  </g>
</svg>