<?xml version="1.0" encoding="UTF-8"?>
<svg xmlns="http://www.w3.org/2000/svg" xmlns:xlink="http://www.w3.org/1999/xlink" viewBox="0 0 64 64">
  <defs>
    <style>
      .cls-1 {
        fill: #231f20;
      }

      .cls-1, .cls-2 {
        mix-blend-mode: soft-light;
      }

      .cls-3 {
        fill: url(#linear-gradient-2);
      }

      .cls-4, .cls-5, .cls-2 {
        fill: #fff;
      }

      .cls-6 {
        fill: #fddfb3;
        opacity: .3;
      }

      .cls-6, .cls-7 {
        mix-blend-mode: multiply;
      }

      .cls-8 {
        fill: #8c8587;
      }

      .cls-8, .cls-9, .cls-10 {
        mix-blend-mode: overlay;
      }

      .cls-9, .cls-5 {
        opacity: .5;
      }

      .cls-9, .cls-7 {
        fill: #fdd08c;
      }

      .cls-11 {
        isolation: isolate;
      }

      .cls-12 {
        fill: #ffb2e7;
      }

      .cls-13, .cls-14 {
        fill: #2b2829;
      }

      .cls-13, .cls-15 {
        mix-blend-mode: screen;
      }

      .cls-16 {
        fill: #dcc2a7;
      }

      .cls-17 {
        fill: #f9c4eb;
      }

      .cls-18 {
        fill: #efcaf4;
      }

      .cls-19 {
        clip-path: url(#clippath);
      }

      .cls-20 {
        fill: none;
      }

      .cls-21 {
        fill: #f26776;
      }

      .cls-22 {
        fill: #c07c7e;
      }

      .cls-23 {
        fill: #86f3f9;
      }

      .cls-24 {
        fill: url(#linear-gradient);
      }

      .cls-25 {
        fill: #823421;
      }

      .cls-10 {
        fill: #998a8e;
      }
    </style>
    <linearGradient id="linear-gradient" x1="64" y1="34.03" x2="5.45" y2="34.03" gradientUnits="userSpaceOnUse">
      <stop offset="0" stop-color="#cf965b"/>
      <stop offset=".25" stop-color="#ca9257"/>
      <stop offset=".51" stop-color="#be864c"/>
      <stop offset=".78" stop-color="#a9733a"/>
      <stop offset="1" stop-color="#925d26"/>
    </linearGradient>
    <linearGradient id="linear-gradient-2" x1="61.28" y1="31.49" x2="1.36" y2="31.49" gradientUnits="userSpaceOnUse">
      <stop offset="0" stop-color="#e8b886"/>
      <stop offset=".25" stop-color="#e3b482"/>
      <stop offset=".5" stop-color="#d7a877"/>
      <stop offset=".76" stop-color="#c29464"/>
      <stop offset="1" stop-color="#a97c4e"/>
    </linearGradient>
    <clipPath id="clippath">
      <rect id="SVGID" class="cls-20" x="2.98" y="6.35" width="51.4" height="43.74" transform="translate(.11 -.11) rotate(.22)"/>
    </clipPath>
  </defs>
  <g class="cls-11">
    <g id="_Слой_2" data-name="Слой 2">
      <g id="_Слой_1-2" data-name="Слой 1">
        <g>
          <g>
            <path class="cls-24" d="M60.49,6.68c-1.75-1.6-4.41-2.62-7.38-2.62H14.98c-5.26,0-9.53,3.19-9.53,7.11V55.87c0,2.22,1.37,4.2,3.51,5.51,1.75,1.6,4.41,2.62,7.38,2.62H54.47c5.26,0,9.53-3.19,9.53-7.11V12.19c0-2.22-1.37-4.2-3.51-5.51Z"/>
            <path class="cls-3" d="M57.77,4.65c-.41-.37-.86-.71-1.36-1.02-1.75-1.6-4.41-2.62-7.38-2.62H10.89C5.64,1.02,1.36,4.21,1.36,8.13V52.83c0,2.22,1.37,4.2,3.51,5.51,.41,.37,.86,.71,1.36,1.02,1.75,1.6,4.41,2.62,7.38,2.62H51.74c5.26,0,9.53-3.19,9.53-7.11V10.16c0-2.22-1.37-4.2-3.51-5.51Z"/>
            <path class="cls-16" d="M47.66,0H9.53C4.28,0,0,3.19,0,7.11V51.81c0,3.92,4.28,7.11,9.53,7.11H47.66c5.26,0,9.53-3.19,9.53-7.11V7.11c0-3.92-4.28-7.11-9.53-7.11Z"/>
          </g>
          <path class="cls-10" d="M5.89,14.33c-.01-2.85,.17-6.06,2.96-8,2.12-1.47,5.21-1.81,8.09-1.99,6.68-.42,13.42-.36,20.09,.18,3.3,.26,6.79,.71,9.28,2.36,3.69,2.45,3.93,6.61,3.9,10.29-.08,9.24-.15,18.48-.23,27.72-.02,2.2-.08,4.51-1.54,6.42-1.54,2-4.45,3.25-7.46,3.8s-6.15,.48-9.24,.41c-5.15-.12-10.31-.24-15.43-.71-2.79-.26-9.22-.18-10.19-2.65-.66-1.68-.07-4.15-.07-5.9,0-2.02-.02-4.03-.03-6.05-.02-4.03-.04-8.06-.06-12.1-.02-4.59-.04-9.18-.07-13.78Z"/>
          <path class="cls-10" d="M20.65,20.31c-3.25-.39-6.54-1.19-8.94-2.87-2.39-1.69-3.67-4.43-2.38-6.69,.89-1.57,2.87-2.69,5.01-3.3,2.14-.61,4.45-.77,6.74-.89,5.74-.3,11.52-.39,17.22,.17,2.22,.22,4.55,.57,6.21,1.7,2.93,1.99,2.55,5.66,.4,8.14-5.33,6.17-16.02,4.75-24.26,3.75Z"/>
          <path class="cls-13" d="M9.75,46.11c-.57-1.77-.49-3.61-.4-5.43,.37-7.55,.74-15.09,1.11-22.64,.14-2.75,.39-5.74,2.81-7.82,2.2-1.89,5.7-2.58,9.03-2.93,4.04-.42,8.14-.47,12.2-.14,3.7,.3,7.69,1.06,9.9,3.3,1.87,1.9,2.03,4.41,2.12,6.77,.33,9.07,.66,18.2-1.13,27.18-.4,1.99-1,4.12-2.97,5.5-2.25,1.58-5.63,1.75-8.72,1.75-5.06,0-10.12-.25-15.13-.73-4.65-.45-7.58-.99-8.81-4.8Z"/>
          <path class="cls-7" d="M47.66,1.02h-1.63c4.51,0,8.17,2.73,8.17,6.1V51.81c0,3.37-3.66,6.1-8.17,6.1h1.63c4.51,0,8.17-2.73,8.17-6.1V7.11c0-3.37-3.66-6.1-8.17-6.1Z"/>
          <path class="cls-9" d="M44.83,56.21c2.15-.26,4.29-1.07,5.39-2.47,.86-1.09,1-2.4,1.05-3.66,.05-1.24,.02-2.47-.08-3.71-.07-.81-.31-1.78-1.32-2.08-.75-.23-1.65,.04-2.16,.52-.51,.47-.69,1.1-.74,1.7-.11,1.25,.25,2.52-.08,3.75-.39,1.42-1.68,2.63-3.23,3.51-1.13,.64-4.12,1.25-4.5,2.21,1.43,.58,4.04,.42,5.67,.23Z"/>
          <path class="cls-8" d="M3.88,2.71c-1.55,1.11-2.52,2.67-2.52,4.4v26.08c12.35-3.44,32.73-4.39,54.47,14.33v-14.97C26.86,28.05,11.39,13.17,3.88,2.71Z"/>
          <path class="cls-5" d="M3.58,9.23c.26-1.79,1.27-3.6,3.21-4.67,2.66-1.47,6.31-1.25,9.61-.96,1.02,.09,2.32,.39,2.36,1.15,.03,.67-.97,1.08-1.84,1.21-2.2,.34-4.63-.04-6.59,.77-1.42,.58-2.33,1.69-2.8,2.85s-.56,2.38-.73,3.58c-.07,.46-.15,.93-.44,1.34-1.08,1.49-2.05,.48-2.43-.37-.6-1.35-.53-3.5-.32-4.91Z"/>
          <g class="cls-15">
            <ellipse class="cls-14" cx="32.66" cy="10.91" rx="4.07" ry="3.03"/>
            <path class="cls-14" d="M43.37,11.71c.45,.84-.09,1.78-1.21,2.12-1.12,.34-2.39-.07-2.84-.91-.45-.84,.09-1.78,1.21-2.12,1.12-.34,2.39,.07,2.84,.91Z"/>
            <path class="cls-14" d="M40.11,16.13c.37,.7-.08,1.49-1.01,1.77-.93,.28-1.99-.06-2.37-.76-.37-.7,.08-1.49,1.01-1.77,.93-.28,1.99,.06,2.37,.76Z"/>
          </g>
          <g class="cls-15">
            <path class="cls-14" d="M23.64,45.38c.8,1.49-.17,3.17-2.16,3.77-1.99,.6-4.25-.13-5.05-1.61-.8-1.49,.17-3.17,2.16-3.77,1.99-.6,4.25,.13,5.05,1.61Z"/>
            <path class="cls-14" d="M20.79,40.39c.22,.41-.05,.87-.59,1.03-.54,.16-1.16-.03-1.38-.44-.22-.41,.05-.87,.59-1.03,.54-.16,1.16,.03,1.38,.44Z"/>
            <path class="cls-14" d="M15.3,41.5c.45,.84-.09,1.78-1.21,2.12-1.12,.34-2.39-.07-2.84-.91-.45-.84,.09-1.78,1.21-2.12,1.12-.34,2.39,.07,2.84,.91Z"/>
          </g>
          <path class="cls-6" d="M51.02,35.95c.79,1.47-.17,3.15-2.14,3.74-1.98,.59-4.22-.12-5.01-1.6-.79-1.47,.17-3.15,2.14-3.74,1.98-.59,4.22,.12,5.01,1.6Z"/>
          <path class="cls-6" d="M53.92,29.6c.58,1.08-.12,2.3-1.57,2.74-1.45,.43-3.09-.09-3.67-1.17-.58-1.08,.12-2.3,1.57-2.74,1.45-.43,3.09,.09,3.67,1.17Z"/>
          <path class="cls-6" d="M45.56,30.99c.37,.7-.08,1.49-1.01,1.77-.93,.28-1.99-.06-2.37-.76-.37-.7,.08-1.49,1.01-1.77,.93-.28,1.99,.06,2.37,.76Z"/>
          <path class="cls-6" d="M10.65,25.55c.41,.75-.09,1.61-1.1,1.92-1.01,.3-2.16-.06-2.57-.82-.41-.75,.09-1.61,1.1-1.92,1.01-.3,2.16,.06,2.57,.82Z"/>
          <path class="cls-6" d="M11.29,21.09c.21,.39-.04,.84-.57,1-.53,.16-1.13-.03-1.34-.43-.21-.39,.04-.84,.57-1,.53-.16,1.13,.03,1.34,.43Z"/>
          <path class="cls-6" d="M6.59,20.15c.34,.63-.07,1.34-.91,1.59-.84,.25-1.79-.05-2.13-.68-.34-.63,.07-1.34,.91-1.59,.84-.25,1.79,.05,2.13,.68Z"/>
        </g>
      </g>
      <g id="_Слой_8" data-name="Слой 8">
        <g class="cls-19">
          <g>
            <path class="cls-17" d="M20.01,46.71c-1.06,1.11-2.07,2.48-2,4.01,.15,.06,.31,.08,.47,.05l24.99,.1c-.43-1.34-1-2.64-1.6-3.91-.3-.63-.61-1.25-1.05-1.78-.51-.63-1.16-1.12-1.84-1.57-2.2-1.45-4.75-2.43-7.38-2.59-4.64-.27-8.5,2.47-11.58,5.68Z"/>
            <path class="cls-18" d="M41.65,12.91c1.81,.97,3.23,2.98,2.85,5-.03,.16-.07,.32-.18,.44-.13,.14-.33,.2-.52,.23-1.53,.29-3.14-.16-4.49-.95s-2.46-1.92-3.51-3.08c-.18-.2-.37-.41-.46-.67-.44-1.23,1.31-1.68,2.16-1.77,1.42-.15,2.88,.13,4.14,.8Z"/>
            <path class="cls-18" d="M18.41,13.68c-.64,.08-1.29,.17-1.9,.37-.52,.17-1,.42-1.48,.68-3.77,2.08-7.04,5.2-8.89,9.08-1.33,2.79-1.9,5.88-2.15,8.96-.16,1.88-.19,3.81,.33,5.62,.52,1.81,1.67,3.52,3.38,4.34,.88,.42,1.87,.59,2.85,.66,.58,.04,1.17,.06,1.73-.11,.71-.22,1.31-.71,1.8-1.28,.42-.48,.78-1.08,.73-1.71-.03-.35-.17-.67-.31-.99-1.72-4.08-1.76-8.84-.11-12.94,1.61-4,4.68-7.23,7.88-10.1,.65-.58,2.22-2.21,.72-2.74-1.32-.47-3.24,0-4.58,.17Z"/>
            <path class="cls-17" d="M13.28,23.87c-.48,1.04-.92,2.19-1.87,2.83-.56,.37-1.23,.53-1.82,.85s-1.12,.93-1.02,1.59c.11,.66,1.18,1,1.46,.39-.26,1.03-.53,2.07-.79,3.1,.6,.27,1.28,.35,1.93,.23-.5,2.74,1.44,5.35,3.64,7.06,3.36,2.61,7.55,4.04,11.78,4.54,4.23,.5,8.52,.13,12.73-.58,1.25-.21,2.5-.45,3.66-.96,2.02-.89,3.62-2.55,4.8-4.41,1.18-1.86,1.99-3.93,2.79-5.99,.6,.12,1.17-.43,1.29-1.04,.12-.6-.08-1.22-.27-1.8,.47-.28,1-.65,1.03-1.19,.03-.5-.38-.92-.82-1.14-.45-.22-.95-.3-1.39-.52-1.18-.57-1.73-1.92-2.28-3.11-1.93-4.19-5.1-7.88-9.19-10.01-7.48-3.89-16.47-1.27-22,4.71-1.48,1.61-2.72,3.44-3.63,5.43Z"/>
            <path class="cls-12" d="M27.56,44.93c.68-.78,1.45-1.55,2.44-1.83,.35-.1,.72-.14,1.08-.15,.25,0,.5,0,.74,.07,.63,.18,1.11,.73,1.34,1.34,.23,.61,.26,1.28,.24,1.94-.03,1.25-.21,2.49-.52,3.7-.08,.31-.18,.65-.43,.86-.29,.24-.7,.27-1.08,.27-2.14,.05-4.28,.09-6.42,.14-.31,0-1.08,.13-1.26-.23-.13-.28,.21-.67,.34-.9,.48-.87,.95-1.74,1.51-2.57,.62-.92,1.29-1.81,2.02-2.64Z"/>
            <path class="cls-12" d="M46.3,48.12c-.6-1.46-1.25-2.99-2.49-3.96-.78-.61-1.76-.96-2.76-.98-.3,0-.6,.02-.89,.12-.66,.24-1.12,.87-1.32,1.55-.2,.68-.17,1.4-.12,2.1,.1,1.5,.3,3.12,1.29,4.26l6.68,.03c.08-1.17,.06-1.99-.39-3.11Z"/>
            <path class="cls-22" d="M32.04,30.57c-.55,1.17-.54,2.7,.36,3.63,.1-.65,.53-1.23,1.07-1.6,.54-.38,1.19-.57,1.84-.69,.69-.13,1.41-.17,2.09,0,.68,.17,1.32,.58,1.67,1.19,.49-.84,.47-1.92,.1-2.83s-1.04-1.66-1.78-2.3c-.02,.55-.34,1.09-.82,1.37-.48,.28-1.1,.29-1.59,.04-.05-.03-.1-.06-.13-.11-.04-.06-.04-.14-.04-.21,0-.32,.11-.93-.29-1.06-.35-.11-.71,.35-.93,.56-.62,.58-1.18,1.23-1.55,2Z"/>
            <path class="cls-4" d="M34.92,28.46l.29,.73c.02,.05,.04,.11,.09,.15,.05,.04,.12,.05,.19,.06,.38,.04,.76,.04,1.15,.02,.1,0,.2-.01,.28-.06,.1-.06,.16-.17,.22-.28,.2-.37,.4-.79,.3-1.2-.16-.66-.91-1.7-1.63-1.32-.82,.43-1.26,.99-.88,1.9Z"/>
            <path class="cls-21" d="M38.48,32.34c-.31-.19-.67-.26-1.03-.32-.57-.09-1.15-.14-1.73-.09-1.14,.11-2.23,.65-3,1.49-.12,.13-.24,.27-.29,.44-.08,.27,.02,.57,.17,.8,.57,.9,1.76,1.18,2.82,1.22,.42,.01,.85,0,1.26-.09,1.16-.27,3.52-2.42,1.8-3.45Z"/>
            <path class="cls-21" d="M34.88,22.63c-.06,.03-.11,.07-.14,.13-.04,.11,.05,.23,.13,.31,.21,.21,.42,.42,.67,.59,.25,.16,.55,.27,.84,.24,.31-.03,.59-.19,.79-.42,1.34-1.53-1.53-1.3-2.3-.85Z"/>
            <path class="cls-23" d="M29.72,25.85c-.04,1.08-.47,2.11-.95,3.09-.48,.97-1.01,1.94-1.27,2.99-.1,.4-.15,.82-.04,1.22,.08,.27,.23,.52,.39,.76,.96,1.46,2.23,2.95,2.11,4.7-.13,2.09-2.18,3.58-2.66,5.62-.04,.16-.07,.33-.19,.44-.13,.12-.33,.12-.5,.11-1.6-.08-3.1-.8-4.54-1.51-.25-.7-.15-1.51,.25-2.13,.19-.29,.44-.55,.64-.83,.38-.55,.56-1.21,.73-1.86,.11-.42,.22-.86,.12-1.29-.17-.73-.89-1.17-1.37-1.75-.83-.98-.96-2.44-.49-3.64,.45-1.16,1.38-2.07,2.05-3.13,.66-1.06,1.03-2.5,.31-3.52-.15-.21-.35-.42-.33-.68,.03-.35,.43-.51,.76-.6,.96-.26,2.7-.97,3.69-.7,.98,.27,1.32,1.88,1.3,2.73Z"/>
            <path class="cls-23" d="M41.29,27.92c.65,.97,1.72,1.65,2.17,2.73,.34,.82,.26,1.76-.03,2.6-.29,.84-.78,1.59-1.27,2.33-.18,.27-.36,.55-.47,.85-.23,.66-.08,1.4,.18,2.05,.27,.65,.65,1.25,.91,1.89,.33,.81,.48,1.71,.42,2.59,.83-.11,1.64-.37,2.38-.75,.56-.29,1.15-.77,1.1-1.39-.02-.27-.16-.52-.3-.76-.23-.39-.46-.79-.68-1.18-.31-.54-.63-1.1-.73-1.71-.17-1.14,.45-2.23,1.03-3.22,.58-.99,1.18-2.1,.95-3.23-.15-.75-.65-1.39-1.23-1.9-.58-.51-1.23-.92-1.82-1.41-.26-.21-.52-.46-.62-.78-.09-.29-.05-.61-.03-.92,.03-.55-.05-1.13-.36-1.58-.8-1.14-1.78-.61-2.1,.48-.32,1.1-.16,2.35,.48,3.31Z"/>
            <path class="cls-25" d="M23.64,13.19c-5.39,2.5-10.28,6.58-11.61,12.62-.12,.56,.73,.8,.86,.24,1.3-5.87,6.04-9.58,11.11-12.26,.4-.21,.05-.79-.35-.6h0Z"/>
            <path class="cls-25" d="M12.22,26.06c-1.61,.35-3.48,.89-4.13,2.6-.66,1.73,1.47,1.96,2.6,1.3,.35-.2,.12-.8-.28-.67-.41,.13-1.37,.46-1.57-.03-.17-.43,.4-1.02,.7-1.28,.78-.71,1.86-1.01,2.85-1.3,.39-.12,.23-.7-.17-.61h0Z"/>
            <path class="cls-25" d="M10.3,29.41c-.78,.49-1.34,1.67-1.32,2.59,.02,1.05,1.3,1.39,2.11,1,.49-.24,.06-.97-.42-.73-.18,.07-.35,.07-.53,.02-.32-.11-.42-.31-.3-.59,.03-.18,.09-.35,.15-.52,.14-.43,.31-.84,.7-1.1,.41-.27,.04-.93-.38-.66h0Z"/>
            <path class="cls-25" d="M10.73,32.82c-.02,3.03,1.85,5.31,3.89,7.35,1.81,1.8,4.09,3.43,6.75,3.49,.38,0,.46-.57,.09-.67-2.43-.66-4.26-1.42-6.08-3.21-1.96-1.94-3.8-4.06-3.95-6.95-.02-.45-.7-.46-.7,0h0Z"/>
            <path class="cls-25" d="M25,13.17c.15-.04,.29-.07,.44-.08,.2-.01,.33-.01,.45-.19-.05,.04-.11,.08-.16,.12,.08-.03,.14-.06,.2-.11,.09-.07,.07-.22,0-.29-.06-.06-.12-.09-.2-.12,.05,.04,.11,.08,.16,.12-.15-.19-.3-.19-.53-.16-.18,.02-.36,.06-.53,.13-.36,.13-.22,.69,.16,.58h0Z"/>
            <path class="cls-25" d="M27.79,12.57c4.72-.62,9.25,.13,13.19,2.93,3.77,2.68,6.37,6.58,8.04,10.85,.19,.48,.96,.27,.78-.21-3.38-8.74-12.06-16.94-22.15-14.1-.36,.1-.2,.58,.15,.54h0Z"/>
            <path class="cls-25" d="M49.35,26.91c.72,.03,1.42,.22,2.02,.62,.3,.2,.62,.45,.81,.75,.4,.61-.44,.71-.88,.77-.3,.05-.27,.5,0,.57,1.32,.36,2.37-.74,1.46-1.92-.79-1.03-2.13-1.58-3.41-1.45-.41,.04-.43,.63,0,.65h0Z"/>
            <path class="cls-25" d="M51.12,29.68c.51,.39,.76,1.14,.5,1.75-.35,.79-1.37,.22-2.02,.31-.22,.03-.32,.39-.14,.53,.46,.36,1.2,.43,1.77,.36,.53-.07,.89-.41,1.09-.9,.38-.96-.03-2.03-.85-2.61-.35-.25-.67,.32-.34,.57h0Z"/>
            <path class="cls-25" d="M49.9,32.34c-.07,2.26-1.16,4.26-2.29,6.17-1.2,2.04-2.65,3.04-4.64,4.19-.35,.2-.11,.71,.27,.64,2.21-.45,3.87-2.28,4.96-4.14,1.23-2.11,2.43-4.34,2.28-6.85-.02-.37-.57-.38-.58,0h0Z"/>
            <path class="cls-25" d="M38.41,43.98c-1.32,.13-2.64,.06-3.96,.14-.51,.03-.49,.71,0,.77,1.3,.16,2.67,0,3.96-.15,.48-.06,.5-.81,0-.76h0Z"/>
            <path class="cls-25" d="M22.24,43.89c.22,0,.42,.1,.61,.21,.32,.18,.68-.25,.4-.52-.27-.27-.63-.37-1.01-.33-.4,.04-.42,.63,0,.64h0Z"/>
            <path class="cls-25" d="M24.31,44.62c.45,.15,.9,.27,1.37,.33,.4,.06,.86,.14,1.24,0,.29-.11,.33-.52,0-.63-.36-.12-.77-.05-1.14-.09-.44-.04-.87-.12-1.29-.24-.4-.11-.56,.49-.17,.62h0Z"/>
            <path class="cls-25" d="M24.1,50.99c.88-2.47,2.68-5.58,4.95-6.96,1.11-.68,1.79-.86,2.94-.27,1.16,.59,1.27,1.16,1.3,2.45,.04,1.55-.37,3-1.01,4.4-.22,.48,.47,.91,.72,.42,1.18-2.3,2.53-8.41-1.62-8.6-1.85-.08-3.55,1.17-4.71,2.51-1.38,1.59-2.83,3.78-3.21,5.88-.08,.42,.49,.59,.64,.18h0Z"/>
            <path class="cls-25" d="M39.68,50.55c-1.06-2.22-1.93-8.58,2.49-6.91,2.44,.92,3.81,4.42,4.13,6.78,.06,.48,.86,.37,.84-.11-.13-3.12-2.79-8.44-6.62-7.78-3.81,.65-2.81,5.99-1.49,8.4,.24,.43,.86,.06,.66-.38h0Z"/>
            <path class="cls-25" d="M22.67,43.75c-1.32,.57-2.25,1.57-3.1,2.71-.84,1.13-1.71,2.38-1.69,3.84,0,.42,.69,.55,.76,.11,.36-2.38,2.22-4.95,4.33-6.13,.35-.19,.04-.67-.3-.52h0Z"/>
            <path class="cls-25" d="M36.06,12.7c3.53-.78,8.27,.89,8.01,5.19-.03,.59,.88,.59,.91,0,.26-4.58-5.21-7.55-9.21-5.88-.4,.17-.11,.77,.28,.68h0Z"/>
            <path class="cls-25" d="M23.65,13.3c-4.42-1.62-10.06,1.38-13.38,4.19-3.8,3.2-5.9,7.97-6.53,12.83-.53,4.02-.66,9.67,2.84,12.51,2.82,2.3,8.45,1.61,8.93-2.54,.06-.5-.81-.62-.88-.12-.38,2.59-3.27,3.33-5.51,2.8-2.24-.53-3.51-2.46-4.12-4.56-1.07-3.69-.57-8.15,.5-11.77,1.09-3.67,3.22-7.09,6.37-9.32,3.17-2.25,7.66-4.59,11.59-3.32,.44,.14,.62-.53,.19-.68h0Z"/>
            <path class="cls-25" d="M29.2,20.42c.43,.17,.87,.35,1.16,.71s.35,.94,.02,1.25c-.11,.1-.26,.17-.4,.23-2.09,.89-4.22,1.71-6.37,2.45-.2,.07-.44,.13-.61,0-.29-.23-.03-.72-.19-1.04,2.04-.92,4.13-1.71,6.27-2.37-1.58-.73-3.26-1.22-4.97-1.51-.41-.07-1.33-.4-.93-.99,.26-.38,1.05-.26,1.41-.2,1.58,.26,3.13,.91,4.61,1.49Z"/>
            <path class="cls-25" d="M39.36,21.06c-.06,.03-.13,.07-.17,.13-.05,.07-.04,.17-.04,.26,.01,.24,.03,.48,.04,.72,0,.1,.01,.21,.07,.3,.05,.09,.15,.15,.24,.21,1.28,.81,2.56,1.62,3.84,2.43,.09,.06,.21,.11,.29,.05,.06-.05,.06-.14,.06-.21,0-.14,0-.29,0-.43,0-.08,0-.16-.03-.24-.03-.07-.09-.13-.15-.18-1-.91-2.14-1.68-3.37-2.26,.9-.37,1.8-.77,2.68-1.17,.23-.1,.46-.21,.61-.41,.15-.2,.18-.52-.01-.68-.43-.38-1.52,.3-1.94,.48-.72,.31-1.42,.65-2.11,1.01Z"/>
            <path class="cls-25" d="M37.33,22.23c-.66-.46-2.05-.34-2.56,.3-.14,.18,.07,.4,.26,.26,.5-.4,1.54-.64,2.13-.27,.19,.12,.35-.17,.17-.3h0Z"/>
            <path class="cls-25" d="M34.76,22.71c0,.43,.26,.76,.59,1.01,.28,.21,.84,.59,1.19,.42,.09-.04,.08-.15,.03-.21-.09-.11-.16-.12-.29-.16-.18-.06-.35-.13-.52-.23-.3-.17-.67-.44-.7-.82-.02-.19-.3-.2-.3,0h0Z"/>
            <path class="cls-25" d="M36.57,24.15c.45-.16,.8-.52,1.01-.94,.13-.27,.35-.9-.1-.99-.13-.03-.25,.08-.21,.21,.08,.31-.02,.55-.2,.81-.18,.25-.41,.44-.65,.62-.14,.1,.01,.34,.17,.29h0Z"/>
            <path class="cls-25" d="M35.98,25.98c-.82,1.38-2.52,2.07-3.47,3.38-.74,1.02-1.13,2.21-.89,3.47,.58,3.06,3.04,3.99,5.74,2.87,.22-.09,.14-.44-.1-.36-1.81,.58-3.67,.65-4.73-1.25-.78-1.4-.66-2.96,.18-4.29,.92-1.47,2.79-2.12,3.53-3.67,.08-.17-.16-.33-.26-.16h0Z"/>
            <path class="cls-25" d="M36,26.09c.38,1.18,1.38,1.77,2.14,2.7,1.58,1.93,1.24,4.46-.48,6.17-.2,.2,.1,.5,.31,.31,1.21-1.13,1.88-2.7,1.61-4.37-.36-2.23-2.3-3.09-3.32-4.92-.08-.14-.31-.05-.26,.11h0Z"/>
            <path class="cls-25" d="M37.63,35.49c.19,0,.19-.3,0-.3s-.19,.3,0,.3h0Z"/>
            <path class="cls-25" d="M36.89,37.71c-.85,.48-2.46,.66-3.18-.16-.15-.17-.37,.04-.29,.22,.25,.55,1.01,.68,1.55,.74,.76,.08,1.47-.06,2.12-.45,.22-.13,.02-.47-.2-.35h0Z"/>
            <path class="cls-25" d="M37.29,27.85c-.04,.29-.19,.55-.3,.81-.09,.2-.14,.4-.36,.5-.15,.07-.4,.05-.57,.07-.44,.05-.72,.09-.9-.46-.11-.34-.12-.72-.22-1.06-.06-.21-.42-.18-.39,.05,.05,.48,.09,1.16,.36,1.56,.25,.36,.66,.37,1.06,.34,.39-.04,.91-.02,1.17-.36,.26-.34,.49-.99,.5-1.41,0-.19-.31-.25-.35-.05h0Z"/>
            <path class="cls-25" d="M39.18,32.85c-.48-1.15-2.5-1.33-3.55-1.21-1.37,.16-3.11,.97-3.48,2.41-.07,.26,.3,.35,.39,.11,.47-1.23,1.92-1.92,3.15-2.06,.83-.1,2.69-.02,3.13,.9,.09,.2,.44,.06,.36-.15h0Z"/>
            <path class="cls-25" d="M28.42,14.87c.14-.11,.29-.24,.34-.42,.06-.17,0-.4-.18-.46-.17-.06-.35,.06-.5,.16-.66,.44-1.45,.7-2.24,.73-.21,0-.42,0-.63,.06-.25,.08-.47,.26-.58,.5-.04,.08-.07,.18-.05,.27,.12,.57,1.49,.25,1.82,.17,.73-.19,1.42-.53,2-1Z"/>
            <path class="cls-25" d="M38.35,15.91c.51,.27,1.08,.44,1.63,.61,.04,.01,.09,.02,.13,.01,.05-.01,.08-.05,.1-.09,.12-.21,.02-.5-.16-.67s-.43-.24-.67-.32c-.38-.13-.76-.28-1.13-.45-.16-.08-.77-.52-.94-.43-.56,.29,.84,1.23,1.03,1.33Z"/>
            <path class="cls-25" d="M28.39,23.17c4.01,3.44-2.5,7.08-.76,10.95,.96,2.12,2.85,3.12,1.91,5.84-.55,1.57-2.27,2.51-2.31,4.24,0,.3,.46,.3,.46,0,.03-1.29,1.24-2.07,1.83-3.1,.37-.64,.63-1.37,.71-2.1,.24-2.06-1.03-3.04-1.98-4.66-2.23-3.78,4.76-7.92,.36-11.38-.15-.12-.37,.08-.22,.21h0Z"/>
            <path class="cls-25" d="M24.12,24.97c1.47,2.18-1.21,4.09-2.11,5.9-.58,1.15-.81,2.41-.28,3.62,.81,1.83,2.91,2.95,1.26,5.27-.81,1.15-1.62,2.05-1.29,3.51,.07,.31,.54,.18,.47-.13-.5-2.18,2.23-3.24,1.98-5.37-.2-1.7-2.01-2.64-2.21-4.34-.4-3.34,4.93-5.63,2.41-8.65-.11-.13-.32,.04-.23,.18h0Z"/>
            <path class="cls-25" d="M41.16,23.71c-.73,1.18-.94,2.46-.39,3.77,.3,.72,.79,1.22,1.3,1.8,1.26,1.44,1.86,2.97,.85,4.77-.68,1.21-1.82,2.25-1.6,3.75,.18,1.24,2.45,3.62,1.45,4.75-.13,.15,.03,.39,.21,.28,.69-.41,.47-1.32,.24-1.98-.34-.95-1.08-1.72-1.37-2.7-.4-1.37,.49-2.41,1.18-3.47,.76-1.17,1.14-2.46,.64-3.82-.29-.77-.8-1.24-1.34-1.84-1.39-1.54-2.03-3.23-.95-5.2,.08-.14-.13-.26-.21-.12h0Z"/>
            <path class="cls-25" d="M42.89,24.62c-.13,1.13-.07,2.01,.77,2.83,1.71,1.65,3.92,2.45,2.59,5.37-.54,1.19-1.46,2.26-1.61,3.6-.19,1.67,1.22,2.53,1.52,4.05,.04,.21,.41,.17,.38-.05-.06-.58-.17-.85-.49-1.35-.77-1.22-1.17-2.1-.69-3.58,.46-1.42,1.62-2.56,1.76-4.1,.08-.93-.25-1.75-.89-2.42-.35-.37-.77-.66-1.17-.96-1.21-.89-1.97-1.83-1.86-3.39,.01-.2-.29-.19-.31,0h0Z"/>
            <path class="cls-2" d="M30.23,12.66c-1.07-.01-2.15,.06-3.18,.38-1.02,.32-1.99,.9-2.63,1.75-.13,.18-.26,.42-.15,.61,.11,.19,.36,.21,.58,.2,1.04,0,2.07-.02,3.11-.03,2.38-.02,4.99,.26,7.34-.09,2.63-.39,.01-2.09-1.12-2.39-1.27-.33-2.64-.43-3.95-.44Z"/>
            <path class="cls-1" d="M9.57,28.97c.72,0,1.32-.58,2.03-.71,.06,.27-.24,.49-.5,.59-.4,.16-.82,.28-1.25,.34-.16,.02-.33,.04-.47-.04-.14-.07-.23-.26-.15-.4"/>
            <path class="cls-1" d="M10.27,31.72c.97-.23,1.92-.56,2.83-.97,.66,2.96,2.46,5.65,4.94,7.39,3.06,2.15,6.9,2.79,10.6,3.28,2.34,.31,4.7,.58,7.06,.41,3.43-.25,6.79-1.45,9.6-3.44,1.94-1.38,3.72-3.34,3.84-5.72,.57,.89,.05,2.06-.47,2.98-1.26,2.23-2.58,4.53-4.66,6.03-.43,.31-.91,.59-1.43,.66-.46,.06-.92-.04-1.38-.1-1.13-.16-2.48,0-3.09,.96-.13,.21-.23,.46-.45,.58-.16,.09-.34,.09-.52,.09-.56,0-1.11,0-1.67,0-.27,0-.54,0-.79-.09-.25-.1-.46-.28-.67-.44-1.26-.96-3.01-1.25-4.52-.73-.67,.23-1.29,.61-1.97,.82-.74,.24-1.54,.27-2.32,.24-3.12-.13-6.2-1.28-8.63-3.25-2.43-1.97-4.2-4.74-4.97-7.77-.04-.14-.07-.28-.16-.4-.24-.33-.73-.28-1.14-.29-.41,0-.93-.28-.82-.67"/>
            <path class="cls-1" d="M50.87,31.02c-.35,.24-.86,.2-1.17-.09-.18-.17-.39-.43-.6-.31-.08,.04-.12,.13-.14,.22-.07,.33,.17,.66,.48,.8s.65,.14,.99,.13c.12,0,.24,0,.34-.06,.26-.15,.23-.52,.18-.81"/>
            <path class="cls-1" d="M36.99,25.44c.22,1.13,1.3,1.9,1.65,2.99-.42-.42-.84-.85-1.26-1.27-.09-.09-.17-.17-.24-.27-.06-.09-1.07-1.07-1.01-1.54,.03-.22,.32-.41,.53-.38,.24,.04,.28,.27,.32,.47Z"/>
            <path class="cls-1" d="M19.29,39.5c1.37,.54,2.87,.78,4.17,1.48,.38,.21,.78,.5,.85,.93-1.98,.48-4-.43-5.79-1.4-.98-.53-1.96-1.09-2.8-1.84-.54-.48-1.03-1.04-1.38-1.68-.54-1,.24-.57,.74-.16,1.29,1.05,2.65,2.04,4.21,2.66Z"/>
            <path class="cls-2" d="M34.3,34.32c-.12,.05-.24,.11-.28,.23-.05,.16,.07,.31,.2,.41,.49,.37,2.68,.6,2.74-.29,.09-1.22-2.2-.54-2.66-.35Z"/>
            <path class="cls-1" d="M12.93,21.79c-.6,.98-1.15,2-1.97,2.81-1.34,1.32-3.34,2.02-4.17,3.7-.4,.81-.47,1.78-.17,2.64,.07,.22,.17,.44,.14,.66-.03,.22-.17,.41-.26,.62-.32,.73-.06,1.74-.69,2.22-.16,.12-.35,.19-.48,.35-.13,.16-.15,.38-.15,.58-.04,.94,.03,1.88,.22,2.81,.13,.65,.31,1.29,.61,1.88,1.08,2.12,3.78,3.26,6.06,2.57,.87-.26,1.76-.93,1.74-1.83-.01-.58-.39-1.08-.77-1.53-.66-.79-1.36-1.58-1.86-2.48-.51-.9-.82-1.96-.65-2.98-.65,.09-1.33-.21-1.71-.74-.38-.53-.44-1.28-.15-1.86-1.01-.3-1.44-1.62-1.07-2.61,.37-.99,1.3-1.66,2.26-2.11,.47-.22,.97-.4,1.32-.78,.18-.19,.32-.43,.45-.66,1.81-3.17,3.56-6.52,6.39-8.83,.37-.3,1.65-1.01,1.6-1.5-2.8,1.28-5.13,4.53-6.69,7.07Z"/>
            <path class="cls-1" d="M9.13,36.38c-.33,.67-.95,1.24-1.69,1.29-.44,.03-.97-.1-1.28,.22-.26,.27-.21,.71-.1,1.07,.62,1.96,2.55,3.44,4.61,3.52,.49,.02,.99-.04,1.43-.27,.43-.23,.77-.67,.8-1.15,.04-.67-.47-1.22-.91-1.72-1.18-1.38-2.04-3.08-2.39-4.87-.07,.65-.18,1.32-.47,1.92Z"/>
            <path class="cls-1" d="M25.7,45.3c-.13,.44-.34,.86-.61,1.23-.05,.06-.1,.13-.17,.17-.08,.05-.19,.06-.29,.07-.69,.05-1.44,.09-2.03-.27-.16-.1-.3-.23-.36-.4-.09-.27,.07-.56,.26-.78,.42-.5,.77-.82,1.38-.55,.15,.07,1.75,.72,1.81,.54Z"/>
            <path class="cls-1" d="M34.38,45.25c-.07-.01-.15-.03-.2,.03-.03,.04-.03,.09-.03,.14,.04,.68,.12,1.35,.23,2.02,0,.06,.02,.13,.07,.17,.05,.03,.11,.03,.16,.03,.84-.04,1.68-.12,2.51-.24,.09-.01,.18-.03,.25-.08,.1-.08,.13-.22,.12-.34-.01-.13-.07-.24-.11-.36-.13-.37-.01-.71-.07-1.06-.07-.41-.1-.32-.54-.26-.81,.11-1.6,.13-2.4-.04Z"/>
            <path class="cls-2" d="M28.19,45.32c-.42,.37-.84,.77-1.01,1.3-.18,.53-.03,1.2,.46,1.47,.24,.13,.53,.14,.81,.13,.75-.02,1.51-.18,2.16-.54,.66-.36,1.2-.95,1.43-1.67,.09-.29,.13-.61,.04-.89-.19-.58-1.1-1.11-1.7-1.12-.75,0-1.66,.85-2.18,1.31Z"/>
            <path class="cls-2" d="M39.81,44.35c-.22,.24-.28,.58-.33,.9-.08,.48-.14,.97-.04,1.44,.1,.47,.41,.93,.87,1.08,.3,.09,.62,.05,.92,0,.36-.05,.74-.12,1.04-.34,.35-.26,.53-.7,.56-1.13,.03-.43-.07-.86-.19-1.28-.36-1.25-1.86-1.76-2.84-.67Z"/>
          </g>
        </g>
      </g>
    </g>
  </g>
</svg>