<?xml version="1.0" encoding="UTF-8"?>
<svg xmlns="http://www.w3.org/2000/svg" xmlns:xlink="http://www.w3.org/1999/xlink" viewBox="0 0 64 64">
  <defs>
    <style>
      .cls-1 {
        fill: url(#linear-gradient-2);
      }

      .cls-2 {
        fill: #d9ff7e;
      }

      .cls-2, .cls-3, .cls-4 {
        mix-blend-mode: overlay;
      }

      .cls-2, .cls-5 {
        opacity: .5;
      }

      .cls-6, .cls-5 {
        fill: #fff;
      }

      .cls-6, .cls-7, .cls-8, .cls-9 {
        fill-rule: evenodd;
      }

      .cls-3 {
        fill: #8c8587;
      }

      .cls-10 {
        mask: url(#mask-2);
      }

      .cls-11 {
        isolation: isolate;
      }

      .cls-12, .cls-13 {
        fill: #2b2829;
      }

      .cls-12, .cls-14 {
        mix-blend-mode: screen;
      }

      .cls-15 {
        fill: #dcc2a7;
      }

      .cls-16 {
        opacity: .3;
      }

      .cls-17 {
        fill: url(#linear-gradient-5);
      }

      .cls-7 {
        fill: #faabc4;
      }

      .cls-8 {
        fill: #e70739;
      }

      .cls-18 {
        opacity: .21;
      }

      .cls-9, .cls-19 {
        fill: #491906;
      }

      .cls-20 {
        mask: url(#mask-1);
      }

      .cls-21 {
        mask: url(#mask);
      }

      .cls-22 {
        fill: url(#linear-gradient-3);
      }

      .cls-23 {
        fill: url(#linear-gradient);
      }

      .cls-24 {
        fill: #8dc63f;
      }

      .cls-24, .cls-25 {
        mix-blend-mode: multiply;
      }

      .cls-25 {
        fill: #a3bf5f;
      }

      .cls-26 {
        fill: url(#linear-gradient-4);
      }

      .cls-4 {
        fill: #998a8e;
      }
    </style>
    <linearGradient id="linear-gradient" x1="64" y1="34.03" x2="5.45" y2="34.03" gradientUnits="userSpaceOnUse">
      <stop offset="0" stop-color="#cf965b"/>
      <stop offset=".25" stop-color="#ca9257"/>
      <stop offset=".51" stop-color="#be864c"/>
      <stop offset=".78" stop-color="#a9733a"/>
      <stop offset="1" stop-color="#925d26"/>
    </linearGradient>
    <linearGradient id="linear-gradient-2" x1="61.28" y1="31.49" x2="1.36" y2="31.49" gradientUnits="userSpaceOnUse">
      <stop offset="0" stop-color="#e8b886"/>
      <stop offset=".25" stop-color="#e3b482"/>
      <stop offset=".5" stop-color="#d7a877"/>
      <stop offset=".76" stop-color="#c29464"/>
      <stop offset="1" stop-color="#a97c4e"/>
    </linearGradient>
    <linearGradient id="linear-gradient-3" x1="-241.9" y1="309.4" x2="-238.62" y2="320.78" gradientTransform="translate(260.11 -287.4)" gradientUnits="userSpaceOnUse">
      <stop offset="0" stop-color="#949494"/>
      <stop offset="1" stop-color="#000"/>
    </linearGradient>
    <mask id="mask" x="17.9" y="24.18" width="3.64" height="6.16" maskUnits="userSpaceOnUse">
      <rect class="cls-22" x="17.9" y="24.18" width="3.64" height="6.16"/>
    </mask>
    <linearGradient id="linear-gradient-4" x1="-246.59" y1="310.17" x2="-243.31" y2="321.55" gradientTransform="translate(266.74 -288.73)" xlink:href="#linear-gradient-3"/>
    <mask id="mask-1" x="20.32" y="24.06" width="2.84" height="5.8" maskUnits="userSpaceOnUse">
      <rect class="cls-26" x="20.32" y="24.06" width="2.84" height="5.8"/>
    </mask>
    <linearGradient id="linear-gradient-5" x1="-264.98" y1="309.91" x2="-262.49" y2="317.83" gradientTransform="translate(297.58 -287.5)" gradientUnits="userSpaceOnUse">
      <stop offset="0" stop-color="#a1a1a1"/>
      <stop offset="1" stop-color="#000"/>
    </linearGradient>
    <mask id="mask-2" x="31.55" y="24.15" width="5.13" height="6.16" maskUnits="userSpaceOnUse">
      <rect class="cls-17" x="31.55" y="24.15" width="5.13" height="6.16"/>
    </mask>
  </defs>
  <g class="cls-11">
    <g id="_Слой_2" data-name="Слой 2">
      <g id="_Слой_1-2" data-name="Слой 1">
        <g>
          <g>
            <path class="cls-23" d="M60.49,6.68c-1.75-1.6-4.41-2.62-7.38-2.62H14.98c-5.26,0-9.53,3.19-9.53,7.11V55.87c0,2.22,1.37,4.2,3.51,5.51,1.75,1.6,4.41,2.62,7.38,2.62H54.47c5.26,0,9.53-3.19,9.53-7.11V12.19c0-2.22-1.37-4.2-3.51-5.51Z"/>
            <path class="cls-1" d="M57.77,4.65c-.41-.37-.86-.71-1.36-1.02-1.75-1.6-4.41-2.62-7.38-2.62H10.89C5.64,1.02,1.36,4.21,1.36,8.13V52.83c0,2.22,1.37,4.2,3.51,5.51,.41,.37,.86,.71,1.36,1.02,1.75,1.6,4.41,2.62,7.38,2.62H51.74c5.26,0,9.53-3.19,9.53-7.11V10.16c0-2.22-1.37-4.2-3.51-5.51Z"/>
            <path class="cls-15" d="M47.66,0H9.53C4.28,0,0,3.19,0,7.11V51.81c0,3.92,4.28,7.11,9.53,7.11H47.66c5.26,0,9.53-3.19,9.53-7.11V7.11c0-3.92-4.28-7.11-9.53-7.11Z"/>
          </g>
          <path class="cls-4" d="M5.89,14.33c-.01-2.85,.17-6.06,2.96-8,2.12-1.47,5.21-1.81,8.09-1.99,6.68-.42,13.42-.36,20.09,.18,3.3,.26,6.79,.71,9.28,2.36,3.69,2.45,3.93,6.61,3.9,10.29-.08,9.24-.15,18.48-.23,27.72-.02,2.2-.08,4.51-1.54,6.42-1.54,2-4.45,3.25-7.46,3.8-3.01,.55-6.15,.48-9.24,.41-5.15-.12-10.31-.24-15.43-.71-2.79-.26-9.22-.18-10.19-2.65-.66-1.68-.07-4.15-.07-5.9,0-2.02-.02-4.03-.03-6.05-.02-4.03-.04-8.06-.06-12.1-.02-4.59-.04-9.18-.07-13.78Z"/>
          <path class="cls-4" d="M20.65,20.31c-3.25-.39-6.54-1.19-8.94-2.87-2.39-1.69-3.67-4.43-2.38-6.69,.89-1.57,2.87-2.69,5.01-3.3,2.14-.61,4.45-.77,6.74-.89,5.74-.3,11.52-.39,17.22,.17,2.22,.22,4.55,.57,6.21,1.7,2.93,1.99,2.55,5.66,.4,8.14-5.33,6.17-16.02,4.75-24.26,3.75Z"/>
          <path class="cls-12" d="M9.75,46.11c-.57-1.77-.49-3.61-.4-5.43,.37-7.55,.74-15.09,1.11-22.64,.14-2.75,.39-5.74,2.81-7.82,2.2-1.89,5.7-2.58,9.03-2.93,4.04-.42,8.14-.47,12.2-.14,3.7,.3,7.69,1.06,9.9,3.3,1.87,1.9,2.03,4.41,2.12,6.77,.33,9.07,.66,18.2-1.13,27.18-.4,1.99-1,4.12-2.97,5.5-2.25,1.58-5.63,1.75-8.72,1.75-5.06,0-10.12-.25-15.13-.73-4.65-.45-7.58-.99-8.81-4.8Z"/>
          <path class="cls-24" d="M47.66,1.02h-1.63c4.51,0,8.17,2.73,8.17,6.1V51.81c0,3.37-3.66,6.1-8.17,6.1h1.63c4.51,0,8.17-2.73,8.17-6.1V7.11c0-3.37-3.66-6.1-8.17-6.1Z"/>
          <path class="cls-2" d="M44.83,56.21c2.15-.26,4.29-1.07,5.39-2.47,.86-1.09,1-2.4,1.05-3.66,.05-1.24,.02-2.47-.08-3.71-.07-.81-.31-1.78-1.32-2.08-.75-.23-1.65,.04-2.16,.52-.51,.47-.69,1.1-.74,1.7-.11,1.25,.25,2.52-.08,3.75-.39,1.42-1.68,2.63-3.23,3.51-1.13,.64-4.12,1.25-4.5,2.21,1.43,.58,4.04,.42,5.67,.23Z"/>
          <path class="cls-3" d="M3.88,2.71c-1.55,1.11-2.52,2.67-2.52,4.4v26.08c12.35-3.44,32.73-4.39,54.47,14.33v-14.97C26.86,28.05,11.39,13.17,3.88,2.71Z"/>
          <path class="cls-5" d="M3.58,9.23c.26-1.79,1.27-3.6,3.21-4.67,2.66-1.47,6.31-1.25,9.61-.96,1.02,.09,2.32,.39,2.36,1.15,.03,.67-.97,1.08-1.84,1.21-2.2,.34-4.63-.04-6.59,.77-1.42,.58-2.33,1.69-2.8,2.85s-.56,2.38-.73,3.58c-.07,.46-.15,.93-.44,1.34-1.08,1.49-2.05,.48-2.43-.37-.6-1.35-.53-3.5-.32-4.91Z"/>
          <g class="cls-14">
            <ellipse class="cls-13" cx="32.66" cy="10.91" rx="4.07" ry="3.03"/>
            <path class="cls-13" d="M43.37,11.71c.45,.84-.09,1.78-1.21,2.12-1.12,.34-2.39-.07-2.84-.91-.45-.84,.09-1.78,1.21-2.12,1.12-.34,2.39,.07,2.84,.91Z"/>
            <path class="cls-13" d="M40.11,16.13c.37,.7-.08,1.49-1.01,1.77-.93,.28-1.99-.06-2.37-.76-.37-.7,.08-1.49,1.01-1.77,.93-.28,1.99,.06,2.37,.76Z"/>
          </g>
          <g class="cls-14">
            <path class="cls-13" d="M23.64,45.38c.8,1.49-.17,3.17-2.16,3.77-1.99,.6-4.25-.13-5.05-1.61-.8-1.49,.17-3.17,2.16-3.77,1.99-.6,4.25,.13,5.05,1.61Z"/>
            <path class="cls-13" d="M20.79,40.39c.22,.41-.05,.87-.59,1.03-.54,.16-1.16-.03-1.38-.44-.22-.41,.05-.87,.59-1.03,.54-.16,1.16,.03,1.38,.44Z"/>
            <path class="cls-13" d="M15.3,41.5c.45,.84-.09,1.78-1.21,2.12-1.12,.34-2.39-.07-2.84-.91-.45-.84,.09-1.78,1.21-2.12,1.12-.34,2.39,.07,2.84,.91Z"/>
          </g>
          <g class="cls-16">
            <path class="cls-25" d="M51.02,35.95c.79,1.47-.17,3.15-2.14,3.74-1.98,.59-4.22-.12-5.01-1.6-.79-1.47,.17-3.15,2.14-3.74,1.98-.59,4.22,.12,5.01,1.6Z"/>
            <path class="cls-25" d="M53.92,29.6c.58,1.08-.12,2.3-1.57,2.74-1.45,.43-3.09-.09-3.67-1.17-.58-1.08,.12-2.3,1.57-2.74,1.45-.43,3.09,.09,3.67,1.17Z"/>
            <path class="cls-25" d="M45.56,30.99c.37,.7-.08,1.49-1.01,1.77-.93,.28-1.99-.06-2.37-.75-.37-.7,.08-1.49,1.01-1.77,.93-.28,1.99,.06,2.37,.76Z"/>
            <path class="cls-25" d="M10.65,25.55c.41,.75-.09,1.61-1.1,1.92-1.01,.3-2.16-.06-2.57-.82-.41-.75,.09-1.61,1.1-1.92,1.01-.3,2.16,.06,2.57,.82Z"/>
            <path class="cls-25" d="M11.29,21.09c.21,.39-.04,.84-.57,1-.53,.16-1.13-.03-1.34-.43-.21-.39,.04-.84,.57-1,.53-.16,1.13,.03,1.34,.43Z"/>
            <path class="cls-25" d="M6.59,20.15c.34,.63-.07,1.34-.91,1.59-.84,.25-1.79-.05-2.13-.68-.34-.63,.07-1.34,.91-1.59,.84-.25,1.79,.05,2.13,.68Z"/>
          </g>
        </g>
      </g>
      <g id="_Слой_8" data-name="Слой 8">
        <g>
          <path class="cls-6" d="M37.31,53.13c-2.37,.01-2.93-.93-3.63-2.33-.94-1.87-10.78-1.83-12.15,0-.81,1.09,.23,2.54-3.79,2.3-11.26,.16-7.24-5.76-2.69-4.48-.14-1.75,.72-3,2.57-3.74-.26-.78-.18-1.45,.24-2.02-5.67-2.58-5.77-7.43-.96-8.73-3.05-4.3-2.51-8.73,1.63-13.26-11.94-15.74,.48-23.43,5.17-3.17,.71-.3,1.3-.51,1.79-.61-1.89-2.45-.68-3.35,1.14-1.31-2.2-3.51,1.78-4.47,3.11,1.17,.9,.19,1.61,.43,2.16,.73,.52-8.77,3.9-13.87,8.86-11.49,3.84,1.84,2.73,6.5-.92,6.89-1.59,2.78-2.64,5.62-3.16,8.53,3.61,3.94,3.62,9.97,.03,13.92,1.9-1.37,3.15-2.02,3.73-1.93-.17-.46-.02-.98,.37-1.28,.39-.3,.93-.32,1.33-.05,.41,.27,.59,.78,.46,1.25,1.64-1.82,3.52,.31,1.4,1.6,2.35,1.22,2.16,1.94-.59,2.18-1.5,2.62-3.24,4.13-5.23,4.53,.19,1.6,.12,2.85-.21,3.73,1.49,.55,2.3,1.61,2.42,3.16,.98-.46,2.12-.34,2.99,.31,.86,.65,1.91,2.03,1.13,2.78-1.61,1.55-4.4,1.46-7.2,1.34Z"/>
          <path class="cls-19" d="M39.42,53.5c-.71,0-1.43-.03-2.12-.06-.01,0-.02,0-.04,0-2.42,0-3.1-.99-3.86-2.5-.21-.41-1.27-.93-3.64-1.14-3.49-.31-7.3,.25-7.99,1.18-.18,.24-.25,.51-.33,.79-.12,.44-.26,.93-.82,1.27-.56,.33-1.48,.45-2.89,.37-.15,0-.3,0-.44,0-5.19,0-6.6-1.32-6.98-2.13-.29-.61-.17-1.3,.33-1.89,.74-.87,2.34-1.51,4.09-1.16,0-1.6,.85-2.78,2.52-3.53-.16-.63-.1-1.2,.17-1.71-2.81-1.37-4.44-3.46-4.27-5.51,.13-1.59,1.34-2.88,3.27-3.52-2.82-4.25-2.24-8.66,1.72-13.11-4.96-6.62-5.74-11.99-4.31-14.39,.57-.96,1.5-1.41,2.56-1.24,1.33,.21,2.77,1.38,4.04,3.28,1.42,2.13,2.62,5.16,3.49,8.78,.39-.16,.74-.28,1.06-.38-.78-1.12-.97-2.01-.49-2.4,.3-.25,.76-.2,1.29,.12-.17-.62-.13-1.15,.13-1.53,.26-.38,.69-.54,1.18-.45,.92,.17,2.22,1.33,2.9,4.04,.63,.14,1.17,.31,1.63,.51,.41-5.71,2.06-9.82,4.57-11.29,1.4-.83,2.98-.83,4.7,0,2.22,1.06,2.76,2.92,2.52,4.3-.28,1.65-1.63,2.9-3.38,3.15-1.5,2.65-2.51,5.39-3.02,8.15,1.73,1.94,2.69,4.44,2.69,7.05,0,2.02-.56,3.98-1.62,5.67,1.01-.63,1.61-.86,1.99-.93-.03-.47,.17-.93,.55-1.23,.49-.38,1.17-.41,1.69-.06,.3,.2,.51,.5,.59,.84,.48-.32,.99-.42,1.45-.28,.49,.15,.83,.56,.89,1.06,.06,.52-.18,1.03-.67,1.45,1.02,.58,1.44,1.06,1.35,1.53-.11,.53-.81,.83-2.33,.98-1.45,2.48-3.16,3.99-5.08,4.48,.14,1.36,.08,2.47-.17,3.32,1.3,.57,2.07,1.54,2.29,2.91,.99-.32,2.07-.14,2.91,.49,.7,.52,1.47,1.46,1.52,2.29,.02,.38-.1,.71-.36,.96-1.29,1.24-3.28,1.49-5.3,1.49Zm-2.11-.67s0,0,.01,0c2.54,.11,5.43,.23,6.98-1.26,.13-.13,.19-.28,.18-.48-.04-.6-.69-1.39-1.28-1.84-.77-.58-1.8-.68-2.67-.27-.09,.04-.2,.04-.28-.01-.09-.05-.14-.14-.15-.24-.11-1.44-.84-2.38-2.22-2.9-.08-.03-.14-.09-.17-.16s-.04-.16,0-.23c.32-.83,.38-2.04,.2-3.59-.02-.16,.09-.3,.24-.34,1.89-.38,3.58-1.86,5.03-4.38,.05-.09,.14-.14,.24-.15,1.82-.16,1.94-.5,1.94-.5,0,0,.02-.34-1.46-1.1-.1-.05-.16-.15-.17-.26,0-.11,.05-.21,.15-.27,.55-.34,.84-.76,.79-1.16-.03-.26-.21-.47-.46-.55-.41-.13-.91,.08-1.34,.57-.09,.11-.25,.13-.37,.06-.12-.07-.19-.21-.15-.35,.1-.35-.04-.71-.34-.92-.3-.2-.69-.19-.97,.04-.28,.22-.39,.6-.27,.94,.04,.1,.02,.21-.05,.3-.07,.08-.17,.12-.28,.11-.28-.04-1.11,.14-3.5,1.87-.13,.09-.3,.07-.41-.04-.1-.12-.1-.29,0-.41,3.51-3.86,3.49-9.66-.03-13.51-.06-.07-.09-.17-.08-.26,.52-2.93,1.59-5.84,3.19-8.63,.05-.09,.14-.14,.23-.15,1.57-.17,2.75-1.21,3-2.66,.2-1.16-.27-2.73-2.18-3.65-1.53-.73-2.91-.74-4.13-.02-2.39,1.41-3.96,5.51-4.3,11.26,0,.1-.07,.2-.16,.25-.09,.05-.2,.05-.3,0-.51-.28-1.21-.52-2.07-.7-.12-.02-.21-.11-.24-.23-.56-2.39-1.64-3.61-2.46-3.76-.18-.03-.42-.03-.57,.19-.21,.31-.21,1.07,.48,2.17,.08,.13,.05,.31-.07,.41-.13,.1-.31,.08-.41-.04-.89-.99-1.45-1.07-1.53-1.01-.1,.08-.08,.72,.85,1.93,.06,.08,.08,.19,.05,.29-.04,.1-.12,.17-.22,.19-.46,.1-1.05,.3-1.73,.6-.08,.04-.18,.03-.26,0-.08-.04-.14-.12-.16-.2-.86-3.7-2.07-6.79-3.49-8.93-1.18-1.76-2.46-2.84-3.63-3.02-.82-.13-1.49,.2-1.94,.95-.67,1.12-.73,3.01-.17,5.19,.69,2.66,2.28,5.68,4.59,8.73,.09,.12,.08,.28-.02,.39-4.07,4.46-4.59,8.67-1.61,12.88,.06,.08,.07,.19,.04,.28-.03,.09-.11,.17-.21,.19-1.93,.52-3.11,1.65-3.23,3.1-.15,1.86,1.47,3.8,4.23,5.06,.08,.04,.15,.11,.17,.2,.02,.09,0,.18-.05,.26-.36,.49-.43,1.05-.2,1.74,.05,.15-.03,.32-.18,.38-1.73,.7-2.51,1.82-2.38,3.44,0,.1-.03,.2-.11,.26-.08,.06-.18,.09-.28,.06-1.66-.47-3.2,.08-3.86,.87-.24,.29-.48,.73-.24,1.23,.21,.44,1.31,1.85,6.88,1.77,0,0,.01,0,.02,0,2.72,.16,2.89-.43,3.09-1.19,.09-.31,.18-.66,.43-.99,1.04-1.4,5.71-1.68,8.54-1.42,1.62,.14,3.65,.51,4.13,1.47,.69,1.38,1.19,2.16,3.31,2.16,.01,0,.03,0,.04,0Z"/>
          <path class="cls-7" d="M28.19,49.42c-.23,0-.47,0-.7,0-3.28,0-6.13,.01-6.13-2.45s2.4-6.69,6.36-6.68c4.07,0,6.42,4.25,6.42,6.77s-2.77,2.38-5.94,2.37"/>
          <g class="cls-16">
            <path class="cls-9" d="M21.54,50.8c-.81,1.09,.23,2.54-3.79,2.3-7.9,.11-8.28-2.77-6.23-4.06-1.84,3.22,8.01,3.99,8.91,2.21,.1-1.19,.63-2,1.57-2.44,3.92-.88,7.46-.65,11.38,.16,.95,.44,1.47,1.25,1.58,2.44,.9,1.79,10.79,1.01,8.94-2.21,2.06,1.29,1.68,4.19-6.25,4.07-4.03,.24-2.99-1.22-3.8-2.31-1.35-1.8-10.89-2.05-12.3-.16"/>
          </g>
          <path class="cls-7" d="M36.08,11.58c-1.32,2.93-1.98,5.41-2,7.45l.91,.77c1.25-2.86,2.33-5.13,3.23-6.8-.77-.21-1.49-.68-2.15-1.42"/>
          <path class="cls-7" d="M19.83,20.05c-8.45-12.45-2.5-16.45,1.74-1.54-.33,.34-.91,.85-1.74,1.54"/>
          <path class="cls-19" d="M39.16,13.44c-1.5,0-2.84-.84-3.99-2.52-.1-.14-.06-.33,.08-.43,.14-.1,.33-.06,.43,.08,1.62,2.37,3.56,2.86,5.92,1.51,.15-.08,.33-.03,.42,.11,.08,.15,.03,.33-.11,.42-.97,.55-1.88,.83-2.74,.83Z"/>
          <path class="cls-19" d="M38.3,44s-.01,0-.02,0c-.17-.01-.3-.16-.28-.33,.14-2.01-.74-3.95-2.34-5.17-.13-.1-.16-.29-.06-.43,.1-.13,.29-.16,.43-.06,1.77,1.35,2.73,3.48,2.58,5.7-.01,.16-.15,.28-.3,.28Z"/>
          <path class="cls-19" d="M20.11,36.11c-.1,0-.21-.05-.26-.15-.42-.72-1.13-1.23-1.94-1.41-.81-.18-1.67-.02-2.36,.45-.14,.1-.33,.06-.43-.08s-.06-.33,.08-.43c.83-.57,1.86-.77,2.84-.55,.98,.22,1.83,.84,2.33,1.7,.09,.15,.04,.33-.11,.42-.05,.03-.1,.04-.15,.04Z"/>
          <path class="cls-19" d="M19.1,44.46c-.27,0-.55-.07-.79-.22-.49-.29-.77-.83-.74-1.4,0-.17,.15-.3,.32-.29,.17,0,.3,.15,.29,.32-.02,.34,.15,.66,.44,.84,.29,.18,.66,.18,.95,0,.29-.18,.47-.5,.45-.84,0-.13,.07-.24,.18-.3,.12-.05,.25-.02,.34,.07,.19,.19,.48,.25,.73,.15,.25-.1,.42-.34,.42-.61,0-.27-.15-.52-.4-.63-.14-.06-.21-.22-.17-.36,.04-.15,.19-.24,.34-.22,.24,.04,.47-.09,.57-.3,.11-.21,.06-.47-.11-.64-.17-.17-.43-.2-.64-.09-.09,.05-.21,.05-.3,0-.09-.06-.15-.15-.15-.26,0-.44-.83-1.7-1.57-2.08-.15-.08-.21-.26-.13-.41,.08-.15,.26-.21,.41-.13,.73,.38,1.58,1.45,1.83,2.23,.35-.05,.71,.06,.97,.32,.36,.35,.45,.89,.23,1.34-.11,.22-.28,.4-.49,.51,.14,.21,.22,.47,.22,.74,0,.52-.33,.98-.81,1.17-.31,.12-.64,.12-.93,0-.11,.36-.35,.67-.68,.86-.24,.14-.51,.22-.79,.22Z"/>
          <path class="cls-19" d="M37.43,50.78c-.08,0-.17-.03-.23-.1-.11-.13-.1-.32,.03-.43,1.92-1.69,3.78-2.34,5.55-1.91,.16,.04,.27,.2,.23,.37-.04,.16-.2,.27-.37,.23-1.56-.37-3.24,.22-5,1.78-.06,.05-.13,.08-.2,.08Z"/>
          <path class="cls-19" d="M18.44,50.88c-.06,0-.13-.02-.18-.06-2.59-1.89-3.87-2.17-4.49-2.08-.17,.03-.32-.09-.35-.25-.03-.17,.09-.32,.25-.35,1.08-.17,2.7,.54,4.95,2.19,.14,.1,.17,.29,.07,.43-.06,.08-.15,.13-.25,.13Z"/>
          <path class="cls-19" d="M40.41,53.47s-.05,0-.07,0c-.16-.04-.26-.21-.22-.37,.11-.45,.03-1.06-.24-1.81-.06-.16,.02-.33,.18-.39,.16-.06,.33,.02,.39,.18,.32,.88,.41,1.59,.26,2.17-.03,.14-.16,.23-.3,.23Z"/>
          <path class="cls-19" d="M43.2,52.94s-.06,0-.09-.01c-.16-.05-.25-.22-.21-.38,.07-.24,.05-.73-.48-1.72-.08-.15-.02-.33,.13-.41,.15-.08,.33-.02,.41,.13,.51,.96,.68,1.67,.52,2.18-.04,.13-.16,.22-.29,.22Z"/>
          <path class="cls-19" d="M12.14,52.68c-.11,0-.21-.06-.27-.15-.31-.54-.25-1.26,.16-2.14,.07-.15,.25-.22,.41-.15,.15,.07,.22,.25,.15,.41-.32,.69-.39,1.22-.18,1.57,.08,.15,.03,.33-.11,.42-.05,.03-.1,.04-.15,.04Z"/>
          <path class="cls-19" d="M14.58,53.26c-.12,0-.23-.07-.28-.18-.29-.61-.16-1.33,.39-2.12,.1-.14,.29-.17,.43-.08,.14,.1,.17,.29,.08,.43-.42,.61-.53,1.11-.34,1.51,.07,.15,0,.33-.15,.41-.04,.02-.09,.03-.13,.03Z"/>
          <path class="cls-8" d="M26.3,26.53c-.51,1.74-1.7,3.19-3.32,4.04-1.55,.81-3.5,1.04-5.09,.21-1.98-1.04-2.54-3.2-2.36-5.28l.04-.41,.32-.26c3.02-2.4,7.34-2.29,10.24,.26,.73-.55,1.74-.55,2.46,0,2.9-2.55,7.21-2.66,10.24-.26l.32,.26,.04,.41c.18,2.09-.38,4.25-2.36,5.28-1.59,.83-3.54,.6-5.09-.21-1.63-.86-2.83-2.32-3.33-4.08-.18-.41-.59-.68-1.04-.68s-.89,.28-1.06,.72Z"/>
          <path class="cls-19" d="M20.12,31.57c-.84,0-1.64-.18-2.35-.56-1.81-.95-2.72-2.97-2.5-5.54l.04-.41c0-.07,.04-.14,.1-.18l.32-.26c3.07-2.44,7.42-2.37,10.42,.14,.74-.46,1.69-.46,2.43,0,2.99-2.51,7.34-2.57,10.42-.14l.32,.26c.06,.04,.09,.11,.1,.18l.04,.41c.22,2.57-.69,4.59-2.5,5.54-1.54,.81-3.54,.73-5.33-.21-1.7-.89-2.93-2.39-3.46-4.22-.14-.31-.46-.51-.8-.51s-.67,.21-.81,.54c-.54,1.81-1.76,3.3-3.45,4.19-.97,.51-2,.77-2.98,.77Zm-4.3-6.35l-.03,.3c-.12,1.38,.01,3.87,2.22,5.03,1.39,.73,3.2,.65,4.84-.21,1.56-.82,2.7-2.2,3.19-3.89,0,0,0-.02,0-.02,.21-.53,.73-.88,1.3-.88s1.06,.33,1.28,.83c0,.01,0,.02,.01,.03,.49,1.7,1.63,3.1,3.2,3.92,1.64,.86,3.45,.94,4.84,.21,2.21-1.16,2.34-3.65,2.22-5.03l-.03-.3-.24-.19c-2.93-2.32-7.09-2.22-9.9,.25-.09,.08-.23,.09-.33,.01-.63-.48-1.52-.48-2.15,0-.1,.08-.24,.07-.33-.01-2.81-2.47-6.97-2.57-9.9-.25l-.24,.19Z"/>
          <path class="cls-9" d="M16.49,25.58c-.59,6.85,7.85,5.76,9,.23-2.55-2.24-6.34-2.34-9-.23"/>
          <g class="cls-21">
            <path class="cls-6" d="M21.54,30.13l-1.99-5.95c-.56,.11-1.12,.28-1.65,.53l1.88,5.62c.57,.04,1.17-.03,1.76-.2"/>
          </g>
          <g class="cls-20">
            <path class="cls-6" d="M20.32,24.08l1.93,5.78c.31-.14,.62-.32,.91-.52l-1.76-5.26c-.36-.03-.73-.03-1.09,0"/>
          </g>
          <path class="cls-9" d="M38.16,25.61c.58,6.75-7.74,5.68-8.87,.23,2.51-2.21,6.25-2.31,8.87-.23"/>
          <g class="cls-10">
            <path class="cls-6" d="M33.83,24.22l1.93,5.78c.31-.14,.62-.32,.91-.52l-1.76-5.26c-.36-.03-.73-.03-1.09,0m1.36,5.87l-1.99-5.95c-.56,.11-1.12,.28-1.65,.53l1.88,5.62c.57,.04,1.17-.03,1.76-.2Z"/>
          </g>
          <path class="cls-8" d="M15.57,25.09c-.07,.55-.08,1.13-.04,1.73-2.01-.95-1.73-1.97,.85-3.05-.26,.59-.53,1.03-.81,1.32Z"/>
          <path class="cls-19" d="M15.52,27.08s-.08,0-.11-.03c-1-.47-1.48-.98-1.47-1.54,.01-.69,.76-1.32,2.33-1.99,.1-.04,.21-.02,.29,.06,.08,.08,.1,.19,.05,.29-.26,.58-.52,1.02-.8,1.32-.06,.51-.07,1.05-.03,1.6,0,.09-.04,.18-.11,.23-.04,.03-.1,.05-.15,.05Zm.28-2.76c-1.14,.57-1.33,.99-1.34,1.2,0,.27,.26,.56,.78,.85,0-.46,.01-.9,.06-1.33,0-.06,.03-.11,.07-.15,.14-.15,.28-.34,.42-.58Z"/>
          <path class="cls-8" d="M39.16,25.09c.07,.55,.08,1.13,.04,1.73,2.01-.95,1.73-1.97-.85-3.05,.26,.59,.53,1.03,.81,1.32Z"/>
          <path class="cls-19" d="M39.2,27.08c-.05,0-.1-.02-.15-.05-.08-.05-.12-.14-.11-.23,.04-.56,.02-1.1-.03-1.6-.28-.31-.54-.74-.8-1.32-.04-.1-.02-.21,.05-.29,.08-.08,.19-.1,.29-.06,1.58,.66,2.32,1.29,2.33,1.99,.01,.57-.47,1.07-1.47,1.54-.04,.02-.07,.03-.11,.03Zm-.28-2.76c.14,.24,.28,.44,.42,.58,.04,.04,.06,.09,.07,.15,.05,.42,.07,.87,.06,1.33,.52-.3,.78-.59,.78-.85,0-.21-.2-.63-1.34-1.2Z"/>
          <path class="cls-9" d="M25.45,29.62c.34,3.76,3,3.88,3.09,.09-.11,.02-.23,.03-.35,.02-.51-.03-.95-.36-1.13-.83-.09,.47-.48,.82-.95,.87-.24,.02-.47-.03-.66-.14"/>
          <path class="cls-6" d="M27.01,28.9c.23,.48,.56,.75,.99,.82,0,.33-.16,.64-.44,.81-.28,.17-.64,.18-.93,.02-.29-.16-.47-.46-.47-.8,.47-.12,.75-.41,.85-.85"/>
          <path class="cls-9" d="M27.1,27.67c.53,0,.96,.27,.96,.6s-.43,.6-.96,.6-.96-.27-.96-.6,.43-.6,.96-.6"/>
          <path class="cls-19" d="M26.56,18.09s-.09,0-.13-.03c-.87-.41-1.44-.94-1.71-1.59-.06-.16,0-.33,.17-.4,.16-.06,.33,0,.4,.17,.21,.5,.68,.93,1.41,1.27,.15,.07,.22,.25,.15,.41-.05,.11-.16,.18-.28,.18Z"/>
          <path class="cls-19" d="M29.78,18.35s-.01,0-.02,0c-.17,0-.3-.15-.29-.32,.05-.87-.1-1.68-.45-2.42-.07-.15,0-.34,.15-.41,.15-.07,.34,0,.41,.15,.39,.83,.56,1.74,.5,2.71,0,.16-.14,.29-.3,.29Z"/>
          <path class="cls-19" d="M26,30.08c-.55,0-1.05-.33-1.27-.84-.07-.16,0-.34,.16-.4,.16-.07,.34,0,.4,.16,.13,.32,.46,.5,.8,.47,.34-.04,.62-.29,.68-.62,.03-.13,.14-.23,.27-.25,.14-.01,.26,.07,.31,.2,.14,.36,.48,.61,.86,.64,.39,.03,.76-.18,.94-.52,.08-.15,.27-.2,.41-.12,.15,.08,.2,.27,.12,.41-.3,.55-.9,.88-1.52,.84-.41-.03-.79-.21-1.07-.51-.23,.3-.57,.5-.96,.54-.05,0-.1,0-.15,0Z"/>
          <path class="cls-19" d="M28,38.76c-1.84,0-3.74-.28-5.6-.84-.16-.05-.25-.22-.2-.38,.05-.16,.22-.25,.38-.2,3.19,.97,6.52,1.08,9.37,.32,2.78-.74,4.88-2.24,5.89-4.22,.08-.15,.26-.21,.41-.13,.15,.08,.21,.26,.13,.41-1.1,2.14-3.33,3.75-6.28,4.53-1.29,.34-2.68,.51-4.11,.51Z"/>
          <path class="cls-19" d="M20.11,30.61c-.22,0-.44-.02-.65-.05-1.03-.15-1.88-.65-2.45-1.45-.64-.89-.9-2.09-.77-3.55,0-.07,.04-.14,.1-.18,2.76-2.19,6.69-2.09,9.34,.24,.07,.06,.1,.16,.08,.25-.62,2.98-3.29,4.74-5.64,4.74Zm-3.37-4.89c-.17,2.43,.86,4.04,2.79,4.32,.19,.03,.39,.04,.59,.04,2.09,0,4.46-1.55,5.08-4.18-2.43-2.04-5.94-2.12-8.46-.19Z"/>
          <path class="cls-19" d="M34.61,30.61c-2.36,0-5.02-1.76-5.64-4.74-.02-.09,.01-.19,.08-.25,2.65-2.33,6.58-2.43,9.34-.24,.06,.04,.09,.11,.1,.18,.13,1.47-.13,2.66-.77,3.55-.57,.8-1.42,1.3-2.45,1.45-.21,.03-.43,.05-.65,.05Zm-5.1-4.7c.68,2.88,3.46,4.46,5.67,4.14,1.93-.28,2.97-1.9,2.79-4.32-2.52-1.93-6.04-1.85-8.46,.19Z"/>
          <g class="cls-16">
            <path class="cls-9" d="M27.79,38.46c2.95-.05,5.9-.92,8.48-2.6-2.03,1.7-5.08,2.64-8.48,2.6"/>
          </g>
          <g class="cls-16">
            <path class="cls-9" d="M21.59,37.09s.08,.05,.11,.07c-.04-.02-.08-.05-.11-.07"/>
          </g>
          <g class="cls-16">
            <path class="cls-9" d="M20.45,37.92c.1,.05,.21,.1,.31,.15-.1-.05-.21-.1-.31-.15"/>
          </g>
          <g class="cls-16">
            <path class="cls-9" d="M42.16,36.95c-1.8,2.26-3.49,3.03-5.54,2.02,.9,.96,1.47,2.18,1.64,3.48-.02-.21-.04-.42-.06-.65,1.99-.4,3.73-1.91,5.23-4.53-.35,0-.92-.21-1.27-.33"/>
          </g>
          <g class="cls-16">
            <path class="cls-9" d="M19.6,35.22c.09,.13,.18,.25,.28,.37,.16,.26,.24,.5,.23,.71,0,.03,0,.06,0,.09-.06,.37-.38,.67-.98,.9,.29,.16,.54,.29,.78,.38,.64,.57,1.24,1.52,1.24,2.01,.33-.17,.73-.11,.99,.15,.26,.26,.33,.66,.17,.99-.16,.33-.52,.52-.89,.47,.36,.16,.59,.52,.58,.91,0,.39-.25,.75-.62,.89-.37,.15-.78,.06-1.06-.22,.02,.45-.21,.88-.6,1.12-.39,.23-.88,.23-1.27,0-.39-.23-.62-.66-.59-1.12-.29,.39-.42,.83-.39,1.32,.43,.49,1.1,.72,1.74,.59,.67-.13,1.21-.61,1.42-1.25,.56,.17,1.17-.02,1.54-.48,.37-.46,.41-1.1,.12-1.61,.54-.3,.81-.91,.68-1.51-.13-.6-.64-1.04-1.25-1.09l-.18-.42-.13-.06c6.49,2.72,12.18,1.38,17.07-4.03-.51,.3-1.1,.7-1.77,1.18,.24-.27,.47-.54,.68-.83,.26-.36,.5-.73,.71-1.11,.59-1.07,.98-2.22,1.17-3.39,.07-.45,.11-.9,.12-1.35-.25,.58-.6,1.09-1.01,1.52,.19,3.75-6.35,6.34-11.21,6.35-3.73,0-10.78-2.22-10.98-6.37-.52-.61-.94-1.37-1.22-2.3-.05,.74,0,1.48,.16,2.22,.27,1.3,.86,2.59,1.77,3.87-.15,.04-.3,.09-.44,.13,.05-.01,.1-.02,.15-.03,.44-.09,.9-.08,1.35,.02,.45,.1,.87,.29,1.23,.56,.15,.14,.29,.28,.4,.42"/>
          </g>
          <g class="cls-16">
            <path class="cls-9" d="M16,48.12c-.46-.56,.33-1.71,1.05-2.98-1.46,.76-2.12,1.92-1.99,3.48,.89,.31,2.02,.96,3.38,1.95-.25-1.09-1.43-1.22-2.44-2.45"/>
          </g>
          <g class="cls-16">
            <path class="cls-9" d="M39.31,48.18c.4-.49-.29-1.51-.92-2.62,1.28,.67,1.86,1.69,1.75,3.06-.79,.27-1.78,.84-2.97,1.71,.22-.96,1.25-1.07,2.14-2.15"/>
          </g>
          <path class="cls-19" d="M43.52,37.59c-.41,0-.82-.07-1.23-.21-.16-.05-.25-.23-.19-.39,.05-.16,.23-.25,.39-.19,.63,.22,1.25,.23,1.89,.05,.16-.05,.33,.05,.38,.21,.05,.16-.05,.33-.21,.38-.34,.1-.68,.15-1.03,.15Z"/>
          <g class="cls-16">
            <path class="cls-9" d="M28.29,26.31c-.98-.76-1.73-.56-2.25,.6-.81,2.82-3.06,4.27-6.77,4.35-2.1-.35-3.45-1.87-4.07-4.58,0,0-.07,.46-.21,1.37,1.78,5.9,9.31,5.32,11.87-1.05,.28-1.02,.63-1,1.06,.06,2.77,6.32,9.63,6.1,11.49,1.78,.2-1.22-.07-1.16-.81,.2-1.08,1.77-2.68,2.51-4.79,2.23-2.69-.46-4.53-2.11-5.51-4.95"/>
          </g>
          <g class="cls-18">
            <path class="cls-9" d="M39.86,13.06c-1.55,2.66-2.6,5.51-3.16,8.53-.35-1.19,.1-3.58,1.34-7.19-1.79-1.31-2.66-2.53-2.62-3.65,1.34,1.88,2.82,2.65,4.43,2.31m-21.71,5.75c-4.42-6.47-5.05-10.9-1.88-13.3-3.33-.42-4.78,6.07,2.27,15.36-.1,.11-.2,.23-.3,.34,.78-.33,.8-1.06,.06-2.17-.05-.08-.11-.15-.16-.23Z"/>
          </g>
          <path class="cls-19" d="M31.9,50.1c-2.69-.52-5.42-.52-8.11,0l-.12-.6c2.77-.53,5.57-.53,8.34,0l-.12,.6Z"/>
        </g>
      </g>
    </g>
  </g>
</svg>