<?xml version="1.0" encoding="UTF-8"?>
<svg xmlns="http://www.w3.org/2000/svg" xmlns:xlink="http://www.w3.org/1999/xlink" viewBox="0 0 64 64">
  <defs>
    <style>
      .cls-1 {
        fill: url(#linear-gradient-2);
      }

      .cls-2 {
        fill: #9c5043;
      }

      .cls-3, .cls-4 {
        fill: #fff;
      }

      .cls-5 {
        fill: #8c8587;
      }

      .cls-5, .cls-6, .cls-7, .cls-8 {
        mix-blend-mode: overlay;
      }

      .cls-9 {
        fill: #fdc01b;
      }

      .cls-10 {
        isolation: isolate;
      }

      .cls-4, .cls-8 {
        opacity: .5;
      }

      .cls-11, .cls-12 {
        fill: #2b2829;
      }

      .cls-11, .cls-13 {
        mix-blend-mode: screen;
      }

      .cls-14 {
        fill: #dcc2a7;
      }

      .cls-15 {
        opacity: .3;
      }

      .cls-16 {
        fill: #fde41b;
      }

      .cls-6 {
        fill: #8c9399;
      }

      .cls-17 {
        fill: #fb7f1c;
      }

      .cls-18, .cls-19 {
        mix-blend-mode: multiply;
      }

      .cls-18, .cls-8 {
        fill: #88b6e4;
      }

      .cls-20 {
        fill: #ffad12;
      }

      .cls-19 {
        fill: #f7c9b6;
        opacity: .43;
      }

      .cls-7 {
        fill: #8c9499;
      }

      .cls-21 {
        fill: url(#linear-gradient);
      }

      .cls-22 {
        fill: #ffa4cd;
      }
    </style>
    <linearGradient id="linear-gradient" x1="64" y1="34.03" x2="5.45" y2="34.03" gradientUnits="userSpaceOnUse">
      <stop offset="0" stop-color="#cf965b"/>
      <stop offset=".25" stop-color="#ca9257"/>
      <stop offset=".51" stop-color="#be864c"/>
      <stop offset=".78" stop-color="#a9733a"/>
      <stop offset="1" stop-color="#925d26"/>
    </linearGradient>
    <linearGradient id="linear-gradient-2" x1="61.28" y1="31.49" x2="1.36" y2="31.49" gradientUnits="userSpaceOnUse">
      <stop offset="0" stop-color="#e8b886"/>
      <stop offset=".25" stop-color="#e3b482"/>
      <stop offset=".5" stop-color="#d7a877"/>
      <stop offset=".76" stop-color="#c29464"/>
      <stop offset="1" stop-color="#a97c4e"/>
    </linearGradient>
  </defs>
  <g class="cls-10">
    <g id="_Слой_2" data-name="Слой 2">
      <g id="_Слой_1-2" data-name="Слой 1">
        <g>
          <g>
            <path class="cls-21" d="M60.49,6.68c-1.75-1.6-4.41-2.62-7.38-2.62H14.98c-5.26,0-9.53,3.19-9.53,7.11V55.87c0,2.22,1.37,4.2,3.51,5.51,1.75,1.6,4.41,2.62,7.38,2.62H54.47c5.26,0,9.53-3.19,9.53-7.11V12.19c0-2.22-1.37-4.2-3.51-5.51Z"/>
            <path class="cls-1" d="M57.77,4.65c-.41-.37-.86-.71-1.36-1.02-1.75-1.6-4.41-2.62-7.38-2.62H10.89C5.64,1.02,1.36,4.21,1.36,8.13V52.83c0,2.22,1.37,4.2,3.51,5.51,.41,.37,.86,.71,1.36,1.02,1.75,1.6,4.41,2.62,7.38,2.62H51.74c5.26,0,9.53-3.19,9.53-7.11V10.16c0-2.22-1.37-4.2-3.51-5.51Z"/>
            <path class="cls-14" d="M47.66,0H9.53C4.28,0,0,3.19,0,7.11V51.81c0,3.92,4.28,7.11,9.53,7.11H47.66c5.26,0,9.53-3.19,9.53-7.11V7.11c0-3.92-4.28-7.11-9.53-7.11Z"/>
          </g>
          <path class="cls-7" d="M5.89,14.33c-.01-2.85,.17-6.06,2.96-8,2.12-1.47,5.21-1.81,8.09-1.99,6.68-.42,13.42-.36,20.09,.18,3.3,.26,6.79,.71,9.28,2.36,3.69,2.45,3.93,6.61,3.9,10.29-.08,9.24-.15,18.48-.23,27.72-.02,2.2-.08,4.51-1.54,6.42-1.54,2-4.45,3.25-7.46,3.8-3.01,.55-6.15,.48-9.24,.41-5.15-.12-10.31-.24-15.43-.71-2.79-.26-9.22-.18-10.19-2.65-.66-1.68-.07-4.15-.07-5.9,0-2.02-.02-4.03-.03-6.05-.02-4.03-.04-8.06-.06-12.1-.02-4.59-.04-9.18-.07-13.78Z"/>
          <path class="cls-6" d="M20.65,20.31c-3.25-.39-6.54-1.19-8.94-2.87-2.39-1.69-3.67-4.43-2.38-6.69,.89-1.57,2.87-2.69,5.01-3.3,2.14-.61,4.45-.77,6.74-.89,5.74-.3,11.52-.39,17.22,.17,2.22,.22,4.55,.57,6.21,1.7,2.93,1.99,2.55,5.66,.4,8.14-5.33,6.17-16.02,4.75-24.26,3.75Z"/>
          <path class="cls-11" d="M9.75,46.11c-.57-1.77-.49-3.61-.4-5.43,.37-7.55,.74-15.09,1.11-22.64,.14-2.75,.39-5.74,2.81-7.82,2.2-1.89,5.7-2.58,9.03-2.93,4.04-.42,8.14-.47,12.2-.14,3.7,.3,7.69,1.06,9.9,3.3,1.87,1.9,2.03,4.41,2.12,6.77,.33,9.07,.66,18.2-1.13,27.18-.4,1.99-1,4.12-2.97,5.5-2.25,1.58-5.63,1.75-8.72,1.75-5.06,0-10.12-.25-15.13-.73-4.65-.45-7.58-.99-8.81-4.8Z"/>
          <path class="cls-18" d="M47.66,1.02h-1.63c4.51,0,8.17,2.73,8.17,6.1V51.81c0,3.37-3.66,6.1-8.17,6.1h1.63c4.51,0,8.17-2.73,8.17-6.1V7.11c0-3.37-3.66-6.1-8.17-6.1Z"/>
          <path class="cls-8" d="M44.83,56.21c2.15-.26,4.29-1.07,5.39-2.47,.86-1.09,1-2.4,1.05-3.66,.05-1.24,.02-2.47-.08-3.71-.07-.81-.31-1.78-1.32-2.08-.75-.23-1.65,.04-2.16,.52-.51,.47-.69,1.1-.74,1.7-.11,1.25,.25,2.52-.08,3.75-.39,1.42-1.68,2.63-3.23,3.51-1.13,.64-4.12,1.25-4.5,2.21,1.43,.58,4.04,.42,5.67,.23Z"/>
          <path class="cls-5" d="M3.88,2.71c-1.55,1.11-2.52,2.67-2.52,4.4v26.08c12.35-3.44,32.73-4.39,54.47,14.33v-14.97C26.86,28.05,11.39,13.17,3.88,2.71Z"/>
          <path class="cls-4" d="M3.58,9.23c.26-1.79,1.27-3.6,3.21-4.67,2.66-1.47,6.31-1.25,9.61-.96,1.02,.09,2.32,.39,2.36,1.15,.03,.67-.97,1.08-1.84,1.21-2.2,.34-4.63-.04-6.59,.77-1.42,.58-2.33,1.69-2.8,2.85s-.56,2.38-.73,3.58c-.07,.46-.15,.93-.44,1.34-1.08,1.49-2.05,.48-2.43-.37-.6-1.35-.53-3.5-.32-4.91Z"/>
          <g class="cls-13">
            <path class="cls-12" d="M36.44,9.78c.84,1.55-.18,3.32-2.26,3.94-2.08,.62-4.45-.13-5.29-1.69-.84-1.55,.18-3.32,2.26-3.94,2.08-.62,4.45,.13,5.29,1.69Z"/>
            <path class="cls-12" d="M43.37,11.71c.45,.84-.09,1.78-1.21,2.12-1.12,.34-2.39-.07-2.84-.91-.45-.84,.09-1.78,1.21-2.12,1.12-.34,2.39,.07,2.84,.91Z"/>
            <path class="cls-12" d="M40.11,16.13c.37,.7-.08,1.49-1.01,1.77-.93,.28-1.99-.06-2.37-.76-.37-.7,.08-1.49,1.01-1.77,.93-.28,1.99,.06,2.37,.76Z"/>
          </g>
          <g class="cls-13">
            <path class="cls-12" d="M23.64,45.38c.8,1.49-.17,3.17-2.16,3.77-1.99,.6-4.25-.13-5.05-1.61-.8-1.49,.17-3.17,2.16-3.77,1.99-.6,4.25,.13,5.05,1.61Z"/>
            <path class="cls-12" d="M20.79,40.39c.22,.41-.05,.87-.59,1.03-.54,.16-1.16-.03-1.38-.44-.22-.41,.05-.87,.59-1.03,.54-.16,1.16,.03,1.38,.44Z"/>
            <path class="cls-12" d="M15.3,41.5c.45,.84-.09,1.78-1.21,2.12-1.12,.34-2.39-.07-2.84-.91-.45-.84,.09-1.78,1.21-2.12,1.12-.34,2.39,.07,2.84,.91Z"/>
          </g>
          <g class="cls-15">
            <ellipse class="cls-18" cx="47.45" cy="37.02" rx="3.85" ry="2.87"/>
            <path class="cls-18" d="M53.92,29.6c.58,1.08-.12,2.3-1.57,2.74-1.45,.43-3.09-.09-3.67-1.17-.58-1.08,.12-2.3,1.57-2.74,1.45-.43,3.09,.09,3.67,1.17Z"/>
            <path class="cls-18" d="M45.56,30.99c.37,.7-.08,1.49-1.01,1.77-.93,.28-1.99-.06-2.37-.75-.37-.7,.08-1.49,1.01-1.77,.93-.28,1.99,.06,2.37,.76Z"/>
            <path class="cls-18" d="M10.65,25.55c.41,.75-.09,1.61-1.1,1.92-1.01,.3-2.16-.06-2.57-.82-.41-.75,.09-1.61,1.1-1.92,1.01-.3,2.16,.06,2.57,.82Z"/>
            <path class="cls-18" d="M11.29,21.09c.21,.39-.04,.84-.57,1-.53,.16-1.13-.03-1.34-.43-.21-.39,.04-.84,.57-1,.53-.16,1.13,.03,1.34,.43Z"/>
            <path class="cls-18" d="M6.59,20.15c.34,.63-.07,1.34-.91,1.59-.84,.25-1.79-.05-2.13-.68-.34-.63,.07-1.34,.91-1.59,.84-.25,1.79,.05,2.13,.68Z"/>
          </g>
        </g>
      </g>
      <g id="_Слой_8" data-name="Слой 8">
        <g>
          <path class="cls-3" d="M34.37,41.18c-.11-.08-.16-.21-.09-.34,.05-.09,.17-.14,.27-.12,.03-.05,.08-.09,.16-.1,.49-.08,.93-.31,1.36-.55,.42-.24,.84-.46,1.26-.7,1.57-.91,2.89-2.09,3.93-3.58,.83-1.19,1.47-2.49,2.13-3.79,.61-2.22,.55-4.61,.41-6.88-.08-1.29-.24-2.57-.76-3.76-.26-.6-.62-1.15-1-1.68-.61-1.05-1.38-2.02-2.27-2.86-1.24-1.4-2.66-2.6-4.47-3.1,0-.01,0-.02,.01-.03,.32-.83,.64-1.67,.89-2.52,.43-1.46,.5-3.09-.54-4.32-.89-1.04-2.34-1.25-3.5-.53-1.33,.83-1.6,2.39-1.88,3.81-.03,.16,0,.3,.07,.41-.09,.46-.17,.94-.11,1.39-2.51-.57-5.19-.76-7.56,.28-.37-.45-.78-.88-1.16-1.28-.85-.91-1.73-1.85-2.81-2.49-.72-.43-1.78-.74-2.77-.73-.19,.04-.37,.08-.56,.13-.02,.02-.04,.04-.06,.05-.51,.31-.95,.71-1.24,1.24-.48,.87-.86,1.6-.44,2.48,.27,.55,1.08,1.34,1.53,1.75,.44,.4,.92,.76,1.37,1.16,.06,.06,.08,.13,.08,.19,.06,.03,.12,.06,.18,.09-3.24,1.55-5.64,4.49-6.71,7.93-.63,2.03-.76,4.17-.43,6.27,.25,1.63,.74,3.61,1.75,5.04-.79-.11-1.57,.24-2.24,.75-.58,.44-1.15,.91-1.55,1.48-.52-.08-1.06-.04-1.52,.14-.19,.05-.37,.13-.52,.22-.97,.61-1.74,1.8-1.39,2.97,.3,1,1.03,1.47,1.86,1.56-.33,.29-.55,.68-.64,1.1-.23,.37-.3,.8-.04,1.28,.52,.93,1.57,.73,2.39,.36,.07,.09,.15,.18,.24,.28,.37,.44,.68,.91,1.09,1.31,.38,.39,.91,.93,1.48,1.24-.34,.46-.59,.99-.3,1.43,.32,.18,.68,.29,1.03,.39,.17,.05,.34,.09,.51,.13,.17,0,.34,0,.5,.03,.35,.06,.68,.21,1.01,.36,.04-.03,.09-.06,.16-.06,1.28-.03,2.9,.29,3.74-.93,.03-.05,.08-.08,.12-.1,.02-.03,.04-.06,.06-.1,1.52,.6,3.11,.44,4.67-.05,.88-.27,1.72-.66,2.57-1.02,.97-.41,1.97-.69,2.98-.99,.13-.04,.25-.08,.37-.11,.03-.05,.07-.09,.13-.12,1.06-.42,2.14-.77,3.19-1.2,.96-.39,1.87-.97,2.89-1.23,.18-.15,.32-.34,.42-.57,.1-.25,.11-.45,.08-.64,.08-.01,.16-.04,.24-.06-.14-.28-.33-.53-.57-.72Z"/>
          <path class="cls-16" d="M44.18,30.76c-.17-.05-.37,.01-.46,.22-.55,1.41-1.21,2.77-2.04,4.05-.71,1.1-1.55,2.07-2.37,3.07-1.25,1.02-2.69,1.76-4.27,2.21-.15,.04-.19,.2-.15,.33-.18,.1-.18,.42,.08,.46,.05,0,.11,.02,.16,.03,.02,.03,.05,.06,.09,.08,3.3,1.84,6.86,1.8,10.49,1.25,1.5-.22,3.26-.25,4.6-1.01,1.13-.64,2.07-1.84,2.2-3.15,0,0,0-.01,0-.02,.88-4.29-4.47-10.19-8.34-7.52Z"/>
          <path class="cls-19" d="M7.44,43.55c-.33-.16-.67-.23-1.02-.33-.28-.08-.78-.2-.75-.57,.04-.38-.53-.43-.64-.09-.4,1.22,1.44,1.72,2.32,1.58,.26-.04,.34-.47,.09-.58Z"/>
          <path class="cls-19" d="M8.89,37.21c-.23-.3-.65-.04-.68,.27-.08,.82-.38,1.53-1.18,1.9-.74,.34-1.92,.01-1.93-.96,0-.44-.69-.58-.79-.12-.18,.8-.1,1.51,.51,2.11,.59,.58,1.55,.73,2.33,.53,1.41-.35,2.77-2.43,1.75-3.73Z"/>
          <path class="cls-19" d="M33.45,28.51c-1.77,.19-1.94,2.65-1.43,3.97,.19,.51,.89,.46,.95-.11,.07-.63-.31-2.64,.59-2.82,.58-.12,.49-1.11-.12-1.04Z"/>
          <path class="cls-19" d="M36.42,26.89c-.05-.19-.25-.39-.47-.37-.4,.04-.77,.2-1.14,.33-.25,.09-.42,.31-.35,.58,.06,.25,.33,.42,.58,.35,.38-.1,.79-.16,1.14-.35,.19-.1,.29-.34,.24-.55Z"/>
          <path class="cls-19" d="M43.93,27.32c-.01-.34-.54-.35-.53,0,.11,2.32-.89,4.5-2.15,6.39-1.21,1.81-2.77,3.35-4.79,4.22-4.12,1.78-8.81,1.66-13.02,.29-.67-.22-1.17,.86-.5,1.16,2.21,.99,4.65,1.47,7.08,1.44-.06,.26,.08,.57,.4,.54,.43-.04,1.2,.05,1.42,.52,.08,.16-.03,.38-.18,.59-.52,.2-1.05,.38-1.56,.58-1.49,.59-2.99,1.18-4.48,1.76-1.4,.55-2.78,.98-4.27,1.23-1.28,.22-3.15,.73-3.98-.65-.31-.53-1.18-.23-1.02,.39,.06,.23,.13,.44,.22,.63-.57,.43-1.15,.88-1.87,1.01-.56,.1-1.1,.06-1.64-.11-.2-.06-1.55-.53-1.29-.85,.27-.33-.06-.96-.49-.67-.35,.24-.56,.61-.54,1.01-.29,.17-.47,.37-.64,.65-.14,.23-.07,.58,.18,.7,1.47,.74,3.48,1.43,5.14,.92,.64-.2,1.61-.96,1.83-1.77,.65,.57,1.55,.78,2.59,.64,1.88-.24,3.78-.73,5.55-1.4,1.83-.7,3.64-1.43,5.46-2.15,.96-.38,1.98-.69,2.9-1.16,.67-.34,1.08-.78,.98-1.55-.03-.21-.23-.37-.45-.42-.11-.26-.33-.46-.59-.6,1.37,.02,2.65-.67,3.68-1.65,2.14-1.11,3.61-2.69,4.71-4.83,1.11-2.16,1.94-4.42,1.85-6.87Z"/>
          <path class="cls-19" d="M34.27,6.17c-.35-.21-.8,.31-.46,.58,2.33,1.87,.93,5.31,.46,7.71-.03,.16,.19,.29,.28,.12,1.34-2.44,2.77-6.61-.29-8.41Z"/>
          <path class="cls-19" d="M18.96,15.67c-1.1-2.29-5.71-3.6-4.43-6.74,.08-.2-.25-.35-.35-.15-.73,1.43-.63,2.72,.44,3.93,1.16,1.31,2.86,1.92,4.11,3.13,.12,.12,.31-.02,.24-.17Z"/>
          <path class="cls-19" d="M29.43,26.02c-.04-.35-.32-.63-.68-.63-.04,0-.09,0-.14,.01-.1,0-.2,0-.31,.02-.3,.04-.61,.16-.83,.37-.31,.3-.38,.79-.07,1.12,.25,.26,.61,.29,.95,.24,.55-.08,1.15-.52,1.09-1.13Z"/>
          <circle class="cls-22" cx="21.48" cy="31.33" r="2.54"/>
          <circle class="cls-22" cx="37.78" cy="28.78" r="2.54"/>
          <path class="cls-22" d="M15.41,10.24c0-.22,.05-.44,.15-.64,.59-1.16,2.09-.88,3.04-.4,1.08,.55,1.95,1.51,2.59,2.52,.4,.62,.8,1.24,1.21,1.85,.08,.11,1.1,1.71,1.05,1.73-.17,.05-.41-.08-.6-.07-.19,.02-.36,.08-.51,.19-.23,.15-.36,.38-.55,.56-.36,.32-.42,.26-.68-.06-1.52-1.86-4.11-2.66-5.4-4.72-.19-.29-.3-.62-.3-.96Z"/>
          <path class="cls-22" d="M30.75,14.36c0-.14,.25-.16,.35-.12,.18,.08,.26,.37,.24,.55,.51-.44,.81,.29,1.28,.2,.34-.06,.46-.56,.55-.82,.45-1.23,1.63-4.84,.21-5.66-.64-.36-1.71-.56-2.14,.24-.37,.7-.17,2.29-.21,3.09-.03,.73-.29,1.9-.28,2.52Z"/>
          <path class="cls-3" d="M46.93,31.18c-.06-.37-.49-.54-.83-.56-.29-.02-.62,.05-.87,.21-.56,.35-.54,1.13,.13,1.35,.46,.15,1.06-.08,1.32-.5,.01,0,.02,0,.04-.01,.19-.08,.25-.31,.22-.49Z"/>
          <path class="cls-3" d="M47.91,31.61c-.06-.06-.14-.08-.22-.06h-.04c-.09,.03-.16,.1-.19,.19-.02,.09,0,.18,.06,.25,.06,.07,.16,.09,.25,.07,.04-.01,.08-.03,.12-.06,.03-.03,.06-.07,.07-.12v-.04c.04-.08,.01-.17-.04-.23Z"/>
          <path class="cls-17" d="M47.67,37.09c-.09-.22-.23-.38-.41-.49-.02-.03-.04-.06-.06-.09-.63-.75-1.51-.7-2.19,.03-.36,.38-.85,.79-.58,1.24,.28,.44,.78,.61,1.27,.65,.7,.06,2.42-.25,1.96-1.34Z"/>
          <path class="cls-9" d="M52.8,36.72c-.03-.22-.33-.29-.43-.08,0,.02-.01,.03-.02,.05-.3,.96-.48,1.95-1.08,2.78-.19,.26-.39,.47-.6,.65-.31,.2-.64,.37-.98,.52-.31,.09-.64,.15-1.01,.17-.8,.06-1.41,.51-2.18,.67-1.11,.23-2.96,0-3.88-.52-.72-.41-1.46-1.42-1.68-2.28-.29-1.15,.86-2.53,1.39-3.49,.69-1.25,1.37-2.59,1.25-4.06-.84,1.92-1.69,3.86-2.96,5.53-1.27,1.67-3.01,3.07-5.06,3.52-.2,.04-.41,.08-.57,.21-.16,.13-.23,.39-.09,.54,.06,.07,.15,.1,.23,.13,2.98,1.08,6.86,2.29,10.04,1.69,1.54-.29,3.15-.68,4.61-1.29,.86-.36,1.66-.86,2.19-1.59,.49-.03,.66-.79,.81-1.19,.11-.29,.13-.6,.14-.91,.01-.43,.02-.67-.11-1.06Z"/>
          <path class="cls-3" d="M49.33,36.88c-.03-.06-.09-.12-.15-.15-.03-.02-.06-.03-.09-.04-.06-.02-.11-.01-.17,0-.02,0-.05,.02-.07,.03-.04,.02-.07,.05-.09,.08-.04,.05-.07,.11-.07,.17,0,.04,0,.08,0,.11,0,.05,.02,.11,.05,.15,.03,.05,.06,.08,.1,.11,.08,.06,.18,.08,.28,.06,.14-.03,.24-.15,.27-.29,.01-.08,0-.17-.04-.24Z"/>
          <path class="cls-20" d="M42.86,38.71c-.37-.08-.76,.02-1.03,.32-.11,.07-.21,.16-.28,.27-.21,.33-.2,.78-.01,1.12,.33,.6,1.13,.77,1.71,.42,.23-.14,.4-.35,.49-.59,.04-.07,.08-.14,.1-.22,.2-.66-.33-1.31-.98-1.32Z"/>
          <path class="cls-20" d="M50.12,36.87c-.11,.07-.21,.16-.29,.27-.37,.22-.56,.66-.42,1.08,.31,.99,1.9,.92,2.29,.03,.39-.9-.73-1.88-1.57-1.37Z"/>
          <path class="cls-2" d="M11.75,33.78c-1.47-2.51-2.13-5.42-1.83-8.32,.29-2.78,1.46-5.45,3.27-7.57,1.06-1.24,2.32-2.29,3.73-3.12,.28-.16,.03-.59-.25-.43-2.55,1.5-4.65,3.73-5.93,6.41-1.25,2.63-1.68,5.6-1.19,8.47,.29,1.69,.9,3.32,1.77,4.8,.16,.28,.59,.03,.43-.25h0Z"/>
          <path class="cls-2" d="M12.51,34.14c-1.68-.69-3.76,.2-4.9,1.5-.2,.23-.43,.52-.48,.83-.05,.31,.43,.45,.48,.13,.05-.27,.27-.53,.48-.75,.34-.35,.73-.64,1.16-.87,.95-.53,2.09-.79,3.14-.36,.3,.12,.42-.36,.13-.48h0Z"/>
          <path class="cls-2" d="M6.66,37.45c.28-.35,.73-.49,1.17-.39,.47,.11,.8,.51,.92,.97,.27,1.04-.58,2.15-1.47,2.59-.91,.46-1.98,.1-2.53-.73-.56-.86-.37-2,.3-2.74,.4-.44,.98-.79,1.59-.75,.55,.04,1.05,.49,.98,1.06-.04,.32,.46,.31,.5,0,.07-.63-.37-1.22-.94-1.45-.65-.26-1.42-.05-1.98,.34-1.01,.71-1.58,2.11-1.12,3.31,.46,1.19,1.8,1.96,3.05,1.56,1.2-.39,2.33-1.75,2.15-3.06-.09-.68-.52-1.32-1.18-1.55-.62-.21-1.37-.05-1.78,.48-.2,.25,.15,.6,.35,.35h0Z"/>
          <path class="cls-2" d="M6.07,41.32c.66,2.4,2.38,4.47,4.63,5.55,.29,.14,.54-.29,.25-.43-2.14-1.02-3.78-2.96-4.4-5.25-.08-.31-.56-.18-.48,.13h0Z"/>
          <path class="cls-2" d="M16.89,46.89c.15,.52,.07,1.01-.35,1.38-.41,.36-.99,.52-1.51,.6-.52,.08-1.07,.08-1.58-.06-.53-.14-1.04-.34-1.55-.52-.28-.1-.58-.14-.87-.22-.22-.06-.63-.17-.59-.48,.05-.41,.53-.75,.79-1.02,.22-.23-.13-.58-.35-.35-.32,.34-.72,.66-.88,1.11-.14,.37-.01,.74,.31,.97,.29,.21,.67,.28,1.01,.35,.48,.11,.94,.29,1.4,.45,.7,.23,1.38,.36,2.12,.29,.66-.06,1.35-.24,1.89-.64,.65-.48,.87-1.23,.64-2-.09-.31-.57-.18-.48,.13h0Z"/>
          <path class="cls-2" d="M11.29,46.53c.22-.28,.44-.56,.71-.78,.26-.2,.56-.32,.88-.37,.29-.05,.6,0,.88,.03,.3,.04,.62,.09,.91,.18,.3,.1,.43-.38,.13-.48-.33-.11-.68-.16-1.02-.2-.35-.04-.69-.07-1.04-.01-.81,.13-1.33,.66-1.82,1.28-.08,.11-.1,.25,0,.35,.09,.09,.27,.11,.35,0h0Z"/>
          <path class="cls-2" d="M5.78,41.14c-.31,.35-.63,.72-.8,1.16-.16,.42-.17,.93,.06,1.33,.23,.37,.67,.63,1.08,.75,.43,.13,.89,.02,1.32,.09,.13,.02,.27-.03,.31-.17,.03-.12-.04-.28-.17-.31-.38-.06-.77,0-1.15-.05-.32-.04-.71-.23-.91-.49-.22-.28-.19-.67-.07-.99,.14-.37,.42-.67,.68-.97,.21-.24-.14-.59-.35-.35h0Z"/>
          <path class="cls-2" d="M17.04,48.13c1.58,.5,3.26,.27,4.84-.09,.75-.17,1.47-.43,2.2-.7,1.99-.74,3.95-1.56,5.92-2.37,.78-.32,1.56-.65,2.34-.95,.3-.11,.17-.6-.13-.48-1.64,.63-3.25,1.33-4.87,1.99-.99,.4-1.98,.8-2.98,1.18-.7,.27-1.41,.54-2.13,.74-1.61,.44-3.42,.72-5.04,.2-.31-.1-.44,.38-.13,.48h0Z"/>
          <path class="cls-2" d="M35.15,13.94c2.36,.75,4.37,2.34,5.82,4.33,1.4,1.92,2.34,4.17,2.68,6.52,.32,2.14,.13,4.36-.5,6.43-.62,2.06-1.69,3.99-3.14,5.59-1.46,1.62-3.31,2.89-5.37,3.63-.27,.09-.53,.18-.81,.26-.31,.09-.18,.57,.13,.48,2.2-.63,4.21-1.82,5.84-3.43,1.59-1.57,2.8-3.52,3.57-5.62,.76-2.11,1.07-4.4,.86-6.63-.23-2.41-1.05-4.75-2.36-6.78-1.38-2.14-3.32-3.93-5.68-4.91-.3-.12-.6-.23-.9-.33-.31-.1-.44,.38-.13,.48h0Z"/>
          <path class="cls-2" d="M22.72,12.36c2.33-.65,4.86-.89,7.22-.26,.31,.08,.44-.4,.13-.48-2.45-.66-5.07-.42-7.49,.26-.31,.09-.18,.57,.13,.48h0Z"/>
          <path class="cls-2" d="M26.55,28.42c.08,.47,.2,.96,.57,1.29,.27,.24,.62,.35,.96,.17,.57-.29,.83-1.1,.89-1.69-.16,.02-.33,.04-.49,.07,.17,.44,.35,.9,.74,1.18,.25,.18,.59,.24,.89,.13,.79-.3,.8-1.3,.54-1.96-.11-.3-.59-.17-.48,.13,.15,.4,.29,1.15-.23,1.36-.52,.21-.84-.6-.98-.98-.1-.27-.46-.22-.49,.07-.04,.38-.22,.96-.56,1.22-.16,.12-.32,.07-.47-.08-.28-.27-.34-.67-.41-1.03-.05-.31-.53-.18-.48,.13h0Z"/>
          <path class="cls-2" d="M25.96,27.36c-.18-1.52-2.09-2.72-3.34-1.46-.35,.35-.5,.82-.5,1.3,.17-.13,.38-.22,.59-.2,.17,.02,.32,.13,.41,.28,.17,.29,.19,.67,.07,.99-.06,.16-.17,.3-.32,.36-.09,.04-.19,.04-.28,.03,.06,.08,.12,.17,.2,.24,.53,.56,1.34,.76,2.06,.46,.76-.32,1.2-1.19,1.11-1.99Z"/>
          <path class="cls-2" d="M34.71,26.15c-.2-.41-.55-.77-.97-.99-.46-.24-1-.3-1.49-.07-.61,.29-.9,.86-.97,1.48,0,0,0,0,.01,0,0,0,0,0,0,0,0,0,.01,0,.02-.01,.03-.02,.05-.03,.08-.04,.04-.02,.08-.03,.12-.04,.06-.01,.13-.01,.19,0,.15,.03,.27,.12,.37,.23,.08,.09,.15,.2,.2,.31,.05,.11,.08,.22,.08,.34,0,.15-.03,.3-.12,.43-.08,.12-.22,.18-.36,.16-.17-.02-.3-.14-.4-.28-.04-.02-.08-.04-.11-.07,0,0,0,0,0,0,.26,1.02,1.32,1.76,2.37,1.35,1.02-.39,1.44-1.84,.98-2.79Z"/>
          <path class="cls-2" d="M24.79,15.42c-1.15-2.91-3.29-5.57-6.04-7.11-.73-.41-1.55-.73-2.39-.74-.77,0-1.51,.27-2.09,.77-1.2,1.05-1.35,2.92-.37,4.17,.57,.73,1.4,1.2,2.12,1.76,.82,.63,1.6,1.31,2.34,2.04,.23,.23,.58-.13,.35-.35-.6-.59-1.22-1.16-1.88-1.68-.62-.5-1.29-.93-1.9-1.43-.58-.48-1.03-1.05-1.16-1.81-.12-.7,.06-1.44,.51-1.99,.43-.54,1.07-.9,1.76-.97,.79-.08,1.57,.19,2.27,.55,1.3,.68,2.46,1.68,3.44,2.78,1.09,1.22,1.96,2.63,2.56,4.14,.12,.29,.6,.17,.48-.13h0Z"/>
          <path class="cls-2" d="M34.08,15.84c.88-1.35,1.6-2.83,2.09-4.37,.44-1.38,.61-2.96-.19-4.25-.68-1.09-1.92-1.68-3.18-1.27-1.35,.44-2.18,1.67-2.52,3-.45,1.73-.16,3.54-.5,5.29-.06,.31,.42,.45,.48,.13,.28-1.45,.14-2.92,.33-4.38,.16-1.28,.63-2.61,1.79-3.3,.49-.3,1.09-.46,1.66-.34,.54,.11,1.01,.45,1.35,.88,.84,1.09,.76,2.52,.41,3.77-.46,1.62-1.23,3.17-2.14,4.58-.17,.27,.26,.52,.43,.25h0Z"/>
          <path class="cls-2" d="M28.96,41.39c.78-.25,1.59-.4,2.41-.43,.76-.02,1.56,.02,2.29,.25,.51,.16,1.2,.66,.9,1.28-.14,.31-.61,.39-.9,.49-.4,.14-.8,.29-1.2,.43-.3,.11-.17,.59,.13,.48,.38-.14,.75-.27,1.13-.41,.31-.11,.67-.2,.95-.39,.49-.34,.54-.99,.3-1.5-.27-.55-.89-.82-1.45-.95-.71-.16-1.45-.22-2.18-.19-.85,.03-1.69,.18-2.5,.44-.3,.1-.17,.58,.13,.48h0Z"/>
          <path class="cls-2" d="M23.27,23.62c-.58,.4-1.08,.89-1.48,1.46-.07,.11-.02,.28,.09,.34,.13,.07,.26,.02,.34-.09,.05-.06,.09-.13,.14-.19-.03,.04,.02-.02,.02-.02,0-.01,.02-.02,.03-.04,.02-.03,.05-.06,.08-.09,.1-.12,.21-.24,.33-.36,.11-.11,.23-.22,.35-.32,.03-.03,.06-.05,.09-.07,.01,0,.04-.03,.01-.01,.02-.01,.03-.02,.05-.04,.07-.05,.13-.1,.2-.14,.11-.07,.17-.22,.09-.34-.07-.11-.23-.17-.34-.09h0Z"/>
          <path class="cls-2" d="M32.16,22.32c.47,.07,.94,.19,1.38,.37,.12,.05,.28-.05,.31-.17,.03-.14-.04-.25-.17-.31-.44-.18-.91-.3-1.38-.37-.13-.02-.27,.03-.31,.17-.03,.12,.04,.29,.17,.31h0Z"/>
          <path class="cls-2" d="M43.6,31.19c.85-.54,1.83-.77,2.83-.67,.99,.11,1.93,.53,2.75,1.08,1.64,1.11,3.02,2.91,3.37,4.89,.19,1.07-.01,2.22-.56,3.15-.27,.46-.63,.87-1.07,1.18-.54,.38-1.17,.57-1.8,.73-1.45,.35-2.92,.65-4.39,.86-1.17,.16-2.36,.24-3.54,.12-1.06-.11-2.12-.32-3.16-.59-.98-.25-1.96-.55-2.87-1-.18-.09-.35-.19-.52-.29-.27-.17-.52,.26-.25,.43,.85,.54,1.84,.87,2.8,1.15,1.11,.32,2.24,.57,3.38,.72,1.18,.16,2.32,.17,3.51,.04,1.56-.17,3.1-.5,4.64-.84,.69-.15,1.39-.31,2.02-.64,.52-.27,.97-.65,1.33-1.11,.72-.92,1.07-2.11,1.04-3.27-.07-2.16-1.46-4.2-3.1-5.51-1.64-1.32-3.87-2.11-5.91-1.25-.26,.11-.51,.24-.75,.4-.27,.17-.02,.6,.25,.43h0Z"/>
          <path class="cls-2" d="M45.4,36.46c.66-.45,1.68-.11,2.05,.56,0,0,.03,.07,.01,.02,0,.02,.02,.04,.02,.06,.01,.04,.02,.09,.03,.13,0-.05,0,.05,0,.07,0,.02,0,.04,0,.07,0-.06,0,.03-.01,.04-.02,.09-.04,.13-.11,.23-.04,.05-.13,.15-.21,.2-.29,.22-.65,.3-1,.36-.31,.05-.66,.07-.95-.06-.3-.14-.47-.47-.45-.8,.03-.33,.25-.6,.53-.76,.28-.16,.03-.58-.25-.43-.74,.41-1.03,1.39-.49,2.08,.27,.35,.69,.49,1.11,.51,.42,.02,.89-.06,1.28-.21,.58-.23,1.14-.73,1.02-1.42-.09-.51-.54-.92-1-1.13-.58-.27-1.3-.32-1.86,.06-.11,.08-.16,.22-.09,.34,.06,.11,.23,.17,.34,.09h0Z"/>
          <path class="cls-2" d="M45.8,37.79c.09-.02,.17-.04,.26-.06,.03,0,.06-.02,.08-.04,.03-.02,.05-.04,.06-.07,.02-.03,.03-.06,.03-.09,0-.03,0-.07,0-.1,0-.02-.02-.04-.03-.06-.02-.04-.05-.07-.09-.09-.02,0-.04-.02-.06-.03-.04-.01-.09-.01-.13,0-.09,.02-.17,.04-.26,.06-.03,0-.06,.02-.08,.04-.03,.02-.05,.04-.06,.07-.02,.03-.03,.06-.03,.09,0,.03,0,.07,0,.1,0,.02,.02,.04,.03,.06,.02,.04,.05,.07,.09,.09,.02,0,.04,.02,.06,.03,.04,.01,.09,.01,.13,0h0Z"/>
          <path class="cls-2" d="M36.63,26.84c-.96,.05-1.83,.63-2.49,1.29-.77,.78-1.37,1.8-1.56,2.88-.11,.62-.09,1.26,.1,1.86,.1,.3,.58,.17,.48-.13-.59-1.88,.63-4.01,2.23-4.98,.37-.23,.79-.4,1.23-.42,.32-.02,.32-.51,0-.5h0Z"/>
          <circle class="cls-2" cx="48.97" cy="36.8" r=".8"/>
          <circle class="cls-2" cx="43.41" cy="37.78" r=".8"/>
        </g>
      </g>
    </g>
  </g>
</svg>