<?xml version="1.0" encoding="UTF-8"?>
<svg xmlns="http://www.w3.org/2000/svg" xmlns:xlink="http://www.w3.org/1999/xlink" viewBox="0 0 64 64">
  <defs>
    <style>
      .cls-1 {
        fill: url(#linear-gradient-2);
      }

      .cls-2, .cls-3 {
        fill: #fff;
      }

      .cls-4, .cls-5 {
        fill: #cca3b1;
        mix-blend-mode: multiply;
      }

      .cls-6 {
        fill: #fb93a0;
      }

      .cls-7 {
        isolation: isolate;
      }

      .cls-8 {
        fill: #ffe982;
      }

      .cls-3, .cls-9 {
        opacity: .5;
      }

      .cls-10, .cls-11 {
        fill: #2b2829;
      }

      .cls-10, .cls-12 {
        mix-blend-mode: screen;
      }

      .cls-5 {
        opacity: .3;
      }

      .cls-13 {
        fill: #ffbb2c;
      }

      .cls-9 {
        fill: #e6cfd7;
      }

      .cls-9, .cls-14, .cls-15 {
        mix-blend-mode: overlay;
      }

      .cls-16 {
        fill: #fa6070;
      }

      .cls-17 {
        fill: #ddbbaf;
      }

      .cls-14 {
        fill: #998a8f;
      }

      .cls-18 {
        fill: #639c33;
      }

      .cls-15 {
        fill: #8c8588;
      }

      .cls-19 {
        fill: #dcc0a7;
      }

      .cls-20 {
        fill: #e58917;
      }

      .cls-21 {
        fill: #421f11;
      }

      .cls-22 {
        fill: url(#linear-gradient);
      }

      .cls-23 {
        fill: #8fc73e;
      }
    </style>
    <linearGradient id="linear-gradient" x1="64" y1="34.03" x2="5.45" y2="34.03" gradientUnits="userSpaceOnUse">
      <stop offset="0" stop-color="#cf925b"/>
      <stop offset=".25" stop-color="#ca8e57"/>
      <stop offset=".51" stop-color="#be824c"/>
      <stop offset=".78" stop-color="#a96f3a"/>
      <stop offset="1" stop-color="#925a26"/>
    </linearGradient>
    <linearGradient id="linear-gradient-2" x1="61.28" y1="31.49" x2="1.36" y2="31.49" gradientUnits="userSpaceOnUse">
      <stop offset="0" stop-color="#e8b586"/>
      <stop offset=".25" stop-color="#e3b182"/>
      <stop offset=".5" stop-color="#d7a577"/>
      <stop offset=".76" stop-color="#c29164"/>
      <stop offset="1" stop-color="#a9794e"/>
    </linearGradient>
  </defs>
  <g class="cls-7">
    <g id="_Слой_2" data-name="Слой 2">
      <g id="_Слой_1-2" data-name="Слой 1">
        <g>
          <g>
            <path class="cls-22" d="M60.49,6.68c-1.75-1.6-4.41-2.62-7.38-2.62H14.98c-5.26,0-9.53,3.19-9.53,7.11V55.87c0,2.22,1.37,4.2,3.51,5.51,1.75,1.6,4.41,2.62,7.38,2.62H54.47c5.26,0,9.53-3.19,9.53-7.11V12.19c0-2.22-1.37-4.2-3.51-5.51Z"/>
            <path class="cls-1" d="M57.77,4.65c-.41-.37-.86-.71-1.36-1.02-1.75-1.6-4.41-2.62-7.38-2.62H10.89C5.64,1.02,1.36,4.21,1.36,8.13V52.83c0,2.22,1.37,4.2,3.51,5.51,.41,.37,.86,.71,1.36,1.02,1.75,1.6,4.41,2.62,7.38,2.62H51.74c5.26,0,9.53-3.19,9.53-7.11V10.16c0-2.22-1.37-4.2-3.51-5.51Z"/>
            <path class="cls-19" d="M47.66,0H9.53C4.28,0,0,3.19,0,7.11V51.81c0,3.92,4.28,7.11,9.53,7.11H47.66c5.26,0,9.53-3.19,9.53-7.11V7.11c0-3.92-4.28-7.11-9.53-7.11Z"/>
          </g>
          <path class="cls-14" d="M5.89,14.33c-.01-2.85,.17-6.06,2.96-8,2.12-1.47,5.21-1.81,8.09-1.99,6.68-.42,13.42-.36,20.09,.18,3.3,.26,6.79,.71,9.28,2.36,3.69,2.45,3.93,6.61,3.9,10.29-.08,9.24-.15,18.48-.23,27.72-.02,2.2-.08,4.51-1.54,6.42-1.54,2-4.45,3.25-7.46,3.8-3.01,.55-6.15,.48-9.24,.41-5.15-.12-10.31-.24-15.43-.71-2.79-.26-9.22-.18-10.19-2.65-.66-1.68-.07-4.15-.07-5.9,0-2.02-.02-4.03-.03-6.05-.02-4.03-.04-8.06-.06-12.1-.02-4.59-.04-9.18-.07-13.78Z"/>
          <path class="cls-14" d="M20.65,20.31c-3.25-.39-6.54-1.19-8.94-2.87-2.39-1.69-3.67-4.43-2.38-6.69,.89-1.57,2.87-2.69,5.01-3.3,2.14-.61,4.45-.77,6.74-.89,5.74-.3,11.52-.39,17.22,.17,2.22,.22,4.55,.57,6.21,1.7,2.93,1.99,2.55,5.66,.4,8.14-5.33,6.17-16.02,4.75-24.26,3.75Z"/>
          <path class="cls-10" d="M9.75,46.11c-.57-1.77-.49-3.61-.4-5.43,.37-7.55,.74-15.09,1.11-22.64,.14-2.75,.39-5.74,2.81-7.82,2.2-1.89,5.7-2.58,9.03-2.93,4.04-.42,8.14-.47,12.2-.14,3.7,.3,7.69,1.06,9.9,3.3,1.87,1.9,2.03,4.41,2.12,6.77,.33,9.07,.66,18.2-1.13,27.18-.4,1.99-1,4.12-2.97,5.5-2.25,1.58-5.63,1.75-8.72,1.75-5.06,0-10.12-.25-15.13-.73-4.65-.45-7.58-.99-8.81-4.8Z"/>
          <path class="cls-4" d="M47.66,1.02h-1.63c4.51,0,8.17,2.73,8.17,6.1V51.81c0,3.37-3.66,6.1-8.17,6.1h1.63c4.51,0,8.17-2.73,8.17-6.1V7.11c0-3.37-3.66-6.1-8.17-6.1Z"/>
          <path class="cls-9" d="M44.83,56.21c2.15-.26,4.29-1.07,5.39-2.47,.86-1.09,1-2.4,1.05-3.66,.05-1.24,.02-2.47-.08-3.71-.07-.81-.31-1.78-1.32-2.08-.75-.23-1.65,.04-2.16,.52-.51,.47-.69,1.1-.74,1.7-.11,1.25,.25,2.52-.08,3.75-.39,1.42-1.68,2.63-3.23,3.51-1.13,.64-4.12,1.25-4.5,2.21,1.43,.58,4.04,.42,5.67,.23Z"/>
          <path class="cls-15" d="M3.88,2.71c-1.55,1.11-2.52,2.67-2.52,4.4v26.08c12.35-3.44,32.73-4.39,54.47,14.33v-14.97C26.86,28.05,11.39,13.17,3.88,2.71Z"/>
          <path class="cls-3" d="M3.58,9.23c.26-1.79,1.27-3.6,3.21-4.67,2.66-1.47,6.31-1.25,9.61-.96,1.02,.09,2.32,.39,2.36,1.15,.03,.67-.97,1.08-1.84,1.21-2.2,.34-4.63-.04-6.59,.77-1.42,.58-2.33,1.69-2.8,2.85s-.56,2.38-.73,3.58c-.07,.46-.15,.93-.44,1.34-1.08,1.49-2.05,.48-2.43-.37-.6-1.35-.53-3.5-.32-4.91Z"/>
          <g class="cls-12">
            <ellipse class="cls-11" cx="32.66" cy="10.91" rx="4.07" ry="3.03"/>
            <path class="cls-11" d="M43.37,11.71c.45,.84-.09,1.78-1.21,2.12-1.12,.34-2.39-.07-2.84-.91-.45-.84,.09-1.78,1.21-2.12,1.12-.34,2.39,.07,2.84,.91Z"/>
            <path class="cls-11" d="M40.11,16.13c.37,.7-.08,1.49-1.01,1.77-.93,.28-1.99-.06-2.37-.76-.37-.7,.08-1.49,1.01-1.77,.93-.28,1.99,.06,2.37,.76Z"/>
          </g>
          <g class="cls-12">
            <path class="cls-11" d="M23.64,45.38c.8,1.49-.17,3.17-2.16,3.77-1.99,.6-4.25-.13-5.05-1.61-.8-1.49,.17-3.17,2.16-3.77,1.99-.6,4.25,.13,5.05,1.61Z"/>
            <path class="cls-11" d="M20.79,40.39c.22,.41-.05,.87-.59,1.03-.54,.16-1.16-.03-1.38-.44-.22-.41,.05-.87,.59-1.03,.54-.16,1.16,.03,1.38,.44Z"/>
            <path class="cls-11" d="M15.3,41.5c.45,.84-.09,1.78-1.21,2.12-1.12,.34-2.39-.07-2.84-.91-.45-.84,.09-1.78,1.21-2.12,1.12-.34,2.39,.07,2.84,.91Z"/>
          </g>
          <path class="cls-5" d="M51.02,35.95c.79,1.47-.17,3.15-2.14,3.74-1.98,.59-4.22-.12-5.01-1.6-.79-1.47,.17-3.15,2.14-3.74,1.98-.59,4.22,.12,5.01,1.6Z"/>
          <path class="cls-5" d="M53.92,29.6c.58,1.08-.12,2.3-1.57,2.74-1.45,.43-3.09-.09-3.67-1.17-.58-1.08,.12-2.3,1.57-2.74,1.45-.43,3.09,.09,3.67,1.17Z"/>
          <path class="cls-5" d="M45.56,30.99c.37,.7-.08,1.49-1.01,1.77-.93,.28-1.99-.06-2.37-.76-.37-.7,.08-1.49,1.01-1.77,.93-.28,1.99,.06,2.37,.76Z"/>
          <path class="cls-5" d="M10.65,25.55c.41,.75-.09,1.61-1.1,1.92-1.01,.3-2.16-.06-2.57-.82-.41-.75,.09-1.61,1.1-1.92,1.01-.3,2.16,.06,2.57,.82Z"/>
          <path class="cls-5" d="M11.29,21.09c.21,.39-.04,.84-.57,1-.53,.16-1.13-.03-1.34-.43-.21-.39,.04-.84,.57-1,.53-.16,1.13,.03,1.34,.43Z"/>
          <path class="cls-5" d="M6.59,20.15c.34,.63-.07,1.34-.91,1.59-.84,.25-1.79-.05-2.13-.68-.34-.63,.07-1.34,.91-1.59,.84-.25,1.79,.05,2.13,.68Z"/>
        </g>
        <g id="_Слой_6" data-name="Слой 6">
          <g>
            <g>
              <g>
                <path class="cls-13" d="M21.99,44.96c1.9,.03,3.82-.52,6.85-3.48-.76,0-1.51-.02-2.24-.05-1.31,1.25-2.89,2.54-4.61,3.54Z"/>
                <path class="cls-2" d="M41.07,31.18l-.58,2.08c.51-.09,.96-.14,1.34-.15-.31-.81-.58-1.46-.77-1.93Z"/>
                <path class="cls-13" d="M26.89,24.39c-2.41,.45-4.89-.13-7.21-.67-4.17-.97-7.77-1.81-9.72,3.54-1.11,3.02-1.03,5.59,.22,7.63,1.77,2.89,6.01,4.83,12.26,5.61,.81-.92,1.52-1.98,2.01-3.17,.06-.15,.23-.22,.37-.15,.15,.06,.21,.23,.15,.37-1.86,4.52-6.82,7.41-8.79,7.41-.73,0-1.84-.68-3.02-1.41-.93-.57-1.89-1.16-2.36-1.19-.09,0-.24,.08-.38,.29-.22,.34-.35,.97,0,1.62,.39,.71,1.66,1.91,5.76,1.91,6.84,0,13.76-9.3,13.83-9.39,.09-.13,.27-.15,.4-.06,.13,.09,.15,.27,.06,.4-.12,.16-1.37,1.84-3.29,3.75,.63,.02,1.27,.03,1.91,.03,1.65-.13,3.24-.44,4.71-.87-3.42-2.31-7.51-9.34-6.9-15.65Zm-11,11.37c-.75,.84-1.34,1.24-1.83,1.24-.08,0-.16-.01-.24-.03-.75-.22-.94-1.35-1.16-2.67-.18-1.08-.38-2.3-.91-2.67-.16-.11-.34-.13-.57-.09-.15,.03-.3-.07-.34-.22-.03-.15,.07-.3,.22-.34,.38-.08,.72-.02,1,.17,.73,.5,.95,1.79,1.15,3.04,.16,.98,.35,2.1,.75,2.21,.16,.05,.57-.02,1.48-1.04,3.65-4.1,4.64-6.48,4.37-7.27-.04-.13-.11-.19-.24-.21-.55-.11-1.78,.6-3.08,2.15,0,0,0,0,0,0-.34,.5-.68,1.07-1.02,1.72-.05,.1-.15,.15-.25,.15-.04,0-.09-.01-.13-.03-.14-.07-.19-.25-.12-.38,.35-.66,.7-1.25,1.05-1.76,.34-1.11,.41-2.3,.19-3.44-.11-.58-.42-1.6-1.22-1.95-.48-.21-1.12-.14-1.7,.17-.56,.3-1.03,.78-1.48,1.25-.11,.11-.29,.11-.4,0-.11-.11-.11-.29,0-.4,.48-.49,.98-1.01,1.62-1.35,.75-.41,1.55-.48,2.2-.2,.77,.34,1.33,1.18,1.55,2.37,.17,.88,.18,1.8,.04,2.68,1.09-1.08,2.17-1.67,2.88-1.53,.33,.06,.56,.27,.67,.59,.43,1.27-1.24,4.2-4.48,7.83Z"/>
                <path class="cls-23" d="M28.95,23.72c-.49,.23-.98,.41-1.48,.54-.7,6.32,3.73,13.7,7.05,15.56,.68-.22,1.33-.45,1.95-.71-2.19-1.28-8.25-5.72-7.52-15.39Z"/>
                <path class="cls-13" d="M17.7,44c.7-.29,1.5-.74,2.33-1.33-.18-.11-.36-.22-.54-.33-.93-.57-1.89-1.16-2.36-1.19-.14,0-.4,.2-.53,.62-.19,.64,0,1.55,1.11,2.23Z"/>
                <path class="cls-13" d="M35.55,16.34c.16-.11,.31-.21,.46-.3-1.17-1.93-2.71-3.13-4.36-3.38-1.1-.17-2.16,.12-2.89,.8-.12,.11-.16,.26-.1,.41,.05,.14,.18,.24,.33,.24,2.21,.11,4.95,.26,6.56,2.22Z"/>
                <path class="cls-13" d="M34.91,16.85c-3.24-2.21-6.14-1.01-7.81,.89-.96,1.09-1.13,1.99-.99,2.13,.06,.06,.53,.08,1.77-.94,1.77-1.46,4.27-2.09,6.56-1.64,.16-.16,.32-.31,.47-.44Z"/>
                <path class="cls-13" d="M12.53,23.01c-1.18-.17-2.41,.02-3.46,.54-2.11,1.05-3.66,.95-4.49,.82,1.33,1.46,2.89,.93,4.39,.41,.7-.24,1.36-.47,1.96-.47,.49-.58,1.03-1.01,1.6-1.3Z"/>
                <path class="cls-2" d="M41.22,19.31c0,.11,.09,.2,.21,.2s.21-.09,.21-.2-.09-.21-.21-.21-.21,.09-.21,.21Z"/>
                <circle class="cls-2" cx="40.2" cy="19.41" r=".36"/>
                <path class="cls-6" d="M34.36,33.84s-.01-.01-.02-.02c0,0-.01-.01-.02-.02-.75-.96-.3-3.23,1.15-5.8,.05-.09,.1-.18,.16-.28,0,0,0,0,0,0,1.02,2.11,.52,4.58-1.27,6.13Z"/>
                <path class="cls-13" d="M44.85,19.44c-.6,.43-1.15,.81-1.63,.98,0,0,0,0,0,0-.58,.21-1.57,.4-2.5,.4-.12,0-.24,0-.36-.01,0,0,0,0,0,0,0,0,0,0,0,0-.55-.03-1.04-.15-1.38-.38-.3-.21-.46-.5-.46-.84,0-.07,0-.13,.01-.19,.07-.55,.57-.97,1.15-.97h.01l1.73,.02c-.42-1.12-1.29-2.2-2.54-2.47-1.8-.38-3.88,1.03-5.86,4-1.09,1.63-2.25,2.72-3.46,3.43-.95,10.3,5.98,14.58,7.58,15.42,3.23-1.44,5.47-3.26,5.9-4.37,.14-.36,.02-.49-.02-.53-.18-.19-1.08-.7-5.19,.61-1.9,.61-3.22,.49-3.92-.37-.95-1.17-.55-3.58,1.07-6.47,1.77-3.15,4.83-6.38,7.33-6.03,1.36,.19,2.32,1.39,2.84,3.57,.5,2.08,1.33,3.26,2.34,3.3,1.22,.06,2.67-1.52,3.4-3.66,.27-.79,.44-1.67,.45-2.55-2.23-.29-5.03-1.2-6.48-2.91Z"/>
                <path class="cls-2" d="M44.27,27.62l.86-.55c-.12-.28-.24-.59-.34-.94l-.52,1.49Z"/>
                <path class="cls-2" d="M38.59,31.75c-.27,.72-.54,1.49-.65,2.16,.49-.15,.95-.28,1.38-.39l-.73-1.77Z"/>
                <path class="cls-2" d="M43.93,23.58c-.13,.42-.32,1.07-.45,1.8l.95-.59c-.14-.47-.31-.87-.5-1.21Z"/>
              </g>
              <g>
                <path class="cls-20" d="M13.46,36.65c-.81-3.87-.72-3.72-.96-4.3-1.29-3.11-6.1,.97,.96,4.3Z"/>
                <path class="cls-20" d="M18.27,33.96c-.59,.74-1.2,1.4-1.8,1.96-.61,.56-1.18,1.02-1.79,1.32-.07,.04-.17,.07-.25,.1-.1,.02-.21,.05-.3,.04-.19,0-.35-.06-.48-.13-.27-.14-.44-.34-.51-.54-.08-.2-.06-.38-.02-.47,.04-.1,.1-.13,.12-.12,.07,.02,.02,.22,.2,.42,.16,.19,.61,.44,.95,.15,.45-.29,.97-.79,1.52-1.35,.54-.57,1.12-1.22,1.68-1.93,1.13-1.42,1.99-2.83,2.34-3.92,.18-.54,.21-.99,.19-1.31,0-.08-.01-.15-.02-.21-.01-.06-.02-.11-.03-.16-.01-.09,0-.15,.02-.16,.03-.02,.07,.01,.14,.09,.03,.04,.07,.08,.11,.14,.03,.06,.07,.14,.11,.22,.14,.34,.2,.9,.08,1.54-.24,1.28-1.08,2.84-2.25,4.32Z"/>
                <path class="cls-20" d="M30.39,37.1s-.43,3.47,3.41,2.99l-2.19,.79-2.56,.37h-2.38l3.72-4.14Z"/>
                <path class="cls-20" d="M21.98,44.9c0-.18,4.63-1.22,6.89-3.47l-2.19-.18s-4.69,3.84-4.69,3.66Z"/>
                <path class="cls-20" d="M16.49,42.4s1.89,1.1,3.6,.18l.37,.12-2.86,1.65-1.16-1.28,.06-.67Z"/>
                <path class="cls-20" d="M18.56,39.78c2.12-.43,4.51,.24,5.91-2.5l-.24,1.16-1.52,2.13-3.84-.49-.3-.3Z"/>
                <path class="cls-20" d="M26.79,24.31s-.55,10.79,6.83,15.97l.67-.3-2.68-2.19-1.77-2.5s-2.74-3.96-2.62-11.15"/>
                <path class="cls-20" d="M42.89,33.94c.16,.17,.25,.43,.24,.65,0,.22-.06,.4-.13,.55-.14,.3-.31,.53-.49,.74-.36,.41-.74,.73-1.11,1.03-.75,.58-1.47,1.01-2.1,1.34-1.25,.65-2.11,.87-2.15,.76-.05-.12,.7-.52,1.83-1.29,.56-.39,1.23-.86,1.9-1.43,.34-.29,.68-.6,.97-.95,.14-.17,.27-.36,.35-.53,.03-.08,.05-.16,.05-.2,0-.04,0-.04-.03-.07-.04-.06-.24-.15-.45-.19-.21-.04-.45-.06-.68-.07-.47-.01-.94,.01-1.38,.05-.89,.08-1.7,.2-2.39,.29-1.36,.2-2.22,.31-2.25,.18-.03-.11,.78-.44,2.13-.8,.68-.18,1.49-.36,2.42-.49,.47-.06,.96-.11,1.49-.11,.27,0,.54,.02,.83,.07,.29,.06,.62,.13,.94,.47Z"/>
                <path class="cls-20" d="M43.14,33.86c-.2-.25-.51-.34-.82-.29-.28,.05-.22,.51,.07,.5,.11,0,.22,.03,.28,.14,.05,.1,0,.25,0,.36-.01,.24,.33,.4,.49,.2,.22-.27,.19-.63-.02-.91Z"/>
                <path class="cls-20" d="M40.08,34.75c-.91,0-.92,1.42,0,1.42s.92-1.42,0-1.42Z"/>
                <path class="cls-20" d="M37.88,35.78c-.53,0-.53,.82,0,.82s.53-.82,0-.82Z"/>
                <path class="cls-8" d="M35.3,25.47c1.47-2.04,3.4-3.49,5.08-3.88,.83-.21,1.54-.15,1.99-.02,.23,.05,.39,.14,.5,.2,.11,.06,.16,.11,.15,.14-.01,.03-.08,.04-.2,.03-.12,0-.28-.04-.5-.03-.43-.02-1.04,.02-1.76,.28-1.44,.48-3.15,1.88-4.54,3.8-.7,.96-1.24,1.96-1.64,2.9-.39,.94-.63,1.84-.72,2.6-.21,1.54,.23,2.45,.09,2.51-.03,.01-.08-.03-.15-.13-.07-.1-.17-.25-.25-.47-.18-.43-.34-1.11-.31-1.95,.02-.84,.21-1.82,.59-2.85,.38-1.03,.94-2.1,1.68-3.12Z"/>
                <path class="cls-8" d="M48.33,27.59c.66-.4,1.16-1.06,1.54-1.68,.38-.63,.63-1.25,.82-1.79,.38-1.07,.5-1.79,.63-1.78,.11,0,.21,.76-.03,1.95-.12,.59-.34,1.29-.72,2.02-.39,.71-.92,1.49-1.79,2.04-.43,.27-.96,.44-1.49,.4-.53-.03-1.01-.29-1.34-.6-.33-.31-.56-.66-.72-1-.17-.34-.27-.66-.35-.95-.15-.59-.21-1.08-.21-1.41,0-.34,.02-.52,.09-.53,.14-.02,.3,.7,.72,1.75,.22,.51,.52,1.12,1.02,1.54,.25,.21,.53,.34,.85,.35,.31,.02,.66-.09,.98-.29Z"/>
                <path class="cls-8" d="M48.62,25.68c-.04-.15-.12-.28-.23-.39-.06-.05-.12-.09-.18-.14-.14-.08-.28-.12-.44-.12-.12,0-.23,.02-.34,.08-.11,.04-.2,.1-.28,.18-.09,.08-.15,.17-.18,.28-.05,.1-.08,.22-.08,.34,.01,.08,.02,.16,.03,.23,.04,.15,.12,.28,.23,.39,.06,.05,.12,.09,.18,.14,.14,.08,.28,.12,.44,.12,.12,0,.23-.02,.34-.08,.11-.04,.2-.1,.28-.18,.09-.08,.15-.17,.18-.28,.05-.1,.08-.22,.08-.34-.01-.08-.02-.16-.03-.23Z"/>
                <path class="cls-8" d="M47,22.99c-.41,0-.42,.64,0,.64s.42-.64,0-.64Z"/>
                <path class="cls-20" d="M41.85,20.65c1.18-.19,2.18-.64,2.84-1.06,.66-.42,1-.79,1.05-.74,.04,.03-.22,.48-.87,1-.65,.51-1.7,1.04-2.95,1.24-.62,.1-1.24,.11-1.79,.01-.55-.1-1.05-.32-1.34-.67-.3-.35-.31-.76-.27-.98,.04-.24,.11-.35,.14-.34,.04,0,.02,.14,.04,.35,.01,.21,.07,.52,.33,.76,.25,.25,.68,.42,1.18,.48,.5,.07,1.07,.05,1.65-.05Z"/>
                <path class="cls-8" d="M30.22,15.67c-.61,1.3-4.14,2.03-1.95,3.17l-.98,.85-1.14,.57-.41-.49,.2-1.06,1.14-1.42,1.58-1.22,1.54-.41Z"/>
                <path class="cls-8" d="M30.06,14.29c1.37-.11,1.14-1.99,4.06-.65l-1.63-1.14-2.28-.16-1.26,.61-.69,.73,.16,.53,.53,.33,1.1-.24Z"/>
                <path class="cls-20" d="M33.11,17.42s1.5-1.99,2.84-2.15l.37,.77-.89,.85-1.02,1.06-1.3-.53Z"/>
                <path class="cls-8" d="M34.58,17.49c.41-.42,.86-.81,1.36-1.1,.5-.29,1.05-.47,1.58-.54,.52-.07,1.06-.05,1.52,.09,.46,.13,.86,.35,1.18,.58,.65,.48,.99,1.05,1.14,1.45,.15,.41,.14,.66,.09,.67-.06,.02-.17-.19-.39-.51-.22-.32-.59-.75-1.18-1.09-.29-.17-.63-.31-1.01-.39-.38-.08-.78-.07-1.22,0-.43,.08-.86,.24-1.27,.48-.41,.24-.79,.58-1.16,.96-.74,.77-1.34,1.65-1.95,2.42-.6,.77-1.22,1.45-1.81,1.93-.59,.49-1.16,.77-1.56,.91-.2,.07-.36,.11-.48,.12-.11,.01-.18,0-.19-.02-.05-.13,.81-.46,1.8-1.47,.5-.5,1.02-1.17,1.58-1.95,.56-.78,1.15-1.68,1.97-2.54Z"/>
                <path class="cls-8" d="M18.99,23.41c1.12,.26,2.17,.51,3.13,.68,.96,.18,1.83,.26,2.56,.3,1.47,.08,2.39-.04,2.42,.1,.02,.1-.88,.44-2.42,.53-.77,.04-1.69,.01-2.69-.12-1-.13-2.09-.37-3.2-.63-1.11-.26-2.16-.5-3.11-.59-.47-.04-.92-.05-1.34-.02-.41,.03-.79,.11-1.13,.2-.68,.21-1.19,.49-1.54,.71-.35,.21-.56,.34-.6,.29-.04-.04,.09-.25,.39-.56,.3-.31,.81-.71,1.55-1.03,.37-.14,.79-.28,1.26-.34,.46-.07,.96-.09,1.48-.06,1.03,.06,2.13,.28,3.25,.55Z"/>
                <path class="cls-8" d="M16.33,25.58c.44,1.28,.35,2.5,.12,3.32-.23,.82-.56,1.25-.66,1.2-.12-.05,0-.54,.05-1.31,.06-.76,.03-1.84-.34-2.91-.18-.52-.46-.9-.81-1.03-.36-.14-.8-.09-1.14,0-.35,.1-.64,.25-.86,.32-.21,.08-.35,.11-.39,.06-.03-.05,.03-.17,.19-.34,.16-.17,.41-.4,.81-.62,.39-.2,.96-.39,1.63-.2,.33,.09,.65,.32,.88,.59,.23,.27,.39,.59,.51,.91Z"/>
                <path class="cls-8" d="M18.55,32.01c-.58,.99-1.22,1.88-1.88,2.64-.67,.74-1.32,1.4-2.14,1.71-.2,.07-.43,.12-.67,.07-.24-.04-.43-.19-.54-.34-.21-.31-.25-.59-.27-.81-.03-.44,.04-.67,.09-.67,.07,0,.12,.23,.25,.6,.06,.18,.16,.41,.31,.56,.08,.07,.16,.1,.25,.11,.09,0,.22-.03,.36-.1,.55-.28,1.16-.92,1.74-1.65,.59-.74,1.18-1.61,1.74-2.56,.28-.47,.53-.95,.75-1.41,.22-.46,.41-.92,.48-1.32,.02-.1,.02-.19,.02-.24,0-.02,0-.01,0-.02,0-.01,0,0,0,0,0,0,.01,0,.02,.02,.01,0,.03,.01,.03,.02,.03,0,.01,0,0,0-.03,0-.05,0-.09,.01-.07,.01-.16,.05-.24,.08-.34,.16-.67,.39-.97,.59-1.17,.85-1.87,1.45-1.96,1.35-.08-.08,.46-.83,1.58-1.84,.29-.25,.6-.52,1.03-.76,.11-.06,.23-.11,.37-.16,.06-.03,.16-.04,.24-.05,.11,0,.21,0,.34,.05,.06,.02,.12,.06,.18,.11,.06,.05,.1,.1,.13,.15,.04,.06,.06,.11,.08,.16,.01,.05,.04,.11,.04,.15,.03,.18,.02,.34,0,.48-.08,.57-.28,1.06-.5,1.56-.22,.5-.49,1-.78,1.5Z"/>
                <path class="cls-8" d="M19.91,28.03l-.05-.11s-.02-.09-.04-.12c-.02-.03-.05-.07-.07-.1-.03-.02-.06-.05-.1-.07-.07-.06-.22-.07-.3-.04-.08,.03-.15,.07-.21,.14-.05,.07-.09,.15-.08,.24,0,.07,.03,.14,.06,.19,0,0,0,0,0,0,.02,.03,.05,.06,.07,.1,0,0,0,0,0,0,.06,.06,.11,.13,.17,.19,.06,.06,.17,.11,.25,.1,.08,0,.15-.03,.22-.08,.06-.05,.11-.11,.13-.18,.02-.1,0-.18-.04-.27Z"/>
                <path class="cls-8" d="M19.47,28.89c-.04-.15-.12-.28-.23-.39-.06-.05-.12-.09-.18-.14-.14-.08-.28-.12-.44-.12-.12,0-.23,.02-.34,.08-.11,.04-.2,.1-.28,.18-.09,.08-.15,.17-.18,.28-.05,.1-.08,.22-.08,.34,.01,.08,.02,.16,.03,.23,.04,.15,.12,.28,.23,.39l.18,.14c.14,.08,.28,.12,.44,.12,.12,0,.23-.02,.34-.08,.11-.04,.2-.1,.28-.18,.09-.08,.15-.17,.18-.28,.05-.1,.08-.22,.08-.34-.01-.08-.02-.16-.03-.23Z"/>
                <path class="cls-8" d="M17.28,31.66c-.01-.05-.04-.1-.08-.14l-.06-.05s-.1-.04-.16-.04c-.04,0-.08,0-.12,.03-.04,.01-.07,.03-.1,.06-.03,.03-.05,.06-.06,.1-.02,.04-.03,.08-.03,.12,0,.03,0,.06,.01,.08,.01,.05,.04,.1,.08,.14l.06,.05s.1,.04,.16,.04c.04,0,.08,0,.12-.03,.04-.01,.07-.03,.1-.06,.03-.03,.05-.06,.06-.1,.02-.04,.03-.08,.03-.12,0-.03,0-.06-.01-.08Z"/>
                <path class="cls-8" d="M15.09,33.57c-.39,0-.39,.6,0,.6s.39-.6,0-.6Z"/>
                <path class="cls-8" d="M15.16,26.98c-.07-.24-.19-.44-.36-.62l-.28-.22c-.22-.13-.45-.19-.71-.19-.19,0-.37,.03-.54,.12-.17,.06-.32,.15-.45,.29-.14,.13-.23,.28-.29,.45-.09,.17-.13,.35-.12,.54,.02,.12,.03,.25,.05,.37,.07,.24,.19,.44,.36,.62l.28,.22c.22,.13,.45,.19,.71,.19,.19,0,.37-.03,.54-.12,.17-.06,.32-.15,.45-.29,.14-.13,.23-.28,.29-.45,.09-.17,.13-.35,.12-.54-.02-.12-.03-.25-.05-.37Z"/>
                <path class="cls-8" d="M13.2,29.78c-.4,0-.4,.62,0,.62s.4-.62,0-.62Z"/>
                <path class="cls-8" d="M25.52,33.08s0,0,0-.01c-.08-.27-.21-.5-.41-.7-.11-.08-.21-.16-.32-.25-.25-.14-.51-.21-.8-.22-.22,0-.42,.04-.61,.14-.2,.06-.37,.17-.51,.33-.15,.14-.26,.31-.33,.51-.1,.19-.14,.39-.14,.61,0,.29,.07,.55,.22,.8,0,0,0,0,0,.01,.1,.18,.23,.33,.41,.44,.15,.14,.33,.23,.54,.28,.14,.02,.28,.04,.42,.06,.22,0,.42-.04,.61-.14,.13-.04,.25-.11,.35-.2,.17-.11,.31-.26,.41-.44l.16-.38c.08-.28,.08-.56,0-.84Z"/>
                <path class="cls-8" d="M23.97,28.61c-.5,0-.5,.78,0,.78s.5-.78,0-.78Z"/>
                <path class="cls-8" d="M19.26,26.22c-.54,0-.54,.84,0,.84s.54-.84,0-.84Z"/>
                <path class="cls-8" d="M20.64,35.52c-.04-.14-.11-.27-.22-.37-.06-.04-.11-.09-.17-.13-.13-.08-.27-.11-.43-.12-.12,0-.22,.02-.33,.07-.1,.03-.2,.09-.27,.17-.08,.08-.14,.17-.17,.27-.05,.1-.08,.21-.07,.33,.01,.07,.02,.15,.03,.22,.04,.14,.11,.27,.22,.37,.06,.04,.11,.09,.17,.13,.13,.08,.27,.11,.43,.12,.12,0,.22-.02,.33-.07,.1-.03,.2-.09,.27-.17,.08-.08,.14-.17,.17-.27,.05-.1,.08-.21,.07-.33-.01-.07-.02-.15-.03-.22Z"/>
                <path class="cls-8" d="M35.83,22.07c-.05-.16-.13-.3-.25-.42-.06-.05-.13-.1-.19-.15-.15-.09-.31-.13-.48-.13-.13,0-.25,.02-.37,.08-.12,.04-.22,.1-.31,.2-.09,.09-.16,.19-.2,.31-.06,.11-.09,.24-.08,.37l.03,.25c.05,.16,.13,.3,.25,.42,.06,.05,.13,.1,.19,.15,.15,.09,.31,.13,.48,.13,.13,0,.25-.02,.37-.08,.12-.04,.22-.1,.31-.2,.09-.09,.16-.19,.2-.31,.06-.11,.09-.24,.08-.37l-.03-.25Z"/>
                <path class="cls-8" d="M32.67,26.12c-.07-.12-.2-.19-.34-.19s-.27,.07-.34,.19c-.04,.06-.05,.13-.05,.2,0,.07,.02,.14,.05,.2,0,.01,.02,.03,.03,.04,.03,.05,.07,.1,.13,.13,.06,.03,.12,.05,.18,.05,.06,0,.12-.02,.18-.05,.05-.03,.1-.07,.13-.13,0-.01,.02-.03,.03-.04,.04-.06,.05-.13,.05-.2,0-.07-.02-.14-.05-.2Z"/>
                <path class="cls-18" d="M28.5,31.5c2.26,.94,.85,3.78,5,5l3.35,2.56-2.5,1.1-2.74-2.38-2.19-3.53-1.16-2.5"/>
                <path class="cls-20" d="M4.55,24.43c1.71,.55,2.99,1.4,7.01-1.52l1.28-.18,.24,.24-1.4,.91-.85,.73-2.13,.43-1.52,.43-1.58-.12s-1.4-.55-1.46-1.16"/>
                <path class="cls-8" d="M7.99,23.8c.93-.36,1.78-.78,2.46-.9,.68-.14,1.11-.04,1.11,0,0,.07-.41,.09-1.03,.29-.62,.19-1.42,.63-2.39,1.01-.96,.39-1.96,.51-2.64,.39-.17-.03-.32-.07-.46-.1-.13-.03-.24-.08-.33-.12-.18-.07-.27-.13-.26-.15,0-.03,.12-.03,.3-.01,.09,0,.2,.03,.33,.04,.13,0,.28,.02,.44,.03,.65,.03,1.53-.12,2.46-.49Z"/>
                <path class="cls-20" d="M13.81,43.75c2.11,.33,.08,4.02,7.56,.98l-1.58,1.02-2.07,.57-4.83-.12-2.44-1.3-.53-1.5,.37-1.02,1.02-.24,1.1,.65,1.42,.98Z"/>
                <path class="cls-13" d="M11.29,43.34c-.41,0-.42,.64,0,.64s.42-.64,0-.64Z"/>
                <path class="cls-13" d="M13.8,44.78c-.03-.12-.09-.22-.18-.31-.05-.04-.09-.07-.14-.11-.11-.06-.23-.1-.35-.1-.1,0-.19,.02-.27,.06-.09,.03-.16,.08-.23,.14-.07,.06-.12,.14-.14,.23-.04,.08-.06,.17-.06,.27,0,.06,.02,.12,.03,.19,.03,.12,.09,.22,.18,.31,.05,.04,.09,.07,.14,.11,.11,.06,.23,.1,.35,.1,.1,0,.19-.02,.27-.06,.09-.03,.16-.08,.23-.14,.07-.06,.12-.14,.14-.23,.04-.08,.06-.17,.06-.27,0-.06-.02-.12-.02-.19Z"/>
                <path class="cls-16" d="M35.4,31.12c-.26,1.05-.65,1.98-1.08,2.68-.75-.96-.3-3.23,1.15-5.8,.05-.09,.1-.18,.16-.28,.16,.9,.09,2.11-.22,3.4Z"/>
                <path class="cls-6" d="M34.21,31.73c-.51,0-.52,.8,0,.8s.52-.8,0-.8Z"/>
                <path class="cls-6" d="M35.02,29.92c-.39,0-.39,.6,0,.6s.39-.6,0-.6Z"/>
                <path class="cls-17" d="M38.57,31.76c.62,.55-.59,.87,.24,2.15l-1.24,.26,.59-1.97,.41-.45Z"/>
                <path class="cls-17" d="M41.07,31.21s-.04,1.5,.24,2.07l-1.18,.26,.93-2.34Z"/>
                <path class="cls-17" d="M44.22,27.31s.41-.55,.91-.22l-.22-1.26-.37,.3-.33,1.18Z"/>
                <path class="cls-17" d="M43.43,24.69s.67-.33,1.02,.12c.35,.45,.37,.02,.37,.02l-.41-1.12-.35-.51-.33,.12-.3,1.36Z"/>
              </g>
            </g>
            <g>
              <path class="cls-21" d="M49.5,17.31s-.02-.01-.03-.02c-1.4-.91-3.12,.35-4.65,1.47-.65,.47-1.31,.96-1.78,1.13,0,0,0,0-.01,0-.04,.01-.07,.03-.11,.04-.13,.03-.25,.04-.34,0-.21-.08-.3-.43-.35-.7-.03-.19-.08-.39-.14-.59,0,0,0,0,0,0-.41-1.4-1.47-2.86-3.09-3.2-.66-.14-1.5-.12-2.47,.34-1.26-2.09-2.94-3.4-4.78-3.68-1.28-.2-2.5,.15-3.37,.95-.29,.27-.38,.66-.25,1.03,.13,.36,.45,.6,.84,.62,1.65,.08,3.17,.22,4.4,.74-2.77-.96-5.19,.23-6.69,1.95-.89,1.02-1.51,2.34-.97,2.9,.13,.13,.29,.2,.5,.2,.48,0,1.16-.36,2.04-1.09,1.55-1.28,3.7-1.87,5.73-1.58-.46,.52-.95,1.14-1.44,1.88-3.74,5.6-8.31,4.53-12.73,3.5-2.24-.52-4.42-1.03-6.29-.53-1.56-.45-3.27-.31-4.7,.4-2.34,1.16-3.91,.82-4.51,.69-.26-.05-.48-.1-.6,.1-.13,.22,0,.38,.31,.75,.81,.98,1.72,1.3,2.61,1.3s1.75-.3,2.52-.57c.47-.16,.91-.31,1.32-.39-.39,.58-.74,1.29-1.05,2.14-1.17,3.19-1.08,5.93,.27,8.12,1.85,3.02,5.98,4.98,12.27,5.83-.46,.47-.94,.9-1.43,1.28-.24-.15-.49-.3-.74-.45-1.08-.66-2.01-1.23-2.62-1.27-.46-.04-.92,.39-1.11,1.02-.23,.77-.07,1.82,.99,2.64-.34,.1-.64,.16-.88,.16-.57,0-1.71-.7-2.72-1.32-1.08-.66-2.01-1.23-2.62-1.27-.33-.03-.66,.18-.9,.55-.3,.47-.49,1.33-.02,2.2,.55,1.01,2.08,2.21,6.26,2.21,1.66,0,3.31-.5,4.86-1.28,.36,.03,.72,.05,1.08,.05,2.04,0,4.23-.67,7.59-4.11,7.3-.76,13.09-4.75,13.86-6.75,.22-.57,.05-.93-.14-1.13-.2-.21-.52-.35-.95-.4-.7-1.8-1.17-2.93-1.18-2.94-.05-.11-.16-.18-.28-.17-.12,0-.22,.09-.26,.21l-.87,3.14-1.03-2.5c-.04-.11-.16-.18-.27-.18-.12,0-.22,.07-.26,.18l-.06,.15c-.32,.83-.68,1.76-.84,2.6,.58-4.12,2.78-8.07,6-10.75,.03,.04,.07,.07,.1,.11-.12,.35-.53,1.57-.71,2.92-.01,.11,.03,.22,.13,.28,.05,.03,.1,.05,.16,.05s.1-.01,.15-.04l1.18-.73-.96,2.74c-.04,.11,0,.24,.09,.32,.05,.04,.11,.06,.18,.06,.05,0,.11-.01,.15-.04l1.5-.96c.66,1.18,1.44,1.52,2.06,1.55,1.51,.07,3.13-1.59,3.96-4.04,.86-2.51,.81-5.87-1.91-7.77Zm-7.86,2.01c0,.11-.09,.2-.21,.2s-.21-.09-.21-.2,.09-.21,.21-.21,.21,.09,.21,.21Zm-12.65-5.2c-.15,0-.28-.1-.33-.24-.05-.15-.02-.3,.1-.41,.74-.68,1.79-.97,2.89-.8,1.65,.25,3.19,1.45,4.36,3.38-.15,.09-.31,.19-.46,.3-1.62-1.96-4.35-2.11-6.56-2.22Zm-1.11,4.82c-1.23,1.02-1.71,1-1.77,.94-.14-.14,.03-1.04,.99-2.13,1.67-1.9,4.57-3.1,7.81-.89-.15,.14-.31,.28-.47,.44-2.29-.44-4.79,.18-6.56,1.64Zm-18.91,5.85c-1.5,.52-3.06,1.05-4.39-.41,.83,.14,2.38,.23,4.49-.82,1.06-.52,2.28-.71,3.46-.54-.58,.29-1.11,.72-1.6,1.3-.6,0-1.26,.23-1.96,.47Zm7.63,16.98c.13-.42,.39-.62,.53-.62,.47,.03,1.43,.62,2.36,1.19,.18,.11,.36,.22,.54,.33-.82,.59-1.63,1.04-2.33,1.33-1.1-.68-1.3-1.59-1.11-2.23Zm5.4,3.2c1.72-1,3.29-2.29,4.61-3.54,.73,.03,1.47,.05,2.24,.05-3.03,2.97-4.95,3.51-6.85,3.48Zm7.09-4.05c-.65,0-1.29-.01-1.91-.03,1.92-1.91,3.17-3.58,3.29-3.75,.09-.13,.07-.3-.06-.4-.13-.09-.3-.07-.4,.06-.07,.09-6.98,9.39-13.83,9.39-4.1,0-5.37-1.2-5.76-1.91-.35-.65-.22-1.28,0-1.62,.13-.21,.29-.29,.38-.29,.47,.03,1.43,.62,2.36,1.19,1.18,.72,2.3,1.41,3.02,1.41,1.97,0,6.94-2.88,8.79-7.41,.06-.15,0-.31-.15-.37-.15-.06-.31,0-.37,.15-.49,1.19-1.2,2.25-2.01,3.17-6.25-.78-10.49-2.72-12.26-5.61-1.25-2.04-1.32-4.61-.22-7.63,1.96-5.35,5.56-4.51,9.72-3.54,2.32,.54,4.8,1.12,7.21,.67-.6,6.31,3.49,13.34,6.9,15.65-1.47,.42-3.06,.73-4.71,.87Zm5.44-1.09c-3.32-1.86-7.74-9.24-7.05-15.56,.5-.13,.99-.31,1.48-.54-.73,9.67,5.33,14.11,7.52,15.39-.62,.25-1.27,.49-1.95,.71Zm6.56-8.64c.19,.46,.45,1.12,.77,1.93-.39,0-.84,.06-1.34,.15l.58-2.08Zm-2.48,.57l.73,1.77c-.43,.11-.89,.24-1.38,.39,.11-.67,.38-1.44,.65-2.16Zm4.88-6.37c.14-.73,.32-1.38,.45-1.8,.19,.34,.36,.75,.5,1.21l-.95,.59Zm.8,2.23l.52-1.49c.11,.35,.22,.66,.34,.94l-.86,.55Zm6.6-2.72c-.73,2.14-2.18,3.72-3.4,3.66-1.01-.05-1.84-1.22-2.34-3.3-.52-2.18-1.47-3.38-2.84-3.57-2.51-.35-5.56,2.88-7.33,6.03-1.62,2.88-2.03,5.3-1.07,6.47,.7,.86,2.02,.98,3.92,.37,4.11-1.32,5.01-.8,5.19-.61,.04,.04,.16,.17,.02,.53-.43,1.11-2.66,2.93-5.9,4.37-1.61-.85-8.53-5.13-7.58-15.42,1.21-.71,2.37-1.8,3.46-3.43,1.98-2.96,4.06-4.38,5.86-4,1.26,.27,2.12,1.35,2.54,2.47l-1.73-.02h-.01c-.58,0-1.07,.41-1.15,.97,0,.06-.01,.12-.01,.19,0,.34,.16,.63,.46,.84,.34,.23,.83,.35,1.38,.38,0,0,0,0,0,0,0,0,0,0,0,0,.12,0,.24,.01,.36,.01,.93,0,1.92-.19,2.5-.4,0,0,0,0,0,0,.48-.17,1.03-.55,1.63-.98,1.45,1.71,4.25,2.62,6.48,2.91-.01,.88-.18,1.76-.45,2.55Zm-16.52,8.94s-.01-.01-.02-.02c-.77-.95-.33-3.24,1.13-5.83,.05-.09,.11-.19,.16-.28,1.03,2.11,.52,4.58-1.27,6.13Zm6.2-14.43c0,.2-.16,.36-.36,.36s-.36-.16-.36-.36,.16-.36,.36-.36,.36,.16,.36,.36Z"/>
              <path class="cls-21" d="M19.69,27.35c-.71-.13-1.78,.45-2.88,1.53,.14-.89,.13-1.8-.04-2.68-.23-1.19-.78-2.03-1.55-2.37-.65-.28-1.45-.21-2.2,.2-.64,.34-1.14,.86-1.62,1.35-.11,.11-.11,.29,0,.4,.11,.11,.29,.11,.4,0,.45-.46,.92-.94,1.48-1.25,.59-.32,1.22-.38,1.7-.17,.81,.35,1.11,1.37,1.22,1.95,.22,1.14,.15,2.33-.19,3.44-.35,.51-.7,1.1-1.05,1.76-.07,.14-.02,.31,.12,.38,.04,.02,.09,.03,.13,.03,.1,0,.2-.05,.25-.15,.34-.65,.69-1.22,1.02-1.72,0,0,0,0,0,0,1.3-1.54,2.53-2.25,3.08-2.15,.13,.02,.2,.09,.24,.21,.27,.79-.71,3.17-4.37,7.27-.91,1.02-1.32,1.09-1.48,1.04-.41-.12-.59-1.23-.75-2.21-.21-1.25-.42-2.54-1.15-3.04-.29-.2-.62-.25-1-.17-.15,.03-.25,.18-.22,.34,.03,.15,.18,.25,.34,.22,.23-.05,.41-.02,.57,.09,.53,.36,.73,1.59,.91,2.67,.22,1.31,.4,2.45,1.16,2.67,.08,.02,.15,.03,.24,.03,.49,0,1.08-.4,1.83-1.24,3.24-3.64,4.91-6.56,4.48-7.83-.11-.32-.35-.53-.67-.59Z"/>
            </g>
          </g>
        </g>
      </g>
    </g>
  </g>
</svg>