<?xml version="1.0" encoding="UTF-8"?>
<svg xmlns="http://www.w3.org/2000/svg" xmlns:xlink="http://www.w3.org/1999/xlink" viewBox="0 0 64 64">
  <defs>
    <style>
      .cls-1 {
        fill: url(#linear-gradient-2);
      }

      .cls-2 {
        fill: #a7a9ac;
      }

      .cls-2, .cls-3, .cls-4 {
        mix-blend-mode: overlay;
      }

      .cls-2, .cls-5 {
        opacity: .5;
      }

      .cls-6 {
        fill: #f9c400;
      }

      .cls-6, .cls-7, .cls-8, .cls-9, .cls-10, .cls-11 {
        stroke: #000;
        stroke-miterlimit: 10;
        stroke-width: .25px;
      }

      .cls-6, .cls-7, .cls-8, .cls-10, .cls-11 {
        fill-rule: evenodd;
      }

      .cls-3 {
        fill: #8c8587;
      }

      .cls-12 {
        isolation: isolate;
      }

      .cls-7 {
        fill: #ffe283;
      }

      .cls-5 {
        fill: #fff;
      }

      .cls-8 {
        fill: #a94417;
      }

      .cls-9, .cls-10 {
        fill: #3e1c18;
      }

      .cls-13, .cls-14 {
        fill: #2b2829;
      }

      .cls-13, .cls-15 {
        mix-blend-mode: screen;
      }

      .cls-16 {
        fill: #dcc2a7;
      }

      .cls-17 {
        opacity: .3;
      }

      .cls-18 {
        fill: #e6cfd4;
        mix-blend-mode: multiply;
      }

      .cls-19 {
        fill: url(#linear-gradient);
      }

      .cls-11 {
        fill: #c05018;
      }

      .cls-4 {
        fill: #998a8e;
      }
    </style>
    <linearGradient id="linear-gradient" x1="64" y1="34.03" x2="5.45" y2="34.03" gradientUnits="userSpaceOnUse">
      <stop offset="0" stop-color="#cf965b"/>
      <stop offset=".25" stop-color="#ca9257"/>
      <stop offset=".51" stop-color="#be864c"/>
      <stop offset=".78" stop-color="#a9733a"/>
      <stop offset="1" stop-color="#925d26"/>
    </linearGradient>
    <linearGradient id="linear-gradient-2" x1="61.28" y1="31.49" x2="1.36" y2="31.49" gradientUnits="userSpaceOnUse">
      <stop offset="0" stop-color="#e8b886"/>
      <stop offset=".25" stop-color="#e3b482"/>
      <stop offset=".5" stop-color="#d7a877"/>
      <stop offset=".76" stop-color="#c29464"/>
      <stop offset="1" stop-color="#a97c4e"/>
    </linearGradient>
  </defs>
  <g class="cls-12">
    <g id="_Слой_2" data-name="Слой 2">
      <g id="_Слой_1-2" data-name="Слой 1">
        <g>
          <g>
            <path class="cls-19" d="M60.49,6.68c-1.75-1.6-4.41-2.62-7.38-2.62H14.98c-5.26,0-9.53,3.19-9.53,7.11V55.87c0,2.22,1.37,4.2,3.51,5.51,1.75,1.6,4.41,2.62,7.38,2.62H54.47c5.26,0,9.53-3.19,9.53-7.11V12.19c0-2.22-1.37-4.2-3.51-5.51Z"/>
            <path class="cls-1" d="M57.77,4.65c-.41-.37-.86-.71-1.36-1.02-1.75-1.6-4.41-2.62-7.38-2.62H10.89C5.64,1.02,1.36,4.21,1.36,8.13V52.83c0,2.22,1.37,4.2,3.51,5.51,.41,.37,.86,.71,1.36,1.02,1.75,1.6,4.41,2.62,7.38,2.62H51.74c5.26,0,9.53-3.19,9.53-7.11V10.16c0-2.22-1.37-4.2-3.51-5.51Z"/>
            <path class="cls-16" d="M47.66,0H9.53C4.28,0,0,3.19,0,7.11V51.81c0,3.92,4.28,7.11,9.53,7.11H47.66c5.26,0,9.53-3.19,9.53-7.11V7.11c0-3.92-4.28-7.11-9.53-7.11Z"/>
          </g>
          <path class="cls-4" d="M5.89,14.33c-.01-2.85,.17-6.06,2.96-8,2.12-1.47,5.21-1.81,8.09-1.99,6.68-.42,13.42-.36,20.09,.18,3.3,.26,6.79,.71,9.28,2.36,3.69,2.45,3.93,6.61,3.9,10.29-.08,9.24-.15,18.48-.23,27.72-.02,2.2-.08,4.51-1.54,6.42-1.54,2-4.45,3.25-7.46,3.8s-6.15,.48-9.24,.41c-5.15-.12-10.31-.24-15.43-.71-2.79-.26-9.22-.18-10.19-2.65-.66-1.68-.07-4.15-.07-5.9,0-2.02-.02-4.03-.03-6.05-.02-4.03-.04-8.06-.06-12.1-.02-4.59-.04-9.18-.07-13.78Z"/>
          <path class="cls-4" d="M20.65,20.31c-3.25-.39-6.54-1.19-8.94-2.87-2.39-1.69-3.67-4.43-2.38-6.69,.89-1.57,2.87-2.69,5.01-3.3,2.14-.61,4.45-.77,6.74-.89,5.74-.3,11.52-.39,17.22,.17,2.22,.22,4.55,.57,6.21,1.7,2.93,1.99,2.55,5.66,.4,8.14-5.33,6.17-16.02,4.75-24.26,3.75Z"/>
          <path class="cls-13" d="M9.75,46.11c-.57-1.77-.49-3.61-.4-5.43,.37-7.55,.74-15.09,1.11-22.64,.14-2.75,.39-5.74,2.81-7.82,2.2-1.89,5.7-2.58,9.03-2.93,4.04-.42,8.14-.47,12.2-.14,3.7,.3,7.69,1.06,9.9,3.3,1.87,1.9,2.03,4.41,2.12,6.77,.33,9.07,.66,18.2-1.13,27.18-.4,1.99-1,4.12-2.97,5.5-2.25,1.58-5.63,1.75-8.72,1.75-5.06,0-10.12-.25-15.13-.73-4.65-.45-7.58-.99-8.81-4.8Z"/>
          <path class="cls-18" d="M47.66,1.02h-1.63c4.51,0,8.17,2.73,8.17,6.1V51.81c0,3.37-3.66,6.1-8.17,6.1h1.63c4.51,0,8.17-2.73,8.17-6.1V7.11c0-3.37-3.66-6.1-8.17-6.1Z"/>
          <path class="cls-2" d="M44.83,56.21c2.15-.26,4.29-1.07,5.39-2.47,.86-1.09,1-2.4,1.05-3.66,.05-1.24,.02-2.47-.08-3.71-.07-.81-.31-1.78-1.32-2.08-.75-.23-1.65,.04-2.16,.52-.51,.47-.69,1.1-.74,1.7-.11,1.25,.25,2.52-.08,3.75-.39,1.42-1.68,2.63-3.23,3.51-1.13,.64-4.12,1.25-4.5,2.21,1.43,.58,4.04,.42,5.67,.23Z"/>
          <path class="cls-3" d="M3.88,2.71c-1.55,1.11-2.52,2.67-2.52,4.4v26.08c12.35-3.44,32.73-4.39,54.47,14.33v-14.97C26.86,28.05,11.39,13.17,3.88,2.71Z"/>
          <path class="cls-5" d="M3.58,9.23c.26-1.79,1.27-3.6,3.21-4.67,2.66-1.47,6.31-1.25,9.61-.96,1.02,.09,2.32,.39,2.36,1.15,.03,.67-.97,1.08-1.84,1.21-2.2,.34-4.63-.04-6.59,.77-1.42,.58-2.33,1.69-2.8,2.85s-.56,2.38-.73,3.58c-.07,.46-.15,.93-.44,1.34-1.08,1.49-2.05,.48-2.43-.37-.6-1.35-.53-3.5-.32-4.91Z"/>
          <g class="cls-15">
            <path class="cls-14" d="M36.44,9.78c.84,1.55-.18,3.32-2.26,3.94-2.08,.62-4.45-.13-5.29-1.69-.84-1.55,.18-3.32,2.26-3.94,2.08-.62,4.45,.13,5.29,1.69Z"/>
            <path class="cls-14" d="M43.37,11.71c.45,.84-.09,1.78-1.21,2.12-1.12,.34-2.39-.07-2.84-.91-.45-.84,.09-1.78,1.21-2.12,1.12-.34,2.39,.07,2.84,.91Z"/>
            <path class="cls-14" d="M40.11,16.13c.37,.7-.08,1.49-1.01,1.77-.93,.28-1.99-.06-2.37-.76-.37-.7,.08-1.49,1.01-1.77,.93-.28,1.99,.06,2.37,.76Z"/>
          </g>
          <g class="cls-15">
            <path class="cls-14" d="M23.64,45.38c.8,1.49-.17,3.17-2.16,3.77-1.99,.6-4.25-.13-5.05-1.61-.8-1.49,.17-3.17,2.16-3.77,1.99-.6,4.25,.13,5.05,1.61Z"/>
            <path class="cls-14" d="M20.79,40.39c.22,.41-.05,.87-.59,1.03-.54,.16-1.16-.03-1.38-.44-.22-.41,.05-.87,.59-1.03,.54-.16,1.16,.03,1.38,.44Z"/>
            <path class="cls-14" d="M15.3,41.5c.45,.84-.09,1.78-1.21,2.12-1.12,.34-2.39-.07-2.84-.91-.45-.84,.09-1.78,1.21-2.12,1.12-.34,2.39,.07,2.84,.91Z"/>
          </g>
          <g class="cls-17">
            <ellipse class="cls-18" cx="47.45" cy="37.02" rx="3.85" ry="2.87"/>
            <path class="cls-18" d="M53.92,29.6c.58,1.08-.12,2.3-1.57,2.74-1.45,.43-3.09-.09-3.67-1.17-.58-1.08,.12-2.3,1.57-2.74,1.45-.43,3.09,.09,3.67,1.17Z"/>
            <path class="cls-18" d="M45.56,30.99c.37,.7-.08,1.49-1.01,1.77-.93,.28-1.99-.06-2.37-.76-.37-.7,.08-1.49,1.01-1.77,.93-.28,1.99,.06,2.37,.76Z"/>
            <path class="cls-18" d="M10.65,25.55c.41,.75-.09,1.61-1.1,1.92-1.01,.3-2.16-.06-2.57-.82-.41-.75,.09-1.61,1.1-1.92,1.01-.3,2.16,.06,2.57,.82Z"/>
            <path class="cls-18" d="M11.29,21.09c.21,.39-.04,.84-.57,1-.53,.16-1.13-.03-1.34-.43-.21-.39,.04-.84,.57-1,.53-.16,1.13,.03,1.34,.43Z"/>
            <path class="cls-18" d="M6.59,20.15c.34,.63-.07,1.34-.91,1.59-.84,.25-1.79-.05-2.13-.68-.34-.63,.07-1.34,.91-1.59,.84-.25,1.79,.05,2.13,.68Z"/>
          </g>
        </g>
        <g id="_Слой_6" data-name="Слой 6">
          <g>
            <path class="cls-10" d="M17.9,9.43s-1.96-3.17-5.99-1.84c-4.03,1.35-4.35,8.8-3.25,10.89,1.1,2.09,9.41-1.19,9.24-9.05h0Z"/>
            <path class="cls-10" d="M35.73,34.95l1.9,.25s4.05-.09,4.26-1.8c.22-1.73-1.87-3.22-3.06-1.49-1.21,1.73-1.96-4.46,1.4-5.92,3.36-1.46,8.4,.52,7.82,5.78-.6,5.26-3.53,7.69-8.85,6.39-5.3-1.3-3.47-3.22-3.47-3.22h0Z"/>
            <path class="cls-8" d="M35.36,43.81s3.27,3.8,3.08,4.75c-.19,.97-3.36,2.29-4.33,1.48-.99-.83,.02-2.02,.99-2.05,0,0-1.06-1.26-2.76-1.89-1.7-.63-2.48-1.64-2.5-2.7-.02-1.03,5.51,.41,5.51,.41h0Z"/>
            <path class="cls-8" d="M18.78,36.91l-1.4,4.34s3.19,4.32,3.25,6.93c0,0-1.36-.54-1.98,.38-.6,.9-.04,2.48,2.37,2.2,2.41-.25,2.65-.95,2.84-2.43,.19-1.46,1.16-4.21,1.49-4.55,.32-.36-6.57-6.88-6.57-6.88h0Z"/>
            <path class="cls-11" d="M33.58,25.86h0s.32,4.36,2.46,7.06c2.11,2.72,5.9,6.64,5.97,9.25,.04,2.61-3.6,3.73-7.43,2.66-3.86-1.08-12.71,.45-14.97-1.42-2.28-1.87-7.49-7.56-8.36-15.48h0c-.54-2.79,.19-11.09,.6-12.91,0,0,.34-6.53,7.73-6.89,7.39-.38,11.31,1.42,12.64,7.38,.93,4.25,1.38,7.85,1.36,10.35h0Z"/>
            <path class="cls-7" d="M13.68,14.97l.43-.7s1.42,.7,2.5-.83c1.06-1.55,.19-3.4,1.66-3.38,1.46,.02,1.53,1.3,1.51,2.86-.02,1.55,.32,3.44,2.76,3.8,2.46,.36,3.08,4.61,.28,5.58-2.8,.97-5.23,2.61-6.96,1.87-1.75-.74-1.7-2.5-3.02-3.02-1.31-.52,1.27-5.06,.84-6.19h0Z"/>
            <path class="cls-7" d="M38.01,45.21c-1.05,.07-2.24-.04-3.45-.38-3.86-1.08-12.71,.45-14.97-1.42-2.28-1.87-7.49-7.56-8.36-15.48h0l-.02-.13c.45-.9,1.31-1.82,2.97-2.05,3.36-.45,8.79-.34,10.79,2.23,2,2.54,2.43,9.56,7.11,11.54,4.65,1.98,5.49,2.52,5.92,5.69h0Z"/>
            <path class="cls-10" d="M27.53,10.2s4.11-2.72,6.35-.36c2.24,2.34,3.68,7.72,2.13,9.02-1.53,1.3-7.02-4.59-7.95-5.85-.93-1.28-.93-2.2-.54-2.81h0Z"/>
            <path class="cls-7" d="M14.88,14.41s-5.86-1.12-7.56,.45c-1.7,1.55-.54,5.02,2.15,5.85,2.69,.83,6.03,.38,6.59-.41,.56-.77,.34-5.08-1.18-5.89h0Z"/>
            <path class="cls-10" d="M10.7,14.43c-.11-.05-2.18-.43-3.1-.09-.93,.32-1.38,2.27-.24,3.49,1.12,1.24,3.57,1.26,4.91,.04,1.34-1.21,.5-2.9-1.57-3.44h0Z"/>
            <path class="cls-11" d="M24.64,42.26c.82,1.53,2.24,4.48,2.28,6.35,0,0-1.36-.54-1.98,.38-.6,.9-.04,2.47,2.37,2.2,2.41-.25,2.65-.94,2.84-2.43,.19-1.46,.82-6.71,1.14-7.04,.39-4.12-10.32-6.37-6.65,.54h0Z"/>
            <path class="cls-11" d="M39.97,42.15l1.92-.67s2.09,3.64,3.06,4.95c.99,1.31-.11,3.85-2.63,3.28-2.52-.56-1.38-2.07-.22-2.25,0,0-3.38-.7-4.61-2.99-1.23-2.3,2.48-2.32,2.48-2.32h0Z"/>
            <path class="cls-9" d="M22.96,20.07c.14-.09,.28,.11,.15,.23-.19,.15-.39,.25-.63,.29-.28,.05-.57-.04-.83-.13-.03-.02-.05-.04-.07-.03-.06,.15-.15,.28-.22,.38-.16,.23-.35,.4-.56,.57-.46,.37-1.03,.61-1.56,.83-.63,.27-1.26,.44-1.92,.51-.49,.06-1.3,.04-1.57-.49-.04-.13,.03-.23,.13-.27,.2-.12,.45-.05,.67-.02,.22,.03,.45,.06,.68,.04,.58-.05,1.15-.19,1.7-.4,.47-.17,.99-.35,1.42-.63,.22-.11,.42-.25,.59-.42,.12-.09,.2-.22,.29-.32-.33-.29-.64-.69-.39-1.05,.07-.1,.24-.13,.32-.03,.13,.14,.14,.34,.26,.5,.11,.14,.28,.23,.45,.31,.19,.08,.37,.12,.57,.15,.16,.02,.38,.07,.52-.02h0Z"/>
            <path class="cls-10" d="M12.04,12.02s15.55-.25,16.48,0l.93,.27s.45,1.37,.02,1.39c-.43,.05-1.62-.05-2.63-.05s-.93,2.72-1.79,3.08c-.86,.38-4.35,.18-5.08,.09-.73-.09-1.16-2.84-1.64-3.26-.5-.43-1.72-.11-1.72-.11,0,0-.75,1.03-1.66,.99-.9-.02-3.32-.41-3.32-.41l.41-2Z"/>
            <path class="cls-6" d="M38.92,12.65s.09-2.36,.37-2.52c.26-.18,.34,2,.52,2.32,.17,.31,2.2,.4,2.54,.63,.37,.2-1.87,.4-2.18,.79-.28,.36-.41,1.87-.58,2-.19,.13-.45-1.71-.62-1.8-.17-.07-1.72-.18-2.11-.41-.39-.2,.73-.72,2.07-1.01h0Z"/>
            <path class="cls-6" d="M40.04,6.76s.13-3.71,.56-3.98c.43-.27,.56,3.15,.82,3.64,.26,.52,3.42,.65,3.98,.99,.56,.34-2.95,.65-3.4,1.24-.45,.59-.65,2.95-.93,3.15-.28,.2-.71-2.68-.97-2.81-.26-.13-2.69-.29-3.3-.63-.6-.34,1.14-1.15,3.23-1.6h0Z"/>
            <path class="cls-6" d="M37.02,10.49s.04-1.04,.17-1.1c.11-.09,.15,.88,.22,1.01,.09,.16,.97,.18,1.14,.29,.15,.09-.84,.18-.97,.34-.13,.16-.17,.83-.26,.9-.09,.04-.19-.77-.28-.81-.06-.02-.75-.07-.93-.18-.17-.09,.32-.32,.9-.45h0Z"/>
          </g>
        </g>
      </g>
    </g>
  </g>
</svg>