<?xml version="1.0" encoding="UTF-8"?>
<svg xmlns="http://www.w3.org/2000/svg" xmlns:xlink="http://www.w3.org/1999/xlink" viewBox="0 0 64 64">
  <defs>
    <style>
      .cls-1 {
        fill: url(#linear-gradient-2);
      }

      .cls-2 {
        fill: #a7a9ac;
      }

      .cls-2, .cls-3 {
        opacity: .5;
      }

      .cls-2, .cls-4, .cls-5, .cls-6 {
        mix-blend-mode: overlay;
      }

      .cls-7 {
        fill: #dd7771;
      }

      .cls-8 {
        fill: #ff3423;
      }

      .cls-9 {
        fill: #68e1eb;
      }

      .cls-9, .cls-10, .cls-11 {
        mix-blend-mode: multiply;
      }

      .cls-12 {
        isolation: isolate;
      }

      .cls-13 {
        fill: #020001;
      }

      .cls-10 {
        fill: #a4edf3;
      }

      .cls-3 {
        fill: #fff;
      }

      .cls-14 {
        mix-blend-mode: soft-light;
      }

      .cls-14, .cls-15 {
        fill: #fefefe;
      }

      .cls-16, .cls-17 {
        fill: #2b2829;
      }

      .cls-16, .cls-18 {
        mix-blend-mode: screen;
      }

      .cls-4 {
        fill: #848689;
      }

      .cls-19 {
        fill: #dcc2a7;
      }

      .cls-5 {
        fill: #8c9699;
      }

      .cls-20 {
        fill: #ff695f;
      }

      .cls-21 {
        fill: #ffc5aa;
      }

      .cls-22 {
        fill: #51546e;
      }

      .cls-11 {
        opacity: .3;
      }

      .cls-23 {
        fill: #ff372a;
      }

      .cls-24 {
        fill: #ffe0d2;
      }

      .cls-25 {
        fill: #4e5b77;
      }

      .cls-26 {
        fill: #274054;
      }

      .cls-27 {
        fill: url(#linear-gradient);
      }

      .cls-28 {
        fill: #0a090f;
      }

      .cls-6 {
        fill: #8c9899;
      }
    </style>
    <linearGradient id="linear-gradient" x1="64" y1="34.03" x2="5.45" y2="34.03" gradientUnits="userSpaceOnUse">
      <stop offset="0" stop-color="#cf965b"/>
      <stop offset=".25" stop-color="#ca9257"/>
      <stop offset=".51" stop-color="#be864c"/>
      <stop offset=".78" stop-color="#a9733a"/>
      <stop offset="1" stop-color="#925d26"/>
    </linearGradient>
    <linearGradient id="linear-gradient-2" x1="61.28" y1="31.49" x2="1.36" y2="31.49" gradientUnits="userSpaceOnUse">
      <stop offset="0" stop-color="#e8b886"/>
      <stop offset=".25" stop-color="#e3b482"/>
      <stop offset=".5" stop-color="#d7a877"/>
      <stop offset=".76" stop-color="#c29464"/>
      <stop offset="1" stop-color="#a97c4e"/>
    </linearGradient>
  </defs>
  <g class="cls-12">
    <g id="_Слой_2" data-name="Слой 2">
      <g id="_Слой_1-2" data-name="Слой 1">
        <g>
          <g>
            <path class="cls-27" d="M60.49,6.68c-1.75-1.6-4.41-2.62-7.38-2.62H14.98c-5.26,0-9.53,3.19-9.53,7.11V55.87c0,2.22,1.37,4.2,3.51,5.51,1.75,1.6,4.41,2.62,7.38,2.62H54.47c5.26,0,9.53-3.19,9.53-7.11V12.19c0-2.22-1.37-4.2-3.51-5.51Z"/>
            <path class="cls-1" d="M57.77,4.65c-.41-.37-.86-.71-1.36-1.02-1.75-1.6-4.41-2.62-7.38-2.62H10.89C5.64,1.02,1.36,4.21,1.36,8.13V52.83c0,2.22,1.37,4.2,3.51,5.51,.41,.37,.86,.71,1.36,1.02,1.75,1.6,4.41,2.62,7.38,2.62H51.74c5.26,0,9.53-3.19,9.53-7.11V10.16c0-2.22-1.37-4.2-3.51-5.51Z"/>
            <path class="cls-19" d="M47.66,0H9.53C4.28,0,0,3.19,0,7.11V51.81c0,3.92,4.28,7.11,9.53,7.11H47.66c5.26,0,9.53-3.19,9.53-7.11V7.11c0-3.92-4.28-7.11-9.53-7.11Z"/>
          </g>
          <path class="cls-6" d="M5.89,14.33c-.01-2.85,.17-6.06,2.96-8,2.12-1.47,5.21-1.81,8.09-1.99,6.68-.42,13.42-.36,20.09,.18,3.3,.26,6.79,.71,9.28,2.36,3.69,2.45,3.93,6.61,3.9,10.29-.08,9.24-.15,18.48-.23,27.72-.02,2.2-.08,4.51-1.54,6.42-1.54,2-4.45,3.25-7.46,3.8-3.01,.55-6.15,.48-9.24,.41-5.15-.12-10.31-.24-15.43-.71-2.79-.26-9.22-.18-10.19-2.65-.66-1.68-.07-4.15-.07-5.9,0-2.02-.02-4.03-.03-6.05-.02-4.03-.04-8.06-.06-12.1-.02-4.59-.04-9.18-.07-13.78Z"/>
          <path class="cls-5" d="M20.65,20.31c-3.25-.39-6.54-1.19-8.94-2.87-2.39-1.69-3.67-4.43-2.38-6.69,.89-1.57,2.87-2.69,5.01-3.3,2.14-.61,4.45-.77,6.74-.89,5.74-.3,11.52-.39,17.22,.17,2.22,.22,4.55,.57,6.21,1.7,2.93,1.99,2.55,5.66,.4,8.14-5.33,6.17-16.02,4.75-24.26,3.75Z"/>
          <path class="cls-16" d="M9.75,46.11c-.57-1.77-.49-3.61-.4-5.43,.37-7.55,.74-15.09,1.11-22.64,.14-2.75,.39-5.74,2.81-7.82,2.2-1.89,5.7-2.58,9.03-2.93,4.04-.42,8.14-.47,12.2-.14,3.7,.3,7.69,1.06,9.9,3.3,1.87,1.9,2.03,4.41,2.12,6.77,.33,9.07,.66,18.2-1.13,27.18-.4,1.99-1,4.12-2.97,5.5-2.25,1.58-5.63,1.75-8.72,1.75-5.06,0-10.12-.25-15.13-.73-4.65-.45-7.58-.99-8.81-4.8Z"/>
          <path class="cls-9" d="M47.66,1.02h-1.63c4.51,0,8.17,2.73,8.17,6.1V51.81c0,3.37-3.66,6.1-8.17,6.1h1.63c4.51,0,8.17-2.73,8.17-6.1V7.11c0-3.37-3.66-6.1-8.17-6.1Z"/>
          <path class="cls-2" d="M44.83,56.21c2.15-.26,4.29-1.07,5.39-2.47,.86-1.09,1-2.4,1.05-3.66,.05-1.24,.02-2.47-.08-3.71-.07-.81-.31-1.78-1.32-2.08-.75-.23-1.65,.04-2.16,.52-.51,.47-.69,1.1-.74,1.7-.11,1.25,.25,2.52-.08,3.75-.39,1.42-1.68,2.63-3.23,3.51-1.13,.64-4.12,1.25-4.5,2.21,1.43,.58,4.04,.42,5.67,.23Z"/>
          <path class="cls-4" d="M3.88,2.71c-1.55,1.11-2.52,2.67-2.52,4.4v26.08c12.35-3.44,32.73-4.39,54.47,14.33v-14.97C26.86,28.05,11.39,13.17,3.88,2.71Z"/>
          <path class="cls-3" d="M3.58,9.23c.26-1.79,1.27-3.6,3.21-4.67,2.66-1.47,6.31-1.25,9.61-.96,1.02,.09,2.32,.39,2.36,1.15,.03,.67-.97,1.08-1.84,1.21-2.2,.34-4.63-.04-6.59,.77-1.42,.58-2.33,1.69-2.8,2.85s-.56,2.38-.73,3.58c-.07,.46-.15,.93-.44,1.34-1.08,1.49-2.05,.48-2.43-.37-.6-1.35-.53-3.5-.32-4.91Z"/>
          <g class="cls-18">
            <path class="cls-17" d="M36.44,9.78c.84,1.55-.18,3.32-2.26,3.94-2.08,.62-4.45-.13-5.29-1.69-.84-1.55,.18-3.32,2.26-3.94,2.08-.62,4.45,.13,5.29,1.69Z"/>
            <ellipse class="cls-17" cx="41.34" cy="12.32" rx="2.18" ry="1.63"/>
            <path class="cls-17" d="M40.11,16.13c.37,.7-.08,1.49-1.01,1.77-.93,.28-1.99-.06-2.37-.76-.37-.7,.08-1.49,1.01-1.77,.93-.28,1.99,.06,2.37,.76Z"/>
          </g>
          <g class="cls-18">
            <path class="cls-17" d="M23.64,45.38c.8,1.49-.17,3.17-2.16,3.77-1.99,.6-4.25-.13-5.05-1.61-.8-1.49,.17-3.17,2.16-3.77,1.99-.6,4.25,.13,5.05,1.61Z"/>
            <path class="cls-17" d="M20.79,40.39c.22,.41-.05,.87-.59,1.03s-1.16-.03-1.38-.44c-.22-.41,.05-.87,.59-1.03,.54-.16,1.16,.03,1.38,.44Z"/>
            <path class="cls-17" d="M15.3,41.5c.45,.84-.09,1.78-1.21,2.12-1.12,.34-2.39-.07-2.84-.91-.45-.84,.09-1.78,1.21-2.12,1.12-.34,2.39,.07,2.84,.91Z"/>
          </g>
          <g class="cls-11">
            <path class="cls-10" d="M51.02,35.95c.79,1.47-.17,3.15-2.14,3.74-1.98,.59-4.22-.12-5.01-1.6-.79-1.47,.17-3.15,2.14-3.74,1.98-.59,4.22,.12,5.01,1.6Z"/>
            <path class="cls-10" d="M53.92,29.6c.58,1.08-.12,2.3-1.57,2.74-1.45,.43-3.09-.09-3.67-1.17-.58-1.08,.12-2.3,1.57-2.74,1.45-.43,3.09,.09,3.67,1.17Z"/>
            <path class="cls-10" d="M45.56,30.99c.37,.7-.08,1.49-1.01,1.77-.93,.28-1.99-.06-2.37-.76-.37-.7,.08-1.49,1.01-1.77,.93-.28,1.99,.06,2.37,.76Z"/>
            <path class="cls-10" d="M10.65,25.55c.41,.75-.09,1.61-1.1,1.92-1.01,.3-2.16-.06-2.57-.82-.41-.75,.09-1.61,1.1-1.92,1.01-.3,2.16,.06,2.57,.82Z"/>
            <path class="cls-10" d="M11.29,21.09c.21,.39-.04,.84-.57,1-.53,.16-1.13-.03-1.34-.43-.21-.39,.04-.84,.57-1,.53-.16,1.13,.03,1.34,.43Z"/>
            <path class="cls-10" d="M6.59,20.15c.34,.63-.07,1.34-.91,1.59-.84,.25-1.79-.05-2.13-.68-.34-.63,.07-1.34,.91-1.59s1.79,.05,2.13,.68Z"/>
          </g>
        </g>
        <g id="_Слой_6" data-name="Слой 6">
          <g>
            <path class="cls-22" d="M48.77,24.06c-.07,0-.15,.01-.23,.04-.08,.03-.16,.06-.24,.09-.09,.04-.17,.09-.23,.12-.16,.09-.32,.2-.46,.3l-.07,.05-.05,.03-.04,.03-.09,.06s-.08,.05-.12,.07l-.06,.04c-.12,.07-.24,.14-.36,.21-.23,.13-.46,.27-.69,.4-.5,.28-.95,.53-1.4,.76-.88,.44-1.81,.86-2.76,1.25-.37,.15-.73,.29-1.01,.39h-.02c-.38,.15-.71,.27-1.01,.37h-.03c-.47,.16-.95,.3-1.42,.43-.22,.06-.45,.12-.67,.18-.25,.07-.51,.13-.76,.2-.16,.04-.32,.09-.48,.13-.47,.16-.8,.27-1.11,.36-.42,.15-.81,.32-1.19,.51-.14,.07-.28,.14-.42,.22-.02,.01-.03,.04-.02,.05,0,.02,.02,.04,.04,.04,0,0,.01,0,.02,0,.41-.22,.87-.41,1.44-.6,.33-.1,.67-.2,1.05-.29,0,0,.02,.01,.03,.02,.03,.01,.07,.03,.1,.05h.02s.08,.05,.08,.05c.07,.03,.14,.06,.2,.09,.14,.07,.28,.13,.41,.2,.15,.08,.32,.17,.49,.27,.17,.1,.34,.2,.51,.3l.1,.06h.02s.02,.02,.02,.02c.29,.17,.6,.35,.9,.52,.39,.21,.72,.36,1.05,.48,.37,.13,.74,.21,1.09,.24,.06,0,.12,0,.18,0h-.04s-.04,.02-.04,.02c-.1,.03-.19,.06-.29,.08-.09,.02-.17,.04-.26,.06l-.15,.04c-.07,.02-.11,.05-.14,.09-.03,.05-.05,.11-.04,.17,.01,.06,.05,.11,.09,.15h.03s.03,.03,.03,.03c.03,0,.05,.01,.08,.01,.01,0,.03,0,.04,0,.18-.01,.37-.04,.62-.11,.21-.05,.42-.12,.66-.21,.39-.14,.8-.33,1.23-.58,.39-.22,.78-.48,1.19-.79,.36-.27,.71-.56,1.04-.87,.29-.27,.52-.5,.71-.71,.09-.09,.17-.19,.25-.29,.27-.32,.54-.66,.84-1.05,.38-.49,.69-.93,.97-1.35,.17-.25,.3-.46,.41-.66,.14-.24,.24-.44,.32-.63,.09-.2,.13-.36,.15-.52,.02-.18-.02-.34-.11-.46-.05-.06-.12-.11-.2-.14-.06-.02-.11-.03-.17-.03"/>
            <path class="cls-15" d="M48.54,24.1c-.08,.03-.16,.06-.24,.09-.09,.04-.17,.09-.23,.12-.16,.09-.32,.2-.46,.3l-.07,.05-.05,.03-.04,.03-.09,.06s-.08,.05-.12,.07l-.07,.04c-.12,.07-.24,.14-.36,.21-.23,.13-.46,.27-.69,.4-.49,.28-.95,.53-1.4,.76-.02,0-.03,.02-.05,.03-.02,.06-.04,.12-.05,.18-.01,.07-.01,.14,0,.2,0,0,0,0,0,0,0,.06,.02,.12,.04,.18h0c.02,.05,.06,.11,.09,.17,.05,.07,.11,.13,.17,.18,0,0,0,0,0,0,0,0,0,0,0,0,.1,.08,.21,.15,.32,.2,0,0,0,0,0,0,.2,.1,.42,.16,.64,.2,0,0,0,0,0,0,0,0,0,0,0,0,0,0,0,0,.01,0,.32,.06,.64,.07,.96,.04,0,0,0,0-.01,0,.28-.02,.56-.08,.82-.17,.26-.35,.5-.68,.71-.99,.17-.25,.3-.46,.41-.66,.14-.24,.24-.44,.32-.63,.09-.2,.13-.36,.15-.52,.02-.18-.02-.34-.11-.46-.05-.06-.12-.11-.2-.14-.06-.02-.11-.03-.17-.03-.07,0-.15,.01-.23,.04m-3.31,3.31s0,0,0,0c0,0,0,0,0,0"/>
            <polyline class="cls-15" points="44.91 27.2 44.91 27.2 44.91 27.2"/>
            <path class="cls-26" d="M16.88,39.93c-.14,0-.3,.02-.46,.06-.23,.05-.45,.15-.69,.26-.17,.08-.35,.17-.52,.25-.43,.21-.87,.43-1.32,.59-.4,.14-.73,.22-1.03,.25-.09,0-.17,0-.26,0-.38,0-.77-.06-1.13-.11h-.03c-.4-.07-.81-.13-1.21-.13-.06,0-.11,0-.17,0-.4,.02-.78,.11-1.12,.27-.12,.06-.24,.13-.36,.22-.1,.07-.19,.16-.28,.27-.29,.34-.43,.83-.39,1.38,.04,.5,.21,1.03,.5,1.59,.13,.25,.29,.5,.47,.74,.17,.22,.35,.43,.55,.63,.2,.19,.4,.36,.6,.49,.22,.14,.47,.26,.79,.36,.31,.1,.66,.18,1.05,.23,.31,.04,.63,.06,.97,.06,.05,0,.11,0,.16,0,.76-.01,1.55-.11,2.43-.3,.75-.16,1.52-.39,2.27-.68,.71-.27,1.33-.55,1.89-.87,.06-.04,.09-.11,.06-.17-.01-.03-.04-.05-.06-.06,0-.03,0-.06,0-.09,0-.03,0-.05,0-.08v-.02c0-.07-.01-.13-.02-.2-.01-.12-.02-.25-.04-.37-.03-.26-.07-.53-.11-.81-.11-.65-.25-1.21-.42-1.71-.22-.62-.47-1.08-.78-1.43-.17-.19-.35-.34-.55-.45-.22-.12-.45-.18-.69-.19-.03,0-.05,0-.08,0"/>
            <path class="cls-25" d="M36.84,28.71c-.44,0-.91,.05-1.43,.14-.26,.05-.55,.12-.87,.21-.3,.08-.59,.18-.86,.28-.52,.2-1.05,.46-1.59,.77-.51,.3-1,.65-1.45,1.03-.42,.36-.78,.72-1.08,1.1-.52,.43-1.08,.84-1.68,1.22-.56,.35-1.17,.69-1.85,1.03h0s.02,0,.02,0c-1.33,.65-2.75,1.2-4.12,1.74-.27,.11-.55,.21-.82,.32-1.83,.72-3.33,1.36-4.77,2.21-.03,.02-.04,.04-.05,.07,0,.03,0,.07,.02,.1,.02,.03,.04,.04,.07,.05-.06,.58-.07,1.16-.01,1.72,.06,.55,.17,1.11,.35,1.66,.33,1.03,.88,2.02,1.62,2.93,.35,.43,.75,.85,1.18,1.24,.41,.37,.87,.72,1.37,1.05,1.11,.74,2.33,1.29,3.63,1.63,1.02,.27,2.11,.41,3.23,.41,.25,0,.51,0,.77-.02,1.29-.07,2.65-.33,4.04-.76,.34-.11,.65-.22,.94-.34,.28-.11,.56-.24,.87-.4,.53-.27,1.07-.6,1.61-.99,.89-.65,1.76-1.43,2.81-2.53,.25-.26,.51-.54,.81-.87,.56-.1,1.12-.26,1.67-.46,1.14-.41,2.24-1.03,3.26-1.82,.68-.53,1.32-1.14,1.88-1.8,.13-.15,.26-.31,.4-.49,.07-.1,.15-.19,.22-.29,.06-.08,.12-.17,.18-.25,.29-.39,.56-.68,.84-.92,.26-.22,.55-.41,.86-.56,.43-.2,.89-.32,1.34-.43l.25-.06c.52-.14,1.08-.3,1.56-.61,.24-.16,.44-.35,.6-.58,.16-.23,.27-.48,.31-.75,.04-.24,.03-.5-.03-.79-.05-.24-.15-.49-.3-.77-.13-.23-.29-.46-.5-.71-.18-.21-.39-.42-.61-.6-.23-.19-.47-.35-.72-.49-.27-.14-.57-.25-.87-.3-.19-.04-.39-.05-.61-.05-.36,0-.72,.05-1.07,.09h-.09c-.31,.05-.64,.09-1.02,.12-.36,.04-.68,.06-.98,.08-.33,.02-.63,.03-.92,.03s-.59-.01-.86-.03c-.31-.03-.62-.07-.92-.13-.31-.06-.62-.15-.93-.26h-.02s0,0,0,0c-.29-.11-.58-.23-.86-.38-.13-.07-.27-.15-.43-.24-.11-.06-.21-.13-.31-.19-.05-.03-.11-.07-.16-.1-.29-.18-.59-.35-.89-.5-.27-.13-.55-.25-.86-.36-.28-.1-.57-.18-.86-.24-.27-.06-.55-.09-.87-.12-.13,0-.26-.01-.4-.01m-20.24,10.59h0s0-.02,0-.02c0,.03,0,.05,0,.08,0-.02,0-.03,0-.05h0s0,0,0,0c0,0,0,0,0,0,0,0,0,0,0,0h0s0,0,0,0c0,0,0,0,0,0,0,0,0,0,0,0"/>
            <path class="cls-15" d="M49.65,31s0,0,0,0c-.13,.09-.26,.18-.39,.28-.11,.09-.21,.19-.31,.3h0s0,0,0,0c0,0,0,0,0,0,0,0,0,0,0,0h0s0,0,0,0c0,0,0,0,0,0h0c-.09,.1-.18,.21-.26,.32-.08,.11-.15,.23-.22,.35,0,0,0,0,0,0,0,0,0,0,0,0,0,0,0,0,0,0-.07,.13-.13,.26-.17,.39-.05,.13-.09,.26-.12,.39,0,0,0,0,0,0,0,0,0,0,0,0,0,0,0,0,0,0-.06,.27-.08,.55-.07,.82h0s0,0,0,0c0,0,0,0,0,0,0,0,0,0,0,0,.01,.28,.06,.56,.15,.83,.09,.26,.2,.52,.35,.75,0,0,0,0,0,0,.07,.12,.16,.23,.25,.33,.09,.1,.18,.2,.28,.29h0c.11,.09,.22,.18,.34,.26,.11,.08,.23,.15,.36,.22,.11,.06,.22,.11,.33,.15,.02,0,.04-.01,.06-.02l.26-.07c.52-.14,1.08-.3,1.56-.61,.24-.16,.44-.35,.6-.58,.16-.23,.27-.48,.32-.76,.04-.24,.03-.5-.03-.79-.05-.24-.15-.49-.3-.77-.13-.23-.29-.46-.5-.71-.18-.21-.39-.41-.61-.6-.23-.19-.47-.35-.73-.49-.27-.14-.57-.25-.87-.3-.07-.01-.15-.02-.22-.03l-.04,.02m-1.17,1.24s0,0,0,0c0,0,0,0,0,0m-.29,.78s0,0,0,0c0,0,0,0,0,0m1.63,3.52h0s0,0,0,0Z"/>
            <polyline class="cls-15" points="48.96 31.57 48.96 31.57 48.96 31.57 48.96 31.57"/>
            <polyline class="cls-15" points="48.96 31.57 48.96 31.57 48.96 31.57 48.96 31.57"/>
            <path class="cls-15" d="M16.41,40.16h.01s-.06,0-.09,0c0,.18,.02,.36,.03,.53,.06,.55,.17,1.11,.35,1.66,.33,1.03,.88,2.02,1.62,2.94,.35,.43,.74,.84,1.18,1.24,.41,.37,.87,.72,1.37,1.05,1.11,.74,2.33,1.29,3.63,1.63,1.02,.27,2.11,.41,3.23,.41,.24,0,.5,0,.77-.02,1.29-.07,2.65-.33,4.04-.76,.35-.11,.66-.22,.94-.34,.28-.11,.56-.24,.87-.4,.53-.27,1.07-.6,1.61-.99,.89-.64,1.76-1.43,2.81-2.53,.24-.25,.51-.54,.81-.87,.07-.01,.13-.03,.2-.04-.04,0-.09,0-.13,.01-.12,.01-.24,.03-.36,.05-.12,.02-.24,.05-.35,.08,0,0,0,0,.01,0-.16,.04-.31,.1-.46,.16-.08,.03-.15,.07-.23,.11-.08,.04-.15,.08-.22,.13,0,0,0,0,0,0-.27,.16-.52,.33-.77,.51-.24,.17-.48,.35-.72,.52-.25,.18-.51,.36-.77,.52-.12,.08-.25,.15-.38,.22-.13,.07-.26,.13-.4,.2-.59,.28-1.19,.53-1.8,.74-.3,.1-.6,.2-.91,.28-.15,.04-.3,.08-.45,.12-.13,.03-.27,.06-.41,.09-.33,.06-.66,.11-1,.13-.32,.02-.64,.03-.97,.02-.33-.01-.66-.04-.99-.09-.32-.05-.63-.11-.95-.19-.65-.16-1.28-.38-1.89-.65-.61-.27-1.19-.58-1.75-.94-.57-.36-1.11-.75-1.62-1.18-.27-.23-.53-.46-.8-.7-.28-.25-.56-.51-.83-.76-.56-.51-1.12-1.01-1.71-1.47-.08-.07-.17-.13-.25-.19-.07-.05-.13-.1-.2-.15-.11-.09-.22-.17-.34-.26-.13-.1-.26-.2-.4-.29-.13-.09-.25-.17-.39-.24,0,0,0,0,0,0-.1-.05-.2-.1-.3-.14-.05-.02-.09-.04-.14-.05-.04-.01-.09-.03-.13-.04-.07-.02-.14-.03-.21-.04-.05,0-.11,0-.16,0h-.02"/>
            <path class="cls-13" d="M48.33,37.35c-.29,.21-.55,.44-.79,.69-.25,.26-.49,.55-.72,.83-.23,.28-.45,.57-.69,.85-.23,.27-.47,.53-.73,.77-.74,.72-1.57,1.35-2.47,1.86,0,0,.02,0,.02-.01-.43,.24-.88,.46-1.34,.64-.47,.19-.95,.34-1.44,.47h0c-1.06,.26-2.16,.36-3.25,.34,0,0,0,0,0,0-.14,0-.28,0-.41-.02-.02,0-.04,.01-.05,.03,0,.02,.01,.05,.03,.05,.85,.05,1.71,.03,2.55-.07,.41-.05,.82-.13,1.22-.22,.2-.04,.39-.1,.59-.15,.2-.05,.39-.12,.58-.18,.77-.26,1.51-.63,2.21-1.06,.72-.45,1.39-1,1.99-1.6,.21-.21,.41-.43,.6-.66,.2-.24,.38-.49,.57-.74,.09-.12,.18-.25,.27-.37,.09-.12,.18-.24,.28-.36,.19-.24,.39-.48,.61-.69h0c.13-.12,.27-.24,.41-.34,.02-.01,.02-.04,0-.06,0-.01-.02-.02-.03-.02,0,0-.02,0-.02,0m-8.15,6.1s0,0,.01,0c0,0,0,0-.01,0"/>
            <path class="cls-13" d="M50.86,35.3s0,.06,.03,.07c.16,.06,.32,.11,.48,.16,.17,.05,.34,.09,.52,.11,.17,.03,.35,.04,.52,.05h0c.05-.07,.11-.14,.16-.22-.02,0-.03,0-.05,0-.13,.01-.25,.02-.38,.01,0,0,0,0,.01,0-.36,0-.72-.07-1.06-.17,0,0,0,0,0,0-.06-.02-.12-.04-.17-.06,0,0-.02,0-.02,0-.02,0-.04,.01-.05,.03"/>
            <path class="cls-13" d="M52.4,33.64c-.09,.01-.18,.02-.27,.03-.1,0-.2,0-.3,0h.02c-.25,0-.49-.02-.74-.06-.04,0-.08,.02-.08,.06,0,.04,.02,.08,.06,.08,.18,.02,.35,.05,.53,.06,.17,.01,.34,.02,.51,.02s.34,0,.51-.03c.09,0,.18-.02,.27-.04-.02-.07-.04-.14-.05-.21-.15,.03-.3,.06-.45,.08"/>
            <polyline class="cls-15" points="48.96 31.57 48.96 31.57 48.96 31.57 48.96 31.57"/>
            <path class="cls-22" d="M35.41,28.85c-.26,.05-.55,.12-.87,.21-.31,.09-.59,.18-.86,.28-.52,.2-1.05,.46-1.59,.77-.51,.3-1,.65-1.45,1.03-.42,.36-.78,.72-1.08,1.1-.02,.02-.05,.04-.07,.06,.25-.08,.49-.16,.73-.25,.54-.21,1.07-.45,1.6-.69,0,0,0,0,0,0,0,0,0,0,0,0h0c.14-.06,.28-.13,.41-.19,0,0,0,0,0,0,.59-.28,1.19-.55,1.8-.77,.38-.14,.78-.26,1.18-.35,.43-.1,.87-.17,1.31-.17,.04,0,.08,0,.12,0,.27,0,.54,.02,.81,.05,.31,.04,.62,.1,.92,.18,.61,.15,1.21,.35,1.81,.55,.31,.1,.61,.2,.92,.28,.28,.08,.56,.15,.85,.21,.58,.12,1.16,.21,1.75,.26,0,0,0,0-.01,0,.6,.05,1.2,.07,1.8,.05,.59-.02,1.18-.08,1.76-.18h0s0,0,0,0h0c.27-.05,.54-.11,.81-.18-.3,.04-.61,.07-.95,.1-.36,.04-.68,.06-.98,.08-.33,.02-.63,.03-.92,.03s-.58-.01-.86-.03c-.31-.03-.62-.07-.92-.13-.3-.06-.62-.15-.93-.26h-.02c-.3-.11-.59-.24-.86-.38-.14-.07-.28-.15-.43-.24-.11-.06-.21-.13-.31-.19l-.16-.1c-.3-.18-.6-.35-.89-.5-.27-.13-.55-.25-.86-.36-.28-.1-.57-.18-.86-.24-.27-.06-.55-.09-.87-.12-.13,0-.27-.01-.4-.01-.45,0-.91,.05-1.43,.14"/>
            <polyline class="cls-22" points="31.83 31.35 31.83 31.35 31.83 31.35"/>
            <path class="cls-25" d="M22.97,42.37c-.15,0-.3,0-.45,.02-.23,.02-.46,.07-.69,.14,0,0-.01-.01-.02-.02-.02-.01-.04-.02-.06-.02-.01,0-.02,0-.03,0-.03,0-.06,.03-.08,.06-.03,.07-.07,.14-.1,.21l-.04,.08c-.05,.1-.1,.2-.16,.3-.1,.19-.22,.38-.36,.6-.23,.35-.48,.72-.82,1.15-.14,.18-.28,.36-.42,.53-.14,.17-.29,.36-.44,.53-.27,.31-.5,.54-.75,.73h0c-.23,.17-.49,.32-.77,.44-.31,.13-.64,.23-.96,.32l-.16,.05c-.33,.1-.67,.2-.99,.34-.43,.19-1,.56-1.28,1.18-.1,.23-.16,.49-.18,.76-.01,.25,.02,.51,.09,.78,.07,.25,.18,.52,.32,.78,.13,.25,.31,.5,.51,.74,.39,.47,.88,.88,1.43,1.19,.27,.15,.55,.28,.85,.38,.28,.09,.58,.15,.92,.18,.17,.01,.34,.02,.51,.02,.57,0,1.19-.08,1.83-.23,.76-.18,1.54-.47,2.39-.88,.76-.37,1.51-.81,2.3-1.35,.7-.48,1.41-1.02,2.11-1.62,.89-.77,1.71-1.57,2.42-2.39,.05-.06,.05-.13,0-.18-.02-.02-.05-.03-.08-.04,.03-.04,.04-.09,.02-.12-.31-.59-.74-1.18-1.26-1.75-.54-.59-1.14-1.12-1.79-1.57-.69-.48-1.4-.84-2.09-1.08-.59-.2-1.17-.3-1.72-.3"/>
            <path class="cls-15" d="M16.82,47.47l-.16,.05c-.31,.09-.67,.2-.99,.34-.43,.19-1,.56-1.29,1.19-.1,.23-.16,.49-.18,.76-.01,.24,.02,.51,.09,.78,.07,.25,.18,.51,.32,.78,.13,.25,.31,.5,.51,.74,.39,.47,.89,.89,1.43,1.19,.27,.15,.55,.28,.85,.38,.28,.09,.58,.15,.92,.18,.15,.01,.3,.02,.44,.02,.01-.02,.03-.03,.04-.05,.19-.24,.36-.5,.52-.76,.06-.09,.11-.19,.16-.29,.04-.07,.07-.15,.1-.22h0c.16-.36,.26-.76,.31-1.16h0c.06-.45,.06-.91,0-1.37,0,0,0,0,0,.01-.05-.4-.15-.79-.31-1.16h0c-.11-.25-.25-.5-.42-.72,0,0,0,0,0,0,0,0,0,0,0,0,0,0,0,0,0,0,0,0,0,0,0,0,0,0,0,0,0,0h0s0,0,0,0c0,0,0,0,0,0,0,0,0,0,0,0-.13-.17-.28-.32-.45-.45-.15-.12-.31-.21-.49-.29h0c-.18-.07-.37-.12-.57-.15,0,0,0,0,0,0,0,0,0,0,0,0,0,0,0,0,0,0,0,0,0,0,0,0,0,0,0,0,0,0,0,0,0,0,0,0-.06,0-.12-.01-.19-.02-.22,.08-.45,.14-.66,.21"/>
            <polyline class="cls-15" points="19.16 48.18 19.16 48.18 19.16 48.18 19.16 48.18"/>
            <path class="cls-15" d="M19.16,48.18h0s0,0,0,0Z"/>
            <polyline class="cls-15" points="19.17 48.18 19.16 48.18 19.17 48.18"/>
            <path class="cls-13" d="M14.6,49.05c-.09,.01-.18,.03-.26,.05,0,.01,0,.02-.01,.03,0,0,0,.02,0,.02-.02,.07-.05,.14-.06,.22,.07-.02,.13-.05,.2-.07,.11-.03,.21-.06,.32-.08h0c.28-.05,.57-.07,.86-.04h-.02c.19,.01,.38,.04,.55,.11h0s.03,0,.05,.01c.02,0,.04,0,.06-.02,0-.02,0-.05-.02-.06-.16-.06-.33-.12-.5-.15-.19-.04-.38-.06-.57-.06-.02,0-.05,0-.07,0-.17,0-.34,.02-.51,.04m.2,.17h0s0,0,0,0Z"/>
            <path class="cls-13" d="M15.38,51c-.18,.02-.35,.05-.53,.09-.09,.02-.17,.04-.26,.07-.03,0-.06,.02-.09,.03,.01,.03,.03,.06,.04,.08,.03,.06,.06,.12,.09,.17,.02,0,.05-.02,.07-.03,.09-.04,.18-.08,.28-.11,.09-.04,.19-.06,.28-.09,.09-.03,.19-.05,.28-.07,.26-.05,.52-.06,.78-.04,0,0,0,0-.01,0,.04,0,.08,0,.12,.01,.02,0,.05,0,.05-.03,0-.02,0-.05-.03-.05-.17-.03-.34-.05-.51-.05-.03,0-.06,0-.1,0-.16,0-.31,.01-.47,.03"/>
            <path class="cls-13" d="M30.16,46.68c-.13,.16-.25,.33-.37,.5-.06,.09-.12,.17-.18,.25-.06,.07-.11,.14-.17,.21-.23,.28-.47,.55-.71,.82-.25,.26-.5,.52-.76,.77-.26,.25-.53,.49-.81,.72,0,0,0,0,0,0-.33,.28-.67,.55-1.02,.81-.36,.26-.73,.51-1.1,.75-.75,.47-1.53,.9-2.33,1.28,0,0,0,0,.01,0-.57,.27-1.15,.51-1.75,.72-.02,0-.03,.03-.03,.05,0,.02,.03,.03,.05,.03,.84-.3,1.67-.65,2.48-1.04,.81-.4,1.6-.85,2.35-1.36,.75-.5,1.47-1.05,2.15-1.65,.34-.3,.66-.61,.97-.94,.31-.33,.62-.67,.9-1.03,.18-.23,.35-.47,.52-.7,.02-.03,.04-.06,.04-.1,0-.04-.02-.07-.05-.1-.03-.02-.06-.03-.09-.03-.04,0-.08,.02-.1,.05m-2.98,3.26s0,0-.01,0c0,0,0,0,.01,0"/>
            <path class="cls-13" d="M21.7,42.3c-.02,.06-.05,.11-.07,.17-.03,.07-.06,.13-.08,.2-.06,.13-.12,.26-.18,.39-.12,.26-.26,.51-.41,.76,0,0,0-.01,.01-.02-.13,.21-.27,.42-.41,.63-.15,.22-.31,.43-.48,.64-.32,.4-.68,.78-1.05,1.14h.01c-.15,.13-.31,.27-.47,.41-.16,.14-.33,.27-.51,.39-.02,.01-.02,.04,0,.06,.01,.02,.04,.02,.06,0,.18-.13,.36-.25,.54-.39,.18-.14,.36-.28,.53-.43,.18-.15,.35-.31,.51-.47,.17-.17,.33-.34,.49-.52,.16-.18,.31-.36,.45-.55,.14-.19,.28-.38,.41-.57,.13-.2,.25-.4,.37-.6,.11-.2,.22-.4,.31-.61,.04-.08,.07-.16,.1-.25,.04-.09,.06-.18,.09-.28,0-.03,.01-.06,0-.09-.01-.03-.04-.06-.07-.07-.02,0-.03,0-.05,0-.05,0-.1,.03-.12,.08m-.73,1.5s0,0,0-.01c0,0,0,0,0,.01"/>
            <path class="cls-26" d="M26.95,12.64c-.14,0-.29,0-.44,.01-.27,.02-.56,.05-.94,.1-.15,.02-.29,.04-.44,.06l-.24,.04c-.48,.07-.96,.18-1.43,.31-1.35,.38-2.63,1.01-3.92,1.66-.03,.01-.05,.04-.06,.07-.01,.03,0,.07,.01,.1,0,.02,.02,.03,.04,.04,0,.02,.02,.04,.03,.06,.26,.24,.58,.46,1.02,.68,.38,.19,.78,.35,1.19,.51l.21,.08c.12,.05,.24,.09,.36,.14l.09,.04c.07,.03,.13,.05,.2,.08,.11,.04,.24,.08,.36,.11,.21,.05,.44,.08,.67,.09h.05c.18,0,.38-.02,.59-.06,.36-.07,.74-.21,1.2-.45,.17-.09,.36-.2,.6-.34,.07-.04,.15-.09,.22-.14,.08-.05,.17-.1,.25-.15,.11-.06,.21-.13,.32-.19,.11-.06,.22-.12,.32-.19,.31-.19,.56-.35,.78-.52,.2-.15,.45-.36,.63-.63,.07-.11,.13-.22,.16-.34,.03-.12,.03-.24,0-.36-.03-.11-.09-.22-.18-.33-.07-.08-.17-.16-.29-.22-.27-.15-.58-.2-.82-.22-.16-.02-.32-.03-.51-.03"/>
            <path class="cls-25" d="M27.27,14.48c-.51,0-1.01,.03-1.51,.1-1.22,.16-2.34,.52-3.32,1.06-.03,.02-.05,.05-.05,.09-.04,.04-.04,.11-.01,.15,.84,1.29,2.12,2.19,3.35,3.06,.17,.12,.34,.24,.51,.36,.31,.22,.56,.41,.79,.58-.02,.03-.02,.06-.01,.1,.02,.05,.07,.09,.12,.09,.01,0,.03,0,.04,0,.9-.36,1.68-.73,2.39-1.12,.88-.48,1.6-.98,2.19-1.51,.14-.12,.3-.27,.44-.44,.12-.15,.21-.29,.26-.43,.05-.14,.07-.27,.05-.39-.02-.12-.06-.24-.14-.34-.07-.09-.16-.18-.28-.27-.11-.08-.23-.15-.38-.22-.29-.14-.6-.24-.89-.33-.37-.11-.71-.2-1.02-.27-.43-.09-.87-.16-1.32-.21-.41-.04-.82-.06-1.22-.06"/>
            <path class="cls-21" d="M29.67,16.62c-.16,0-.32,.02-.45,.05-.28,.04-.55,.11-.76,.17-.61,.16-1.19,.37-1.67,.55-.42,.15-.83,.32-1.25,.48-.06,.02-.11,.04-.17,.07-.04,.01-.06,.03-.08,.06-.02,.03-.02,.06-.01,.1,0,.03,.02,.05,.05,.07,0,.03,.03,.06,.06,.08,.16,.08,.32,.18,.47,.27,.26,.15,.53,.31,.81,.43,0,0,0,.02,.01,.02,.02,.03,.04,.05,.08,.06,.01,0,.02,0,.03,0,.02,0,.04,0,.07-.02,.07-.03,.14-.06,.22-.09,0,0,.02,0,.02,0l.07-.03c.11-.04,.21-.09,.32-.14l.06-.03,.07-.03s0,0,0,0c0,0,0,0,0,0,0,0,0,0,0,0,0,0,0,0,0,0h.02s0,0,0,0h0s.17-.07,.17-.07c.37-.16,.76-.32,1.13-.5,.3-.14,.54-.27,.75-.4,.11-.07,.21-.13,.3-.2,.09-.07,.16-.13,.22-.21,.05-.06,.1-.13,.11-.22,.02-.09,0-.17-.05-.23-.1-.14-.27-.18-.41-.19-.05,0-.1,0-.15,0"/>
            <path class="cls-28" d="M18.97,25.76c-.01-.21-.03-.42-.07-.64-.01-.09-.03-.19-.05-.28-.02-.1-.04-.2-.07-.28,0-.03-.02-.05-.04-.07-.03-.03-.07-.05-.11-.05-.03,0-.05,0-.08,.02-.04,.02-.06,.05-.07,.09-.06,.15-.1,.28-.14,.4-.04,.12-.07,.25-.1,.37l-.02,.06-.02,.06c-.03,.11-.05,.21-.08,.32-.02,.04-.05,.09-.07,.13-.03,.06-.05,.11-.08,.17-.05,.12-.1,.24-.15,.36-.02,.06-.05,.13-.07,.19,0,0,0,.01,0,.02-.08,.13-.17,.26-.28,.4-.26,.34-.56,.65-.79,.88l-.16,.16c-.16,.16-.32,.33-.48,.5-.01-.02-.04-.03-.06-.03-.04,0-.07,.03-.08,.08,0,.04,0,.07,0,.11l-.02,.03-.02,.02s-.03,.09,0,.12c0,0,.01,.01,.02,.02,0,.05-.01,.1-.02,.15-.12,.84-.35,1.63-.61,2.43-.05,.15-.09,.29-.13,.44l-.06,.19-.03,.11c-.05,.17-.11,.35-.16,.52-.13,.45-.23,.86-.3,1.26-.11,.58-.15,1.06-.14,1.5,0,.25,.03,.49,.07,.73,.02,.12,.05,.23,.09,.34,.04,.1,.09,.22,.17,.31,.03,.05,.08,.09,.14,.09,.01,0,.03,0,.04,0,.04-.01,.07-.04,.09-.07,.02-.03,.02-.07,.01-.11,0-.03,0-.05,0-.08,.07-.05,.14-.1,.21-.16,.09-.07,.17-.15,.26-.25,.17-.18,.31-.38,.45-.56,.25-.35,.49-.73,.74-1.15,.53-.88,.96-1.75,1.28-2.58,.08-.21,.15-.42,.22-.63,.06-.18,.1-.36,.15-.56,.1-.38,.18-.77,.26-1.15,.18-.9,.3-1.77,.34-2.6,.03-.47,.03-.91,0-1.32Z"/>
            <path class="cls-20" d="M18.51,29.48c-.56,0-1.15,.06-1.75,.19-.84,.18-1.69,.48-2.52,.89-.8,.39-1.53,.86-2.19,1.4-.29,.24-.6,.52-.93,.86-.32,.32-.62,.66-.87,.99-.28,.36-.52,.74-.72,1.11-.2,.39-.36,.8-.45,1.22-.2,.84-.12,1.7,.21,2.41,.16,.34,.37,.63,.64,.86,.26,.22,.56,.37,.89,.42,.08,.01,.16,.02,.25,.02,.26,0,.54-.06,.8-.19,.19-.09,.38-.21,.55-.35,.18-.14,.33-.32,.49-.49l.05-.05c.11-.13,.22-.26,.34-.38,.15-.14,.3-.28,.46-.41l.06-.05c.18-.15,.36-.31,.55-.46l.12-.1c.32-.26,.64-.53,.95-.81,.39-.35,.72-.68,1.01-1.02,.17-.2,.33-.41,.45-.57,.13-.18,.27-.37,.41-.59,.49-.72,.91-1.47,1.25-2.24,.35-.78,.62-1.59,.79-2.38,.05-.01,.08-.05,.09-.1,0-.03,0-.07-.03-.09-.02-.03-.05-.04-.08-.05-.26-.03-.54-.05-.81-.05"/>
            <path class="cls-23" d="M18.15,29.49c-.09,.35-.2,.7-.34,1.03-.17,.41-.37,.81-.59,1.2-.45,.8-.98,1.55-1.54,2.28-.26,.34-.53,.68-.8,1.01-.26,.32-.52,.64-.79,.95-.29,.33-.59,.64-.91,.94-.31,.29-.64,.55-1,.78-.18,.11-.36,.21-.55,.3-.09,.04-.19,.08-.28,.12-.09,.03-.18,.06-.27,.09-.34,.09-.71,.12-1.05,.05-.16-.03-.32-.09-.47-.16-.14-.08-.28-.17-.4-.29-.07-.07-.13-.14-.18-.22,.05,.35,.14,.68,.29,.99,.16,.34,.37,.63,.64,.86,.26,.22,.57,.37,.89,.42,.08,.01,.17,.02,.25,.02,.26,0,.54-.06,.8-.19,.19-.09,.38-.21,.56-.35,.17-.14,.32-.31,.49-.5l.05-.05v-.02s.04-.03,.04-.03c.1-.11,.2-.23,.31-.33,.15-.15,.32-.29,.46-.41l.06-.05c.18-.15,.36-.31,.55-.46l.12-.1,.05-.04c.3-.25,.61-.5,.91-.77,.39-.35,.72-.68,1.01-1.02,.19-.22,.37-.46,.45-.57,.14-.19,.28-.39,.41-.59,.49-.72,.91-1.48,1.25-2.24,.35-.79,.62-1.59,.79-2.38,.05-.01,.08-.05,.09-.1,0-.03,0-.07-.03-.1-.02-.03-.05-.04-.08-.05-.27-.03-.54-.05-.81-.05-.12,0-.23,0-.35,0"/>
            <polyline class="cls-23" points="9.04 37.51 9.04 37.51 9.04 37.51"/>
            <path class="cls-7" d="M18.55,29.69c-.1,0-.2,.01-.29,.02-.19,.02-.38,.04-.57,.07-.38,.06-.77,.14-1.14,.25-.39,.11-.77,.24-1.14,.39-.37,.15-.74,.33-1.09,.52-.18,.1-.35,.2-.53,.31-.18,.11-.35,.22-.52,.33-.33,.23-.66,.47-.96,.74-.6,.52-1.15,1.1-1.62,1.74-.36,.49-.66,1.03-.91,1.59,0,.02,0,.05,.03,.05,.02,0,.04,0,.05-.02,.06-.13,.12-.26,.18-.39,0,0,0,0,0,0,.33-.65,.77-1.24,1.26-1.78,0,0,0,0,0,0,.15-.17,.31-.33,.48-.49,.17-.16,.34-.32,.52-.47,.18-.15,.37-.29,.56-.43,.19-.14,.38-.27,.57-.39,0,0,0,0-.01,0,.21-.13,.41-.25,.63-.37,.21-.12,.43-.22,.65-.33,.22-.1,.44-.2,.67-.29,.22-.09,.45-.17,.68-.24h-.04c.37-.1,.74-.2,1.12-.27,.19-.04,.38-.07,.57-.09,.18-.02,.37-.04,.55-.05,.09,0,.18,0,.26,0,.1,0,.21,0,.31,0,.06,0,.11,0,.15-.05,.04-.04,.07-.09,.07-.14,0-.06-.01-.11-.05-.15-.03-.04-.09-.07-.14-.07-.1,0-.2,0-.3,.01"/>
            <path class="cls-25" d="M17.26,14.4c-.63,.05-1.27,.14-1.9,.28-.3,.07-.6,.15-.91,.24-.14,.04-.28,.09-.43,.14-.16,.06-.29,.1-.41,.15-.21,.09-.41,.2-.61,.32-.18,.11-.35,.25-.54,.41-.3,.26-.59,.58-.91,1.01-.32,.43-.62,.89-.9,1.34-.3,.47-.6,.96-.95,1.41-.33,.43-.66,.77-1.01,1.04-.27,.2-.55,.37-.84,.49-.27,.11-.56,.19-.86,.24-.02,0-.04,.01-.05,.03-.45,.29-.85,.65-1.21,1.08-.35,.42-.63,.89-.83,1.38-.01,.01-.02,.03-.02,.04-.18,.68-.24,1.37-.18,2.08,.07,.7,.26,1.37,.56,1.98,.3,.61,.73,1.16,1.23,1.58,.26,.22,.55,.41,.86,.56,.31,.16,.65,.28,1.01,.36,.31,.07,.64,.11,1.09,.13,.14,0,.28,0,.42,0,.22,0,.44,0,.66-.02,.74-.05,1.49-.18,2.22-.4,.74-.22,1.44-.51,2.09-.88,.67-.37,1.26-.82,1.76-1.33,.51-.52,.92-1.1,1.21-1.72,.35-.75,.59-1.59,.71-2.48,.12,.42,.22,.87,.29,1.34,0,0,0,0,0,0h0s0,.03,0,.03c.13,1.03,.12,2.15-.04,3.36-.1,.72-.25,1.46-.45,2.19-.2,.72-.43,1.4-.69,2.03-.38,.89-.88,1.74-1.49,2.54-.32,.41-.68,.82-1.07,1.22-.14,.16-.29,.31-.45,.45-.09,.1-.19,.2-.29,.29,0,0,0,.02,0,.02-.27,.29-.56,.57-.88,.81-.16,.17-.33,.32-.5,.48h0c.06,.19,.14,.37,.25,.53,.1,.14,.23,.27,.38,.39,.28,.21,.63,.35,1.05,.42,.14,.02,.29,.03,.44,.03,.28,0,.56-.04,.83-.11,.38-.1,.77-.28,1.15-.53,.26-.17,.51-.37,.76-.61,.08-.08,.16-.16,.24-.24,0,0,.02,0,.03,0,.01,0,.03,0,.04,0,1.59-.29,3.38-.62,5.09-1.12,1.9-.55,3.45-1.26,4.75-2.14,.45-.31,.89-.66,1.3-1.04,.02-.01,.03-.03,.03-.06,.27-.22,.52-.47,.74-.73,.34-.4,.64-.85,.87-1.35,.43-.91,.67-1.97,.71-3.14,.01-.53-.02-1.08-.09-1.66-.07-.54-.18-1.09-.33-1.63-.14-.5-.32-1.02-.54-1.54-.25-.59-.54-1.19-.86-1.79-.66-1.25-1.43-2.41-2.28-3.45-.91-1.12-1.9-2.05-2.92-2.75-.98-.68-2.15-1.17-3.47-1.48-.6-.14-1.25-.24-1.92-.29-.31-.02-.63-.03-.94-.03-.33,0-.67,.01-1.01,.04m1.55,10.85h0s0,0,0,0"/>
            <path class="cls-22" d="M25.75,17.57c.73,.84,1.38,1.75,1.95,2.71,.56,.94,1.06,1.93,1.49,2.94,.2,.47,.38,.94,.55,1.41,.09,.25,.17,.5,.25,.76,.08,.28,.16,.56,.22,.84,.13,.56,.22,1.12,.26,1.69,.04,.57,.05,1.14,0,1.71-.05,.55-.14,1.1-.3,1.64-.15,.53-.36,1.05-.62,1.54-.27,.5-.59,.97-.97,1.39-.21,.24-.43,.46-.66,.68-.23,.21-.47,.42-.72,.61-.23,.18-.47,.35-.71,.51-.25,.17-.5,.32-.76,.48-.12,.07-.25,.15-.37,.22,.97-.4,1.83-.87,2.6-1.39,.45-.31,.89-.66,1.3-1.04,.02-.01,.03-.03,.03-.06,.27-.22,.52-.46,.74-.72,.34-.4,.64-.86,.87-1.35,.43-.91,.67-1.97,.71-3.14,.01-.53-.02-1.09-.09-1.66-.07-.54-.18-1.09-.33-1.63-.14-.5-.32-1.02-.54-1.54-.25-.58-.54-1.19-.86-1.79-.66-1.25-1.43-2.41-2.28-3.45-.92-1.12-1.9-2.05-2.92-2.75-.35-.24-.72-.46-1.12-.65,.84,.59,1.6,1.29,2.27,2.07"/>
            <path class="cls-13" d="M31.31,26.38s-.04,.02-.04,.05c.04,.2,.07,.4,.1,.61,.03,.21,.05,.42,.07,.63,.02,.2,.02,.39,.03,.59,0,.2,0,.39,0,.59,0,.36-.04,.72-.09,1.08-.05,.37-.13,.73-.24,1.09,0-.01,0-.02,.01-.04-.09,.31-.2,.62-.33,.92-.13,.29-.27,.57-.43,.83h0s0,0-.01,0c0,0,0,.01,0,.02,0,0,0,0,0-.01-.37,.6-.82,1.13-1.33,1.62-.35,.33-.73,.64-1.12,.92-.4,.28-.82,.54-1.26,.77,0,0,0,0,0,0-.39,.21-.79,.39-1.21,.54-.02,0-.04,.04-.03,.06,0,.02,.04,.04,.06,.03,1.64-.61,3.21-1.52,4.39-2.83,.29-.32,.55-.67,.78-1.03,.26-.41,.46-.85,.62-1.31,.16-.45,.26-.92,.33-1.4,.07-.48,.08-.96,.07-1.44,0-.34-.05-.68-.09-1.02-.02-.18-.05-.36-.09-.54-.04-.17-.09-.35-.13-.52,0,0,0,0,0,0-.01-.06-.03-.11-.04-.17,0-.02-.02-.04-.04-.04,0,0,0,0,0,0m-.92,6.36s0,0,0,0c0,0,0,0,0,0,0,0,0,0,0,.01"/>
            <path class="cls-15" d="M11.55,16.97c-.32,.43-.61,.89-.89,1.33-.3,.48-.61,.97-.95,1.42-.34,.43-.66,.77-1.01,1.04-.26,.2-.55,.37-.84,.49-.27,.11-.56,.19-.86,.24-.02,0-.04,.01-.05,.03-.44,.29-.85,.65-1.21,1.08-.35,.42-.63,.89-.83,1.38-.01,.02-.02,.03-.02,.04-.18,.68-.24,1.38-.18,2.08,.07,.7,.25,1.37,.56,1.99,.3,.61,.73,1.16,1.23,1.59,.27,.22,.56,.41,.86,.56,.19,.1,.39,.18,.6,.25,.03-.02,.06-.03,.09-.05,.12-.07,.23-.15,.33-.23,0,0,0,0,0,0h0s0,0,0,0c0,0,0,0,0,0,0,0,0,0,0,0,0,0,0,0,0,0,0,0,0,0,0,0,0,0,0,0,0,0,0,0,0,0,0,0,.15-.12,.29-.24,.42-.38,.12-.13,.24-.26,.35-.41h0s0,0,0,0c0,0,0,0,0,0,0,0,0,0,0,0,0,0,0,0,0,0,0,0,0,0,0,0,0,0,0,0,0,0h0s0,0,0,0c.3-.4,.55-.83,.75-1.29h0c.1-.24,.19-.48,.26-.73,.07-.24,.12-.49,.15-.74h0c.06-.44,.06-.89,0-1.33,0,0,0,0,0,0h0s0,0,0,0c-.04-.31-.12-.62-.19-.93-.08-.31-.16-.61-.21-.92-.04-.23-.07-.46-.07-.69,0-.23,.02-.47,.08-.69,.05-.21,.13-.41,.22-.61,.09-.2,.2-.39,.31-.57,.24-.38,.5-.73,.75-1.1,.12-.18,.25-.37,.36-.56,.06-.1,.11-.2,.16-.3,.04-.07,.07-.14,.1-.21,0,0,0,0,0,0,0,0,0,0,0,0,0,0,0,0,0,0,.03-.08,.06-.17,.09-.25,.04-.14,.09-.27,.13-.41,.09-.33,.18-.67,.22-1.01,0,0,0,0,0,0,.01-.1,.02-.2,.03-.3,0-.08,0-.17,0-.25,0-.06-.02-.11-.04-.17,0,0,0,0,0,0-.01-.02-.02-.05-.04-.07-.01-.01-.02-.02-.03-.03,0,0,0,0-.01,0-.2,.2-.4,.44-.61,.73m-1.65,11.15s0,0,0,0c0,0,0,0,0,0"/>
            <polygon class="cls-15" points="9.15 29.41 9.15 29.41 9.15 29.41 9.15 29.41"/>
            <polyline class="cls-15" points="9.15 29.41 9.15 29.41 9.15 29.41 9.15 29.41"/>
            <polygon class="cls-15" points="9.15 29.41 9.15 29.41 9.15 29.41 9.15 29.41 9.15 29.41"/>
            <polyline class="cls-15" points="9.15 29.41 9.15 29.41 9.15 29.41 9.15 29.41"/>
            <path class="cls-24" d="M5.73,22.6c-.35,.42-.63,.89-.83,1.38-.01,.02-.02,.03-.02,.04-.18,.68-.24,1.38-.18,2.08,.07,.7,.25,1.37,.56,1.99,.3,.61,.73,1.16,1.23,1.59,0,0,.02,.01,.03,.02,0-.01,.01-.03,.02-.04,0,0,0,0,0,0,.34-.8,.58-1.65,.7-2.51,0,0,0,0,0,0,0,0,0,0,0,0,0,0,0,0,0,0,0,0,0,0,0,0,0,0,0,0,0,0,0,0,0,0,0,0,.08-.63,.1-1.27,.02-1.89,0,0,0,0,0,0-.03-.22-.07-.43-.13-.65-.06-.21-.12-.41-.21-.61h0c-.07-.15-.14-.3-.22-.45-.09-.15-.18-.29-.28-.42-.1-.13-.2-.25-.32-.36-.09-.09-.19-.18-.29-.26-.02,.03-.05,.05-.07,.08"/>
            <path class="cls-28" d="M18.57,23.39s-.02,.01-.02,.02c0,.01,0,.02,0,.03,0,0,.01,.02,.02,.02,.15,.04,.31,.08,.46,.11,.02,0,.05-.02,.05-.04,0-.02-.01-.04-.04-.05-.13-.03-.26-.05-.39-.09,0,0,0,0,.01,0-.02,0-.04-.01-.06-.02,0,0-.01,0-.02,0,0,0,0,0-.01,0"/>
            <path class="cls-28" d="M18.57,23.39s-.02,.02-.02,.03c0,.01,0,.02,0,.03,0,0,.02,.02,.03,.02,.1,0,.19,0,.29,0,.01,0,.02,0,.03,0,0,0,.02-.02,.02-.03,0-.02-.01-.05-.04-.05-.1,0-.19,0-.29,0-.01,0-.02,0-.03,0"/>
            <path class="cls-28" d="M18.55,23.36s-.04,.02-.04,.05c0,.02,.02,.04,.05,.04,.07,0,.15-.01,.22-.01,.09,0,.19,0,.28,.02,.02,0,.04-.01,.05-.04,0-.02-.01-.04-.04-.05-.09,0-.17-.01-.26-.02-.01,0-.02,0-.03,0-.08,0-.16,0-.24,.01"/>
            <path class="cls-28" d="M21.14,24.44c-.07-.11-.17-.21-.26-.28-.11-.1-.23-.19-.38-.28-.29-.19-.6-.33-.92-.42-.23-.07-.46-.1-.67-.1-.09,0-.17,0-.25,.02,0,0-.02,0-.03-.01,0,0-.02,0-.03,0-.06,0-.11,.04-.12,.09-.02,.1-.04,.2-.06,.3-.02,.1-.04,.2-.06,.3-.05,.22-.1,.42-.15,.62-.11,.39-.24,.79-.4,1.17-.13,.32-.29,.63-.47,.95-.09,.16-.17,.29-.26,.42-.1,.14-.2,.28-.28,.39l.02-.03c-.19,.24-.39,.47-.6,.67-.19,.19-.41,.38-.66,.57-.31,.23-.63,.44-.98,.63-.33,.18-.68,.35-1.06,.5h0c-.71,.28-1.45,.49-2.19,.62-.01,0-.02,0-.03,.02,0,.01,0,.02,0,.04,0,.02,.02,.03,.04,.03,.93-.16,1.72-.38,2.42-.65,.82-.32,1.55-.73,2.17-1.21,.34-.26,.65-.55,.91-.84,.28-.31,.53-.66,.77-1.07,.23-.39,.45-.84,.63-1.31,.1-.26,.19-.53,.26-.79,.01,.1,.02,.21,.04,.31,.02,.15,.04,.3,.06,.45,.02,.15,.03,.31,.04,.46,.03,.6,.03,1.2-.01,1.8-.04,.62-.12,1.25-.23,1.86-.12,.64-.28,1.27-.48,1.88-.4,1.22-.96,2.39-1.66,3.47-.33,.51-.69,1-1.07,1.46-.19,.23-.39,.45-.6,.67-.21,.22-.43,.43-.65,.63,0,0,0,0,0,0-.11,.1-.22,.19-.33,.28-.14,.13-.27,.25-.42,.37-.09,.08-.18,.16-.27,.24,0,.02,.02,.03,.02,.05,.02,0,.03,0,.04-.01,.69-.49,1.35-1.05,1.95-1.66,.3-.31,.59-.62,.86-.95,.27-.33,.53-.68,.77-1.03,.49-.71,.9-1.48,1.26-2.26,.18-.39,.34-.79,.48-1.2,.14-.41,.27-.83,.38-1.26,.22-.83,.36-1.67,.42-2.53,.04-.51,.07-1.03,.07-1.55,0-.26,0-.51-.02-.77,0-.12-.01-.24-.03-.36,.14,.16,.29,.28,.44,.38,.29,.19,.6,.29,.89,.29,.06,0,.13,0,.19-.01,.09-.01,.18-.04,.25-.07,.09-.04,.16-.09,.24-.17,.1-.1,.17-.25,.19-.41,.04-.28-.09-.54-.2-.71Z"/>
            <polyline class="cls-28" points="13.93 37.78 13.94 37.78 13.93 37.78"/>
            <polyline class="cls-28" points="13.93 37.79 13.93 37.78 13.93 37.79"/>
            <path class="cls-28" d="M19.52,35.25s-.08,.05-.09,.1c0,.03-.02,.06-.03,.09-.01,.04-.02,.08-.04,.11-.02,.08-.05,.16-.07,.24-.05,.16-.11,.32-.17,.48-.12,.31-.25,.62-.41,.92,0,0,0,0,0-.01,0,0,0,0,0,.01,0,0,0,.02-.01,.03,0,0,0,0,0-.01-.27,.53-.59,1.03-.99,1.48-.13,.15-.28,.28-.43,.41-.15,.13-.32,.25-.49,.36-.24,.15-.5,.27-.77,.36,0,0,0,0,0,0,0,0,0,0-.01,0,0,0,0,0,0,0,0,0,0,0,0,0-.15,.05-.3,.08-.46,.1-.02,0-.04,.03-.04,.05,0,.02,.03,.04,.05,.04,.36-.04,.71-.13,1.04-.27,.33-.14,.64-.34,.92-.57,.29-.24,.55-.5,.79-.79,.12-.14,.24-.29,.34-.45,.11-.15,.21-.31,.3-.48,.18-.32,.35-.66,.48-1,.12-.32,.22-.64,.29-.97,0,0,0,0,0,0,.01-.04,.01-.08,0-.13-.02-.04-.05-.07-.1-.09-.02,0-.04,0-.06,0-.02,0-.05,0-.07,.02m-2.69,4.18s0,0,0,0c0,0,0,0,0,0m-.8,.37h0s0,0,0,0c0,0,0,0,0,0m2.68-2.6s0,0,0-.01c0,0,0,0,0,0,0,0,0,.01,0,.02"/>
            <path class="cls-28" d="M20.89,36.92c-.07,.18-.14,.36-.23,.53-.09,.17-.19,.34-.3,.5-.11,.17-.24,.32-.37,.47,0,0,.01-.02,.02-.03-.14,.16-.29,.3-.45,.44-.17,.14-.34,.27-.53,.39,0,0,0,0,.01,0-.31,.2-.64,.36-.99,.47-.08,.02-.15,.04-.23,.06-.03,0-.04,.03-.04,.06,0,.03,.03,.05,.06,.04,.36-.08,.71-.19,1.04-.35,.35-.16,.68-.38,.97-.62,.15-.12,.29-.25,.43-.39,.07-.07,.13-.14,.19-.21,.07-.08,.13-.15,.19-.23,.11-.15,.21-.32,.3-.48,.09-.17,.17-.35,.23-.53,.03-.08-.01-.18-.1-.21-.02,0-.04,0-.05,0-.07,0-.13,.04-.15,.11"/>
            <path class="cls-28" d="M19.61,20.61c-.41,0-.82,.1-1.19,.26-.44,.19-.82,.48-1.13,.85-.3,.36-.52,.78-.62,1.24,0,.04,.02,.08,.06,.09,.04,0,.08-.02,.09-.06,.01-.06,.03-.13,.05-.19,.06-.17,.13-.34,.22-.49,.11-.18,.24-.34,.39-.48,.2-.18,.41-.34,.65-.46,0,0,0,0-.01,0h.01s.02-.01,.02-.02c0,0-.01,0-.02,.01,.22-.12,.46-.21,.7-.27,.22-.05,.45-.06,.68-.06,.23,.01,.47,.06,.69,.12,.23,.07,.45,.18,.66,.3,.3,.19,.57,.43,.82,.69,.2,.21,.37,.44,.55,.67,.08,.11,.23,.14,.34,.06,.05-.04,.09-.09,.1-.16,.01-.07,0-.13-.04-.19-.21-.36-.49-.69-.79-.97-.14-.14-.3-.26-.46-.37-.17-.12-.36-.22-.55-.31-.19-.09-.39-.15-.59-.2-.2-.05-.41-.06-.62-.06h-.01Zm-.79,.48s0,0-.01,0c0,0,0,0,.01,0m-1.31,.71s0,0,0,0c0,0,0,0,0,0m.63-.45h0s0,0,0,0c0,0,0,0,0,0"/>
            <path class="cls-13" d="M18.05,18.5c0-.1-.03-.2-.07-.34-.04-.14-.1-.27-.15-.37-.05-.11-.11-.22-.17-.34-.05-.08-.09-.17-.14-.25-.05-.08-.1-.15-.17-.24-.25-.33-.52-.6-.8-.81-.16-.12-.33-.21-.5-.27-.08-.03-.16-.05-.25-.06-.04,0-.08,0-.12,0h0s-.1,0-.14,.01c-.09,.01-.18,.04-.26,.07-.07,.03-.13,.07-.18,.12-.04,.04-.07,.09-.09,.15-.02,.06-.01,.13,0,.19,.01,.07,.04,.14,.07,.19,.04,.07,.09,.13,.13,.19,.06,.07,.13,.14,.2,.21,0,0,.01,.02,.02,.02h.02s0,.01,0,.01c.03,.03,.07,.06,.1,.08,.06,.05,.12,.09,.18,.13,.06,.04,.11,.07,.17,.1l.08,.05c.17,.1,.32,.19,.45,.29h.02s.02,.03,.04,.04c.07,.07,.14,.14,.22,.21,.06,.07,.12,.15,.18,.22v.02s.01,0,.01,0h0c.1,.14,.19,.26,.3,.38,.09,.1,.18,.21,.3,.3,.04,.03,.08,.05,.12,.07,.03,0,.05,.01,.08,.01,.02,0,.04,0,.06,0h.02s.09-.01,.13-.04c.03-.02,.06-.05,.09-.09,.02-.03,.03-.07,.04-.11,0-.04,.01-.09,0-.15Z"/>
            <path class="cls-28" d="M14.1,19.64c-.33,.09-.61,.28-.87,.5-.28,.24-.53,.52-.75,.81-.21,.28-.41,.57-.58,.87-.1,.17-.2,.35-.29,.53-.02,.05,.01,.11,.06,.13,.06,.02,.11,0,.13-.06,.03-.05,.05-.11,.08-.16,0,0,0,0,0,.01,.3-.55,.65-1.07,1.08-1.53,0,0,0,0,0,0,.2-.21,.41-.41,.66-.57,.14-.09,.28-.16,.43-.21,.1-.03,.2-.05,.3-.05,.08,0,.16,0,.23,.02,.08,.02,.16,.05,.23,.09,.06,.04,.12,.08,.18,.13,.05,.05,.09,.1,.13,.16,.04,.07,.08,.15,.1,.23,.04,.13,.06,.26,.06,.4,0,.31-.04,.63-.11,.93-.1,.41-.25,.82-.4,1.21-.05,.13,.02,.27,.14,.32,.13,.05,.27-.02,.32-.14,.11-.27,.21-.54,.29-.82,.09-.33,.17-.66,.2-1,.02-.17,.02-.35,0-.52-.01-.16-.05-.32-.1-.47-.05-.14-.12-.28-.22-.4-.1-.13-.24-.23-.38-.3-.18-.09-.38-.14-.58-.14-.12,0-.23,.02-.34,.05m.44,.29s.01,0,.02,0c0,0-.01,0-.02,0m-.91,.23s0,0-.01,0h.01Zm1.58,.37s0,.01,0,.02c0,0,0-.01,0-.02m.06,.4s0,.02,0,.02c0,0,0-.02,0-.02m-.1,.87s0,.03-.01,.04c0-.01,0-.03,.01-.04m-3.3,.46s0,0,0,0c0,0,0,0,0,0"/>
            <path class="cls-28" d="M6.01,20.41c-.17,0-.35,.02-.53,.06-.23,.05-.46,.15-.66,.28-.1,.07-.2,.14-.3,.23-.09,.08-.17,.18-.26,.3-.16,.22-.28,.46-.35,.73-.03,.13-.06,.27-.08,.44-.02,.14-.02,.3-.02,.46,0,.33,.05,.65,.14,.96,.09,.32,.22,.59,.39,.81,.05,.06,.09,.11,.14,.16,.05,.05,.1,.09,.17,.14,.15,.11,.31,.19,.46,.21,.05,0,.09,.01,.14,.01,.03,0,.05,0,.08,0,.04,0,.07-.01,.11-.02,.04,0,.07-.03,.11-.04,.12-.05,.22-.14,.32-.27,.05-.06,.09-.14,.13-.23,.04-.09,.07-.18,.1-.27,.04-.17,.06-.35,.06-.54,.39-.05,.78-.24,1.1-.52,.11-.1,.22-.21,.34-.38,.08-.11,.15-.22,.21-.34,.11-.22,.16-.45,.16-.66,0-.2-.05-.4-.15-.59-.09-.16-.22-.32-.39-.45-.16-.13-.35-.24-.57-.32-.2-.08-.42-.12-.66-.14-.06,0-.11,0-.17,0"/>
            <path class="cls-14" d="M6.11,20.73c-.12,0-.28,.03-.36,.16-.02,.03-.03,.06-.03,.09,0,.04,0,.08,0,.11,0,.03,.03,.07,.04,.1,.03,.04,.07,.08,.1,.11,.06,.05,.13,.1,.2,.13,.03,.02,.07,.03,.1,.05,.06,.03,.11,.06,.17,.09,.07,.03,.15,.06,.23,.09,.07,.02,.14,.03,.21,.03h.03c.07,0,.14-.03,.2-.07,.06-.04,.11-.11,.13-.19,.02-.06,0-.12-.03-.2-.02-.05-.07-.1-.13-.15-.06-.05-.12-.09-.18-.12-.06-.03-.13-.07-.21-.1-.16-.07-.28-.1-.41-.12-.03,0-.06,0-.09,0"/>
            <path class="cls-13" d="M38.78,29.28c-.02,.07,.02,.15,.09,.18,.5,.16,1,.35,1.49,.55,.47,.19,.93,.4,1.4,.61,.44,.2,.89,.4,1.36,.54,.23,.07,.47,.13,.71,.17,.11,.02,.23,.04,.35,.05,.13,.01,.27,.02,.4,.02,.61,.02,1.22-.03,1.82-.09,.61-.06,1.22-.14,1.82-.19,0,0,0,0-.01,0,.05,0,.11,0,.16-.01,.02,0,.04-.01,.04-.04,0-.02-.02-.05-.04-.04-.28,.02-.56,.04-.85,.07-.29,.03-.58,.05-.87,.08,0,0,0,0,.01,0-.45,.04-.9,.06-1.35,.07-.23,0-.45,0-.68-.02-.22-.01-.44-.04-.65-.07-.2-.04-.41-.09-.6-.16-.2-.07-.4-.14-.6-.22-.41-.17-.8-.36-1.2-.55-.42-.2-.85-.38-1.28-.56-.44-.18-.89-.34-1.35-.48-.01,0-.03,0-.04,0-.06,0-.12,.04-.14,.1m5.21,1.88s0,0,0,0c0,0,0,0,0,0"/>
            <g>
              <path class="cls-8" d="M6.68,8.82s-.07,.05-.1,.08c-.04,.04-.07,.08-.1,.12-.16,.23-.27,.5-.32,.8-.05,.29-.04,.6,.03,.96,.06,.32,.15,.66,.29,1.03,.12,.32,.26,.64,.45,1.04,.19,.38,.39,.76,.56,1.08l.11,.2c.12,.23,.25,.46,.37,.69,0,0,0,0,0,0,0-.02,0-.03,0-.05,0-.4,0-.79,.02-1.19,0-.15-.01-.31-.02-.46v-.04c0-.16-.01-.33-.02-.49v-.33c-.02-.25-.03-.49-.05-.74-.01-.16-.03-.32-.05-.46-.03-.23-.07-.46-.12-.71-.06-.28-.12-.51-.19-.73-.04-.11-.08-.22-.12-.32-.05-.11-.09-.2-.14-.27-.05-.08-.11-.14-.16-.19-.03-.02-.06-.04-.09-.06-.04-.02-.08-.03-.12-.03,0,0-.01,0-.02,0-.06,0-.13,.02-.2,.06"/>
              <path class="cls-8" d="M2.88,12.23c-.09,.02-.15,.08-.19,.12-.05,.06-.09,.13-.12,.24-.02,.06-.03,.11-.03,.17,0,.06,0,.13,.02,.21,.02,.13,.08,.26,.17,.42,.08,.13,.18,.26,.31,.41,.11,.13,.24,.25,.37,.38,.23,.21,.48,.41,.69,.58,.36,.28,.76,.55,1.24,.83,.57,.34,1.15,.64,1.65,.88,0,0,0,0,.01,0-.05-.08-.1-.16-.15-.24-.1-.15-.21-.29-.31-.44-.37-.48-.71-.99-1.06-1.49,0-.01-.02-.02-.03-.03-.32-.38-.61-.71-.9-1.01-.22-.22-.41-.4-.59-.55-.1-.08-.2-.16-.29-.22-.1-.07-.2-.13-.28-.17-.09-.05-.18-.07-.26-.09-.04,0-.08-.01-.11-.01-.04,0-.08,0-.13,.01"/>
            </g>
          </g>
        </g>
      </g>
    </g>
  </g>
</svg>