<?xml version="1.0" encoding="UTF-8"?>
<svg xmlns="http://www.w3.org/2000/svg" xmlns:xlink="http://www.w3.org/1999/xlink" viewBox="0 0 64 64">
  <defs>
    <style>
      .cls-1 {
        fill: #ff607d;
      }

      .cls-2 {
        fill: url(#linear-gradient-2);
      }

      .cls-3 {
        fill: #ff5a75;
      }

      .cls-4 {
        fill: #493754;
      }

      .cls-5 {
        fill: #fddfb3;
        opacity: .3;
      }

      .cls-5, .cls-6 {
        mix-blend-mode: multiply;
      }

      .cls-7 {
        fill: #8c8587;
      }

      .cls-7, .cls-8, .cls-9 {
        mix-blend-mode: overlay;
      }

      .cls-10 {
        fill: #ffbbac;
      }

      .cls-11 {
        fill: #ffdbd3;
      }

      .cls-8, .cls-12 {
        opacity: .5;
      }

      .cls-8, .cls-6 {
        fill: #fdd08c;
      }

      .cls-13 {
        isolation: isolate;
      }

      .cls-12 {
        fill: #fff;
      }

      .cls-14 {
        fill: #3a2a43;
      }

      .cls-15 {
        mix-blend-mode: soft-light;
      }

      .cls-15, .cls-16 {
        fill: #fefefe;
      }

      .cls-17, .cls-18 {
        fill: #2b2829;
      }

      .cls-17, .cls-19 {
        mix-blend-mode: screen;
      }

      .cls-20 {
        fill: #dcc2a7;
      }

      .cls-21 {
        fill: #685077;
      }

      .cls-22 {
        fill: #554062;
      }

      .cls-23 {
        fill: #604a6f;
      }

      .cls-24 {
        fill: url(#linear-gradient);
      }

      .cls-25 {
        fill: #e44d65;
      }

      .cls-9 {
        fill: #998a8e;
      }

      .cls-26 {
        fill: #ededed;
      }
    </style>
    <linearGradient id="linear-gradient" x1="64" y1="34.03" x2="5.45" y2="34.03" gradientUnits="userSpaceOnUse">
      <stop offset="0" stop-color="#cf965b"/>
      <stop offset=".25" stop-color="#ca9257"/>
      <stop offset=".51" stop-color="#be864c"/>
      <stop offset=".78" stop-color="#a9733a"/>
      <stop offset="1" stop-color="#925d26"/>
    </linearGradient>
    <linearGradient id="linear-gradient-2" x1="61.28" y1="31.49" x2="1.36" y2="31.49" gradientUnits="userSpaceOnUse">
      <stop offset="0" stop-color="#e8b886"/>
      <stop offset=".25" stop-color="#e3b482"/>
      <stop offset=".5" stop-color="#d7a877"/>
      <stop offset=".76" stop-color="#c29464"/>
      <stop offset="1" stop-color="#a97c4e"/>
    </linearGradient>
  </defs>
  <g class="cls-13">
    <g id="_Слой_2" data-name="Слой 2">
      <g id="_Слой_1-2" data-name="Слой 1">
        <g>
          <g>
            <path class="cls-24" d="M60.49,6.68c-1.75-1.6-4.41-2.62-7.38-2.62H14.98c-5.26,0-9.53,3.19-9.53,7.11V55.87c0,2.22,1.37,4.2,3.51,5.51,1.75,1.6,4.41,2.62,7.38,2.62H54.47c5.26,0,9.53-3.19,9.53-7.11V12.19c0-2.22-1.37-4.2-3.51-5.51Z"/>
            <path class="cls-2" d="M57.77,4.65c-.41-.37-.86-.71-1.36-1.02-1.75-1.6-4.41-2.62-7.38-2.62H10.89C5.64,1.02,1.36,4.21,1.36,8.13V52.83c0,2.22,1.37,4.2,3.51,5.51,.41,.37,.86,.71,1.36,1.02,1.75,1.6,4.41,2.62,7.38,2.62H51.74c5.26,0,9.53-3.19,9.53-7.11V10.16c0-2.22-1.37-4.2-3.51-5.51Z"/>
            <path class="cls-20" d="M47.66,0H9.53C4.28,0,0,3.19,0,7.11V51.81c0,3.92,4.28,7.11,9.53,7.11H47.66c5.26,0,9.53-3.19,9.53-7.11V7.11c0-3.92-4.28-7.11-9.53-7.11Z"/>
          </g>
          <path class="cls-9" d="M5.89,14.33c-.01-2.85,.17-6.06,2.96-8,2.12-1.47,5.21-1.81,8.09-1.99,6.68-.42,13.42-.36,20.09,.18,3.3,.26,6.79,.71,9.28,2.36,3.69,2.45,3.93,6.61,3.9,10.29-.08,9.24-.15,18.48-.23,27.72-.02,2.2-.08,4.51-1.54,6.42-1.54,2-4.45,3.25-7.46,3.8s-6.15,.48-9.24,.41c-5.15-.12-10.31-.24-15.43-.71-2.79-.26-9.22-.18-10.19-2.65-.66-1.68-.07-4.15-.07-5.9,0-2.02-.02-4.03-.03-6.05-.02-4.03-.04-8.06-.06-12.1-.02-4.59-.04-9.18-.07-13.78Z"/>
          <path class="cls-9" d="M20.65,20.31c-3.25-.39-6.54-1.19-8.94-2.87-2.39-1.69-3.67-4.43-2.38-6.69,.89-1.57,2.87-2.69,5.01-3.3,2.14-.61,4.45-.77,6.74-.89,5.74-.3,11.52-.39,17.22,.17,2.22,.22,4.55,.57,6.21,1.7,2.93,1.99,2.55,5.66,.4,8.14-5.33,6.17-16.02,4.75-24.26,3.75Z"/>
          <path class="cls-17" d="M9.75,46.11c-.57-1.77-.49-3.61-.4-5.43,.37-7.55,.74-15.09,1.11-22.64,.14-2.75,.39-5.74,2.81-7.82,2.2-1.89,5.7-2.58,9.03-2.93,4.04-.42,8.14-.47,12.2-.14,3.7,.3,7.69,1.06,9.9,3.3,1.87,1.9,2.03,4.41,2.12,6.77,.33,9.07,.66,18.2-1.13,27.18-.4,1.99-1,4.12-2.97,5.5-2.25,1.58-5.63,1.75-8.72,1.75-5.06,0-10.12-.25-15.13-.73-4.65-.45-7.58-.99-8.81-4.8Z"/>
          <path class="cls-6" d="M47.66,1.02h-1.63c4.51,0,8.17,2.73,8.17,6.1V51.81c0,3.37-3.66,6.1-8.17,6.1h1.63c4.51,0,8.17-2.73,8.17-6.1V7.11c0-3.37-3.66-6.1-8.17-6.1Z"/>
          <path class="cls-8" d="M44.83,56.21c2.15-.26,4.29-1.07,5.39-2.47,.86-1.09,1-2.4,1.05-3.66,.05-1.24,.02-2.47-.08-3.71-.07-.81-.31-1.78-1.32-2.08-.75-.23-1.65,.04-2.16,.52-.51,.47-.69,1.1-.74,1.7-.11,1.25,.25,2.52-.08,3.75-.39,1.42-1.68,2.63-3.23,3.51-1.13,.64-4.12,1.25-4.5,2.21,1.43,.58,4.04,.42,5.67,.23Z"/>
          <path class="cls-7" d="M3.88,2.71c-1.55,1.11-2.52,2.67-2.52,4.4v26.08c12.35-3.44,32.73-4.39,54.47,14.33v-14.97C26.86,28.05,11.39,13.17,3.88,2.71Z"/>
          <path class="cls-12" d="M3.58,9.23c.26-1.79,1.27-3.6,3.21-4.67,2.66-1.47,6.31-1.25,9.61-.96,1.02,.09,2.32,.39,2.36,1.15,.03,.67-.97,1.08-1.84,1.21-2.2,.34-4.63-.04-6.59,.77-1.42,.58-2.33,1.69-2.8,2.85s-.56,2.38-.73,3.58c-.07,.46-.15,.93-.44,1.34-1.08,1.49-2.05,.48-2.43-.37-.6-1.35-.53-3.5-.32-4.91Z"/>
          <g class="cls-19">
            <ellipse class="cls-18" cx="32.66" cy="10.91" rx="4.07" ry="3.03"/>
            <path class="cls-18" d="M43.37,11.71c.45,.84-.09,1.78-1.21,2.12-1.12,.34-2.39-.07-2.84-.91-.45-.84,.09-1.78,1.21-2.12,1.12-.34,2.39,.07,2.84,.91Z"/>
            <path class="cls-18" d="M40.11,16.13c.37,.7-.08,1.49-1.01,1.77-.93,.28-1.99-.06-2.37-.76-.37-.7,.08-1.49,1.01-1.77,.93-.28,1.99,.06,2.37,.76Z"/>
          </g>
          <g class="cls-19">
            <path class="cls-18" d="M23.64,45.38c.8,1.49-.17,3.17-2.16,3.77-1.99,.6-4.25-.13-5.05-1.61-.8-1.49,.17-3.17,2.16-3.77,1.99-.6,4.25,.13,5.05,1.61Z"/>
            <path class="cls-18" d="M20.79,40.39c.22,.41-.05,.87-.59,1.03-.54,.16-1.16-.03-1.38-.44-.22-.41,.05-.87,.59-1.03,.54-.16,1.16,.03,1.38,.44Z"/>
            <path class="cls-18" d="M15.3,41.5c.45,.84-.09,1.78-1.21,2.12-1.12,.34-2.39-.07-2.84-.91-.45-.84,.09-1.78,1.21-2.12,1.12-.34,2.39,.07,2.84,.91Z"/>
          </g>
          <path class="cls-5" d="M51.02,35.95c.79,1.47-.17,3.15-2.14,3.74-1.98,.59-4.22-.12-5.01-1.6-.79-1.47,.17-3.15,2.14-3.74,1.98-.59,4.22,.12,5.01,1.6Z"/>
          <path class="cls-5" d="M53.92,29.6c.58,1.08-.12,2.3-1.57,2.74-1.45,.43-3.09-.09-3.67-1.17-.58-1.08,.12-2.3,1.57-2.74,1.45-.43,3.09,.09,3.67,1.17Z"/>
          <path class="cls-5" d="M45.56,30.99c.37,.7-.08,1.49-1.01,1.77-.93,.28-1.99-.06-2.37-.76-.37-.7,.08-1.49,1.01-1.77,.93-.28,1.99,.06,2.37,.76Z"/>
          <path class="cls-5" d="M10.65,25.55c.41,.75-.09,1.61-1.1,1.92-1.01,.3-2.16-.06-2.57-.82-.41-.75,.09-1.61,1.1-1.92,1.01-.3,2.16,.06,2.57,.82Z"/>
          <path class="cls-5" d="M11.29,21.09c.21,.39-.04,.84-.57,1-.53,.16-1.13-.03-1.34-.43-.21-.39,.04-.84,.57-1,.53-.16,1.13,.03,1.34,.43Z"/>
          <path class="cls-5" d="M6.59,20.15c.34,.63-.07,1.34-.91,1.59-.84,.25-1.79-.05-2.13-.68-.34-.63,.07-1.34,.91-1.59,.84-.25,1.79,.05,2.13,.68Z"/>
        </g>
        <g id="_Слой_6" data-name="Слой 6">
          <g>
            <path class="cls-23" d="M5.85,24.67c-.06,0-.13,.02-.19,.05-.06,.03-.1,.07-.15,.14-.03,.05-.05,.11-.07,.19-.01,.07-.02,.15-.01,.24,0,.17,.04,.36,.11,.59,.06,.2,.13,.42,.22,.67,.08,.22,.19,.46,.3,.71,.22,.48,.42,.83,.63,1.13,.52,.74,1.11,1.45,1.74,2.12,.64,.67,1.33,1.29,2.05,1.85,.72,.56,1.48,1.05,2.24,1.46-.01,.03,0,.07,.02,.1,.02,.03,.04,.05,.07,.05,.09,.02,.19,.03,.28,.04,.04,.02,.08,.04,.12,.06,.02,0,.04,.02,.06,.02,.04,0,.07-.02,.1-.04,.3,.03,.63,.05,.97,.05h.04c.69,0,1.3-.07,1.87-.21,.66-.16,1.19-.42,1.56-.77,.2-.19,.37-.42,.47-.66,.03-.07,.05-.13,.07-.2,.03-.1,.05-.19,.05-.3,.01-.18-.04-.37-.13-.55-.05-.1-.13-.19-.19-.27-.06-.07-.14-.14-.24-.22-.08-.06-.16-.12-.25-.17,.3,.04,.62,.05,.95,.05,.13,0,.27,0,.4,0,.07,0,.13-.06,.13-.13,0-.07-.06-.13-.13-.13-.14,0-.27,0-.4,0-.39,0-.79-.02-1.19-.07-1.1-.13-2.25-.43-3.44-.89-1.62-.64-3.25-1.55-5-2.79-.21-.15-.41-.29-.61-.44-.36-.27-.71-.54-1.05-.81l-.14-.11c-.22-.18-.46-.37-.71-.52-.1-.06-.2-.11-.31-.15-.08-.03-.16-.05-.25-.06,0,0-.02,0-.02,0"/>
            <path class="cls-16" d="M5.66,24.72c-.06,.03-.11,.07-.15,.14-.03,.05-.05,.11-.07,.19-.01,.07-.02,.15-.01,.24,0,.17,.04,.36,.11,.59,.05,.2,.13,.42,.23,.67,.09,.22,.19,.46,.3,.71,.22,.48,.42,.83,.63,1.13,.41,.58,.85,1.14,1.33,1.68-.05-.12-.09-.23-.12-.35-.07-.24-.13-.48-.18-.73-.04-.24-.07-.49-.07-.73,0-.23,0-.45,.05-.68,.02-.1,.04-.2,.08-.3,.03-.09,.07-.18,.12-.26,.09-.15,.21-.29,.36-.37,.08-.04,.16-.08,.25-.1,.02,0,.05-.01,.07-.02-.09-.06-.17-.13-.26-.19-.35-.26-.7-.54-1.05-.81l-.14-.11c-.23-.19-.46-.37-.71-.52-.1-.06-.2-.11-.31-.15-.08-.03-.16-.05-.25-.06,0,0-.02,0-.02,0-.06,0-.13,.02-.19,.05"/>
            <path class="cls-4" d="M19.61,40.54c-.12,0-.24,0-.37,.02-.35,.03-.68,.1-.98,.21-.31,.11-.6,.26-.84,.44-.17,.13-.33,.28-.47,.44-.13,.15-.25,.32-.34,.5-.17,.32-.29,.68-.36,1.12,0,.03-.01,.07-.02,.1h0s-.06,.02-.08,.05c-.02,.02-.03,.05-.03,.08,.02,.22,.04,.43,.05,.65,0,.14,0,.28,0,.42,0,.04,.01,.07,.04,.09,0,.17,.02,.33,.03,.5,.06,.78,.13,1.41,.23,1.98,.13,.73,.31,1.35,.54,1.87,.13,.28,.27,.54,.44,.77,.09,.12,.18,.23,.28,.33,.09,.09,.2,.19,.32,.28,.18,.14,.39,.24,.66,.34,.2,.07,.42,.14,.67,.2,.59,.15,1.18,.23,1.75,.26,.1,0,.21,0,.31,0,.2,0,.39-.01,.58-.03,.31-.03,.57-.09,.8-.18,.25-.1,.46-.23,.63-.39,.08-.08,.16-.18,.21-.29,.06-.11,.11-.24,.14-.39,.02-.08,.03-.16,.03-.24,0-.07,0-.14-.02-.24-.02-.12-.07-.25-.14-.38-.07-.12-.15-.22-.24-.32l-.08-.09c-.06-.07-.12-.14-.17-.21-.09-.12-.15-.22-.2-.32-.04-.1-.07-.22-.09-.35-.04-.3-.03-.59-.01-.88v-.05c0-.1,0-.2,.01-.3,0-.05,0-.1,0-.16s0-.1,0-.16c0-.09,0-.18,0-.27v-.09s0-.26,0-.26c0-.15,0-.29,0-.44,.02-.86,0-1.85-.35-2.75-.09-.22-.18-.41-.28-.57-.09-.13-.19-.26-.3-.38-.21-.22-.48-.41-.78-.55-.47-.22-1.02-.34-1.6-.34"/>
            <path class="cls-23" d="M39.76,40.91h-.02c-.35,0-.72,.07-1.11,.21-.35,.12-.7,.3-1.07,.53-.32,.21-.64,.45-.98,.75-.29,.26-.57,.55-.85,.86-.24,.28-.47,.58-.68,.88-.12,.17-.23,.35-.33,.53-.11,.19-.21,.4-.3,.64-.17,.41-.28,.86-.34,1.33-.06,.45-.05,.92,.02,1.4,.13,.9,.39,1.79,.79,2.66,.09,.2,.2,.41,.32,.61,.12,.22,.23,.38,.34,.53,.17,.23,.4,.44,.68,.62,.25,.16,.55,.29,.89,.39,.31,.09,.65,.15,1.02,.18,.12,0,.24,.01,.35,.01,.22,0,.45-.02,.68-.05,.35-.05,.68-.13,.97-.24,.15-.06,.3-.12,.43-.2,.13-.07,.26-.16,.39-.27,.29-.23,.48-.53,.53-.84,.04-.22,.01-.47-.07-.72-.09-.27-.23-.53-.35-.74-.1-.16-.2-.32-.3-.47-.05-.08-.11-.17-.16-.25-.15-.24-.28-.45-.37-.67-.07-.16-.11-.31-.13-.47-.03-.23-.02-.46,.01-.73,.06-.4,.16-.79,.3-1.25,.03-.1,.06-.2,.09-.3,.03-.1,.06-.2,.09-.3,.04-.15,.09-.29,.13-.44l.05-.18c.12-.43,.26-.87,.39-1.3,.18-.57,.36-1.16,.51-1.75,.06-.22,.11-.45,.16-.68,.01-.07-.02-.14-.09-.15,0,0-.02,0-.03,0-.05,0-.11,.03-.12,.09-.04,.19-.08,.38-.13,.57-.13-.31-.44-.5-.68-.61-.16-.07-.33-.13-.5-.16-.17-.03-.35-.05-.54-.05"/>
            <path class="cls-26" d="M38.43,48.03c-.12,0-.24,0-.36,.03h0c-.13,.02-.26,.04-.39,.08-.13,.04-.26,.08-.39,.14h0c-.15,.06-.3,.14-.45,.22-.14,.08-.27,.17-.4,.27,0,0,0,0,0,0,0,0,0,0,0,0,0,0,0,0,0,0,0,0,0,0,0,0,0,0,0,0,0,0h0s0,0,0,0c-.15,.11-.28,.24-.41,.37-.13,.13-.25,.27-.36,.41-.12,.15-.22,.31-.32,.48-.1,.17-.19,.35-.26,.53,0,0,0,0,0,0h0s0,0,0,0c-.04,.11-.08,.21-.12,.32,.07,.15,.15,.3,.24,.45,.12,.22,.23,.39,.34,.53,.17,.23,.4,.44,.68,.62,.25,.16,.55,.29,.89,.39,.31,.09,.65,.15,1.02,.18,.12,0,.24,.01,.35,.01,.23,0,.45-.02,.68-.04,.35-.05,.68-.13,.97-.24,.15-.06,.3-.13,.43-.2,.14-.07,.27-.16,.4-.27,.29-.23,.48-.53,.53-.84,.04-.22,.01-.47-.07-.73-.09-.27-.23-.53-.35-.74-.1-.16-.2-.32-.3-.47-.05-.08-.11-.17-.16-.25-.09-.15-.18-.29-.25-.42-.03-.03-.07-.07-.1-.1-.06-.06-.13-.11-.19-.16-.1-.08-.21-.15-.32-.22-.1-.06-.2-.11-.31-.15,0,0,0,0,0,0,0,0,0,0,0,0t0,0c-.11-.05-.22-.09-.34-.12-.11-.03-.22-.05-.33-.07,0,0,0,0,.01,0-.12-.02-.24-.02-.35-.02h-.01Zm-.35,.02s0,0,0,0c0,0,0,0,0,0m-2.99,2.49s0,0,0,0c0,0,0,0,0,0"/>
            <polygon class="cls-26" points="36.45 48.76 36.45 48.76 36.45 48.76 36.45 48.76 36.45 48.76"/>
            <path class="cls-22" d="M38.41,50.71s-.04,.06-.02,.09c.11,.15,.2,.31,.27,.48,.06,.14,.1,.27,.14,.42,.04,.16,.07,.32,.09,.48,0,0,0-.01,0-.02,.04,.27,.04,.54,0,.81,0-.01,0-.02,0-.04,0,.04-.01,.07-.02,.11,.1,0,.2-.02,.3-.03,0-.16-.01-.33-.03-.49-.03-.22-.07-.43-.13-.64-.06-.21-.13-.41-.22-.61-.08-.18-.18-.36-.3-.53-.01-.02-.03-.03-.06-.03-.01,0-.02,0-.03,0"/>
            <path class="cls-22" d="M40.01,50.28s-.03,.08,0,.11c.03,.03,.05,.06,.07,.09,.12,.16,.21,.33,.29,.51,0,0,0-.01,0-.02,.14,.32,.22,.67,.26,1.01,0-.01,0-.02,0-.04,.03,.19,.04,.38,.04,.58,.03-.02,.06-.04,.09-.06h0s0,0,0,0c0,0,0,0,0,0,0,0,0,0,0,0h0s0,0,0,0c0,0,0,0,0,0,0,0,0,0,0,0,0,0,0,0,0,0,0,0,0,0,0,0,0,0,0,0,0,0,0,0,0,0,0,0h0s0,0,0,0h0s0,0,0,0c.07-.04,.13-.09,.19-.13-.03-.32-.11-.64-.22-.95-.14-.39-.33-.78-.61-1.09-.01-.02-.03-.02-.05-.02-.02,0-.04,0-.06,.02"/>
            <polygon class="cls-22" points="40.76 52.46 40.76 52.46 40.76 52.46 40.76 52.46"/>
            <path class="cls-21" d="M42.68,29.91c-.14,0-.29,0-.48,.02-.3,.02-.63,.06-1.03,.11-.66,.08-1.32,.2-1.96,.3h-.08c-.73,.14-1.38,.24-2.04,.33-.71,.09-1.43,.13-2.09,.17-.98,.05-1.98,.08-2.99,.08-.71,0-1.44-.01-2.16-.04h-.02s0,0,0,0c-2.63-.1-5.36-.36-8.11-.79,0,0-.01,0-.02,0-.03,0-.05,0-.07,.02-.25,0-.49-.01-.74-.02-.39-.01-.8-.03-1.2-.03h-.08s-.08,0-.08,0c-.85,0-1.53,.1-2.15,.28-1.02,.29-2.02,.87-2.99,1.72-.4,.35-.81,.76-1.24,1.25-.36,.41-.71,.87-1.09,1.4-.3,.42-.61,.89-.96,1.44-.37,.59-.69,1.14-.98,1.67-.66,1.21-1.24,2.47-1.72,3.75-.24,.63-.46,1.29-.65,1.96-.09,.32-.18,.64-.27,1.01-.04,.16-.08,.33-.12,.5l-.08,.34c-.15,.6-.28,1.15-.39,1.71-.14,.69-.22,1.27-.24,1.82-.03,.65,.02,1.2,.16,1.68,.07,.23,.14,.42,.24,.58,.09,.15,.2,.29,.33,.43,.24,.25,.55,.47,.94,.66,.34,.17,.73,.29,1.18,.38,.35,.07,.71,.1,1.08,.1,.07,0,.13,0,.2,0,.44-.01,.86-.08,1.24-.19,.4-.12,.75-.29,1.05-.5,.14-.1,.28-.23,.41-.37,.14-.16,.26-.35,.37-.6,.12-.26,.18-.54,.16-.81-.01-.23-.08-.46-.2-.7-.12-.24-.28-.46-.43-.66l-.14-.18c-.12-.16-.24-.32-.36-.49,.06-.06,.12-.12,.17-.18l.2-.2c.13-.13,.27-.26,.4-.39,.06-.06,.13-.12,.19-.18l.04-.04h.02s.06-.07,.06-.07l.12-.11,.23-.21c.16-.15,.32-.29,.47-.44,0,0,.02-.01,.02-.02,.4-.38,.71-.67,.99-.95,.64-.64,1.13-1.21,1.54-1.77,.13-.18,.26-.37,.37-.55,.18,.19,.37,.38,.57,.56,.26,.23,.55,.47,.92,.75,.59,.45,1.21,.86,1.86,1.23,1.24,.71,2.58,1.25,3.98,1.61,1.35,.35,2.81,.52,4.34,.53h.07c1.43,0,2.81-.15,4.12-.46,1.31-.31,2.57-.78,3.73-1.42,1.17-.64,2.25-1.45,3.22-2.43,.49-.5,.96-1.04,1.37-1.61,.4-.55,.76-1.16,1.07-1.8,.6-1.24,.98-2.61,1.15-4.05,.23-2.03,0-4.08-.68-5.93-.02-.04-.05-.07-.09-.08-.02-.03-.05-.06-.09-.06-.17-.03-.36-.04-.55-.04"/>
            <path class="cls-23" d="M19.68,30.04h-.17c-.85,0-1.53,.1-2.15,.28-1.02,.29-2.02,.87-2.99,1.72-.4,.35-.8,.76-1.24,1.26-.36,.41-.72,.87-1.09,1.4-.3,.42-.61,.89-.96,1.44-.37,.6-.7,1.14-.98,1.67-.66,1.21-1.24,2.47-1.72,3.75-.12,.33-.25,.68-.37,1.05,.03-.06,.06-.12,.09-.18l.06-.12c.13-.25,.24-.46,.34-.63,.1-.17,.2-.35,.3-.52,.18-.31,.36-.61,.54-.92,.42-.7,.78-1.28,1.14-1.81,1.02-1.54,1.97-2.7,2.98-3.67,.29-.27,.56-.52,.84-.74,.32-.26,.62-.48,.92-.67,.66-.43,1.33-.76,2-.98,.37-.12,.73-.22,1.07-.28,.46-.09,.9-.13,1.31-.13h.05c.24,0,.46,0,.67,.03,.25,.02,.47,.05,.69,.09,.43,.07,.89,.17,1.41,.31,.31,.08,.62,.17,.93,.26,.16,.04,.31,.09,.46,.13,.52,.15,.96,.27,1.42,.36,.13,.03,.27,.06,.41,.08,.12,.02,.25,.04,.37,.06,.27,.04,.53,.08,.78,.11,.32,.04,.6,.06,.85,.08,.25,.02,.51,.03,.78,.04,.22,0,.45,.01,.67,.01,.51,0,1-.02,1.47-.06,.4-.04,.76-.08,1.1-.14,.34-.06,.68-.12,1.03-.2,.61-.15,1.16-.31,1.66-.49,.29-.1,.54-.21,.78-.31,.26-.11,.51-.24,.74-.36,.38-.21,.7-.41,1-.62,.16-.12,.31-.23,.45-.34,.15-.12,.29-.25,.43-.38l.04-.04h-.1c-.2,.04-.4,.06-.6,.09-.69,.09-1.42,.13-2.09,.17-.97,.05-1.98,.08-2.99,.08-.73,0-1.46-.01-2.16-.04h-.02c-2.63-.1-5.36-.36-8.11-.79,0,0-.01,0-.02,0-.03,0-.06,0-.08,.02-.17,0-.35-.01-.53-.02h-.11s-.1,0-.1,0h-.06c-.35-.01-.76-.03-1.15-.03"/>
            <path class="cls-16" d="M10,47.48s0,0,.01,0c-.39,.04-.78,.12-1.15,.26h0c-.31,.11-.6,.26-.86,.45,0,0,0,0,0,0,0,0,0,0,0,0,0,0,0,0,0,0-.11,.08-.22,.16-.32,.26-.1,.09-.19,.18-.27,.28,0,0,0,0,0,0-.08,.09-.15,.19-.21,.28-.06,.1-.12,.2-.17,.3,0,0,0,0,0,0,0,0,0,0,0,0-.05,.11-.09,.22-.13,.33-.04,.11-.06,.23-.08,.34-.02,.13-.04,.27-.04,.4,0,.07,0,.13,0,.2,.07,.23,.14,.41,.23,.57,.09,.15,.2,.29,.32,.43,.25,.26,.55,.47,.94,.66,.34,.17,.73,.29,1.18,.38,.35,.07,.71,.1,1.08,.1,.07,0,.13,0,.2,0,.44-.01,.86-.08,1.24-.19,.4-.12,.75-.29,1.05-.5,.14-.1,.28-.23,.41-.37,.14-.16,.26-.36,.37-.6,.12-.26,.18-.54,.16-.81-.01-.23-.08-.46-.2-.7-.12-.24-.29-.47-.43-.66l-.14-.18c-.07-.09-.14-.18-.21-.28-.04-.04-.09-.08-.13-.11,0,0,0,0,0,0h0s0,0,0,0c0,0,0,0,0,0h0s0,0,0,0c0,0,0,0,0,0,0,0,0,0,0,0,0,0,0,0,0,0,0,0,0,0,0,0-.12-.1-.23-.19-.36-.27-.13-.08-.26-.16-.4-.22,0,0,0,0,0,0,0,0,0,0,0,0,0,0,0,0,0,0-.17-.08-.33-.14-.51-.19-.14-.04-.28-.07-.43-.1-.25-.04-.5-.06-.76-.06-.14,0-.28,0-.41,.02"/>
            <polygon class="cls-16" points="12.11 47.82 12.11 47.82 12.11 47.82 12.11 47.82"/>
            <polyline class="cls-16" points="12.88 48.31 12.87 48.31 12.88 48.31"/>
            <path class="cls-16" d="M12.88,48.31s0,0,0,0c0,0,0,0,0,0Z"/>
            <polyline class="cls-16" points="7.05 49.31 7.05 49.31 7.05 49.31 7.05 49.3 7.05 49.31"/>
            <path class="cls-16" d="M41.79,32.97h.01c-.08,0-.15,0-.23,.02s-.15,.03-.22,.05c0,0,0,0,.01,0-.09,.03-.18,.06-.26,.1-.09,.04-.17,.09-.25,.14,0,0,0,0,0,0-.13,.08-.26,.18-.37,.28-.13,.11-.24,.22-.36,.34,0,0,0,0,0,0-.32,.34-.61,.73-.87,1.12-.25,.37-.48,.76-.71,1.15-.11,.19-.22,.38-.34,.57-.05,.08-.1,.17-.16,.25-.08,.12-.16,.24-.24,.36-.37,.54-.75,1.08-1.15,1.6-.76,.97-1.6,1.88-2.57,2.64-.48,.37-.99,.71-1.52,1-.57,.31-1.16,.57-1.77,.78-.32,.11-.64,.2-.96,.28-.37,.09-.73,.17-1.1,.24-.75,.14-1.5,.24-2.25,.28-.75,.05-1.5,.05-2.24,0-.76-.05-1.51-.14-2.25-.29-.73-.14-1.45-.34-2.15-.59-.36-.13-.71-.26-1.05-.42-.31-.14-.62-.29-.92-.45,0,.09,0,.18,0,.27,0,.12-.03,.25-.05,.37,0,.04-.02,.08-.03,.12,.15,.16,.32,.32,.5,.49,.26,.23,.55,.47,.92,.75,.59,.45,1.22,.86,1.86,1.23,1.24,.71,2.58,1.25,3.99,1.61,1.35,.35,2.81,.53,4.34,.53h.07c1.43,0,2.81-.16,4.12-.46,1.31-.31,2.57-.78,3.73-1.42,1.17-.64,2.25-1.45,3.22-2.43,.49-.49,.95-1.03,1.37-1.61,.4-.55,.76-1.16,1.07-1.8,.32-.67,.58-1.38,.78-2.11,.04-.2,.07-.41,.09-.61,.05-.4,.07-.81,.06-1.22,0,0,0,0,0,0-.01-.5-.07-1.01-.21-1.5,0,0,0,0,0,0,0,0,0,0,0,0-.04-.14-.09-.28-.15-.41-.05-.12-.12-.24-.19-.35h0c-.05-.07-.1-.15-.16-.22-.06-.07-.12-.14-.19-.2h0s0,0,0,0h0c-.06-.05-.12-.11-.19-.15-.06-.04-.12-.08-.18-.12-.07-.04-.15-.07-.22-.1-.07-.03-.14-.05-.21-.07-.07-.02-.13-.03-.2-.04-.06,0-.13,0-.19,0,0,0-.01,0-.02,0m-1.68,.93s0,0,0,0c0,0,0,0,0,0"/>
            <polyline class="cls-16" points="40.84 33.28 40.85 33.28 40.85 33.28 40.84 33.28"/>
            <polyline class="cls-16" points="40.84 33.28 40.84 33.28 40.84 33.28 40.84 33.28"/>
            <path class="cls-22" d="M18.48,39.76c-.02,.15-.03,.29-.04,.44-.02,.16-.04,.31-.06,.47-.04,.29-.11,.57-.19,.84-.1,.33-.22,.65-.36,.97-.14,.32-.31,.64-.49,.95,0,0,0-.01,.01-.02-.13,.22-.28,.44-.43,.65-.15,.21-.32,.42-.48,.62-.34,.41-.71,.8-1.1,1.17h.01c-.61,.58-1.26,1.13-1.91,1.67-.02,.01-.02,.04,0,.06,.01,.02,.04,.02,.06,0,.65-.54,1.31-1.08,1.93-1.65,.31-.29,.62-.58,.91-.89,.29-.31,.57-.63,.83-.96,.22-.29,.43-.58,.62-.9,.19-.31,.35-.64,.48-.97,.14-.35,.25-.71,.34-1.08,.05-.23,.09-.45,.12-.68,.03-.23,.06-.47,.05-.7,0-.03-.01-.05-.03-.07-.02-.03-.06-.05-.1-.06,0,0-.01,0-.02,0-.07,0-.14,.05-.14,.12"/>
            <path class="cls-22" d="M8.9,50c.02,.3,.01,.61-.03,.91,0,0,0-.02,0-.03-.03,.22-.07,.44-.13,.65-.06,.22-.14,.44-.23,.65-.02,.05-.04,.1-.07,.15,.05,.02,.1,.04,.16,.06,0,0,0,0,.01,0,.02,0,.03,.01,.05,.02,.03,.01,.06,.02,.09,.03,.04-.16,.09-.33,.12-.5,.05-.22,.09-.43,.13-.65,.07-.43,.09-.86,.05-1.3,0-.05-.04-.08-.08-.08-.04,0-.09,.04-.09,.08"/>
            <path class="cls-22" d="M11.27,49.74s-.09,.07-.07,.12c.12,.37,.21,.76,.26,1.15,.04,.28,.06,.56,.07,.84,0,.15,0,.29,0,.44,0,.12-.01,.25-.02,.37,.06,0,.11-.02,.17-.03,.07-.01,.14-.03,.2-.04,.01-.19,0-.39-.01-.58-.02-.25-.05-.5-.1-.75-.04-.25-.1-.49-.17-.73-.07-.24-.14-.48-.22-.72-.01-.04-.05-.07-.09-.07,0,0-.02,0-.03,0"/>
            <path class="cls-22" d="M15.87,31.11c-.39,.21-.76,.45-1.12,.72-.37,.27-.73,.57-1.06,.88-.34,.31-.66,.65-.97,.99-.16,.17-.31,.35-.45,.53-.15,.18-.29,.36-.43,.55-.27,.37-.53,.76-.76,1.16-.13,.22-.25,.44-.37,.66-.13,.24-.27,.48-.4,.72,0,0,0,0,0,0-.15,.27-.3,.55-.44,.83-.07,.14-.14,.29-.21,.43-.07,.15-.14,.31-.2,.47-.01,.03,0,.07,.04,.08,.03,.01,.07,0,.08-.04,.09-.18,.19-.36,.29-.53,.1-.19,.2-.38,.3-.56,0,0,0,.01-.01,.02,.26-.47,.52-.93,.78-1.39,.24-.41,.48-.81,.73-1.21,.5-.78,1.06-1.52,1.69-2.2,.05-.05,.09-.1,.14-.15h0s0,0,0,0c0,0,0,0,.01-.01,0,0,0,0,0,0,.63-.65,1.33-1.24,2.11-1.71,.09-.05,.18-.11,.28-.16,.02-.01,.03-.03,.02-.05,0-.01-.02-.03-.04-.03,0,0-.01,0-.02,0m-2.36,1.95h0s0,0,0,0c0,0,0,0,0,0"/>
            <path class="cls-21" d="M32.94,40.05c-.4,0-.83,.04-1.31,.12-.92,.16-1.82,.44-2.73,.74l-.33,.11c-.17,.06-.34,.11-.52,.17-.1,.03-.19,.06-.29,.09-.2,.06-.41,.13-.61,.2-.61,.22-1.21,.5-1.77,.85-.02,.01-.04,.03-.05,.05,0,0-.01,0-.02,.02-.03,.03-.03,.05-.04,.09-.11,.92-.12,1.93-.05,3.07,.04,.63,.11,1.31,.21,2.08,0,0,0,.01,0,.02,.04,.33,.09,.65,.14,.98,.07,.43,.14,.93,.24,1.42,.1,.53,.22,.99,.35,1.4,.07,.22,.16,.44,.26,.67,.1,.22,.2,.41,.3,.57,.19,.3,.43,.57,.7,.8,.5,.41,1.16,.69,1.9,.82,.29,.05,.6,.07,.91,.07,.4,0,.82-.04,1.24-.12,.37-.07,.72-.17,1.04-.29,.39-.15,.68-.33,.91-.55,.2-.2,.35-.44,.42-.72,.07-.24,.08-.52,.04-.84-.04-.28-.1-.57-.22-.95-.05-.17-.11-.34-.17-.51-.08-.22-.13-.45-.17-.72-.09-.72-.02-1.46,.06-2.18v-.1s.04-.35,.04-.35c.03-.28,.06-.56,.09-.84,.04-.4,.09-.81,.15-1.25,.1-.73,.22-1.5,.35-2.27,.06-.37,.13-.76,.21-1.14,.04-.19,.08-.37,.12-.55,.05-.2,.09-.39,.13-.59,.01-.07-.02-.14-.09-.15-.02-.02-.04-.03-.06-.03-.41-.11-.86-.18-1.33-.18-.02,0-.05,0-.07,0"/>
            <path class="cls-16" d="M30.57,48.54c-.14,0-.28,.01-.42,.03,0,0,0,0,.01,0-.16,.02-.31,.05-.47,.1-.15,.04-.31,.1-.45,.16,0,0,0,0,0,0-.17,.07-.33,.15-.48,.24-.15,.09-.29,.19-.43,.29h0s0,0,0,0c0,0,0,0,0,0,0,0,0,0,0,0,0,0,0,0,0,0,0,0,0,0,0,0,0,0,0,0,0,0,0,0,0,0,0,0h0s0,0,0,0c-.16,.12-.3,.25-.44,.39-.14,.14-.27,.29-.39,.44-.12,.16-.24,.33-.34,.51-.1,.17-.19,.35-.27,.53,0,0,0,0,0,0,0,0,0,0,0,0,0,0,0,0,0,0h0c-.08,.18-.14,.37-.2,.56-.05,.19-.09,.38-.12,.58h0s0,.02,0,.03c.05,.11,.11,.2,.17,.29,.19,.3,.43,.57,.7,.8,.5,.41,1.16,.69,1.9,.82,.29,.05,.6,.07,.91,.07,.4,0,.81-.04,1.24-.12,.37-.07,.72-.17,1.04-.29,.39-.15,.68-.33,.91-.55,.2-.2,.35-.45,.42-.72,.07-.24,.08-.52,.04-.84-.04-.28-.11-.58-.22-.95-.05-.17-.11-.34-.17-.51-.02-.05-.03-.1-.05-.15-.06-.1-.13-.19-.2-.29-.12-.15-.24-.29-.38-.43-.11-.11-.23-.22-.36-.31-.12-.09-.24-.18-.37-.25-.13-.07-.26-.14-.39-.2,0,0,0,0,.01,0-.13-.05-.26-.1-.4-.14-.13-.04-.26-.06-.4-.08,0,0,0,0,0,0-.13-.02-.26-.03-.4-.03h-.01Z"/>
            <polyline class="cls-16" points="28.33 49.35 28.33 49.35 28.33 49.35"/>
            <path class="cls-22" d="M25.22,41.89s-.07,.06-.08,.1c-.09,.42-.15,.86-.17,1.29-.03,.46-.03,.91,0,1.37,.01,.24,.03,.47,.05,.71,0,.11,.02,.22,.03,.34,.01,.12,.03,.24,.05,.36,.06,.46,.13,.92,.22,1.37,.05,.23,.1,.47,.15,.7,.05,.22,.1,.44,.16,.67,.01,.05,.09,.03,.08-.02-.11-.45-.19-.9-.25-1.35-.07-.49-.13-.97-.17-1.46-.01-.14-.02-.28-.03-.43,0-.16-.01-.32-.02-.48-.01-.31-.01-.61,0-.92,.02-.57,.06-1.15,.17-1.71,0,0,0,0,0,.01v-.03s0-.01,0-.02c0,0,0,0,0,.01,.02-.1,.04-.2,.07-.31,0-.01,0-.03,0-.05,0-.03,0-.06-.02-.09-.02-.04-.06-.07-.1-.08-.02,0-.04,0-.05,0-.03,0-.05,0-.08,.02m.17,.52s0,0,0,.01c0,0,0-.01,0-.02,0,0,0,0,0,0"/>
            <path class="cls-22" d="M34.42,39.84c-.03,.12-.06,.25-.08,.37-.03,.14-.06,.27-.08,.41-.05,.26-.1,.53-.15,.79-.09,.53-.17,1.06-.25,1.59-.07,.53-.14,1.06-.2,1.59-.06,.53-.11,1.06-.16,1.6-.1,1.09-.18,2.17-.29,3.26,0,.02,.02,.04,.04,.04,.02,0,.04-.02,.04-.04,.05-.49,.09-.98,.15-1.47,.05-.49,.11-.98,.17-1.47,.06-.49,.12-.98,.19-1.47,.07-.49,.14-.98,.22-1.47,0,.01,0,.02,0,.03,0-.05,.02-.11,.03-.16h0s0-.02,0-.03c0,0,0,0,0,0h0c.09-.58,.19-1.16,.3-1.74,.06-.29,.12-.59,.18-.88,.03-.15,.06-.29,.09-.44,.03-.14,.07-.28,.1-.43,0-.01,0-.03,0-.04,0-.03,0-.05-.02-.08-.02-.04-.05-.06-.09-.08-.01,0-.03,0-.04,0-.07,0-.14,.04-.15,.11"/>
            <path class="cls-22" d="M29.76,52.2s-.06,.05-.05,.09c.01,.07,.03,.14,.04,.22,.04,.33,.04,.66,0,.99h0c-.04,.29-.11,.58-.22,.86,0,0,0,0,0,0,.05,0,.1,.01,.15,.02,.05,0,.1,0,.15,.01,.03-.12,.06-.25,.08-.37,.03-.2,.05-.4,.05-.6,.01-.39-.03-.78-.1-1.16,0-.03-.04-.05-.07-.05,0,0-.01,0-.02,0m-.02,.29s0,0,0,.01c0,0,0,0,0-.01"/>
            <path class="cls-22" d="M31.82,51.83s-.03,.04-.02,.07c.05,.08,.09,.17,.13,.26,0,0,0,0,0,0,0,0,0,0,0,0h0c.1,.26,.17,.53,.21,.81,.03,.2,.04,.4,.04,.61,0,.18,0,.36-.02,.55,.01,0,.03,0,.04-.01,.02,0,.04-.01,.06-.02,.08-.03,.16-.06,.24-.09,0-.12-.01-.24-.03-.37-.02-.21-.06-.42-.11-.63-.1-.41-.28-.79-.48-1.15,0-.02-.03-.02-.04-.02,0,0-.02,0-.03,0"/>
            <polyline class="cls-22" points="31.93 52.16 31.93 52.16 31.93 52.15 31.93 52.16"/>
            <path class="cls-21" d="M24.44,7.29s-.1,0-.16,.01c-.07,.01-.13,.03-.22,.07-.07,.03-.15,.07-.22,.12-.13,.09-.27,.21-.42,.37-.13,.13-.25,.27-.39,.44-.6,.73-1.1,1.42-1.54,2.14-.52,.84-.93,1.69-1.23,2.52-.33,.92-.51,1.82-.52,2.68,0,.45,.03,.9,.12,1.34,.07,.36,.18,.7,.31,1.02,.15,.35,.34,.65,.58,.88,.26,.26,.58,.43,.93,.5,.03,0,.06,.01,.09,.01,.01,0,.02,0,.04,0,.02,0,.04,0,.06-.02,.02-.01,.04-.03,.05-.05,0,0,.01,0,.02,0,.03,0,.06-.01,.09-.04,1.16-1.37,2.21-3.03,3.12-4.91,.34-.71,.67-1.47,.98-2.28,.01-.03,0-.07-.01-.1-.02-.11-.03-.21-.04-.32-.01-.11-.02-.23-.03-.34-.01-.16-.03-.31-.04-.47v-.12c-.04-.41-.09-.85-.16-1.28-.08-.48-.18-.86-.33-1.2-.09-.21-.19-.39-.31-.54-.14-.18-.28-.31-.44-.38-.07-.03-.15-.06-.24-.07-.03,0-.05,0-.08,0"/>
            <path class="cls-10" d="M24.01,9.74s-.06,0-.1,0c-.04,0-.09,.02-.14,.05-.04,.02-.09,.05-.14,.08-.08,.05-.16,.13-.26,.23-.08,.08-.15,.17-.24,.27-.37,.45-.68,.89-.95,1.32-.32,.52-.58,1.05-.76,1.56-.21,.57-.31,1.13-.32,1.66,0,.27,.02,.55,.08,.83,.04,.22,.11,.43,.19,.63,.09,.22,.21,.4,.36,.55,.16,.16,.36,.27,.58,.31,.01,0,.03,0,.04,0h.02s.01,0,.02,0c.01,0,.03,0,.04-.01,.01,0,.02-.02,.03-.03,0,0,0,0,.01,0,.03,0,.04,0,.05-.02,.72-.85,1.37-1.87,1.93-3.04,.21-.44,.42-.91,.61-1.41,0-.02,0-.05,0-.06,0-.05-.01-.1-.02-.15v-.05c-.01-.07-.02-.14-.03-.21,0-.08-.01-.15-.02-.23v-.06s-.01-.08-.01-.08c-.02-.26-.05-.53-.09-.79-.05-.3-.12-.54-.21-.75-.06-.13-.12-.24-.19-.34-.08-.11-.17-.19-.27-.24-.05-.02-.09-.04-.15-.04-.02,0-.03,0-.05,0"/>
            <path class="cls-10" d="M36.55,6.82c-.06,0-.1,0-.14,.02-.04,.01-.07,.02-.09,.03-.01,0-.03,.02-.04,.02-.05,.03-.08,.06-.11,.1-.07,.08-.12,.19-.14,.33-.02,.12-.03,.24-.03,.38,0,.22,.05,.47,.13,.76,.08,.26,.17,.53,.26,.75l.03,.07,.02,.05c.03,.07,.05,.15,.08,.22,.03,.07,.05,.13,.07,.2l.02,.05,.05,.14s0,.05,.02,.06c.39,.37,.78,.71,1.15,1.01,1.01,.82,2.03,1.46,3.04,1.92,0,0,.01,0,.02,0,0,0,.02,0,.05-.01,.01,.01,.03,.01,.05,.02,.01,0,.02,0,.03,0,0,0,.01,0,.02-.01h.02s.02-.03,.03-.03c.18-.13,.31-.32,.39-.53,.07-.19,.1-.41,.09-.65,0-.21-.04-.43-.09-.65-.07-.27-.17-.54-.29-.78-.24-.47-.57-.93-1-1.36-.38-.39-.84-.75-1.35-1.08-.43-.28-.89-.54-1.42-.79-.13-.06-.23-.1-.34-.14-.14-.05-.24-.08-.33-.09-.05,0-.09-.01-.13-.01h-.03Z"/>
            <path class="cls-23" d="M24.28,7.3c-.07,.01-.14,.03-.22,.07-.07,.03-.15,.07-.22,.12-.13,.09-.27,.2-.43,.36-.13,.13-.25,.27-.39,.44-.6,.73-1.1,1.43-1.54,2.14-.52,.84-.93,1.69-1.23,2.52-.33,.92-.51,1.82-.52,2.68,0,.45,.03,.9,.12,1.34,.07,.36,.18,.7,.31,1.02,.15,.35,.34,.65,.58,.88,.26,.26,.58,.43,.93,.5,.03,0,.06,.01,.09,.02,.02,0,.03,0,.04,0,.02,0,.04,0,.06-.02,.02-.01,.04-.03,.05-.05,0,0,0,0,.02,0,.04,0,.07-.01,.09-.04,.22-.26,.43-.53,.64-.8-.1-.03-.19-.07-.28-.11-.22-.1-.44-.21-.64-.35-.19-.14-.37-.29-.52-.48-.16-.19-.29-.39-.39-.61-.05-.12-.1-.24-.14-.36-.06-.18-.1-.36-.12-.55-.03-.22-.05-.44-.05-.66,0-.23,0-.46,.03-.69,.05-.46,.14-.92,.27-1.37,.13-.45,.28-.9,.45-1.33,.08-.2,.16-.4,.25-.6,.04-.1,.09-.2,.14-.3,.07-.15,.15-.3,.22-.45,.11-.21,.22-.42,.34-.63,.14-.24,.28-.49,.43-.72,.15-.25,.31-.49,.48-.73,.16-.22,.33-.44,.51-.64,.16-.17,.32-.33,.51-.47,.1-.07,.2-.13,.31-.17,0,0-.01,0-.02,0-.05,0-.09,0-.16,.02"/>
            <path class="cls-23" d="M35.26,4.75c-.09,0-.16,.01-.23,.03-.06,.01-.1,.03-.15,.05-.03,.01-.05,.03-.07,.04-.07,.04-.13,.1-.19,.16-.11,.13-.19,.31-.23,.53-.04,.19-.05,.39-.04,.62,.01,.37,.08,.76,.22,1.23,.12,.44,.29,.88,.42,1.22l.04,.12,.03,.08c.04,.12,.09,.24,.13,.36,.03,.07,.05,.14,.07,.21l.03,.08v.03s.02,.04,.02,.04c.03,.08,.06,.17,.09,.26,0,.03,0,.07,.03,.09,.63,.59,1.25,1.14,1.86,1.64,1.63,1.32,3.28,2.36,4.92,3.11,.01,0,.03,0,.04,0,.02,0,.04,0,.05-.01,0,0,.01,0,.02-.01,.01,.01,.04,.02,.06,.03,.03,0,.05,0,.06-.01,.01,0,.02-.01,.03-.02,.03-.02,.05-.03,.08-.05,.29-.21,.5-.51,.62-.85,.11-.31,.16-.66,.14-1.05-.01-.34-.06-.69-.15-1.05-.11-.43-.26-.86-.46-1.26-.38-.77-.93-1.51-1.62-2.2-.63-.63-1.36-1.22-2.19-1.75-.7-.46-1.45-.87-2.3-1.27-.2-.09-.37-.17-.54-.23-.21-.08-.38-.12-.54-.15-.08-.01-.15-.02-.22-.02h-.04Zm5.6,8.2c-1.02-.46-2.04-1.11-3.04-1.92-.37-.3-.76-.64-1.15-1.01-.01-.01-.02-.03-.02-.06l-.05-.14-.02-.05v-.03c-.03-.06-.05-.11-.07-.17-.03-.07-.05-.15-.08-.22l-.02-.05-.03-.07c-.09-.23-.18-.49-.26-.75-.08-.3-.13-.54-.13-.76v-.08c0-.11,0-.21,.03-.3,.03-.14,.07-.25,.15-.33,.03-.04,.07-.07,.12-.1,.01,0,.03-.02,.05-.03,.02-.01,.05-.02,.08-.03,.04-.01,.08-.02,.14-.02h.02s.09,0,.14,.01c.1,.01,.2,.04,.34,.09,.1,.04,.2,.08,.34,.14,.53,.25,1,.51,1.42,.79,.51,.33,.96,.7,1.35,1.08,.43,.43,.77,.89,1,1.36,.12,.25,.22,.51,.29,.78,.05,.22,.09,.44,.09,.65,.01,.24-.02,.45-.09,.65,0,.03-.02,.05-.03,.08-.08,.18-.2,.33-.36,.45,0,0-.02,.01-.03,.02h-.02s-.01,.02-.02,.02c-.01,0-.02,0-.03,0-.02,0-.04,0-.05-.02-.03,.01-.04,.01-.05,.01,0,0-.01,0-.02,0"/>
            <path class="cls-21" d="M33.78,8.76c-.1,0-.2,0-.3,0-.68,0-1.35,.07-1.98,.19-.01,0-.02,0-.03,.01-.87,.14-1.73,.38-2.55,.71-1.03,.42-2.01,.99-2.91,1.71-1.78,1.41-3.15,3.3-3.95,5.46-.13,.36-.27,.74-.43,1.25-.15,.45-.28,.91-.41,1.37-.29,1.05-.52,2.08-.67,3.05-.18,1.14-.26,2.17-.24,3.17,.02,1.09,.19,2.08,.48,2.94,.15,.45,.35,.88,.59,1.28,.24,.39,.53,.76,.87,1.1,.4,.39,.88,.73,1.47,1.05,.52,.27,1.11,.51,1.82,.72,.51,.15,1.08,.28,1.73,.4,0,0,.01,0,.02,0,.02,0,.04,0,.05-.01,.93,.17,1.95,.25,3.02,.25,.6,0,1.24-.03,1.9-.08,1.83-.14,3.74-.48,5.67-1.01,.88-.24,1.75-.51,2.59-.82,.44-.16,.87-.33,1.28-.5,.51-.21,.95-.42,1.35-.63,.37-.2,.7-.41,1-.64,.05-.03,.09-.06,.13-.08,.46-.3,.89-.63,1.29-1.01,.85-.79,1.48-1.67,1.87-2.62,.2-.5,.33-1.02,.38-1.55,.03-.26,.03-.53,.01-.82-.01-.27-.05-.54-.09-.79-.15-1-.42-2.06-.82-3.13-.38-1.02-.88-2.04-1.48-3.05-.59-.99-1.26-1.93-2-2.8-.74-.87-1.55-1.67-2.4-2.37-.42-.35-.86-.67-1.31-.97-.47-.31-.95-.59-1.42-.82-.59-.29-1.23-.52-1.9-.69-.6-.14-1.24-.23-1.92-.25-.03,0-.07,0-.1,0-.19-.01-.38-.02-.59-.02m-13.22,15.96s0-.07,0-.11v-.02s0,.09,0,.13"/>
            <path class="cls-23" d="M28.92,9.67c-1.03,.42-2.01,.99-2.91,1.71-1.78,1.41-3.15,3.3-3.95,5.46-.13,.34-.26,.73-.43,1.25-.15,.45-.29,.92-.41,1.37-.29,1.05-.52,2.07-.67,3.05-.18,1.14-.26,2.18-.24,3.17,.02,1.09,.19,2.08,.48,2.95,.15,.45,.35,.88,.59,1.28,.23,.39,.53,.76,.87,1.1,.4,.39,.88,.73,1.47,1.05,.52,.28,1.11,.51,1.82,.72,.51,.15,1.08,.28,1.73,.4,0,0,.01,0,.02,0,.02,0,.04,0,.05-.01,.93,.17,1.95,.25,3.02,.25,.42,0,.86-.01,1.32-.04-.18-.01-.35-.02-.53-.04-.62-.06-1.24-.15-1.85-.29-.62-.14-1.22-.32-1.81-.55-.58-.23-1.15-.5-1.69-.83-.56-.33-1.08-.72-1.57-1.14-.26-.23-.51-.47-.74-.72-.21-.24-.42-.49-.6-.76-.18-.26-.34-.54-.49-.83-.14-.27-.26-.56-.36-.84-.1-.3-.19-.6-.26-.91-.07-.31-.12-.61-.16-.92-.08-.67-.11-1.34-.09-2.01,.02-.59,.07-1.18,.16-1.77,.19-1.22,.52-2.41,.98-3.56,.46-1.16,1.04-2.27,1.73-3.32,.69-1.04,1.48-2.01,2.38-2.88,.44-.43,.9-.83,1.38-1.2,.49-.37,.99-.72,1.52-1.03,.49-.29,1-.54,1.52-.76-.78,.14-1.55,.36-2.28,.66"/>
            <path class="cls-14" d="M43.27,20.38s-.01-.06-.04-.09c-.02-.02-.05-.04-.09-.04s-.07,.01-.09,.04c-.02,.02-.04,.06-.04,.09-.17,.06-.29,.2-.36,.31-.12,.2-.19,.43-.24,.63-.06,.25-.1,.5-.13,.74l-.02,.16c-.02,.14-.04,.29-.07,.43-.03,.12-.07,.24-.12,.37-.05,.14-.12,.29-.19,.43-.15,.28-.33,.53-.54,.76-.21,.23-.45,.43-.72,.6,.01,0,.02,0,.03-.01-.27,.17-.56,.31-.87,.41-.33,.1-.68,.16-1.09,.18-.11,0-.21,0-.3,0-.36,0-.73-.02-1.09-.05-.37-.02-.74-.05-1.1-.05-.17,0-.33,0-.48,.02-.52,.04-.99,.16-1.4,.37-.33,.17-.63,.4-.92,.62-.1,.08-.2,.16-.3,.23-.09,.07-.19,.13-.28,.2-.08,.05-.16,.1-.24,.14-.09,.05-.18,.09-.28,.13-.19,.08-.39,.16-.6,.23-.45,.14-.88,.22-1.3,.25-.05,0-.1,0-.14,0-.34,0-.71-.04-1.09-.13h.02c-.47-.11-.94-.28-1.39-.52h0s0,0,0,0c0,0,0,0,0,0-.52-.28-1.05-.65-1.66-1.16-.27-.23-.54-.47-.79-.7l-.1-.09-.1-.09s-.01-.01-.02-.02l-.03-.03-.03-.03s-.05-.04-.08-.04h0s-.07,.01-.09,.03c-.02,.01-.03,.03-.04,.05-.03,.01-.06,.03-.09,.05-.02-.04-.06-.07-.11-.07-.01,0-.02,0-.03,0-.03,0-.06,.03-.08,.06-.02,.03-.02,.06-.01,.09,.02,.06,.04,.13,.06,.19-.02,.08-.02,.17-.01,.24,0,.1,.03,.2,.06,.29,.01,.03,.04,.05,.07,.06,.01,0,.03,0,.04,0,.02,0,.04,0,.05-.01,0,0,.01,0,.02-.01,.03,.07,.06,.14,.1,.21,.15,.29,.33,.58,.55,.86,.39,.51,.89,.96,1.47,1.36,.53,.36,1.16,.67,1.86,.93,.64,.23,1.34,.42,2.09,.54,.76,.13,1.54,.19,2.33,.19,.66,0,1.34-.05,2-.14,.68-.09,1.33-.23,1.92-.41,.34-.1,.69-.23,1.06-.39,.4-.17,.78-.36,1.15-.58,.73-.43,1.37-.95,1.92-1.55,.55-.6,1-1.28,1.33-2.02,.26-.59,.45-1.22,.56-1.87,.06-.33,.09-.67,.11-1.03,.02-.44,.03-.92-.03-1.39Z"/>
            <path class="cls-1" d="M36.96,24.61c-.36,0-.74,.03-1.13,.09-.85,.13-1.67,.42-2.46,.87-.46,.26-.91,.58-1.34,.96h0s-.02,0-.03,0c-.03,.01-.06,.03-.07,.06,0,.01-.01,.03-.01,.04-.02,.02-.04,.05-.04,.09,0,.04,.01,.07,.04,.1,.01,.01,.03,.02,.05,.03v.07c.03,.08,.05,.16,.07,.24v-.02c.11,.54,.18,1.09,.24,1.62v.04c.05,.35,.1,.74,.16,1.12,.09,.53,.19,.97,.32,1.37,.15,.45,.33,.84,.54,1.17,.39,.59,.97,1.08,1.67,1.41,.6,.28,1.27,.43,1.94,.43,.08,0,.15,0,.23,0,.72-.04,1.42-.26,2.02-.66,.25-.16,.49-.36,.69-.59,.19-.21,.35-.45,.48-.72,.24-.48,.38-1.04,.4-1.69,.03-.56-.04-1.17-.2-1.85-.14-.59-.35-1.2-.62-1.81-.26-.57-.55-1.1-.89-1.59-.19-.27-.35-.49-.52-.68-.02-.03-.04-.05-.08-.05,0,0-.02,0-.03,0-.03,0-.05,0-.07,.02-.02,.01-.04,.03-.05,.05-.37-.07-.75-.11-1.13-.12-.06,0-.13,0-.19,0"/>
            <path class="cls-3" d="M35.83,24.69c-.85,.13-1.68,.43-2.46,.87-.46,.26-.91,.58-1.34,.96h0s-.02,0-.03,0c-.03,.01-.06,.03-.07,.06,0,.02-.01,.03-.01,.04-.02,.02-.04,.05-.04,.09,0,.04,.01,.07,.04,.1,.01,.01,.03,.02,.05,.03v.07s.02,.05,.02,.05c.01,.06,.03,.13,.04,.19v-.02c.11,.56,.18,1.15,.24,1.62v.04c.05,.34,.1,.74,.16,1.12,.09,.54,.19,.97,.32,1.37,.15,.45,.32,.84,.54,1.17,.39,.59,.97,1.08,1.67,1.41,.6,.28,1.27,.44,1.94,.44,.08,0,.15,0,.23,0,.55-.03,1.09-.17,1.58-.41-.08,.03-.17,.05-.26,.07-.37,.09-.76,.13-1.15,.11-.37-.02-.74-.1-1.09-.23-.17-.07-.34-.14-.51-.23-.17-.09-.33-.19-.48-.3-.33-.24-.62-.52-.88-.83-.26-.32-.49-.66-.68-1.03-.19-.38-.35-.78-.46-1.19-.05-.21-.1-.42-.12-.63-.03-.21-.04-.43-.03-.65,0-.2,.03-.41,.08-.61,.03-.1,.05-.21,.09-.31,.03-.07,.06-.14,.1-.21,.09-.15,.2-.29,.33-.41,.14-.13,.29-.25,.44-.36,.31-.22,.66-.41,1.01-.56,.08-.03,.16-.07,.24-.1,.1-.04,.19-.07,.29-.1,.2-.05,.41-.08,.62-.09,.43-.03,.87,.01,1.3,.04,.43,.03,.86,.05,1.28,0,0,0,0,0-.01,0,.12-.02,.23-.04,.35-.07,.1-.03,.2-.06,.29-.1-.14-.24-.28-.47-.43-.69-.18-.27-.35-.49-.52-.68-.02-.02-.04-.04-.08-.05-.01,0-.02,0-.03,0-.03,0-.05,0-.07,.02-.02,.01-.04,.03-.05,.06-.35-.07-.73-.11-1.13-.12-.06,0-.13,0-.19,0-.35,0-.73,.03-1.13,.09"/>
            <path class="cls-25" d="M35.51,25.4c-.09,.04-.12,.15-.08,.24,.06,.14,.14,.26,.22,.39,.08,.13,.16,.26,.23,.38,.15,.26,.3,.52,.44,.78,.14,.26,.26,.53,.38,.8,.12,.27,.22,.55,.32,.83h0c.1,.29,.18,.59,.26,.88,.08,.3,.14,.6,.2,.9,.12,.61,.21,1.23,.28,1.85,0,.02,.03,.04,.05,.04,.03,0,.04-.03,.04-.05-.05-.46-.11-.92-.17-1.39-.07-.46-.15-.92-.24-1.38-.09-.46-.2-.91-.33-1.35-.13-.45-.28-.89-.45-1.33-.11-.28-.24-.54-.39-.8-.08-.14-.16-.27-.25-.4-.08-.12-.18-.24-.28-.35-.02-.02-.04-.04-.07-.05-.02,0-.04-.01-.06-.01-.03,0-.05,0-.08,.02"/>
            <polyline class="cls-16" points="32.62 12.43 32.63 12.43 32.63 12.43 32.62 12.43"/>
            <polyline class="cls-16" points="40.69 22.42 40.69 22.42 40.69 22.41 40.69 22.42"/>
            <path class="cls-16" d="M40.69,22.42h0s0,0,0,0Z"/>
            <g>
              <polygon class="cls-16" points="31.55 13.41 31.55 13.41 31.56 13.4 31.55 13.41"/>
              <polygon class="cls-16" points="32.4 12.5 32.41 12.5 32.41 12.49 32.4 12.5"/>
              <polygon class="cls-16" points="40.57 25.04 40.57 25.04 40.57 25.04 40.57 25.04"/>
              <path class="cls-16" d="M32.82,12.43s0,0,0,0c0,0,0,0,0,0,0,0,0,0-.01,0Z"/>
              <polygon class="cls-16" points="30.04 22.58 30.04 22.58 30.04 22.58 30.04 22.58"/>
              <polygon class="cls-16" points="33.03 12.49 33.03 12.49 33.03 12.49 33.03 12.49"/>
              <path class="cls-16" d="M41.45,24.38c-.03-.22-.07-.44-.12-.65-.05-.19-.11-.37-.19-.55-.06-.14-.13-.27-.2-.4-.07-.12-.15-.24-.24-.35h0s0,0,0,0c0,0,0,0,0,0h0s0,0,0,0c0,0,0,0,0,0,0,0,0,0,0,0-.1-.13-.22-.26-.34-.38-.12-.12-.25-.23-.38-.33-.41-.32-.87-.57-1.32-.82-.3-.17-.6-.33-.89-.51-.3-.18-.6-.38-.87-.6-.08-.06-.15-.12-.22-.18-.07-.06-.13-.12-.19-.19-.13-.13-.24-.27-.35-.41-.23-.3-.43-.63-.6-.98-.35-.71-.61-1.46-.85-2.21-.12-.37-.23-.74-.35-1.11-.06-.18-.11-.35-.18-.53-.05-.15-.11-.31-.17-.46-.12-.28-.26-.55-.44-.8-.08-.11-.18-.21-.29-.29-.07-.05-.14-.09-.22-.13-.03-.01-.07-.03-.11-.04-.03,0-.06-.01-.09-.02-.03,0-.06,0-.09,0h-.01s-.07,0-.1,0c0,0,0,0,0,0h0s-.07,.01-.11,.02c-.04,.01-.07,.02-.11,.04-.05,.02-.11,.05-.16,.08-.05,.03-.1,.07-.15,.11-.06,.05-.12,.09-.17,.15-.05,.05-.09,.1-.13,.15-.1,.13-.18,.28-.25,.43-.1,.24-.16,.49-.2,.75h0c-.04,.31-.05,.63-.03,.94,.01,.33,.05,.66,.09,.99,0,0,0,0,0,0,.06,.45,.14,.89,.22,1.34,.03,.2,.07,.39,.1,.59,.03,.18,.05,.35,.06,.53,.03,.4,.02,.81-.04,1.2-.03,.17-.07,.35-.12,.51-.05,.16-.11,.31-.19,.47-.16,.32-.35,.61-.57,.89-.12,.16-.25,.31-.38,.46-.08,.09-.15,.17-.23,.26-.07,.08-.14,.16-.2,.25h0s0,0,0,0c-.16,.2-.3,.42-.43,.64-.13,.22-.24,.44-.34,.68h0c-.09,.21-.16,.42-.22,.64-.06,.22-.1,.44-.14,.66,0,0,0,0,0,0-.03,.2-.04,.4-.04,.59,0,.2,.01,.4,.04,.6,0,0,0,0,0,0,.02,.18,.06,.36,.1,.53,.04,.16,.09,.32,.15,.48,0,0,0,0,0,0,.03,.01,.06,.02,.1,.04,0,0,0,0,0,0,.14,.05,.28,.09,.42,.11,.14,.03,.29,.05,.43,.06,0,0,0,0-.01,0,.2,.01,.41,.01,.61,0,.2-.02,.39-.04,.58-.08,0,0,0,0-.01,0,.25-.05,.51-.12,.75-.2,.23-.08,.46-.17,.68-.28,0,0,0,0,0,0,.03-.01,.05-.03,.07-.04,.2-.11,.39-.23,.57-.37,.18-.13,.35-.28,.53-.42,.05-.04,.09-.08,.14-.12,.11-.06,.23-.11,.34-.17,.36-.17,.73-.31,1.11-.4,0,0,0,0,0,0,0,0,0,0,0,0,0,0,.02,0,.02,0,0,0-.01,0-.02,0,.3-.06,.6-.09,.9-.07,.01,0,.02,0,.04,0,.02,0,.05,0,.07,0,.07,0,.14,0,.22,.01,.06,0,.13,.02,.19,.03,.25,.03,.51,.06,.77,.08h0c.28,.02,.57,.03,.85,.01,.14,0,.29-.02,.43-.04,.13-.02,.26-.04,.39-.06,0,0,0,0,0,0,.22-.05,.43-.11,.63-.18,.21-.07,.41-.16,.61-.26,.18-.09,.36-.19,.52-.31,.11-.12,.23-.24,.35-.35Z"/>
              <polygon class="cls-16" points="41.13 23.17 41.14 23.18 41.14 23.18 41.13 23.17"/>
              <polygon class="cls-16" points="33.97 13.7 33.97 13.71 33.97 13.71 33.97 13.7"/>
              <polygon class="cls-16" points="35.47 25.53 35.48 25.53 35.48 25.53 35.47 25.53"/>
            </g>
            <path class="cls-11" d="M35.78,22.22h-.03c-.15,0-.31,.01-.46,.03-.17,.02-.34,.06-.49,.1-.16,.04-.31,.1-.47,.16-.16,.07-.33,.16-.49,.25-.16,.09-.31,.2-.46,.31-.17,.13-.33,.28-.48,.42-.14,.14-.28,.3-.41,.47-.14,.19-.27,.37-.37,.55-.11,.2-.22,.4-.3,.6-.08,.2-.16,.41-.21,.61-.06,.21-.1,.42-.13,.62-.03,.22-.04,.41-.04,.59,0,.17,.01,.35,.03,.53,.2-.04,.39-.1,.57-.16,.26-.09,.48-.18,.68-.28l.07-.03c.19-.1,.38-.23,.58-.37,.18-.14,.36-.28,.53-.42l.05-.05,.09-.07,.07-.03c.09-.04,.18-.09,.27-.13,.42-.2,.77-.32,1.11-.4,.25-.05,.5-.08,.75-.08,.05,0,.11,0,.16,0,.01,0,.02,0,.04,0h.02s.03,0,.05,0h.2c.07,.02,.14,.03,.2,.04,.28,.04,.53,.06,.77,.08,.2,.01,.38,.02,.55,.02,.1,0,.2,0,.3,0,.17,0,.31-.02,.43-.04,.13-.02,.26-.04,.39-.06,.17-.04,.35-.08,.51-.14-.08-.2-.19-.41-.31-.6-.12-.2-.25-.4-.4-.58-.33-.43-.71-.81-1.13-1.13-.16-.12-.3-.22-.45-.31-.15-.09-.3-.16-.45-.23-.16-.07-.32-.12-.47-.16-.14-.04-.29-.07-.45-.09-.15-.02-.29-.03-.43-.03"/>
            <path class="cls-14" d="M35.37,24.38s-.04,.04-.04,.06c0,.04,.01,.08,.02,.12,.02,.15,.03,.29,.05,.44,0,.07,.02,.15,.02,.22,0,.08,.02,.17,.03,.25,0,.03,.03,.06,.05,.07,.03,.02,.06,.02,.09,.01,.03,0,.06-.03,.07-.05,0,0,0-.02,.01-.03,0-.02,0-.04,0-.06-.01-.08-.04-.17-.06-.25-.02-.08-.05-.16-.07-.25-.05-.16-.09-.33-.12-.5,0-.02-.03-.04-.05-.04,0,0,0,0-.01,0"/>
            <path class="cls-14" d="M35.43,20.52c-.07,0-.14,0-.2,0-.36,.02-.72,.09-1.06,.2-.75,.26-1.31,.73-1.58,1.32-.13,.28-.18,.55-.16,.83,.02,.26,.11,.51,.26,.72,.07,.1,.16,.2,.26,.27,.05,.04,.1,.07,.15,.11,.06,.04,.13,.07,.19,.09,.11,.05,.24,.08,.39,.09,.05,0,.1,0,.15,0,.08,0,.16,0,.25-.02,.12,.22,.3,.39,.52,.5,.12,.06,.25,.1,.4,.12,.06,0,.11,.01,.17,.01,.07,0,.15,0,.24-.02,.26-.04,.52-.16,.74-.34,.22-.18,.38-.43,.45-.7,.03-.1,.04-.21,.04-.33,.22-.11,.52-.31,.68-.64,.06-.13,.1-.26,.12-.42,.01-.13,0-.27-.03-.42-.06-.27-.2-.54-.41-.77-.2-.23-.47-.4-.78-.5-.16-.05-.33-.07-.49-.09-.1,0-.2-.01-.31-.01"/>
            <path class="cls-15" d="M35.98,20.85c-.06,0-.13-.01-.19-.02-.06,0-.12,0-.19,0-.06,0-.13,.01-.2,.02-.07,.02-.14,.04-.21,.08h-.02s-.03,.02-.04,.03c-.05,.03-.09,.07-.12,.11-.01,.02-.02,.04-.03,.07,0,.02,0,.05,0,.07,0,.02,.01,.04,.02,.06,.01,.03,.03,.05,.05,.07,.04,.04,.1,.07,.15,.1,.06,.03,.12,.06,.21,.09,.1,.04,.21,.06,.31,.08,.03,0,.07,0,.1,.01,.15,.01,.3,0,.46-.03,.06-.01,.13-.03,.19-.06,.05-.02,.1-.05,.14-.09,.03-.03,.05-.07,.06-.1,0-.02,0-.04,0-.05,0-.01,0-.03,0-.04,0,0,0-.02,0-.03-.01-.03-.03-.05-.04-.06-.02-.02-.04-.04-.06-.06-.06-.05-.14-.09-.2-.12-.1-.05-.19-.08-.28-.1-.04,0-.07-.02-.11-.02"/>
            <path class="cls-16" d="M27.59,18.04c-.13,0-.25,.01-.38,.04-.27,.07-.53,.22-.76,.44-.1,.1-.2,.22-.29,.36-.14,.19-.25,.4-.35,.64-.1,.24-.17,.51-.22,.8-.05,.29-.07,.58-.07,.88,0,.29,.04,.58,.1,.87,.06,.28,.15,.54,.27,.78,.12,.24,.27,.45,.45,.62,.18,.18,.4,.31,.64,.4,.11,.04,.23,.07,.36,.09,.09,.01,.17,.02,.25,.02,.04,0,.07,0,.11,0,.22-.02,.44-.08,.65-.19,.18-.1,.36-.23,.52-.41,.15-.16,.28-.36,.4-.58,.22-.43,.36-.93,.43-1.49,.06-.53,.02-1.06-.1-1.54-.13-.5-.36-.92-.67-1.2-.19-.17-.43-.31-.73-.41-.2-.07-.4-.1-.6-.1"/>
            <path class="cls-14" d="M27.87,18.69c-.1,0-.19,.02-.28,.05-.2,.06-.39,.19-.55,.37-.07,.08-.14,.18-.2,.28-.09,.14-.17,.31-.23,.5-.06,.19-.1,.39-.13,.61-.02,.22-.02,.44,0,.66,.02,.22,.06,.43,.12,.65,.06,.2,.14,.4,.24,.57,.1,.17,.23,.32,.37,.45,.15,.12,.32,.21,.5,.27,.08,.02,.18,.04,.28,.05,.07,0,.13,0,.19,0,.03,0,.05,0,.08,0,.17-.02,.33-.08,.48-.17,.13-.08,.26-.19,.37-.33,.1-.13,.2-.29,.27-.46,.14-.33,.23-.72,.24-1.14,.02-.4-.04-.8-.16-1.15-.12-.37-.32-.67-.56-.87-.15-.12-.34-.21-.57-.27-.15-.04-.31-.06-.46-.05"/>
            <path class="cls-16" d="M26.17,20.67c-.11,.02-.25,.08-.28,.2-.01,.05,0,.11,.02,.16,.02,.04,.05,.07,.09,.1,0,.03,.03,.05,.05,.06,.12,.07,.25,.12,.39,.16,.08,.02,.16,.04,.24,.04,.08,0,.16,0,.24-.01,.07-.02,.13-.05,.18-.1,.03-.03,.05-.06,.06-.09,.02-.04,.03-.08,.04-.13,0-.03,0-.06,0-.09,0-.04-.03-.07-.05-.1-.04-.05-.09-.09-.14-.12-.13-.07-.27-.09-.41-.11-.05,0-.09,0-.14,0-.09,0-.18,.01-.27,.03"/>
            <path class="cls-16" d="M38.79,15.24c.12-.04,.24-.07,.37-.08,.27-.03,.57,.03,.86,.16,.13,.06,.26,.14,.39,.24,.19,.13,.37,.29,.55,.49,.17,.2,.33,.42,.48,.68,.14,.25,.26,.52,.36,.8,.09,.27,.16,.56,.19,.85,.04,.28,.04,.56,0,.83-.03,.26-.1,.51-.21,.74-.11,.23-.27,.43-.47,.59-.09,.07-.19,.14-.31,.2-.08,.04-.16,.07-.23,.1-.03,.01-.07,.02-.1,.03-.22,.06-.44,.07-.67,.04-.2-.03-.41-.1-.62-.21-.19-.1-.39-.25-.57-.42-.35-.33-.65-.75-.9-1.26-.23-.48-.37-.99-.42-1.49-.05-.52,.03-.99,.23-1.36,.12-.23,.3-.43,.55-.63,.16-.13,.34-.23,.53-.3"/>
            <path class="cls-14" d="M38.74,15.95c.09-.03,.19-.04,.28-.04,.21,0,.43,.05,.64,.17,.1,.05,.19,.12,.28,.2,.13,.11,.26,.24,.39,.4,.12,.16,.23,.34,.32,.54,.09,.2,.17,.41,.23,.62,.05,.21,.09,.43,.1,.65,.01,.21,0,.42-.04,.62-.04,.2-.1,.38-.2,.54-.1,.17-.23,.31-.39,.42-.07,.05-.15,.1-.25,.14-.06,.03-.12,.05-.18,.06-.03,0-.05,.01-.08,.02-.17,.03-.34,.03-.51,0-.15-.03-.31-.1-.46-.19-.14-.09-.28-.21-.41-.34-.25-.26-.45-.6-.61-1-.15-.37-.23-.77-.24-1.14,0-.39,.08-.74,.24-1.01,.1-.16,.25-.31,.45-.45,.13-.09,.27-.16,.42-.2"/>
            <path class="cls-16" d="M41,17.25c.11-.01,.26,0,.33,.1,.03,.05,.04,.1,.03,.15,0,.05-.03,.09-.05,.13,0,.03,0,.05-.03,.07-.09,.11-.2,.2-.31,.28-.07,.05-.14,.09-.21,.12-.07,.03-.15,.06-.23,.07-.07,0-.14,0-.2-.04-.03-.02-.06-.04-.09-.07-.03-.03-.06-.06-.08-.11-.01-.03-.02-.06-.02-.09,0-.04,0-.07,.01-.11,.02-.06,.06-.11,.1-.16,.1-.1,.22-.18,.35-.24,.04-.02,.08-.04,.13-.05,.09-.03,.17-.05,.27-.06"/>
            <path class="cls-22" d="M28.02,14c-.01-.06-.04-.11-.07-.15-.03-.04-.07-.08-.11-.11-.05-.04-.11-.07-.17-.09-.1-.05-.22-.07-.34-.08-.02,0-.03,0-.05,0-.1,0-.2,.02-.31,.05-.23,.06-.45,.18-.71,.38-.07,.05-.14,.11-.21,.17-.09,.06-.17,.13-.25,.21-.25,.22-.47,.47-.65,.76-.11,.17-.2,.35-.28,.54-.04,.11-.09,.24-.08,.37,0,.03,0,.07,.03,.11,.01,.02,.02,.04,.04,.05,.03,.02,.04,.04,.08,.05,.03,.02,.07,.02,.09,.02,.06,0,.1,0,.15-.02,.13-.04,.25-.1,.34-.15,.15-.08,.29-.17,.39-.24,.12-.08,.23-.16,.35-.24l.07-.05c.06-.04,.11-.08,.17-.12,.07-.05,.15-.09,.22-.13,.09-.06,.19-.11,.28-.17,.18-.12,.42-.27,.64-.46,.1-.09,.18-.18,.25-.26,.03-.04,.06-.08,.08-.13,.02-.04,.04-.09,.05-.14,0-.04,0-.08,0-.13Z"/>
            <path class="cls-22" d="M40.39,12.61c-.05-.12-.14-.22-.22-.3-.15-.14-.31-.26-.47-.37-.28-.18-.59-.33-.91-.42-.1-.04-.21-.07-.31-.09-.09-.03-.18-.05-.26-.07-.31-.07-.57-.09-.8-.05-.11,.02-.21,.05-.3,.09-.02,0-.03,.01-.04,.02-.11,.05-.2,.13-.28,.21-.04,.05-.09,.1-.12,.16-.02,.04-.05,.09-.05,.14,0,.05-.01,.11,0,.16,.01,.05,.03,.09,.05,.12,.03,.05,.07,.08,.1,.11,.05,.04,.09,.07,.13,.09,.1,.05,.2,.1,.33,.14,.27,.08,.56,.13,.77,.16,.11,.02,.22,.03,.33,.04,.09,.01,.17,.02,.26,.03,.07,0,.14,.02,.21,.04l.08,.02c.14,.03,.28,.05,.42,.08,.13,.02,.29,.05,.46,.06,.1,0,.24,.02,.37,0,.05,0,.09-.02,.15-.04,.02-.01,.06-.03,.08-.06,.03-.03,.04-.05,.05-.08,0-.02,.01-.04,.01-.06,0-.04,0-.09-.02-.11Z"/>
            <path class="cls-22" d="M23.92,22.79c-.13,.05-.26,.12-.37,.21-.11,.09-.21,.19-.3,.3-.18,.22-.32,.47-.41,.74-.09,.26-.14,.53-.14,.81,0,.03,.02,.05,.05,.05s.05-.02,.05-.05c0-.06,0-.13,0-.19h0c.02-.18,.07-.35,.13-.52,0,0,0,0,0,0,0,0,0-.01,0-.02,0,0,0,0,0,0,0,0,0,0,0,0,.07-.16,.15-.31,.26-.45,.09-.11,.18-.21,.29-.3,.12-.09,.24-.17,.38-.23,.11-.05,.22-.08,.34-.1,.12-.02,.24-.02,.36,0,.05,0,.09,.01,.14,.02,.04,0,.08,0,.12-.02,.04-.02,.06-.06,.07-.1,.02-.09-.03-.17-.12-.2-.12-.03-.24-.05-.36-.05-.17,0-.34,.03-.5,.1m.31,.24s-.01,0-.02,0c0,0,.01,0,.02,0m-.75,.34s0,0,0,0c0,0,0,0,0,0m-.54,.76s0,0,0,0c0,0,0,0,0,0Z"/>
            <path class="cls-22" d="M43.2,18.19c-.13,.02-.25,.06-.36,.11-.13,.06-.24,.15-.34,.24-.08,.08-.08,.22,0,.29,.04,.04,.09,.06,.15,.06,.04,0,.07,0,.1-.03,.03-.02,.06-.04,.08-.08,0,0,0-.01,.01-.02,.05-.06,.11-.12,.17-.17,.06-.04,.13-.08,.2-.11,.07-.03,.15-.05,.22-.06,.1,0,.19,0,.28,0,.12,.02,.24,.05,.36,.1,.16,.07,.32,.16,.46,.27,.13,.1,.25,.22,.35,.35,0,0,0,0,0,0,0,0,0,0,0,0h0s0,0,0,0c0,0,.01,.01,.02,.02,.02,.03,.05,.04,.08,.02,.03-.01,.04-.06,.02-.08-.28-.39-.66-.7-1.11-.87-.17-.06-.34-.1-.52-.1-.06,0-.12,0-.18,.01m1.69,.99s0,0,0,0c0,0,0,0,0,0,0,0,0,0,0,0"/>
            <path class="cls-14" d="M44.6,20.49c-.03-.06-.08-.12-.14-.18-.11-.1-.25-.18-.43-.25-.15-.06-.31-.1-.52-.14-.12-.02-.23-.03-.34-.03-.05,0-.09,0-.14,0-.03,0-.05,0-.07,0-.01,0-.02,0-.03,0-.04,0-.07,.02-.09,.05-.09,.17-.18,.35-.25,.53-.06,.16-.12,.34-.18,.56-.08,.29-.14,.58-.2,.86-.02,.11-.04,.22-.07,.33-.05,.22-.11,.48-.19,.74-.07,.22-.16,.43-.26,.62v-.02c-.13,.27-.3,.52-.49,.73-.19,.21-.4,.39-.63,.54-.24,.16-.52,.29-.81,.39h-.02c-.37,.13-.78,.2-1.22,.23-.11,0-.21,0-.32,0-.1,0-.2,0-.3,0-.24-.01-.48-.04-.71-.06h-.02s-.09-.01-.09-.01c-.23-.02-.47-.05-.7-.06-.13,0-.26-.01-.39-.01s-.27,0-.39,.01c-.26,.02-.52,.06-.76,.14-.22,.07-.45,.17-.68,.32-.27,.17-.53,.36-.78,.55-.14,.1-.27,.21-.41,.31-.06,.04-.12,.08-.18,.12-.17,.11-.32,.2-.48,.27-.13,.06-.28,.12-.44,.18h-.02s0,0,0,0c-.37,.12-.76,.19-1.16,.22-.09,0-.18,0-.27,0-.38,0-.78-.04-1.18-.13,0,0-.01,0-.02,0-.56-.12-1.11-.33-1.64-.6-.54-.28-1.04-.63-1.48-1.03v.02c-.39-.37-.73-.77-1-1.18-.06-.09-.12-.2-.18-.3-.02-.04-.07-.07-.12-.07-.02,0-.04,0-.05,.01-.01,0-.02,.01-.03,.02,0,0-.02,0-.03,.01-.11,.05-.2,.14-.27,.21-.09,.09-.18,.2-.27,.34-.08,.13-.16,.26-.23,.41-.07,.16-.13,.31-.16,.45-.04,.15-.05,.29-.04,.41,0,.07,.02,.13,.04,.18,.02,.06,.06,.12,.1,.18,.04,.05,.09,.08,.14,.11,.05,.03,.1,.05,.16,.06,.02,0,.05,0,.07,0,.08,0,.16-.03,.24-.07,.14-.09,.23-.24,.29-.35,.1-.18,.17-.36,.21-.5,.06-.18,.12-.38,.18-.62,.32,.43,.71,.82,1.16,1.18,.65,.52,1.42,.93,2.22,1.2,.63,.21,1.27,.31,1.89,.31,.19,0,.37,0,.55-.03,.4-.04,.79-.13,1.18-.28,.21-.08,.42-.18,.62-.3,.23-.14,.44-.3,.61-.42l.19-.14c.2-.15,.4-.3,.6-.43,.26-.17,.5-.29,.74-.37h-.03c.26-.07,.53-.12,.84-.14,.09,0,.18,0,.27,0,.39,0,.8,.04,1.16,.08h.13c.23,.04,.47,.06,.72,.07,.07,0,.14,0,.21,0,.13,0,.26,0,.42-.01,.8-.05,1.54-.28,2.13-.67,.48-.32,.89-.77,1.18-1.31,.15-.28,.27-.59,.36-.92,.05-.19,.1-.38,.14-.58l.05-.22,.03-.12,.06-.27v-.02c.07-.32,.16-.69,.3-1.05,.15,.12,.28,.21,.41,.3,.2,.14,.38,.22,.55,.28,.09,.03,.18,.04,.27,.05,.1,0,.19-.02,.3-.06,.08-.03,.16-.09,.22-.16,.06-.07,.09-.15,.09-.25,0-.1-.04-.2-.07-.26Z"/>
            <path class="cls-22" d="M21.23,29.63s-.02,.01-.02,.02c.01,.03,.03,.07,.05,.1,0,.02,.02,.04,.03,.06,.03,.07,.06,.13,.1,.2,.04,.06,.07,.12,.11,.19,0,0,0,0,0,0,.02,.04,.04,.07,.06,.11,.03,.04,.05,.08,.08,.12,.06,.08,.12,.15,.18,.23,.1,.11,.21,.22,.32,.33,.33,.32,.69,.59,1.07,.83,.75,.47,1.57,.8,2.41,1.03,.64,.18,1.29,.3,1.94,.38,.32,.04,.65,.08,.97,.11,.33,.03,.66,.06,.99,.09,.02,0,.04-.01,.05-.03,0-.02-.01-.05-.03-.05-.3-.03-.6-.06-.9-.1-.15-.02-.29-.04-.44-.06-.16-.02-.31-.05-.47-.08-.3-.05-.61-.12-.91-.19-.3-.07-.6-.15-.89-.24-.84-.25-1.66-.59-2.4-1.05,0,0,0,0,0,0,0,0,0,0,0,0h0s-.01,0-.02-.01c0,0,.01,0,.02,.01l-.03-.02s0,0,0,0c-.18-.11-.35-.23-.52-.36-.22-.15-.43-.32-.63-.5-.05-.04-.11-.08-.16-.13-.15-.13-.29-.26-.43-.4-.17-.18-.33-.38-.47-.59-.01,0-.02,0-.03,.02"/>
            <path class="cls-22" d="M25.9,32.67s0,0,0,0h0Z"/>
            <path class="cls-22" d="M25.9,32.66s0,0,0,0h0Z"/>
            <g>
              <path class="cls-1" d="M16.86,5.75s-.08,0-.12,0c-.09,0-.19,.03-.31,.06-.09,.03-.18,.06-.28,.11-.11,.05-.2,.11-.28,.16-.1,.07-.19,.15-.27,.22-.19,.17-.36,.39-.51,.67-.14,.26-.24,.55-.3,.89-.05,.27-.08,.57-.09,.94v.02s0,.02,0,.02c-.07-.1-.15-.21-.25-.32-.3-.34-.6-.63-.92-.86-.17-.12-.35-.23-.54-.33-.17-.08-.36-.15-.56-.19-.1-.02-.21-.03-.33-.03-.08,0-.15,0-.23,.01-.09,.01-.18,.03-.25,.06-.06,.02-.13,.04-.19,.08-.07,.04-.14,.08-.19,.12-.05,.04-.1,.09-.17,.16-.08,.09-.15,.21-.19,.34-.08,.24-.11,.51-.08,.83,.01,.13,.03,.27,.07,.41,.04,.16,.08,.3,.13,.43,.09,.25,.21,.49,.35,.71,.19,.29,.44,.58,.77,.88,.13,.12,.29,.24,.49,.38,.16,.11,.33,.22,.53,.33,.21,.12,.38,.21,.56,.29,.17,.08,.36,.16,.58,.25,.37,.14,.77,.26,1.17,.36,.04,0,.07,.02,.11,.03h.05s.05,.02,.05,.02c.03,0,.05-.01,.07-.03,.29-.26,.56-.56,.82-.91,.12-.16,.23-.33,.36-.53,.13-.2,.24-.39,.33-.56,.09-.18,.18-.36,.28-.59,.09-.21,.17-.41,.24-.6,.15-.42,.26-.81,.34-1.19,.08-.41,.12-.77,.12-1.1,0-.18-.03-.37-.09-.56-.05-.18-.14-.35-.25-.49-.14-.17-.31-.3-.5-.39-.16-.07-.34-.1-.52-.1"/>
              <path class="cls-1" d="M47.84,10.36s-.02,0-.03,0c-.08,0-.15,.02-.2,.04-.06,.02-.12,.04-.2,.08-.15,.08-.28,.18-.4,.3-.18,.19-.31,.45-.37,.77-.05,.28-.06,.59,0,.95,.04,.31,.12,.64,.25,1.02,.13,.39,.29,.77,.48,1.15,.12,.24,.29,.55,.5,.83,0,.01,.02,.02,.03,.02h.03s.03,0,.03,0c.17-.03,.33-.07,.5-.11,.09-.02,.18-.05,.27-.08,.13-.04,.27-.08,.4-.12l.12-.04c.32-.12,.59-.23,.83-.34,.38-.18,.7-.37,.99-.59,.15-.11,.3-.24,.43-.37,.12-.12,.22-.25,.34-.44,.1-.16,.18-.34,.23-.54,.02-.07,.03-.16,.04-.25,0-.07,0-.12,0-.18,0-.06-.02-.13-.03-.19-.04-.19-.15-.36-.31-.51-.02-.02-.05-.05-.09-.07-.05-.04-.1-.07-.16-.1-.04-.02-.08-.03-.12-.05-.09-.03-.15-.05-.22-.06-.09-.02-.18-.02-.28-.02-.03,0-.05,0-.08,0-.13,0-.26,.03-.38,.07-.25,.06-.47,.19-.64,.29-.17,.1-.35,.24-.54,.4-.05,.05-.11,.1-.16,.15,0-.03,0-.07,0-.1-.02-.29-.08-.58-.17-.86-.04-.13-.1-.26-.18-.41-.06-.12-.14-.23-.24-.33-.09-.09-.19-.17-.3-.22-.11-.05-.23-.08-.36-.08"/>
            </g>
          </g>
        </g>
      </g>
    </g>
  </g>
</svg>