<?xml version="1.0" encoding="UTF-8"?>
<svg xmlns="http://www.w3.org/2000/svg" xmlns:xlink="http://www.w3.org/1999/xlink" viewBox="0 0 64 64">
  <defs>
    <style>
      .cls-1 {
        fill: url(#linear-gradient-2);
      }

      .cls-2, .cls-3 {
        fill: #fff;
      }

      .cls-4 {
        fill: #8c8587;
      }

      .cls-4, .cls-5, .cls-6 {
        mix-blend-mode: overlay;
      }

      .cls-7 {
        fill: #ff755d;
      }

      .cls-8 {
        isolation: isolate;
      }

      .cls-3, .cls-5 {
        opacity: .5;
      }

      .cls-9, .cls-10, .cls-11 {
        mix-blend-mode: multiply;
      }

      .cls-9, .cls-5 {
        fill: #c8bbff;
      }

      .cls-12, .cls-13 {
        fill: #2b2829;
      }

      .cls-12, .cls-14 {
        mix-blend-mode: screen;
      }

      .cls-15 {
        fill: #201815;
      }

      .cls-16 {
        fill: #dcc2a7;
      }

      .cls-17 {
        opacity: .3;
      }

      .cls-18 {
        fill: #fffefd;
      }

      .cls-10 {
        opacity: .39;
      }

      .cls-19 {
        fill: #724d3d;
      }

      .cls-20 {
        fill: #f6b4d0;
      }

      .cls-21 {
        fill: #ffe3cd;
      }

      .cls-22 {
        fill: url(#linear-gradient);
      }

      .cls-6 {
        fill: #998a8e;
      }
    </style>
    <linearGradient id="linear-gradient" x1="64" y1="34.03" x2="5.45" y2="34.03" gradientUnits="userSpaceOnUse">
      <stop offset="0" stop-color="#cf965b"/>
      <stop offset=".25" stop-color="#ca9257"/>
      <stop offset=".51" stop-color="#be864c"/>
      <stop offset=".78" stop-color="#a9733a"/>
      <stop offset="1" stop-color="#925d26"/>
    </linearGradient>
    <linearGradient id="linear-gradient-2" x1="61.28" y1="31.49" x2="1.36" y2="31.49" gradientUnits="userSpaceOnUse">
      <stop offset="0" stop-color="#e8b886"/>
      <stop offset=".25" stop-color="#e3b482"/>
      <stop offset=".5" stop-color="#d7a877"/>
      <stop offset=".76" stop-color="#c29464"/>
      <stop offset="1" stop-color="#a97c4e"/>
    </linearGradient>
  </defs>
  <g class="cls-8">
    <g id="_Слой_2" data-name="Слой 2">
      <g id="_Слой_1-2" data-name="Слой 1">
        <g>
          <g>
            <path class="cls-22" d="M60.49,6.68c-1.75-1.6-4.41-2.62-7.38-2.62H14.98c-5.26,0-9.53,3.19-9.53,7.11V55.87c0,2.22,1.37,4.2,3.51,5.51,1.75,1.6,4.41,2.62,7.38,2.62H54.47c5.26,0,9.53-3.19,9.53-7.11V12.19c0-2.22-1.37-4.2-3.51-5.51Z"/>
            <path class="cls-1" d="M57.77,4.65c-.41-.37-.86-.71-1.36-1.02-1.75-1.6-4.41-2.62-7.38-2.62H10.89C5.64,1.02,1.36,4.21,1.36,8.13V52.83c0,2.22,1.37,4.2,3.51,5.51,.41,.37,.86,.71,1.36,1.02,1.75,1.6,4.41,2.62,7.38,2.62H51.74c5.26,0,9.53-3.19,9.53-7.11V10.16c0-2.22-1.37-4.2-3.51-5.51Z"/>
            <path class="cls-16" d="M47.66,0H9.53C4.28,0,0,3.19,0,7.11V51.81c0,3.92,4.28,7.11,9.53,7.11H47.66c5.26,0,9.53-3.19,9.53-7.11V7.11c0-3.92-4.28-7.11-9.53-7.11Z"/>
          </g>
          <path class="cls-6" d="M5.89,14.33c-.01-2.85,.17-6.06,2.96-8,2.12-1.47,5.21-1.81,8.09-1.99,6.68-.42,13.42-.36,20.09,.18,3.3,.26,6.79,.71,9.28,2.36,3.69,2.45,3.93,6.61,3.9,10.29-.08,9.24-.15,18.48-.23,27.72-.02,2.2-.08,4.51-1.54,6.42-1.54,2-4.45,3.25-7.46,3.8-3.01,.55-6.15,.48-9.24,.41-5.15-.12-10.31-.24-15.43-.71-2.79-.26-9.22-.18-10.19-2.65-.66-1.68-.07-4.15-.07-5.9,0-2.02-.02-4.03-.03-6.05-.02-4.03-.04-8.06-.06-12.1-.02-4.59-.04-9.18-.07-13.78Z"/>
          <path class="cls-6" d="M20.65,20.31c-3.25-.39-6.54-1.19-8.94-2.87-2.39-1.69-3.67-4.43-2.38-6.69,.89-1.57,2.87-2.69,5.01-3.3,2.14-.61,4.45-.77,6.74-.89,5.74-.3,11.52-.39,17.22,.17,2.22,.22,4.55,.57,6.21,1.7,2.93,1.99,2.55,5.66,.4,8.14-5.33,6.17-16.02,4.75-24.26,3.75Z"/>
          <path class="cls-12" d="M9.75,46.11c-.57-1.77-.49-3.61-.4-5.43,.37-7.55,.74-15.09,1.11-22.64,.14-2.75,.39-5.74,2.81-7.82,2.2-1.89,5.7-2.58,9.03-2.93,4.04-.42,8.14-.47,12.2-.14,3.7,.3,7.69,1.06,9.9,3.3,1.87,1.9,2.03,4.41,2.12,6.77,.33,9.07,.66,18.2-1.13,27.18-.4,1.99-1,4.12-2.97,5.5-2.25,1.58-5.63,1.75-8.72,1.75-5.06,0-10.12-.25-15.13-.73-4.65-.45-7.58-.99-8.81-4.8Z"/>
          <path class="cls-9" d="M47.66,1.02h-1.63c4.51,0,8.17,2.73,8.17,6.1V51.81c0,3.37-3.66,6.1-8.17,6.1h1.63c4.51,0,8.17-2.73,8.17-6.1V7.11c0-3.37-3.66-6.1-8.17-6.1Z"/>
          <path class="cls-5" d="M44.83,56.21c2.15-.26,4.29-1.07,5.39-2.47,.86-1.09,1-2.4,1.05-3.66,.05-1.24,.02-2.47-.08-3.71-.07-.81-.31-1.78-1.32-2.08-.75-.23-1.65,.04-2.16,.52s-.69,1.1-.74,1.7c-.11,1.25,.25,2.52-.08,3.75-.39,1.42-1.68,2.63-3.23,3.51-1.13,.64-4.12,1.25-4.5,2.21,1.43,.58,4.04,.42,5.67,.23Z"/>
          <path class="cls-4" d="M3.88,2.71c-1.55,1.11-2.52,2.67-2.52,4.4v26.08c12.35-3.44,32.73-4.39,54.47,14.33v-14.97C26.86,28.05,11.39,13.17,3.88,2.71Z"/>
          <path class="cls-3" d="M3.58,9.23c.26-1.79,1.27-3.6,3.21-4.67,2.66-1.47,6.31-1.25,9.61-.96,1.02,.09,2.32,.39,2.36,1.15,.03,.67-.97,1.08-1.84,1.21-2.2,.34-4.63-.04-6.59,.77-1.42,.58-2.33,1.69-2.8,2.85s-.56,2.38-.73,3.58c-.07,.46-.15,.93-.44,1.34-1.08,1.49-2.05,.48-2.43-.37-.6-1.35-.53-3.5-.32-4.91Z"/>
          <g class="cls-14">
            <path class="cls-13" d="M36.44,9.78c.84,1.55-.18,3.32-2.26,3.94-2.08,.62-4.45-.13-5.29-1.69-.84-1.55,.18-3.32,2.26-3.94,2.08-.62,4.45,.13,5.29,1.69Z"/>
            <path class="cls-13" d="M43.37,11.71c.45,.84-.09,1.78-1.21,2.12-1.12,.34-2.39-.07-2.84-.91-.45-.84,.09-1.78,1.21-2.12,1.12-.34,2.39,.07,2.84,.91Z"/>
            <ellipse class="cls-13" cx="38.42" cy="16.63" rx="1.82" ry="1.36"/>
          </g>
          <g class="cls-14">
            <path class="cls-13" d="M23.64,45.38c.8,1.49-.17,3.17-2.16,3.77-1.99,.6-4.25-.13-5.05-1.61-.8-1.49,.17-3.17,2.16-3.77,1.99-.6,4.25,.13,5.05,1.61Z"/>
            <path class="cls-13" d="M20.79,40.39c.22,.41-.05,.87-.59,1.03-.54,.16-1.16-.03-1.38-.44-.22-.41,.05-.87,.59-1.03,.54-.16,1.16,.03,1.38,.44Z"/>
            <path class="cls-13" d="M15.3,41.5c.45,.84-.09,1.78-1.21,2.12-1.12,.34-2.39-.07-2.84-.91-.45-.84,.09-1.78,1.21-2.12,1.12-.34,2.39,.07,2.84,.91Z"/>
          </g>
          <g class="cls-17">
            <path class="cls-9" d="M51.02,35.95c.79,1.47-.17,3.15-2.14,3.74-1.98,.59-4.22-.12-5.01-1.6-.79-1.47,.17-3.15,2.14-3.74,1.98-.59,4.22,.12,5.01,1.6Z"/>
            <path class="cls-9" d="M53.92,29.6c.58,1.08-.12,2.3-1.57,2.74-1.45,.43-3.09-.09-3.67-1.17-.58-1.08,.12-2.3,1.57-2.74,1.45-.43,3.09,.09,3.67,1.17Z"/>
            <path class="cls-9" d="M45.56,30.99c.37,.7-.08,1.49-1.01,1.77-.93,.28-1.99-.06-2.37-.75-.37-.7,.08-1.49,1.01-1.77,.93-.28,1.99,.06,2.37,.76Z"/>
            <path class="cls-9" d="M10.65,25.55c.41,.75-.09,1.61-1.1,1.92-1.01,.3-2.16-.06-2.57-.82-.41-.75,.09-1.61,1.1-1.92,1.01-.3,2.16,.06,2.57,.82Z"/>
            <path class="cls-9" d="M11.29,21.09c.21,.39-.04,.84-.57,1-.53,.16-1.13-.03-1.34-.43-.21-.39,.04-.84,.57-1,.53-.16,1.13,.03,1.34,.43Z"/>
            <path class="cls-9" d="M6.59,20.15c.34,.63-.07,1.34-.91,1.59-.84,.25-1.79-.05-2.13-.68-.34-.63,.07-1.34,.91-1.59,.84-.25,1.79,.05,2.13,.68Z"/>
          </g>
        </g>
        <g id="_Слой_6" data-name="Слой 6">
          <g>
            <g>
              <path class="cls-21" d="M20.74,54.27c-1.23,0-2.18-.36-2.54-.96-.28-.48-.36-.95-.23-1.4,.17-.58,.64-.99,.94-1.19-.99-.35-4.51-1.8-5.45-5.15-1.1-3.91,1.67-6.3,1.69-6.32l.09-.08,.08,.09c.41,.43,9.97,10.52,9.59,12.78-.24,1.45-2.33,2.24-4.18,2.24h0Z"/>
              <path class="cls-15" d="M15.24,39.34s9.93,10.45,9.56,12.67c-.23,1.37-2.29,2.13-4.06,2.13-1.09,0-2.07-.29-2.43-.9-.95-1.61,.9-2.55,.9-2.55,0,0-4.54-1.28-5.63-5.15-1.09-3.88,1.65-6.19,1.65-6.19m.02-.34l-.18,.15s-2.85,2.47-1.73,6.45c.91,3.24,4.07,4.7,5.31,5.16-.29,.24-.65,.61-.79,1.11-.14,.48-.06,.99,.24,1.49,.38,.65,1.35,1.03,2.64,1.03,1.89,0,4.05-.82,4.3-2.34,.38-2.28-8.6-11.81-9.62-12.88l-.16-.17h0Z"/>
            </g>
            <g>
              <path class="cls-21" d="M38.54,54.27c-1.84,0-3.93-.78-4.18-2.24-.38-2.26,9.18-12.35,9.59-12.78l.08-.09,.09,.08s2.79,2.41,1.69,6.32c-.94,3.36-4.46,4.81-5.45,5.15,.29,.2,.77,.6,.94,1.19,.13,.45,.06,.92-.22,1.4-.36,.6-1.3,.96-2.54,.96Z"/>
              <path class="cls-15" d="M44.04,39.34s2.74,2.32,1.65,6.19c-1.09,3.88-5.63,5.15-5.63,5.15,0,0,1.84,.95,.9,2.55-.36,.61-1.34,.9-2.43,.9-1.76,0-3.82-.76-4.06-2.13-.37-2.22,9.56-12.67,9.56-12.67m-.02-.34l-.16,.17c-1.03,1.08-10,10.6-9.62,12.88,.26,1.52,2.41,2.34,4.3,2.34,1.3,0,2.26-.37,2.64-1.03,.3-.51,.38-1.01,.24-1.49-.15-.5-.5-.87-.79-1.11,1.23-.46,4.4-1.92,5.31-5.16,1.12-3.99-1.71-6.43-1.73-6.45l-.18-.15h0Z"/>
            </g>
            <g>
              <path class="cls-21" d="M28.52,52.89c-7.39,0-13.41-6.01-13.41-13.41v-2.4c0-5.19,4.22-9.41,9.41-9.41h10.65c5.19,0,9.41,4.22,9.41,9.41v2.4c0,7.39-6.01,13.41-13.41,13.41h-2.66Z"/>
              <path class="cls-15" d="M35.18,27.81c5.1,0,9.28,4.18,9.28,9.28v2.4c0,7.3-5.98,13.28-13.28,13.28h-2.66c-7.3,0-13.28-5.98-13.28-13.28v-2.4c0-5.1,4.18-9.28,9.28-9.28h10.65m0-.25h-10.65c-5.26,0-9.53,4.28-9.53,9.53v2.4c0,7.46,6.07,13.53,13.53,13.53h2.66c7.46,0,13.53-6.07,13.53-13.53v-2.4c0-5.26-4.28-9.53-9.53-9.53h0Z"/>
            </g>
            <g class="cls-11">
              <path class="cls-21" d="M31.98,48.5h-4.25c-6.78,0-12.34-5.48-12.47-12.23,0,.08,0,.17,0,.25v3.76c0,6.86,5.62,12.48,12.48,12.48h4.25c6.86,0,12.48-5.62,12.48-12.48v-3.76c0-.09,0-.17,0-.25-.14,6.75-5.7,12.23-12.47,12.23Z"/>
            </g>
            <g>
              <rect class="cls-21" x="12.57" y="6.41" width="34.01" height="28.05" rx="12.76" ry="12.76"/>
              <path class="cls-15" d="M33.81,6.53c6.95,0,12.64,5.69,12.64,12.64v2.53c0,6.95-5.69,12.64-12.64,12.64h-8.48c-6.95,0-12.64-5.69-12.64-12.64v-2.53c0-6.95,5.69-12.64,12.64-12.64h8.48m0-.25h-8.48c-7.11,0-12.89,5.78-12.89,12.89v2.53c0,7.11,5.78,12.89,12.89,12.89h8.48c7.11,0,12.89-5.78,12.89-12.89v-2.53c0-7.11-5.78-12.89-12.89-12.89h0Z"/>
            </g>
            <g class="cls-11">
              <path class="cls-21" d="M32.55,29.24h-5.96c-6.76,0-12.44-4.9-13.65-11.32-.16,.84-.24,1.7-.24,2.58h0c0,7.64,6.25,13.9,13.9,13.9h5.96c7.64,0,13.9-6.25,13.9-13.9h0c0-.88-.09-1.74-.24-2.58-1.22,6.42-6.89,11.32-13.65,11.32Z"/>
            </g>
            <g>
              <path class="cls-20" d="M32.4,38.63c-.08,0-.16,0-.24-.02-.8-.13-1.34-.89-1.21-1.68h0c-.38-.07-.72-.28-.95-.6-.23-.32-.32-.71-.26-1.09,.12-.7,.74-1.23,1.45-1.23,.08,0,.16,0,.24,.02l1.18,.19,9.81-7.08,.12-.97,.02-.13c.12-.7,.74-1.23,1.45-1.23,.08,0,.16,0,.24,.02,.8,.13,1.34,.89,1.21,1.69h0c.8,.13,1.34,.89,1.21,1.69-.12,.7-.74,1.23-1.45,1.23-.08,0-.16,0-.24-.02l-1.17-.19-9.81,7.08-.12,.97-.02,.13c-.12,.7-.74,1.23-1.45,1.23h0Z"/>
              <path class="cls-15" d="M44.01,24.95c.07,0,.14,0,.22,.02,.73,.12,1.23,.81,1.11,1.54l-.02,.13,.13,.02c.73,.12,1.23,.81,1.11,1.54h0c-.11,.65-.68,1.12-1.32,1.12-.07,0-.14,0-.22-.02l-.13-.02-1.05-.17-9.91,7.1-.17,1.05-.02,.13c-.11,.65-.68,1.12-1.32,1.12-.07,0-.14,0-.22-.02-.73-.12-1.23-.81-1.11-1.54l.02-.13-.13-.02c-.73-.12-1.23-.81-1.11-1.54h0c.11-.65,.68-1.12,1.32-1.12,.07,0,.14,0,.22,.02l.13,.02,1.05,.17,9.91-7.1,.17-1.05,.02-.13c.11-.65,.68-1.12,1.32-1.12m0-.25h0c-.77,0-1.45,.57-1.57,1.33l-.02,.13-.16,.95-9.74,6.98-.95-.16-.13-.02c-.09-.01-.17-.02-.26-.02-.77,0-1.45,.57-1.57,1.33-.07,.42,.03,.84,.28,1.18,.23,.31,.55,.53,.92,.62-.03,.38,.07,.75,.29,1.07,.25,.35,.62,.57,1.03,.64,.09,.01,.17,.02,.26,.02,.77,0,1.45-.57,1.57-1.33l.02-.13,.16-.95,9.74-6.98,.95,.16,.13,.02c.09,.01,.17,.02,.26,.02,.77,0,1.45-.57,1.57-1.33,.07-.42-.03-.84-.28-1.18-.23-.31-.55-.53-.92-.62,.03-.38-.07-.75-.29-1.07-.25-.35-.62-.57-1.03-.64-.09-.01-.17-.02-.26-.02h0Z"/>
            </g>
            <g>
              <path class="cls-21" d="M16.95,37.45s-.61-2.13,1.13-6.1c1.75-3.97,3.97-3.21,4.21-2.22s-.66,4.02,.43,5.96"/>
              <path class="cls-15" d="M16.95,37.45c-.69-2.34,1.51-10.38,4.88-9.04,.81,.43,.58,1.44,.53,2.19-.13,1.5-.32,3.1,.36,4.49-.78-1.36-.65-3.01-.53-4.51,.02-.72,.25-1.64-.46-1.99-3.12-1.06-5.28,6.58-4.78,8.86h0Z"/>
            </g>
            <g class="cls-11">
              <path class="cls-21" d="M18.08,33.24c1.67-3.8,3.78-3.27,4.16-2.35,.06-.75,.13-1.39,.04-1.76-.24-.99-2.46-1.75-4.21,2.22-1.45,3.29-1.28,5.31-1.17,5.91,.12-1,.43-2.34,1.17-4.02Z"/>
            </g>
            <g>
              <path class="cls-21" d="M43.2,37.74s.61-2.13-1.13-6.1c-1.75-3.97-3.97-3.21-4.21-2.22-.24,.99,.66,4.02-.43,5.96"/>
              <path class="cls-15" d="M43.2,37.74c.5-2.26-1.66-9.92-4.78-8.86-.71,.35-.48,1.26-.46,1.99,.12,1.5,.25,3.14-.53,4.51,.69-1.4,.49-2.99,.36-4.49-.05-.74-.29-1.75,.53-2.19,.76-.41,1.67-.05,2.23,.47,1.16,1.1,1.71,2.6,2.2,4.03,.46,1.45,.77,3.03,.45,4.54h0Z"/>
            </g>
            <g class="cls-11">
              <path class="cls-21" d="M42.11,33.37c.78,1.77,1.09,3.17,1.19,4.18,.1-.72,.17-2.69-1.19-5.78-1.75-3.97-3.97-3.21-4.21-2.22-.08,.33-.03,.87,.02,1.52,.33-.95,2.48-1.57,4.18,2.3Z"/>
            </g>
            <g>
              <path class="cls-18" d="M22.83,26.02c-3.31,0-6.01-2.7-6.01-6.01s2.7-6.01,6.01-6.01,6.01,2.7,6.01,6.01-2.7,6.01-6.01,6.01Z"/>
              <path class="cls-15" d="M22.83,14.12c3.25,0,5.89,2.64,5.89,5.89s-2.64,5.89-5.89,5.89-5.89-2.64-5.89-5.89,2.64-5.89,5.89-5.89m0-.25c-3.38,0-6.14,2.75-6.14,6.14s2.75,6.14,6.14,6.14,6.14-2.75,6.14-6.14-2.75-6.14-6.14-6.14h0Z"/>
            </g>
            <circle class="cls-19" cx="22.39" cy="19.83" r="5.12"/>
            <circle class="cls-15" cx="22.39" cy="19.83" r="2.97"/>
            <path class="cls-2" d="M25.78,17.61c0,.79-.64,1.42-1.42,1.42s-1.42-.64-1.42-1.42,.64-1.42,1.42-1.42,1.42,.64,1.42,1.42Z"/>
            <g>
              <path class="cls-18" d="M37.01,26.02c-3.31,0-6.01-2.7-6.01-6.01s2.7-6.01,6.01-6.01,6.01,2.7,6.01,6.01-2.7,6.01-6.01,6.01Z"/>
              <path class="cls-15" d="M37.01,14.12c3.25,0,5.89,2.64,5.89,5.89s-2.64,5.89-5.89,5.89-5.89-2.64-5.89-5.89,2.64-5.89,5.89-5.89m0-.25c-3.38,0-6.14,2.75-6.14,6.14s2.75,6.14,6.14,6.14,6.14-2.75,6.14-6.14-2.75-6.14-6.14-6.14h0Z"/>
            </g>
            <circle class="cls-19" cx="37.45" cy="19.83" r="5.12"/>
            <circle class="cls-15" cx="37.45" cy="19.83" r="2.97"/>
            <circle class="cls-2" cx="35.49" cy="17.61" r="1.42"/>
            <g>
              <path class="cls-19" d="M28.84,32.15c-1.76,0-3.19-1.43-3.19-3.19s1.43-3.19,3.19-3.19h2.57c1.76,0,3.19,1.43,3.19,3.19s-1.43,3.19-3.19,3.19h-2.57Z"/>
              <path class="cls-15" d="M31.41,25.89c1.69,0,3.07,1.38,3.07,3.07s-1.38,3.07-3.07,3.07h-2.57c-1.69,0-3.07-1.38-3.07-3.07s1.38-3.07,3.07-3.07h2.57m0-.25h-2.57c-1.83,0-3.32,1.49-3.32,3.32s1.49,3.32,3.32,3.32h2.57c1.83,0,3.32-1.49,3.32-3.32s-1.49-3.32-3.32-3.32h0Z"/>
            </g>
            <g class="cls-10">
              <path class="cls-19" d="M31.36,29.99h-2.57c-1.33,0-2.47-.86-2.89-2.05-.11,.32-.18,.66-.18,1.02,0,1.69,1.38,3.07,3.07,3.07h2.57c1.69,0,3.07-1.38,3.07-3.07,0-.36-.06-.7-.18-1.02-.42,1.19-1.56,2.05-2.89,2.05Z"/>
            </g>
            <g>
              <path class="cls-7" d="M25.85,32.7c-.09,0-.18,0-.27-.02-.36-.05-.62-.22-.77-.5-.52-1.01,.63-3.19,.68-3.28,.04-.06,.85-1.16,1.53-1.16,.37,0,.62,.29,.76,.85,.3,1.26,.09,2.62-.53,3.41-.36,.46-.84,.7-1.4,.7h0Z"/>
              <path class="cls-15" d="M27.02,27.87c.27,0,.5,.2,.64,.76,.43,1.79-.19,3.95-1.8,3.95-.08,0-.17,0-.25-.02-1.8-.24,0-3.6,0-3.6,0,0,.79-1.09,1.42-1.09m0-.25c-.73,0-1.53,1.07-1.62,1.2-.14,.27-1.24,2.37-.7,3.42,.16,.32,.46,.52,.87,.57,.1,.01,.19,.02,.28,.02,.59,0,1.11-.26,1.5-.75,.64-.81,.86-2.22,.55-3.51-.19-.78-.58-.95-.88-.95h0Z"/>
            </g>
            <g>
              <path class="cls-7" d="M26.76,29.27c-.31,.14-.76,1.54-.69,2.55"/>
              <path class="cls-15" d="M26.81,29.39c-.54,.6-.71,1.63-.74,2.44-.05-.45-.01-.91,.07-1.36,.13-.49,.14-.93,.56-1.31,0,0,.1,.23,.1,.23h0Z"/>
            </g>
            <g>
              <path class="cls-19" d="M26.71,30.02c-1.03,0-1.98-.52-2.41-1.33-.37-.68-.31-1.47,.15-2.16,.25-.37,.58-.73,1-1.07,1.94-1.55,3.44-1.73,4.4-1.73h.49c3.07,0,4.55,1.56,5.25,2.87,.41,.77,.44,1.53,.08,2.14-.39,.65-1.19,1.05-2.1,1.05-1.27,0-2.51-.75-3.34-2.02-.39,.51-1.73,2.12-3.29,2.24-.08,0-.16,0-.24,0Z"/>
              <path class="cls-15" d="M29.85,23.87c.12,0,.23,0,.32,0,.05,0,.1,0,.17,0,.92,0,3.69,.09,5.14,2.8,.92,1.72-.3,3.01-1.91,3.01-1.11,0-2.42-.61-3.33-2.12,0,0-1.52,2.2-3.3,2.33-.08,0-.16,0-.23,0-1.86,0-3.21-1.71-2.16-3.29,.22-.33,.54-.68,.98-1.04,2-1.6,3.51-1.7,4.32-1.7m0-.25c-.98,0-2.51,.18-4.48,1.76-.43,.35-.78,.71-1.03,1.09-.48,.73-.54,1.56-.15,2.29,.45,.85,1.44,1.39,2.52,1.39,.08,0,.17,0,.25,0,1.49-.11,2.77-1.52,3.27-2.15,.85,1.22,2.08,1.93,3.34,1.93,.97,0,1.79-.41,2.21-1.11,.39-.65,.36-1.45-.08-2.26-.72-1.34-2.23-2.93-5.36-2.93h-.1s-.07,0-.07,0h-.13s-.19,0-.19,0h0Z"/>
            </g>
            <g class="cls-10">
              <path class="cls-19" d="M30.24,26.1s-1.52,2.2-3.3,2.33c-1.2,.09-2.23-.54-2.6-1.41-.62,1.52,.79,3.01,2.6,2.87,1.78-.14,3.3-2.33,3.3-2.33,2.13,3.52,6.39,2.16,5.41-.5-.7,1.56-3.72,1.84-5.41-.95Z"/>
            </g>
            <path class="cls-15" d="M29.14,25.7s-.67-.74,0-1.12c.67-.37,1.88-.34,2.23,.11,.35,.44-.63,1.84-1.25,1.84-.28,0-.98-.83-.98-.83Z"/>
            <g>
              <path class="cls-19" d="M11.85,27.04c-.1,0-.2-.01-.31-.03-2.51-.5-3.75-7.95-3.55-9.66,.2-1.74,4.04-5.33,5.77-6.7,1.86-1.48,3.93-1.5,4.02-1.5,.75,.21,1.15,.49,1.31,.9,.3,.78-.37,1.83-1.37,3.43-.63,1-1.41,2.25-2.11,3.7-.95,1.98-1.37,4.14-1.7,5.87-.45,2.32-.77,3.99-2.04,3.99h0Z"/>
              <path class="cls-15" d="M17.77,9.27c3,.84-.02,3.13-2.29,7.85-2.17,4.53-1.54,9.79-3.63,9.79-.09,0-.19-.01-.29-.03-2.44-.49-3.64-7.87-3.45-9.53s3.88-5.15,5.72-6.62c1.84-1.47,3.94-1.47,3.94-1.47m.03-.25h-.03c-.09,0-2.21,.02-4.1,1.53-1.81,1.44-5.61,4.99-5.81,6.79-.17,1.47,.92,9.25,3.65,9.8,.12,.02,.23,.04,.34,.04,1.37,0,1.71-1.72,2.17-4.09,.33-1.73,.75-3.88,1.69-5.84,.7-1.45,1.48-2.69,2.11-3.69,1.03-1.63,1.71-2.71,1.38-3.55-.17-.45-.6-.76-1.36-.97h-.03Z"/>
            </g>
            <g class="cls-10">
              <path class="cls-19" d="M17.77,9.27s-.05,0-.14,0c-.19,1.28-2.02,3.34-3.53,6.47-2.27,4.73-1.48,10.26-3.92,9.76-.07-.01-.13-.03-.2-.06,.45,.77,.98,1.32,1.58,1.44,2.44,.49,1.65-5.03,3.92-9.76s5.29-7.01,2.29-7.85Z"/>
            </g>
            <g>
              <path class="cls-19" d="M47.64,25.08c-1.14,0-1.43-1.49-1.83-3.56-.3-1.54-.67-3.46-1.51-5.22-.62-1.29-1.32-2.4-1.88-3.29-.9-1.43-1.49-2.37-1.22-3.06,.14-.37,.5-.62,1.14-.8,0,0,.01,0,.02,0,.25,0,2.01,.07,3.59,1.33,1.53,1.22,4.95,4.41,5.13,5.96,.17,1.53-.93,8.15-3.17,8.6-.1,.02-.19,.03-.28,.03Z"/>
              <path class="cls-15" d="M42.38,9.27s1.87,0,3.5,1.31,4.92,4.41,5.08,5.88c.17,1.47-.9,8.03-3.07,8.47-.09,.02-.18,.03-.26,.03-1.86,0-1.3-4.68-3.23-8.7-2.02-4.2-4.7-6.23-2.03-6.98m-.03-.25h-.03c-.68,.2-1.07,.48-1.23,.89-.29,.76,.32,1.72,1.23,3.18,.56,.89,1.25,1.99,1.87,3.28,.84,1.75,1.21,3.65,1.5,5.19,.41,2.12,.71,3.66,1.95,3.66,.1,0,.2-.01,.31-.03,2.44-.49,3.42-7.43,3.27-8.74-.18-1.61-3.57-4.77-5.18-6.05-1.69-1.34-3.58-1.36-3.66-1.36h-.03Z"/>
            </g>
            <g class="cls-10">
              <path class="cls-19" d="M48.33,22.52c-2.17,.44-1.47-4.47-3.49-8.68-.93-1.94-2.01-3.42-2.63-4.52-2.33,.8,.26,2.83,2.23,6.92,2.02,4.2,1.32,9.11,3.49,8.68,1.74-.35,2.77-4.66,3.02-7.1-.49,2.17-1.38,4.45-2.62,4.7Z"/>
            </g>
            <g>
              <path class="cls-21" d="M22.16,11.99s2.8-.35,5.03,.71c2.23,1.06,4.4,.16,6.28-.38,1.88-.54,3.14-.33,3.54,0"/>
              <path class="cls-15" d="M22.16,11.99c1.26-.17,2.56-.13,3.8,.18,1.23,.33,2.32,1.02,3.63,.89,2.45,.06,5.03-1.94,7.42-.75-2.48-.99-4.9,1-7.41,1-1.32,.11-2.48-.63-3.68-.98-1.22-.31-2.49-.41-3.76-.34h0Z"/>
            </g>
            <g>
              <path class="cls-21" d="M25.36,9.83s.73-.18,2.75,.67c2.02,.85,4.25-1.13,6.81-.69"/>
              <path class="cls-15" d="M25.36,9.83c1.24-.18,2.38,.57,3.56,.76,2.02,.08,3.95-1.28,6-.77-2.1-.27-3.94,1.14-6.03,1-1.23-.2-2.26-1.02-3.53-.98h0Z"/>
            </g>
          </g>
        </g>
      </g>
    </g>
  </g>
</svg>