<?xml version="1.0" encoding="UTF-8"?>
<svg xmlns="http://www.w3.org/2000/svg" xmlns:xlink="http://www.w3.org/1999/xlink" viewBox="0 0 64 64">
  <defs>
    <style>
      .cls-1 {
        fill: url(#linear-gradient-2);
      }

      .cls-2, .cls-3 {
        fill: #fff;
      }

      .cls-4 {
        fill: #eae8f9;
      }

      .cls-5 {
        fill: #ddbcaf;
      }

      .cls-5, .cls-6, .cls-7 {
        mix-blend-mode: overlay;
      }

      .cls-5, .cls-3 {
        opacity: .5;
      }

      .cls-6 {
        fill: #8c8587;
      }

      .cls-8 {
        isolation: isolate;
      }

      .cls-9 {
        fill: #cac9e2;
      }

      .cls-10 {
        fill: #2b263f;
      }

      .cls-11 {
        fill: #413d59;
      }

      .cls-12, .cls-13 {
        fill: #2b2829;
      }

      .cls-12, .cls-14 {
        mix-blend-mode: screen;
      }

      .cls-15 {
        fill: #dcc2a7;
      }

      .cls-16 {
        fill: #cca3ae;
        mix-blend-mode: multiply;
      }

      .cls-17 {
        opacity: .3;
      }

      .cls-18 {
        fill: #ff9d93;
      }

      .cls-19 {
        fill: #86d2ee;
      }

      .cls-20 {
        fill: #6b433c;
      }

      .cls-21 {
        fill: url(#linear-gradient);
      }

      .cls-7 {
        fill: #998a8e;
      }
    </style>
    <linearGradient id="linear-gradient" x1="64" y1="34.03" x2="5.45" y2="34.03" gradientUnits="userSpaceOnUse">
      <stop offset="0" stop-color="#cf965b"/>
      <stop offset=".25" stop-color="#ca9257"/>
      <stop offset=".51" stop-color="#be864c"/>
      <stop offset=".78" stop-color="#a9733a"/>
      <stop offset="1" stop-color="#925d26"/>
    </linearGradient>
    <linearGradient id="linear-gradient-2" x1="61.28" y1="31.49" x2="1.36" y2="31.49" gradientUnits="userSpaceOnUse">
      <stop offset="0" stop-color="#e8b886"/>
      <stop offset=".25" stop-color="#e3b482"/>
      <stop offset=".5" stop-color="#d7a877"/>
      <stop offset=".76" stop-color="#c29464"/>
      <stop offset="1" stop-color="#a97c4e"/>
    </linearGradient>
  </defs>
  <g class="cls-8">
    <g id="_Слой_2" data-name="Слой 2">
      <g id="_Слой_1-2" data-name="Слой 1">
        <g>
          <g>
            <path class="cls-21" d="M60.49,6.68c-1.75-1.6-4.41-2.62-7.38-2.62H14.98c-5.26,0-9.53,3.19-9.53,7.11V55.87c0,2.22,1.37,4.2,3.51,5.51,1.75,1.6,4.41,2.62,7.38,2.62H54.47c5.26,0,9.53-3.19,9.53-7.11V12.19c0-2.22-1.37-4.2-3.51-5.51Z"/>
            <path class="cls-1" d="M57.77,4.65c-.41-.37-.86-.71-1.36-1.02-1.75-1.6-4.41-2.62-7.38-2.62H10.89C5.64,1.02,1.36,4.21,1.36,8.13V52.83c0,2.22,1.37,4.2,3.51,5.51,.41,.37,.86,.71,1.36,1.02,1.75,1.6,4.41,2.62,7.38,2.62H51.74c5.26,0,9.53-3.19,9.53-7.11V10.16c0-2.22-1.37-4.2-3.51-5.51Z"/>
            <path class="cls-15" d="M47.66,0H9.53C4.28,0,0,3.19,0,7.11V51.81c0,3.92,4.28,7.11,9.53,7.11H47.66c5.26,0,9.53-3.19,9.53-7.11V7.11c0-3.92-4.28-7.11-9.53-7.11Z"/>
          </g>
          <path class="cls-7" d="M5.89,14.33c-.01-2.85,.17-6.06,2.96-8,2.12-1.47,5.21-1.81,8.09-1.99,6.68-.42,13.42-.36,20.09,.18,3.3,.26,6.79,.71,9.28,2.36,3.69,2.45,3.93,6.61,3.9,10.29-.08,9.24-.15,18.48-.23,27.72-.02,2.2-.08,4.51-1.54,6.42-1.54,2-4.45,3.25-7.46,3.8-3.01,.55-6.15,.48-9.24,.41-5.15-.12-10.31-.24-15.43-.71-2.79-.26-9.22-.18-10.19-2.65-.66-1.68-.07-4.15-.07-5.9,0-2.02-.02-4.03-.03-6.05-.02-4.03-.04-8.06-.06-12.1-.02-4.59-.04-9.18-.07-13.78Z"/>
          <path class="cls-7" d="M20.65,20.31c-3.25-.39-6.54-1.19-8.94-2.87-2.39-1.69-3.67-4.43-2.38-6.69,.89-1.57,2.87-2.69,5.01-3.3,2.14-.61,4.45-.77,6.74-.89,5.74-.3,11.52-.39,17.22,.17,2.22,.22,4.55,.57,6.21,1.7,2.93,1.99,2.55,5.66,.4,8.14-5.33,6.17-16.02,4.75-24.26,3.75Z"/>
          <path class="cls-12" d="M9.75,46.11c-.57-1.77-.49-3.61-.4-5.43,.37-7.55,.74-15.09,1.11-22.64,.14-2.75,.39-5.74,2.81-7.82,2.2-1.89,5.7-2.58,9.03-2.93,4.04-.42,8.14-.47,12.2-.14,3.7,.3,7.69,1.06,9.9,3.3,1.87,1.9,2.03,4.41,2.12,6.77,.33,9.07,.66,18.2-1.13,27.18-.4,1.99-1,4.12-2.97,5.5-2.25,1.58-5.63,1.75-8.72,1.75-5.06,0-10.12-.25-15.13-.73-4.65-.45-7.58-.99-8.81-4.8Z"/>
          <path class="cls-16" d="M47.66,1.02h-1.63c4.51,0,8.17,2.73,8.17,6.1V51.81c0,3.37-3.66,6.1-8.17,6.1h1.63c4.51,0,8.17-2.73,8.17-6.1V7.11c0-3.37-3.66-6.1-8.17-6.1Z"/>
          <path class="cls-5" d="M44.83,56.21c2.15-.26,4.29-1.07,5.39-2.47,.86-1.09,1-2.4,1.05-3.66,.05-1.24,.02-2.47-.08-3.71-.07-.81-.31-1.78-1.32-2.08-.75-.23-1.65,.04-2.16,.52-.51,.47-.69,1.1-.74,1.7-.11,1.25,.25,2.52-.08,3.75-.39,1.42-1.68,2.63-3.23,3.51-1.13,.64-4.12,1.25-4.5,2.21,1.43,.58,4.04,.42,5.67,.23Z"/>
          <path class="cls-6" d="M3.88,2.71c-1.55,1.11-2.52,2.67-2.52,4.4v26.08c12.35-3.44,32.73-4.39,54.47,14.33v-14.97C26.86,28.05,11.39,13.17,3.88,2.71Z"/>
          <path class="cls-3" d="M3.58,9.23c.26-1.79,1.27-3.6,3.21-4.67,2.66-1.47,6.31-1.25,9.61-.96,1.02,.09,2.32,.39,2.36,1.15,.03,.67-.97,1.08-1.84,1.21-2.2,.34-4.63-.04-6.59,.77-1.42,.58-2.33,1.69-2.8,2.85s-.56,2.38-.73,3.58c-.07,.46-.15,.93-.44,1.34-1.08,1.49-2.05,.48-2.43-.37-.6-1.35-.53-3.5-.32-4.91Z"/>
          <g class="cls-14">
            <path class="cls-13" d="M36.44,9.78c.84,1.55-.18,3.32-2.26,3.94-2.08,.62-4.45-.13-5.29-1.69-.84-1.55,.18-3.32,2.26-3.94,2.08-.62,4.45,.13,5.29,1.69Z"/>
            <path class="cls-13" d="M43.37,11.71c.45,.84-.09,1.78-1.21,2.12-1.12,.34-2.39-.07-2.84-.91-.45-.84,.09-1.78,1.21-2.12,1.12-.34,2.39,.07,2.84,.91Z"/>
            <path class="cls-13" d="M40.11,16.13c.37,.7-.08,1.49-1.01,1.77-.93,.28-1.99-.06-2.37-.76-.37-.7,.08-1.49,1.01-1.77,.93-.28,1.99,.06,2.37,.76Z"/>
          </g>
          <g class="cls-14">
            <path class="cls-13" d="M23.64,45.38c.8,1.49-.17,3.17-2.16,3.77-1.99,.6-4.25-.13-5.05-1.61-.8-1.49,.17-3.17,2.16-3.77,1.99-.6,4.25,.13,5.05,1.61Z"/>
            <path class="cls-13" d="M20.79,40.39c.22,.41-.05,.87-.59,1.03-.54,.16-1.16-.03-1.38-.44-.22-.41,.05-.87,.59-1.03,.54-.16,1.16,.03,1.38,.44Z"/>
            <path class="cls-13" d="M15.3,41.5c.45,.84-.09,1.78-1.21,2.12-1.12,.34-2.39-.07-2.84-.91-.45-.84,.09-1.78,1.21-2.12,1.12-.34,2.39,.07,2.84,.91Z"/>
          </g>
          <g class="cls-17">
            <path class="cls-16" d="M51.02,35.95c.79,1.47-.17,3.15-2.14,3.74-1.98,.59-4.22-.12-5.01-1.6-.79-1.47,.17-3.15,2.14-3.74,1.98-.59,4.22,.12,5.01,1.6Z"/>
            <path class="cls-16" d="M53.92,29.6c.58,1.08-.12,2.3-1.57,2.74-1.45,.43-3.09-.09-3.67-1.17-.58-1.08,.12-2.3,1.57-2.74,1.45-.43,3.09,.09,3.67,1.17Z"/>
            <path class="cls-16" d="M45.56,30.99c.37,.7-.08,1.49-1.01,1.77-.93,.28-1.99-.06-2.37-.75-.37-.7,.08-1.49,1.01-1.77,.93-.28,1.99,.06,2.37,.76Z"/>
            <path class="cls-16" d="M10.65,25.55c.41,.75-.09,1.61-1.1,1.92-1.01,.3-2.16-.06-2.57-.82-.41-.75,.09-1.61,1.1-1.92,1.01-.3,2.16,.06,2.57,.82Z"/>
            <path class="cls-16" d="M11.29,21.09c.21,.39-.04,.84-.57,1-.53,.16-1.13-.03-1.34-.43-.21-.39,.04-.84,.57-1,.53-.16,1.13,.03,1.34,.43Z"/>
            <path class="cls-16" d="M6.59,20.15c.34,.63-.07,1.34-.91,1.59-.84,.25-1.79-.05-2.13-.68-.34-.63,.07-1.34,.91-1.59s1.79,.05,2.13,.68Z"/>
          </g>
        </g>
        <g id="_Слой_6" data-name="Слой 6">
          <g>
            <path class="cls-19" d="M43.43,22.81c.18,.79,.44,1.57,.74,2.33,.31,.76,.72,1.49,1.18,2.17,.41,.59,.91,1.12,1.46,1.59-.07,.11-.15,.22-.23,.32-.15,.18-.32,.34-.5,.48-.18,.14-.38,.24-.59,.31-.21,.08-.43,.1-.65,.11h-.03s0,0,0,0c-.21,.01-.38,.2-.36,.41,.02,.24,.05,.45,.1,.68,.05,.22,.12,.44,.21,.66,.1,.21,.21,.44,.39,.64,.07,.08,.15,.14,.23,.21-.35,.52-.77,1.03-1.2,1.49-.27,.28-.55,.56-.85,.82-.15,.13-.29,.27-.44,.39l-.47,.36c-1.26,.97-2.65,1.74-4.12,2.35l-1.12,.42c-.18,.08-.37,.14-.56,.18l-.58,.16c-.76,.24-1.55,.37-2.33,.53-.39,.09-.79,.12-1.18,.17l-1.19,.14c-.8,.05-1.6,.07-2.4,.1-.8-.03-1.6-.05-2.4-.1l-1.19-.14c-.4-.05-.8-.08-1.18-.17-.78-.15-1.57-.29-2.33-.53l-.58-.16c-.19-.05-.38-.11-.57-.18l-1.12-.42c-1.46-.62-2.86-1.39-4.12-2.35l-.47-.36c-.15-.13-.29-.26-.45-.39-.3-.25-.58-.54-.85-.82-.44-.47-.86-.97-1.21-1.49,.09-.06,.17-.13,.24-.21,.18-.2,.3-.42,.39-.64,.09-.22,.16-.44,.21-.66,.05-.22,.08-.43,.1-.68h0c.01-.22-.15-.4-.37-.41h-.03c-.22-.02-.44-.03-.65-.11-.21-.07-.41-.17-.59-.31-.18-.14-.35-.3-.5-.48-.08-.1-.16-.21-.23-.32,.55-.47,1.05-1,1.47-1.59,.47-.69,.87-1.41,1.18-2.17,.31-.76,.56-1.54,.74-2.33,.17-.79,.29-1.6,.27-2.42,0-.04-.02-.07-.06-.08-.04-.01-.09,.02-.1,.06h0c-.15,.58-.3,1.15-.47,1.71-1.22-2.1-4.9-8.99-3.51-13.33,.15-.48,.49-.85,.95-1.07,.46-.21,.99-.21,1.45,0,1.82,.79,5.4,2.77,8.84,7.16,.12,.15,.33,.19,.5,.1,.02,0,1.86-.95,6.61-.95s6.6,.94,6.61,.95c.17,.09,.39,.05,.5-.1,3.44-4.39,7.02-6.37,8.84-7.16,.47-.2,.99-.2,1.45,0,.46,.21,.79,.59,.95,1.07,1.38,4.34-2.29,11.23-3.52,13.33-.16-.56-.31-1.13-.46-1.71h0s-.04-.07-.08-.07c-.05,0-.08,.04-.09,.08-.02,.82,.1,1.63,.27,2.42Z"/>
            <path class="cls-4" d="M28.94,40.09c13.38,0,16.88-7.55,16.88-7.55,0,0-1.74-.98-7.32-2.1-5.13-1.03-3.96-6.25-9.56-6.25s-4.43,5.22-9.56,6.25c-5.58,1.12-7.32,2.1-7.32,2.1,0,0,3.5,7.55,16.88,7.55Z"/>
            <ellipse class="cls-10" cx="22.29" cy="23.32" rx="2.54" ry="2.93"/>
            <path class="cls-20" d="M22.29,24.29c-.86,0-1.58-.65-1.82-1.55-.06,.21-.09,.43-.09,.67,0,1.22,.86,2.21,1.91,2.21s1.91-.99,1.91-2.21c0-.23-.03-.46-.09-.67-.24,.9-.97,1.55-1.82,1.55Z"/>
            <ellipse class="cls-2" cx="23.21" cy="22.93" rx="1.23" ry=".91"/>
            <path class="cls-2" d="M21.71,24.67c0,.27-.22,.49-.49,.49s-.49-.22-.49-.49,.22-.49,.49-.49,.49,.22,.49,.49Z"/>
            <ellipse class="cls-10" cx="35.6" cy="23.32" rx="2.54" ry="2.93"/>
            <path class="cls-20" d="M35.6,24.29c-.86,0-1.58-.65-1.82-1.55-.06,.21-.09,.43-.09,.67,0,1.22,.86,2.21,1.91,2.21s1.91-.99,1.91-2.21c0-.23-.03-.46-.09-.67-.24,.9-.97,1.55-1.82,1.55Z"/>
            <ellipse class="cls-2" cx="36.52" cy="22.93" rx="1.23" ry=".91"/>
            <path class="cls-2" d="M35.02,24.67c0,.27-.22,.49-.49,.49s-.49-.22-.49-.49,.22-.49,.49-.49,.49,.22,.49,.49Z"/>
            <path class="cls-10" d="M28.94,28.82c-2.33,0-3.05,.88-3.27,1.51-.13,.38-.03,.79,.24,1.09,.67,.74,1.68,1.08,2.35,1.24,.45,.1,.91,.1,1.36,0,.67-.15,1.68-.5,2.35-1.24,.27-.3,.37-.71,.24-1.09-.22-.64-.94-1.51-3.27-1.51Z"/>
            <path class="cls-10" d="M26.98,28.41c.64-.11,1.3-.12,1.96-.13,.66,0,1.32,.02,1.96,.13,.32,.05,.64,.12,.94,.23,.31,.11,.61,.25,.86,.49-.11-.35-.39-.62-.68-.83-.3-.21-.63-.38-.97-.49-.69-.24-1.41-.32-2.11-.32-.71,0-1.43,.08-2.11,.32-.34,.11-.68,.28-.97,.49-.29,.22-.57,.49-.68,.83,.25-.24,.55-.38,.86-.49,.31-.11,.62-.18,.94-.23Z"/>
            <path class="cls-9" d="M28.94,40.09c12.68,0,16.45-7.37,16.45-7.37,0,0-3.29,5.44-16.45,5.44s-16.45-5.44-16.45-5.44c0,0,3.47,7.37,16.45,7.37Z"/>
            <path class="cls-18" d="M14.99,16.94s-.3,1.53-1.11,.68-6.05-12.01,.55-7.07c0,0,2.68,2.51,3.02,3.75l-1.36,.6s.19,.62,.77,1.02l-1.87,1.02Z"/>
            <path class="cls-18" d="M42.97,16.94s.3,1.53,1.11,.68c.81-.85,6.05-12.01-.55-7.07,0,0-2.68,2.51-3.02,3.75l1.36,.6s-.19,.62-.77,1.02l1.87,1.02Z"/>
            <path class="cls-10" d="M18.25,17.59h-.02c-.18,.02-.36,.05-.54,.06-.18,0-.36,.02-.53,0-.36-.02-.69-.12-1.01-.25-.31-.13-.58-.32-.82-.55,.25,0,.5-.02,.73-.06,.6-.12,1.14-.33,1.67-.6,.06-.03,.1-.09,.11-.17,0-.11-.08-.2-.19-.21h-.02s0,0,0,0c-.2-.02-.4-.04-.58-.11-.18-.06-.34-.16-.48-.27-.07-.06-.14-.13-.2-.2,.09,0,.18,0,.27,0,.19,0,.39-.03,.57-.07,.19-.04,.36-.09,.56-.17h0s.01,0,.01,0c.18-.07,.26-.28,.19-.46-.33-.79-.74-1.54-1.26-2.22-.51-.68-1.12-1.28-1.8-1.78-.68-.5-1.43-.91-2.22-1.19-.2-.06-.41-.12-.62-.16-.11-.01-.21-.04-.35-.03-.13,0-.27,.04-.38,.13-.23,.18-.29,.44-.31,.66-.02,.23,0,.44,.04,.66,.01,.07,.08,.13,.16,.11,.08-.01,.13-.08,.12-.16h0c-.03-.19-.03-.4,0-.58,.02-.18,.09-.35,.2-.42,.11-.08,.27-.05,.46-.01,.19,.04,.37,.11,.56,.18,.74,.3,1.43,.72,2.05,1.22,.62,.5,1.17,1.09,1.61,1.74,.37,.54,.68,1.12,.92,1.73-.02,0-.05,.01-.07,.01-.15,.02-.3,.03-.45,.03-.29,0-.58-.07-.82-.18h0s-.05-.02-.05-.02c-.09-.04-.2-.04-.3,0-.21,.08-.31,.31-.24,.52,.11,.29,.24,.48,.4,.69,.16,.2,.36,.37,.59,.5,.13,.08,.27,.13,.42,.18-.22,.05-.44,.09-.66,.12-.26,.03-.53,.03-.76-.03-.23-.05-.43-.15-.57-.29h0s-.06-.05-.06-.05c-.1-.07-.25-.09-.37-.02-.17,.09-.23,.3-.14,.47,.22,.41,.48,.71,.8,.98,.32,.27,.68,.48,1.07,.62,.39,.13,.79,.21,1.19,.2,.2,.01,.4-.02,.6-.03,.2-.03,.39-.07,.58-.1,.1-.02,.17-.11,.16-.22-.01-.11-.11-.19-.22-.18Z"/>
            <path class="cls-10" d="M43.82,16.32c.06-.11,.06-.26-.02-.37-.11-.16-.33-.19-.49-.08l-.06,.05h0c-.14,.14-.33,.24-.57,.29-.23,.05-.49,.06-.76,.03-.22-.02-.44-.06-.66-.12,.14-.05,.29-.1,.42-.18,.22-.13,.42-.3,.59-.5,.17-.21,.29-.4,.4-.69,.03-.09,.04-.2,0-.3-.09-.21-.32-.31-.53-.22l-.05,.02h0c-.25,.11-.53,.18-.82,.18-.15,0-.3,0-.45-.03-.02,0-.05,0-.07-.01,.25-.61,.55-1.19,.92-1.73,.45-.65,1-1.24,1.61-1.74,.62-.5,1.31-.92,2.05-1.22,.19-.07,.37-.13,.56-.18,.19-.04,.35-.06,.46,.01,.11,.07,.18,.24,.2,.42,.03,.18,.02,.38,0,.57h0c-.01,.08,.04,.15,.11,.17,.08,.01,.15-.04,.16-.11,.04-.22,.06-.43,.04-.66-.02-.22-.08-.48-.31-.66-.11-.08-.25-.13-.38-.13-.13,0-.23,.02-.35,.03-.21,.04-.42,.1-.62,.16-.8,.28-1.54,.69-2.22,1.19-.68,.5-1.29,1.1-1.8,1.78-.51,.68-.93,1.43-1.26,2.22-.07,.18,.01,.38,.19,.46h.01s0,0,0,0c.2,.08,.37,.13,.56,.17,.19,.04,.38,.06,.57,.07,.09,0,.18,0,.27,0-.06,.07-.12,.14-.2,.2-.14,.12-.3,.22-.48,.27-.18,.07-.38,.09-.58,.11h0s-.02,0-.02,0c-.07,0-.13,.04-.17,.11-.05,.1-.01,.22,.09,.27,.53,.27,1.07,.49,1.67,.6,.23,.05,.48,.07,.73,.06-.24,.23-.51,.42-.82,.55-.32,.13-.66,.23-1.01,.25-.18,.03-.36,0-.53,0-.18-.01-.36-.04-.54-.06h-.03c-.1-.01-.2,.06-.21,.16-.02,.11,.05,.21,.16,.23,.19,.03,.38,.08,.58,.1,.2,0,.39,.05,.6,.03,.4,0,.81-.08,1.19-.2,.39-.13,.75-.35,1.07-.62,.32-.28,.58-.57,.8-.98Z"/>
            <ellipse class="cls-11" cx="28.94" cy="30.01" rx="2.13" ry=".6"/>
            <path class="cls-10" d="M33.37,33.74h-.01c-.34,.28-.66,.53-.99,.73-.33,.2-.68,.33-1.04,.35-.36,.02-.73-.04-1.09-.17-.18-.06-.35-.16-.54-.23-.17-.1-.34-.21-.52-.3l-.04-.02s-.03,0-.05-.02c-.02,0-.03-.01-.05-.01-.03,0-.06,0-.09,0-.02,0-.04,0-.06,0-.02,0-.05,.01-.07,.02-.02,0-.04,0-.06,.02l-.04,.02c-.18,.09-.35,.2-.52,.3-.18,.07-.36,.17-.54,.23-.36,.13-.73,.19-1.09,.17-.36-.02-.71-.15-1.04-.35-.33-.2-.65-.45-.99-.72h-.01s-.06-.04-.09-.03c-.06,.01-.1,.07-.08,.13,.1,.48,.39,.88,.76,1.19,.38,.3,.85,.53,1.36,.59,.5,.06,1.02,0,1.47-.18,.23-.08,.44-.2,.65-.3,.12-.08,.23-.16,.35-.24,.12,.08,.23,.16,.35,.24,.21,.1,.42,.23,.65,.3,.46,.17,.97,.24,1.47,.18,.51-.06,.98-.29,1.36-.59,.37-.31,.66-.72,.76-1.19,0-.03,0-.06-.02-.09-.04-.05-.11-.06-.15-.02Z"/>
            <path class="cls-19" d="M13.9,35.51c-.25,.24-.68,.73-.98,1.51-.97-.35-3.58-1.54-3.78-4.31,.61,.21,1.65,.48,2.69,.44,.6,.89,1.3,1.66,2.07,2.36Z"/>
            <path class="cls-19" d="M13.88,41.63c.07-.11,.08-.24,.04-.35-.6-1.6-.58-2.79-.35-3.63,0,0,0-.01,0-.02,0,0,0-.02,0-.02,.25-.92,.75-1.41,.93-1.56,.15,.13,.31,.25,.47,.38,1.32,1.01,2.78,1.82,4.3,2.46l1.16,.43c.19,.08,.39,.14,.59,.19l.6,.17c.79,.25,1.6,.39,2.41,.55,.41,.1,.81,.13,1.22,.17l1.22,.14c.82,.05,1.64,.07,2.46,.1,.82-.03,1.64-.05,2.46-.1l1.22-.14c.41-.05,.82-.08,1.22-.17,.81-.16,1.62-.29,2.41-.55l.6-.17c.2-.05,.4-.12,.59-.19l1.16-.43c.79-.33,1.57-.72,2.32-1.14,.33,.99,4.01,12.53-1.66,16.06-1.26,.78-3.17,1.35-4.41,.77-.71-.34-1.16-.77-1.33-1.29,0-.02-.01-.05-.02-.07,.05,.04,.11,.07,.17,.1,.25,.13,.54,.17,.79,.11,.13-.01,.24-.07,.36-.11,.11-.05,.21-.11,.31-.17,.08-.04,.12-.14,.09-.22-.03-.1-.14-.16-.23-.12h-.03c-.1,.04-.19,.08-.28,.1-.09,0-.18,.04-.27,.03-.17,.01-.32-.04-.44-.14-.12-.09-.21-.23-.29-.39-.06-.12-.1-.27-.12-.4,.08-.25,.19-.52,.33-.8,.02-.02,.02-.05,.02-.08,.15-.02,.3-.04,.45-.07,.9-.14,1.78-.39,2.64-.69,.1-.03,.16-.14,.14-.24-.02-.12-.14-.19-.25-.17h0c-.87,.17-1.73,.33-2.61,.41-.87,.1-1.75,.14-2.63,.15-.88,0-1.76-.04-2.63-.12-.76-.08-1.52-.18-2.26-.32-.05-.44-.16-.84-.29-1.25-.39-1.13-.97-2.16-1.74-3.04-.05-.06-.14-.08-.21-.05-.1,.04-.14,.15-.1,.25h0c.43,1.05,.87,2.08,1.18,3.12,.08,.26,.14,.52,.19,.78,.03,.13,.05,.26,.06,.39,.02,.13,.02,.25,.02,.36,0,.19-.04,.39-.11,.56-.16-.25-.35-.47-.55-.67-.32-.31-.66-.57-1.03-.81-.06-.04-.14-.03-.19,.02-.06,.06-.06,.16,0,.22h0c.29,.29,.57,.6,.8,.93,.23,.33,.41,.69,.45,1,0,.02,0,.03,0,.04-.31,.27-.72,.47-1.16,.54-.1,.02-.21,.03-.32,.04-.64-.36-1.23-.95-1.74-1.55h0s-.1-.06-.15-.03c-.06,.03-.08,.1-.05,.16,.21,.41,.46,.79,.74,1.17,.05,.06,.1,.12,.15,.19-.05,0-.1-.02-.14-.02-.51-.12-1-.33-1.47-.58-.46-.27-.91-.57-1.31-.94-1.63-1.44-2.71-3.47-3.44-5.57-.34-1.07-.68-2.15-.76-3.24-.04-.55-.02-1.1,.07-1.65,.09-.53,.25-1.09,.52-1.53v-.02c.06-.08,.04-.17-.04-.22-.08-.05-.18-.03-.23,.05-.67,1.03-.85,2.23-.83,3.4,0,.59,.1,1.17,.21,1.74,.11,.56,.26,1.12,.43,1.68,.15,.48,.33,.96,.51,1.43-1.16,.62-2.21,.83-2.89,.59,0-.12,.02-.27,.05-.4,.04-.19,.1-.37,.19-.55,.08-.18,.18-.36,.31-.52,.12-.17,.26-.32,.41-.47h0s.05-.11,.02-.16c-.04-.06-.11-.08-.17-.04-.19,.12-.37,.25-.54,.4-.17,.15-.33,.32-.47,.5-.14,.19-.26,.39-.37,.61-.02,.05-.04,.09-.06,.14-.11-.15-.21-.33-.28-.54-.47-1.43,.88-4.01,1.44-4.88Z"/>
            <path class="cls-4" d="M18.66,49.71s2.25-1.55,4.36-1.75,2.16-.91,2.16-.91c0,0,1.01-1.14-.83-3.07s-5.98-4.01-8.14-6.72c0,0,6.52,3.24,13.29,2.82,6.77-.43,11.87-3.07,11.87-3.07,0,0-1.19,3.28-3.24,6.34s-.4,8.17,.68,8.8c1.08,.62,.11,2.24-1.31,2.62-1.42,.39-3.12,0-3.12,0l-1.14-1.2v-1.99c0-.23,.57-.85,.57-.85,0,0-5.45,.17-7.38-.51,0,0,0,2.73-2.61,2.67-2.62-.06-5.15-3.19-5.15-3.19Z"/>
            <path class="cls-4" d="M13.29,42.68s.01-1.08,2.17,0l1.19,4.43s-3.23,1.82-4.17,.4-.35-3.93,.8-4.83Z"/>
            <path class="cls-4" d="M9.14,32.71s1.38,2.89,4.76,2.8l-.88,2.18s-4.59-1.6-3.88-4.97Z"/>
            <path class="cls-10" d="M12.93,37.02c.29-.78,.73-1.27,.98-1.51-.77-.7-1.47-1.47-2.07-2.36-1.05,.04-2.08-.23-2.69-.44,.21,2.77,2.81,3.96,3.78,4.31Zm.78-2.81c.27,.28,.55,.56,.85,.82,.15,.13,.29,.27,.45,.39l.47,.36c1.26,.97,2.65,1.74,4.12,2.35l1.12,.42c.19,.08,.37,.14,.57,.18l.58,.16c.76,.24,1.55,.37,2.33,.53,.39,.09,.79,.12,1.18,.17l1.19,.14c.8,.05,1.6,.07,2.4,.1,.8-.03,1.6-.05,2.4-.1l1.19-.14c.4-.05,.79-.08,1.18-.17,.78-.15,1.57-.29,2.33-.53l.58-.16c.19-.05,.38-.11,.56-.18l1.12-.42c1.46-.62,2.86-1.39,4.12-2.35l.47-.36c.15-.13,.29-.26,.44-.39,.3-.25,.58-.54,.85-.82,.44-.47,.86-.97,1.2-1.49-.08-.06-.17-.13-.23-.21-.18-.2-.3-.42-.39-.64-.09-.22-.16-.44-.21-.66-.05-.22-.08-.43-.1-.68-.02-.21,.15-.4,.36-.41h.04c.22-.02,.44-.03,.65-.11,.21-.07,.41-.17,.59-.31,.18-.14,.35-.3,.5-.48,.08-.1,.16-.21,.23-.32-.55-.47-1.05-1-1.46-1.59-.47-.69-.87-1.41-1.18-2.17-.31-.76-.56-1.54-.74-2.33-.18-.79-.29-1.6-.27-2.42,0-.05,.04-.08,.09-.08,.04,0,.07,.03,.08,.06h0c.15,.58,.3,1.15,.46,1.71,1.22-2.1,4.9-8.99,3.52-13.33-.15-.48-.49-.85-.95-1.07-.46-.21-.99-.21-1.45,0-1.82,.79-5.4,2.77-8.84,7.16-.12,.15-.33,.19-.5,.1-.02,0-1.86-.95-6.61-.95s-6.6,.94-6.61,.95c-.17,.09-.38,.05-.5-.1-3.44-4.39-7.02-6.37-8.84-7.16-.47-.2-.99-.2-1.45,0-.46,.21-.79,.59-.95,1.07-1.39,4.35,2.29,11.23,3.51,13.33,.17-.56,.32-1.13,.47-1.71h0s.06-.08,.1-.06c.04,0,.06,.04,.06,.08,.02,.82-.1,1.63-.27,2.42-.18,.79-.44,1.57-.74,2.33-.31,.76-.72,1.49-1.18,2.17-.41,.59-.91,1.12-1.47,1.59,.07,.11,.15,.22,.23,.32,.15,.18,.32,.34,.5,.48,.18,.14,.38,.24,.59,.31,.21,.08,.43,.1,.65,.11h.03c.21,.02,.38,.2,.37,.41h0c-.02,.25-.05,.46-.1,.68-.05,.22-.12,.44-.21,.66-.1,.21-.21,.44-.39,.64-.07,.08-.15,.14-.24,.21,.35,.52,.77,1.03,1.21,1.49Zm2.85,13.47c-.64,.34-1.62,.76-2.58,.76-.33,0-.66-.05-.97-.17-.64-.25-1.08-.76-1.32-1.5-.6-1.84,.99-4.67,1.42-5.39-.53-1.49-.57-2.67-.39-3.58-1.15-.41-4.53-1.93-4.38-5.67,0-.13,.08-.25,.19-.32,.12-.07,.25-.08,.37-.03,.02,0,1.33,.58,2.68,.59,.03-.05,.07-.1,.12-.13,.03-.02,.06-.03,.09-.04h.04c.12-.04,.22-.11,.32-.21,.1-.1,.18-.25,.25-.41,.07-.16,.12-.34,.16-.52,.01-.05,.02-.11,.03-.16-.15-.02-.31-.06-.46-.12-.29-.1-.57-.24-.81-.42-.24-.18-.45-.39-.64-.61-.19-.23-.34-.46-.48-.75-.08-.17-.03-.36,.11-.47l.02-.02c.58-.48,1.12-1.03,1.58-1.64,.45-.62,.84-1.29,1.18-2,.27-.57,.5-1.16,.7-1.76-.45-.71-5.67-9.21-3.95-14.59,.22-.69,.72-1.25,1.38-1.55,.66-.3,1.43-.31,2.1-.02,2.27,.99,5.65,3.02,8.96,7.16,.72-.28,2.75-.91,6.68-.91s5.96,.62,6.68,.91c3.31-4.13,6.69-6.17,8.96-7.16,.67-.29,1.43-.28,2.1,.02,.66,.3,1.16,.86,1.38,1.55,1.71,5.38-3.51,13.87-3.95,14.59,.2,.6,.43,1.19,.7,1.76,.34,.7,.73,1.38,1.18,2,.46,.62,.99,1.16,1.58,1.64l.02,.02c.09,.08,.14,.19,.14,.3,0,.06-.01,.12-.04,.17-.14,.29-.29,.52-.48,.75-.18,.22-.4,.43-.64,.61-.24,.18-.51,.32-.8,.42-.15,.06-.3,.09-.46,.12,0,.06,.02,.11,.03,.16,.04,.18,.09,.36,.16,.52,.07,.16,.15,.31,.25,.41,.1,.11,.2,.17,.32,.21h.04c.2,.07,.31,.28,.25,.48,0,.03-.02,.06-.04,.09-.91,1.48-2.09,2.64-3.41,3.66-.42,.32-.86,.62-1.3,.9,.02,.03,.04,.05,.05,.08,.19,.53,4.47,13.06-1.96,17.06-1.03,.64-2.39,1.13-3.63,1.13-.55,0-1.07-.1-1.54-.31-.92-.43-1.51-1.03-1.75-1.76-.16-.47-.16-1-.02-1.56,0-.08,.02-.16,.06-.22,.05-.16,.11-.33,.18-.49-.45,.04-.89,.07-1.34,.08-.91,.02-1.82,0-2.72-.09-.73-.07-1.44-.17-2.16-.33-.07,.59-.35,1.17-.79,1.58-.49,.47-1.12,.75-1.74,.86-.63,.11-1.27,.06-1.87-.07-.6-.14-1.16-.39-1.69-.68-.51-.31-1.01-.65-1.45-1.07-.89-.8-1.57-1.78-2.15-2.79-.19-.34-.36-.69-.52-1.05Zm-2.05-11.65c-.18,.15-.68,.64-.93,1.56,0,0,0,.02,0,.02,0,0,0,.01,0,.02-.23,.84-.25,2.03,.35,3.63,.04,.12,.03,.25-.04,.35-.56,.87-1.91,3.45-1.44,4.88,.07,.22,.17,.39,.28,.54,.02-.05,.04-.09,.06-.14,.1-.22,.22-.42,.37-.61,.14-.18,.29-.36,.47-.5,.17-.15,.35-.28,.54-.4,.06-.04,.14-.02,.17,.04,.04,.05,.03,.12-.02,.16h0c-.15,.15-.29,.31-.41,.47-.12,.16-.22,.34-.31,.52-.08,.18-.15,.37-.19,.55-.03,.13-.05,.28-.05,.4,.68,.25,1.73,.03,2.89-.59-.19-.47-.36-.95-.51-1.43-.17-.55-.32-1.11-.43-1.68-.12-.57-.21-1.15-.21-1.74-.02-1.17,.16-2.37,.83-3.4,.05-.08,.15-.1,.23-.05,.08,.05,.1,.15,.05,.22v.02c-.27,.45-.44,1-.53,1.53-.09,.54-.11,1.1-.07,1.65,.08,1.1,.41,2.18,.76,3.24,.73,2.1,1.81,4.13,3.44,5.57,.4,.37,.85,.67,1.31,.94,.47,.25,.96,.46,1.47,.58,.05,0,.1,.02,.14,.02-.05-.06-.1-.12-.15-.19-.28-.38-.52-.76-.74-1.17-.03-.06,0-.13,.05-.16,.05-.03,.12-.02,.15,.03h0c.5,.61,1.1,1.19,1.74,1.55,.11,0,.21-.02,.32-.04,.44-.08,.85-.27,1.16-.54,0-.01,0-.03,0-.04-.04-.31-.22-.68-.45-1-.23-.33-.5-.64-.8-.93h0c-.06-.06-.06-.16,0-.22,.05-.05,.14-.06,.19-.02,.37,.24,.71,.5,1.03,.81,.2,.2,.39,.42,.55,.67,.07-.18,.1-.37,.11-.56,0-.11,0-.23-.02-.36-.01-.13-.03-.26-.06-.39-.05-.26-.11-.52-.19-.78-.31-1.04-.75-2.07-1.18-3.11h0c-.04-.11,0-.22,.1-.26,.08-.03,.16,0,.21,.05,.78,.88,1.36,1.91,1.74,3.04,.13,.41,.23,.81,.29,1.25,.74,.14,1.5,.24,2.26,.32,.87,.08,1.75,.13,2.63,.12,.88,0,1.76-.04,2.63-.15,.88-.08,1.74-.25,2.61-.41h0c.12-.02,.23,.05,.25,.17,.02,.1-.04,.21-.14,.24-.86,.3-1.74,.54-2.64,.69-.15,.03-.3,.05-.45,.07,0,.02,0,.05-.02,.08-.15,.28-.26,.55-.33,.8,.02,.13,.07,.28,.12,.4,.08,.16,.17,.29,.29,.39,.12,.09,.27,.15,.44,.14,.08,.01,.17-.02,.27-.03,.09-.03,.18-.06,.28-.1h.03c.1-.04,.2,.01,.23,.11,.03,.08-.01,.18-.09,.22-.1,.06-.21,.12-.31,.17-.12,.04-.23,.1-.36,.11-.25,.06-.54,.02-.79-.11-.06-.03-.12-.06-.17-.1,0,.02,.01,.05,.02,.07,.17,.52,.62,.95,1.33,1.29,1.24,.58,3.16,.01,4.41-.77,5.67-3.53,1.99-15.07,1.66-16.06-.75,.43-1.52,.81-2.32,1.14l-1.16,.43c-.19,.08-.39,.14-.59,.19l-.6,.17c-.79,.25-1.6,.39-2.41,.55-.4,.1-.81,.13-1.22,.17l-1.22,.14c-.82,.05-1.64,.07-2.46,.1-.82-.03-1.64-.05-2.46-.1l-1.22-.14c-.41-.05-.82-.08-1.22-.17-.81-.16-1.62-.29-2.41-.55l-.6-.17c-.2-.05-.39-.12-.59-.19l-1.16-.43c-1.52-.64-2.98-1.44-4.3-2.46-.16-.12-.32-.25-.47-.38Z"/>
          </g>
        </g>
      </g>
    </g>
  </g>
</svg>