<?xml version="1.0" encoding="UTF-8"?>
<svg xmlns="http://www.w3.org/2000/svg" xmlns:xlink="http://www.w3.org/1999/xlink" viewBox="0 0 64 64">
  <defs>
    <style>
      .cls-1, .cls-2 {
        fill: #ef763a;
      }

      .cls-3 {
        fill: url(#linear-gradient-2);
      }

      .cls-4, .cls-5, .cls-6 {
        fill: #fff;
      }

      .cls-7 {
        fill: #f45c21;
      }

      .cls-7, .cls-5, .cls-2, .cls-8, .cls-9, .cls-10 {
        stroke: #000;
        stroke-miterlimit: 10;
        stroke-width: .5px;
      }

      .cls-11 {
        fill: #8c8587;
      }

      .cls-11, .cls-12, .cls-13, .cls-14 {
        mix-blend-mode: overlay;
      }

      .cls-15 {
        isolation: isolate;
      }

      .cls-6, .cls-14 {
        opacity: .5;
      }

      .cls-16, .cls-17 {
        fill: #2b2829;
      }

      .cls-16, .cls-18 {
        mix-blend-mode: screen;
      }

      .cls-8 {
        fill: #ff9052;
      }

      .cls-19 {
        fill: #dcc2a7;
      }

      .cls-9, .cls-20 {
        fill: #753439;
      }

      .cls-21 {
        opacity: .3;
      }

      .cls-22, .cls-10 {
        fill: #f2d0c9;
      }

      .cls-12 {
        fill: #8c9399;
      }

      .cls-23 {
        mix-blend-mode: multiply;
      }

      .cls-23, .cls-14 {
        fill: #88b6e4;
      }

      .cls-13 {
        fill: #8c9499;
      }

      .cls-24 {
        fill: url(#linear-gradient);
      }
    </style>
    <linearGradient id="linear-gradient" x1="64" y1="34.03" x2="5.45" y2="34.03" gradientUnits="userSpaceOnUse">
      <stop offset="0" stop-color="#cf965b"/>
      <stop offset=".25" stop-color="#ca9257"/>
      <stop offset=".51" stop-color="#be864c"/>
      <stop offset=".78" stop-color="#a9733a"/>
      <stop offset="1" stop-color="#925d26"/>
    </linearGradient>
    <linearGradient id="linear-gradient-2" x1="61.28" y1="31.49" x2="1.36" y2="31.49" gradientUnits="userSpaceOnUse">
      <stop offset="0" stop-color="#e8b886"/>
      <stop offset=".25" stop-color="#e3b482"/>
      <stop offset=".5" stop-color="#d7a877"/>
      <stop offset=".76" stop-color="#c29464"/>
      <stop offset="1" stop-color="#a97c4e"/>
    </linearGradient>
  </defs>
  <g class="cls-15">
    <g id="_Слой_2" data-name="Слой 2">
      <g id="_Слой_1-2" data-name="Слой 1">
        <g>
          <g>
            <path class="cls-24" d="M60.49,6.68c-1.75-1.6-4.41-2.62-7.38-2.62H14.98c-5.26,0-9.53,3.19-9.53,7.11V55.87c0,2.22,1.37,4.2,3.51,5.51,1.75,1.6,4.41,2.62,7.38,2.62H54.47c5.26,0,9.53-3.19,9.53-7.11V12.19c0-2.22-1.37-4.2-3.51-5.51Z"/>
            <path class="cls-3" d="M57.77,4.65c-.41-.37-.86-.71-1.36-1.02-1.75-1.6-4.41-2.62-7.38-2.62H10.89C5.64,1.02,1.36,4.21,1.36,8.13V52.83c0,2.22,1.37,4.2,3.51,5.51,.41,.37,.86,.71,1.36,1.02,1.75,1.6,4.41,2.62,7.38,2.62H51.74c5.26,0,9.53-3.19,9.53-7.11V10.16c0-2.22-1.37-4.2-3.51-5.51Z"/>
            <path class="cls-19" d="M47.66,0H9.53C4.28,0,0,3.19,0,7.11V51.81c0,3.92,4.28,7.11,9.53,7.11H47.66c5.26,0,9.53-3.19,9.53-7.11V7.11c0-3.92-4.28-7.11-9.53-7.11Z"/>
          </g>
          <path class="cls-13" d="M5.89,14.33c-.01-2.85,.17-6.06,2.96-8,2.12-1.47,5.21-1.81,8.09-1.99,6.68-.42,13.42-.36,20.09,.18,3.3,.26,6.79,.71,9.28,2.36,3.69,2.45,3.93,6.61,3.9,10.29-.08,9.24-.15,18.48-.23,27.72-.02,2.2-.08,4.51-1.54,6.42-1.54,2-4.45,3.25-7.46,3.8-3.01,.55-6.15,.48-9.24,.41-5.15-.12-10.31-.24-15.43-.71-2.79-.26-9.22-.18-10.19-2.65-.66-1.68-.07-4.15-.07-5.9,0-2.02-.02-4.03-.03-6.05-.02-4.03-.04-8.06-.06-12.1-.02-4.59-.04-9.18-.07-13.78Z"/>
          <path class="cls-12" d="M20.65,20.31c-3.25-.39-6.54-1.19-8.94-2.87-2.39-1.69-3.67-4.43-2.38-6.69,.89-1.57,2.87-2.69,5.01-3.3,2.14-.61,4.45-.77,6.74-.89,5.74-.3,11.52-.39,17.22,.17,2.22,.22,4.55,.57,6.21,1.7,2.93,1.99,2.55,5.66,.4,8.14-5.33,6.17-16.02,4.75-24.26,3.75Z"/>
          <path class="cls-16" d="M9.75,46.11c-.57-1.77-.49-3.61-.4-5.43,.37-7.55,.74-15.09,1.11-22.64,.14-2.75,.39-5.74,2.81-7.82,2.2-1.89,5.7-2.58,9.03-2.93,4.04-.42,8.14-.47,12.2-.14,3.7,.3,7.69,1.06,9.9,3.3,1.87,1.9,2.03,4.41,2.12,6.77,.33,9.07,.66,18.2-1.13,27.18-.4,1.99-1,4.12-2.97,5.5-2.25,1.58-5.63,1.75-8.72,1.75-5.06,0-10.12-.25-15.13-.73-4.65-.45-7.58-.99-8.81-4.8Z"/>
          <path class="cls-23" d="M47.66,1.02h-1.63c4.51,0,8.17,2.73,8.17,6.1V51.81c0,3.37-3.66,6.1-8.17,6.1h1.63c4.51,0,8.17-2.73,8.17-6.1V7.11c0-3.37-3.66-6.1-8.17-6.1Z"/>
          <path class="cls-14" d="M44.83,56.21c2.15-.26,4.29-1.07,5.39-2.47,.86-1.09,1-2.4,1.05-3.66,.05-1.24,.02-2.47-.08-3.71-.07-.81-.31-1.78-1.32-2.08-.75-.23-1.65,.04-2.16,.52-.51,.47-.69,1.1-.74,1.7-.11,1.25,.25,2.52-.08,3.75-.39,1.42-1.68,2.63-3.23,3.51-1.13,.64-4.12,1.25-4.5,2.21,1.43,.58,4.04,.42,5.67,.23Z"/>
          <path class="cls-11" d="M3.88,2.71c-1.55,1.11-2.52,2.67-2.52,4.4v26.08c12.35-3.44,32.73-4.39,54.47,14.33v-14.97C26.86,28.05,11.39,13.17,3.88,2.71Z"/>
          <path class="cls-6" d="M3.58,9.23c.26-1.79,1.27-3.6,3.21-4.67,2.66-1.47,6.31-1.25,9.61-.96,1.02,.09,2.32,.39,2.36,1.15,.03,.67-.97,1.08-1.84,1.21-2.2,.34-4.63-.04-6.59,.77-1.42,.58-2.33,1.69-2.8,2.85s-.56,2.38-.73,3.58c-.07,.46-.15,.93-.44,1.34-1.08,1.49-2.05,.48-2.43-.37-.6-1.35-.53-3.5-.32-4.91Z"/>
          <g class="cls-18">
            <path class="cls-17" d="M36.44,9.78c.84,1.55-.18,3.32-2.26,3.94-2.08,.62-4.45-.13-5.29-1.69-.84-1.55,.18-3.32,2.26-3.94,2.08-.62,4.45,.13,5.29,1.69Z"/>
            <path class="cls-17" d="M43.37,11.71c.45,.84-.09,1.78-1.21,2.12-1.12,.34-2.39-.07-2.84-.91-.45-.84,.09-1.78,1.21-2.12,1.12-.34,2.39,.07,2.84,.91Z"/>
            <path class="cls-17" d="M40.11,16.13c.37,.7-.08,1.49-1.01,1.77-.93,.28-1.99-.06-2.37-.76-.37-.7,.08-1.49,1.01-1.77,.93-.28,1.99,.06,2.37,.76Z"/>
          </g>
          <g class="cls-18">
            <path class="cls-17" d="M23.64,45.38c.8,1.49-.17,3.17-2.16,3.77-1.99,.6-4.25-.13-5.05-1.61-.8-1.49,.17-3.17,2.16-3.77,1.99-.6,4.25,.13,5.05,1.61Z"/>
            <path class="cls-17" d="M20.79,40.39c.22,.41-.05,.87-.59,1.03-.54,.16-1.16-.03-1.38-.44-.22-.41,.05-.87,.59-1.03,.54-.16,1.16,.03,1.38,.44Z"/>
            <path class="cls-17" d="M15.3,41.5c.45,.84-.09,1.78-1.21,2.12-1.12,.34-2.39-.07-2.84-.91-.45-.84,.09-1.78,1.21-2.12,1.12-.34,2.39,.07,2.84,.91Z"/>
          </g>
          <g class="cls-21">
            <ellipse class="cls-23" cx="47.45" cy="37.02" rx="3.85" ry="2.87"/>
            <path class="cls-23" d="M53.92,29.6c.58,1.08-.12,2.3-1.57,2.74-1.45,.43-3.09-.09-3.67-1.17-.58-1.08,.12-2.3,1.57-2.74,1.45-.43,3.09,.09,3.67,1.17Z"/>
            <path class="cls-23" d="M45.56,30.99c.37,.7-.08,1.49-1.01,1.77-.93,.28-1.99-.06-2.37-.75-.37-.7,.08-1.49,1.01-1.77,.93-.28,1.99,.06,2.37,.76Z"/>
            <path class="cls-23" d="M10.65,25.55c.41,.75-.09,1.61-1.1,1.92-1.01,.3-2.16-.06-2.57-.82-.41-.75,.09-1.61,1.1-1.92,1.01-.3,2.16,.06,2.57,.82Z"/>
            <path class="cls-23" d="M11.29,21.09c.21,.39-.04,.84-.57,1-.53,.16-1.13-.03-1.34-.43-.21-.39,.04-.84,.57-1,.53-.16,1.13,.03,1.34,.43Z"/>
            <path class="cls-23" d="M6.59,20.15c.34,.63-.07,1.34-.91,1.59-.84,.25-1.79-.05-2.13-.68-.34-.63,.07-1.34,.91-1.59,.84-.25,1.79,.05,2.13,.68Z"/>
          </g>
        </g>
        <g id="_Слой_6" data-name="Слой 6">
          <g>
            <g>
              <path class="cls-10" d="M14.73,40.09c-.75-.86-1.44-1.78-2.06-2.73,2,4.94,3.04,10.26,3.06,15.58,1.03,0,2.11,0,2.8,0,1.12-2.49,1.86-5.15,2.17-7.86-2.24-1.33-4.26-3.03-5.97-4.99Z"/>
              <path class="cls-5" d="M45.68,44.58c-.26,.27-.54,.53-.83,.77-1.03,.86-2.2,1.56-3.44,2.07-2.61,1.09-5.48,1.42-8.3,1.45-2.74,.03-5.52-.23-8.16-.92-.87-.23-1.73-.5-2.56-.83-.89-.35-1.76-.76-2.59-1.23-1.22-.69-2.37-1.54-3.4-2.51-2.34-2.21-4.04-5.06-4.53-8.22-.24-1.53-.18-3.09,.15-4.6,.02-.1,.04-.19,.07-.29,.02-.08,.04-.17,.06-.25,.37-1.42,.98-2.77,1.81-3.98,.68,.02,1.36-.02,2.02-.08,2.97-.3,5.89-1.05,8.64-2.2,.87-.36,1.72-.77,2.56-1.21,.11-.06,.21-.11,.32-.17,.05,.12,.1,.23,.15,.35,.12,.26,.25,.53,.38,.78,.38,.72,.82,1.41,1.3,2.07,2.16,2.98,5.2,5.41,8.04,7.83,2.92,2.49,5.86,5.35,7.45,8.74,.03,.07,.07,.14,.1,.21,.32,.72,.58,1.46,.77,2.22Z"/>
              <path class="cls-22" d="M22.38,47.12c.19-1.14,.43-3.26-.01-5.99,1.08,1.89,1.82,3.8,2.34,5.83,.08,.33,.16,.66,.24,.99-.87-.23-1.73-.5-2.56-.83Z"/>
              <path class="cls-22" d="M44.85,45.35c-1.03,.86-2.2,1.56-3.44,2.07-2.61,1.09-5.48,1.42-8.3,1.45-2.74,.03-5.52-.23-8.16-.92-.56-.15-1.11-.31-1.66-.5-1.21-.41-2.38-.93-3.49-1.56-1.22-.69-2.37-1.54-3.4-2.51,1.68,1.29,4.07,2.4,6.87,3.2,.47,.13,.96,.26,1.45,.38,6.19,1.45,13.92,1.37,20.14-1.6Z"/>
              <path class="cls-5" d="M28.47,40.21c-.74-.14-1.51-.16-2.25-.04-1.28,.2-2.48,.8-3.44,1.67,1.01,3.62,1.61,7.34,1.8,11.09,.73,0,1.77,0,2.63,0,2.2-3.55,3.43-7.7,3.51-11.87-.69-.42-1.46-.71-2.25-.86Z"/>
              <path class="cls-8" d="M49,36.91c-.48,3.06-2.43,5.9-5.18,7.34-.12-1.73-.61-3.43-1.43-4.95,1.66-.64,3.13-1.73,4.25-3.11,.43-.54,.81-1.12,1.13-1.73,.05-.09,.1-.19,.16-.28,.18-.27,.43-.49,.72-.41,.3,.09,.4,.47,.43,.78,.08,.79,.05,1.58-.07,2.36Z"/>
              <path class="cls-5" d="M11.59,52.94c.5-1.04,1.09-1.83,1.94-2.56,1.88,.32,3.65,1.21,5,2.56h-6.94Z"/>
              <path class="cls-5" d="M26.8,52.47c-1.08-1.1-2.61-1.75-4.15-1.74-.72,.58-1.31,1.35-1.65,2.21,2.21,0,6.21,0,6.21,0-.13-.16-.26-.32-.41-.47Z"/>
              <path class="cls-22" d="M29.32,25.58c-1.13,.92-2.41,1.67-3.77,2.21-2.11,.83-4.43,1.15-6.69,.92-1.95,1.73-4.68,1.76-6.72,1.31,.37-1.42,.98-2.77,1.81-3.98,.68,.02,1.36-.02,2.02-.08,2.97-.3,5.89-1.05,8.64-2.2,.87-.36,1.72-.77,2.56-1.21,.11-.06,.21-.11,.32-.17,.05,.12,.1,.23,.15,.35,.12,.26,.25,.53,.38,.78,.38,.72,.82,1.41,1.3,2.07Z"/>
              <path class="cls-5" d="M33.23,52.85h11.81c-.02-1-.64-1.86-1.37-2.54-.73-.68-1.68-1.1-2.66-1.31-1.57-.33-3.25-.13-4.7,.57-1.45,.7-2.37,1.84-3.08,3.28Z"/>
              <path class="cls-8" d="M44.81,42.15c-.96,.88-2.07,1.6-3.26,2.11-2.84,1.21-6.16,1.24-9.02,.08-4.01-1.63-6.87-5.47-7.98-9.65-.56-2.08-.72-4.23-.6-6.38,.09-1.53,.32-3.05,.67-4.55,.87-.36,2.04-.94,2.87-1.38l.15,.35c.12,.26,.25,.53,.38,.78,.38,.72,.82,1.41,1.3,2.07,2.16,2.98,5.2,5.41,8.04,7.83,2.92,2.49,5.86,5.35,7.45,8.74Z"/>
              <path class="cls-1" d="M29.32,25.58c-1.13,.92-2.41,1.67-3.77,2.21-.53,.21-1.06,.38-1.61,.52,.09-1.53,.32-3.05,.67-4.55,.87-.36,2.04-.94,2.87-1.38l.15,.35c.12,.26,.25,.53,.38,.78,.38,.72,.82,1.41,1.3,2.07Z"/>
              <path class="cls-8" d="M25.34,35.19c-.46,3.19-.42,6.46,.11,9.64,.14,.8,.44,1.75,1.24,1.94,.58,.13,1.15-.22,1.59-.62,1.17-1.06,1.96-2.54,2.17-4.11-.98-2.28-2.11-4.38-3.49-6.44-.18-.28-.38-.56-.67-.72-.29-.17-.69-.18-.92,.06-.12-.06,.08,.32-.04,.27Z"/>
              <path class="cls-8" d="M45.14,48.37c.4-.67,.64-1.43,.68-2.22,.06-1.17-.3-2.32-.81-3.37-.54-1.12-1.31-2.2-2.42-2.76-1.14-.58-2.57-.52-3.66,.13-.9,.54-1.54,1.47-1.75,2.49-1.25,1.46-1.59,3.68-.75,5.42,.95,1.97,3.31,3.14,5.44,2.7,1.37-.28,2.57-1.2,3.28-2.4Z"/>
              <path class="cls-20" d="M44.91,42.36c-1.37-.52-2.91-.62-4.33-.25-1.35,.36-2.6,1.11-3.99,1.24-2.29,.22-4.4-1.32-5.88-3.09-2.17-2.6-3.51-5.87-3.8-9.24-.22-2.55,.17-5.14,1.11-7.51,2.09,3.97,5.86,6.94,9.34,9.9,2.98,2.54,5.98,5.46,7.55,8.95Z"/>
              <path class="cls-5" d="M49,36.91c-.72-.44-1.53-.7-2.36-.72,.43-.54,.81-1.12,1.13-1.73,.05-.09,.1-.19,.16-.28,.18-.27,.43-.49,.72-.41,.3,.09,.4,.47,.43,.78,.08,.79,.05,1.58-.07,2.36Z"/>
            </g>
            <g>
              <path class="cls-2" d="M13.98,7.03c-.6,.35-1.03,.93-1.44,1.49-.95,1.3-1.9,2.61-2.55,4.09s-.95,3.15-.55,4.71c.48,1.86,1.88,3.32,3.22,4.69,.62,.63,1.45,1.31,2.28,1.01,.64-.23,.94-.95,1.15-1.59,1.11-3.36,1.83-6.86,2.12-10.39,.1-1.16,.12-2.74-.85-3.59-.84-.74-2.43-.98-3.39-.42Z"/>
              <path class="cls-8" d="M31.22,17.63c-.43,2.7-1.76,5.81-3.99,7.37l.27-.26c-.51,.38-1.07,.7-1.67,.95-2.36,.98-5.23,.86-7.49-.38-3.34-1.84-5.28-5.74-5.21-9.56,0,0,0-.02,0-.03,.06-2.83,1.15-5.67,3.17-7.66,1.42-1.41,3.3-2.36,5.27-2.66,.53-.08,1.07-.11,1.61-.09,.3,.01,.6,.04,.9,.08,1.73,.25,3.38,1.1,4.61,2.34,.77,.77,1.37,1.7,1.74,2.72,.45,1.25,.76,2.54,.89,3.85,.11,1.1,.09,2.21-.09,3.32Z"/>
              <ellipse class="cls-9" cx="15.97" cy="12.72" rx="1.59" ry=".74" transform="translate(1.28 26.89) rotate(-82.51)"/>
              <path class="cls-1" d="M31.22,17.63c-.43,2.7-1.76,5.81-3.99,7.37l.27-.26c-.51,.38-1.07,.7-1.67,.95-.67-1.86-1.07-3.82-1.16-5.8-.16-3.35,.55-6.73,2.02-9.74-.64-.21-1.51-.25-2.18-.27,.72-1.06,2.09-1.89,3.36-2.1,.28-.05,.55-.06,.82-.06,.77,.77,1.37,1.7,1.74,2.72,.45,1.25,.76,2.54,.89,3.85,.11,1.1,.09,2.21-.09,3.32Z"/>
              <path class="cls-9" d="M16.69,11.93c-.19-.01-.34-.02-.53-.04-.13-.61-.49-1.15-.95-1.44,.28,.02,.49,.09,.74,.23,.25,.14,.48,.37,.61,.67,.09,.21,.15,.35,.14,.58Z"/>
              <path class="cls-5" d="M31.71,13.64c-.13,.23-.27,.45-.4,.67-.69,1.11-1.46,2.16-2.45,3.01-1.17,1-2.71,1.68-4.21,1.65-.27,0-.55-.04-.82-.09-.26,1.63-.91,3.19-1.86,4.53-.54,.77-1.19,1.47-1.91,2.07-.45,.37-.94,.76-1.45,1.09,.34,.04,.68,.07,1.01,.1,.57,.04,1.13,.06,1.69,.05,1.53-.03,3.03-.29,4.59-.89,.81-.31,1.64-.72,2.5-1.24,1.29-.78,2.65-1.82,4.11-3.16-.27-2.6-.53-5.2-.8-7.8Z"/>
              <path class="cls-22" d="M31.22,17.63c-.36,2.27-1.22,5.17-2.82,6.96-.86,.52-1.69,.92-2.5,1.24-.62-1.81-1.15-4.08-1.24-5.94-.01-.31-.02-.62-.02-.93,1.51,.03,3.05-.64,4.21-1.65,.99-.85,1.76-1.9,2.45-3.01,.11,1.1,.09,2.21-.09,3.32Z"/>
              <path class="cls-8" d="M28.05,9.34c-2.31,4.6-2.83,10.09-1.38,15.04,.56,1.91,1.5,3.84,3.03,5.06,2.19-1.23,4.05-3.05,5.3-5.22,1.24-2.16,1.88-4.65,1.85-7.14-.77-1.91-1.61-3.79-2.54-5.64-1.16-2.32-2.54-4.68-4.66-6.13-1.62,.63-3.12,1.59-4.35,2.81-.24,.24-.48,.5-.6,.82-.12,.32-.2,.57-.2,.95,1.37-.62,3.55-.55,3.55-.55Z"/>
              <ellipse class="cls-9" cx="22.25" cy="12.56" rx="1.94" ry="1.08" transform="translate(5.87 32.18) rotate(-79.59)"/>
              <path class="cls-9" d="M23.31,11.61c-.28-.02-.51-.03-.79-.05-.19-.74-.72-1.4-1.4-1.74,.41,.03,.72,.11,1.09,.28s.7,.45,.89,.81c.13,.25,.22,.42,.2,.7Z"/>
              <path class="cls-9" d="M23.52,22.36c-.47,1.57-1.26,2.98-2.48,4.36-.9,.02-1.54-.04-2.48-.15,0,0,3.48-2.49,4.39-4.7,.23,.18,.33,.31,.56,.49Z"/>
              <path class="cls-7" d="M18.23,30.11c.24,.86,.91,1.41,1.61,1.32,.68-.08,1.5-.85,1.73-1.66,.28-1.02,0-2.18-.25-3.07-.23-.83-.42-1.55-.16-2.34l-1.61,.99c-.3,.29-.59,.64-.82,1.05-.51,.89-.84,2.49-.5,3.71Z"/>
              <path class="cls-9" d="M20.31,25.14c-.53,.63-.79,3.04-.82,3.61-.67-1.35-.03-3.25-.03-3.25l.85-.35Z"/>
              <path class="cls-5" d="M23.37,18.75s-.07-.02-.11-.04c-1.37-.48-2.43-1.65-3.07-2.95-.76-1.54-.99-3.33-.69-5.02,.12-.68,.32-1.34,.61-1.96,.59-1.28,1.54-2.39,2.69-3.21,.12-.09,.25-.17,.38-.26-.54-.02-1.08,.01-1.61,.09-1.47,1.01-2.67,2.4-3.41,4.03-.63,1.4-.95,2.98-1.93,4.16-.81,.98-1.96,1.55-3.1,2.14-.76,.4-1.52,.81-2.16,1.35-1.6,1.36-2.42,3.59-2.07,5.66,.35,2.07,1.86,3.91,3.82,4.66,1.63,.62,3.63,.75,5.13-.15,1.77-1.06,3.58-3.08,4.12-3.85,.95-1.35,1.6-2.91,1.86-4.53-.15-.03-.31-.07-.46-.12Z"/>
              <path class="cls-9" d="M10.69,19.23c.08-.69,.67-1.23,1.32-1.46s1.37-.21,2.06-.18c.38,.01,.76,.03,1.12,.16,.35,.13,.68,.4,.78,.77,.14,.54-.24,1.06-.63,1.45-.59,.58-1.93,1.79-2.84,1.65-.9-.14-1.9-1.5-1.8-2.38Z"/>
              <path class="cls-9" d="M23.91,23.1c-.39-.82-1.15-1.46-2.03-1.71,.56-.2,1.09-.14,1.53,.25,.44,.4,.64,.88,.5,1.45Z"/>
              <circle class="cls-4" cx="15.91" cy="12.16" r=".23"/>
              <circle class="cls-4" cx="21.87" cy="11.7" r=".23"/>
            </g>
          </g>
        </g>
      </g>
    </g>
  </g>
</svg>