<?xml version="1.0" encoding="UTF-8"?>
<svg xmlns="http://www.w3.org/2000/svg" xmlns:xlink="http://www.w3.org/1999/xlink" viewBox="0 0 64 64">
  <defs>
    <style>
      .cls-1 {
        fill: url(#linear-gradient-2);
      }

      .cls-2, .cls-3 {
        fill: #fff;
      }

      .cls-4, .cls-5 {
        fill: #ae66ac;
      }

      .cls-4, .cls-6 {
        mix-blend-mode: multiply;
      }

      .cls-7 {
        fill: #8c8587;
      }

      .cls-7, .cls-5, .cls-8 {
        mix-blend-mode: overlay;
      }

      .cls-9 {
        opacity: .6;
      }

      .cls-10 {
        isolation: isolate;
      }

      .cls-11 {
        opacity: .2;
      }

      .cls-3 {
        opacity: .5;
      }

      .cls-12, .cls-13 {
        fill: #2b2829;
      }

      .cls-12, .cls-14 {
        mix-blend-mode: screen;
      }

      .cls-15 {
        fill: #dcc2a7;
      }

      .cls-16 {
        fill: #25f5c8;
      }

      .cls-17 {
        opacity: .3;
      }

      .cls-18 {
        fill: #6b184e;
      }

      .cls-19 {
        fill: #ed2e7a;
      }

      .cls-20 {
        fill: #451661;
      }

      .cls-21 {
        fill: #f9a528;
      }

      .cls-22 {
        fill: #a3401f;
      }

      .cls-23 {
        fill: url(#linear-gradient);
      }

      .cls-6 {
        fill: #b50e81;
      }

      .cls-8 {
        fill: #998a8e;
      }
    </style>
    <linearGradient id="linear-gradient" x1="64" y1="34.03" x2="5.45" y2="34.03" gradientUnits="userSpaceOnUse">
      <stop offset="0" stop-color="#cf965b"/>
      <stop offset=".25" stop-color="#ca9257"/>
      <stop offset=".51" stop-color="#be864c"/>
      <stop offset=".78" stop-color="#a9733a"/>
      <stop offset="1" stop-color="#925d26"/>
    </linearGradient>
    <linearGradient id="linear-gradient-2" x1="61.28" y1="31.49" x2="1.36" y2="31.49" gradientUnits="userSpaceOnUse">
      <stop offset="0" stop-color="#e8b886"/>
      <stop offset=".25" stop-color="#e3b482"/>
      <stop offset=".5" stop-color="#d7a877"/>
      <stop offset=".76" stop-color="#c29464"/>
      <stop offset="1" stop-color="#a97c4e"/>
    </linearGradient>
  </defs>
  <g class="cls-10">
    <g id="_Слой_2" data-name="Слой 2">
      <g id="_Слой_1-2" data-name="Слой 1">
        <g>
          <g>
            <path class="cls-23" d="M60.49,6.68c-1.75-1.6-4.41-2.62-7.38-2.62H14.98c-5.26,0-9.53,3.19-9.53,7.11V55.87c0,2.22,1.37,4.2,3.51,5.51,1.75,1.6,4.41,2.62,7.38,2.62H54.47c5.26,0,9.53-3.19,9.53-7.11V12.19c0-2.22-1.37-4.2-3.51-5.51Z"/>
            <path class="cls-1" d="M57.77,4.65c-.41-.37-.86-.71-1.36-1.02-1.75-1.6-4.41-2.62-7.38-2.62H10.89C5.64,1.02,1.36,4.21,1.36,8.13V52.83c0,2.22,1.37,4.2,3.51,5.51,.41,.37,.86,.71,1.36,1.02,1.75,1.6,4.41,2.62,7.38,2.62H51.74c5.26,0,9.53-3.19,9.53-7.11V10.16c0-2.22-1.37-4.2-3.51-5.51Z"/>
            <path class="cls-15" d="M47.66,0H9.53C4.28,0,0,3.19,0,7.11V51.81c0,3.92,4.28,7.11,9.53,7.11H47.66c5.26,0,9.53-3.19,9.53-7.11V7.11c0-3.92-4.28-7.11-9.53-7.11Z"/>
          </g>
          <path class="cls-8" d="M5.89,14.33c-.01-2.85,.17-6.06,2.96-8,2.12-1.47,5.21-1.81,8.09-1.99,6.68-.42,13.42-.36,20.09,.18,3.3,.26,6.79,.71,9.28,2.36,3.69,2.45,3.93,6.61,3.9,10.29-.08,9.24-.15,18.48-.23,27.72-.02,2.2-.08,4.51-1.54,6.42-1.54,2-4.45,3.25-7.46,3.8-3.01,.55-6.15,.48-9.24,.41-5.15-.12-10.31-.24-15.43-.71-2.79-.26-9.22-.18-10.19-2.65-.66-1.68-.07-4.15-.07-5.9,0-2.02-.02-4.03-.03-6.05-.02-4.03-.04-8.06-.06-12.1-.02-4.59-.04-9.18-.07-13.78Z"/>
          <path class="cls-8" d="M20.65,20.31c-3.25-.39-6.54-1.19-8.94-2.87-2.39-1.69-3.67-4.43-2.38-6.69,.89-1.57,2.87-2.69,5.01-3.3,2.14-.61,4.45-.77,6.74-.89,5.74-.3,11.52-.39,17.22,.17,2.22,.22,4.55,.57,6.21,1.7,2.93,1.99,2.55,5.66,.4,8.14-5.33,6.17-16.02,4.75-24.26,3.75Z"/>
          <path class="cls-12" d="M9.75,46.11c-.57-1.77-.49-3.61-.4-5.43,.37-7.55,.74-15.09,1.11-22.64,.14-2.75,.39-5.74,2.81-7.82,2.2-1.89,5.7-2.58,9.03-2.93,4.04-.42,8.14-.47,12.2-.14,3.7,.3,7.69,1.06,9.9,3.3,1.87,1.9,2.03,4.41,2.12,6.77,.33,9.07,.66,18.2-1.13,27.18-.4,1.99-1,4.12-2.97,5.5-2.25,1.58-5.63,1.75-8.72,1.75-5.06,0-10.12-.25-15.13-.73-4.65-.45-7.58-.99-8.81-4.8Z"/>
          <path class="cls-6" d="M47.66,1.02h-1.63c4.51,0,8.17,2.73,8.17,6.1V51.81c0,3.37-3.66,6.1-8.17,6.1h1.63c4.51,0,8.17-2.73,8.17-6.1V7.11c0-3.37-3.66-6.1-8.17-6.1Z"/>
          <path class="cls-5" d="M44.83,56.21c2.15-.26,4.29-1.07,5.39-2.47,.86-1.09,1-2.4,1.05-3.66,.05-1.24,.02-2.47-.08-3.71-.07-.81-.31-1.78-1.32-2.08-.75-.23-1.65,.04-2.16,.52-.51,.47-.69,1.1-.74,1.7-.11,1.25,.25,2.52-.08,3.75-.39,1.42-1.68,2.63-3.23,3.51-1.13,.64-4.12,1.25-4.5,2.21,1.43,.58,4.04,.42,5.67,.23Z"/>
          <path class="cls-7" d="M3.88,2.71c-1.55,1.11-2.52,2.67-2.52,4.4v26.08c12.35-3.44,32.73-4.39,54.47,14.33v-14.97C26.86,28.05,11.39,13.17,3.88,2.71Z"/>
          <path class="cls-3" d="M3.58,9.23c.26-1.79,1.27-3.6,3.21-4.67,2.66-1.47,6.31-1.25,9.61-.96,1.02,.09,2.32,.39,2.36,1.15,.03,.67-.97,1.08-1.84,1.21-2.2,.34-4.63-.04-6.59,.77-1.42,.58-2.33,1.69-2.8,2.85-.47,1.16-.56,2.38-.73,3.58-.07,.46-.15,.93-.44,1.34-1.08,1.49-2.05,.48-2.43-.37-.6-1.35-.53-3.5-.32-4.91Z"/>
          <g class="cls-14">
            <ellipse class="cls-13" cx="32.66" cy="10.91" rx="4.07" ry="3.03"/>
            <ellipse class="cls-13" cx="41.34" cy="12.32" rx="2.18" ry="1.63"/>
            <path class="cls-13" d="M40.11,16.13c.37,.7-.08,1.49-1.01,1.77-.93,.28-1.99-.06-2.37-.76-.37-.7,.08-1.49,1.01-1.77,.93-.28,1.99,.06,2.37,.76Z"/>
          </g>
          <g class="cls-14">
            <path class="cls-13" d="M23.64,45.38c.8,1.49-.17,3.17-2.16,3.77-1.99,.6-4.25-.13-5.05-1.61-.8-1.49,.17-3.17,2.16-3.77,1.99-.6,4.25,.13,5.05,1.61Z"/>
            <path class="cls-13" d="M20.79,40.39c.22,.41-.05,.87-.59,1.03-.54,.16-1.16-.03-1.38-.44-.22-.41,.05-.87,.59-1.03,.54-.16,1.16,.03,1.38,.44Z"/>
            <path class="cls-13" d="M15.3,41.5c.45,.84-.09,1.78-1.21,2.12-1.12,.34-2.39-.07-2.84-.91-.45-.84,.09-1.78,1.21-2.12,1.12-.34,2.39,.07,2.84,.91Z"/>
          </g>
          <g class="cls-17">
            <path class="cls-4" d="M51.02,35.95c.79,1.47-.17,3.15-2.14,3.74-1.98,.59-4.22-.12-5.01-1.6-.79-1.47,.17-3.15,2.14-3.74,1.98-.59,4.22,.12,5.01,1.6Z"/>
            <path class="cls-4" d="M53.92,29.6c.58,1.08-.12,2.3-1.57,2.74-1.45,.43-3.09-.09-3.67-1.17-.58-1.08,.12-2.3,1.57-2.74,1.45-.43,3.09,.09,3.67,1.17Z"/>
            <path class="cls-4" d="M45.56,30.99c.37,.7-.08,1.49-1.01,1.77-.93,.28-1.99-.06-2.37-.75-.37-.7,.08-1.49,1.01-1.77,.93-.28,1.99,.06,2.37,.76Z"/>
            <path class="cls-4" d="M10.65,25.55c.41,.75-.09,1.61-1.1,1.92-1.01,.3-2.16-.06-2.57-.82-.41-.75,.09-1.61,1.1-1.92,1.01-.3,2.16,.06,2.57,.82Z"/>
            <path class="cls-4" d="M11.29,21.09c.21,.39-.04,.84-.57,1-.53,.16-1.13-.03-1.34-.43-.21-.39,.04-.84,.57-1,.53-.16,1.13,.03,1.34,.43Z"/>
            <path class="cls-4" d="M6.59,20.15c.34,.63-.07,1.34-.91,1.59-.84,.25-1.79-.05-2.13-.68-.34-.63,.07-1.34,.91-1.59,.84-.25,1.79,.05,2.13,.68Z"/>
          </g>
        </g>
        <g id="_Слой_6" data-name="Слой 6">
          <g>
            <g>
              <path class="cls-21" d="M5.2,39.82c.06,.36,.2,.62,.44,.73,1.02,.46,2.77-.97,3.79-1.18,1.02-.2,2.46,1.13,4.82,.77,.31-.05,.61-.14,.89-.26,2.25,1.65,5.28,2.69,8.97,2.69,2.76,0,5.32-.57,7.44-1.53,3.89,.95,8.88,1.96,9.31,.53,.58-1.96-3.03-3.41-3.68-3.65,2.14,.74,6.93,1.12,7.08-.45,.03-.36-.33-.73-.93-1.1-1.55-.96-4.62-1.86-6.03-2.25,0-.12,.01-.25,.01-.37,0-3.02-2.38-5.04-5.93-6.14-.34-.11-.7-.21-1.07-.29-1.94-.48-4.16-.71-6.5-.71-1.33,0-2.62-.35-3.88-.68-2.6-.7-5.06-1.35-7.49,1.18-.01,.01-.03,.03-.04,.04-.02,.03-.05,.05-.07,.08-.43,.46-.78,.95-1.05,1.45-.94-.02-3.11,.23-3.83,2.56-.38,1.25-.56,1.9,0,2.19,.62,.32,1.5-.1,2.35-.42-.77,1.12-1.95,1.56-2.78,2.1-.2,.13-.38,.26-.53,.41-.87,.87-1.52,3.1-1.31,4.29Z"/>
              <g class="cls-9">
                <path class="cls-2" d="M12.42,27.15c1.03-.61,2.53-1.24,4.19-1.08,1.01,.1,2.19,.02,3.33-.14-2.6-.7-5.06-1.35-7.49,1.18-.01,.01-.03,.03-.04,.04Z"/>
              </g>
              <g class="cls-11">
                <path class="cls-20" d="M7.03,35.11c2.4-.3,6.52-1.83,5.83-6.43,0,0,.23,0-.41-1.58-.04,.04-.07,.08-.11,.12-.43,.46-.78,.95-1.05,1.45-.37,0-.94,.03-1.53,.22,.55-.1,1,0,1.14,.29,.21,.43-.34,1.13-1.23,1.56-.89,.43-1.78,.42-1.99-.02,0-.01-.01-.02-.01-.03-.08,.17-.15,.34-.21,.54-.38,1.25-.56,1.9,0,2.19,.62,.32,1.5-.1,2.35-.42-.77,1.12-1.95,1.56-2.78,2.1Z"/>
              </g>
              <path class="cls-2" d="M15.13,39.88c2.25,1.65,5.28,2.69,8.97,2.69,2.66,0,5.14-.53,7.21-1.43l-.32-.24c-.12-.03-.23-.06-.35-.09l-.34-.09-2.73-.68h-.01s-3.09,.63-4.96,0c-2.11-.72-3.15-2.36-4.88-2.52-.51,.76-1.41,1.83-2.59,2.34Z"/>
              <g class="cls-11">
                <path class="cls-20" d="M5.2,39.82c.06,.36,.2,.62,.44,.73,1.02,.46,2.77-.97,3.79-1.18,1.02-.2,2.46,1.13,4.82,.77,.31-.05,.61-.14,.89-.26,2.25,1.65,5.28,2.69,8.97,2.69,2.76,0,5.32-.57,7.44-1.53,3.89,.95,8.88,1.96,9.31,.53,.58-1.96-3.03-3.41-3.68-3.65,2.14,.74,6.93,1.12,7.08-.45,.03-.36-.33-.73-.93-1.1-2.91,.63-9.63,.73-13.95-5.53,0,0-.87,2.02-7.23,1.23-1.24-.16-2.46,.45-3.09,1.54-1.06,1.84-3.09,4.34-6.2,4.08-2.08-.17-6.32-.13-7.67,2.13Zm29.61-1.33c.15-.38,1.5-.21,3.01,.4,1.51,.6,2.6,1.41,2.45,1.79-.15,.38-1.5,.21-3.01-.4-1.51-.6-2.6-1.41-2.45-1.79Z"/>
              </g>
              <ellipse class="cls-2" cx="7.96" cy="31.37" rx="1.7" ry=".45" transform="translate(-24.39 30.45) rotate(-74.14)"/>
              <ellipse class="cls-2" cx="5.86" cy="37.69" rx="1.7" ry=".45" transform="translate(-31.99 33.02) rotate(-74.14)"/>
              <path class="cls-20" d="M15.09,40.26c-.26,.1-.53,.17-.79,.21-1.48,.23-2.59-.17-3.48-.49-.53-.19-.99-.35-1.32-.29-.33,.07-.77,.29-1.24,.53-.92,.46-1.96,.99-2.76,.63h0c-.23-.1-.52-.35-.63-.96-.24-1.31,.48-3.68,1.4-4.6,.34-.34,.79-.59,1.26-.86,.34-.19,.69-.39,1.02-.63-.46,.12-.91,.14-1.27-.1-.65-.43-.5-1.03-.33-1.72,.06-.23,.13-.5,.18-.81,.45-2.51,2.93-2.82,3.96-2.83,.27-.46,.6-.91,1-1.34,2.6-2.82,5.32-2.1,7.94-1.39,1.23,.33,2.5,.67,3.78,.67,3.87,0,7.2,.62,9.63,1.78,2.75,1.32,4.2,3.29,4.2,5.7,0,.04,0,.08,0,.12,.99,.28,2.62,.76,4.03,1.33,2.06,.83,2.98,1.56,2.91,2.3-.02,.25-.14,.6-.58,.88-.88,.56-2.72,.61-4.41,.4,1.03,.71,1.93,1.7,1.58,2.88-.4,1.34-3.27,1.26-9.6-.27-2.22,.99-4.8,1.51-7.47,1.51-3.46,0-6.57-.91-9.02-2.65Zm16.54,.46c1.62,.39,4,.94,5.91,1.15,2.59,.28,2.95-.23,3-.39,.51-1.7-3.07-3.09-3.48-3.24-.17-.06-.26-.25-.2-.43,.06-.17,.25-.26,.42-.2,1.72,.6,5.25,.93,6.36,.22,.23-.15,.27-.29,.28-.38,0-.06-.01-.62-2.49-1.61-1.51-.61-3.29-1.12-4.21-1.38-.15-.04-.26-.19-.25-.34,0-.12,.01-.23,.01-.35,0-2.17-1.29-3.88-3.82-5.1-2.34-1.12-5.57-1.71-9.34-1.71-1.37,0-2.69-.35-3.95-.69-2.65-.71-4.94-1.32-7.27,1.2-.42,.45-.74,.91-1,1.38-.06,.11-.17,.18-.3,.18-.93-.02-3.11,.17-3.49,2.28-.06,.33-.13,.61-.19,.85-.19,.74-.18,.85,.05,1,.31,.21,1.06-.08,1.61-.29,.16-.06,.31-.12,.45-.16,.14-.05,.29,0,.37,.12,.09,.11,.09,.27,0,.39-.63,.91-1.48,1.39-2.23,1.81-.44,.25-.85,.48-1.12,.75-.77,.77-1.42,2.91-1.22,4.01,.03,.15,.09,.4,.25,.47t0,0c.51,.23,1.4-.22,2.18-.62,.51-.26,.99-.5,1.41-.59,.51-.1,1.05,.09,1.67,.31,.82,.29,1.85,.65,3.16,.46,.27-.04,.54-.12,.81-.24,.11-.05,.23-.03,.33,.04,2.35,1.72,5.38,2.63,8.77,2.63,2.62,0,5.15-.52,7.3-1.5,.04-.02,.09-.03,.14-.03,.03,0,.05,0,.08,0Z"/>
              <path class="cls-20" d="M31.54,41.37c.15,0,.29-.1,.32-.26,.04-.18-.07-.36-.25-.4-.76-.19-1.48-.37-2.12-.53-1-.25-1.8-.46-2.22-.53-.18-.03-.36,.09-.39,.27-.03,.18,.09,.36,.27,.39,.4,.07,1.18,.27,2.18,.52,.64,.16,1.36,.34,2.12,.53,.03,0,.05,0,.08,0Z"/>
              <path class="cls-20" d="M9.82,33.35c.11,0,.21-.05,.28-.14,.03-.05,.07-.1,.1-.15,.4-.57,.86-1.22,1.1-2.56,.03-.18-.09-.36-.27-.39-.18-.03-.36,.09-.39,.27-.22,1.2-.61,1.76-.99,2.3-.04,.05-.07,.1-.1,.15-.1,.15-.07,.36,.09,.47,.06,.04,.12,.06,.19,.06Z"/>
              <path class="cls-20" d="M14.82,40.01c-.07-.17,0-.37,.17-.44,1.73-.75,2.79-2.74,2.86-2.95,.04-.18,.21-.29,.39-.26,.18,.03,.3,.21,.27,.39-.06,.3-1.27,2.57-3.25,3.43-.04,.02-.09,.03-.13,.03-.13,0-.25-.08-.31-.2Zm3.03-3.38s0,0,0,0c0,0,0,0,0,0Z"/>
              <path class="cls-20" d="M37.18,38.25c.14,0,.26-.08,.31-.22,.06-.17-.02-.37-.2-.43-.03-.01-3.1-1.15-5.04-1.65-.18-.05-.36,.06-.41,.24-.05,.18,.06,.36,.24,.41,1.9,.49,4.94,1.62,4.97,1.63,.04,.01,.08,.02,.12,.02Z"/>
              <path class="cls-21" d="M12.8,29.46c.2,.25,1.48,1.34,3.17-.76,1.53-1.89-.12-2.51-.45-2.61-.04-.01-.06-.02-.06-.02,0,0-1,.03-1.55-1.14-.56-1.17-.55-2.26-1.61-2.03-.44,.09-.78,.7-.91,1.56-.21,1.38,.11,3.41,1.42,5.01Z"/>
              <g class="cls-9">
                <path class="cls-2" d="M11.39,24.45c.09,.1,.15,.17,.15,.17,0,0,.66-1.63,1.15-1.04,.5,.59,.86,2.8,2.78,2.63,0,0,.02-.05,.06-.13-.04-.01-.06-.02-.06-.02,0,0-1,.03-1.55-1.14-.56-1.17-.55-2.26-1.61-2.03-.44,.09-.78,.7-.91,1.56Z"/>
              </g>
              <g class="cls-11">
                <path class="cls-20" d="M12.1,22.97s-.55,4.21,.84,6.49c0,0-2.9-3.55-.84-6.49Z"/>
              </g>
              <path class="cls-20" d="M12.8,29.79c.07,0,.15-.02,.21-.08,.14-.12,.16-.33,.05-.47-1.4-1.71-1.66-4.04-1.2-5.36,.13-.38,.32-.63,.5-.67,.46-.1,.57,.08,.88,.95,.1,.27,.21,.58,.36,.9,.64,1.36,1.82,1.33,1.87,1.33,.18,0,.33-.16,.32-.34,0-.18-.16-.33-.34-.32h0s-.79-.01-1.24-.95c-.14-.29-.24-.57-.33-.84-.28-.79-.58-1.61-1.65-1.38-.42,.09-.78,.48-1,1.1-.53,1.49-.25,4.11,1.31,6,.07,.08,.16,.12,.26,.12Z"/>
            </g>
            <g>
              <path class="cls-16" d="M27.22,31.27c.13,.27,.27,.53,.43,.77,1.72,2.72,4.86,3.9,7.57,4.39,1.52,.28,2.9,.34,3.84,.34h.06s-.04,0-.06,0c-.1-.01-.2-.02-.3-.03-3.55-.46-7.35-2.53-9.41-5.75-.73,.17-1.45,.26-2.13,.28Z"/>
              <g class="cls-11">
                <path class="cls-20" d="M29.36,30.99c-.73,.17-1.45,.26-2.13,.28,.13,.27,.27,.53,.43,.77l.87-.08c.26-.02,.52,.09,.68,.29,.59,.77,2.36,2.7,6.02,4.18,1.03,.42,2.46,.11,3.81,.42l.03-.07h0c-.1-.02-.2-.03-.3-.04-3.55-.46-7.35-2.53-9.41-5.75Z"/>
              </g>
              <g>
                <path class="cls-22" d="M22.91,21.6c.81,.85,1.89,1.63,3.19,2.2,1.98,.87,4.45,1.27,7.25,.68,4.63-.97,6.04-4.96,4.47-6.77-1.56-1.8-3.27-.87-5.45-.8-.61,.02-1.16-.17-1.72-.44-1.74-.84-3.47-2.49-6.7-1.26-2.19,.84-3.07,4.25-1.03,6.39Z"/>
                <g class="cls-9">
                  <path class="cls-2" d="M21.76,18.57c.3-1.09,1.03-2.01,2.03-2.39,4.27-1.63,5.93,1.78,8.43,1.7,2.18-.07,3.89-.99,5.45,.8,.42,.49,.63,1.13,.62,1.82,.3-1.06,.14-2.09-.47-2.79-1.56-1.8-3.27-.87-5.45-.8-2.5,.08-4.16-3.32-8.43-1.7-1.29,.49-2.12,1.87-2.18,3.36Z"/>
                </g>
                <path class="cls-20" d="M22.67,21.83c-1.04-1.09-1.47-2.54-1.17-3.98,.27-1.34,1.14-2.44,2.31-2.95,2.77-1.19,4.59-.12,6.06,.74,.88,.52,1.65,.96,2.49,.93,.54-.02,1.05-.09,1.54-.16,1.49-.21,2.89-.4,4.17,1.07h0c.72,.82,.89,2.06,.48,3.3-.67,1.98-2.59,3.49-5.13,4.02-.93,.19-1.82,.28-2.68,.28-3.59,0-6.44-1.56-8.07-3.26Zm14.89-3.9c-1.04-1.2-2.16-1.05-3.57-.85-.51,.07-1.04,.14-1.61,.16-1.04,.03-1.91-.48-2.84-1.02-1.48-.86-3-1.75-5.46-.7-.97,.42-1.69,1.34-1.92,2.47-.25,1.22,.11,2.46,1,3.38,1.89,1.98,5.54,3.75,10.12,2.79,2.31-.48,4.04-1.82,4.63-3.58,.34-1.01,.21-2-.35-2.65h0Z"/>
                <g class="cls-17">
                  <path class="cls-20" d="M22.9,21.68c2.04,2.13,5.81,3.85,10.43,2.88,3.09-.65,4.75-2.64,5.04-4.44,0-.01,0-.02,0-.03,.16-.91-.03-1.77-.56-2.38-1.56-1.8-3.27-.87-5.45-.8-.61,.02-1.16-.17-1.72-.44-1.76,.68-2.84,1.85-3.5,2.95-.71,1.2-2.37,1.45-3.38,.48-.1-.09-.19-.19-.28-.28-.83-.86-1.17-1.94-1.15-2.97-.87,1.43-.86,3.53,.56,5.02Z"/>
                </g>
              </g>
              <path class="cls-19" d="M43.23,30.53c.13,2.33,2.41,2.46,3.47,2.93,1.34-.17,1.71,1.12,2.43,1.04,.72-.08,1.1-1.46-.21-2.82-1.31-1.36-5.69-1.15-5.69-1.15Z"/>
              <g class="cls-11">
                <path class="cls-20" d="M43.23,30.53c.13,2.33,2.41,2.46,3.47,2.93,1.34-.17,1.71,1.12,2.43,1.04,.33-.04,.59-.35,.65-.82-.03,.01-.07,.02-.11,.02-.72,.08-1.09-1.21-2.43-1.04-.93-.41-2.78-.56-3.33-2.14-.42,0-.69,.01-.69,.01Z"/>
              </g>
              <g class="cls-9">
                <path class="cls-2" d="M43.23,30.53c.01,.2,.04,.39,.08,.56,.93-.02,4.33,0,5.46,1.16,.66,.69,.89,1.38,.86,1.9,.3-.51,.24-1.5-.7-2.47-1.31-1.36-5.69-1.15-5.69-1.15Z"/>
              </g>
              <path class="cls-21" d="M27.94,27.13c.84,5.3,6.07,8.84,10.83,9.45,4.76,.62,8.68-1.38,8.45-2.61-.23-1.23-5.15-.23-3.76-5.22,0,0,6.86,3.33,7.55-2.98,.04-.4,.06-.83,.05-1.3,0-.29-.14-.53-.36-.75-.25-.24-.62-.45-1.06-.65-1.57-.71-4.06-1.28-5.42-2.78-2.07-2.31-6.92-4.99-10.68-3.15-3.12,1.53-5.5,3.74-5.74,7.46-.05,.77-.01,1.61,.13,2.52Z"/>
              <g class="cls-11">
                <path class="cls-18" d="M43.46,28.74s6.86,3.33,7.55-2.98c.04-.4,.06-.83,.05-1.3,0-.29-.14-.53-.36-.75l-1.93,1.81s.7,4.15-5.32,3.21Z"/>
                <path class="cls-20" d="M43.45,28.78l-.25-.12,.28,.04c2.15,.33,3.68,.06,4.54-.82,.95-.96,.73-2.33,.73-2.35v-.02s1.97-1.85,1.97-1.85l.03,.03c.24,.24,.37,.49,.37,.77,0,.46-.01,.9-.05,1.3-.18,1.68-.82,2.83-1.9,3.42-.62,.34-1.32,.47-2.02,.47-1.85,0-3.67-.87-3.69-.88Zm5.38-3.24c.02,.19,.16,1.47-.75,2.4-.84,.85-2.29,1.15-4.31,.89,.86,.36,3.52,1.31,5.36,.29,1.05-.58,1.67-1.71,1.85-3.36,.04-.4,.06-.83,.05-1.29,0-.25-.11-.48-.32-.69l-1.88,1.77Z"/>
              </g>
              <g class="cls-11">
                <path class="cls-20" d="M27.94,27.13c.84,5.3,6.07,8.84,10.83,9.45,4.76,.62,8.68-1.38,8.45-2.61-.23-1.23-5.15-.23-3.76-5.22,0,0-1.28,2.32-.37,3.92,.31,.54-.05,1.21-.67,1.23-1.57,.07-3.89-.11-5.87-1.37-1.32-.84-1.9-2.48-1.42-3.96,.42-1.3,.8-2.99,.41-4.03,0,0-2.94-3.14-7.73,.08-.05,.77-.01,1.61,.13,2.52Z"/>
              </g>
              <g class="cls-9">
                <path class="cls-2" d="M27.81,25.96c.26-3.7,2.78-6.43,5.88-7.96,.21-.1,.43-.19,.64-.27-.08,.11-.12,.23-.12,.35,0,.55,.86,1,1.93,1s1.93-.45,1.93-1c0-.21-.12-.4-.33-.56,2.63,.47,5.15,2.2,6.51,3.71,1.36,1.51,3.95,2.06,5.52,2.77,.71,.32,1.11,1.12,1.25,1.6,.03-.35,.05-.73,.04-1.15-.01-.61-.58-1.02-1.42-1.39-1.57-.71-4.06-1.28-5.42-2.78-2.07-2.3-6.92-4.99-10.68-3.15-3.48,1.7-6.04,4.26-5.74,8.82Z"/>
              </g>
              <g class="cls-9">
                <ellipse class="cls-2" cx="39.76" cy="19.18" rx=".47" ry=".89" transform="translate(9.08 50.92) rotate(-71.73)"/>
              </g>
              <path class="cls-20" d="M38.73,36.91c-2.49-.32-5.06-1.43-7.05-3.04-2.25-1.82-3.66-4.14-4.07-6.69h0c-.41-2.55-.03-4.74,1.12-6.52,.97-1.51,2.5-2.76,4.66-3.82,2.23-1.09,4.63-.6,6.24,0,1.84,.69,3.65,1.89,4.84,3.22,.95,1.05,2.52,1.64,3.91,2.15,.5,.19,.98,.36,1.39,.55,.74,.33,1.6,.83,1.62,1.69,0,.47-.01,.93-.06,1.34-.19,1.78-.88,3-2.05,3.65-.67,.37-1.43,.51-2.18,.51-1.42,0-2.79-.48-3.43-.75-.63,2.77,.96,3.25,2.36,3.68,.75,.23,1.4,.43,1.51,1.02,.05,.25,0,.64-.43,1.11-1.03,1.09-3.62,2.01-6.58,2.01-.59,0-1.19-.04-1.8-.12Zm4.88-8.47s3.3,1.57,5.37,.42c.96-.53,1.53-1.59,1.7-3.13,.04-.39,.06-.81,.05-1.26,0-.38-.38-.72-1.22-1.09-.4-.18-.86-.35-1.35-.53-1.46-.54-3.12-1.15-4.18-2.33-2.04-2.27-6.73-4.82-10.29-3.07-4.4,2.16-6.13,5.22-5.42,9.64,.83,5.18,6.05,8.59,10.55,9.17,3.78,.49,6.9-.72,7.82-1.69,.19-.2,.29-.4,.26-.53-.04-.19-.57-.35-1.05-.5-1.4-.43-3.74-1.15-2.71-4.88,.03-.1,.09-.17,.18-.22,.04-.02,.09-.03,.14-.03,.05,0,.1,.01,.15,.03Zm-15.67-1.31h0Z"/>
              <path class="cls-20" d="M49.06,34.84s.07,0,.1,0c.38-.04,.7-.32,.86-.74,.22-.61,.12-1.63-.86-2.64-1.4-1.45-5.77-1.26-5.95-1.25-.18,0-.33,.17-.32,.35,0,.18,.17,.33,.35,.32,1.18-.06,4.45,.03,5.44,1.05,.76,.79,.86,1.54,.71,1.95-.06,.18-.18,.29-.3,.3-.15,.02-.31-.12-.56-.34-.4-.35-.95-.82-1.87-.7-.18,.02-.31,.19-.29,.37,.02,.18,.19,.31,.37,.29,.63-.08,.98,.22,1.35,.54,.28,.25,.58,.5,.97,.5Z"/>
              <path class="cls-20" d="M47.94,24.89c.16,.8,1.3,1.25,2.56,1.01,.18-.03,.35-.08,.52-.14,.04-.39,.06-.83,.05-1.3-.01-.61-.58-1.02-1.42-1.39-1.1,.31-1.85,1.08-1.71,1.82Z"/>
              <path class="cls-22" d="M34.63,21.94c-1.81-1.71-3.36-.4-5.49,.04-2.45,.51-4.6-2.94-8.57-.44-2.04,1.29-2.39,5.18-.05,7.18,2.34,2,6.31,3.25,10.73,1.4,4.42-1.84,5.21-6.46,3.38-8.18Z"/>
              <g class="cls-17">
                <path class="cls-20" d="M20.52,28.81c2.34,2,6.31,3.25,10.73,1.4,3.27-1.36,4.55-4.25,4.26-6.35-.55,1.56-1.84,3.11-3.99,4-4.42,1.84-8.39,.59-10.73-1.4-.95-.81-1.45-1.93-1.58-3.06-.64,1.71-.31,4.02,1.31,5.41Z"/>
              </g>
              <g class="cls-9">
                <path class="cls-2" d="M18.93,25.59c.13-1.25,.71-2.38,1.64-2.97,3.96-2.5,6.12,.95,8.57,.44,2.14-.44,3.68-1.75,5.49-.04,.49,.46,.79,1.13,.88,1.9,.14-1.21-.18-2.31-.88-2.98-1.81-1.71-3.36-.4-5.49,.04-2.45,.51-4.6-2.94-8.57-.44-1.2,.75-1.81,2.41-1.64,4.05Z"/>
              </g>
              <path class="cls-20" d="M20.3,28.97c-1.19-1.02-1.83-2.53-1.74-4.16,.07-1.49,.75-2.81,1.82-3.55,2.56-1.78,4.53-.91,6.11-.21,.94,.41,1.76,.77,2.57,.6,.52-.11,1.02-.27,1.49-.43,1.44-.48,2.8-.93,4.3,.48l-.23,.24,.23-.24c.85,.8,1.2,2.16,.93,3.63-.4,2.21-2.05,4.12-4.41,5.11-1.56,.65-3.05,.92-4.45,.92-2.76,0-5.09-1.07-6.63-2.38Zm10.47-7.12c-.49,.16-1,.33-1.57,.45-1.02,.21-1.97-.2-2.98-.65-1.58-.69-3.21-1.41-5.46,.15-.89,.62-1.47,1.76-1.53,3.04-.07,1.42,.48,2.74,1.51,3.62,2.16,1.85,6.02,3.17,10.38,1.35,2.15-.9,3.65-2.62,4.01-4.61,.23-1.24-.05-2.37-.73-3.02-.6-.57-1.15-.77-1.73-.77s-1.19,.2-1.9,.44Z"/>
              <path class="cls-20" d="M38.55,37.08c.71,0,1.16-.04,1.2-.04,.18-.02,.32-.18,.3-.36-.02-.18-.18-.32-.36-.3-.02,0-2.4,.21-5.08-.37-3.55-.77-5.93-2.5-7.09-5.12-.07-.17-.27-.25-.44-.17-.17,.07-.25,.27-.17,.44,1.23,2.8,3.85,4.7,7.58,5.51,1.61,.35,3.09,.42,4.06,.42Z"/>
              <g>
                <path class="cls-20" d="M41.15,22.97c-.8,.15-1.26,1.14-1.06,2.26,.21,1.12,1,1.87,1.8,1.72,.07-.01,.13-.03,.2-.06,.68-.26,1.05-1.18,.86-2.2h0c-.21-1.12-1-1.87-1.8-1.72Z"/>
                <ellipse class="cls-2" cx="41.85" cy="24.43" rx=".34" ry=".62" transform="translate(-5.18 12.73) rotate(-16.3)"/>
              </g>
            </g>
          </g>
        </g>
      </g>
    </g>
  </g>
</svg>