<?xml version="1.0" encoding="UTF-8"?>
<svg xmlns="http://www.w3.org/2000/svg" xmlns:xlink="http://www.w3.org/1999/xlink" viewBox="0 0 64 64">
  <defs>
    <style>
      .cls-1 {
        fill: #f7b9b5;
      }

      .cls-2 {
        fill: url(#linear-gradient-2);
      }

      .cls-3 {
        fill: #fce0e0;
      }

      .cls-4, .cls-5 {
        fill: #cca3b1;
      }

      .cls-4, .cls-5, .cls-6 {
        mix-blend-mode: multiply;
      }

      .cls-7 {
        fill: #f15c5b;
      }

      .cls-8 {
        fill: #8b003e;
      }

      .cls-9 {
        isolation: isolate;
      }

      .cls-10 {
        fill: #fff;
      }

      .cls-10, .cls-11 {
        opacity: .5;
      }

      .cls-12 {
        fill: #efa8cf;
      }

      .cls-13 {
        mix-blend-mode: soft-light;
      }

      .cls-14, .cls-15 {
        fill: #2b2829;
      }

      .cls-14, .cls-16 {
        mix-blend-mode: screen;
      }

      .cls-5 {
        opacity: .3;
      }

      .cls-17 {
        fill: #fb9500;
      }

      .cls-11 {
        fill: #e6cfd7;
      }

      .cls-11, .cls-18, .cls-19 {
        mix-blend-mode: overlay;
      }

      .cls-18 {
        fill: #998a8f;
      }

      .cls-19 {
        fill: #8c8588;
      }

      .cls-20 {
        fill: #dcc0a7;
      }

      .cls-21 {
        fill: #ccc;
      }

      .cls-22 {
        fill: #47162c;
      }

      .cls-23 {
        fill: url(#linear-gradient);
      }
    </style>
    <linearGradient id="linear-gradient" x1="64" y1="34.03" x2="5.45" y2="34.03" gradientUnits="userSpaceOnUse">
      <stop offset="0" stop-color="#cf925b"/>
      <stop offset=".25" stop-color="#ca8e57"/>
      <stop offset=".51" stop-color="#be824c"/>
      <stop offset=".78" stop-color="#a96f3a"/>
      <stop offset="1" stop-color="#925a26"/>
    </linearGradient>
    <linearGradient id="linear-gradient-2" x1="61.28" y1="31.49" x2="1.36" y2="31.49" gradientUnits="userSpaceOnUse">
      <stop offset="0" stop-color="#e8b586"/>
      <stop offset=".25" stop-color="#e3b182"/>
      <stop offset=".5" stop-color="#d7a577"/>
      <stop offset=".76" stop-color="#c29164"/>
      <stop offset="1" stop-color="#a9794e"/>
    </linearGradient>
  </defs>
  <g class="cls-9">
    <g id="_Слой_2" data-name="Слой 2">
      <g id="_Слой_1-2" data-name="Слой 1">
        <g>
          <g>
            <path class="cls-23" d="M60.49,6.68c-1.75-1.6-4.41-2.62-7.38-2.62H14.98c-5.26,0-9.53,3.19-9.53,7.11V55.87c0,2.22,1.37,4.2,3.51,5.51,1.75,1.6,4.41,2.62,7.38,2.62H54.47c5.26,0,9.53-3.19,9.53-7.11V12.19c0-2.22-1.37-4.2-3.51-5.51Z"/>
            <path class="cls-2" d="M57.77,4.65c-.41-.37-.86-.71-1.36-1.02-1.75-1.6-4.41-2.62-7.38-2.62H10.89C5.64,1.02,1.36,4.21,1.36,8.13V52.83c0,2.22,1.37,4.2,3.51,5.51,.41,.37,.86,.71,1.36,1.02,1.75,1.6,4.41,2.62,7.38,2.62H51.74c5.26,0,9.53-3.19,9.53-7.11V10.16c0-2.22-1.37-4.2-3.51-5.51Z"/>
            <path class="cls-20" d="M47.66,0H9.53C4.28,0,0,3.19,0,7.11V51.81c0,3.92,4.28,7.11,9.53,7.11H47.66c5.26,0,9.53-3.19,9.53-7.11V7.11c0-3.92-4.28-7.11-9.53-7.11Z"/>
          </g>
          <path class="cls-18" d="M5.89,14.33c-.01-2.85,.17-6.06,2.96-8,2.12-1.47,5.21-1.81,8.09-1.99,6.68-.42,13.42-.36,20.09,.18,3.3,.26,6.79,.71,9.28,2.36,3.69,2.45,3.93,6.61,3.9,10.29-.08,9.24-.15,18.48-.23,27.72-.02,2.2-.08,4.51-1.54,6.42-1.54,2-4.45,3.25-7.46,3.8-3.01,.55-6.15,.48-9.24,.41-5.15-.12-10.31-.24-15.43-.71-2.79-.26-9.22-.18-10.19-2.65-.66-1.68-.07-4.15-.07-5.9,0-2.02-.02-4.03-.03-6.05-.02-4.03-.04-8.06-.06-12.1-.02-4.59-.04-9.18-.07-13.78Z"/>
          <path class="cls-18" d="M20.65,20.31c-3.25-.39-6.54-1.19-8.94-2.87-2.39-1.69-3.67-4.43-2.38-6.69,.89-1.57,2.87-2.69,5.01-3.3,2.14-.61,4.45-.77,6.74-.89,5.74-.3,11.52-.39,17.22,.17,2.22,.22,4.55,.57,6.21,1.7,2.93,1.99,2.55,5.66,.4,8.14-5.33,6.17-16.02,4.75-24.26,3.75Z"/>
          <path class="cls-14" d="M9.75,46.11c-.57-1.77-.49-3.61-.4-5.43,.37-7.55,.74-15.09,1.11-22.64,.14-2.75,.39-5.74,2.81-7.82,2.2-1.89,5.7-2.58,9.03-2.93,4.04-.42,8.14-.47,12.2-.14,3.7,.3,7.69,1.06,9.9,3.3,1.87,1.9,2.03,4.41,2.12,6.77,.33,9.07,.66,18.2-1.13,27.18-.4,1.99-1,4.12-2.97,5.5-2.25,1.58-5.63,1.75-8.72,1.75-5.06,0-10.12-.25-15.13-.73-4.65-.45-7.58-.99-8.81-4.8Z"/>
          <path class="cls-4" d="M47.66,1.02h-1.63c4.51,0,8.17,2.73,8.17,6.1V51.81c0,3.37-3.66,6.1-8.17,6.1h1.63c4.51,0,8.17-2.73,8.17-6.1V7.11c0-3.37-3.66-6.1-8.17-6.1Z"/>
          <path class="cls-11" d="M44.83,56.21c2.15-.26,4.29-1.07,5.39-2.47,.86-1.09,1-2.4,1.05-3.66,.05-1.24,.02-2.47-.08-3.71-.07-.81-.31-1.78-1.32-2.08-.75-.23-1.65,.04-2.16,.52-.51,.47-.69,1.1-.74,1.7-.11,1.25,.25,2.52-.08,3.75-.39,1.42-1.68,2.63-3.23,3.51-1.13,.64-4.12,1.25-4.5,2.21,1.43,.58,4.04,.42,5.67,.23Z"/>
          <path class="cls-19" d="M3.88,2.71c-1.55,1.11-2.52,2.67-2.52,4.4v26.08c12.35-3.44,32.73-4.39,54.47,14.33v-14.97C26.86,28.05,11.39,13.17,3.88,2.71Z"/>
          <path class="cls-10" d="M3.58,9.23c.26-1.79,1.27-3.6,3.21-4.67,2.66-1.47,6.31-1.25,9.61-.96,1.02,.09,2.32,.39,2.36,1.15,.03,.67-.97,1.08-1.84,1.21-2.2,.34-4.63-.04-6.59,.77-1.42,.58-2.33,1.69-2.8,2.85s-.56,2.38-.73,3.58c-.07,.46-.15,.93-.44,1.34-1.08,1.49-2.05,.48-2.43-.37-.6-1.35-.53-3.5-.32-4.91Z"/>
          <g class="cls-16">
            <ellipse class="cls-15" cx="32.66" cy="10.91" rx="4.07" ry="3.03"/>
            <path class="cls-15" d="M43.37,11.71c.45,.84-.09,1.78-1.21,2.12-1.12,.34-2.39-.07-2.84-.91-.45-.84,.09-1.78,1.21-2.12,1.12-.34,2.39,.07,2.84,.91Z"/>
            <path class="cls-15" d="M40.11,16.13c.37,.7-.08,1.49-1.01,1.77-.93,.28-1.99-.06-2.37-.76-.37-.7,.08-1.49,1.01-1.77,.93-.28,1.99,.06,2.37,.76Z"/>
          </g>
          <g class="cls-16">
            <path class="cls-15" d="M23.64,45.38c.8,1.49-.17,3.17-2.16,3.77-1.99,.6-4.25-.13-5.05-1.61-.8-1.49,.17-3.17,2.16-3.77,1.99-.6,4.25,.13,5.05,1.61Z"/>
            <path class="cls-15" d="M20.79,40.39c.22,.41-.05,.87-.59,1.03-.54,.16-1.16-.03-1.38-.44-.22-.41,.05-.87,.59-1.03,.54-.16,1.16,.03,1.38,.44Z"/>
            <path class="cls-15" d="M15.3,41.5c.45,.84-.09,1.78-1.21,2.12-1.12,.34-2.39-.07-2.84-.91-.45-.84,.09-1.78,1.21-2.12,1.12-.34,2.39,.07,2.84,.91Z"/>
          </g>
          <path class="cls-5" d="M51.02,35.95c.79,1.47-.17,3.15-2.14,3.74-1.98,.59-4.22-.12-5.01-1.6-.79-1.47,.17-3.15,2.14-3.74,1.98-.59,4.22,.12,5.01,1.6Z"/>
          <path class="cls-5" d="M53.92,29.6c.58,1.08-.12,2.3-1.57,2.74-1.45,.43-3.09-.09-3.67-1.17-.58-1.08,.12-2.3,1.57-2.74,1.45-.43,3.09,.09,3.67,1.17Z"/>
          <path class="cls-5" d="M45.56,30.99c.37,.7-.08,1.49-1.01,1.77-.93,.28-1.99-.06-2.37-.76-.37-.7,.08-1.49,1.01-1.77,.93-.28,1.99,.06,2.37,.76Z"/>
          <path class="cls-5" d="M10.65,25.55c.41,.75-.09,1.61-1.1,1.92-1.01,.3-2.16-.06-2.57-.82-.41-.75,.09-1.61,1.1-1.92,1.01-.3,2.16,.06,2.57,.82Z"/>
          <path class="cls-5" d="M11.29,21.09c.21,.39-.04,.84-.57,1-.53,.16-1.13-.03-1.34-.43-.21-.39,.04-.84,.57-1,.53-.16,1.13,.03,1.34,.43Z"/>
          <path class="cls-5" d="M6.59,20.15c.34,.63-.07,1.34-.91,1.59-.84,.25-1.79-.05-2.13-.68-.34-.63,.07-1.34,.91-1.59,.84-.25,1.79,.05,2.13,.68Z"/>
        </g>
        <g>
          <g>
            <path class="cls-17" d="M51.6,19.46c-1.23-3.62-4.56-5.5-8.3-3.59l-1.45,2.17c3.7-.18,6.59,1.47,8.94,4.04,.83-2.41,.77-2.76,.82-2.62Z"/>
            <path class="cls-22" d="M50.92,22.74c-2.69-3.19-6.02-4.72-9.74-4.33l1.88-2.8c3.69-2.03,7.58-.23,8.86,3.74l-.29,.1,.27,.11c-.1,.41-.22,.96-.79,2.64l-.19,.54Zm-8.42-5.06c3.05,.02,5.72,1.25,8.15,3.75,.41-1.24,.51-1.68,.58-2.01-1.18-3.42-4.44-4.98-7.69-3.29,0,0-1.04,1.55-1.04,1.55Z"/>
          </g>
          <g>
            <path class="cls-17" d="M51.18,12.22c-3.45-1.65-7.13-.56-8.35,3.46l.54,2.55c2.45-2.78,5.65-3.71,9.13-3.6-1.15-2.27-1.45-2.47-1.31-2.41Z"/>
            <path class="cls-22" d="M43.17,18.97l-.7-3.3c1.12-4.06,5.11-5.6,8.85-3.75l-.13,.28,.26-.12c-.02-.09,1.11,1.87,1.6,2.92-4.16-.29-7.58,1.03-9.88,3.97Zm0-3.27l.39,1.82c2.14-2.17,4.89-3.23,8.37-3.23-.6-1.16-.85-1.53-1.03-1.82-3.28-1.53-6.66-.29-7.72,3.23Z"/>
          </g>
          <g>
            <g>
              <path class="cls-1" d="M39.3,45.69c5.83,1.56,12.5-1.9,13.32-8.16,.28-1.59-2.15-2.26-2.43-.67-.4,2.32-1.51,4.31-3.55,5.55-1.98,1.2-4.45,1.32-6.67,.85-1.58-.34-2.25,2.09-.67,2.43Z"/>
              <path class="cls-22" d="M42.29,46.36c-.99,0-2.02-.11-3.07-.33-2.11-.51-1.12-3.59,.88-3.08,4.77,1.03,8.97-1.24,9.74-6.16,.19-1.24,1.67-1.51,2.55-.73,.48,.41,.67,1.01,.53,1.64-.91,5.36-5.4,8.75-10.64,8.67Zm-2.92-1c6.02,1.39,11.87-1.61,12.91-7.88,.08-.49-.17-.78-.33-.92-.5-.41-1.32-.37-1.42,.36-.86,5.29-5.47,7.84-10.63,6.67-1.16-.22-1.68,1.47-.53,1.76Z"/>
            </g>
            <path class="cls-22" d="M49.05,40.02c1.96-.11,1.55,1.49,2.02,1.43,.35-.11-.23-1.19-.47-1.3-.3-.29-1.49-.8-1.72-.3,0,.08,.08,.18,.17,.17Z"/>
            <path class="cls-22" d="M46.44,42.75c.99,.01,1.2,1.1,.81,1.84-.04,.08-.02,.18,.06,.23,.51,.19,.71-1.85-.12-2.19-.23-.14-.49-.2-.76-.22-.22-.02-.22,.32,0,.34Z"/>
            <path class="cls-22" d="M43,43.65c.54,.58,.47,1.67-.34,1.96-.09,.03-.15,.11-.12,.21,.28,.47,1.18-.62,1.13-.99,.08-.52-.09-1.03-.43-1.42-.14-.17-.38,.08-.24,.24h0Z"/>
          </g>
          <g>
            <path class="cls-1" d="M38.05,49.52c4.74-9.82,2.87-18.71-10.05-18.14-12.53-.47-15.84,7.67-10.22,18.14,0,0-2.25-.3-2.25,1.44,0,1.21,.03,2.1,1.11,2.16,1.07,.06,5.69,.05,6.23-.12,.27-.09,.24-1.49,.16-3.18,2.97,1.01,6.77,1.03,9.76,.05-.08,1.66-.11,3.04,.16,3.12,.54,.17,5.16,.18,6.23,.12,1.07-.06,1.11-.95,1.11-2.16,0-1.74-2.25-1.44-2.25-1.44Z"/>
            <path class="cls-22" d="M36.94,53.49c-1.68,0-3.68-.04-4.08-.17-.4-.13-.52-.58-.42-2.98-2.89,.82-6.16,.8-9.04-.05,.1,2.31,0,2.89-.42,3.03-.65,.21-5.48,.19-6.35,.14-1.43-.08-1.43-1.36-1.43-2.5-.06-1.09,.96-1.76,1.88-1.78-4.66-10.8-2.62-18.12,10.92-18.13,13.51-.25,14.74,8.1,10.71,18.13,.93,.02,1.99,.68,1.92,1.79,0,1.13,0,2.42-1.43,2.5-.33,.02-1.24,.03-2.27,.03Zm-3.78-.8c.75,.12,4.82,.15,6.02,.09,.68-.04,.79-.44,.79-1.82-.04-1.47-1.94-1.09-2.79-.98l.64-.69c4.18-8.83,3.46-18.17-9.8-17.56-8.35,0-12.41,2.74-12.41,8.39-.01,1.27,.55,7.94,3.08,9.87-.85-.12-2.75-.5-2.8,.98,0,1.37,.1,1.78,.79,1.82,1.2,.07,5.26,.04,6.02-.09,.15-.68,.02-2.54-.01-3.35,3.32,1.2,7.16,1.22,10.49,.06-.03,.8-.16,2.62,0,3.29Z"/>
          </g>
          <g>
            <g>
              <path class="cls-1" d="M34.13,10.21l8.91,6.85c2.56-4.17,1.48-11.15,1.48-11.15,0,0-8.4,1.42-10.39,4.3Z"/>
              <path class="cls-22" d="M43.14,17.56l-9.47-7.27c2.04-3.32,10.51-4.63,11.14-4.77,.1,.5,1.19,7.83-1.67,12.04Zm-8.53-7.41l8.33,6.4c1.92-3.51,1.45-8.83,1.28-10.24-1.54,.29-7.69,1.59-9.62,3.84Z"/>
            </g>
            <path class="cls-8" d="M35.74,11.45l5.7,4.38c1.64-2.67,1.37-7.75,1.37-7.75,0,0-5.8,1.53-7.07,3.37Z"/>
          </g>
          <g>
            <g>
              <path class="cls-1" d="M22.71,10.21l-8.91,6.85c-2.56-4.17-1.48-11.15-1.48-11.15,0,0,8.4,1.42,10.39,4.3Z"/>
              <path class="cls-22" d="M13.71,17.56c-2.86-4.23-1.77-11.53-1.67-12.04,.61,.13,9.11,1.45,11.14,4.77l-9.47,7.27Zm-1.09-11.25c-.17,1.4-.64,6.73,1.28,10.24l8.33-6.4c-1.93-2.25-8.08-3.54-9.62-3.84Z"/>
            </g>
            <path class="cls-8" d="M21.1,11.45l-5.7,4.38c-1.64-2.67-1.37-7.75-1.37-7.75,0,0,5.8,1.53,7.07,3.37Z"/>
          </g>
          <g>
            <path class="cls-1" d="M44.54,23.84c1.22,19.14-34.89,19.14-33.68,0,.38-22.13,33.3-22.13,33.68,0Z"/>
            <path class="cls-22" d="M27.7,38.2c-24.9,1.69-20.64-31.65,0-31.54,20.64-.11,24.9,33.22,0,31.54Zm0-30.85c-19.76-.1-23.96,31.79,0,30.17,23.96,1.62,19.76-30.27,0-30.17Z"/>
          </g>
          <g class="cls-6">
            <path class="cls-21" d="M27.82,35.42c-8.87,0-16.14-2.31-16.79-9.87-2.48,16.41,36.05,16.41,33.57,0-.65,7.56-7.91,9.87-16.79,9.87Z"/>
          </g>
          <g>
            <path class="cls-7" d="M25.64,11.55c.6,9.86,3.2,9.86,3.8,0-.02-1.12,.13-3.13-.33-4.12-1.04-.09-2.11-.08-3.14,.03-.45,.98-.3,2.98-.32,4.09Z"/>
            <path class="cls-7" d="M33.99,10.31v-1.72c-.94-.38-1.92-.68-2.93-.88v8.51c1.62,0,2.93-4.46,2.93-5.9Z"/>
            <path class="cls-7" d="M24.35,16.21V7.71c-1.01,.21-1.99,.5-2.93,.88-.2,2.05,.67,7.15,2.93,7.63Z"/>
          </g>
          <g>
            <path class="cls-22" d="M5.12,26.26c3.23-.98,6.69-.44,9.96,.08,.42,.11,.61-.55,.18-.66-3.39-.55-6.96-1.07-10.32-.08-.42,.13-.24,.79,.18,.66Z"/>
            <path class="cls-22" d="M9.73,35.58c1.77-2.16,3.94-4.17,6.47-5.39,.4-.19,.05-.78-.34-.59-1.25,.6-2.4,1.42-3.47,2.31-1.14,.96-2.19,2.03-3.14,3.18-.28,.34,.2,.82,.48,.48h0Z"/>
            <path class="cls-22" d="M4.28,32.82c3.07-2.28,6.73-3.7,10.45-4.51,.43-.09,.25-.75-.18-.66-2.97,.63-5.89,1.68-8.53,3.21-.39,.31-2.57,1.33-2.21,1.84,.09,.15,.32,.23,.47,.12h0Z"/>
          </g>
          <g>
            <path class="cls-22" d="M49.67,25.6c-2.65-.82-5.53-.6-8.23-.24-.7,.09-1.39,.2-2.08,.32-.18,.03-.28,.26-.24,.42,.05,.19,.24,.27,.42,.24,3.27-.52,6.72-1.04,9.96-.08,.42,.13,.6-.53,.18-.66h0Z"/>
            <path class="cls-22" d="M45.36,35.1c-.95-1.15-2-2.22-3.14-3.18-1.07-.89-2.21-1.71-3.47-2.31-.39-.19-.74,.4-.34,.59,2.53,1.22,4.7,3.23,6.47,5.39,.28,.34,.76-.15,.48-.48h0Z"/>
            <path class="cls-22" d="M50.67,32.23c-3.12-2.31-6.84-3.75-10.61-4.57-.43-.09-.61,.57-.18,.66,3.72,.8,7.37,2.23,10.45,4.51,.37,.23,.73-.36,.34-.59h0Z"/>
          </g>
          <g class="cls-6">
            <path class="cls-21" d="M18.76,46.47c3.48,5.05,14.87,5.04,18.35,0-4.41,3.84-13.94,3.83-18.35,0Z"/>
          </g>
          <g>
            <path class="cls-17" d="M41.53,15.01c-8.56-2.87-20.56-3.05-28.33,.57l-1.01,2.76c10.12-1.95,20.56-1.77,30.76-.44-1.07-2.7-1.76-3-1.42-2.89Z"/>
            <path class="cls-22" d="M11.67,18.8l1.27-3.46c7.39-3.5,19.43-3.74,28.71-.65l-.21,.65c.22,.06,.46-.3,.33-.47,.17,.13,1.23,1.99,1.73,3.46-11.76-1.58-22.21-1.46-31.82,.48Zm1.81-2.96l-.76,2.06c8.97-1.66,18.69-1.79,29.69-.41-.62-1.42-.96-1.87-1.21-2.23-8.98-2.94-20.57-2.71-27.73,.57Z"/>
          </g>
          <g>
            <g>
              <path class="cls-1" d="M18.62,37.73s-2.45-1.8-1.87-3.97c.9-10.14-10.84-.02-.89,7.37"/>
              <path class="cls-22" d="M18.79,37.43c-3.4-2.77-.48-4.04-1.97-6.99-3.6-4.65-8.56,4.65-2.17,10.15,.32,.3,.66,.59,1.03,.83,.37,.24,.71-.35,.34-.59-.11-.07-.21-.15-.31-.23-6.4-4.73-2.53-13.37,.44-9.93,.87,1.23,.16,2.72,.17,4.07,.15,1.27,.98,2.36,1.95,3.16,.35,.45,.98-.1,.51-.46h0Z"/>
            </g>
            <path class="cls-22" d="M16.05,30.08c-.83,.17-1.1,1.05-1.28,1.59-.22,.38,.37,.73,.59,.34,.13-.27,.21-.55,.31-.83,.01-.03-.04,.09,0,.02,0-.02,.01-.03,.02-.05,.1-.18,.06-.13,.19-.26,.04-.04,0,0-.02,.01,.08-.06,.16-.1,.25-.14,.47-.05,.54-.76-.06-.7h0Z"/>
            <path class="cls-22" d="M14.35,29.35c-.46,.18-1.45,2.33-.77,2.51,.63,.09,.47-1,.75-1.39-.02,.04-.01,.03,0,0,.06-.13,.13-.26,.21-.38,.04-.07-.05,.05,0,0,.04-.04,.07-.08,.11-.12,.04-.04,.01,0-.01,0,.44-.19,.13-.86-.29-.63h0Z"/>
          </g>
          <g>
            <g>
              <path class="cls-1" d="M36.26,37.73s2.45-1.8,1.87-3.97c-.9-10.14,10.84-.02,.89,7.37"/>
              <path class="cls-22" d="M36.43,38.02c3.63-3.04,1.24-4.03,2.05-6.9,2.55-4.58,7.56,4.37,.63,9.52,.04-.03,.05-.04,.04-.03-.08,.06-.2,.15-.3,.22-.37,.24-.02,.83,.34,.59,7.23-4.78,3.56-15.07-.79-11.46-1.79,2.14,.05,3.76-.79,5.6-.35,.75-.91,1.38-1.55,1.89-.03,.02,.08-.06,.03-.02-.15,.11-.22,.3-.12,.47,.09,.15,.32,.23,.47,.12h0Z"/>
            </g>
            <path class="cls-22" d="M38.65,30.73s.25,.09,.12,.04c.3,.16,.29,.15,.45,.43,.03,.07-.02-.02-.01-.03,.1,.27,.19,.57,.32,.83,.26,.42,.85-.03,.56-.42-.13-.5-.49-1.38-1.25-1.52-.42-.12-.61,.54-.18,.66Z"/>
            <path class="cls-22" d="M40.18,29.94c.11,.05,.32,.4,.37,.53,.15,.37,.24,.76,.33,1.15,.11,.43,.77,.25,.66-.18-.18-.75-.34-1.62-1.01-2.09-.38-.23-.73,.36-.34,.59h0Z"/>
          </g>
          <path class="cls-22" d="M9.72,38.44c1.39,2.36,2.84,5.09,4.57,7.25-2.42-1.5-4.05-4.54-4.57-7.25Z"/>
          <path class="cls-22" d="M5.7,40.73c1.23,3.51,3.61,6.89,5.66,9.93-2.78-2.42-5.34-6.14-5.66-9.93Z"/>
          <g class="cls-13">
            <path class="cls-3" d="M41.71,18.23c0,12.81-27.78,12.81-27.77,0,0-12.81,27.78-12.81,27.77,0Z"/>
          </g>
          <g>
            <path class="cls-22" d="M34.48,21.51l-3.05,1.89c0,1.36,1.38,2.37,2.68,1.97,1.78-.46,2-3.08,.37-3.86Z"/>
            <path class="cls-22" d="M31.6,23.82c1.65-1.02,3.31-2.05,4.96-3.07,.37-.23,.03-.82-.34-.59-1.65,1.02-3.31,2.05-4.96,3.07-.37,.23-.03,.82,.34,.59h0Z"/>
            <path class="cls-22" d="M29.86,22.34c.4-.97,1.92-2.38,2.92-2.69-.39,.97-1.93,2.37-2.92,2.69Z"/>
          </g>
          <g>
            <path class="cls-22" d="M20.92,21.51l3.05,1.89c0,1.36-1.38,2.37-2.68,1.97-1.78-.46-2-3.08-.37-3.86Z"/>
            <path class="cls-22" d="M24.14,23.23c-1.65-1.02-3.31-2.05-4.96-3.07-.37-.23-.72,.36-.34,.59,1.65,1.02,3.31,2.05,4.96,3.07,.37,.23,.72-.36,.34-.59h0Z"/>
            <path class="cls-22" d="M25.54,22.34c-1-.31-2.53-1.72-2.92-2.69,1,.31,2.53,1.72,2.92,2.69Z"/>
          </g>
          <g>
            <path class="cls-22" d="M29.45,25.88c-.85-.7-2.59-.92-3.82,.07-.6,.48,.87,1.78,1.94,1.76,1.07-.02,2.42-1.38,1.88-1.83Z"/>
            <path class="cls-12" d="M28.6,25.9c.05,.27-2.16,.34-2.12,.06-.05-.27,2.16-.34,2.12-.06Z"/>
          </g>
          <g>
            <path class="cls-8" d="M30.23,31.33c-.07,4.38-5.28,4.38-5.34,0,.07-4.38,5.28-4.38,5.34,0Z"/>
            <path class="cls-22" d="M27.56,35.01c-3.96-.07-3.95-7.28,0-7.35,3.96,.07,3.95,7.28,0,7.35Zm0-6.66c-3.06,.06-3.06,5.93,0,5.98,3.06-.06,3.06-5.93,0-5.98Z"/>
          </g>
        </g>
      </g>
    </g>
  </g>
</svg>