<?xml version="1.0" encoding="UTF-8"?>
<svg xmlns="http://www.w3.org/2000/svg" xmlns:xlink="http://www.w3.org/1999/xlink" viewBox="0 0 64 64">
  <defs>
    <style>
      .cls-1 {
        fill: url(#linear-gradient-2);
      }

      .cls-2, .cls-3, .cls-4 {
        fill: #fff;
      }

      .cls-5, .cls-6, .cls-7, .cls-4, .cls-8 {
        stroke: #42272f;
        stroke-linecap: round;
        stroke-linejoin: round;
      }

      .cls-5, .cls-9 {
        fill: #6cb0f0;
      }

      .cls-10 {
        fill: #a7a9ac;
      }

      .cls-10, .cls-11, .cls-12 {
        mix-blend-mode: overlay;
      }

      .cls-10, .cls-3 {
        opacity: .5;
      }

      .cls-11 {
        fill: #8c8587;
      }

      .cls-13 {
        clip-path: url(#clippath-2);
      }

      .cls-14 {
        isolation: isolate;
      }

      .cls-15, .cls-16 {
        fill: #2b2829;
      }

      .cls-15, .cls-17 {
        mix-blend-mode: screen;
      }

      .cls-18 {
        fill: #dcc2a7;
      }

      .cls-19 {
        clip-path: url(#clippath-1);
      }

      .cls-6 {
        fill: #c2325b;
      }

      .cls-20 {
        opacity: .3;
      }

      .cls-21 {
        fill: #e6cfd4;
        mix-blend-mode: multiply;
      }

      .cls-7 {
        fill: #ff75a8;
      }

      .cls-22 {
        clip-path: url(#clippath);
      }

      .cls-23, .cls-8 {
        fill: none;
      }

      .cls-24 {
        fill: #42272f;
      }

      .cls-25 {
        clip-path: url(#clippath-3);
      }

      .cls-26 {
        fill: url(#linear-gradient);
      }

      .cls-12 {
        fill: #998a8e;
      }
    </style>
    <linearGradient id="linear-gradient" x1="64" y1="34.03" x2="5.45" y2="34.03" gradientUnits="userSpaceOnUse">
      <stop offset="0" stop-color="#cf965b"/>
      <stop offset=".25" stop-color="#ca9257"/>
      <stop offset=".51" stop-color="#be864c"/>
      <stop offset=".78" stop-color="#a9733a"/>
      <stop offset="1" stop-color="#925d26"/>
    </linearGradient>
    <linearGradient id="linear-gradient-2" x1="61.28" y1="31.49" x2="1.36" y2="31.49" gradientUnits="userSpaceOnUse">
      <stop offset="0" stop-color="#e8b886"/>
      <stop offset=".25" stop-color="#e3b482"/>
      <stop offset=".5" stop-color="#d7a877"/>
      <stop offset=".76" stop-color="#c29464"/>
      <stop offset="1" stop-color="#a97c4e"/>
    </linearGradient>
    <clipPath id="clippath">
      <rect class="cls-23" x="3.68" y="2.69" width="52.7" height="52.7"/>
    </clipPath>
    <clipPath id="clippath-1">
      <path class="cls-5" d="M23.84,21.82c-2.65,.52-9.06,2.36-12.06,11.12-6.13,17.87,11.61,17.14,21.03,16.29,8.13-.73,13.83-2.69,15.59-7.52,2.14-5.85-5.82-23.56-24.56-19.89Z"/>
    </clipPath>
    <clipPath id="clippath-2">
      <path class="cls-5" d="M27.9,50.82c-1.05-4.02-3.71-7.6-7.26-9.76-.7-.42-1.68-.3-2.25,.29-.57,.59-.66,1.58-.2,2.26,2.27,3.43,3.36,7.64,3.03,11.74"/>
    </clipPath>
    <clipPath id="clippath-3">
      <path class="cls-5" d="M34.57,49.52c3.03-3.08,7.27-4.95,11.59-5.1,.75-.03,1.47,.51,1.67,1.23,.2,.72-.16,1.55-.81,1.91-4.45,2.43-8.51,5.59-11.96,9.3"/>
    </clipPath>
  </defs>
  <g class="cls-14">
    <g id="_Слой_2" data-name="Слой 2">
      <g id="_Слой_1-2" data-name="Слой 1">
        <g>
          <g>
            <path class="cls-26" d="M60.49,6.68c-1.75-1.6-4.41-2.62-7.38-2.62H14.98c-5.26,0-9.53,3.19-9.53,7.11V55.87c0,2.22,1.37,4.2,3.51,5.51,1.75,1.6,4.41,2.62,7.38,2.62H54.47c5.26,0,9.53-3.19,9.53-7.11V12.19c0-2.22-1.37-4.2-3.51-5.51Z"/>
            <path class="cls-1" d="M57.77,4.65c-.41-.37-.86-.71-1.36-1.02-1.75-1.6-4.41-2.62-7.38-2.62H10.89C5.64,1.02,1.36,4.21,1.36,8.13V52.83c0,2.22,1.37,4.2,3.51,5.51,.41,.37,.86,.71,1.36,1.02,1.75,1.6,4.41,2.62,7.38,2.62H51.74c5.26,0,9.53-3.19,9.53-7.11V10.16c0-2.22-1.37-4.2-3.51-5.51Z"/>
            <path class="cls-18" d="M47.66,0H9.53C4.28,0,0,3.19,0,7.11V51.81c0,3.92,4.28,7.11,9.53,7.11H47.66c5.26,0,9.53-3.19,9.53-7.11V7.11c0-3.92-4.28-7.11-9.53-7.11Z"/>
          </g>
          <path class="cls-12" d="M5.89,14.33c-.01-2.85,.17-6.06,2.96-8,2.12-1.47,5.21-1.81,8.09-1.99,6.68-.42,13.42-.36,20.09,.18,3.3,.26,6.79,.71,9.28,2.36,3.69,2.45,3.93,6.61,3.9,10.29-.08,9.24-.15,18.48-.23,27.72-.02,2.2-.08,4.51-1.54,6.42-1.54,2-4.45,3.25-7.46,3.8s-6.15,.48-9.24,.41c-5.15-.12-10.31-.24-15.43-.71-2.79-.26-9.22-.18-10.19-2.65-.66-1.68-.07-4.15-.07-5.9,0-2.02-.02-4.03-.03-6.05-.02-4.03-.04-8.06-.06-12.1-.02-4.59-.04-9.18-.07-13.78Z"/>
          <path class="cls-12" d="M20.65,20.31c-3.25-.39-6.54-1.19-8.94-2.87-2.39-1.69-3.67-4.43-2.38-6.69,.89-1.57,2.87-2.69,5.01-3.3,2.14-.61,4.45-.77,6.74-.89,5.74-.3,11.52-.39,17.22,.17,2.22,.22,4.55,.57,6.21,1.7,2.93,1.99,2.55,5.66,.4,8.14-5.33,6.17-16.02,4.75-24.26,3.75Z"/>
          <path class="cls-15" d="M9.75,46.11c-.57-1.77-.49-3.61-.4-5.43,.37-7.55,.74-15.09,1.11-22.64,.14-2.75,.39-5.74,2.81-7.82,2.2-1.89,5.7-2.58,9.03-2.93,4.04-.42,8.14-.47,12.2-.14,3.7,.3,7.69,1.06,9.9,3.3,1.87,1.9,2.03,4.41,2.12,6.77,.33,9.07,.66,18.2-1.13,27.18-.4,1.99-1,4.12-2.97,5.5-2.25,1.58-5.63,1.75-8.72,1.75-5.06,0-10.12-.25-15.13-.73-4.65-.45-7.58-.99-8.81-4.8Z"/>
          <path class="cls-21" d="M47.66,1.02h-1.63c4.51,0,8.17,2.73,8.17,6.1V51.81c0,3.37-3.66,6.1-8.17,6.1h1.63c4.51,0,8.17-2.73,8.17-6.1V7.11c0-3.37-3.66-6.1-8.17-6.1Z"/>
          <path class="cls-10" d="M44.83,56.21c2.15-.26,4.29-1.07,5.39-2.47,.86-1.09,1-2.4,1.05-3.66,.05-1.24,.02-2.47-.08-3.71-.07-.81-.31-1.78-1.32-2.08-.75-.23-1.65,.04-2.16,.52-.51,.47-.69,1.1-.74,1.7-.11,1.25,.25,2.52-.08,3.75-.39,1.42-1.68,2.63-3.23,3.51-1.13,.64-4.12,1.25-4.5,2.21,1.43,.58,4.04,.42,5.67,.23Z"/>
          <path class="cls-11" d="M3.88,2.71c-1.55,1.11-2.52,2.67-2.52,4.4v26.08c12.35-3.44,32.73-4.39,54.47,14.33v-14.97C26.86,28.05,11.39,13.17,3.88,2.71Z"/>
          <path class="cls-3" d="M3.58,9.23c.26-1.79,1.27-3.6,3.21-4.67,2.66-1.47,6.31-1.25,9.61-.96,1.02,.09,2.32,.39,2.36,1.15,.03,.67-.97,1.08-1.84,1.21-2.2,.34-4.63-.04-6.59,.77-1.42,.58-2.33,1.69-2.8,2.85s-.56,2.38-.73,3.58c-.07,.46-.15,.93-.44,1.34-1.08,1.49-2.05,.48-2.43-.37-.6-1.35-.53-3.5-.32-4.91Z"/>
          <g class="cls-17">
            <path class="cls-16" d="M36.44,9.78c.84,1.55-.18,3.32-2.26,3.94-2.08,.62-4.45-.13-5.29-1.69-.84-1.55,.18-3.32,2.26-3.94,2.08-.62,4.45,.13,5.29,1.69Z"/>
            <path class="cls-16" d="M43.37,11.71c.45,.84-.09,1.78-1.21,2.12-1.12,.34-2.39-.07-2.84-.91-.45-.84,.09-1.78,1.21-2.12,1.12-.34,2.39,.07,2.84,.91Z"/>
            <path class="cls-16" d="M40.11,16.13c.37,.7-.08,1.49-1.01,1.77-.93,.28-1.99-.06-2.37-.76-.37-.7,.08-1.49,1.01-1.77,.93-.28,1.99,.06,2.37,.76Z"/>
          </g>
          <g class="cls-17">
            <path class="cls-16" d="M23.64,45.38c.8,1.49-.17,3.17-2.16,3.77-1.99,.6-4.25-.13-5.05-1.61-.8-1.49,.17-3.17,2.16-3.77,1.99-.6,4.25,.13,5.05,1.61Z"/>
            <path class="cls-16" d="M20.79,40.39c.22,.41-.05,.87-.59,1.03-.54,.16-1.16-.03-1.38-.44-.22-.41,.05-.87,.59-1.03,.54-.16,1.16,.03,1.38,.44Z"/>
            <path class="cls-16" d="M15.3,41.5c.45,.84-.09,1.78-1.21,2.12-1.12,.34-2.39-.07-2.84-.91-.45-.84,.09-1.78,1.21-2.12,1.12-.34,2.39,.07,2.84,.91Z"/>
          </g>
          <g class="cls-20">
            <ellipse class="cls-21" cx="47.45" cy="37.02" rx="3.85" ry="2.87"/>
            <path class="cls-21" d="M53.92,29.6c.58,1.08-.12,2.3-1.57,2.74-1.45,.43-3.09-.09-3.67-1.17-.58-1.08,.12-2.3,1.57-2.74,1.45-.43,3.09,.09,3.67,1.17Z"/>
            <path class="cls-21" d="M45.56,30.99c.37,.7-.08,1.49-1.01,1.77-.93,.28-1.99-.06-2.37-.76-.37-.7,.08-1.49,1.01-1.77,.93-.28,1.99,.06,2.37,.76Z"/>
            <path class="cls-21" d="M10.65,25.55c.41,.75-.09,1.61-1.1,1.92-1.01,.3-2.16-.06-2.57-.82-.41-.75,.09-1.61,1.1-1.92,1.01-.3,2.16,.06,2.57,.82Z"/>
            <path class="cls-21" d="M11.29,21.09c.21,.39-.04,.84-.57,1-.53,.16-1.13-.03-1.34-.43-.21-.39,.04-.84,.57-1,.53-.16,1.13,.03,1.34,.43Z"/>
            <path class="cls-21" d="M6.59,20.15c.34,.63-.07,1.34-.91,1.59-.84,.25-1.79-.05-2.13-.68-.34-.63,.07-1.34,.91-1.59,.84-.25,1.79,.05,2.13,.68Z"/>
          </g>
        </g>
        <g id="_Слой_3" data-name="Слой 3">
          <g class="cls-22">
            <g>
              <g>
                <g>
                  <path class="cls-5" d="M35.19,59.1c.27-3.83,0-7.69-.8-11.4-3.04,.54-6.17,.6-9.4,.07-.86,3.7-4.91,8.69-7.96,10.96"/>
                  <path class="cls-2" d="M24.96,59.1c2.47-3.09,4.16-7.47,4.18-11.5,1.38-.07,2.77-.03,4.58,.21,.69,3.8,.69,7.73,0,11.54-2.88-.23-6.19-.11-8.76-.25Z"/>
                </g>
                <g>
                  <g>
                    <path class="cls-5" d="M25.94,22.48c2.54-5.43,7.7-10.75,12.78-12.63,3.95,4.88,6.68,12.51,5.5,18.88"/>
                    <path class="cls-7" d="M42.55,26.46c-.98-.71-1.81-1.06-2.78-1.22,.44-.48,.54-1.24,.11-1.73-.43-.48-1.32-.6-1.89-.26,.61-.32,.99-.92,.87-1.48-.12-.55-.73-1-1.39-1.02-.65-.01-1.49,.43-1.63,.98,.52-1.8,.09-3.09,.15-4.94,.07-2.26,1-4.32,2.61-5.34,3.69,5.35,5.07,10.18,3.96,15.01Z"/>
                  </g>
                  <g>
                    <path class="cls-9" d="M23.84,21.82c-2.65,.52-9.06,2.36-12.06,11.12-6.13,17.87,11.61,17.14,21.03,16.29,8.13-.73,13.83-2.69,15.59-7.52,2.14-5.85-5.82-23.56-24.56-19.89Z"/>
                    <g class="cls-19">
                      <path class="cls-2" d="M22.71,49.85c-3.97-1.87-6.34-6.24-5.83-10.6,.47-4.02,3.87-8.09,10.22-7.76,.36-2.03,2.34-4.16,4.58-4.19s4.28,2.05,4.26,4.44c3.97-2.25,7.83,.54,9.51,3.92s.85,7.68-1.53,10.61c-2.38,2.93-6.1,4.57-9.85,4.99-3.75,.42-7.77,.3-11.37-1.39Z"/>
                    </g>
                    <path class="cls-8" d="M23.84,21.82c-2.65,.52-9.06,2.36-12.06,11.12-6.13,17.87,11.61,17.14,21.03,16.29,8.13-.73,13.83-2.69,15.59-7.52,2.14-5.85-5.82-23.56-24.56-19.89Z"/>
                  </g>
                  <g>
                    <path class="cls-5" d="M22.11,22.45c-5.41-2.58-13.47-2.59-18.58-.82,.06,6.28,3.22,11.92,7.62,16.31"/>
                    <path class="cls-7" d="M12.03,36.32c.24-1.11,.61-1.86,1.2-2.55-.63-.09-1.2-.6-1.21-1.22s.56-1.23,1.2-1.31c-.66,.12-1.32-.1-1.6-.58-.28-.48-.13-1.18,.33-1.57,.46-.4,1.36-.57,1.82-.24-1.56-1.03-2.09-2.23-3.35-3.57-1.53-1.63-3.56-2.61-5.39-2.41,.84,6.15,3.02,10.54,6.99,13.46Z"/>
                  </g>
                  <g>
                    <g>
                      <path class="cls-24" d="M27.6,30.73c-.67-1-2.75-1.28-4.22-1.04-1.47,.24-2.83,1.1-3.68,2.35,.37,.03,.74,.06,1.12,.08-.4,.26-.59,.8-.42,1.25,2.05-1.72,5.13-2.09,7.53-.91,.12-.57,.06-1.14-.33-1.73Z"/>
                      <path class="cls-2" d="M22.1,30.85c-.06-.27,.33-.6,.87-.73s1.04-.01,1.1,.26-.33,.6-.87,.73-1.04,.01-1.1-.26Z"/>
                    </g>
                    <g>
                      <path class="cls-24" d="M35.52,31.26c.02-.27,.12-.53,.26-.77,.67-1.06,1.91-1.43,3.32-1.53,1.55-.11,3.11,.62,4.14,1.79-.37,.14-.74,.27-1.12,.45,.29,.32,.33,.83,.1,1.19-.86-.85-2.04-1.36-3.25-1.42-1.21-.05-2.43,.36-3.36,1.12-.09-.19-.12-.53-.1-.84Z"/>
                      <path class="cls-2" d="M37.13,30.19c-.06-.27,.33-.6,.87-.73,.55-.13,1.04-.01,1.1,.26,.06,.27-.33,.6-.87,.73-.55,.13-1.04,.01-1.1-.26Z"/>
                    </g>
                    <path class="cls-7" d="M31.28,31.49c.88-.34,1.99-.29,2.79,.21,.14,.09,.17,.27,.06,.39-.26,.3-.62,.53-1.05,.66-.28,.08-.59,.07-.87-.03-.37-.13-.72-.33-1.05-.59-.23-.18-.16-.54,.11-.65Z"/>
                    <path class="cls-6" d="M29.06,34.32c-1.03,1.79-1.75,3.83-1.61,5.89,.14,2.06,1.25,4.12,3.1,5.04s4.25,.28,5.46-1.4c1.82-2.54,1.84-6.32,.41-9.45-2.37-.08-4.74-.16-7.35-.08Z"/>
                    <path class="cls-4" d="M28.46,33.43c-.44,.56-.24,1.46,.31,1.92,.55,.46,1.35,.53,2.05,.37,.7-.17,1.33-.54,2.09-.93,.59,.4,1.2,.81,1.9,.99,.69,.18,1.5,.09,2.02-.4,.52-.49,.6-1.44,.05-1.9"/>
                  </g>
                  <g>
                    <path class="cls-24" d="M12.64,40.57c-2.74,.54-5.01,1.21-7.62,2.22,1.74-2.18,4.98-3.12,7.62-2.22h0Z"/>
                    <path class="cls-24" d="M14.25,43.6c-2.72,1.4-4.73,3.1-6.57,5.54,.47-3.04,3.5-5.59,6.57-5.54h0Z"/>
                    <path class="cls-24" d="M47.58,36.94c1.23-1.98,4.36-2.54,6.2-1.1-2.3,.02-4.04,.32-6.2,1.1h0Z"/>
                    <path class="cls-24" d="M47.93,42.15c2.09-1.26,5.24-.48,6.51,1.61-2.23-.94-4.09-1.4-6.51-1.61h0Z"/>
                  </g>
                </g>
                <g>
                  <path class="cls-9" d="M27.9,50.82c-1.05-4.02-3.71-7.6-7.26-9.76-.7-.42-1.68-.3-2.25,.29-.57,.59-.66,1.58-.2,2.26,2.27,3.43,3.36,7.64,3.03,11.74"/>
                  <g class="cls-13">
                    <path class="cls-2" d="M18.32,46.45c1.39,.66,3.13,.51,4.39-.36,1.26-.88,2.01-2.45,1.84-3.92-1.03-1.12-2.12-2.27-3.54-2.84-1.42-.56-3.27-.35-4.16,.89-.6,.84-.65,1.98-.38,2.98,.28,1,.3,2.54,1.85,3.26Z"/>
                  </g>
                  <path class="cls-8" d="M27.9,50.82c-1.05-4.02-3.71-7.6-7.26-9.76-.7-.42-1.68-.3-2.25,.29-.57,.59-.66,1.58-.2,2.26,2.27,3.43,3.36,7.64,3.03,11.74"/>
                </g>
                <g>
                  <path class="cls-9" d="M34.57,49.52c3.03-3.08,7.27-4.95,11.59-5.1,.75-.03,1.47,.51,1.67,1.23,.2,.72-.16,1.55-.81,1.91-4.45,2.43-8.51,5.59-11.96,9.3"/>
                  <g class="cls-25">
                    <path class="cls-2" d="M43.53,50.62c-1.33-1.81-2.14-4.01-2.19-6.51,2.09-.73,4.4-.82,6.55-.25,.68,.18,1.4,.47,1.75,1.08,.44,.75,.17,1.72-.26,2.48-.84,1.48-2.28,2.61-5.85,3.2Z"/>
                  </g>
                  <path class="cls-8" d="M34.57,49.52c3.03-3.08,7.27-4.95,11.59-5.1,.75-.03,1.47,.51,1.67,1.23,.2,.72-.16,1.55-.81,1.91-4.45,2.43-8.51,5.59-11.96,9.3"/>
                </g>
              </g>
              <g>
                <path class="cls-8" d="M8.26,16.34c3.63-5.92,10.58-9.64,17.51-9.38"/>
                <path class="cls-8" d="M22.39,3c.53,2.82,1.05,5.63,1.58,8.45"/>
                <path class="cls-8" d="M13.75,3.08c1.59,3.7,3.18,7.4,4.78,11.11"/>
                <path class="cls-8" d="M10.07,11.09c.9,1.23,1.81,2.46,2.71,3.7"/>
              </g>
              <g>
                <path class="cls-8" d="M41.21,7.89c3.05,.41,5.93,2.01,7.89,4.39,1.96,2.38,2.97,5.51,2.78,8.59"/>
                <path class="cls-8" d="M47.74,5.19c-1.41,2.18-2.83,4.36-4.24,6.54"/>
                <path class="cls-8" d="M53.8,8.87c-2.56,2.44-5.12,4.88-7.68,7.33"/>
                <path class="cls-8" d="M48.71,19.55c1.67-.89,3.34-1.79,5-2.68"/>
              </g>
            </g>
          </g>
        </g>
      </g>
    </g>
  </g>
</svg>