<?xml version="1.0" encoding="UTF-8"?>
<svg xmlns="http://www.w3.org/2000/svg" xmlns:xlink="http://www.w3.org/1999/xlink" viewBox="0 0 64 64">
  <defs>
    <style>
      .cls-1 {
        fill: url(#linear-gradient-2);
      }

      .cls-2 {
        fill: #ffc986;
      }

      .cls-2, .cls-3, .cls-4, .cls-5, .cls-6, .cls-7, .cls-8 {
        stroke: #42272f;
      }

      .cls-2, .cls-3, .cls-5, .cls-7, .cls-8 {
        stroke-linecap: round;
        stroke-linejoin: round;
      }

      .cls-9, .cls-10, .cls-7 {
        fill: #fff;
      }

      .cls-11 {
        fill: #e9876d;
      }

      .cls-12 {
        fill: #a7a9ac;
      }

      .cls-12, .cls-10 {
        opacity: .5;
      }

      .cls-12, .cls-13, .cls-14, .cls-15 {
        mix-blend-mode: overlay;
      }

      .cls-16 {
        fill: #68e1eb;
      }

      .cls-16, .cls-17, .cls-18 {
        mix-blend-mode: multiply;
      }

      .cls-19 {
        isolation: isolate;
      }

      .cls-17 {
        fill: #a4edf3;
      }

      .cls-20, .cls-21 {
        fill: #2b2829;
      }

      .cls-20, .cls-22 {
        mix-blend-mode: screen;
      }

      .cls-13 {
        fill: #848689;
      }

      .cls-23 {
        fill: #dcc2a7;
      }

      .cls-3 {
        fill: #c2325b;
      }

      .cls-14 {
        fill: #8c9699;
      }

      .cls-4 {
        fill: #ff4d4d;
      }

      .cls-4, .cls-6 {
        stroke-miterlimit: 10;
      }

      .cls-18 {
        opacity: .3;
      }

      .cls-5 {
        fill: #ff75a8;
      }

      .cls-24 {
        clip-path: url(#clippath);
      }

      .cls-6 {
        fill: #ffcd80;
      }

      .cls-25, .cls-8 {
        fill: none;
      }

      .cls-26 {
        fill: #42272f;
      }

      .cls-27 {
        fill: url(#linear-gradient);
      }

      .cls-15 {
        fill: #8c9899;
      }
    </style>
    <linearGradient id="linear-gradient" x1="64" y1="34.03" x2="5.45" y2="34.03" gradientUnits="userSpaceOnUse">
      <stop offset="0" stop-color="#cf965b"/>
      <stop offset=".25" stop-color="#ca9257"/>
      <stop offset=".51" stop-color="#be864c"/>
      <stop offset=".78" stop-color="#a9733a"/>
      <stop offset="1" stop-color="#925d26"/>
    </linearGradient>
    <linearGradient id="linear-gradient-2" x1="61.28" y1="31.49" x2="1.36" y2="31.49" gradientUnits="userSpaceOnUse">
      <stop offset="0" stop-color="#e8b886"/>
      <stop offset=".25" stop-color="#e3b482"/>
      <stop offset=".5" stop-color="#d7a877"/>
      <stop offset=".76" stop-color="#c29464"/>
      <stop offset="1" stop-color="#a97c4e"/>
    </linearGradient>
    <clipPath id="clippath">
      <rect class="cls-25" x="2.54" y="7.11" width="50.23" height="44.51"/>
    </clipPath>
  </defs>
  <g class="cls-19">
    <g id="_Слой_2" data-name="Слой 2">
      <g id="_Слой_1-2" data-name="Слой 1">
        <g>
          <g>
            <path class="cls-27" d="M60.49,6.68c-1.75-1.6-4.41-2.62-7.38-2.62H14.98c-5.26,0-9.53,3.19-9.53,7.11V55.87c0,2.22,1.37,4.2,3.51,5.51,1.75,1.6,4.41,2.62,7.38,2.62H54.47c5.26,0,9.53-3.19,9.53-7.11V12.19c0-2.22-1.37-4.2-3.51-5.51Z"/>
            <path class="cls-1" d="M57.77,4.65c-.41-.37-.86-.71-1.36-1.02-1.75-1.6-4.41-2.62-7.38-2.62H10.89C5.64,1.02,1.36,4.21,1.36,8.13V52.83c0,2.22,1.37,4.2,3.51,5.51,.41,.37,.86,.71,1.36,1.02,1.75,1.6,4.41,2.62,7.38,2.62H51.74c5.26,0,9.53-3.19,9.53-7.11V10.16c0-2.22-1.37-4.2-3.51-5.51Z"/>
            <path class="cls-23" d="M47.66,0H9.53C4.28,0,0,3.19,0,7.11V51.81c0,3.92,4.28,7.11,9.53,7.11H47.66c5.26,0,9.53-3.19,9.53-7.11V7.11c0-3.92-4.28-7.11-9.53-7.11Z"/>
          </g>
          <path class="cls-15" d="M5.89,14.33c-.01-2.85,.17-6.06,2.96-8,2.12-1.47,5.21-1.81,8.09-1.99,6.68-.42,13.42-.36,20.09,.18,3.3,.26,6.79,.71,9.28,2.36,3.69,2.45,3.93,6.61,3.9,10.29-.08,9.24-.15,18.48-.23,27.72-.02,2.2-.08,4.51-1.54,6.42-1.54,2-4.45,3.25-7.46,3.8-3.01,.55-6.15,.48-9.24,.41-5.15-.12-10.31-.24-15.43-.71-2.79-.26-9.22-.18-10.19-2.65-.66-1.68-.07-4.15-.07-5.9,0-2.02-.02-4.03-.03-6.05-.02-4.03-.04-8.06-.06-12.1-.02-4.59-.04-9.18-.07-13.78Z"/>
          <path class="cls-14" d="M20.65,20.31c-3.25-.39-6.54-1.19-8.94-2.87-2.39-1.69-3.67-4.43-2.38-6.69,.89-1.57,2.87-2.69,5.01-3.3,2.14-.61,4.45-.77,6.74-.89,5.74-.3,11.52-.39,17.22,.17,2.22,.22,4.55,.57,6.21,1.7,2.93,1.99,2.55,5.66,.4,8.14-5.33,6.17-16.02,4.75-24.26,3.75Z"/>
          <path class="cls-20" d="M9.75,46.11c-.57-1.77-.49-3.61-.4-5.43,.37-7.55,.74-15.09,1.11-22.64,.14-2.75,.39-5.74,2.81-7.82,2.2-1.89,5.7-2.58,9.03-2.93,4.04-.42,8.14-.47,12.2-.14,3.7,.3,7.69,1.06,9.9,3.3,1.87,1.9,2.03,4.41,2.12,6.77,.33,9.07,.66,18.2-1.13,27.18-.4,1.99-1,4.12-2.97,5.5-2.25,1.58-5.63,1.75-8.72,1.75-5.06,0-10.12-.25-15.13-.73-4.65-.45-7.58-.99-8.81-4.8Z"/>
          <path class="cls-16" d="M47.66,1.02h-1.63c4.51,0,8.17,2.73,8.17,6.1V51.81c0,3.37-3.66,6.1-8.17,6.1h1.63c4.51,0,8.17-2.73,8.17-6.1V7.11c0-3.37-3.66-6.1-8.17-6.1Z"/>
          <path class="cls-12" d="M44.83,56.21c2.15-.26,4.29-1.07,5.39-2.47,.86-1.09,1-2.4,1.05-3.66,.05-1.24,.02-2.47-.08-3.71-.07-.81-.31-1.78-1.32-2.08-.75-.23-1.65,.04-2.16,.52-.51,.47-.69,1.1-.74,1.7-.11,1.25,.25,2.52-.08,3.75-.39,1.42-1.68,2.63-3.23,3.51-1.13,.64-4.12,1.25-4.5,2.21,1.43,.58,4.04,.42,5.67,.23Z"/>
          <path class="cls-13" d="M3.88,2.71c-1.55,1.11-2.52,2.67-2.52,4.4v26.08c12.35-3.44,32.73-4.39,54.47,14.33v-14.97C26.86,28.05,11.39,13.17,3.88,2.71Z"/>
          <path class="cls-10" d="M3.58,9.23c.26-1.79,1.27-3.6,3.21-4.67,2.66-1.47,6.31-1.25,9.61-.96,1.02,.09,2.32,.39,2.36,1.15,.03,.67-.97,1.08-1.84,1.21-2.2,.34-4.63-.04-6.59,.77-1.42,.58-2.33,1.69-2.8,2.85s-.56,2.38-.73,3.58c-.07,.46-.15,.93-.44,1.34-1.08,1.49-2.05,.48-2.43-.37-.6-1.35-.53-3.5-.32-4.91Z"/>
          <g class="cls-22">
            <path class="cls-21" d="M36.44,9.78c.84,1.55-.18,3.32-2.26,3.94-2.08,.62-4.45-.13-5.29-1.69-.84-1.55,.18-3.32,2.26-3.94,2.08-.62,4.45,.13,5.29,1.69Z"/>
            <ellipse class="cls-21" cx="41.34" cy="12.32" rx="2.18" ry="1.63"/>
            <path class="cls-21" d="M40.11,16.13c.37,.7-.08,1.49-1.01,1.77-.93,.28-1.99-.06-2.37-.76-.37-.7,.08-1.49,1.01-1.77,.93-.28,1.99,.06,2.37,.76Z"/>
          </g>
          <g class="cls-22">
            <path class="cls-21" d="M23.64,45.38c.8,1.49-.17,3.17-2.16,3.77-1.99,.6-4.25-.13-5.05-1.61-.8-1.49,.17-3.17,2.16-3.77,1.99-.6,4.25,.13,5.05,1.61Z"/>
            <path class="cls-21" d="M20.79,40.39c.22,.41-.05,.87-.59,1.03s-1.16-.03-1.38-.44c-.22-.41,.05-.87,.59-1.03,.54-.16,1.16,.03,1.38,.44Z"/>
            <path class="cls-21" d="M15.3,41.5c.45,.84-.09,1.78-1.21,2.12-1.12,.34-2.39-.07-2.84-.91-.45-.84,.09-1.78,1.21-2.12,1.12-.34,2.39,.07,2.84,.91Z"/>
          </g>
          <g class="cls-18">
            <path class="cls-17" d="M51.02,35.95c.79,1.47-.17,3.15-2.14,3.74-1.98,.59-4.22-.12-5.01-1.6-.79-1.47,.17-3.15,2.14-3.74,1.98-.59,4.22,.12,5.01,1.6Z"/>
            <path class="cls-17" d="M53.92,29.6c.58,1.08-.12,2.3-1.57,2.74-1.45,.43-3.09-.09-3.67-1.17-.58-1.08,.12-2.3,1.57-2.74,1.45-.43,3.09,.09,3.67,1.17Z"/>
            <path class="cls-17" d="M45.56,30.99c.37,.7-.08,1.49-1.01,1.77-.93,.28-1.99-.06-2.37-.76-.37-.7,.08-1.49,1.01-1.77,.93-.28,1.99,.06,2.37,.76Z"/>
            <path class="cls-17" d="M10.65,25.55c.41,.75-.09,1.61-1.1,1.92-1.01,.3-2.16-.06-2.57-.82-.41-.75,.09-1.61,1.1-1.92,1.01-.3,2.16,.06,2.57,.82Z"/>
            <path class="cls-17" d="M11.29,21.09c.21,.39-.04,.84-.57,1-.53,.16-1.13-.03-1.34-.43-.21-.39,.04-.84,.57-1,.53-.16,1.13,.03,1.34,.43Z"/>
            <path class="cls-17" d="M6.59,20.15c.34,.63-.07,1.34-.91,1.59-.84,.25-1.79-.05-2.13-.68-.34-.63,.07-1.34,.91-1.59s1.79,.05,2.13,.68Z"/>
          </g>
        </g>
        <g id="_Слой_4" data-name="Слой 4">
          <g class="cls-24">
            <g>
              <g>
                <path class="cls-2" d="M40.42,51.68c-.49,.25-.98,.48-1.48,.69-4.42,1.88-9.18,2.22-14.17,1.47-1.36-.21-2.73-.49-4.13-.85,.46-6.75,1.3-12.23,3.23-14.15l11.49-1.37c2.57,2.39,4.02,7.74,5.05,14.2Z"/>
                <path class="cls-9" d="M38.94,52.37c-4.42,1.88-9.18,2.22-14.17,1.47,.03-.69,.05-1.39,.08-2.08,.09-2.53,.21-5.15,1.35-7.41,1.14-2.26,3.61-4.05,6.09-3.57,2.25,.44,3.79,2.55,4.72,4.66,.96,2.2,1.51,4.56,1.93,6.93Z"/>
                <path class="cls-8" d="M40.42,51.68c-.49,.25-.98,.48-1.48,.69-4.42,1.88-9.18,2.22-14.17,1.47-1.36-.21-2.73-.49-4.13-.85,.46-6.75,1.3-12.23,3.23-14.15l11.49-1.37c2.57,2.39,4.02,7.74,5.05,14.2Z"/>
              </g>
              <g>
                <path class="cls-2" d="M32.51,12.12c1.29,3,2.71,6.1,4.25,9.1,.78,1.52,1.6,3.02,2.44,4.47,.3,.52,.61,1.04,.92,1.54,2.78-.75,5.44-2.06,7.47-4.11,1.45-1.45,2.41-3.26,2.83-5.21,.27-1.29-.6-2.77-1.92-2.74-4.95,.12-10.28-.89-16-3.06Z"/>
                <path class="cls-4" d="M36.76,21.22c.78,1.52,1.6,3.02,2.44,4.47,3.37-.63,6.41-2.91,8.03-5.94,.31-.59-.3-1.24-.9-.94-2.98,1.47-6.23,2.28-9.57,2.41Z"/>
              </g>
              <g>
                <path class="cls-2" d="M19.93,14.2c-.73,3.19-1.57,6.49-2.54,9.72-.49,1.64-1.03,3.26-1.6,4.84-.2,.57-.41,1.13-.63,1.68-2.86-.23-5.73-1.05-8.09-2.69-1.69-1.17-2.96-2.77-3.72-4.62-.5-1.22,.09-2.82,1.39-3.04,5.51-.94,10.46-3.19,15.19-5.9Z"/>
                <path class="cls-4" d="M17.39,23.92c-.49,1.64-1.03,3.26-1.6,4.84-3.43-.02-6.82-1.7-8.96-4.39-.41-.52,.08-1.27,.72-1.09,3.19,.91,6.54,1.12,9.84,.65Z"/>
              </g>
              <g>
                <path class="cls-2" d="M44.24,31.08c-.52,2.33-2.28,3.96-4.22,5.21-6.58,4.24-14.45,4.89-21.98,3.39-2.22-.44-4.29-1.31-5.35-3.45-1.03-2.06-.69-4.52,.73-6.3-.22-1.1-.31-2.23-.34-3.35-.02-.88-.01-1.77,.09-2.65,.34-3.26,1.84-6.38,4.16-8.68,.1-.1,.21-.21,.32-.31,1.07-1,2.3-1.82,3.61-2.46,.69-.33,1.41-.6,2.14-.82,.86-.26,1.74-.43,2.63-.51,.48-.05,.96-.07,1.44-.06,.7,0,1.4,.06,2.09,.17,1.62,.26,3.2,.79,4.65,1.56,1.72,.91,3.26,2.15,4.48,3.66,.76,.94,1.4,1.97,1.91,3.06,.83,1.77,1.64,5.61,1.64,5.61,1.81,1.49,2.51,3.64,2,5.91Z"/>
                <g>
                  <path class="cls-11" d="M27.26,20.05c-.66,.42-1.59,.1-2.09-.5-.5-.6-.69-1.39-.84-2.16-.38-1.89-.66-3.81-.92-5.72,.86-.26,1.74-.43,2.63-.51,.48-.05,.96-.07,1.44-.06,.33,2.22,.51,4.47,.55,6.72,.02,.82-.07,1.79-.76,2.23Z"/>
                  <path class="cls-11" d="M21.86,18.52c-.15,.56-.56,1.08-1.12,1.21-.54,.13-1.12-.14-1.5-.54-.38-.41-.6-.94-.8-1.46-.33-.91-.6-1.84-.8-2.78,1.07-1,2.3-1.82,3.61-2.46,.28,1.43,.49,2.87,.65,4.31,.06,.57,.11,1.16-.04,1.72Z"/>
                  <path class="cls-11" d="M34.21,12.83c-.02,.51-.05,1.01-.11,1.51-.14,1.24-.43,2.54-1.31,3.41-.36,.35-.86,.63-1.34,.51-.43-.1-.73-.48-.94-.87-.71-1.28-.79-2.81-.86-4.28-.03-.62-.06-1.24-.09-1.85,1.62,.26,3.2,.79,4.65,1.56Z"/>
                </g>
                <path class="cls-8" d="M44.24,31.08c-.52,2.33-2.28,3.96-4.22,5.21-6.58,4.24-14.45,4.89-21.98,3.39-2.22-.44-4.29-1.31-5.35-3.45-1.03-2.06-.69-4.52,.73-6.3-.22-1.1-.31-2.23-.34-3.35-.02-.88-.01-1.77,.09-2.65,.34-3.26,1.84-6.38,4.16-8.68,.1-.1,.21-.21,.32-.31,1.07-1,2.3-1.82,3.61-2.46,.69-.33,1.41-.6,2.14-.82,.86-.26,1.74-.43,2.63-.51,.48-.05,.96-.07,1.44-.06,.7,0,1.4,.06,2.09,.17,1.62,.26,3.2,.79,4.65,1.56,1.72,.91,3.26,2.15,4.48,3.66,.76,.94,1.4,1.97,1.91,3.06,.83,1.77,1.64,5.61,1.64,5.61,1.81,1.49,2.51,3.64,2,5.91Z"/>
              </g>
              <g>
                <path class="cls-4" d="M29.28,26.67c.4,.07,.78,.22,.97,.55,.32,.56-.17,1.13-.7,1.3-.78,.25-1.74,.27-2.53,.06-.19-.05-.38-.12-.51-.26-.48-.51-.03-1.17,.47-1.41,.47-.23,1.05-.28,1.57-.29,.22,0,.48,0,.73,.05Z"/>
                <path class="cls-3" d="M29.71,37.9c-1.49,.03-3.03-.94-3.73-2.47-.59-1.29-.71-3.27-.87-4.92,.24,.09,.51,.12,.77,.13,1.04,.05,2.18-.33,2.72-1.22,.77,.69,1.81,.95,2.84,.81,.51-.07,1.02-.23,1.44-.55,.02-.02,.05-.03,.07-.05,.68,3.28,.26,8.18-3.23,8.27Z"/>
                <path class="cls-8" d="M23.82,29.39c.3,.44,.67,.86,1.16,1.07,.28,.12,.59,.17,.9,.18,1.04,.05,2.18-.32,2.72-1.22,.78,.69,1.81,.95,2.84,.81,.51-.07,1.03-.23,1.44-.54,.41-.31,.72-.8,.73-1.32"/>
                <path class="cls-26" d="M25.17,26.58c-1.54-.64-3.3-.59-4.89-.13-1.6,.46-3.06,1.31-4.44,2.23,.56-.02,1.08,.04,1.63,.18-.37,.56-.68,1.23-.76,1.9,2.31-2.18,5.33-3.67,8.47-4.18Z"/>
                <path class="cls-26" d="M31.13,25.75c1.23-1.12,2.91-1.66,4.57-1.76,1.66-.1,3.32,.21,4.93,.61-.54,.17-1.01,.4-1.47,.71,.54,.41,1.06,.93,1.35,1.54-2.91-1.28-6.25-1.67-9.38-1.1Z"/>
              </g>
              <path class="cls-7" d="M27.35,30.41c-.05,.24-.12,.47-.21,.69-.13,.31-.32,.58-.6,.76-.38-.34-.65-.78-.88-1.24,.07,.01,.14,.02,.22,.02,.49,.02,1.01-.05,1.48-.23Z"/>
              <path class="cls-7" d="M32.23,30.03c-.05,.24-.12,.48-.22,.71-.13,.31-.32,.58-.6,.76-.39-.34-.65-.79-.89-1.25,.3,.03,.6,.03,.9-.02,.27-.04,.55-.1,.8-.2Z"/>
              <g>
                <path class="cls-2" d="M24.57,47.62c-.58,.69-1.21,1.36-2.05,1.69-1.1,.43-2.4,.16-3.36-.52-.97-.69-1.63-1.73-2.04-2.84-.36-.96-.56-1.98-.72-3-.03-.15-.05-.3-.08-.45-1.76-.48-4.16-3.02-3.54-4.99,.83-2.61,5.35-1.04,6.86-.13,1.31,.78,2.33,2.17,2.35,3.69,.04,.05,.08,.1,.12,.16,.58,.82,.94,1.62,1.63,2.38"/>
                <path class="cls-9" d="M22.12,41.23c-.2,.23-.43,.45-.67,.64-1.34,1.07-3.24,1.39-5.05,1.08-.03-.15-.05-.3-.08-.45-1.76-.48-4.16-3.02-3.54-4.99,.83-2.61,5.35-1.04,6.86-.13,1.31,.78,2.33,2.17,2.35,3.69,.04,.05,.08,.1,.12,.16Z"/>
                <path class="cls-8" d="M15.09,36.06c-.34,1.2,.03,2.57,.93,3.42"/>
                <path class="cls-8" d="M17.79,36.6c-.3,.77-.09,1.72,.52,2.29"/>
                <path class="cls-8" d="M24.57,47.62c-.58,.69-1.21,1.36-2.05,1.69-1.1,.43-2.4,.16-3.36-.52-.97-.69-1.63-1.73-2.04-2.84-.36-.96-.56-1.98-.72-3-.03-.15-.05-.3-.08-.45-1.76-.48-4.16-3.02-3.54-4.99,.83-2.61,5.35-1.04,6.86-.13,1.31,.78,2.33,2.17,2.35,3.69,.04,.05,.08,.1,.12,.16,.58,.82,.94,1.62,1.63,2.38"/>
              </g>
              <g>
                <g>
                  <path class="cls-2" d="M43.38,36.82c-.21,1.08-.89,2.05-1.67,2.82,0,.03,0,.07,0,.1,.07,1.49,1.05,2.77,1.42,4.22,.3,1.17,.19,2.44-.32,3.53-.15,.34-.35,.67-.62,.93-.58,.57-1.36,.77-2.19,.81-.59-3.15-1.31-5.94-2.26-8.13l-.04-.39s-.09,0-.14,0c-.07,0-.13-.01-.2-.03-.85-.17-1.46-1.14-1.48-2.05,0-.19,0-.39,.04-.58,.12-.81,.53-1.58,1-2.27,.61-.9,1.38-1.73,2.37-2.18,.99-.45,2.23-.45,3.1,.21,.88,.67,1.2,1.91,.99,3Z"/>
                  <path class="cls-9" d="M43.38,36.82c-.21,1.08-.89,2.05-1.67,2.82,0,.03,0,.07,0,.1-.44,.23-.91,.42-1.4,.57-.98,.3-2.01,.43-2.95,.37-.85-.17-1.46-1.14-1.48-2.05-.03-1.02,.46-1.99,1.04-2.84,.61-.9,1.38-1.73,2.37-2.18,.99-.45,2.23-.45,3.1,.21,.88,.67,1.2,1.91,.99,3Z"/>
                  <path class="cls-8" d="M43.38,36.82c-.21,1.08-.89,2.05-1.67,2.82,0,.03,0,.07,0,.1,.07,1.49,1.05,2.77,1.42,4.22,.3,1.17,.19,2.44-.32,3.53-.15,.34-.35,.67-.62,.93-.58,.57-1.36,.77-2.19,.81-.59-3.15-1.31-5.94-2.26-8.13l-.04-.39s-.09,0-.14,0c-.07,0-.13-.01-.2-.03-.85-.17-1.46-1.14-1.48-2.05,0-.19,0-.39,.04-.58,.12-.81,.53-1.58,1-2.27,.61-.9,1.38-1.73,2.37-2.18,.99-.45,2.23-.45,3.1,.21,.88,.67,1.2,1.91,.99,3Z"/>
                </g>
                <path class="cls-8" d="M38.48,34.11c.3,.24,.47,.62,.51,1,.04,.38-.03,.77-.13,1.14"/>
                <path class="cls-8" d="M41.74,33.49c.31,.46,.43,1.03,.39,1.59-.04,.55-.22,1.09-.46,1.59"/>
              </g>
              <path class="cls-5" d="M32.63,35.71c-.53,1.26-1.45,2.15-2.92,2.19-1,.02-2.03-.41-2.8-1.16,.42-1.09,1.33-1.95,2.54-2.08,1.11-.12,2.39,.22,3.18,1.05Z"/>
              <g>
                <path class="cls-3" d="M9.84,43.77c-.34-.67-.46-1.61-.01-2.26,.52-.77,1.69-.84,2.32-.16,.61,.66,.7,2.1-.14,2.64,.68-.43,2.23-.44,2.53,.62,.43,1.55-1.49,2.38-2.61,1.59,.35,.25,.59,.52,.81,.89,.57,.95-.07,2.38-1.25,2.35-1.07-.03-1.78-1.36-1.43-2.31-.34,.93-1.75,1.88-2.73,1.29-.34-.21-.51-.63-.48-1.03,.07-1.07,1.05-1.74,2.06-1.72-.35,0-.81-.14-1.15-.23-.62-.17-1.11-.75-1.12-1.41-.05-2.04,2.52-1.61,3.21-.27Z"/>
                <path class="cls-6" d="M11.92,45.18c0,.74-.59,1.34-1.32,1.34s-1.32-.6-1.32-1.34,.59-1.34,1.32-1.34,1.32,.6,1.32,1.34Z"/>
              </g>
              <g>
                <path class="cls-3" d="M47.04,37.93c-.47-.45-.84-1.17-.67-1.83,.2-.78,1.14-1.18,1.85-.8,.69,.36,1.18,1.51,.65,2.19,.43-.55,1.69-1.01,2.23-.23,.8,1.14-.53,2.37-1.66,2.05,.36,.1,.63,.25,.92,.49,.74,.6,.63,1.96-.33,2.28-.88,.29-1.84-.59-1.83-1.46,0,.86-.88,2.04-1.84,1.84-.34-.07-.6-.37-.69-.7-.25-.89,.35-1.72,1.18-1.99-.28,.09-.7,.12-1,.15-.56,.04-1.12-.29-1.32-.82-.63-1.64,1.59-2.04,2.53-1.15Z"/>
                <path class="cls-6" d="M49.15,38.48c.22,.6-.09,1.27-.69,1.48-.59,.21-1.25-.11-1.46-.71-.22-.6,.09-1.27,.69-1.48,.59-.21,1.25,.11,1.46,.71Z"/>
              </g>
              <g>
                <path class="cls-8" d="M15.4,33.28c-2.3-.18-4.64,.21-6.76,1.11"/>
                <path class="cls-8" d="M15.61,35.32c-1.93,.85-3.65,2.16-4.98,3.8"/>
              </g>
              <g>
                <path class="cls-8" d="M40.42,29.15c1.9-1.17,4.27-1.58,6.45-1.1"/>
                <path class="cls-8" d="M41.52,31.78c1.66,.45,3.27,1.13,4.74,2.01"/>
              </g>
            </g>
          </g>
        </g>
      </g>
    </g>
  </g>
</svg>