<?xml version="1.0" encoding="UTF-8"?>
<svg xmlns="http://www.w3.org/2000/svg" xmlns:xlink="http://www.w3.org/1999/xlink" viewBox="0 0 64 64">
  <defs>
    <style>
      .cls-1 {
        fill: url(#linear-gradient-2);
      }

      .cls-2, .cls-3 {
        fill: #fff;
      }

      .cls-4 {
        fill: #fddfb3;
      }

      .cls-4, .cls-5 {
        opacity: .3;
      }

      .cls-4, .cls-6 {
        mix-blend-mode: multiply;
      }

      .cls-7 {
        fill: #8c8587;
      }

      .cls-7, .cls-8, .cls-9 {
        mix-blend-mode: overlay;
      }

      .cls-10 {
        fill: #eac72f;
      }

      .cls-8, .cls-3 {
        opacity: .5;
      }

      .cls-8, .cls-6 {
        fill: #fdd08c;
      }

      .cls-11 {
        fill: #ffb089;
      }

      .cls-12 {
        isolation: isolate;
      }

      .cls-13 {
        fill: #697791;
      }

      .cls-14, .cls-15 {
        fill: #2b2829;
      }

      .cls-14, .cls-16 {
        mix-blend-mode: screen;
      }

      .cls-17 {
        fill: #dcc2a7;
      }

      .cls-18 {
        fill: #2a3141;
      }

      .cls-19 {
        fill: #f9e4cf;
      }

      .cls-20 {
        fill: #ba5b21;
      }

      .cls-21 {
        fill: url(#linear-gradient);
      }

      .cls-22 {
        opacity: .25;
      }

      .cls-23 {
        fill: #301119;
      }

      .cls-9 {
        fill: #998a8e;
      }
    </style>
    <linearGradient id="linear-gradient" x1="64" y1="34.03" x2="5.45" y2="34.03" gradientUnits="userSpaceOnUse">
      <stop offset="0" stop-color="#cf965b"/>
      <stop offset=".25" stop-color="#ca9257"/>
      <stop offset=".51" stop-color="#be864c"/>
      <stop offset=".78" stop-color="#a9733a"/>
      <stop offset="1" stop-color="#925d26"/>
    </linearGradient>
    <linearGradient id="linear-gradient-2" x1="61.28" y1="31.49" x2="1.36" y2="31.49" gradientUnits="userSpaceOnUse">
      <stop offset="0" stop-color="#e8b886"/>
      <stop offset=".25" stop-color="#e3b482"/>
      <stop offset=".5" stop-color="#d7a877"/>
      <stop offset=".76" stop-color="#c29464"/>
      <stop offset="1" stop-color="#a97c4e"/>
    </linearGradient>
  </defs>
  <g class="cls-12">
    <g id="_Слой_2" data-name="Слой 2">
      <g id="_Слой_1-2" data-name="Слой 1">
        <g>
          <g>
            <path class="cls-21" d="M60.49,6.68c-1.75-1.6-4.41-2.62-7.38-2.62H14.98c-5.26,0-9.53,3.19-9.53,7.11V55.87c0,2.22,1.37,4.2,3.51,5.51,1.75,1.6,4.41,2.62,7.38,2.62H54.47c5.26,0,9.53-3.19,9.53-7.11V12.19c0-2.22-1.37-4.2-3.51-5.51Z"/>
            <path class="cls-1" d="M57.77,4.65c-.41-.37-.86-.71-1.36-1.02-1.75-1.6-4.41-2.62-7.38-2.62H10.89C5.64,1.02,1.36,4.21,1.36,8.13V52.83c0,2.22,1.37,4.2,3.51,5.51,.41,.37,.86,.71,1.36,1.02,1.75,1.6,4.41,2.62,7.38,2.62H51.74c5.26,0,9.53-3.19,9.53-7.11V10.16c0-2.22-1.37-4.2-3.51-5.51Z"/>
            <path class="cls-17" d="M47.66,0H9.53C4.28,0,0,3.19,0,7.11V51.81c0,3.92,4.28,7.11,9.53,7.11H47.66c5.26,0,9.53-3.19,9.53-7.11V7.11c0-3.92-4.28-7.11-9.53-7.11Z"/>
          </g>
          <path class="cls-9" d="M5.89,14.33c-.01-2.85,.17-6.06,2.96-8,2.12-1.47,5.21-1.81,8.09-1.99,6.68-.42,13.42-.36,20.09,.18,3.3,.26,6.79,.71,9.28,2.36,3.69,2.45,3.93,6.61,3.9,10.29-.08,9.24-.15,18.48-.23,27.72-.02,2.2-.08,4.51-1.54,6.42-1.54,2-4.45,3.25-7.46,3.8s-6.15,.48-9.24,.41c-5.15-.12-10.31-.24-15.43-.71-2.79-.26-9.22-.18-10.19-2.65-.66-1.68-.07-4.15-.07-5.9,0-2.02-.02-4.03-.03-6.05-.02-4.03-.04-8.06-.06-12.1-.02-4.59-.04-9.18-.07-13.78Z"/>
          <path class="cls-9" d="M20.65,20.31c-3.25-.39-6.54-1.19-8.94-2.87-2.39-1.69-3.67-4.43-2.38-6.69,.89-1.57,2.87-2.69,5.01-3.3,2.14-.61,4.45-.77,6.74-.89,5.74-.3,11.52-.39,17.22,.17,2.22,.22,4.55,.57,6.21,1.7,2.93,1.99,2.55,5.66,.4,8.14-5.33,6.17-16.02,4.75-24.26,3.75Z"/>
          <path class="cls-14" d="M9.75,46.11c-.57-1.77-.49-3.61-.4-5.43,.37-7.55,.74-15.09,1.11-22.64,.14-2.75,.39-5.74,2.81-7.82,2.2-1.89,5.7-2.58,9.03-2.93,4.04-.42,8.14-.47,12.2-.14,3.7,.3,7.69,1.06,9.9,3.3,1.87,1.9,2.03,4.41,2.12,6.77,.33,9.07,.66,18.2-1.13,27.18-.4,1.99-1,4.12-2.97,5.5-2.25,1.58-5.63,1.75-8.72,1.75-5.06,0-10.12-.25-15.13-.73-4.65-.45-7.58-.99-8.81-4.8Z"/>
          <path class="cls-6" d="M47.66,1.02h-1.63c4.51,0,8.17,2.73,8.17,6.1V51.81c0,3.37-3.66,6.1-8.17,6.1h1.63c4.51,0,8.17-2.73,8.17-6.1V7.11c0-3.37-3.66-6.1-8.17-6.1Z"/>
          <path class="cls-8" d="M44.83,56.21c2.15-.26,4.29-1.07,5.39-2.47,.86-1.09,1-2.4,1.05-3.66,.05-1.24,.02-2.47-.08-3.71-.07-.81-.31-1.78-1.32-2.08-.75-.23-1.65,.04-2.16,.52-.51,.47-.69,1.1-.74,1.7-.11,1.25,.25,2.52-.08,3.75-.39,1.42-1.68,2.63-3.23,3.51-1.13,.64-4.12,1.25-4.5,2.21,1.43,.58,4.04,.42,5.67,.23Z"/>
          <path class="cls-7" d="M3.88,2.71c-1.55,1.11-2.52,2.67-2.52,4.4v26.08c12.35-3.44,32.73-4.39,54.47,14.33v-14.97C26.86,28.05,11.39,13.17,3.88,2.71Z"/>
          <path class="cls-3" d="M3.58,9.23c.26-1.79,1.27-3.6,3.21-4.67,2.66-1.47,6.31-1.25,9.61-.96,1.02,.09,2.32,.39,2.36,1.15,.03,.67-.97,1.08-1.84,1.21-2.2,.34-4.63-.04-6.59,.77-1.42,.58-2.33,1.69-2.8,2.85s-.56,2.38-.73,3.58c-.07,.46-.15,.93-.44,1.34-1.08,1.49-2.05,.48-2.43-.37-.6-1.35-.53-3.5-.32-4.91Z"/>
          <g class="cls-16">
            <ellipse class="cls-15" cx="32.66" cy="10.91" rx="4.07" ry="3.03"/>
            <path class="cls-15" d="M43.37,11.71c.45,.84-.09,1.78-1.21,2.12-1.12,.34-2.39-.07-2.84-.91-.45-.84,.09-1.78,1.21-2.12,1.12-.34,2.39,.07,2.84,.91Z"/>
            <path class="cls-15" d="M40.11,16.13c.37,.7-.08,1.49-1.01,1.77-.93,.28-1.99-.06-2.37-.76-.37-.7,.08-1.49,1.01-1.77,.93-.28,1.99,.06,2.37,.76Z"/>
          </g>
          <g class="cls-16">
            <path class="cls-15" d="M23.64,45.38c.8,1.49-.17,3.17-2.16,3.77-1.99,.6-4.25-.13-5.05-1.61-.8-1.49,.17-3.17,2.16-3.77,1.99-.6,4.25,.13,5.05,1.61Z"/>
            <path class="cls-15" d="M20.79,40.39c.22,.41-.05,.87-.59,1.03-.54,.16-1.16-.03-1.38-.44-.22-.41,.05-.87,.59-1.03,.54-.16,1.16,.03,1.38,.44Z"/>
            <path class="cls-15" d="M15.3,41.5c.45,.84-.09,1.78-1.21,2.12-1.12,.34-2.39-.07-2.84-.91-.45-.84,.09-1.78,1.21-2.12,1.12-.34,2.39,.07,2.84,.91Z"/>
          </g>
          <path class="cls-4" d="M51.02,35.95c.79,1.47-.17,3.15-2.14,3.74-1.98,.59-4.22-.12-5.01-1.6-.79-1.47,.17-3.15,2.14-3.74,1.98-.59,4.22,.12,5.01,1.6Z"/>
          <path class="cls-4" d="M53.92,29.6c.58,1.08-.12,2.3-1.57,2.74-1.45,.43-3.09-.09-3.67-1.17-.58-1.08,.12-2.3,1.57-2.74,1.45-.43,3.09,.09,3.67,1.17Z"/>
          <path class="cls-4" d="M45.56,30.99c.37,.7-.08,1.49-1.01,1.77-.93,.28-1.99-.06-2.37-.76-.37-.7,.08-1.49,1.01-1.77,.93-.28,1.99,.06,2.37,.76Z"/>
          <path class="cls-4" d="M10.65,25.55c.41,.75-.09,1.61-1.1,1.92-1.01,.3-2.16-.06-2.57-.82-.41-.75,.09-1.61,1.1-1.92,1.01-.3,2.16,.06,2.57,.82Z"/>
          <path class="cls-4" d="M11.29,21.09c.21,.39-.04,.84-.57,1-.53,.16-1.13-.03-1.34-.43-.21-.39,.04-.84,.57-1,.53-.16,1.13,.03,1.34,.43Z"/>
          <path class="cls-4" d="M6.59,20.15c.34,.63-.07,1.34-.91,1.59-.84,.25-1.79-.05-2.13-.68-.34-.63,.07-1.34,.91-1.59,.84-.25,1.79,.05,2.13,.68Z"/>
        </g>
        <g>
          <path class="cls-13" d="M39.35,14.34c-1.5,2.51-9.13,.49-7.58-2.98h0c-1.91,1.13-2.84,2.64-2.84,2.64l-2.98,.43s.5-3,2.72-5.34c2.61-2.75,7.85-4.1,10.21-.75,1.54,1.99,1.57,4.7,.46,6Z"/>
          <g class="cls-22">
            <path d="M39.35,14.34c-1.33,1.56-3.58,1.45-5.85,.33-1.1-.54-1.97-1.34-1.73-2.26,.45,1.83,4.04,2.16,5.66,1.29,1.62-.87,2.11-3.84,1.19-5.25,0,0,.1-.04,.26-.11,1.54,1.99,1.57,4.7,.46,6Z"/>
          </g>
          <path class="cls-23" d="M36.65,15.84c-1.87,0-5.61-1.36-5.43-3.73-1.65,1.19-1.78,2.01-2.24,2.21-.12-.03-3.28,.6-3.26,.34-.23-.46,.39-3.15,2.72-5.78,3.83-4.16,11.3-3.85,11.97,2.41,.14,1.31-.15,2.5-.81,3.27h0c-.73,.86-1.75,1.29-2.95,1.29Zm-4.88-4.8c.75,.1-.2,1.02,.16,1.69,1.01,2.39,6.02,3.31,7.18,1.41,0,0,0,0,0,0,.54-.63,.78-1.67,.66-2.78-1.78-8.87-12.49-3.6-13.41,2.7l2.38-.35c.24-.33,1.39-1.91,3.03-2.66Z"/>
          <path class="cls-23" d="M35.67,13.09c-.36,0-.44-.55-.08-.63,.74-.17,1.18-.96,.68-1.61-.75-.93-2.93-.8-3.73,.05-.21,.19-.37,.4-.49,.61-.19,.37-.77,.06-.57-.3,.15-.28,.36-.54,.62-.78,1.06-1.09,3.73-1.21,4.68,.05,.8,1.01,.1,2.42-1.12,2.62Z"/>
          <path class="cls-23" d="M41.85,32.15c-5.64-.12-30.48,.42-35.76-.64-4.1-.17-4-5.25-.6-5.54,3.28,.06,1.71-1.99,5.2-4,.67-.42,1.35-.68,2.01-.93,5.85-2.13,2.1-8.01,14.78-8.12,12.7,.12,8.92,5.97,14.78,8.12,.66,.25,1.34,.5,2.01,.93,3.49,2.02,1.9,4.05,5.2,4,1.41,.02,2.47,1.18,2.51,2.76,.04,1.54-1.01,2.48-3.11,2.77-1.78,.25-6.73,.62-7.01,.64Zm-28.73-1.28c5.45-.11,30.52,.41,35.56-.63,2.04-.29,2.02-1.09,2.01-1.47-.02-.75-.41-1.51-1.25-1.52-3.95,.09-2.71-2.29-5.86-4.2-.56-.35-1.15-.57-1.77-.81-6.35-2.23-2.61-8.14-14.33-8.03-11.68-.12-7.99,5.79-14.33,8.03-.63,.23-1.22,.46-1.77,.81-3.16,1.91-1.9,4.29-5.86,4.2-.84,.01-1.23,.77-1.25,1.52-.01,.38-.03,1.18,2.01,1.47,1.62,.23,6.47,.6,6.86,.63Z"/>
          <path class="cls-13" d="M41.85,31.51s5.2-.39,6.92-.63c1.72-.24,2.59-.91,2.56-2.12-.03-1.22-.78-2.12-1.88-2.14-3.53,.14-2.33-2.26-5.53-4.1-1.92-1.22-4.15-.99-5.51-3.78-1.99-6.91-19.88-6.91-21.88,0-1.93,3.83-6.44,2.42-8.28,6.83-1.2,1.96-4.49-.14-4.64,3.19-1.68,4.8,35.27,2.07,38.23,2.76Z"/>
          <g class="cls-22">
            <path d="M51.34,28.75c.03,1.22-.84,1.88-2.56,2.12-1.72,.24-6.92,.63-6.92,.63-4.5-.59-36.1,1.62-38.09-1.96,5.81,1.41,30.43,.63,36.56,.82,0,0,5.2-.39,6.92-.63,2.2-.25,3.01-1.49,2.35-3.12,1.03,.09,1.71,.97,1.75,2.13Z"/>
          </g>
          <g class="cls-22">
            <path d="M39.24,19.98c-1.95-.68-2.53-3.43-4.1-4.86,2.27,1.16,2.84,3.15,4.1,4.86Z"/>
          </g>
          <g>
            <path class="cls-23" d="M27.48,51.21c-4.36,0-9.15-1.14-12.18-2.21-.26-.09-.43-.33-.43-.6v-2.03c0-.35,.29-.64,.64-.64h23.93c.35,0,.64,.29,.64,.64v2.03c0,.27-.17,.51-.43,.6-3.03,1.07-7.82,2.21-12.18,2.21Zm-11.33-3.27c6.13,2.5,16.52,2.49,22.65,0v-.94H16.15v.94Z"/>
            <path class="cls-20" d="M39.45,46.37v2.03c-6.45,2.73-17.49,2.73-23.93,0v-2.03h23.93Z"/>
            <g class="cls-22">
              <path d="M39.45,47.61v.79c-2.68,.95-7.48,2.18-12.02,2.17,4.54-.46,9.03-1.81,12.02-2.96Z"/>
            </g>
            <path class="cls-23" d="M27.48,52.75c-3.4-.06-3.4-5.11,0-5.17,3.4,.06,3.4,5.11,0,5.17Zm0-3.89c-1.72,.03-1.72,2.58,0,2.61,1.72-.03,1.72-2.58,0-2.61Z"/>
            <path class="cls-10" d="M29.42,50.16c-.04,2.56-3.85,2.56-3.89,0,.04-2.56,3.85-2.56,3.89,0Z"/>
            <g class="cls-5">
              <path class="cls-2" d="M25.97,49.36c-.56,1.16,.62,1.73,1.19,.58,.56-1.16-.62-1.73-1.19-.58Z"/>
            </g>
            <g class="cls-22">
              <path d="M29.42,50.16c.04,1.92-2.61,2.66-3.59,1.04,1.68,.7,3.35-1.36,2.34-2.86,.73,.28,1.25,.99,1.25,1.82Z"/>
            </g>
            <path class="cls-23" d="M11.93,30.79c-.63,0-1.16-.21-1.54-.62C6.8,26.73-.06,11.89,11.01,14.54c3.17,.68,9.1,2.47,13.19,6.78,.24,.25,.23,.64,0,.89-.87,.88-8.55,8.58-12.27,8.58Zm-3.37-15.28c-5.68-.04,.41,11.67,2.76,13.78,2.88,1.03,8.71-5.04,11.52-7.54-4.89-4.38-9.84-5.75-14.28-6.24Z"/>
            <path class="cls-13" d="M23.74,21.76c-3.41-3.92-19.03-11.51-18.09-3.11,.28,3.55,2.75,8.47,5.21,11.09s12.88-7.98,12.88-7.98Z"/>
            <path class="cls-23" d="M11.93,29.26c-2.58-1.08-8.59-13.88-3.37-13.49,2.82,.21,10.09,1.9,13.62,5.99-2.18,2.95-8.13,7.38-10.24,7.49Zm-4.03-12.13c-.54,3.22,1.91,7.97,4.26,10.82,1.41-.29,4.91-2.85,8.41-6.14-4.49-3.26-9.38-4.86-12.67-4.68Z"/>
            <path class="cls-18" d="M11.91,28.62c-2.52-2.93-5.61-8.54-4.47-11.93,2.57-1.06,10.25,1.8,14.1,5.09-3.62,3.48-7.98,6.85-9.63,6.84Z"/>
            <g class="cls-5">
              <path d="M8.95,17.89c-1.06,2.97,1.36,7.61,3.43,10.66-.18,.05-.33,.07-.47,.07-2.52-2.93-5.61-8.54-4.47-11.93,2.57-1.06,10.25,1.8,14.1,5.09,0,0-.02,.02-.02,.02-3.67-2.46-10.26-4.93-12.56-3.91Z"/>
            </g>
            <path class="cls-23" d="M43.03,30.79c-3.71,0-11.4-7.7-12.27-8.58-.24-.25-.25-.64,0-.89,4.09-4.31,10.02-6.1,13.19-6.78,11.08-2.65,4.22,12.19,.62,15.63-.38,.41-.91,.62-1.54,.62Zm-10.91-9.03c2.81,2.5,8.64,8.57,11.52,7.54,2.52-2.68,4.78-7.48,5.04-10.7,.1-1.32-.09-2.18-.6-2.62-3.3-1.61-11.91,1.91-15.95,5.78Z"/>
            <path class="cls-13" d="M31.22,21.76c3.41-3.92,19.03-11.51,18.09-3.11-.28,3.55-2.75,8.47-5.21,11.09s-12.88-7.98-12.88-7.98Z"/>
            <path class="cls-23" d="M43.03,29.26c-2.12-.12-8.07-4.55-10.25-7.49,3.53-4.09,10.78-5.77,13.62-5.99,5.22-.39-.78,12.38-3.37,13.49Zm.02-.64h0Zm-8.67-6.8c3.49,3.29,7,5.85,8.41,6.14,2.36-2.85,4.81-7.6,4.26-10.82-3.29-.17-8.18,1.42-12.67,4.68Zm12.69-4.67h0Z"/>
            <path class="cls-18" d="M43.05,28.62c2.52-2.93,5.61-8.54,4.47-11.93-2.57-1.06-10.25,1.8-14.1,5.09,3.62,3.48,7.98,6.85,9.63,6.84Z"/>
            <g class="cls-5">
              <path d="M46.33,17.36c-2.14,.46-7.2,1.84-10.98,5.11,2.61,2.51,5.63,4.97,7.71,6.14,0,0,0,0,0,0-1.65,0-6.01-3.36-9.63-6.84,2.86-2.86,13.71-7.08,14.3-4.65-.41,.04-.87,.12-1.4,.23Z"/>
            </g>
            <path class="cls-23" d="M27.48,48.92c-10.5-.25-13.49-1.11-16.4-3.48-1.67,.42-2.23-1.21-1.99-2.58-1.28-.21-1.71-1.56-1.22-2.62-1.34-.49-1.5-2.08-.53-2.99-.77-1.07-.74-2.62,.28-3.46-.49-1,0-2.84,1.12-3.32-.15-1.31,1.08-2.7,1.94-3.02,1.86-2.44,7.06-7.78,16.79-7.78s14.93,5.34,16.79,7.78c.83,.32,2.09,1.68,1.94,3.02,1.13,.48,1.61,2.32,1.12,3.32,1.02,.85,1.05,2.4,.28,3.46,.35,.38,.74,.99,.61,1.71-.13,.69-.66,1.07-1.14,1.28,.49,1.07,.06,2.42-1.22,2.62,.25,1.37-.32,2.99-1.99,2.58-2.9,2.37-5.91,3.23-16.4,3.48Zm-15.58-4.51c2.01,4.23,29.19,4.21,31.16,0,.38-.83,1.11,.05,1.47-.27,.17-.4,.09-1.18-.06-1.78-.14-.47,.35-.94,.81-.78,.04,.01,.42,.12,.68-.18,.33-.53-1.15-1.89,.14-2.2,.27-.04,.82-.23,.86-.48h0c.06-.32-.4-.75-.58-.87-.84-.88,.42-.96,.5-2.29-.1-1.15-1.37-1-.88-1.96,.01-.02,.4-.65,.15-1.36-.23-.65-.78-.75-.78-.75-.23-.03-.46-.15-.54-.37-.17-.65,.33-.5-.04-1.46-7.89-10.63-24.77-12.15-33.18-1.33-.74,.55-1.72,.93-1.57,2.21,.15,.17,.17,.38,.08,.6-.09,.22-.31,.34-.55,.36-.91,.17-1.05,1.56-.63,2.11,.48,.96-.78,.8-.88,1.95,.08,1.33,1.34,1.42,.51,2.29-.2,.14-.64,.57-.58,.87,.2,.53,1.14,.31,1.35,.84,.26,.53-.64,1.42-.35,1.84,.57,.52,.86-.13,1.31,.32,.17,.16,.24,.41,.18,.63-.14,.62-.27,1.44-.01,1.83,.5,.08,1.12-.5,1.42,.22Zm31.16,.01h0s0,0,0,0Zm4.54-5.58h0Z"/>
            <path class="cls-13" d="M47.59,38.85c-.15,.82-1.41,1-1.41,1,.66,.97,.76,2.71-1.1,2.36,.24,.78,.55,3.37-1.45,2.5-3.35,5.2-30.47,4.36-32.32,0-2,.88-1.69-1.73-1.45-2.5-1.87,.34-1.76-1.39-1.1-2.36-1.67-.24-1.84-1.6-.56-2.51-.93-.97-1.15-2.54,.2-3.37-.67-.92-.3-2.88,1.08-3.09-.51-1.18,.74-2.63,1.61-2.92,2.59-3.47,7.85-7.65,16.38-7.65s13.78,4.18,16.38,7.65c.97,.35,2.1,1.78,1.61,2.92,1.39,.21,1.75,2.18,1.08,3.09,1.36,.84,1.12,2.41,.21,3.37,0,0,.99,.69,.84,1.51Z"/>
            <path class="cls-19" d="M42.66,45.63c-2.61,3.39-27.8,3.37-30.36,0,3.07-14.57,27.3-14.56,30.36,0Z"/>
            <path class="cls-23" d="M25.94,41.57c-.59,.01-1.11-.33-1.25-.89-.05-.17,.06-.35,.23-.39,.17-.05,.35,.06,.39,.23,.27,.83,1.61,.28,1.89-.26,.06-.1,.16-.17,.28-.17s.22,.06,.28,.17c.28,.54,1.62,1.08,1.89,.26,.05-.17,.22-.27,.39-.23,.17,.05,.27,.22,.23,.39-.32,1.25-2.05,1.03-2.78,.25-.39,.39-.98,.64-1.54,.64Z"/>
            <path class="cls-23" d="M27.48,40.73c-.18,0-.32-.14-.32-.32v-3.82c0-.18,.14-.32,.32-.32s.32,.14,.32,.32v3.82c0,.18-.14,.32-.32,.32Z"/>
            <path class="cls-11" d="M38.5,35.05c.02,.99-3.17,.99-3.16,0-.02-.99,3.17-.99,3.16,0Z"/>
            <path class="cls-11" d="M16.46,35.05c-.02,.99,3.17,.99,3.16,0,.02-.99-3.17-.99-3.16,0Z"/>
            <path class="cls-23" d="M29.41,34.73c1.67,.48-.92,3.2-1.93,2.93-1.02,.28-3.6-2.45-1.93-2.93,1.26-.14,2.6-.14,3.86,0Z"/>
            <g class="cls-22">
              <path d="M47.59,38.85c-.15,.82-1.41,1-1.41,1,.66,.97,.76,2.71-1.1,2.36,.24,.78,.55,3.37-1.45,2.5-2.29,2.29-4.43,2.83-12.45,3.5,7.04-.96,10.49-3.15,11.35-4.48,.99-.17,2.02-.85,1.25-2.07,.61-.23,2.09-.95,1.08-1.97,.71-.42,1.6-1.46,.31-2.1,.54-.46,1.48-2.88-.18-3.13,.59-.71,1.2-2.71-.56-2.9,0,0,1.34-1.38,.56-2.75,.61,.55,.64,2,.46,2.07,1.39,.21,1.75,2.18,1.08,3.09,1.36,.84,1.12,2.41,.21,3.37,0,0,.99,.69,.84,1.51Z"/>
            </g>
            <path class="cls-23" d="M21.91,33.28c-1.6,0-2.9-1.3-2.9-2.9,0-.18,.14-.32,.32-.32s.32,.14,.32,.32c.05,2.98,4.48,2.98,4.53,0,0-.18,.14-.32,.32-.32s.32,.14,.32,.32c0,1.6-1.3,2.9-2.9,2.9Z"/>
            <path class="cls-23" d="M33.05,33.28c-1.6,0-2.9-1.3-2.9-2.9,0-.18,.14-.32,.32-.32s.32,.14,.32,.32c.05,2.98,4.48,2.98,4.53,0,0-.18,.14-.32,.32-.32s.32,.14,.32,.32c0,1.6-1.3,2.9-2.9,2.9Z"/>
            <path class="cls-23" d="M14.66,51.92c-3.58-.08-5.8-.73-5.82-3.98h0c0-2.21,1.13-3.2,2.93-2.82,1.59,.25,4,.48,5.73,.54,6.33,.42,4.45,6.77-2.84,6.26Zm-3.63-5.59c-.86,.03-.77,.54-.91,1.67-.04,.72,.14,1.27,.52,1.66,.99,1.59,11.01,1.46,9.15-1.93-.41-.46-1.28-.75-2.34-.79-2.01-.05-4.55-.39-6.43-.61Zm-1.54,1.64h0Z"/>
            <path class="cls-13" d="M9.49,47.97c.1-1.99,.66-2.46,2.19-2.22,1.52,.24,3.96,.49,5.8,.55s3.3,.84,3.19,2.17c.26,3.59-12.14,4.19-11.19-.5Z"/>
            <g class="cls-22">
              <path d="M20.67,48.47c.41,3.32-10.68,3.99-11.09,.57,2.08,1.72,10.86,1.08,10.18-2.15,.61,.37,.96,.9,.91,1.58Z"/>
            </g>
            <path class="cls-23" d="M40.29,51.92c-7.29,.52-9.17-5.83-2.84-6.26,1.73-.06,4.13-.29,5.73-.54,1.79-.37,2.94,.61,2.93,2.82h0c-.02,3.25-2.24,3.9-5.82,3.98Zm3.63-5.59c-1.87,.22-4.42,.56-6.43,.61-1.06,.04-1.93,.33-2.34,.79-1.85,3.39,8.16,3.52,9.15,1.93,.39-.39,.56-.93,.52-1.66-.13-1.13-.04-1.64-.91-1.67Z"/>
            <path class="cls-13" d="M45.47,47.97c-.1-1.99-.66-2.46-2.19-2.22-1.52,.24-3.96,.49-5.8,.55s-3.3,.84-3.19,2.17c-.26,3.59,12.14,4.19,11.19-.5Z"/>
            <g class="cls-22">
              <path d="M39.45,51.26c-3.48-.13-4.79-1.22-5.1-2.41,.74,.68,2.09,1.2,4.41,1.29,4.4,.23,6.64-.98,5.91-4.29,.51,.27,.74,.92,.8,2.12,.13,2.68-2.17,3.44-6.03,3.29Z"/>
            </g>
          </g>
        </g>
      </g>
    </g>
  </g>
</svg>