<?xml version="1.0" encoding="UTF-8"?>
<svg xmlns="http://www.w3.org/2000/svg" xmlns:xlink="http://www.w3.org/1999/xlink" viewBox="0 0 64 64">
  <defs>
    <style>
      .cls-1 {
        fill: url(#linear-gradient-2);
      }

      .cls-2 {
        fill: #8c8587;
      }

      .cls-2, .cls-3, .cls-4 {
        mix-blend-mode: overlay;
      }

      .cls-5 {
        isolation: isolate;
      }

      .cls-6 {
        fill: #ffa12e;
      }

      .cls-7 {
        fill: #f9e3cf;
      }

      .cls-8 {
        fill: #fff;
      }

      .cls-8, .cls-3 {
        opacity: .5;
      }

      .cls-9 {
        fill: #30111a;
      }

      .cls-10 {
        mix-blend-mode: multiply;
      }

      .cls-10, .cls-3 {
        fill: #c8bbff;
      }

      .cls-11, .cls-12 {
        fill: #2b2829;
      }

      .cls-11, .cls-13 {
        mix-blend-mode: screen;
      }

      .cls-14 {
        fill: #dcc2a7;
      }

      .cls-15 {
        fill: #ffae89;
      }

      .cls-16 {
        opacity: .3;
      }

      .cls-17 {
        fill: #5f2233;
      }

      .cls-18 {
        fill: url(#linear-gradient);
      }

      .cls-19 {
        opacity: .25;
      }

      .cls-4 {
        fill: #998a8e;
      }
    </style>
    <linearGradient id="linear-gradient" x1="64" y1="34.03" x2="5.45" y2="34.03" gradientUnits="userSpaceOnUse">
      <stop offset="0" stop-color="#cf965b"/>
      <stop offset=".25" stop-color="#ca9257"/>
      <stop offset=".51" stop-color="#be864c"/>
      <stop offset=".78" stop-color="#a9733a"/>
      <stop offset="1" stop-color="#925d26"/>
    </linearGradient>
    <linearGradient id="linear-gradient-2" x1="61.28" y1="31.49" x2="1.36" y2="31.49" gradientUnits="userSpaceOnUse">
      <stop offset="0" stop-color="#e8b886"/>
      <stop offset=".25" stop-color="#e3b482"/>
      <stop offset=".5" stop-color="#d7a877"/>
      <stop offset=".76" stop-color="#c29464"/>
      <stop offset="1" stop-color="#a97c4e"/>
    </linearGradient>
  </defs>
  <g class="cls-5">
    <g id="_Слой_2" data-name="Слой 2">
      <g id="_Слой_1-2" data-name="Слой 1">
        <g>
          <g>
            <path class="cls-18" d="M60.49,6.68c-1.75-1.6-4.41-2.62-7.38-2.62H14.98c-5.26,0-9.53,3.19-9.53,7.11V55.87c0,2.22,1.37,4.2,3.51,5.51,1.75,1.6,4.41,2.62,7.38,2.62H54.47c5.26,0,9.53-3.19,9.53-7.11V12.19c0-2.22-1.37-4.2-3.51-5.51Z"/>
            <path class="cls-1" d="M57.77,4.65c-.41-.37-.86-.71-1.36-1.02-1.75-1.6-4.41-2.62-7.38-2.62H10.89C5.64,1.02,1.36,4.21,1.36,8.13V52.83c0,2.22,1.37,4.2,3.51,5.51,.41,.37,.86,.71,1.36,1.02,1.75,1.6,4.41,2.62,7.38,2.62H51.74c5.26,0,9.53-3.19,9.53-7.11V10.16c0-2.22-1.37-4.2-3.51-5.51Z"/>
            <path class="cls-14" d="M47.66,0H9.53C4.28,0,0,3.19,0,7.11V51.81c0,3.92,4.28,7.11,9.53,7.11H47.66c5.26,0,9.53-3.19,9.53-7.11V7.11c0-3.92-4.28-7.11-9.53-7.11Z"/>
          </g>
          <path class="cls-4" d="M5.89,14.33c-.01-2.85,.17-6.06,2.96-8,2.12-1.47,5.21-1.81,8.09-1.99,6.68-.42,13.42-.36,20.09,.18,3.3,.26,6.79,.71,9.28,2.36,3.69,2.45,3.93,6.61,3.9,10.29-.08,9.24-.15,18.48-.23,27.72-.02,2.2-.08,4.51-1.54,6.42-1.54,2-4.45,3.25-7.46,3.8-3.01,.55-6.15,.48-9.24,.41-5.15-.12-10.31-.24-15.43-.71-2.79-.26-9.22-.18-10.19-2.65-.66-1.68-.07-4.15-.07-5.9,0-2.02-.02-4.03-.03-6.05-.02-4.03-.04-8.06-.06-12.1-.02-4.59-.04-9.18-.07-13.78Z"/>
          <path class="cls-4" d="M20.65,20.31c-3.25-.39-6.54-1.19-8.94-2.87-2.39-1.69-3.67-4.43-2.38-6.69,.89-1.57,2.87-2.69,5.01-3.3,2.14-.61,4.45-.77,6.74-.89,5.74-.3,11.52-.39,17.22,.17,2.22,.22,4.55,.57,6.21,1.7,2.93,1.99,2.55,5.66,.4,8.14-5.33,6.17-16.02,4.75-24.26,3.75Z"/>
          <path class="cls-11" d="M9.75,46.11c-.57-1.77-.49-3.61-.4-5.43,.37-7.55,.74-15.09,1.11-22.64,.14-2.75,.39-5.74,2.81-7.82,2.2-1.89,5.7-2.58,9.03-2.93,4.04-.42,8.14-.47,12.2-.14,3.7,.3,7.69,1.06,9.9,3.3,1.87,1.9,2.03,4.41,2.12,6.77,.33,9.07,.66,18.2-1.13,27.18-.4,1.99-1,4.12-2.97,5.5-2.25,1.58-5.63,1.75-8.72,1.75-5.06,0-10.12-.25-15.13-.73-4.65-.45-7.58-.99-8.81-4.8Z"/>
          <path class="cls-10" d="M47.66,1.02h-1.63c4.51,0,8.17,2.73,8.17,6.1V51.81c0,3.37-3.66,6.1-8.17,6.1h1.63c4.51,0,8.17-2.73,8.17-6.1V7.11c0-3.37-3.66-6.1-8.17-6.1Z"/>
          <path class="cls-3" d="M44.83,56.21c2.15-.26,4.29-1.07,5.39-2.47,.86-1.09,1-2.4,1.05-3.66,.05-1.24,.02-2.47-.08-3.71-.07-.81-.31-1.78-1.32-2.08-.75-.23-1.65,.04-2.16,.52s-.69,1.1-.74,1.7c-.11,1.25,.25,2.52-.08,3.75-.39,1.42-1.68,2.63-3.23,3.51-1.13,.64-4.12,1.25-4.5,2.21,1.43,.58,4.04,.42,5.67,.23Z"/>
          <path class="cls-2" d="M3.88,2.71c-1.55,1.11-2.52,2.67-2.52,4.4v26.08c12.35-3.44,32.73-4.39,54.47,14.33v-14.97C26.86,28.05,11.39,13.17,3.88,2.71Z"/>
          <path class="cls-8" d="M3.58,9.23c.26-1.79,1.27-3.6,3.21-4.67,2.66-1.47,6.31-1.25,9.61-.96,1.02,.09,2.32,.39,2.36,1.15,.03,.67-.97,1.08-1.84,1.21-2.2,.34-4.63-.04-6.59,.77-1.42,.58-2.33,1.69-2.8,2.85s-.56,2.38-.73,3.58c-.07,.46-.15,.93-.44,1.34-1.08,1.49-2.05,.48-2.43-.37-.6-1.35-.53-3.5-.32-4.91Z"/>
          <g class="cls-13">
            <path class="cls-12" d="M36.44,9.78c.84,1.55-.18,3.32-2.26,3.94-2.08,.62-4.45-.13-5.29-1.69-.84-1.55,.18-3.32,2.26-3.94,2.08-.62,4.45,.13,5.29,1.69Z"/>
            <path class="cls-12" d="M43.37,11.71c.45,.84-.09,1.78-1.21,2.12-1.12,.34-2.39-.07-2.84-.91-.45-.84,.09-1.78,1.21-2.12,1.12-.34,2.39,.07,2.84,.91Z"/>
            <ellipse class="cls-12" cx="38.42" cy="16.63" rx="1.82" ry="1.36"/>
          </g>
          <g class="cls-13">
            <path class="cls-12" d="M23.64,45.38c.8,1.49-.17,3.17-2.16,3.77-1.99,.6-4.25-.13-5.05-1.61-.8-1.49,.17-3.17,2.16-3.77,1.99-.6,4.25,.13,5.05,1.61Z"/>
            <path class="cls-12" d="M20.79,40.39c.22,.41-.05,.87-.59,1.03-.54,.16-1.16-.03-1.38-.44-.22-.41,.05-.87,.59-1.03,.54-.16,1.16,.03,1.38,.44Z"/>
            <path class="cls-12" d="M15.3,41.5c.45,.84-.09,1.78-1.21,2.12-1.12,.34-2.39-.07-2.84-.91-.45-.84,.09-1.78,1.21-2.12,1.12-.34,2.39,.07,2.84,.91Z"/>
          </g>
          <g class="cls-16">
            <path class="cls-10" d="M51.02,35.95c.79,1.47-.17,3.15-2.14,3.74-1.98,.59-4.22-.12-5.01-1.6-.79-1.47,.17-3.15,2.14-3.74,1.98-.59,4.22,.12,5.01,1.6Z"/>
            <path class="cls-10" d="M53.92,29.6c.58,1.08-.12,2.3-1.57,2.74-1.45,.43-3.09-.09-3.67-1.17-.58-1.08,.12-2.3,1.57-2.74,1.45-.43,3.09,.09,3.67,1.17Z"/>
            <path class="cls-10" d="M45.56,30.99c.37,.7-.08,1.49-1.01,1.77-.93,.28-1.99-.06-2.37-.75-.37-.7,.08-1.49,1.01-1.77,.93-.28,1.99,.06,2.37,.76Z"/>
            <path class="cls-10" d="M10.65,25.55c.41,.75-.09,1.61-1.1,1.92-1.01,.3-2.16-.06-2.57-.82-.41-.75,.09-1.61,1.1-1.92,1.01-.3,2.16,.06,2.57,.82Z"/>
            <path class="cls-10" d="M11.29,21.09c.21,.39-.04,.84-.57,1-.53,.16-1.13-.03-1.34-.43-.21-.39,.04-.84,.57-1,.53-.16,1.13,.03,1.34,.43Z"/>
            <path class="cls-10" d="M6.59,20.15c.34,.63-.07,1.34-.91,1.59-.84,.25-1.79-.05-2.13-.68-.34-.63,.07-1.34,.91-1.59,.84-.25,1.79,.05,2.13,.68Z"/>
          </g>
        </g>
        <g id="_Слой_2-2" data-name="Слой 2">
          <path class="cls-9" d="M2.66,38.5c.06-1.77,1.55-3.1,3.63-3.22,1.07-.07,2.22,.18,3.41,.72,3.53,1.62,5.8,4.43,7.56,6.98,.18,.25,.34,.5,.49,.72,1.09,1.62,1.64,2.44,3.16,2.54,.84,.06,1.25,.46,1.44,.78,.57,.96-.04,2.37-.11,2.53-.08,.18-.27,.3-.47,.3,0,0-.02,0-.03,0-3.1-.16-5.14-1.53-7.44-3.68l-.2-.19c-2.04-1.92-3.17-2.97-6.35-3.39-1.35-.18-2.38-.44-3.14-.81-1.38-.66-2.02-1.74-1.97-3.29"/>
          <path class="cls-9" d="M3.68,38.53c-.04,1.15,.38,1.84,1.39,2.33,.66,.32,1.59,.55,2.83,.72,3.51,.46,4.79,1.66,6.92,3.66l.2,.19c2.08,1.95,3.82,3.14,6.41,3.37,.12-.4,.22-.95,.04-1.25-.04-.06-.15-.25-.63-.28-2.02-.14-2.83-1.34-3.94-2.99-.15-.23-.31-.46-.49-.71-1.68-2.43-3.84-5.11-7.15-6.63-.92-.42-1.83-.64-2.65-.64-.09,0-.18,0-.27,0-1.53,.09-2.62,1.01-2.66,2.23"/>
          <path class="cls-6" d="M3.47,37.41c.47-.89,1.48-1.54,2.85-1.62,.91-.06,1.98,.14,3.17,.68,3.64,1.67,5.91,4.72,7.35,6.8,1.44,2.08,2.03,3.35,4.04,3.49,1.3,.09,1.3,1.15,1.13,1.88-.09,.4-.23,.71-.23,.71-2.97-.16-4.89-1.46-7.11-3.54-2.22-2.08-3.38-3.26-6.83-3.71-1.28-.17-2.26-.41-2.98-.76-1.23-.59-1.73-1.49-1.68-2.81"/>
          <path class="cls-7" d="M3.17,38.51c.05-1.42,1.25-2.61,3.15-2.72,.23,1.5-.36,4.29-1.46,5.54-1.23-.59-1.73-1.49-1.68-2.81"/>
          <path d="M3.47,37.41c.25,1.87,2.37,3,4.87,3.21,2.87,.24,4.42,1.98,6.57,4.01,1.78,1.68,3.93,3,4.6,3.4,.1,.06,.23,0,.25-.12,.05-.3,.16-.83,.38-1.27,0,0,1.06,.84,1.86,1.99-.09,.4-.23,.71-.23,.71-2.97-.16-4.89-1.46-7.11-3.54-2.22-2.08-3.38-3.26-6.83-3.71-1.28-.17-2.26-.41-2.98-.76-1.23-.59-1.73-1.49-1.68-2.81"/>
          <path class="cls-9" d="M32.38,51.17c-4.29,0-7.72-.25-9.67-.7-.74-.17-1.25-.37-1.57-.6-1.49-1.1-1.1-4.35-.31-6.8,.94-2.9,2.01-4.48,2.06-4.54,.1-.14,.25-.22,.42-.22h18.13c.17,0,.33,.08,.42,.22,.05,.07,1.12,1.64,2.06,4.54,.79,2.45,1.18,5.7-.31,6.8,0,0,0,0,0,0-.32,.23-.83,.43-1.57,.6-1.94,.45-5.38,.7-9.67,.7Zm-8.78-11.83c-.31,.51-1.09,1.91-1.79,4.05-.96,2.99-.75,5.15-.06,5.66,.11,.08,.42,.25,1.19,.43,1.84,.43,5.28,.67,9.43,.67s7.59-.24,9.44-.67c.77-.18,1.08-.34,1.19-.43,.69-.51,.91-2.67-.05-5.66-.69-2.14-1.47-3.54-1.79-4.05H23.6Zm19.71,10.12h0Z"/>
          <path class="cls-6" d="M43.31,49.46c-.26,.19-.73,.36-1.38,.51-1.91,.44-5.36,.68-9.55,.68s-7.64-.24-9.55-.68c-.04,0-.08-.02-.12-.03h0c-.59-.14-1.02-.3-1.26-.48-1.03-.76-1.05-3.37-.13-6.23,.53-1.65,1.11-2.86,1.51-3.59h0c.29-.54,.48-.82,.48-.82h18.13s1.07,1.54,1.99,4.41c.92,2.86,.91,5.46-.13,6.23Z"/>
          <path class="cls-7" d="M41.93,49.97c-1.91,.44-5.36,.68-9.55,.68s-7.64-.24-9.55-.68c1.91-4.87,5.04-6.22,9.55-6.22s7.64,1.35,9.55,6.22Z"/>
          <g class="cls-19">
            <path d="M21.45,49.46c.26,.19,.73,.36,1.38,.51,1.91,.44,5.36,.68,9.55,.68s7.79-.25,9.67-.71c0,0,0,0,0,0-3.25,.28-7.25,.26-10.48-.12-5-.59-8.12-1.22-8.05-3.75,.05-1.72,.57-3.11,.9-3.83,.14-.31,.47-.49,.81-.44,1.32,.19,4.79,.63,7.73,.51,3.71-.16,7.22-1.11,8.98-2.67h0s-.97-.36-2.27-.82H23.32s-1.07,1.54-1.99,4.41c-.92,2.86-.91,5.46,.13,6.23Z"/>
          </g>
          <path class="cls-6" d="M30.54,42.83c-.04,.14-.07,.28-.11,.42-.5,2.12-.51,4.13-.64,5.44-.05,.48-.12,.91-.25,1.27h0c-.25,.69-.71,1.12-1.61,1.14-.75,.02-1.49-.12-1.99-.74-.02-.02-.04-.05-.06-.07h0c-.39-.54-.64-1.4-.6-2.76,.07-3.12,.5-4.42,.5-4.42l4.47-.26h.07s.21-.02,.21-.02Z"/>
          <path class="cls-7" d="M29.55,49.97c-.25,.69-.71,1.12-1.61,1.14-.77,.02-1.54-.13-2.05-.81h0c.61-.87,2.53-1.15,3.66-.33Z"/>
          <g class="cls-19">
            <path d="M25.89,50.29h0c.51,.69,1.28,.84,2.05,.82,.55-.01,.93-.18,1.21-.46-.92-.2-1.77-.68-2.22-1.57-.94-1.84-1.19-4.81-.88-5.93,0,0-.12,.03-.29,.07-.1,.37-.41,1.7-.47,4.32-.03,1.36,.21,2.22,.6,2.76Z"/>
          </g>
          <path class="cls-9" d="M27.8,51.36c-.57,0-1.32-.09-1.9-.67-.62-.62-.91-1.66-.87-3.17,.07-3.13,.5-4.44,.52-4.5,.04-.13,.19-.21,.32-.16,.13,.04,.21,.19,.16,.32,0,.01-.42,1.32-.49,4.35-.03,1.35,.21,2.29,.72,2.79,.37,.37,.9,.54,1.67,.52,1.03-.03,1.45-.6,1.61-2.18,.03-.33,.06-.72,.09-1.13,.09-1.35,.2-3.02,.67-4.77,.04-.14,.18-.22,.31-.18,.14,.04,.22,.18,.18,.31-.45,1.7-.56,3.35-.65,4.67-.03,.41-.05,.81-.09,1.15-.13,1.35-.48,2.6-2.1,2.64-.05,0-.1,0-.15,0Z"/>
          <path class="cls-9" d="M47.72,20.42c-.1,0-.2-.03-.29-.09l-7.44-4.97c-.23-.15-.3-.46-.15-.7,2.8-4.47,5.11-7.32,7.3-6.71,2.23,.63,2.51,4.61,2.08,7.83-.4,2.93-1.01,4.28-1.03,4.33-.06,.14-.18,.24-.33,.28-.05,.01-.09,.02-.14,.02Zm-6.74-5.63l6.48,4.33c.2-.62,.51-1.76,.74-3.47,.41-3.03,.08-6.3-1.34-6.71-1.76-.5-4.56,3.76-5.88,5.84Z"/>
          <path class="cls-9" d="M17.05,20.42s-.09,0-.14-.02c-.14-.04-.26-.14-.33-.28-.03-.06-.64-1.4-1.03-4.33-.44-3.22-.15-7.2,2.08-7.83,2.18-.61,4.49,2.24,7.3,6.71,.15,.24,.08,.55-.15,.7l-7.44,4.97c-.09,.06-.18,.09-.28,.09Zm1.15-11.52c-.1,0-.2,.01-.3,.04-1.42,.4-1.75,3.68-1.34,6.71,.23,1.72,.54,2.85,.74,3.47l6.49-4.33c-1.25-1.97-3.82-5.88-5.59-5.88Z"/>
          <path class="cls-9" d="M32.38,41.32c-6.45,0-11.57-1.79-14.8-5.19-2.48-2.61-3.8-6.17-3.62-9.78,.22-4.52,1.56-7.7,4.08-9.73,.73-.59,1.58-1.09,2.52-1.49,.3-.13,.6-.25,.9-.36,3.02-1.12,6.49-1.65,10.92-1.65s7.9,.52,10.92,1.65c.29,.11,.59,.23,.89,.35,.94,.4,1.79,.9,2.52,1.49,2.53,2.03,3.86,5.21,4.09,9.73,.18,3.61-1.14,7.18-3.62,9.78-3.23,3.39-8.35,5.19-14.8,5.19Zm0-27.16c-4.3,0-7.66,.5-10.56,1.58-.28,.1-.56,.22-.85,.34-.87,.37-1.62,.81-2.28,1.34-2.28,1.83-3.49,4.77-3.7,8.98-.17,3.33,1.05,6.62,3.34,9.02,3.03,3.19,7.89,4.87,14.06,4.87s11.02-1.68,14.06-4.87c2.29-2.4,3.5-5.69,3.34-9.02-.21-4.21-1.42-7.15-3.7-8.98-.67-.54-1.41-.97-2.28-1.34-.29-.12-.57-.23-.85-.34-2.91-1.08-6.26-1.58-10.56-1.58Z"/>
          <path class="cls-6" d="M48.71,15.72c-.19,1.39-.42,2.41-.62,3.09-.21,.74-.37,1.1-.37,1.1l-.81-.54-6.63-4.43c.1-.15,.19-.31,.29-.46,2.34-3.68,4.6-6.54,6.43-6.03,.59,.17,1.02,.65,1.31,1.32,0,0,0,0,0,0,.66,1.5,.67,3.95,.4,5.95Z"/>
          <path class="cls-6" d="M24.49,14.94c-2.45-3.9-4.81-7.03-6.72-6.49-1.91,.54-2.1,4.38-1.71,7.27s.99,4.19,.99,4.19l7.44-4.97Z"/>
          <path class="cls-6" d="M32.38,40.8c-.18,0-.36,0-.53,0-.09,0-.17,0-.26,0-.09,0-.18,0-.26,0-.16,0-.32-.01-.47-.02-.1,0-.2-.01-.3-.02-.1,0-.19-.01-.29-.02-.1,0-.19-.01-.29-.02-.1,0-.19-.01-.29-.02-.12-.01-.24-.02-.37-.03-.15-.01-.29-.03-.44-.05-.01,0-.03,0-.04,0-.09-.01-.18-.02-.27-.03-.18-.02-.36-.05-.54-.07-.08-.01-.16-.02-.24-.04-.19-.03-.37-.06-.55-.09-.09-.02-.17-.03-.25-.05-.08-.02-.17-.03-.25-.05-.08-.02-.16-.03-.24-.05-.09-.02-.17-.04-.25-.06-.08-.02-.16-.04-.24-.06-.08-.02-.16-.04-.24-.06-.32-.08-.63-.16-.93-.25-.08-.02-.15-.05-.23-.07-.1-.03-.19-.06-.28-.09-.05-.02-.11-.03-.16-.05-.25-.09-.5-.18-.75-.27-.05-.02-.09-.04-.14-.05-.56-.22-1.09-.46-1.59-.72-.05-.02-.09-.05-.14-.07-.06-.03-.11-.06-.17-.09-.26-.14-.51-.29-.76-.44-.04-.03-.08-.05-.12-.08-.06-.03-.11-.07-.17-.11-.05-.04-.11-.07-.16-.11-.06-.04-.12-.09-.19-.13-.09-.06-.18-.13-.27-.19h0c-3.99-2.94-5.42-7.26-5.24-10.95,.23-4.74,1.71-7.6,3.89-9.35,.73-.59,1.54-1.05,2.4-1.42,.29-.12,.58-.24,.87-.35,3.25-1.21,6.85-1.61,10.74-1.61,2.9,0,5.63,.23,8.18,.84,.88,.21,1.73,.47,2.56,.77,.29,.11,.58,.22,.87,.35,.87,.37,1.67,.83,2.4,1.42,.22,.18,.44,.37,.65,.57,.22,.21,.42,.43,.62,.67,.02,.03,.05,.06,.07,.09h0c.12,.15,.24,.3,.35,.47,.09,.13,.18,.26,.26,.39,.04,.06,.07,.11,.1,.17,.05,.08,.1,.17,.15,.25,.07,.13,.14,.26,.21,.4,.02,.05,.05,.09,.07,.14,.03,.05,.05,.11,.08,.17,.02,.04,.03,.07,.05,.11,.04,.09,.09,.19,.13,.29,.02,.05,.04,.1,.06,.15,.08,.2,.16,.4,.23,.61,.03,.09,.06,.19,.09,.28,0,.02,.01,.04,.02,.06,.02,.07,.04,.14,.06,.21,.04,.15,.09,.3,.13,.45,.02,.07,.04,.14,.05,.21,.05,.21,.1,.43,.14,.65,.01,.06,.02,.12,.04,.18,.02,.12,.05,.25,.07,.38,.01,.06,.02,.13,.03,.19,.03,.19,.06,.39,.08,.59,0,.03,0,.07,.01,.1,0,.06,.01,.12,.02,.18,.03,.25,.05,.5,.07,.76,0,.06,0,.12,.01,.18,.01,.15,.02,.31,.03,.47,.31,6.31-4.09,14.43-17.91,14.43Z"/>
          <ellipse class="cls-7" cx="32.38" cy="29" rx="3.81" ry="3.87"/>
          <path class="cls-9" d="M32.38,30.82c-.14,0-.26-.11-.26-.26v-1.42c0-.14,.11-.26,.26-.26s.26,.11,.26,.26v1.42c0,.14-.11,.26-.26,.26Z"/>
          <ellipse class="cls-15" cx="23.09" cy="29.18" rx="1.78" ry=".67"/>
          <ellipse class="cls-15" cx="41.68" cy="29.18" rx="1.78" ry=".67"/>
          <path class="cls-9" d="M12.18,33.67c-.09,0-.18-.05-.23-.14-.07-.13-.02-.28,.11-.35l6.3-3.3c.13-.07,.28-.02,.35,.11,.07,.13,.02,.28-.11,.35l-6.3,3.3s-.08,.03-.12,.03Z"/>
          <path class="cls-9" d="M11.14,29.26c-.13,0-.24-.09-.25-.22-.02-.14,.08-.27,.22-.29l7.34-.95c.14-.02,.27,.08,.29,.22,.02,.14-.08,.27-.22,.29l-7.34,.95s-.02,0-.03,0Z"/>
          <path class="cls-9" d="M18.48,26.52s-.04,0-.07,0l-6.79-1.8c-.14-.04-.22-.18-.18-.31,.04-.14,.18-.22,.31-.18l6.79,1.8c.14,.04,.22,.18,.18,.31-.03,.12-.13,.19-.25,.19Z"/>
          <path class="cls-9" d="M52.46,33.64l-6.3-3.3c-.13-.07-.17-.22-.11-.35,.07-.13,.22-.17,.35-.11l6.3,3.3"/>
          <path class="cls-9" d="M53.59,29.26l-7.34-.95c-.14-.02-.24-.15-.22-.29,.02-.14,.15-.24,.29-.22l7.34,.95"/>
          <path class="cls-7" d="M49.96,23.49c-4.06,4.35-10.58,4.48-13.35,2.2-2.79-2.3-3.43-8.27-2.26-12.02,3.49,.14,6.72,.68,9.64,1.92,2.89,1.23,5.12,3.51,5.96,7.89Z"/>
          <path class="cls-9" d="M53.14,24.71l-6.79,1.8s-.04,0-.07,0c-.11,0-.22-.08-.25-.19-.04-.14,.05-.28,.18-.31l6.79-1.8"/>
          <path class="cls-9" d="M46.4,17.53c-.12,0-.23-.04-.32-.11-.67-.54-1.41-.98-2.28-1.34-.29-.12-.57-.23-.85-.34-.14-.05-.25-.16-.3-.29-.05-.14-.05-.29,.02-.42,.47-.93,1.11-1.86,1.75-2.53,.78-.82,1.38-1.12,1.86-.92,.46,.19,.69,.8,.77,2.05,.06,.97,.01,2.2-.14,3.46-.02,.18-.14,.34-.32,.41-.06,.03-.13,.04-.19,.04Zm-2.55-2.54c.12,.05,.23,.09,.35,.14,.64,.27,1.24,.59,1.78,.95,.15-1.83,.02-3.05-.12-3.48-.39,.23-1.25,1.07-2.01,2.39Z"/>
          <path class="cls-9" d="M18.37,17.53c-.07,0-.13-.01-.19-.04-.17-.07-.29-.23-.32-.41-.15-1.26-.2-2.48-.14-3.46,.08-1.25,.31-1.86,.77-2.05,.47-.2,1.08,.11,1.86,.92,.64,.67,1.28,1.6,1.75,2.53,.07,.13,.07,.28,.02,.42-.05,.14-.16,.24-.3,.29-.28,.1-.56,.22-.85,.34-.87,.37-1.62,.81-2.28,1.34-.09,.07-.21,.11-.32,.11Zm.54-4.93c-.15,.43-.28,1.65-.12,3.48,.55-.36,1.14-.68,1.78-.95,.12-.05,.23-.1,.35-.14-.76-1.32-1.61-2.16-2.01-2.39Z"/>
          <path class="cls-17" d="M46.4,17.02c-.73-.58-1.54-1.05-2.4-1.42-.29-.12-.58-.24-.87-.35,.98-1.95,2.47-3.41,2.95-3.21,.48,.2,.63,2.44,.32,4.97Z"/>
          <g class="cls-16">
            <path d="M46.42,12.74c-.62,.32-1.64,1.44-2.4,2.86,0,0-.02,0-.02,0-.29-.12-.58-.24-.87-.35,.98-1.95,2.47-3.41,2.95-3.21,.15,.06,.26,.31,.34,.7Z"/>
          </g>
          <path class="cls-17" d="M21.64,15.25c-.29,.11-.58,.22-.87,.35-.87,.37-1.67,.83-2.4,1.42-.31-2.54-.16-4.77,.32-4.97,.48-.2,1.97,1.26,2.95,3.21Z"/>
          <g class="cls-16">
            <path d="M19.07,16.5c-.24,.16-.48,.33-.7,.51-.31-2.54-.16-4.77,.32-4.97,.15-.06,.4,.04,.7,.26-.37,.36-.5,2.11-.32,4.2Z"/>
          </g>
          <path class="cls-9" d="M32.38,26.61c1.53,0,1.41,.62,1.26,1.24-.15,.62-.53,1.45-1.26,1.45s-1.11-.83-1.26-1.45c-.15-.62-.27-1.24,1.26-1.24Z"/>
          <g class="cls-19">
            <path d="M32.38,40.8c.18,0,.36,0,.53,0,.09,0,.17,0,.26,0,.09,0,.18,0,.26,0,.16,0,.32-.01,.47-.02,.1,0,.2-.01,.3-.02,.1,0,.19-.01,.29-.02s.19-.01,.29-.02c.1,0,.19-.01,.29-.02,.12-.01,.24-.02,.37-.03,.15-.01,.29-.03,.44-.05,.01,0,.03,0,.04,0,.09-.01,.18-.02,.27-.03,.18-.02,.36-.05,.54-.07,.08-.01,.16-.02,.24-.04,.19-.03,.37-.06,.55-.09,.09-.02,.17-.03,.25-.05,.08-.02,.17-.03,.25-.05,.08-.02,.16-.03,.24-.05,.09-.02,.17-.04,.25-.06,.08-.02,.16-.04,.24-.06,.08-.02,.16-.04,.24-.06,.32-.08,.63-.16,.93-.25,.08-.02,.15-.05,.23-.07,.1-.03,.19-.06,.28-.09,.05-.02,.11-.03,.16-.05,.25-.09,.5-.18,.75-.27,.05-.02,.09-.04,.14-.05,.56-.22,1.09-.46,1.59-.72,.05-.02,.09-.05,.14-.07,.06-.03,.11-.06,.17-.09,.26-.14,.51-.29,.76-.44,.04-.03,.08-.05,.12-.08,.06-.03,.11-.07,.17-.11,.05-.04,.11-.07,.16-.11,.06-.04,.12-.09,.19-.13,.09-.06,.18-.13,.27-.19-2.63,1.31-6.06,2.12-10.43,2.12-13.82,0-18.22-8.12-17.91-14.43,.11-2.29,.52-4.14,1.15-5.64,.1-.25,.21-.48,.33-.71,.03-.05,.05-.1,.08-.15-.08-.11-.18-.26-.3-.48-.09-.14-.17-.28-.25-.44-1.16-2.23-1.8-5.97-1.26-7.82,0,0,0,0,0,0-.66,1.5-.67,3.95-.4,5.95,.19,1.39,.42,2.41,.62,3.09-.09,.13-.18,.26-.26,.39-.04,.06-.07,.11-.1,.17-.05,.08-.1,.17-.15,.25-.07,.13-.14,.26-.21,.4-.02,.05-.05,.09-.07,.14-.03,.05-.05,.11-.08,.17-.02,.04-.03,.07-.05,.11-.04,.09-.09,.19-.13,.29-.02,.05-.04,.1-.06,.15-.08,.2-.16,.4-.23,.61-.03,.09-.06,.19-.09,.28,0,.02-.01,.04-.02,.06-.02,.07-.04,.14-.06,.21-.04,.15-.09,.3-.13,.45-.02,.07-.04,.14-.05,.21-.05,.21-.1,.43-.14,.65-.01,.06-.02,.12-.04,.18-.02,.12-.05,.25-.07,.38-.01,.06-.02,.13-.03,.19-.03,.19-.06,.39-.08,.59,0,.03,0,.07-.01,.1,0,.06-.01,.12-.02,.18-.03,.25-.05,.5-.07,.76,0,.06,0,.12-.01,.18-.01,.15-.02,.31-.03,.47-.31,6.31,4.09,14.43,17.91,14.43Zm-15.28-22.54s-.05,.06-.07,.09c0-.03,.03-.05,.07-.09Z"/>
          </g>
          <g class="cls-19">
            <path d="M47.74,18.35s-.05-.06-.07-.09c.04,.03,.06,.06,.07,.09Z"/>
          </g>
          <g class="cls-19">
            <path d="M47.74,18.35s-.05-.06-.07-.09c.04,.03,.06,.06,.07,.09Z"/>
          </g>
          <path class="cls-9" d="M41.03,23.75c-.14,0-.26-.11-.26-.26,0-1.18-.93-2.11-2.11-2.11s-2.11,.93-2.11,2.11c0,.14-.11,.26-.26,.26s-.26-.11-.26-.26c0-1.47,1.15-2.62,2.62-2.62s2.62,1.15,2.62,2.62c0,.14-.11,.26-.26,.26Z"/>
          <path class="cls-9" d="M28.47,23.75c-.14,0-.26-.11-.26-.26,0-1.18-.93-2.11-2.11-2.11s-2.11,.93-2.11,2.11c0,.14-.11,.26-.26,.26s-.26-.11-.26-.26c0-1.47,1.15-2.62,2.62-2.62s2.62,1.15,2.62,2.62c0,.14-.11,.26-.26,.26Z"/>
          <path class="cls-17" d="M33.64,31.12c-.06,.94-.46,1.45-1.26,1.45s-1.2-.51-1.26-1.45c.43,.1,.94-.04,1.26-.55,.32,.51,.83,.65,1.26,.55Z"/>
          <path class="cls-9" d="M33.38,31.41c-.33,0-.7-.12-1-.43-.4,.42-.93,.48-1.32,.39-.42-.1-.77-.4-.9-.77-.05-.13,.03-.28,.16-.33,.13-.05,.28,.03,.33,.16,.07,.21,.28,.38,.53,.44,.38,.09,.75-.07,.98-.44,.05-.07,.13-.12,.22-.12s.17,.05,.22,.12c.23,.37,.6,.53,.98,.44,.25-.06,.46-.23,.53-.44,.05-.13,.19-.2,.33-.16,.13,.05,.2,.19,.16,.33-.13,.38-.47,.67-.9,.77-.1,.02-.21,.04-.32,.04Z"/>
          <path class="cls-6" d="M49.78,38.1h0c-.12,.65-.59,1.42-1.6,2.32-2.33,2.08-3.58,2.65-3.58,2.65-.56,.35-2.15,1-2.15,1l-1.29-4.28c2.08-1.11,3.68-2.6,4.8-3.45,.38-.29,.75-.53,1.1-.68,.67-.29,1.3-.25,1.93,.4,.54,.55,.96,1.21,.8,2.05Z"/>
          <path class="cls-7" d="M49.78,38.1h0c-1.05,.15-2.56-1.07-2.73-2.45,.67-.29,1.3-.25,1.93,.4,.54,.55,.96,1.21,.8,2.05Z"/>
          <path class="cls-9" d="M42.44,44.32c-.1,0-.2-.06-.24-.16-.05-.13,0-.28,.14-.33,.02,0,1.58-.64,2.11-.98,0,0,.02-.01,.03-.02,.01,0,1.25-.59,3.51-2.61,1-.9,1.53-1.72,1.55-2.43,.02-.53-.22-1.03-.76-1.57-.72-.74-1.43-.65-2.69,.31-.27,.2-.57,.45-.89,.71-1.05,.85-2.35,1.92-3.95,2.77-.13,.07-.28,.02-.35-.11-.07-.13-.02-.28,.11-.35,1.55-.83,2.83-1.87,3.86-2.71,.32-.26,.63-.51,.9-.72,1.08-.82,2.23-1.42,3.37-.26,.4,.41,.94,1.06,.91,1.95-.03,.88-.59,1.79-1.72,2.8-2.22,1.98-3.47,2.61-3.63,2.68-.58,.36-2.11,.98-2.18,1.01-.03,.01-.06,.02-.1,.02Z"/>
        </g>
      </g>
    </g>
  </g>
</svg>