<?xml version="1.0" encoding="UTF-8"?>
<svg xmlns="http://www.w3.org/2000/svg" xmlns:xlink="http://www.w3.org/1999/xlink" viewBox="0 0 64 64">
  <defs>
    <style>
      .cls-1 {
        fill: url(#linear-gradient-2);
      }

      .cls-2 {
        fill: #8fe7e3;
      }

      .cls-3 {
        fill: #ddbcaf;
      }

      .cls-3, .cls-4, .cls-5 {
        mix-blend-mode: overlay;
      }

      .cls-3, .cls-6 {
        opacity: .5;
      }

      .cls-4 {
        fill: #8c8587;
      }

      .cls-7 {
        fill: #ffebd0;
      }

      .cls-8 {
        isolation: isolate;
      }

      .cls-6 {
        fill: #fff;
      }

      .cls-9 {
        fill: #1c1c1b;
        opacity: .1;
      }

      .cls-10, .cls-11 {
        fill: #2b2829;
      }

      .cls-10, .cls-12 {
        mix-blend-mode: screen;
      }

      .cls-13 {
        fill: #dcc2a7;
      }

      .cls-14 {
        fill: #cca3ae;
        mix-blend-mode: multiply;
      }

      .cls-15 {
        opacity: .3;
      }

      .cls-16 {
        fill: #1d1a36;
      }

      .cls-17 {
        fill: #ff8a8a;
      }

      .cls-18 {
        fill: url(#linear-gradient);
      }

      .cls-5 {
        fill: #998a8e;
      }
    </style>
    <linearGradient id="linear-gradient" x1="64" y1="34.03" x2="5.45" y2="34.03" gradientUnits="userSpaceOnUse">
      <stop offset="0" stop-color="#cf965b"/>
      <stop offset=".25" stop-color="#ca9257"/>
      <stop offset=".51" stop-color="#be864c"/>
      <stop offset=".78" stop-color="#a9733a"/>
      <stop offset="1" stop-color="#925d26"/>
    </linearGradient>
    <linearGradient id="linear-gradient-2" x1="61.28" y1="31.49" x2="1.36" y2="31.49" gradientUnits="userSpaceOnUse">
      <stop offset="0" stop-color="#e8b886"/>
      <stop offset=".25" stop-color="#e3b482"/>
      <stop offset=".5" stop-color="#d7a877"/>
      <stop offset=".76" stop-color="#c29464"/>
      <stop offset="1" stop-color="#a97c4e"/>
    </linearGradient>
  </defs>
  <g class="cls-8">
    <g id="_Слой_2" data-name="Слой 2">
      <g id="_Слой_1-2" data-name="Слой 1">
        <g>
          <g>
            <path class="cls-18" d="M60.49,6.68c-1.75-1.6-4.41-2.62-7.38-2.62H14.98c-5.26,0-9.53,3.19-9.53,7.11V55.87c0,2.22,1.37,4.2,3.51,5.51,1.75,1.6,4.41,2.62,7.38,2.62H54.47c5.26,0,9.53-3.19,9.53-7.11V12.19c0-2.22-1.37-4.2-3.51-5.51Z"/>
            <path class="cls-1" d="M57.77,4.65c-.41-.37-.86-.71-1.36-1.02-1.75-1.6-4.41-2.62-7.38-2.62H10.89C5.64,1.02,1.36,4.21,1.36,8.13V52.83c0,2.22,1.37,4.2,3.51,5.51,.41,.37,.86,.71,1.36,1.02,1.75,1.6,4.41,2.62,7.38,2.62H51.74c5.26,0,9.53-3.19,9.53-7.11V10.16c0-2.22-1.37-4.2-3.51-5.51Z"/>
            <path class="cls-13" d="M47.66,0H9.53C4.28,0,0,3.19,0,7.11V51.81c0,3.92,4.28,7.11,9.53,7.11H47.66c5.26,0,9.53-3.19,9.53-7.11V7.11c0-3.92-4.28-7.11-9.53-7.11Z"/>
          </g>
          <path class="cls-5" d="M5.89,14.33c-.01-2.85,.17-6.06,2.96-8,2.12-1.47,5.21-1.81,8.09-1.99,6.68-.42,13.42-.36,20.09,.18,3.3,.26,6.79,.71,9.28,2.36,3.69,2.45,3.93,6.61,3.9,10.29-.08,9.24-.15,18.48-.23,27.72-.02,2.2-.08,4.51-1.54,6.42-1.54,2-4.45,3.25-7.46,3.8-3.01,.55-6.15,.48-9.24,.41-5.15-.12-10.31-.24-15.43-.71-2.79-.26-9.22-.18-10.19-2.65-.66-1.68-.07-4.15-.07-5.9,0-2.02-.02-4.03-.03-6.05-.02-4.03-.04-8.06-.06-12.1-.02-4.59-.04-9.18-.07-13.78Z"/>
          <path class="cls-5" d="M20.65,20.31c-3.25-.39-6.54-1.19-8.94-2.87-2.39-1.69-3.67-4.43-2.38-6.69,.89-1.57,2.87-2.69,5.01-3.3,2.14-.61,4.45-.77,6.74-.89,5.74-.3,11.52-.39,17.22,.17,2.22,.22,4.55,.57,6.21,1.7,2.93,1.99,2.55,5.66,.4,8.14-5.33,6.17-16.02,4.75-24.26,3.75Z"/>
          <path class="cls-10" d="M9.75,46.11c-.57-1.77-.49-3.61-.4-5.43,.37-7.55,.74-15.09,1.11-22.64,.14-2.75,.39-5.74,2.81-7.82,2.2-1.89,5.7-2.58,9.03-2.93,4.04-.42,8.14-.47,12.2-.14,3.7,.3,7.69,1.06,9.9,3.3,1.87,1.9,2.03,4.41,2.12,6.77,.33,9.07,.66,18.2-1.13,27.18-.4,1.99-1,4.12-2.97,5.5-2.25,1.58-5.63,1.75-8.72,1.75-5.06,0-10.12-.25-15.13-.73-4.65-.45-7.58-.99-8.81-4.8Z"/>
          <path class="cls-14" d="M47.66,1.02h-1.63c4.51,0,8.17,2.73,8.17,6.1V51.81c0,3.37-3.66,6.1-8.17,6.1h1.63c4.51,0,8.17-2.73,8.17-6.1V7.11c0-3.37-3.66-6.1-8.17-6.1Z"/>
          <path class="cls-3" d="M44.83,56.21c2.15-.26,4.29-1.07,5.39-2.47,.86-1.09,1-2.4,1.05-3.66,.05-1.24,.02-2.47-.08-3.71-.07-.81-.31-1.78-1.32-2.08-.75-.23-1.65,.04-2.16,.52-.51,.47-.69,1.1-.74,1.7-.11,1.25,.25,2.52-.08,3.75-.39,1.42-1.68,2.63-3.23,3.51-1.13,.64-4.12,1.25-4.5,2.21,1.43,.58,4.04,.42,5.67,.23Z"/>
          <path class="cls-4" d="M3.88,2.71c-1.55,1.11-2.52,2.67-2.52,4.4v26.08c12.35-3.44,32.73-4.39,54.47,14.33v-14.97C26.86,28.05,11.39,13.17,3.88,2.71Z"/>
          <path class="cls-6" d="M3.58,9.23c.26-1.79,1.27-3.6,3.21-4.67,2.66-1.47,6.31-1.25,9.61-.96,1.02,.09,2.32,.39,2.36,1.15,.03,.67-.97,1.08-1.84,1.21-2.2,.34-4.63-.04-6.59,.77-1.42,.58-2.33,1.69-2.8,2.85s-.56,2.38-.73,3.58c-.07,.46-.15,.93-.44,1.34-1.08,1.49-2.05,.48-2.43-.37-.6-1.35-.53-3.5-.32-4.91Z"/>
          <g class="cls-12">
            <path class="cls-11" d="M36.44,9.78c.84,1.55-.18,3.32-2.26,3.94-2.08,.62-4.45-.13-5.29-1.69-.84-1.55,.18-3.32,2.26-3.94,2.08-.62,4.45,.13,5.29,1.69Z"/>
            <path class="cls-11" d="M43.37,11.71c.45,.84-.09,1.78-1.21,2.12-1.12,.34-2.39-.07-2.84-.91-.45-.84,.09-1.78,1.21-2.12,1.12-.34,2.39,.07,2.84,.91Z"/>
            <path class="cls-11" d="M40.11,16.13c.37,.7-.08,1.49-1.01,1.77-.93,.28-1.99-.06-2.37-.76-.37-.7,.08-1.49,1.01-1.77,.93-.28,1.99,.06,2.37,.76Z"/>
          </g>
          <g class="cls-12">
            <path class="cls-11" d="M23.64,45.38c.8,1.49-.17,3.17-2.16,3.77-1.99,.6-4.25-.13-5.05-1.61-.8-1.49,.17-3.17,2.16-3.77,1.99-.6,4.25,.13,5.05,1.61Z"/>
            <path class="cls-11" d="M20.79,40.39c.22,.41-.05,.87-.59,1.03-.54,.16-1.16-.03-1.38-.44-.22-.41,.05-.87,.59-1.03,.54-.16,1.16,.03,1.38,.44Z"/>
            <path class="cls-11" d="M15.3,41.5c.45,.84-.09,1.78-1.21,2.12-1.12,.34-2.39-.07-2.84-.91-.45-.84,.09-1.78,1.21-2.12,1.12-.34,2.39,.07,2.84,.91Z"/>
          </g>
          <g class="cls-15">
            <path class="cls-14" d="M51.02,35.95c.79,1.47-.17,3.15-2.14,3.74-1.98,.59-4.22-.12-5.01-1.6-.79-1.47,.17-3.15,2.14-3.74,1.98-.59,4.22,.12,5.01,1.6Z"/>
            <path class="cls-14" d="M53.92,29.6c.58,1.08-.12,2.3-1.57,2.74-1.45,.43-3.09-.09-3.67-1.17-.58-1.08,.12-2.3,1.57-2.74,1.45-.43,3.09,.09,3.67,1.17Z"/>
            <path class="cls-14" d="M45.56,30.99c.37,.7-.08,1.49-1.01,1.77-.93,.28-1.99-.06-2.37-.75-.37-.7,.08-1.49,1.01-1.77,.93-.28,1.99,.06,2.37,.76Z"/>
            <path class="cls-14" d="M10.65,25.55c.41,.75-.09,1.61-1.1,1.92-1.01,.3-2.16-.06-2.57-.82-.41-.75,.09-1.61,1.1-1.92,1.01-.3,2.16,.06,2.57,.82Z"/>
            <path class="cls-14" d="M11.29,21.09c.21,.39-.04,.84-.57,1-.53,.16-1.13-.03-1.34-.43-.21-.39,.04-.84,.57-1,.53-.16,1.13,.03,1.34,.43Z"/>
            <path class="cls-14" d="M6.59,20.15c.34,.63-.07,1.34-.91,1.59-.84,.25-1.79-.05-2.13-.68-.34-.63,.07-1.34,.91-1.59s1.79,.05,2.13,.68Z"/>
          </g>
        </g>
        <g id="_Слой_5" data-name="Слой 5">
          <g>
            <g>
              <g>
                <g>
                  <g>
                    <path class="cls-2" d="M44.6,23.92c2.82-4.34,4.21-14.31,3.35-15.25-1.19-1.31-15.19,.14-18.11,8.61l14.76,6.64Z"/>
                    <path class="cls-16" d="M44.98,24.07c1.76-2.73,2.58-6.1,3.16-9.26,.26-1.4,.46-2.82,.51-4.24,.02-.61,.15-1.71-.37-2.18-.41-.38-1.12-.42-1.65-.46-1-.07-2,0-2.98,.13-2.67,.35-5.32,1.12-7.71,2.35-2.86,1.47-5.42,3.71-6.52,6.81-.06,.17,.02,.31,.18,.38,4.3,1.93,8.6,3.87,12.91,5.8,.62,.28,1.24,.56,1.86,.83,.4,.18,1.02-.4,.5-.63-4.3-1.93-8.6-3.87-12.91-5.8-.62-.28-1.24-.56-1.86-.83,.06,.13,.12,.25,.18,.38,1.8-5.11,7.49-7.59,12.45-8.46,.99-.17,2-.28,3-.29,.58,0,1.27,0,1.75,.23,.1,.05,.13,.05,.19,.26,.1,.35,.1,.73,.1,1.1,0,1.24-.16,2.49-.35,3.71-.28,1.79-.68,3.56-1.21,5.29-.49,1.58-1.07,3.18-1.97,4.58-.31,.48,.51,.66,.75,.29Z"/>
                  </g>
                  <path class="cls-17" d="M41.43,22.5c1.64-2.52,4.5-10.75,3.67-11.43-.8-.65-11.26,2.26-12.51,7.46l8.84,3.97Z"/>
                </g>
                <path class="cls-9" d="M29.84,17.28l14.76,6.64s.89-1.62,1.09-2.09c0,0-3.35-6.91-12.04-9.58,0,0-3.08,2.22-3.81,5.03Z"/>
              </g>
              <g>
                <path class="cls-2" d="M26.18,19.12c.22-5.1-.13-13.29-1.29-13.8-1.62-.71-15.69,8.46-12.1,17.97l13.39-4.17Z"/>
                <path class="cls-16" d="M26.63,19.09c.15-3.47,.11-6.99-.3-10.44-.12-1.03-.2-2.3-.75-3.22-.33-.56-.9-.56-1.48-.41-.76,.2-1.49,.59-2.17,.98-1.02,.59-1.99,1.27-2.91,2.01-2.17,1.74-4.12,3.82-5.53,6.23-1.62,2.79-2.3,6.07-1.16,9.16,.08,.21,.33,.27,.53,.21,3.9-1.22,7.8-2.43,11.7-3.65,.56-.18,1.13-.35,1.69-.53,.54-.17,.37-.82-.18-.65-3.9,1.22-7.8,2.43-11.7,3.65-.56,.18-1.13,.35-1.69,.53l.53,.21c-1.97-5.32,1.61-10.53,5.47-13.93,1.5-1.33,3.2-2.62,5.07-3.39,.21-.09,.46-.18,.72-.22-.1,.02,.24,0,.12,0,.03,0,.02-.02,.05,.02,.47,.77,.59,1.72,.72,2.6,.5,3.58,.51,7.28,.36,10.89-.02,.48,.88,.38,.9-.05Z"/>
              </g>
              <path class="cls-9" d="M12.79,23.29l13.39-4.17s.03-4.92,0-7.85c0,0-10.6,2.3-13.97,9.55,0,0,.12,1.47,.58,2.47Z"/>
            </g>
            <g>
              <path class="cls-2" d="M43.37,51.51H13.23c0-4.51,4.69-11.59,4.69-11.59h20.76s4.69,7.08,4.69,11.59Z"/>
              <path class="cls-7" d="M38.51,51.51H18.1c0-4.51,4.4-11.59,4.4-11.59h11.62s4.4,7.08,4.4,11.59Z"/>
              <path class="cls-16" d="M38.27,40.09c.87,1.28,1.64,2.63,2.34,4,1.15,2.24,2.3,4.77,2.32,7.33,0,.27,.89,.1,.88-.24-.02-2.6-1.2-5.17-2.38-7.44-.71-1.37-1.48-2.72-2.35-4-.16-.24-1.02,.05-.82,.34h0Z"/>
              <path class="cls-16" d="M13.68,51.25c.02-2.58,1.18-5.12,2.34-7.37,.7-1.35,1.46-2.69,2.32-3.95,.24-.35-.65-.29-.83-.03-.88,1.29-1.66,2.67-2.37,4.06-1.16,2.26-2.32,4.81-2.35,7.4,0,.38,.88,.2,.89-.1h0Z"/>
            </g>
            <g>
              <g>
                <path class="cls-16" d="M2.59,37.25c2.11-.19,4.23-.37,6.34-.56,.3-.03,.61-.05,.91-.08,.52-.05,.52-.86,0-.81-2.11,.19-4.23,.37-6.34,.56-.3,.03-.61,.05-.91,.08-.52,.05-.52,.86,0,.81h0Z"/>
                <path class="cls-16" d="M3.4,40.54c2.02-.42,4.03-.85,6.05-1.27,.29-.06,.57-.12,.86-.18,.51-.11,.3-.89-.22-.78-2.02,.42-4.03,.85-6.05,1.27-.29,.06-.57,.12-.86,.18-.51,.11-.3,.89,.22,.78h0Z"/>
              </g>
              <g>
                <path class="cls-2" d="M49.1,36.75c0,3.97-10.33,10.19-20.79,10.19s-20.79-6.22-20.79-10.19c0-1.74,2.03-9.93,6.55-16.67-.41-.56-.97-1.59-.76-2.77,.19-1.09,2.84-1.16,4.54-.89,3.52-1.96,8.32-2.49,10.46-2.49s6.94,.53,10.46,2.49c1.7-.27,4.36-.2,4.54,.89,.2,1.19-.35,2.22-.76,2.77,4.52,6.74,6.55,14.93,6.55,16.67Z"/>
                <path class="cls-7" d="M47.68,39.63c-3.18,3.54-11.24,7.3-19.37,7.3s-16.19-3.76-19.37-7.3c0-3.43,8.05-1.93,11.1-5.15,2.14-2.26,3.22-10.56,4.54-10.56s2.34,8.36,4.54,10.56c2.23,2.23,10.05,2.48,13.03,2.92,2.18,.32,4.15,1.01,5.54,2.24Z"/>
                <path class="cls-9" d="M49.1,36.75c0,3.97-10.33,10.19-20.79,10.19s-20.79-6.22-20.79-10.19c0-.63,.27-2.13,.84-4.1h0c0,.8-.38,3.35,.83,4.69,2.67,2.95,9.12,6.24,19.12,6.24s16.45-3.29,19.12-6.24c1.21-1.34,.84-3.88,.83-4.7,.57,1.97,.84,3.47,.84,4.1Z"/>
                <g>
                  <path class="cls-16" d="M37.09,15.95c.27,.12,.53,.24,.79,.37,.19,.09,.39,.26,.6,.28,.19,.02,.4-.05,.59-.07,.18-.02,.35-.03,.53-.05,.73-.05,1.5-.03,2.22,.15,.27,.07,.55,.17,.77,.35,.24,.2,.29,.45,.31,.76,.06,.88-.28,1.73-.8,2.42-.1,.13,.32,.09,.35,.08,.17-.03,.41-.09,.52-.24,.47-.64,.79-1.4,.81-2.2,0-.31,0-.67-.18-.93-.14-.2-.35-.32-.57-.42-.6-.26-1.29-.32-1.94-.35-.75-.02-1.51,.03-2.25,.15,.11,0,.22,0,.33,.01-.41-.23-.83-.43-1.26-.62-.17-.08-.4-.01-.57,.05-.03,.01-.4,.19-.26,.25h0Z"/>
                  <path class="cls-16" d="M43.48,22.43c1.68,2.94,3.02,6.08,4.03,9.31,.35,1.13,.67,2.27,.91,3.43,.13,.64,.3,1.35,.21,2.01-.25,1.87-2.12,3.38-3.54,4.41-2.37,1.71-5.1,2.95-7.88,3.81-3.26,1.01-6.69,1.5-10.1,1.32-3.32-.18-6.62-.95-9.72-2.16-2.51-.99-5-2.29-7.04-4.08-1.16-1.01-2.51-2.44-2.39-4.1,.14-1.9,.79-3.83,1.38-5.62,.99-2.97,2.25-5.86,3.81-8.58,.42-.74,.87-1.46,1.34-2.16,0-.01,0-.03,0-.04-.39-.54-.69-1.17-.78-1.84-.08-.61-.07-1.25,.57-1.48,.6-.22,1.33-.19,1.96-.17,.58,.02,1.24,.24,1.79,.02,.36-.14,.7-.37,1.05-.53,.42-.19,.85-.36,1.28-.52,.81-.29,1.65-.53,2.49-.72,1.64-.37,3.34-.61,5.02-.63,1.79-.02,3.59,.24,5.34,.62,.19,.04,.45-.02,.62-.11,.07-.04,.31-.19,.11-.23-2.69-.58-5.39-.79-8.12-.46-2.88,.35-5.77,1.07-8.33,2.48l.7-.16c-1.36-.21-2.89-.27-4.21,.2-.43,.15-.96,.39-1.12,.87-.25,.76,.05,1.72,.42,2.39,.06,.11,.24,.29,.26,.41,.04,.21-.21,.47-.32,.64-.28,.44-.56,.89-.82,1.35-.49,.84-.95,1.71-1.39,2.58-.8,1.63-1.51,3.3-2.13,5-.79,2.18-1.6,4.52-1.81,6.85-.18,1.97,1.62,3.63,3.02,4.74,2.55,2.03,5.63,3.42,8.72,4.39,3.66,1.15,7.53,1.67,11.37,1.38,3.71-.28,7.37-1.24,10.77-2.73,2.6-1.14,5.32-2.64,7.21-4.82,.61-.7,1.18-1.51,1.32-2.45,.12-.79-.1-1.64-.26-2.4-.72-3.31-1.93-6.55-3.39-9.61-.46-.96-.96-1.91-1.48-2.84-.12-.22-.96,.11-.88,.24h0Z"/>
                </g>
              </g>
              <g>
                <path class="cls-17" d="M11.56,36.68c1.65-.1,2.85,.49,3.01,1.09,.16,.6-1.65,.96-2.76,.96s-2.81-.21-2.87-.85c-.06-.65,1.08-1.1,2.62-1.2Z"/>
                <path class="cls-17" d="M38.28,36.68c1.65-.1,2.85,.49,3.01,1.09,.16,.6-1.65,.96-2.76,.96s-2.81-.21-2.87-.85,1.08-1.1,2.62-1.2Z"/>
                <path class="cls-7" d="M14.15,29.05c-.53-.96,.99-3.24,3.18-3.5,1.42-.17,2.48,1.75,1.54,2.74-.7,.74-4.11,1.85-4.72,.76Z"/>
                <path class="cls-7" d="M36,30.56c-.11-1.1-2.67-2.09-4.61-1.05-1.26,.67-1.03,2.86,.31,3.12,1,.2,4.43-.85,4.3-2.08Z"/>
                <path class="cls-17" d="M26.35,35.46c0,.24-1.32,1.09-2.01,1.09s-2.01-.85-2.01-1.09,.7-.71,2.01-.71,2.01,.46,2.01,.71Z"/>
                <path class="cls-16" d="M19.48,35.56c-.53-.28-1.23-.29-1.81-.33-.61-.04-1.23-.05-1.85-.05-.62,0-1.24-.02-1.86,.02-.3,.02-.6,.04-.9,.08-.25,.03-.57,.01-.78,.21-.02,.02-.02,.06,0,.08,.18,.21,.5,.22,.75,.27,.29,.06,.59,.11,.88,.15,.61,.08,1.23,.11,1.85,.15,.61,.04,1.23,.07,1.85,.07,.59,0,1.27,.04,1.84-.2,.16-.07,.18-.37,.03-.44Z"/>
                <path class="cls-16" d="M19.65,34.54c-.51-.4-1.23-.56-1.83-.73-.63-.17-1.27-.32-1.91-.47-.64-.15-1.29-.3-1.94-.4-.31-.05-.63-.09-.94-.12-.27-.02-.59-.11-.84,.04-.03,.02-.03,.05-.02,.08,.16,.25,.49,.33,.74,.43,.29,.13,.59,.24,.89,.34,.63,.22,1.27,.39,1.9,.56,.63,.17,1.27,.34,1.9,.48,.61,.13,1.31,.32,1.94,.21,.18-.03,.24-.32,.1-.44Z"/>
                <path class="cls-16" d="M30.34,35.56c.53-.28,1.23-.29,1.81-.33,.61-.04,1.23-.05,1.85-.05,.62,0,1.24-.02,1.86,.02,.3,.02,.6,.04,.9,.08,.25,.03,.57,.01,.78,.21,.02,.02,.02,.06,0,.08-.18,.21-.5,.22-.75,.27-.29,.06-.59,.11-.88,.15-.61,.08-1.23,.11-1.85,.15-.61,.04-1.23,.07-1.85,.07-.59,0-1.27,.04-1.84-.2-.16-.07-.18-.37-.03-.44Z"/>
                <path class="cls-16" d="M30.17,34.54c.51-.4,1.23-.56,1.83-.73,.63-.17,1.27-.32,1.91-.47,.64-.15,1.29-.3,1.94-.4,.31-.05,.63-.09,.94-.12,.27-.02,.59-.11,.84,.04,.03,.02,.03,.05,.02,.08-.16,.25-.49,.33-.74,.43-.29,.13-.59,.24-.89,.34-.63,.22-1.27,.39-1.9,.56-.63,.17-1.27,.34-1.9,.48-.61,.13-1.31,.32-1.94,.21-.18-.03-.24-.32-.1-.44Z"/>
                <path class="cls-16" d="M21.66,36.8c-.08-.51,.2-1.05,.73-1.16,.47-.1,.92,.14,1.22,.48,.16,.18,.29,.39,.49,.54,.18,.14,.57,.22,.74,.03,.05-.06,.13,.02,.08,.07-.15,.14-.26,.27-.46,.34-.19,.06-.41,.02-.58-.06-.38-.18-.57-.63-.96-.79-.29-.12-.63-.04-.63,.33,0,.45,.36,.73,.7,.96,.25,.18,.03,.6-.26,.48-.27-.11-.62,0-.77,.26-.15,.28-.05,.64,.21,.82,.32,.22,.67,.14,1.02,.06,.35-.08,.77-.12,1.02,.17,.04,.05-.01,.13-.07,.1-.5-.26-.97,.32-1.46,.35-.5,.03-.98-.23-1.2-.68-.2-.41-.16-.94,.14-1.29,.12-.14,.26-.24,.42-.31-.18-.2-.33-.43-.37-.7Z"/>
              </g>
              <g>
                <path class="cls-16" d="M54.02,36.44c-2.95-.19-5.91-.37-8.86-.56-.43-.03-.85-.05-1.28-.08-.52-.03-.52,.78,0,.81,2.95,.19,5.91,.37,8.86,.56,.43,.03,.85,.05,1.28,.08,.52,.03,.52-.78,0-.81h0Z"/>
                <path class="cls-16" d="M53.14,39.75c-2.82-.43-5.64-.85-8.46-1.28-.4-.06-.8-.12-1.2-.18-.51-.08-.73,.71-.22,.78,2.82,.43,5.64,.85,8.46,1.28,.4,.06,.8,.12,1.2,.18,.51,.08,.73-.71,.22-.78h0Z"/>
              </g>
              <path class="cls-7" d="M33.29,15.7c0,.56-2.23,1.01-4.98,1.01s-4.98-.45-4.98-1.01,2.23-1.01,4.98-1.01,4.98,.45,4.98,1.01Z"/>
              <path class="cls-7" d="M31.94,18.66c0,.53-1.63,.96-3.63,.96s-3.63-.43-3.63-.96,1.63-.96,3.63-.96,3.63,.43,3.63,.96Z"/>
            </g>
            <g>
              <g>
                <path class="cls-2" d="M12.84,51.51s-.54-7.91,3.18-11.71c2.56-2.62,4.52-.11,4.32,2.98-.3,4.53,2.7,8.72,2.7,8.72"/>
                <path class="cls-16" d="M13.28,51.39c-.2-2.92,.19-6.1,1.33-8.8,.41-.98,.96-1.92,1.68-2.7,.39-.42,.98-1.05,1.61-1.01,.47,.03,.89,.34,1.17,.69,.7,.86,.88,2.1,.84,3.17-.05,1.36,.07,2.68,.43,3.99,.47,1.71,1.23,3.43,2.26,4.88,.15,.21,.95-.15,.88-.24-.98-1.37-1.7-2.99-2.18-4.59-.43-1.44-.56-2.86-.51-4.36,.04-1.13-.19-2.44-1.01-3.29-1.73-1.81-4.24,.51-5.2,1.99-1.21,1.88-1.76,4.14-2.03,6.34-.17,1.37-.25,2.77-.16,4.15,0,.14,.9,0,.88-.24h0Z"/>
              </g>
              <path class="cls-16" d="M18.28,38.79c-.47,.05-.92,.27-1.26,.59-.37,.35-.58,.83-.62,1.34,0,.12,.17,.11,.25,.1,.08-.01,.15-.03,.22-.07,.04-.02,.11-.06,.12-.11,.04-.45,.19-.87,.51-1.2,0,0,.05-.05,.03-.03,.02-.02,.04-.03,.05-.05,.04-.03,.07-.06,.11-.09,.02-.01,.04-.03,.06-.04-.05,.04,0,0,.02-.01,.04-.02,.08-.04,.12-.06,.07-.03-.04,.02,0,0,.02,0,.04-.02,.06-.02,.02,0,.04-.01,.06-.02,.06-.02-.07,.02,0,0,.02,0,.04-.01,.06-.02,.01,0,.09-.02,.03,0-.06,.01,.02,0,.03,0,.02,0,.04,0,.07,0,.1-.01,.31-.07,.34-.18,.03-.12-.19-.1-.25-.1h0Z"/>
              <path class="cls-16" d="M18.67,38.77c-.32,.2-.58,.49-.73,.84-.17,.39-.16,.84,0,1.23,.04,.11,.25,.07,.33,.05,.06-.02,.3-.1,.26-.2-.14-.36-.16-.74-.02-1.11,.06-.15,.14-.28,.24-.41,.04-.05,.1-.11,.13-.14,.03-.03,.06-.05,.09-.08,.01,0,.03-.02,.04-.03,.06-.04-.04,.02,.02-.01,.07-.04,.19-.15,.06-.2-.12-.05-.31,0-.42,.06h0Z"/>
            </g>
          </g>
        </g>
      </g>
    </g>
  </g>
</svg>