<?xml version="1.0" encoding="UTF-8"?>
<svg xmlns="http://www.w3.org/2000/svg" xmlns:xlink="http://www.w3.org/1999/xlink" viewBox="0 0 64 64">
  <defs>
    <style>
      .cls-1 {
        fill: url(#linear-gradient-2);
      }

      .cls-2, .cls-3, .cls-4 {
        fill: #fff;
      }

      .cls-5, .cls-6, .cls-3, .cls-7, .cls-8 {
        stroke: #420033;
        stroke-linecap: round;
        stroke-linejoin: round;
      }

      .cls-5, .cls-9 {
        fill: #f24e95;
      }

      .cls-6, .cls-10 {
        fill: #8171f0;
      }

      .cls-11 {
        fill: #d9ff7e;
      }

      .cls-11, .cls-12, .cls-13 {
        mix-blend-mode: overlay;
      }

      .cls-11, .cls-4 {
        opacity: .5;
      }

      .cls-12 {
        fill: #8c8587;
      }

      .cls-14 {
        fill: #593f78;
      }

      .cls-15 {
        clip-path: url(#clippath-2);
      }

      .cls-16 {
        isolation: isolate;
      }

      .cls-17 {
        fill: #fc4e89;
      }

      .cls-18, .cls-19 {
        fill: #2b2829;
      }

      .cls-18, .cls-20 {
        mix-blend-mode: screen;
      }

      .cls-21 {
        fill: #dcc2a7;
      }

      .cls-22 {
        clip-path: url(#clippath-1);
      }

      .cls-23 {
        fill: #420033;
      }

      .cls-24 {
        opacity: .3;
      }

      .cls-25 {
        clip-path: url(#clippath);
      }

      .cls-26, .cls-7 {
        fill: none;
      }

      .cls-27 {
        clip-path: url(#clippath-3);
      }

      .cls-28 {
        fill: url(#linear-gradient);
      }

      .cls-8 {
        fill: #ff4dc9;
      }

      .cls-29 {
        fill: #8dc63f;
      }

      .cls-29, .cls-30 {
        mix-blend-mode: multiply;
      }

      .cls-30 {
        fill: #a3bf5f;
      }

      .cls-13 {
        fill: #998a8e;
      }
    </style>
    <linearGradient id="linear-gradient" x1="64" y1="34.03" x2="5.45" y2="34.03" gradientUnits="userSpaceOnUse">
      <stop offset="0" stop-color="#cf965b"/>
      <stop offset=".25" stop-color="#ca9257"/>
      <stop offset=".51" stop-color="#be864c"/>
      <stop offset=".78" stop-color="#a9733a"/>
      <stop offset="1" stop-color="#925d26"/>
    </linearGradient>
    <linearGradient id="linear-gradient-2" x1="61.28" y1="31.49" x2="1.36" y2="31.49" gradientUnits="userSpaceOnUse">
      <stop offset="0" stop-color="#e8b886"/>
      <stop offset=".25" stop-color="#e3b482"/>
      <stop offset=".5" stop-color="#d7a877"/>
      <stop offset=".76" stop-color="#c29464"/>
      <stop offset="1" stop-color="#a97c4e"/>
    </linearGradient>
    <clipPath id="clippath">
      <rect class="cls-26" x="3.16" y="1.94" width="49" height="49"/>
    </clipPath>
    <clipPath id="clippath-1">
      <path class="cls-6" d="M21.76,14.42c-7.08,1.31-14.02,6.97-15.02,18.32-.96,10.93,6.11,10.63,8.57,10.8,4.76,.32,24.13-2.88,25.02-10.84,.71-6.41-3.97-11.62-6.88-14.84-2.91-3.22-6.95-4.32-11.69-3.44Z"/>
    </clipPath>
    <clipPath id="clippath-2">
      <path class="cls-5" d="M40.05,46.48c-1.2,.29-2.48,.17-3.61-.33-3.82-1.67-6.85-5.05-8.52-8.74-1.44-3.17,.36-7.31,3.54-8.74,3.17-1.43,7.34,.04,9.16,3.19,1.62-2.41,5.16-3.27,7.7-1.87,2.54,1.4,3.71,4.85,2.55,7.51-1.93,4.39-5.93,7.79-10.81,8.98Z"/>
    </clipPath>
    <clipPath id="clippath-3">
      <path class="cls-6" d="M21.91,50.97c1.08-1.9,1.07-4.2,1.15-6.38,.03-.7,.08-1.45,.5-2.01,.55-.74,1.58-.94,2.5-.93,1.26,.02,2.51,.34,3.96,.79,.5-1.09,.3-3.37,1.16-4.04,.37-.29,.88-.33,1.3-.13,.43,.21,.76,.57,1.02,.97,.96,1.47,1.03,3.36,.76,5.09-.16,1.07-.47,2.17-1.2,2.97-.82,.89-2.06,1.28-3.27,1.31-1.21,.03-2.39-.27-3.56-.56"/>
    </clipPath>
  </defs>
  <g class="cls-16">
    <g id="_Слой_2" data-name="Слой 2">
      <g id="_Слой_1-2" data-name="Слой 1">
        <g>
          <g>
            <path class="cls-28" d="M60.49,6.68c-1.75-1.6-4.41-2.62-7.38-2.62H14.98c-5.26,0-9.53,3.19-9.53,7.11V55.87c0,2.22,1.37,4.2,3.51,5.51,1.75,1.6,4.41,2.62,7.38,2.62H54.47c5.26,0,9.53-3.19,9.53-7.11V12.19c0-2.22-1.37-4.2-3.51-5.51Z"/>
            <path class="cls-1" d="M57.77,4.65c-.41-.37-.86-.71-1.36-1.02-1.75-1.6-4.41-2.62-7.38-2.62H10.89C5.64,1.02,1.36,4.21,1.36,8.13V52.83c0,2.22,1.37,4.2,3.51,5.51,.41,.37,.86,.71,1.36,1.02,1.75,1.6,4.41,2.62,7.38,2.62H51.74c5.26,0,9.53-3.19,9.53-7.11V10.16c0-2.22-1.37-4.2-3.51-5.51Z"/>
            <path class="cls-21" d="M47.66,0H9.53C4.28,0,0,3.19,0,7.11V51.81c0,3.92,4.28,7.11,9.53,7.11H47.66c5.26,0,9.53-3.19,9.53-7.11V7.11c0-3.92-4.28-7.11-9.53-7.11Z"/>
          </g>
          <path class="cls-13" d="M5.89,14.33c-.01-2.85,.17-6.06,2.96-8,2.12-1.47,5.21-1.81,8.09-1.99,6.68-.42,13.42-.36,20.09,.18,3.3,.26,6.79,.71,9.28,2.36,3.69,2.45,3.93,6.61,3.9,10.29-.08,9.24-.15,18.48-.23,27.72-.02,2.2-.08,4.51-1.54,6.42-1.54,2-4.45,3.25-7.46,3.8-3.01,.55-6.15,.48-9.24,.41-5.15-.12-10.31-.24-15.43-.71-2.79-.26-9.22-.18-10.19-2.65-.66-1.68-.07-4.15-.07-5.9,0-2.02-.02-4.03-.03-6.05-.02-4.03-.04-8.06-.06-12.1-.02-4.59-.04-9.18-.07-13.78Z"/>
          <path class="cls-13" d="M20.65,20.31c-3.25-.39-6.54-1.19-8.94-2.87-2.39-1.69-3.67-4.43-2.38-6.69,.89-1.57,2.87-2.69,5.01-3.3,2.14-.61,4.45-.77,6.74-.89,5.74-.3,11.52-.39,17.22,.17,2.22,.22,4.55,.57,6.21,1.7,2.93,1.99,2.55,5.66,.4,8.14-5.33,6.17-16.02,4.75-24.26,3.75Z"/>
          <path class="cls-18" d="M9.75,46.11c-.57-1.77-.49-3.61-.4-5.43,.37-7.55,.74-15.09,1.11-22.64,.14-2.75,.39-5.74,2.81-7.82,2.2-1.89,5.7-2.58,9.03-2.93,4.04-.42,8.14-.47,12.2-.14,3.7,.3,7.69,1.06,9.9,3.3,1.87,1.9,2.03,4.41,2.12,6.77,.33,9.07,.66,18.2-1.13,27.18-.4,1.99-1,4.12-2.97,5.5-2.25,1.58-5.63,1.75-8.72,1.75-5.06,0-10.12-.25-15.13-.73-4.65-.45-7.58-.99-8.81-4.8Z"/>
          <path class="cls-29" d="M47.66,1.02h-1.63c4.51,0,8.17,2.73,8.17,6.1V51.81c0,3.37-3.66,6.1-8.17,6.1h1.63c4.51,0,8.17-2.73,8.17-6.1V7.11c0-3.37-3.66-6.1-8.17-6.1Z"/>
          <path class="cls-11" d="M44.83,56.21c2.15-.26,4.29-1.07,5.39-2.47,.86-1.09,1-2.4,1.05-3.66,.05-1.24,.02-2.47-.08-3.71-.07-.81-.31-1.78-1.32-2.08-.75-.23-1.65,.04-2.16,.52-.51,.47-.69,1.1-.74,1.7-.11,1.25,.25,2.52-.08,3.75-.39,1.42-1.68,2.63-3.23,3.51-1.13,.64-4.12,1.25-4.5,2.21,1.43,.58,4.04,.42,5.67,.23Z"/>
          <path class="cls-12" d="M3.88,2.71c-1.55,1.11-2.52,2.67-2.52,4.4v26.08c12.35-3.44,32.73-4.39,54.47,14.33v-14.97C26.86,28.05,11.39,13.17,3.88,2.71Z"/>
          <path class="cls-4" d="M3.58,9.23c.26-1.79,1.27-3.6,3.21-4.67,2.66-1.47,6.31-1.25,9.61-.96,1.02,.09,2.32,.39,2.36,1.15,.03,.67-.97,1.08-1.84,1.21-2.2,.34-4.63-.04-6.59,.77-1.42,.58-2.33,1.69-2.8,2.85s-.56,2.38-.73,3.58c-.07,.46-.15,.93-.44,1.34-1.08,1.49-2.05,.48-2.43-.37-.6-1.35-.53-3.5-.32-4.91Z"/>
          <g class="cls-20">
            <ellipse class="cls-19" cx="32.66" cy="10.91" rx="4.07" ry="3.03"/>
            <path class="cls-19" d="M43.37,11.71c.45,.84-.09,1.78-1.21,2.12-1.12,.34-2.39-.07-2.84-.91-.45-.84,.09-1.78,1.21-2.12,1.12-.34,2.39,.07,2.84,.91Z"/>
            <path class="cls-19" d="M40.11,16.13c.37,.7-.08,1.49-1.01,1.77-.93,.28-1.99-.06-2.37-.76-.37-.7,.08-1.49,1.01-1.77,.93-.28,1.99,.06,2.37,.76Z"/>
          </g>
          <g class="cls-20">
            <path class="cls-19" d="M23.64,45.38c.8,1.49-.17,3.17-2.16,3.77-1.99,.6-4.25-.13-5.05-1.61-.8-1.49,.17-3.17,2.16-3.77,1.99-.6,4.25,.13,5.05,1.61Z"/>
            <path class="cls-19" d="M20.79,40.39c.22,.41-.05,.87-.59,1.03-.54,.16-1.16-.03-1.38-.44-.22-.41,.05-.87,.59-1.03,.54-.16,1.16,.03,1.38,.44Z"/>
            <path class="cls-19" d="M15.3,41.5c.45,.84-.09,1.78-1.21,2.12-1.12,.34-2.39-.07-2.84-.91-.45-.84,.09-1.78,1.21-2.12,1.12-.34,2.39,.07,2.84,.91Z"/>
          </g>
          <g class="cls-24">
            <path class="cls-30" d="M51.02,35.95c.79,1.47-.17,3.15-2.14,3.74-1.98,.59-4.22-.12-5.01-1.6-.79-1.47,.17-3.15,2.14-3.74,1.98-.59,4.22,.12,5.01,1.6Z"/>
            <path class="cls-30" d="M53.92,29.6c.58,1.08-.12,2.3-1.57,2.74-1.45,.43-3.09-.09-3.67-1.17-.58-1.08,.12-2.3,1.57-2.74,1.45-.43,3.09,.09,3.67,1.17Z"/>
            <path class="cls-30" d="M45.56,30.99c.37,.7-.08,1.49-1.01,1.77-.93,.28-1.99-.06-2.37-.75-.37-.7,.08-1.49,1.01-1.77,.93-.28,1.99,.06,2.37,.76Z"/>
            <path class="cls-30" d="M10.65,25.55c.41,.75-.09,1.61-1.1,1.92-1.01,.3-2.16-.06-2.57-.82-.41-.75,.09-1.61,1.1-1.92,1.01-.3,2.16,.06,2.57,.82Z"/>
            <path class="cls-30" d="M11.29,21.09c.21,.39-.04,.84-.57,1-.53,.16-1.13-.03-1.34-.43-.21-.39,.04-.84,.57-1,.53-.16,1.13,.03,1.34,.43Z"/>
            <path class="cls-30" d="M6.59,20.15c.34,.63-.07,1.34-.91,1.59-.84,.25-1.79-.05-2.13-.68-.34-.63,.07-1.34,.91-1.59,.84-.25,1.79,.05,2.13,.68Z"/>
          </g>
        </g>
        <g class="cls-25">
          <g>
            <g>
              <path class="cls-6" d="M34.05,51.79c-.09-.97-.35-2.71-.73-3.61,1.55,.61,3.45,1.12,5.04,.29,1.6-.83,2.5-1.97,3.94-3.57-3.61-2.37-7.57-4.22-11.26-5.34-1.97,.23-3.93,.6-5.9,1.21-.58,3.5-1.63,6.92-3.11,10.14"/>
              <path class="cls-2" d="M27,51.69c.88-3.5,.75-7.25-.47-10.57,.96-.13,1.91-.26,2.98-.09,2.37,3.1,3.69,6.98,3.71,10.87-2.03-.17-4.07-.23-6.22-.21Z"/>
            </g>
            <g>
              <g>
                <path class="cls-6" d="M20.01,15.04s-7.68-3.49-14.45-2.6c0,0-1.93,6.49,2.11,16.14l12.35-13.54Z"/>
                <path class="cls-8" d="M8.73,24.78c-.46-.23-1.01-1.17-.86-1.66,.15-.49,.67-.83,1.18-.77-.67-.05-1.16-.88-.87-1.5s1.23-.77,1.7-.29c-.28-1.3-.57-2.62-1.08-3.85-.51-1.23-1.26-2.4-2.57-3.39-.84,4.69-.16,9.63,1.91,13.92,.19-.93,.36-1.53,.59-2.47Z"/>
              </g>
              <g>
                <path class="cls-10" d="M21.76,14.42c-7.08,1.31-14.02,6.97-15.02,18.32-.96,10.93,6.11,10.63,8.57,10.8,4.76,.32,24.13-2.88,25.02-10.84,.71-6.41-3.97-11.62-6.88-14.84-2.91-3.22-6.95-4.32-11.69-3.44Z"/>
                <g class="cls-22">
                  <path class="cls-2" d="M11.66,44.03c-.96-.57-1.77-1.45-2.06-2.52-.29-1.07,.01-2.34,.89-3.02,1.32-1.02,3.44-.53,4.63-1.69,.17-1.37,.41-2.87,.64-4.37,.21-1.36,.55-2.9,1.77-3.55,.88-.47,2-.28,2.84,.25,.84,.53,1.45,1.36,1.97,2.21,.52,.85,.97,1.75,1.47,2.5,.82,.39,1.79,.31,2.68,.13s1.77-.47,2.68-.48c1.65-.01,3.26,.99,3.97,2.47,.71,1.48,.48,3.38-.58,4.64-.79,.93-1.93,1.49-3.07,1.92-5.54,2.13-12.48,4.69-17.84,1.51Z"/>
                </g>
                <path class="cls-7" d="M21.76,14.42c-7.08,1.31-14.02,6.97-15.02,18.32-.96,10.93,6.11,10.63,8.57,10.8,4.76,.32,24.13-2.88,25.02-10.84,.71-6.41-3.97-11.62-6.88-14.84-2.91-3.22-6.95-4.32-11.69-3.44Z"/>
              </g>
              <g>
                <path class="cls-6" d="M22.87,15.11c3.13-4.05,7.61-7.04,12.86-8.28,3.09,4.95,3.71,11.36,1.65,16.82"/>
                <path class="cls-8" d="M36.29,22.34c-.67-.75-1.28-1.15-2.02-1.4,.41-.39,.59-1.07,.31-1.56-.27-.48-.96-.69-1.45-.43,.52-.23,.9-.74,.88-1.25-.02-.52-.44-.99-.95-1.07-.51-.08-1.23,.23-1.41,.72,.64-1.58,.48-2.79,.77-4.47,.35-2.04,1.36-3.82,2.75-4.58,2.19,5.24,2.62,9.78,1.11,14.04Z"/>
              </g>
              <g>
                <g>
                  <path class="cls-23" d="M12.48,30.48c-.86,.17-2.47,1.6-2.75,4.41-.28,2.82,.64,3.66,1.51,3.87,1.24,.29,4.31-.62,4.47-2.3,.19-1.98-1.14-6.4-3.23-5.98Z"/>
                  <path class="cls-14" d="M10.61,35.74c-.26,.66,.17,1.46,.82,1.75s1.42,.18,2.06-.13c.4-.19,.78-.46,1.02-.84,.24-.38,.31-.88,.11-1.28s-.69-.65-1.12-.51c-.3,.11-.52,.38-.82,.48-.25,.08-.52,.03-.78-.03-.26-.06-.53-.11-.78-.04-.25,.07-.41,.34-.51,.59Z"/>
                  <path class="cls-2" d="M14,32.4c-.16-.48-.57-.87-1.05-1.02-.3-.09-.65-.09-.91,.09-.26,.18-.37,.58-.18,.83,.22,.3,.68,.27,.96,.5,.23,.18,.33,.52,.61,.62,.23,.09,.51-.04,.64-.25,.13-.21,.05-.43-.06-.78Z"/>
                </g>
                <g>
                  <path class="cls-23" d="M29.59,30.26c-.24-1.08-.77-2.11-1.59-2.84-.83-.73-1.97-1.13-3.06-.93-1.09,.19-1.84,.89-2.23,2.1-1.37,4.26-.2,5.25,.24,5.6,.96,.77,2.95,.44,4.22-.27,1.27-.71,2.78-2.05,2.42-3.65Z"/>
                  <path class="cls-14" d="M23.2,31.81c-.14,.54,.09,1.12,.55,1.45,.46,.33,1.08,.41,1.65,.32,1.2-.19,2.27-.89,2.62-1.35,.26-.34,.37-.88,.27-1.29s-.46-.77-.9-.79c-.75-.03-1.23,.84-1.98,.97-.29,.05-.58-.02-.87-.08s-1.14-.09-1.36,.76Z"/>
                  <path class="cls-2" d="M26.77,27.92c-.26-.43-.74-.73-1.25-.77-.31-.03-.66,.05-.87,.29-.21,.23-.24,.64,0,.85,.27,.24,.72,.12,1.05,.28,.26,.13,.44,.43,.73,.48,.25,.04,.49-.15,.57-.38,.08-.23-.04-.44-.23-.75Z"/>
                </g>
                <path class="cls-8" d="M18.72,36.37c-.41,.05-.84-.07-1.19-.42-.2-.19-.17-.52,.06-.67,.57-.38,1.25-.6,1.99-.65,.28-.02,.47,.27,.37,.52-.24,.58-.61,1.15-1.23,1.23Z"/>
                <path class="cls-3" d="M16.45,37.76c-.26,.41-.03,1.02,.4,1.25s.98,.15,1.41-.09c.43-.24,.76-.62,1.13-1.08,.84,.29,1.8,.23,2.6-.16,.41-.2,.8-.5,.95-.93,.15-.43-.04-.99-.47-1.13"/>
              </g>
              <g>
                <path class="cls-23" d="M8.45,38.31c-2.72,.08-4.93,.53-7.47,1.49,1.66-2.17,5.11-2.85,7.47-1.49h0Z"/>
                <path class="cls-23" d="M9.31,40.37c-2.15,1.32-3.76,2.57-5.56,4.34,.51-2.47,3.04-4.44,5.56-4.34h0Z"/>
                <path class="cls-23" d="M37.78,26.5c.97-2.79,4.73-4.36,7.4-3.06-2.89,.25-5.18,1.19-7.4,3.06h0Z"/>
                <path class="cls-23" d="M39.38,29.27c1.88-1.97,5.32-2.36,7.59-.85-2.72-.1-4.96,.15-7.59,.85h0Z"/>
              </g>
            </g>
            <path class="cls-7" d="M30.19,41.9c-.16,.59-.44,1.15-.8,1.65"/>
            <g>
              <g>
                <path class="cls-9" d="M40.05,46.48c-1.2,.29-2.48,.17-3.61-.33-3.82-1.67-6.85-5.05-8.52-8.74-1.44-3.17,.36-7.31,3.54-8.74,3.17-1.43,7.34,.04,9.16,3.19,1.62-2.41,5.16-3.27,7.7-1.87,2.54,1.4,3.71,4.85,2.55,7.51-1.93,4.39-5.93,7.79-10.81,8.98Z"/>
                <g class="cls-15">
                  <path class="cls-17" d="M28.2,30.03c2-1.08,4.43-1.3,6.59-.61,2.16,.69,4.01,2.29,5.11,4.61,1.41-.56,3.05-.46,4.39,.24,1.34,.71,2.34,2.02,2.66,3.5,.41,1.83-.2,3.76-1.25,5.31s-2.5,2.78-3.96,3.95c4.17-.5,8.06-2.98,10.27-6.55,1.82-2.93,2.48-6.74,1.04-9.88-1.42-3.11-4.6-5.06-7.84-6.16-3.13-1.07-6.52-1.53-9.76-.87-3.24,.65-6.31,2.49-7.27,6.46Z"/>
                </g>
                <path class="cls-7" d="M40.05,46.48c-1.2,.29-2.48,.17-3.61-.33-3.82-1.67-6.85-5.05-8.52-8.74-1.44-3.17,.36-7.31,3.54-8.74,3.17-1.43,7.34,.04,9.16,3.19,1.62-2.41,5.16-3.27,7.7-1.87,2.54,1.4,3.71,4.85,2.55,7.51-1.93,4.39-5.93,7.79-10.81,8.98Z"/>
              </g>
              <g>
                <path class="cls-10" d="M27.19,37.24c.6-4.48,3.97-8.46,8.3-9.68-2.56-.44-5.32,.54-7.02,2.5-1.7,1.96-2.97,4.77-1.28,7.18Z"/>
                <path class="cls-7" d="M27.18,37.87c.12-2.3,.97-4.55,2.39-6.35,1.42-1.81,3.41-3.16,5.61-3.82"/>
                <path class="cls-7" d="M30.01,28.74c-2.15,1.16-3.61,3.52-3.67,5.96"/>
              </g>
              <g>
                <path class="cls-2" d="M47.82,32.21c-.35-.51-.79-.98-1.36-1.23-.57-.25-1.26-.25-1.77,.1s-.74,1.1-.43,1.63c.33,.56,1.09,.72,1.5,1.23,.42,.51,.43,1.33,.99,1.69,.43,.28,1.05,.14,1.4-.24s.45-.93,.39-1.44c-.06-.51-.23-1.02-.71-1.73Z"/>
                <path class="cls-2" d="M48.11,37.27c-.41-.35-1.09-.33-1.48,.05-.39,.38-.43,1.05-.1,1.48,.34,.42,1.01,.53,1.46,.24,.46-.29,.85-1.14,.12-1.77Z"/>
              </g>
            </g>
            <g>
              <path class="cls-10" d="M21.91,50.97c1.08-1.9,1.07-4.2,1.15-6.38,.03-.7,.08-1.45,.5-2.01,.55-.74,1.58-.94,2.5-.93,1.26,.02,2.51,.34,3.96,.79,.5-1.09,.3-3.37,1.16-4.04,.37-.29,.88-.33,1.3-.13,.43,.21,.76,.57,1.02,.97,.96,1.47,1.03,3.36,.76,5.09-.16,1.07-.47,2.17-1.2,2.97-.82,.89-2.06,1.28-3.27,1.31-1.21,.03-2.39-.27-3.56-.56"/>
              <g class="cls-27">
                <path class="cls-2" d="M30.01,41.55c.51,.73,1.38,1.27,2.35,1.44,.97,.17,2.01-.03,2.81-.6,.09-1.37-.34-2.77-1.23-3.91-.27-.34-.58-.67-.99-.88-.41-.21-.93-.29-1.36-.12-.45,.17-.73,.57-.93,.97-.51,1.02-.63,2.15-.65,3.1Z"/>
              </g>
              <path class="cls-7" d="M21.91,50.97c1.08-1.9,1.07-4.2,1.15-6.38,.03-.7,.08-1.45,.5-2.01,.55-.74,1.58-.94,2.5-.93,1.26,.02,2.51,.34,3.96,.79,.5-1.09,.3-3.37,1.16-4.04,.37-.29,.88-.33,1.3-.13,.43,.21,.76,.57,1.02,.97,.96,1.47,1.03,3.36,.76,5.09-.16,1.07-.47,2.17-1.2,2.97-.82,.89-2.06,1.28-3.27,1.31-1.21,.03-2.39-.27-3.56-.56"/>
            </g>
          </g>
        </g>
      </g>
    </g>
  </g>
</svg>