<?xml version="1.0" encoding="UTF-8"?>
<svg xmlns="http://www.w3.org/2000/svg" xmlns:xlink="http://www.w3.org/1999/xlink" viewBox="0 0 64 64">
  <defs>
    <style>
      .cls-1 {
        fill: url(#linear-gradient-2);
      }

      .cls-2, .cls-3 {
        fill: #fff;
      }

      .cls-4 {
        fill: #650000;
      }

      .cls-5 {
        fill: #f6f6f6;
      }

      .cls-6 {
        fill: #8c8587;
      }

      .cls-6, .cls-7, .cls-8 {
        mix-blend-mode: overlay;
      }

      .cls-9 {
        opacity: .6;
      }

      .cls-10 {
        isolation: isolate;
      }

      .cls-3, .cls-7 {
        opacity: .5;
      }

      .cls-11 {
        mix-blend-mode: multiply;
      }

      .cls-11, .cls-7 {
        fill: #c8bbff;
      }

      .cls-12, .cls-13 {
        fill: #2b2829;
      }

      .cls-12, .cls-14 {
        mix-blend-mode: screen;
      }

      .cls-15 {
        fill: #dcc2a7;
      }

      .cls-16 {
        opacity: .3;
      }

      .cls-17 {
        fill: #f87b38;
      }

      .cls-18 {
        fill: #b199c5;
      }

      .cls-19 {
        fill: url(#linear-gradient);
      }

      .cls-20 {
        fill: #982e20;
      }

      .cls-8 {
        fill: #998a8e;
      }

      .cls-21 {
        fill: #ff5582;
      }
    </style>
    <linearGradient id="linear-gradient" x1="64" y1="34.03" x2="5.45" y2="34.03" gradientUnits="userSpaceOnUse">
      <stop offset="0" stop-color="#cf965b"/>
      <stop offset=".25" stop-color="#ca9257"/>
      <stop offset=".51" stop-color="#be864c"/>
      <stop offset=".78" stop-color="#a9733a"/>
      <stop offset="1" stop-color="#925d26"/>
    </linearGradient>
    <linearGradient id="linear-gradient-2" x1="61.28" y1="31.49" x2="1.36" y2="31.49" gradientUnits="userSpaceOnUse">
      <stop offset="0" stop-color="#e8b886"/>
      <stop offset=".25" stop-color="#e3b482"/>
      <stop offset=".5" stop-color="#d7a877"/>
      <stop offset=".76" stop-color="#c29464"/>
      <stop offset="1" stop-color="#a97c4e"/>
    </linearGradient>
  </defs>
  <g class="cls-10">
    <g id="_Слой_2" data-name="Слой 2">
      <g id="_Слой_1-2" data-name="Слой 1">
        <g>
          <g>
            <path class="cls-19" d="M60.49,6.68c-1.75-1.6-4.41-2.62-7.38-2.62H14.98c-5.26,0-9.53,3.19-9.53,7.11V55.87c0,2.22,1.37,4.2,3.51,5.51,1.75,1.6,4.41,2.62,7.38,2.62H54.47c5.26,0,9.53-3.19,9.53-7.11V12.19c0-2.22-1.37-4.2-3.51-5.51Z"/>
            <path class="cls-1" d="M57.77,4.65c-.41-.37-.86-.71-1.36-1.02-1.75-1.6-4.41-2.62-7.38-2.62H10.89C5.64,1.02,1.36,4.21,1.36,8.13V52.83c0,2.22,1.37,4.2,3.51,5.51,.41,.37,.86,.71,1.36,1.02,1.75,1.6,4.41,2.62,7.38,2.62H51.74c5.26,0,9.53-3.19,9.53-7.11V10.16c0-2.22-1.37-4.2-3.51-5.51Z"/>
            <path class="cls-15" d="M47.66,0H9.53C4.28,0,0,3.19,0,7.11V51.81c0,3.92,4.28,7.11,9.53,7.11H47.66c5.26,0,9.53-3.19,9.53-7.11V7.11c0-3.92-4.28-7.11-9.53-7.11Z"/>
          </g>
          <path class="cls-8" d="M5.89,14.33c-.01-2.85,.17-6.06,2.96-8,2.12-1.47,5.21-1.81,8.09-1.99,6.68-.42,13.42-.36,20.09,.18,3.3,.26,6.79,.71,9.28,2.36,3.69,2.45,3.93,6.61,3.9,10.29-.08,9.24-.15,18.48-.23,27.72-.02,2.2-.08,4.51-1.54,6.42-1.54,2-4.45,3.25-7.46,3.8-3.01,.55-6.15,.48-9.24,.41-5.15-.12-10.31-.24-15.43-.71-2.79-.26-9.22-.18-10.19-2.65-.66-1.68-.07-4.15-.07-5.9,0-2.02-.02-4.03-.03-6.05-.02-4.03-.04-8.06-.06-12.1-.02-4.59-.04-9.18-.07-13.78Z"/>
          <path class="cls-8" d="M20.65,20.31c-3.25-.39-6.54-1.19-8.94-2.87-2.39-1.69-3.67-4.43-2.38-6.69,.89-1.57,2.87-2.69,5.01-3.3,2.14-.61,4.45-.77,6.74-.89,5.74-.3,11.52-.39,17.22,.17,2.22,.22,4.55,.57,6.21,1.7,2.93,1.99,2.55,5.66,.4,8.14-5.33,6.17-16.02,4.75-24.26,3.75Z"/>
          <path class="cls-12" d="M9.75,46.11c-.57-1.77-.49-3.61-.4-5.43,.37-7.55,.74-15.09,1.11-22.64,.14-2.75,.39-5.74,2.81-7.82,2.2-1.89,5.7-2.58,9.03-2.93,4.04-.42,8.14-.47,12.2-.14,3.7,.3,7.69,1.06,9.9,3.3,1.87,1.9,2.03,4.41,2.12,6.77,.33,9.07,.66,18.2-1.13,27.18-.4,1.99-1,4.12-2.97,5.5-2.25,1.58-5.63,1.75-8.72,1.75-5.06,0-10.12-.25-15.13-.73-4.65-.45-7.58-.99-8.81-4.8Z"/>
          <path class="cls-11" d="M47.66,1.02h-1.63c4.51,0,8.17,2.73,8.17,6.1V51.81c0,3.37-3.66,6.1-8.17,6.1h1.63c4.51,0,8.17-2.73,8.17-6.1V7.11c0-3.37-3.66-6.1-8.17-6.1Z"/>
          <path class="cls-7" d="M44.83,56.21c2.15-.26,4.29-1.07,5.39-2.47,.86-1.09,1-2.4,1.05-3.66,.05-1.24,.02-2.47-.08-3.71-.07-.81-.31-1.78-1.32-2.08-.75-.23-1.65,.04-2.16,.52s-.69,1.1-.74,1.7c-.11,1.25,.25,2.52-.08,3.75-.39,1.42-1.68,2.63-3.23,3.51-1.13,.64-4.12,1.25-4.5,2.21,1.43,.58,4.04,.42,5.67,.23Z"/>
          <path class="cls-6" d="M3.88,2.71c-1.55,1.11-2.52,2.67-2.52,4.4v26.08c12.35-3.44,32.73-4.39,54.47,14.33v-14.97C26.86,28.05,11.39,13.17,3.88,2.71Z"/>
          <path class="cls-3" d="M3.58,9.23c.26-1.79,1.27-3.6,3.21-4.67,2.66-1.47,6.31-1.25,9.61-.96,1.02,.09,2.32,.39,2.36,1.15,.03,.67-.97,1.08-1.84,1.21-2.2,.34-4.63-.04-6.59,.77-1.42,.58-2.33,1.69-2.8,2.85s-.56,2.38-.73,3.58c-.07,.46-.15,.93-.44,1.34-1.08,1.49-2.05,.48-2.43-.37-.6-1.35-.53-3.5-.32-4.91Z"/>
          <g class="cls-14">
            <path class="cls-13" d="M36.44,9.78c.84,1.55-.18,3.32-2.26,3.94-2.08,.62-4.45-.13-5.29-1.69-.84-1.55,.18-3.32,2.26-3.94,2.08-.62,4.45,.13,5.29,1.69Z"/>
            <path class="cls-13" d="M43.37,11.71c.45,.84-.09,1.78-1.21,2.12-1.12,.34-2.39-.07-2.84-.91-.45-.84,.09-1.78,1.21-2.12,1.12-.34,2.39,.07,2.84,.91Z"/>
            <ellipse class="cls-13" cx="38.42" cy="16.63" rx="1.82" ry="1.36"/>
          </g>
          <g class="cls-14">
            <path class="cls-13" d="M23.64,45.38c.8,1.49-.17,3.17-2.16,3.77-1.99,.6-4.25-.13-5.05-1.61-.8-1.49,.17-3.17,2.16-3.77,1.99-.6,4.25,.13,5.05,1.61Z"/>
            <path class="cls-13" d="M20.79,40.39c.22,.41-.05,.87-.59,1.03-.54,.16-1.16-.03-1.38-.44-.22-.41,.05-.87,.59-1.03,.54-.16,1.16,.03,1.38,.44Z"/>
            <path class="cls-13" d="M15.3,41.5c.45,.84-.09,1.78-1.21,2.12-1.12,.34-2.39-.07-2.84-.91-.45-.84,.09-1.78,1.21-2.12,1.12-.34,2.39,.07,2.84,.91Z"/>
          </g>
          <g class="cls-16">
            <path class="cls-11" d="M51.02,35.95c.79,1.47-.17,3.15-2.14,3.74-1.98,.59-4.22-.12-5.01-1.6-.79-1.47,.17-3.15,2.14-3.74,1.98-.59,4.22,.12,5.01,1.6Z"/>
            <path class="cls-11" d="M53.92,29.6c.58,1.08-.12,2.3-1.57,2.74-1.45,.43-3.09-.09-3.67-1.17-.58-1.08,.12-2.3,1.57-2.74,1.45-.43,3.09,.09,3.67,1.17Z"/>
            <path class="cls-11" d="M45.56,30.99c.37,.7-.08,1.49-1.01,1.77-.93,.28-1.99-.06-2.37-.75-.37-.7,.08-1.49,1.01-1.77,.93-.28,1.99,.06,2.37,.76Z"/>
            <path class="cls-11" d="M10.65,25.55c.41,.75-.09,1.61-1.1,1.92-1.01,.3-2.16-.06-2.57-.82-.41-.75,.09-1.61,1.1-1.92,1.01-.3,2.16,.06,2.57,.82Z"/>
            <path class="cls-11" d="M11.29,21.09c.21,.39-.04,.84-.57,1-.53,.16-1.13-.03-1.34-.43-.21-.39,.04-.84,.57-1,.53-.16,1.13,.03,1.34,.43Z"/>
            <path class="cls-11" d="M6.59,20.15c.34,.63-.07,1.34-.91,1.59-.84,.25-1.79-.05-2.13-.68-.34-.63,.07-1.34,.91-1.59,.84-.25,1.79,.05,2.13,.68Z"/>
          </g>
        </g>
      </g>
      <g id="_Слой_10" data-name="Слой 10">
        <g id="_Слой_9" data-name="Слой 9">
          <g>
            <path class="cls-4" d="M43.19,53.86c-.48,0-.96-.06-1.43-.17-.92-.23-1.69-.64-2.28-1.23-1.01,.05-6.05,.25-9.01-1.19-.13-.06-.21-.19-.21-.33v-10.88c0-.1,.04-.19,.11-.26,.07-.07,.17-.1,.27-.1,.41,.02,9.74,.47,13.16,4.61,.5-.42,1.08-.68,1.71-.78,1.47-.23,2.84,.55,3.55,2.03,.85,1.76,.68,4.49-1.63,6.63-1.19,1.1-2.71,1.7-4.25,1.7Zm-3.56-2.14c.1,0,.2,.04,.27,.12,.51,.55,1.19,.94,2.04,1.15,1.76,.43,3.63-.07,5.01-1.35,2.03-1.88,2.2-4.26,1.47-5.77-.57-1.18-1.64-1.8-2.79-1.62-.61,.09-1.15,.38-1.61,.86-.08,.08-.18,.12-.29,.11-.11,0-.21-.06-.27-.15-2.64-3.68-10.63-4.47-12.47-4.61v10.26c3.1,1.37,8.56,1.02,8.61,1.02,0,0,.02,0,.02,0Z"/>
            <g>
              <path class="cls-17" d="M30.62,40.05v10.88c3.19,1.55,9,1.15,9,1.15,.63,.68,1.43,1.06,2.22,1.25,1.9,.47,3.91-.1,5.34-1.44,3.72-3.45,1.65-8.54-1.62-8.02-.76,.12-1.36,.49-1.81,.96-3.12-4.35-13.13-4.78-13.13-4.78Z"/>
              <path class="cls-4" d="M43.19,53.86c-.48,0-.96-.06-1.43-.17-.92-.23-1.69-.64-2.28-1.23-1.01,.05-6.05,.25-9.01-1.19-.13-.06-.21-.19-.21-.33v-10.88c0-.1,.04-.19,.11-.26,.07-.07,.17-.1,.27-.1,.41,.02,9.74,.47,13.16,4.61,.5-.42,1.08-.68,1.71-.78,1.47-.23,2.84,.55,3.55,2.03,.85,1.76,.68,4.49-1.63,6.63-1.19,1.1-2.71,1.7-4.25,1.7Zm-3.56-2.14c.1,0,.2,.04,.27,.12,.51,.55,1.19,.94,2.04,1.15,1.76,.43,3.63-.07,5.01-1.35,2.03-1.88,2.2-4.26,1.47-5.77-.57-1.18-1.64-1.8-2.79-1.62-.61,.09-1.15,.38-1.61,.86-.08,.08-.18,.12-.29,.11-.11,0-.21-.06-.27-.15-2.64-3.68-10.63-4.47-12.47-4.61v10.26c3.1,1.37,8.56,1.02,8.61,1.02,0,0,.02,0,.02,0Z"/>
            </g>
            <path class="cls-4" d="M43.92,45.19c-.31,.35-.58,.74-.83,1.16-.12,.21-.23,.43-.35,.66-.11,.23-.22,.45-.34,.69,0,.01-.04,.02-.07,0-.03,0-.05-.02-.05-.03-.01-.27,.01-.53,.06-.79,.05-.26,.12-.52,.21-.77,.18-.5,.44-.99,.82-1.41,.06-.07,.23-.01,.37,.13,.14,.14,.22,.3,.17,.36Z"/>
            <g class="cls-16">
              <path class="cls-4" d="M44.44,52.54c-1.8-.47-2.78-2.12-2.18-4.43,.04-.14,.08-.27,.12-.41h0s-2.34,3.72-11.67,1.56c-.03,0-.06-.01-.09-.02v1.69c3.19,1.55,9,1.15,9,1.15,.63,.68,1.43,1.06,2.22,1.25,1.59,.39,3.24,.06,4.58-.84-.63,.2-1.32,.22-1.99,.04Z"/>
            </g>
            <g>
              <ellipse class="cls-20" cx="44.87" cy="49.48" rx="1.45" ry="1.75" transform="translate(-16.21 76.52) rotate(-71.67)"/>
              <ellipse class="cls-20" cx="46.4" cy="46.74" rx=".73" ry=".6" transform="translate(-17.27 63.55) rotate(-60)"/>
              <ellipse class="cls-20" cx="44.58" cy="46.64" rx=".73" ry=".6" transform="translate(-15.91 69.09) rotate(-66.66)"/>
              <ellipse class="cls-20" cx="47.47" cy="48.31" rx=".73" ry=".6" transform="translate(-15.69 72.75) rotate(-66.66)"/>
            </g>
            <path class="cls-17" d="M16.97,33.06c.19-.44,.33-.89,.42-1.36,.69-3.67-2.25-5.58-5.19-5.62-3.21-.05-5.46,1.24-6.75,6.44-1.79,8.27,1.84,15.96,11.08,17.4l5.63-6.92c-6.89,2.87-7.61-4.35-5.19-9.94Z"/>
            <path class="cls-20" d="M16.57,34.09c-.32,.9-.55,1.82-.7,2.72-1.26-2.86-3.65-4.64-6.71-4.85-1.44-.1-2.77,.13-3.65,.34,.22-.86,.47-1.62,.75-2.27,.87-.14,1.92-.22,3.02-.15,3.18,.21,5.66,1.66,7.28,4.21Z"/>
            <path class="cls-20" d="M16.06,41.15c-1.44,.13-4.93,.86-7.49,4.88-.94-.97-1.69-2.08-2.25-3.29,1.57-1.51,4.79-3.79,9.43-3.14,.05,.56,.15,1.08,.31,1.56Z"/>
            <path class="cls-20" d="M15.84,37.04c-.07,.5-.11,1-.12,1.48-5.24-2.46-8.73-.31-10.37,1.22-.23-1.13-.34-2.31-.32-3.52,6.4-3.39,9.87-.27,10.81,.82Z"/>
            <path class="cls-20" d="M15.21,49.66c-1.49-.35-2.81-.88-3.97-1.55,1.32-4.79,4.26-5.88,5.19-6.12,.21,.37,.47,.69,.79,.95-1.76,2.27-2.11,4.77-2.01,6.72Z"/>
            <g class="cls-9">
              <path class="cls-2" d="M12.62,26.94c1.85,.03,3.69,.79,4.64,2.27-.01-.04-.02-.07-.03-.11-.74-1.97-2.88-2.99-5.02-3.02-3.21-.05-5.46,1.24-6.75,6.44-.66,3.06-.58,6.05,.25,8.66,.19,.57,.42,1.11,.68,1.64-1.08-2.79-1.25-6.07-.52-9.44,1.28-5.2,3.54-6.49,6.75-6.44Z"/>
            </g>
            <path class="cls-4" d="M16.54,50.28s-.04,0-.06,0c-4.13-.64-7.4-2.57-9.46-5.57-2.24-3.27-2.93-7.63-1.92-12.28,0,0,0,0,0-.01,1.19-4.83,3.25-6.78,7.1-6.71,1.9,.03,3.64,.79,4.65,2.03,.88,1.08,1.19,2.47,.89,4.03-.09,.48-.24,.96-.45,1.44h0c-.76,1.76-1.2,3.65-1.23,5.34-.03,1.73,.38,3.12,1.16,3.92,1,1.02,2.66,1.09,4.79,.2,.15-.06,.33-.02,.43,.12,.1,.13,.1,.32,0,.45l-5.63,6.92c-.07,.09-.17,.13-.28,.13ZM5.82,32.59c-.96,4.45-.32,8.6,1.81,11.7,1.91,2.78,4.93,4.58,8.76,5.22l4.69-5.77c-2.3,.63-3.63-.04-4.36-.79-.93-.95-1.4-2.48-1.37-4.44,.03-1.78,.49-3.77,1.29-5.62,.18-.43,.32-.86,.4-1.28,.26-1.36,0-2.51-.74-3.43-.88-1.08-2.41-1.73-4.1-1.76-2.91-.05-5.11,.98-6.38,6.15Zm11.16,.46h0Z"/>
            <g class="cls-16">
              <path class="cls-4" d="M16.98,33.05c.18-.42,.32-.86,.41-1.31,.13-.64,.14-1.23,.07-1.76-1.49,2.16-3.74,6.24-2.93,10.37,.71,3.62-2.85,6.58-6.25,5.16-.09-.04-.18-.08-.27-.12,1.92,2.29,4.76,3.93,8.54,4.52l5.63-6.92c-6.9,2.87-7.62-4.35-5.19-9.94Z"/>
            </g>
            <g>
              <path class="cls-4" d="M18.06,53.86c-1.54,0-3.06-.59-4.25-1.7-2.31-2.14-2.48-4.87-1.63-6.63,.72-1.48,2.08-2.26,3.55-2.03,.63,.1,1.21,.36,1.71,.78,3.42-4.14,12.75-4.59,13.16-4.61,.1,0,.2,.03,.27,.1,.07,.07,.11,.16,.11,.26v10.88c0,.14-.08,.27-.21,.33-2.97,1.44-8.01,1.25-9.01,1.19-.59,.59-1.36,1.01-2.28,1.23-.47,.12-.95,.17-1.43,.17Zm-2.82-9.66c-1,0-1.89,.61-2.4,1.65-.74,1.52-.57,3.89,1.47,5.77,1.38,1.28,3.25,1.78,5.01,1.35,.85-.21,1.53-.6,2.04-1.15,.07-.08,.18-.12,.29-.12,.06,0,5.51,.36,8.61-1.02v-10.26c-1.84,.13-9.83,.92-12.47,4.61-.06,.09-.16,.14-.27,.15-.11,0-.21-.03-.29-.11-.46-.47-1-.76-1.61-.86-.13-.02-.26-.03-.39-.03Z"/>
              <g>
                <path class="cls-17" d="M30.62,40.05v10.88c-3.19,1.55-9,1.15-9,1.15-.63,.68-1.43,1.06-2.22,1.25-1.9,.47-3.91-.1-5.34-1.44-3.72-3.45-1.65-8.54,1.62-8.02,.76,.12,1.36,.49,1.81,.96,3.12-4.35,13.13-4.78,13.13-4.78Z"/>
                <path class="cls-4" d="M18.06,53.86c-1.54,0-3.06-.59-4.25-1.7-2.31-2.14-2.48-4.87-1.63-6.63,.72-1.48,2.08-2.26,3.55-2.03,.63,.1,1.21,.36,1.71,.78,3.42-4.14,12.75-4.59,13.16-4.61,.1,0,.2,.03,.27,.1,.07,.07,.11,.16,.11,.26v10.88c0,.14-.08,.27-.21,.33-2.97,1.44-8.01,1.25-9.01,1.19-.59,.59-1.36,1.01-2.28,1.23-.47,.12-.95,.17-1.43,.17Zm-2.82-9.66c-1,0-1.89,.61-2.4,1.65-.74,1.52-.57,3.89,1.47,5.77,1.38,1.28,3.25,1.78,5.01,1.35,.85-.21,1.53-.6,2.04-1.15,.07-.08,.18-.12,.29-.12,.06,0,5.51,.36,8.61-1.02v-10.26c-1.84,.13-9.83,.92-12.47,4.61-.06,.09-.16,.14-.27,.15-.11,0-.21-.03-.29-.11-.46-.47-1-.76-1.61-.86-.13-.02-.26-.03-.39-.03Z"/>
              </g>
              <path class="cls-4" d="M17.87,44.7c.38,.41,.64,.9,.82,1.41,.09,.25,.16,.51,.21,.77,.05,.26,.07,.53,.06,.79,0,.01-.03,.03-.06,.03-.03,0-.05,0-.05-.01-.11-.23-.23-.46-.34-.69-.11-.22-.23-.44-.35-.66-.25-.42-.52-.82-.83-1.16-.05-.06,.03-.22,.17-.36,.14-.14,.31-.2,.37-.13Z"/>
              <g class="cls-16">
                <path class="cls-4" d="M16.81,52.54c1.8-.47,2.78-2.12,2.18-4.43-.04-.14-.08-.27-.12-.41h0s2.34,3.72,11.67,1.56c.03,0,.06-.01,.09-.02v1.69c-3.19,1.55-9,1.15-9,1.15-.63,.68-1.43,1.06-2.22,1.25-1.59,.39-3.24,.06-4.58-.84,.63,.2,1.32,.22,1.99,.04Z"/>
              </g>
              <ellipse class="cls-20" cx="16.37" cy="49.61" rx="1.7" ry="1.41" transform="translate(-14.77 7.67) rotate(-18.33)"/>
              <ellipse class="cls-20" cx="14.88" cy="46.85" rx=".59" ry=".71" transform="translate(-21.43 13.72) rotate(-30)"/>
              <ellipse class="cls-20" cx="16.74" cy="46.77" rx=".59" ry=".71" transform="translate(-17.16 10.46) rotate(-23.34)"/>
              <ellipse class="cls-20" cx="13.85" cy="48.46" rx=".59" ry=".71" transform="translate(-18.07 9.45) rotate(-23.34)"/>
            </g>
            <g>
              <path class="cls-17" d="M40.82,42.32c0,6.96-4.57,9.53-10.2,9.53s-10.2-2.57-10.2-9.53,4.57-12.6,10.2-12.6,10.2,5.64,10.2,12.6Z"/>
              <g class="cls-16">
                <path class="cls-4" d="M30.62,50.25c-4.08,0-7.61-.9-9.24-3.15,1.63,3.4,5.15,4.75,9.24,4.75s7.61-1.35,9.24-4.75c-1.63,2.25-5.15,3.15-9.24,3.15Z"/>
              </g>
              <path class="cls-4" d="M30.62,52.21c-3.13,0-5.63-.75-7.44-2.24-2.07-1.7-3.12-4.27-3.12-7.66,0-7.15,4.74-12.97,10.56-12.97s10.56,5.82,10.56,12.97c0,3.38-1.05,5.96-3.12,7.66-1.81,1.49-4.32,2.24-7.44,2.24Zm0-22.14c-5.42,0-9.84,5.49-9.84,12.24,0,7.98,6.16,9.17,9.84,9.17s9.84-1.19,9.84-9.17c0-6.75-4.41-12.24-9.84-12.24Z"/>
            </g>
            <g>
              <g>
                <path class="cls-5" d="M16.9,8.05c-1.32,5.96,1.44,12.16,1.44,12.16l10.28-8.24c-6.68-5.52-11.72-3.92-11.72-3.92Z"/>
                <path class="cls-4" d="M18.34,20.57s-.06,0-.09-.01c-.11-.03-.2-.1-.25-.21-.11-.26-2.79-6.38-1.46-12.39,.03-.13,.12-.23,.25-.27,.05-.02,1.36-.42,3.52-.12,1.96,.27,5.03,1.2,8.55,4.11,.08,.07,.13,.17,.13,.28,0,.11-.05,.21-.14,.28l-10.28,8.24c-.07,.05-.15,.08-.23,.08Zm-1.13-12.23c-.98,4.81,.71,9.79,1.28,11.27l9.55-7.65c-3.22-2.56-6-3.41-7.79-3.66-1.54-.22-2.62-.05-3.05,.04Z"/>
              </g>
              <path class="cls-20" d="M25.52,14.46c-2.55-4.34-6.52-5.69-8.68-6.1-1.16,5.86,1.5,11.86,1.5,11.86l7.18-5.75Z"/>
              <g class="cls-16">
                <path class="cls-4" d="M20.1,9.43c-.58,3.32,.03,6.63,.65,8.85l4.77-3.83c-1.53-2.61-3.57-4.13-5.42-5.02Z"/>
              </g>
              <path class="cls-4" d="M18.34,20.57s-.06,0-.09-.01c-.11-.03-.2-.1-.25-.21-.11-.25-2.7-6.16-1.53-12.07,.04-.2,.23-.32,.43-.29,2.21,.42,6.3,1.8,8.93,6.28,.09,.16,.05,.36-.09,.47l-7.18,5.75c-.07,.05-.15,.08-.23,.08Zm-1.21-11.79c-.8,4.67,.81,9.39,1.37,10.83l6.55-5.25c-2.34-3.79-5.82-5.12-7.91-5.59Z"/>
            </g>
            <g>
              <g>
                <path class="cls-5" d="M43.36,8.05c1.32,5.96-1.44,12.16-1.44,12.16l-10.28-8.24c6.68-5.52,11.72-3.92,11.72-3.92Z"/>
                <path class="cls-4" d="M41.92,20.57c-.08,0-.16-.03-.23-.08l-10.28-8.24c-.09-.07-.14-.17-.14-.28,0-.11,.05-.21,.13-.28,3.52-2.91,6.59-3.84,8.55-4.11,2.15-.3,3.46,.11,3.52,.12,.12,.04,.22,.14,.25,.27,1.33,6.01-1.35,12.13-1.46,12.39-.05,.1-.14,.18-.25,.21-.03,0-.06,.01-.09,.01Zm-9.7-8.61l9.55,7.65c.57-1.48,2.27-6.47,1.28-11.27-.42-.09-1.51-.26-3.05-.04-1.79,.26-4.57,1.1-7.79,3.66Z"/>
              </g>
              <path class="cls-20" d="M34.74,14.46c2.55-4.34,6.52-5.69,8.68-6.1,1.16,5.86-1.5,11.86-1.5,11.86l-7.18-5.75Z"/>
              <g class="cls-16">
                <path class="cls-4" d="M40.17,9.43c.58,3.32-.03,6.63-.65,8.85l-4.77-3.83c1.53-2.61,3.57-4.13,5.42-5.02Z"/>
              </g>
              <path class="cls-4" d="M41.92,20.57c-.08,0-.16-.03-.23-.08l-7.18-5.75c-.14-.11-.18-.31-.09-.47,2.62-4.47,6.72-5.85,8.93-6.28,.2-.04,.39,.09,.43,.29,1.17,5.91-1.42,11.83-1.53,12.07-.05,.1-.14,.18-.25,.21-.03,0-.06,.01-.09,.01Zm-6.7-6.2l6.55,5.25c.56-1.44,2.16-6.17,1.37-10.83-2.1,.47-5.57,1.8-7.91,5.59Z"/>
            </g>
            <path class="cls-4" d="M30.69,35.29c-4.01,0-7.78-.69-10.62-1.94-2.94-1.29-4.56-3.04-4.56-4.93,0-.95,.12-5.91,2.43-10.55,1.17-2.34,2.71-4.2,4.58-5.51,2.26-1.58,5-2.39,8.16-2.39s5.72,.8,7.95,2.39c1.85,1.31,3.4,3.17,4.6,5.5,2.07,4.03,2.63,8.53,2.63,10.55,0,1.89-1.62,3.64-4.56,4.93-2.84,1.25-6.61,1.94-10.62,1.94Zm0-24.59c-5.54,0-9.61,2.52-12.09,7.49-2.29,4.59-2.36,9.66-2.36,10.23,0,1.58,1.46,3.1,4.12,4.27,2.75,1.21,6.42,1.88,10.33,1.88s7.57-.67,10.33-1.88c2.66-1.17,4.12-2.68,4.12-4.27,0-1.96-.54-6.32-2.55-10.22-2.56-4.97-6.57-7.5-11.9-7.5Z"/>
            <path class="cls-17" d="M30.69,10.34c-13.36,0-14.81,14.49-14.81,18.08s6.63,6.51,14.81,6.51,14.81-2.91,14.81-6.51-1.96-18.08-14.81-18.08Z"/>
            <g class="cls-16">
              <path class="cls-4" d="M22.48,34.72c2.19,.91,4.99,1.45,8.03,1.45s5.99-.57,8.2-1.52c-1.86-3-4.8-4.93-8.09-4.93s-6.28,1.97-8.14,5.01Z"/>
            </g>
            <g class="cls-9">
              <path class="cls-2" d="M30.69,11.11c12.3,0,14.62,13.52,14.8,17.81,0-.08,.01-.16,.01-.25,0-3.59-1.96-18.08-14.81-18.08s-14.81,14.49-14.81,18.08c0,.08,0,.15,0,.22,.14-4.32,2.04-17.79,14.8-17.79Z"/>
            </g>
            <path class="cls-2" d="M30.69,23.89c-6.72,0-12.16,2.92-12.16,6.51,0,.68,.2,1.34,.56,1.95,2.71,1.56,6.98,2.57,11.79,2.57,4.48,0,8.5-.88,11.22-2.26,.49-.7,.75-1.47,.75-2.26,0-3.6-5.44-6.51-12.16-6.51Z"/>
            <path class="cls-20" d="M39,29.24c0,4.05-2.74,5.68-8.39,5.69-4.55,.01-8.23-1.63-8.23-5.68s3.68-5.71,8.23-5.71,8.39,1.64,8.39,5.69Z"/>
            <path class="cls-4" d="M30.69,35.29c-4.01,0-7.78-.69-10.62-1.94-2.94-1.29-4.56-3.04-4.56-4.93,0-.95,.12-5.91,2.43-10.55,1.17-2.34,2.71-4.2,4.58-5.51,2.26-1.58,5-2.39,8.16-2.39s5.72,.8,7.95,2.39c1.85,1.31,3.4,3.17,4.6,5.5,2.07,4.03,2.63,8.53,2.63,10.55,0,1.89-1.62,3.64-4.56,4.93-2.84,1.25-6.61,1.94-10.62,1.94Zm0-24.59c-5.54,0-9.61,2.52-12.09,7.49-2.29,4.59-2.36,9.66-2.36,10.23,0,1.58,1.46,3.1,4.12,4.27,2.75,1.21,6.42,1.88,10.33,1.88s7.57-.67,10.33-1.88c2.66-1.17,4.12-2.68,4.12-4.27,0-1.96-.54-6.32-2.55-10.22-2.56-4.97-6.57-7.5-11.9-7.5Z"/>
            <g>
              <path class="cls-17" d="M33.92,11.27s-.71-3.65-3.23-4.65c-2.52-1-2.87,2.22-.41,2.78,0,0-2.24-.56-3.12-.12s.2,1.92,2.12,1.82"/>
              <g class="cls-9">
                <path class="cls-2" d="M27.66,9.86c.88-.44,3.12,.12,3.12,.12-.57-.13-.99-.4-1.26-.73-.73-.12-1.81-.24-2.36,.04-.52,.26-.36,.88,.26,1.32-.13-.3-.07-.59,.24-.75Z"/>
              </g>
              <g class="cls-9">
                <path class="cls-2" d="M30.48,7.64c1.63,.65,3.35,3.29,3.35,3.29,0,0-.62-3.3-3.14-4.3-1.5-.6-2.23,.3-2.06,1.25,.31-.41,.94-.6,1.85-.24Z"/>
              </g>
              <path class="cls-4" d="M29.1,11.48c-1.37,0-2.38-.73-2.57-1.47-.12-.44,.07-.84,.48-1.04,.41-.21,1.03-.23,1.63-.19-.15-.21-.26-.45-.33-.7-.16-.63,0-1.25,.44-1.63,.29-.25,.94-.61,2.08-.15,2.68,1.06,3.34,4.43,3.37,4.57,.04,.2-.09,.39-.29,.43-.2,.04-.39-.09-.43-.29h0s-.62-3.12-2.92-4.03c-.58-.23-1.05-.22-1.33,.02-.22,.2-.31,.54-.21,.9,.14,.55,.62,.97,1.28,1.14,.04,0,.06,.02,.08,.02,.19,.05,.31,.24,.27,.44-.05,.19-.24,.31-.43,.27-.03,0-.06-.01-.09-.02-.83-.2-2.25-.39-2.79-.13-.1,.05-.13,.1-.1,.21,.11,.42,.9,.98,2.04,.92,.2-.01,.37,.14,.38,.34,.01,.2-.14,.37-.34,.38-.07,0-.14,0-.21,0Z"/>
            </g>
            <ellipse class="cls-2" cx="30.69" cy="27.73" rx="5.65" ry="5.81"/>
            <g class="cls-16">
              <path class="cls-4" d="M30.69,32.71c-7.84,0-14.26-2.68-14.78-6.06-.03,.43-.04,.8-.04,1.09,0,3.59,6.63,6.51,14.81,6.51s14.81-2.91,14.81-6.51c0-.28-.01-.64-.04-1.05-.57,3.37-6.96,6.02-14.77,6.02Z"/>
            </g>
            <path class="cls-4" d="M33.06,29.07c0,1.75-1.05,2.41-2.35,2.41s-2.35-.67-2.35-2.41,2.35-3.17,2.35-3.17c0,0,2.35,1.42,2.35,3.17Z"/>
            <path class="cls-21" d="M30.71,28.91c-.86,0-1.66,.28-2.3,.76,.22,1.31,1.17,1.82,2.3,1.82s2.09-.51,2.3-1.82c-.64-.48-1.44-.76-2.3-.76Z"/>
            <g>
              <g>
                <path class="cls-17" d="M18.67,41.71c-2.92-1.17-3.17-5.07,1.24-9.46h0c.85-2.5,5.42-2.88,6.07,1.65,.67,4.67-4.04,9.12-7.31,7.81Z"/>
                <path class="cls-4" d="M19.91,42.3c-.48,0-.94-.09-1.38-.26h0c-1.22-.49-2.04-1.44-2.29-2.67-.43-2.1,.79-4.77,3.35-7.34,.48-1.29,1.89-2.12,3.38-1.98,1.79,.17,3.05,1.58,3.37,3.78,.37,2.59-.83,5.4-3.05,7.14-1.11,.87-2.28,1.32-3.38,1.32Zm-1.11-.94c1.17,.47,2.68,.11,4.03-.96,1.53-1.21,3.18-3.62,2.78-6.47-.26-1.84-1.28-3.03-2.71-3.16-1.19-.11-2.3,.55-2.65,1.58-.02,.07-.06,.12-.11,.16-2.4,2.4-3.56,4.85-3.18,6.71,.2,1,.84,1.74,1.85,2.14h0Z"/>
                <path class="cls-4" d="M18.09,37.02c-.15,0-.29-.09-.34-.24-.07-.19,.03-.4,.22-.47,.05-.02,1.33-.56,1.44-3.35,.01-.29,.06-.57,.15-.83,.06-.19,.27-.29,.46-.23,.19,.06,.29,.27,.23,.46-.07,.2-.11,.41-.11,.63-.13,3.33-1.85,3.98-1.92,4.01-.04,.01-.08,.02-.12,.02Z"/>
              </g>
              <g>
                <path class="cls-17" d="M42.7,41.71c2.92-1.17,3.17-5.07-1.24-9.46h0c-.85-2.5-5.42-2.88-6.07,1.65-.67,4.67,4.04,9.12,7.31,7.81Z"/>
                <path class="cls-4" d="M41.46,42.3c-1.1,0-2.27-.45-3.38-1.32-2.22-1.75-3.42-4.55-3.05-7.14,.31-2.2,1.57-3.61,3.37-3.78,1.49-.14,2.89,.69,3.38,1.98,2.56,2.57,3.78,5.24,3.35,7.34-.25,1.23-1.06,2.18-2.29,2.67h0c-.44,.17-.9,.26-1.38,.26Zm1.24-.6h0Zm-3.98-10.93c-.09,0-.17,0-.26,.01-1.43,.13-2.45,1.31-2.71,3.16-.41,2.84,1.24,5.26,2.78,6.47,1.36,1.07,2.86,1.42,4.03,.96h0c1-.4,1.64-1.14,1.85-2.14,.38-1.86-.78-4.31-3.18-6.71-.05-.04-.09-.1-.11-.16-.32-.95-1.3-1.59-2.39-1.59Z"/>
                <path class="cls-4" d="M43.27,37.02s-.08,0-.12-.02c-.07-.03-1.79-.68-1.92-4.01,0-.22-.05-.43-.11-.63-.06-.19,.04-.4,.23-.46,.19-.06,.4,.04,.46,.23,.09,.27,.14,.55,.15,.83,.11,2.79,1.39,3.33,1.44,3.35,.19,.07,.29,.28,.22,.46-.05,.15-.19,.24-.34,.24Z"/>
              </g>
            </g>
            <path class="cls-4" d="M30.71,31.85c-1.7,0-2.71-1.04-2.71-2.78,0-1.93,2.42-3.42,2.53-3.48,.12-.07,.26-.07,.38,0,.1,.06,2.53,1.55,2.53,3.48,0,1.74-1.01,2.78-2.71,2.78Zm0-5.51c-.53,.36-1.99,1.48-1.99,2.73,0,1.69,1.08,2.05,1.99,2.05s1.99-.36,1.99-2.05c0-1.15-1.29-2.26-1.98-2.73Z"/>
            <path class="cls-4" d="M30.71,26.27c-.2,0-.36-.16-.36-.36v-.75c0-.2,.16-.36,.36-.36s.36,.16,.36,.36v.75c0,.2-.16,.36-.36,.36Z"/>
            <g>
              <path class="cls-4" d="M32.16,23.41s-.39,1.48-1.44,1.55h0c-1.05-.07-1.44-1.55-1.44-1.55,0,0,.01,0,.02,0,.87-.55,1.99-.55,2.86,0,0,0,.01,0,.02,0Z"/>
              <path class="cls-4" d="M30.71,25.32s-.02,0-.02,0c-1.3-.08-1.75-1.75-1.77-1.82-.04-.15,.02-.31,.15-.4h.02c.99-.64,2.26-.64,3.25-.01h.02c.13,.1,.19,.26,.15,.41-.02,.07-.48,1.73-1.77,1.82,0,0-.02,0-.02,0Zm-1-1.74c.15,.36,.47,.96,1,1.01,.52-.05,.85-.66,1-1.01-.63-.3-1.37-.3-2,0Z"/>
            </g>
            <path class="cls-2" d="M22.22,18.3c.28-.03,1.28-.14,2.19-.07,.33,.03,.59-.29,.49-.61-.11-.35-.35-.74-.87-.95-.99-.42-2.49,1.16-2.03,1.57,.06,.05,.14,.07,.22,.06Z"/>
            <path class="cls-2" d="M39.09,18.3c-.28-.03-1.28-.14-2.19-.07-.33,.03-.59-.29-.49-.61,.11-.35,.35-.74,.87-.95,.99-.42,2.49,1.16,2.03,1.57-.06,.05-.14,.07-.22,.06Z"/>
            <g class="cls-16">
              <path class="cls-4" d="M18.67,41.71c-1.6-.64-2.4-2.1-2.07-4.02,.22,1.12,.95,1.97,2.07,2.42,2.86,1.15,6.84-2.14,7.32-6.11,.58,4.63-4.08,9.01-7.32,7.71Z"/>
            </g>
            <g class="cls-16">
              <path class="cls-4" d="M42.7,41.71c-3.24,1.3-7.9-3.08-7.32-7.71,.49,3.97,4.46,7.26,7.32,6.11,1.12-.45,1.85-1.3,2.07-2.42,.33,1.92-.47,3.38-2.07,4.02Z"/>
            </g>
            <g>
              <path class="cls-4" d="M24.59,19.16c-1.37-.24-2.72,1.03-3.01,2.85-.3,1.81,.57,3.48,1.94,3.72,1.37,.24,2.72-1.03,3.01-2.85,.3-1.81-.57-3.48-1.94-3.72Z"/>
              <path class="cls-2" d="M24.45,19.92c-.45,.13-.67,.74-.5,1.36,.17,.62,.67,1.01,1.12,.88,.45-.13,.67-.74,.5-1.36-.17-.62-.67-1.01-1.12-.88Z"/>
              <path class="cls-18" d="M22.74,23.73c-.22,.12-.26,.46-.1,.76,.16,.3,.46,.44,.68,.31,.22-.12,.26-.46,.1-.76-.16-.3-.46-.44-.68-.31Z"/>
            </g>
            <g>
              <path class="cls-4" d="M36.84,19.16c1.37-.24,2.72,1.03,3.01,2.85,.3,1.81-.57,3.48-1.94,3.72-1.37,.24-2.72-1.03-3.01-2.85-.3-1.81,.57-3.48,1.94-3.72Z"/>
              <path class="cls-2" d="M36.98,19.92c.45,.13,.67,.74,.5,1.36-.17,.62-.67,1.01-1.12,.88-.45-.13-.67-.74-.5-1.36,.17-.62,.67-1.01,1.12-.88Z"/>
              <path class="cls-18" d="M38.68,23.73c.22,.12,.26,.46,.1,.76-.16,.3-.46,.44-.68,.31-.22-.12-.26-.46-.1-.76,.16-.3,.46-.44,.68-.31Z"/>
            </g>
          </g>
        </g>
      </g>
    </g>
  </g>
</svg>