<?xml version="1.0" encoding="UTF-8"?>
<svg xmlns="http://www.w3.org/2000/svg" xmlns:xlink="http://www.w3.org/1999/xlink" viewBox="0 0 64 64">
  <defs>
    <style>
      .cls-1 {
        fill: url(#linear-gradient-2);
      }

      .cls-2, .cls-3 {
        fill: #ae66ac;
      }

      .cls-2, .cls-4, .cls-5 {
        mix-blend-mode: multiply;
      }

      .cls-6 {
        fill: #8c8587;
      }

      .cls-6, .cls-3, .cls-7 {
        mix-blend-mode: overlay;
      }

      .cls-8 {
        fill: #47283a;
      }

      .cls-9 {
        isolation: isolate;
      }

      .cls-10 {
        fill: #faf5e0;
      }

      .cls-11 {
        fill: #fff;
        opacity: .5;
      }

      .cls-12 {
        fill: #e5883e;
      }

      .cls-13 {
        fill: #603213;
      }

      .cls-14, .cls-15 {
        fill: #2b2829;
      }

      .cls-14, .cls-16 {
        mix-blend-mode: screen;
      }

      .cls-17 {
        fill: #dcc2a7;
      }

      .cls-18 {
        fill: #f29bc7;
      }

      .cls-19 {
        opacity: .3;
      }

      .cls-20 {
        fill: #f8efd4;
      }

      .cls-21 {
        fill: none;
      }

      .cls-22 {
        fill: #e36ab1;
      }

      .cls-23 {
        fill: #f6d9e9;
      }

      .cls-24 {
        fill: #f8dc7c;
      }

      .cls-25 {
        fill: url(#linear-gradient);
      }

      .cls-26 {
        fill: #a75d89;
      }

      .cls-27 {
        fill: #be2776;
      }

      .cls-4 {
        fill: #b50e81;
      }

      .cls-7 {
        fill: #998a8e;
      }
    </style>
    <linearGradient id="linear-gradient" x1="64" y1="34.03" x2="5.45" y2="34.03" gradientUnits="userSpaceOnUse">
      <stop offset="0" stop-color="#cf965b"/>
      <stop offset=".25" stop-color="#ca9257"/>
      <stop offset=".51" stop-color="#be864c"/>
      <stop offset=".78" stop-color="#a9733a"/>
      <stop offset="1" stop-color="#925d26"/>
    </linearGradient>
    <linearGradient id="linear-gradient-2" x1="61.28" y1="31.49" x2="1.36" y2="31.49" gradientUnits="userSpaceOnUse">
      <stop offset="0" stop-color="#e8b886"/>
      <stop offset=".25" stop-color="#e3b482"/>
      <stop offset=".5" stop-color="#d7a877"/>
      <stop offset=".76" stop-color="#c29464"/>
      <stop offset="1" stop-color="#a97c4e"/>
    </linearGradient>
  </defs>
  <g class="cls-9">
    <g id="_Слой_2" data-name="Слой 2">
      <g id="_Слой_1-2" data-name="Слой 1">
        <g>
          <g>
            <path class="cls-25" d="M60.49,6.68c-1.75-1.6-4.41-2.62-7.38-2.62H14.98c-5.26,0-9.53,3.19-9.53,7.11V55.87c0,2.22,1.37,4.2,3.51,5.51,1.75,1.6,4.41,2.62,7.38,2.62H54.47c5.26,0,9.53-3.19,9.53-7.11V12.19c0-2.22-1.37-4.2-3.51-5.51Z"/>
            <path class="cls-1" d="M57.77,4.65c-.41-.37-.86-.71-1.36-1.02-1.75-1.6-4.41-2.62-7.38-2.62H10.89C5.64,1.02,1.36,4.21,1.36,8.13V52.83c0,2.22,1.37,4.2,3.51,5.51,.41,.37,.86,.71,1.36,1.02,1.75,1.6,4.41,2.62,7.38,2.62H51.74c5.26,0,9.53-3.19,9.53-7.11V10.16c0-2.22-1.37-4.2-3.51-5.51Z"/>
            <path class="cls-17" d="M47.66,0H9.53C4.28,0,0,3.19,0,7.11V51.81c0,3.92,4.28,7.11,9.53,7.11H47.66c5.26,0,9.53-3.19,9.53-7.11V7.11c0-3.92-4.28-7.11-9.53-7.11Z"/>
          </g>
          <path class="cls-7" d="M5.89,14.33c-.01-2.85,.17-6.06,2.96-8,2.12-1.47,5.21-1.81,8.09-1.99,6.68-.42,13.42-.36,20.09,.18,3.3,.26,6.79,.71,9.28,2.36,3.69,2.45,3.93,6.61,3.9,10.29-.08,9.24-.15,18.48-.23,27.72-.02,2.2-.08,4.51-1.54,6.42-1.54,2-4.45,3.25-7.46,3.8-3.01,.55-6.15,.48-9.24,.41-5.15-.12-10.31-.24-15.43-.71-2.79-.26-9.22-.18-10.19-2.65-.66-1.68-.07-4.15-.07-5.9,0-2.02-.02-4.03-.03-6.05-.02-4.03-.04-8.06-.06-12.1-.02-4.59-.04-9.18-.07-13.78Z"/>
          <path class="cls-7" d="M20.65,20.31c-3.25-.39-6.54-1.19-8.94-2.87-2.39-1.69-3.67-4.43-2.38-6.69,.89-1.57,2.87-2.69,5.01-3.3,2.14-.61,4.45-.77,6.74-.89,5.74-.3,11.52-.39,17.22,.17,2.22,.22,4.55,.57,6.21,1.7,2.93,1.99,2.55,5.66,.4,8.14-5.33,6.17-16.02,4.75-24.26,3.75Z"/>
          <path class="cls-14" d="M9.75,46.11c-.57-1.77-.49-3.61-.4-5.43,.37-7.55,.74-15.09,1.11-22.64,.14-2.75,.39-5.74,2.81-7.82,2.2-1.89,5.7-2.58,9.03-2.93,4.04-.42,8.14-.47,12.2-.14,3.7,.3,7.69,1.06,9.9,3.3,1.87,1.9,2.03,4.41,2.12,6.77,.33,9.07,.66,18.2-1.13,27.18-.4,1.99-1,4.12-2.97,5.5-2.25,1.58-5.63,1.75-8.72,1.75-5.06,0-10.12-.25-15.13-.73-4.65-.45-7.58-.99-8.81-4.8Z"/>
          <path class="cls-4" d="M47.66,1.02h-1.63c4.51,0,8.17,2.73,8.17,6.1V51.81c0,3.37-3.66,6.1-8.17,6.1h1.63c4.51,0,8.17-2.73,8.17-6.1V7.11c0-3.37-3.66-6.1-8.17-6.1Z"/>
          <path class="cls-3" d="M44.83,56.21c2.15-.26,4.29-1.07,5.39-2.47,.86-1.09,1-2.4,1.05-3.66,.05-1.24,.02-2.47-.08-3.71-.07-.81-.31-1.78-1.32-2.08-.75-.23-1.65,.04-2.16,.52-.51,.47-.69,1.1-.74,1.7-.11,1.25,.25,2.52-.08,3.75-.39,1.42-1.68,2.63-3.23,3.51-1.13,.64-4.12,1.25-4.5,2.21,1.43,.58,4.04,.42,5.67,.23Z"/>
          <path class="cls-6" d="M3.88,2.71c-1.55,1.11-2.52,2.67-2.52,4.4v26.08c12.35-3.44,32.73-4.39,54.47,14.33v-14.97C26.86,28.05,11.39,13.17,3.88,2.71Z"/>
          <path class="cls-11" d="M3.58,9.23c.26-1.79,1.27-3.6,3.21-4.67,2.66-1.47,6.31-1.25,9.61-.96,1.02,.09,2.32,.39,2.36,1.15,.03,.67-.97,1.08-1.84,1.21-2.2,.34-4.63-.04-6.59,.77-1.42,.58-2.33,1.69-2.8,2.85-.47,1.16-.56,2.38-.73,3.58-.07,.46-.15,.93-.44,1.34-1.08,1.49-2.05,.48-2.43-.37-.6-1.35-.53-3.5-.32-4.91Z"/>
          <g class="cls-16">
            <ellipse class="cls-15" cx="32.66" cy="10.91" rx="4.07" ry="3.03"/>
            <ellipse class="cls-15" cx="41.34" cy="12.32" rx="2.18" ry="1.63"/>
            <path class="cls-15" d="M40.11,16.13c.37,.7-.08,1.49-1.01,1.77-.93,.28-1.99-.06-2.37-.76-.37-.7,.08-1.49,1.01-1.77,.93-.28,1.99,.06,2.37,.76Z"/>
          </g>
          <g class="cls-16">
            <path class="cls-15" d="M23.64,45.38c.8,1.49-.17,3.17-2.16,3.77-1.99,.6-4.25-.13-5.05-1.61-.8-1.49,.17-3.17,2.16-3.77,1.99-.6,4.25,.13,5.05,1.61Z"/>
            <path class="cls-15" d="M20.79,40.39c.22,.41-.05,.87-.59,1.03-.54,.16-1.16-.03-1.38-.44-.22-.41,.05-.87,.59-1.03,.54-.16,1.16,.03,1.38,.44Z"/>
            <path class="cls-15" d="M15.3,41.5c.45,.84-.09,1.78-1.21,2.12-1.12,.34-2.39-.07-2.84-.91-.45-.84,.09-1.78,1.21-2.12,1.12-.34,2.39,.07,2.84,.91Z"/>
          </g>
          <g class="cls-19">
            <path class="cls-2" d="M51.02,35.95c.79,1.47-.17,3.15-2.14,3.74-1.98,.59-4.22-.12-5.01-1.6-.79-1.47,.17-3.15,2.14-3.74,1.98-.59,4.22,.12,5.01,1.6Z"/>
            <path class="cls-2" d="M53.92,29.6c.58,1.08-.12,2.3-1.57,2.74-1.45,.43-3.09-.09-3.67-1.17-.58-1.08,.12-2.3,1.57-2.74,1.45-.43,3.09,.09,3.67,1.17Z"/>
            <path class="cls-2" d="M45.56,30.99c.37,.7-.08,1.49-1.01,1.77-.93,.28-1.99-.06-2.37-.75-.37-.7,.08-1.49,1.01-1.77,.93-.28,1.99,.06,2.37,.76Z"/>
            <path class="cls-2" d="M10.65,25.55c.41,.75-.09,1.61-1.1,1.92-1.01,.3-2.16-.06-2.57-.82-.41-.75,.09-1.61,1.1-1.92,1.01-.3,2.16,.06,2.57,.82Z"/>
            <path class="cls-2" d="M11.29,21.09c.21,.39-.04,.84-.57,1-.53,.16-1.13-.03-1.34-.43-.21-.39,.04-.84,.57-1,.53-.16,1.13,.03,1.34,.43Z"/>
            <path class="cls-2" d="M6.59,20.15c.34,.63-.07,1.34-.91,1.59-.84,.25-1.79-.05-2.13-.68-.34-.63,.07-1.34,.91-1.59,.84-.25,1.79,.05,2.13,.68Z"/>
          </g>
        </g>
        <g>
          <g>
            <path class="cls-12" d="M27.4,50.19s-1.15,3.03,0,3.8c2.92,1.36,8.58,.65,5.65-3.8"/>
            <path class="cls-13" d="M30.19,54.84c-4.22,.1-3.93-2.21-3.05-4.75l.51,.19c-.28,.73-.89,2.94-.1,3.48,2.63,1.17,8.02,.79,5.27-3.4,.1-.09,.33-.24,.46-.3,1.76,2.83,.72,4.85-3.09,4.79Z"/>
          </g>
          <g>
            <path class="cls-24" d="M7.83,35.69c1.71,1.5,3.99-.59,2.36-2.26-1.2-.94-2.39-1.75-2.24-3.79,.25-3.46-3.01-4.03-3.59-2.02-.97,3.37,.91,6.07,3.47,8.07Z"/>
            <path class="cls-13" d="M9.19,36.47c-.5,0-1.04-.19-1.53-.57h0c-3.24-2.52-4.44-5.33-3.56-8.36,.27-.95,1.13-1.49,2.1-1.33,1.12,.2,2.18,1.34,2.03,3.44-.14,1.88,.95,2.63,2.14,3.56,1.3,.98,.48,3.36-1.17,3.26Zm-1.19-1c1.38,1.26,3.39-.36,2.02-1.83-1.22-.96-2.5-1.84-2.35-4.03,.31-2.43-2.1-4.05-3.05-1.92-.8,2.79,.33,5.41,3.38,7.78h0Z"/>
          </g>
          <g>
            <path class="cls-24" d="M10.9,46.63c5.15,4.89,16.3,5.43,23.02,4.91,10.19,0,9.81-7.93,9.81-14.85,.9-15.8-38.21-16.41-38.65-1.96"/>
            <path class="cls-13" d="M27.82,51.91c-5.23,.42-13.75-1.88-17.08-5.06l.33-.44c5.54,4.98,15.57,5.28,22.85,4.86,8.56,.34,9.87-6.51,9.54-13.85,1.85-16.16-37.49-16.98-38.1-2.67h-.55c.63-15.06,41.05-14.15,39.19,2.67,.33,13.59-3.8,14.79-16.19,14.49Z"/>
          </g>
          <g class="cls-5">
            <path class="cls-12" d="M6.43,44.5c4.79,4.95,4.76,5.22,12.8,6.41,6.41,.28,20.41,2.01,23.66-2.26-12.9,2.01-26.12-.19-36.46-4.15Z"/>
          </g>
          <path class="cls-13" d="M41.95,33.46l.4-.18c-.07,.22-.13,.43-.2,.65-.11-.29-.19-.45-.2-.46Z"/>
          <path class="cls-13" d="M36.02,46.19c0,.05,.02,.11,.03,.17,0,.01-.02,.03-.03,.04v-.21Z"/>
          <g>
            <path class="cls-13" d="M41.74,55.1c.15-.74,0-1.86-.35-2.47,.51,.62,.86,1.78,.83,2.63-.17,.03-.34,.06-.52,.08,.01-.07,.03-.15,.04-.24Z"/>
            <path class="cls-13" d="M39.21,55.05c.17-.62,.26-1.57,.19-2.16,.25,.7,.32,1.84,.28,2.59-.19,0-.38-.01-.56-.03,0,0,.04-.16,.09-.4Z"/>
            <path class="cls-21" d="M39.3,54.64c.11-.49,.15-1.31,.1-1.75,.25,.71,.32,1.86,.28,2.62l-.56-.07c.02-.07,.14-.61,.18-.81Z"/>
            <path class="cls-21" d="M41.78,54.88c.09-.67-.07-1.71-.38-2.24,.6,.69,.9,2.08,.83,3l-.56-.05c.02-.13,.11-.52,.12-.7Z"/>
            <path class="cls-24" d="M42.33,51.15c-.36,.86,2.04,2.6,1.73,3.46-.1,.22-.85,.47-1.84,.65,.03-.85-.31-2.02-.83-2.63,.39,.7,.51,1.9,.31,2.72-.64,.09-1.35,.14-2.02,.13,.04-.75-.03-1.89-.28-2.59,.1,.69-.1,1.89-.28,2.56-.68-.04-2.14-.28-2.06-.97,.1-1.45,.35-1.43-.67-6.25,2.54-3.84,4.21-8.21,5.37-12.77,1.04,2.21,4.81,4.4,.57,15.69Z"/>
            <path class="cls-13" d="M42.86,51.35c.27,.93,2.26,2.48,1.71,3.5-.45,1-4.75,1.49-6.65,.99-1.24-.31-1.46-.93-1.43-1.4,.1-1.4-.27-5.5-.43-10.2l.3,4.03s.02-.03,.03-.04c1.02,4.81,.77,4.8,.67,6.25,0,.9,1.86,.93,2.62,1.03v-.04c.68,.01,1.38-.04,2.02-.13-.03,.14-.04,.23-.04,.23l.56,.05v-.36c2.39-.4,2.2-.85,.91-2.45-.54-.68-.97-1.22-.8-1.67,4.23-11.29,.47-13.48-.57-15.69,.06-.22,.11-.44,.16-.66l.12-.06c.06,.11,5.69,3.64,.83,16.6Z"/>
            <path class="cls-13" d="M41.66,55.58s.02-.09,.04-.23c.18-.02,.35-.05,.52-.08v.36l-.56-.05Z"/>
            <path class="cls-13" d="M39.12,55.45h0c.18,.01,.37,.02,.56,.03v.04l-.56-.07Z"/>
          </g>
          <path class="cls-13" d="M22.17,33.22l.51,.24s-.12,.26-.28,.68c-.14-.16-.28-.31-.42-.47,.11-.28,.19-.44,.19-.45Z"/>
          <g>
            <path class="cls-13" d="M17.93,54.79c.05-.8,.49-1.9,1.02-2.44-.45,.67-.66,1.85-.51,2.68-.18-.04-.35-.08-.51-.12,0-.04,0-.08,.01-.12Z"/>
            <path class="cls-13" d="M20.46,54.94c.01-.65,.21-1.62,.45-2.19-.15,.68-.05,1.9,.09,2.57-.18,0-.37,0-.56-.02,0-.06,.01-.19,.03-.37Z"/>
            <path class="cls-21" d="M17.95,54.55c.09-.72,.52-1.73,.99-2.21-.5,.73-.66,2.03-.49,2.92h-.57s.03-.55,.06-.71Z"/>
            <path class="cls-21" d="M20.49,54.53c.04-.51,.24-1.35,.42-1.77-.15,.68-.05,1.9,.09,2.57l-.57,.02c.01-.2,.04-.56,.06-.83Z"/>
            <path class="cls-24" d="M23.13,54.53c.02,.69-1.45,.82-2.13,.81-.13-.68-.24-1.89-.09-2.57-.3,.68-.46,1.81-.48,2.56-.67-.04-1.37-.15-2-.28-.14-.83,.07-2.02,.51-2.68-.56,.58-.99,1.71-1.03,2.56-2.36-.6-2.13-.99-.72-2.51,.59-.64,1.06-1.14,.93-1.6-3.26-11.24,.28-12.9,1.66-15.39,2.49,3.71,3.82,8.23,4.53,12.81-1.41,4.7-1.17,4.84-1.18,6.31Z"/>
            <path class="cls-13" d="M23.69,54.53c-.28,2.67-7.82,.88-8.09-.22-.47-1.06,1.64-2.46,1.98-3.36-3.43-11.84,.63-13.94,1.85-16.07,.12,.17,.24,.34,.36,.52-1.38,2.49-4.92,4.15-1.66,15.39,.13,.46-.33,.96-.93,1.6-1.41,1.52-1.65,1.92,.72,2.51-.02,.22-.03,.36-.03,.36h.57s-.01-.1-.02-.24c.63,.14,1.33,.24,2,.28,0,.02,0,.04,0,.04,4.43-.1,1.46-.46,3.88-7.13,0,0,0,.01,0,.02l.59-3.85c-.52,4.68-1.2,8.74-1.21,10.14Z"/>
            <path class="cls-13" d="M24.32,48.18v.06s0-.04,0-.06Z"/>
            <path class="cls-13" d="M17.89,55.27s.01-.14,.03-.36c.16,.04,.34,.08,.51,.12,.01,.14,.02,.23,.02,.23h-.57Z"/>
            <path class="cls-13" d="M20.43,55.35s0-.02,0-.04c.18,.01,.4,.02,.56,.02-.02,0-.57,.02-.57,.02Z"/>
          </g>
          <g class="cls-5">
            <path class="cls-12" d="M18.12,23.62l.41-.66c-.71,.31-1.67,.73-2.37,.94,1.3-1.29,3.05-2.2,4.43-3.01-.94,.18-1.51,.33-2.67,.49,2.52-1.58,3.51-1.72,5.39-2.53-.5,.07-2.15,.34-2.66,.4,4.03-2.04,13.25-2.88,18.53,.1-.4-.04-2.12-.31-2.53-.36,1.86,.81,2.83,.93,5.34,2.56-.89-.12-1.85-.36-2.66-.52,1.48,.94,1.94,.99,4.18,2.96-.61-.2-1.5-.56-2.16-.82,6.89,11.74,5.05,18.63-11.13,18.78h0c-15.91,0-19.16-6.48-12.1-18.3Z"/>
          </g>
          <g>
            <path class="cls-24" d="M14.32,39.65c.76,3.5-1.41,3.79-1.62,6.75-.14,1.59,1.29,3.51,1.18,5.24-.08,1.27-4.94,.74-5.88,0-1.74-1.38,.22-.29-2.35-7.06-2.86-7.55,.02-12.57,.02-12.57"/>
            <path class="cls-13" d="M11.73,52.68c-2.24-.09-4.74-.4-4.86-2.4-.04-.71-.12-2.04-1.47-5.61-2.87-7.58-.08-12.6,.04-12.8l.47,.27s-2.78,5.02,0,12.34c1.38,3.64,1.46,5.03,1.5,5.77-.34,1.7,5.25,2.55,6.19,1.37,.05-.81-.27-1.71-.59-2.57-2.06-4.89,1.99-5.27,1.04-9.33l.53-.14c.75,3.89-1.43,3.91-1.61,6.84-.19,2.32,3.49,6.49-1.24,6.25Z"/>
          </g>
          <path class="cls-13" d="M10.14,52c.27-1.06,.2-2.28-.39-3.23,.78,.91,1.03,2.16,.92,3.34,0,0-.54-.11-.54-.11h0Z"/>
          <path class="cls-13" d="M12.21,52.33c.3-.79,.25-1.74-.24-2.47,.67,.66,.92,1.69,.76,2.62l-.52-.16h0Z"/>
          <g>
            <g>
              <g>
                <path class="cls-24" d="M35.04,12.18c6-5.97,13.99-5.7,13.92-5.08,.67,.71,1.11,8.53-2.85,14.19l-6.97-7.83s.06-.07,.09-.1l-4.19-1.17Z"/>
                <path class="cls-13" d="M46.14,21.72l-7.29-8.2-4.33-1.21c5.15-5.58,13.37-6.29,14.45-5.6,1.37,1.28,1.13,9.48-2.83,15.01Zm-6.63-8.28l6.58,7.39c3.82-5.82,3.23-13.06,2.59-13.65h0c-.88-.34-7.66-.29-13.11,4.85l4.15,1.16-.21,.25Z"/>
              </g>
              <g>
                <path class="cls-27" d="M46.11,21.28c3.39-4.99,3.47-12.77,2.61-14.1-.6-.92-4.51,1.17-8.89,6.32"/>
                <path class="cls-13" d="M46.34,21.44l-.45-.31c3.39-4.99,3.38-12.6,2.61-13.8-1.33-.37-4.45,1.8-8.45,6.35l-.42-.35c4.1-4.48,7.46-7.47,9.32-6.29,.98,1.53,.79,9.4-2.61,14.4Z"/>
              </g>
            </g>
            <g>
              <g>
                <path class="cls-24" d="M28.46,12.18c-6-5.97-13.99-5.7-13.92-5.08-.67,.71-1.11,8.53,2.85,14.19l6.97-7.83s-.06-.07-.09-.1l4.2-1.17Z"/>
                <path class="cls-13" d="M17.36,21.72c-3.96-5.53-4.2-13.72-2.83-15.01,1.07-.69,9.3,.02,14.45,5.6l-4.33,1.21-7.29,8.2Zm-2.54-14.54h0c-.64,.59-1.22,7.83,2.59,13.65l6.57-7.39-.22-.25,4.15-1.16c-5.45-5.15-12.22-5.19-13.11-4.86Z"/>
              </g>
              <g>
                <path class="cls-27" d="M17.39,21.28c-3.39-4.99-3.47-12.77-2.61-14.1,.6-.92,4.51,1.17,8.89,6.32"/>
                <path class="cls-13" d="M17.16,21.44c-3.4-5-3.6-12.88-2.61-14.4,1.78-1.2,5.3,1.86,9.32,6.29l-.42,.35c-3.98-4.49-7-6.67-8.45-6.35-.77,1.2-.78,8.81,2.61,13.8l-.45,.31Z"/>
              </g>
            </g>
            <path class="cls-24" d="M18.49,18.65l.46-.77c-.8,.36-1.88,.85-2.67,1.09,1.46-1.49,3.44-2.55,4.99-3.49-1.07,.21-1.7,.38-3.01,.56,2.85-1.82,3.95-1.99,6.08-2.94-.56,.08-2.42,.39-2.99,.46,4.54-2.37,14.94-3.33,20.89,.11-.45-.05-2.39-.36-2.85-.42,2.1,.94,3.2,1.08,6.02,2.97-1.01-.14-2.08-.41-3-.6,1.67,1.09,2.18,1.15,4.72,3.43-.69-.23-1.69-.64-2.43-.96,7.49,13.13,6.18,21.59-12.55,21.75h0c-18.6-.12-21.3-7.76-13.64-21.2Z"/>
            <path class="cls-20" d="M19.1,29.77c3.29-1.36,7.88,.1,9.41-2.11,1.53-2.2,2.6-13.46,2.59-16.21,.27-.02,.52-.04,.71-.05v-.02s.55,0,.52,0v.02c.29,.02,.7,.04,1.18,.09-.11,3.03,.44,13.88,1.83,16.06,2.92,3.31,12.34-1.06,12.61,7.52-7.19,6.61-25.28,6.66-32.41-.16,0-1.38,.54-3.9,3.55-5.14Z"/>
            <g>
              <path class="cls-8" d="M24.67,23.09c-1.6,3.11,2.17,6.39,2.73,1.64l-2.73-1.64Z"/>
              <path class="cls-10" d="M25.86,24.77c0,1.14-.96,1.14-.95,0,0-1.14,.96-1.14,.95,0Z"/>
              <path class="cls-8" d="M23.92,22.86c1.1,.63,2.2,1.26,3.31,1.89,.38,.22,.73-.37,.34-.59-1.1-.63-2.2-1.26-3.31-1.89-.38-.22-.73,.37-.34,.59Z"/>
            </g>
            <g>
              <path class="cls-8" d="M39.35,23.09c1.6,3.11-2.17,6.39-2.73,1.64l2.73-1.64Z"/>
              <path class="cls-10" d="M37.33,25.1c0,1.14,.96,1.14,.95,0,0-1.14-.96-1.14-.95,0Z"/>
              <path class="cls-8" d="M39.76,22.27c-1.1,.63-2.2,1.26-3.31,1.89-.38,.22-.04,.81,.34,.59,.97-.55,1.93-1.1,2.9-1.65,.14-.08,.27-.16,.41-.23,.38-.22,.04-.81-.34-.59h0Z"/>
            </g>
            <path class="cls-22" d="M29.56,29.18c-.28,.71,1.39,2.15,2.16,2.15s2.45-1.45,2.15-2.15c-.41-1-3.92-1-4.31,0Z"/>
            <path class="cls-26" d="M33.82,29.7c-.32,.73-1.5,1.64-2.1,1.64s-1.78-.91-2.1-1.64c1.62,1.37,2.58,1.37,4.2,0Z"/>
            <path class="cls-18" d="M18.15,27.38c-.04,1.19,4.94,1.18,4.89,0,.04-1.19-4.94-1.19-4.89,0Z"/>
            <path class="cls-23" d="M31.5,28.99c-.03,.37,1.57,.37,1.55,0,.03-.37-1.57-.37-1.55,0Z"/>
            <path class="cls-18" d="M41.29,27.38c-.04,1.19,4.94,1.18,4.89,0,.04-1.19-4.94-1.19-4.89,0Z"/>
            <path class="cls-13" d="M16.19,36.39c3.89,3.12,10.58,3.85,14.41,4h0c.62,.04,1.47,.03,2.13,.03v-.02c16.31-.3,20.84-7.15,13.25-21.16,4.71,1.86,.5-1.64-.74-2.46,3.11,.31-1.09-2.11-2.01-2.48,.24-.06,.41-.33,.1-.58-3.35-2.34-7.93-2.84-11.17-2.84-3.51-.24-13.2,1.72-11.72,3.28-.91,.37-5.12,2.67-2.1,2.45-1.02,.68-2.4,1.69-2.84,2.45-.3,1.12,1.37,.28,2.09,.03-1.56,2.86-6.63,13.09-1.4,17.29Zm.36-.44c-5.6-4.5,1.87-17.17,1.95-17.3l.46-.77c-.8,.36-1.88,.85-2.67,1.09,1.46-1.49,3.44-2.55,4.99-3.49-1.07,.21-1.7,.38-3.01,.56,2.85-1.82,3.95-1.99,6.08-2.94-.56,.08-2.42,.39-2.99,.46,4.54-2.37,14.94-3.33,20.89,.11-.45-.05-2.39-.36-2.85-.42,2.1,.94,3.2,1.08,6.02,2.97-1.01-.14-2.08-.41-3-.6,1.67,1.09,2.18,1.15,4.72,3.43-.69-.23-1.69-.64-2.43-.96,7.49,13.13,6.18,21.59-12.55,21.75h0c-4.4-.08-11.16-.51-15.59-3.9Z"/>
            <g>
              <path class="cls-26" d="M31.42,31.43c.46,1.41,2.15,1.6,3.41,1.76,.18,.02,.34-.17,.34-.34,.02-.55-1.77-.41-2.26-.76-.06-.02-.34-.16-.44-.25,.05,.03,0,0-.02-.01-.04-.02-.22-.24-.18-.18-.11-.15-.15-.25-.2-.39-.13-.42-.79-.24-.66,.18h0Z"/>
              <path class="cls-26" d="M31.42,31.24s-.02,.06-.03,.09c.01-.03,0-.02,0,0-.03,.05-.06,.1-.09,.15-.01,.02-.04,.06-.01,.02-.7,1.05-3,.71-2.95,1.32,.03,.77,2.1-.02,2.54-.19,.54-.25,1.02-.65,1.21-1.23,.12-.42-.54-.61-.66-.18h0Z"/>
            </g>
          </g>
        </g>
      </g>
    </g>
  </g>
</svg>