<?xml version="1.0" encoding="UTF-8"?>
<svg xmlns="http://www.w3.org/2000/svg" xmlns:xlink="http://www.w3.org/1999/xlink" viewBox="0 0 64 64">
  <defs>
    <style>
      .cls-1 {
        fill: url(#linear-gradient-2);
      }

      .cls-2, .cls-3 {
        fill: #fff;
      }

      .cls-4 {
        fill: #ff5c64;
      }

      .cls-5 {
        fill: #d9ff7e;
      }

      .cls-5, .cls-6, .cls-7 {
        mix-blend-mode: overlay;
      }

      .cls-5, .cls-3 {
        opacity: .5;
      }

      .cls-6 {
        fill: #8c8587;
      }

      .cls-8 {
        fill: #e0243f;
      }

      .cls-9 {
        isolation: isolate;
      }

      .cls-10, .cls-11 {
        fill: #2b2829;
      }

      .cls-10, .cls-12 {
        mix-blend-mode: screen;
      }

      .cls-13 {
        fill: #4c0b0b;
      }

      .cls-14 {
        fill: #dcc2a7;
      }

      .cls-15 {
        opacity: .4;
      }

      .cls-16 {
        opacity: .3;
      }

      .cls-17 {
        fill: #8d90a3;
      }

      .cls-18 {
        fill: none;
      }

      .cls-19 {
        fill: url(#linear-gradient);
      }

      .cls-20 {
        fill: #f27e80;
      }

      .cls-21 {
        fill: #8dc63f;
      }

      .cls-21, .cls-22 {
        mix-blend-mode: multiply;
      }

      .cls-22 {
        fill: #a3bf5f;
      }

      .cls-23 {
        opacity: .25;
      }

      .cls-24 {
        fill: #4e5260;
      }

      .cls-7 {
        fill: #998a8e;
      }
    </style>
    <linearGradient id="linear-gradient" x1="64" y1="34.03" x2="5.45" y2="34.03" gradientUnits="userSpaceOnUse">
      <stop offset="0" stop-color="#cf965b"/>
      <stop offset=".25" stop-color="#ca9257"/>
      <stop offset=".51" stop-color="#be864c"/>
      <stop offset=".78" stop-color="#a9733a"/>
      <stop offset="1" stop-color="#925d26"/>
    </linearGradient>
    <linearGradient id="linear-gradient-2" x1="61.28" y1="31.49" x2="1.36" y2="31.49" gradientUnits="userSpaceOnUse">
      <stop offset="0" stop-color="#e8b886"/>
      <stop offset=".25" stop-color="#e3b482"/>
      <stop offset=".5" stop-color="#d7a877"/>
      <stop offset=".76" stop-color="#c29464"/>
      <stop offset="1" stop-color="#a97c4e"/>
    </linearGradient>
  </defs>
  <g class="cls-9">
    <g id="_Слой_2" data-name="Слой 2">
      <g id="_Слой_1-2" data-name="Слой 1">
        <g>
          <g>
            <path class="cls-19" d="M60.49,6.68c-1.75-1.6-4.41-2.62-7.38-2.62H14.98c-5.26,0-9.53,3.19-9.53,7.11V55.87c0,2.22,1.37,4.2,3.51,5.51,1.75,1.6,4.41,2.62,7.38,2.62H54.47c5.26,0,9.53-3.19,9.53-7.11V12.19c0-2.22-1.37-4.2-3.51-5.51Z"/>
            <path class="cls-1" d="M57.77,4.65c-.41-.37-.86-.71-1.36-1.02-1.75-1.6-4.41-2.62-7.38-2.62H10.89C5.64,1.02,1.36,4.21,1.36,8.13V52.83c0,2.22,1.37,4.2,3.51,5.51,.41,.37,.86,.71,1.36,1.02,1.75,1.6,4.41,2.62,7.38,2.62H51.74c5.26,0,9.53-3.19,9.53-7.11V10.16c0-2.22-1.37-4.2-3.51-5.51Z"/>
            <path class="cls-14" d="M47.66,0H9.53C4.28,0,0,3.19,0,7.11V51.81c0,3.92,4.28,7.11,9.53,7.11H47.66c5.26,0,9.53-3.19,9.53-7.11V7.11c0-3.92-4.28-7.11-9.53-7.11Z"/>
          </g>
          <path class="cls-7" d="M5.89,14.33c-.01-2.85,.17-6.06,2.96-8,2.12-1.47,5.21-1.81,8.09-1.99,6.68-.42,13.42-.36,20.09,.18,3.3,.26,6.79,.71,9.28,2.36,3.69,2.45,3.93,6.61,3.9,10.29-.08,9.24-.15,18.48-.23,27.72-.02,2.2-.08,4.51-1.54,6.42-1.54,2-4.45,3.25-7.46,3.8-3.01,.55-6.15,.48-9.24,.41-5.15-.12-10.31-.24-15.43-.71-2.79-.26-9.22-.18-10.19-2.65-.66-1.68-.07-4.15-.07-5.9,0-2.02-.02-4.03-.03-6.05-.02-4.03-.04-8.06-.06-12.1-.02-4.59-.04-9.18-.07-13.78Z"/>
          <path class="cls-7" d="M20.65,20.31c-3.25-.39-6.54-1.19-8.94-2.87-2.39-1.69-3.67-4.43-2.38-6.69,.89-1.57,2.87-2.69,5.01-3.3,2.14-.61,4.45-.77,6.74-.89,5.74-.3,11.52-.39,17.22,.17,2.22,.22,4.55,.57,6.21,1.7,2.93,1.99,2.55,5.66,.4,8.14-5.33,6.17-16.02,4.75-24.26,3.75Z"/>
          <path class="cls-10" d="M9.75,46.11c-.57-1.77-.49-3.61-.4-5.43,.37-7.55,.74-15.09,1.11-22.64,.14-2.75,.39-5.74,2.81-7.82,2.2-1.89,5.7-2.58,9.03-2.93,4.04-.42,8.14-.47,12.2-.14,3.7,.3,7.69,1.06,9.9,3.3,1.87,1.9,2.03,4.41,2.12,6.77,.33,9.07,.66,18.2-1.13,27.18-.4,1.99-1,4.12-2.97,5.5-2.25,1.58-5.63,1.75-8.72,1.75-5.06,0-10.12-.25-15.13-.73-4.65-.45-7.58-.99-8.81-4.8Z"/>
          <path class="cls-21" d="M47.66,1.02h-1.63c4.51,0,8.17,2.73,8.17,6.1V51.81c0,3.37-3.66,6.1-8.17,6.1h1.63c4.51,0,8.17-2.73,8.17-6.1V7.11c0-3.37-3.66-6.1-8.17-6.1Z"/>
          <path class="cls-5" d="M44.83,56.21c2.15-.26,4.29-1.07,5.39-2.47,.86-1.09,1-2.4,1.05-3.66,.05-1.24,.02-2.47-.08-3.71-.07-.81-.31-1.78-1.32-2.08-.75-.23-1.65,.04-2.16,.52-.51,.47-.69,1.1-.74,1.7-.11,1.25,.25,2.52-.08,3.75-.39,1.42-1.68,2.63-3.23,3.51-1.13,.64-4.12,1.25-4.5,2.21,1.43,.58,4.04,.42,5.67,.23Z"/>
          <path class="cls-6" d="M3.88,2.71c-1.55,1.11-2.52,2.67-2.52,4.4v26.08c12.35-3.44,32.73-4.39,54.47,14.33v-14.97C26.86,28.05,11.39,13.17,3.88,2.71Z"/>
          <path class="cls-3" d="M3.58,9.23c.26-1.79,1.27-3.6,3.21-4.67,2.66-1.47,6.31-1.25,9.61-.96,1.02,.09,2.32,.39,2.36,1.15,.03,.67-.97,1.08-1.84,1.21-2.2,.34-4.63-.04-6.59,.77-1.42,.58-2.33,1.69-2.8,2.85s-.56,2.38-.73,3.58c-.07,.46-.15,.93-.44,1.34-1.08,1.49-2.05,.48-2.43-.37-.6-1.35-.53-3.5-.32-4.91Z"/>
          <g class="cls-12">
            <ellipse class="cls-11" cx="32.66" cy="10.91" rx="4.07" ry="3.03"/>
            <path class="cls-11" d="M43.37,11.71c.45,.84-.09,1.78-1.21,2.12-1.12,.34-2.39-.07-2.84-.91-.45-.84,.09-1.78,1.21-2.12,1.12-.34,2.39,.07,2.84,.91Z"/>
            <path class="cls-11" d="M40.11,16.13c.37,.7-.08,1.49-1.01,1.77-.93,.28-1.99-.06-2.37-.76-.37-.7,.08-1.49,1.01-1.77,.93-.28,1.99,.06,2.37,.76Z"/>
          </g>
          <g class="cls-12">
            <path class="cls-11" d="M23.64,45.38c.8,1.49-.17,3.17-2.16,3.77-1.99,.6-4.25-.13-5.05-1.61-.8-1.49,.17-3.17,2.16-3.77,1.99-.6,4.25,.13,5.05,1.61Z"/>
            <path class="cls-11" d="M20.79,40.39c.22,.41-.05,.87-.59,1.03-.54,.16-1.16-.03-1.38-.44-.22-.41,.05-.87,.59-1.03,.54-.16,1.16,.03,1.38,.44Z"/>
            <path class="cls-11" d="M15.3,41.5c.45,.84-.09,1.78-1.21,2.12-1.12,.34-2.39-.07-2.84-.91-.45-.84,.09-1.78,1.21-2.12,1.12-.34,2.39,.07,2.84,.91Z"/>
          </g>
          <g class="cls-16">
            <path class="cls-22" d="M51.02,35.95c.79,1.47-.17,3.15-2.14,3.74-1.98,.59-4.22-.12-5.01-1.6-.79-1.47,.17-3.15,2.14-3.74,1.98-.59,4.22,.12,5.01,1.6Z"/>
            <path class="cls-22" d="M53.92,29.6c.58,1.08-.12,2.3-1.57,2.74-1.45,.43-3.09-.09-3.67-1.17-.58-1.08,.12-2.3,1.57-2.74,1.45-.43,3.09,.09,3.67,1.17Z"/>
            <path class="cls-22" d="M45.56,30.99c.37,.7-.08,1.49-1.01,1.77-.93,.28-1.99-.06-2.37-.75-.37-.7,.08-1.49,1.01-1.77,.93-.28,1.99,.06,2.37,.76Z"/>
            <path class="cls-22" d="M10.65,25.55c.41,.75-.09,1.61-1.1,1.92-1.01,.3-2.16-.06-2.57-.82-.41-.75,.09-1.61,1.1-1.92,1.01-.3,2.16,.06,2.57,.82Z"/>
            <path class="cls-22" d="M11.29,21.09c.21,.39-.04,.84-.57,1-.53,.16-1.13-.03-1.34-.43-.21-.39,.04-.84,.57-1,.53-.16,1.13,.03,1.34,.43Z"/>
            <path class="cls-22" d="M6.59,20.15c.34,.63-.07,1.34-.91,1.59-.84,.25-1.79-.05-2.13-.68-.34-.63,.07-1.34,.91-1.59,.84-.25,1.79,.05,2.13,.68Z"/>
          </g>
        </g>
      </g>
      <g id="_Слой_10" data-name="Слой 10">
        <g id="_Слой_12" data-name="Слой 12">
          <g>
            <g>
              <path class="cls-17" d="M21.07,39.68s-.02-.01-.03-.02c-.04-.04-4.09-3.6-7.92-1.87-1.65,.75-2.79,1.78-3.8,2.68-1.39,1.25-2.59,2.33-4.7,2.45,.14,.5,.56,1.83,1.46,3.21,1.52,2.32,3.61,3.66,6.21,3.99,6.26,.79,8.01-1.94,8.84-3.26l.02-.03c.57-.9,1.67-3.5,1.19-5.42-.19-.78-.63-1.37-1.29-1.74Z"/>
              <path class="cls-24" d="M20.19,39.02s-3.44,3.75-1.8,10.63c0,0-1.79,.62-1.92,.61-.13,0-1.89,.1-1.89,.1,0,0-1.52-2.71-.56-6.84s3.2-5.93,3.2-5.93h.79l2.18,1.43Z"/>
              <path class="cls-24" d="M14.67,37.36s-2.96,2.51-3.34,6.62c-.38,4.1,.86,6.3,.86,6.3,0,0-1.97-.33-2.92-.93-.95-.6-2.4-1.65-2.4-1.65v-.38s-.42-3.58,.65-5.36l.9-.96s2.12-1.85,2.21-1.93c.09-.08,1.76-1.07,1.87-1.14,.11-.08,.71-.35,.84-.38,.14-.03,1.14-.27,1.34-.19Z"/>
              <g>
                <g class="cls-23">
                  <path d="M21.11,40.43c-1.85-1.54-3.9-1.31-3.9-1.31,0,0,2.95,5.42-2.54,6.92-5.49,1.5-8.82-1.49-8.82-1.49,1.29,3.7,6.99,5.63,7.22,5.72,0,0,1.11,.2,1.26,.2s3.03-.23,4.85-1.33c1.82-1.1,3.13-4.3,3.15-4.38,.02-.08,.63-2.8-1.22-4.33Z"/>
                </g>
                <g class="cls-15">
                  <path class="cls-2" d="M9.25,41.74c1.25-.65,2.04-1.35,2.74-1.98,.22,.17,.78,.08,1.32-.24,.62-.36,.99-.86,.84-1.13-.02-.03-.04-.06-.07-.08,.43-.17,.92-.29,1.52-.34,2.98-.26,5.67,1.83,5.67,1.83,0,0-3.29-2.87-6-2.66-2.71,.21-4.54,1.89-4.54,1.89,0,0-1.86,2.08-3.06,2.7-1.2,.62-2.29,1.02-2.08,1.15,0,0,.6,.44,3.66-1.16Z"/>
                </g>
              </g>
              <path d="M14.4,50.7c-.68,0-1.39-.05-2.15-.14-3.41-.43-5.43-2.52-6.53-4.19-1.18-1.8-1.56-3.48-1.57-3.55-.02-.08,0-.16,.05-.22,.05-.06,.12-.1,.2-.1,2.08-.05,3.26-1.12,4.64-2.35,1.03-.92,2.19-1.97,3.91-2.75,1.7-.77,3.69-.68,5.76,.27,1.45,.66,2.45,1.51,2.61,1.65,.76,.44,1.25,1.11,1.47,2,.51,2.07-.62,4.77-1.25,5.76l-.02,.03c-.42,.66-1.12,1.75-2.53,2.55-1.22,.7-2.76,1.05-4.59,1.05Zm-9.66-7.7c.16,.56,.58,1.8,1.43,3.09,1.51,2.29,3.57,3.62,6.15,3.94,.76,.1,1.46,.14,2.1,.14,4.52,0,5.93-2.22,6.66-3.36l.02-.03c.57-.89,1.65-3.46,1.18-5.35-.19-.75-.61-1.32-1.25-1.69-.02,0-.03-.02-.05-.03-.04-.04-4.05-3.57-7.82-1.85-1.64,.75-2.77,1.76-3.77,2.66-1.38,1.24-2.58,2.32-4.64,2.47Z"/>
            </g>
            <path class="cls-2" d="M20.85,40.36c-.23,.58-.41,1.24-.45,1.97,.45-.41,1.15-.91,2.1-.91-.64-.35-1.32-.82-1.65-1.05Z"/>
            <path class="cls-2" d="M24.27,40.86c-.95-.3-2.38-1.28-2.85-1.61-.15,.23-.29,.5-.43,.78,.65,.46,2.08,1.42,2.61,1.46,.42,.03,.6-.39,.66-.63Z"/>
            <path class="cls-17" d="M41.36,43.18c-1.31,1.27-1.34,3.34-1.18,4.68,.32-1.25,.99-3.45,1.91-3.99,.37-.22,.71-.27,1-.16,.36,.14,.55,.51,.65,.77,.25-.22,.66-.51,1.01-.61,.38-.11,.62,0,.75,.12,.4,.34,.49,.75,.5,1.03,.19-.05,.43-.06,.63,.05-.04-.84-.41-1.81-1.09-2.87-1.27-.78-2.72-.44-4.18,.98Z"/>
            <path class="cls-2" d="M41.42,41.41s-.02,0-.04,0c-.1,0-.32-.08-.88-.92-.03-.05-.04-.1-.02-.15s.06-.09,.11-.11c.79-.26,2.1-1.04,2.55-1.32-.16-.22-.3-.4-.38-.5-5.5,2.98-10.89,2.86-14.45,2.23-3.4-.6-5.83-1.77-6.41-2.06-.09,.12-.19,.24-.28,.38,.47,.33,2.02,1.4,2.9,1.61,.09,.02,.15,.11,.13,.2-.05,.32-.25,.85-.7,1.02,.2,.1,.41,.22,.62,.37,2.04,1.44,2.92,5.44,2.05,7.21,1.16,.39,7.38,2.25,13.41-.26-.19-.77-.91-4.24,1.08-6.18,1.65-1.6,3.03-1.68,4.02-1.31-.36-.5-.78-1.08-1.17-1.61-.69,.48-2.33,1.38-2.54,1.4Z"/>
            <path class="cls-2" d="M41.4,41.05c.26-.1,1.69-.87,2.35-1.33-.14-.19-.27-.37-.4-.53-.4,.25-1.58,.96-2.43,1.29,.18,.26,.38,.5,.48,.57Z"/>
            <path class="cls-17" d="M23.98,44.1c-.19-.06-.36-.05-.51,.04-.4,.23-.56,.87-.56,.88-.02,.07-.08,.12-.15,.13-.07,0-.14-.03-.18-.09,0,0-.45-.85-1.06-.68-.59,.16-.47,1.35-.47,1.36,0,.07-.02,.13-.08,.17-.06,.04-.13,.03-.19,0-.47-.32-.72-.19-.79-.14-.09,.24-.5,1.73,1.44,3.76,.91,.96,1.83,1.4,2.71,1.31,.32-.03,.63-.14,.93-.31,1.05-1.94,.3-4.17,.05-4.82-.39-.97-.86-1.51-1.14-1.6Z"/>
            <path class="cls-17" d="M45.96,35.31c-2.65-1.43-5.39-1.53-5.73-1.54-.35,.15-3.24,1.29-6.73,1.29-1.84,0-3.84-.32-5.72-1.26-.3-.11-6.12-2.3-10.49-8.7-.03-.04-.04-.08-.03-.13,.1-.65,.11-1.32,.01-1.44-.18-.01-.46,.28-.57,.39-.09,.1-.15,.16-.26,.14-.06-.01-.11-.06-.13-.12-.13-.39-.51-1.14-.8-1.14s-.38,.56-.4,.75c0,.07-.05,.13-.12,.15-.07,.02-.14,0-.19-.04-.14-.15-.48-.42-.67-.32-.09,.04-.04,.59,.21,1.23,.03,.07,0,.14-.05,.19-.05,.05-.13,.06-.19,.03-.33-.16-.78-.29-.92-.22-.01,0-.02,.01-.02,.03-.04,.17,.41,.64,.67,.93,.34,.36,.55,.59,.59,.79v.05c.31,1.62,1.77,7.17,7.98,11.12,.15-.18,.3-.36,.44-.55,.17-.23,.34-.47,.49-.71,.15-.24,.3-.49,.43-.75,.13-.26,.24-.53,.33-.81-.06,.28-.14,.57-.24,.84-.11,.27-.22,.54-.36,.8-.13,.26-.27,.52-.43,.77-.15,.25-.31,.49-.48,.73,0,0,0,0,0,0,0,0,0,0,0,0-.01,.02-.03,.03-.04,.04-.05,.05-.21,.2-.42,.44,.67,.33,3.01,1.43,6.26,2,3.5,.62,8.79,.73,14.18-2.18-.23-.38-.43-.78-.6-1.18-.19-.47-.36-.94-.5-1.42,.19,.46,.41,.91,.65,1.35,.24,.43,.52,.85,.83,1.22h0s0,0,0,0c.04,.05,.56,.74,1.18,1.58,0,0,0,0,0,0,0,0,0,0,0,0,.17,.23,.34,.47,.52,.7,.46-.08,2.19-.27,3.61,1.02,.04,.03,.06,.08,.06,.14,0,.3,.04,.77,.17,.9,.02,.02,.03,.02,.05,.02,.34-.02,.56-.34,.56-.35,.03-.04,.07-.07,.11-.08,.05,0,.09,0,.13,.03,.47,.32,1,.57,1.13,.53,.11-.32-.11-.7-.11-.71-.04-.07-.03-.16,.03-.22,.06-.06,.16-.06,.22,0,0,0,.4,.3,.65,.14,0,0,.01,0,.02-.03,.05-.2-.21-.73-.41-1.03-.04-.07-.04-.15,.02-.21,.05-.06,.14-.08,.21-.04,.26,.12,.54,.18,.62,.15-.06-.43-1.64-3.09-5.76-5.3Z"/>
            <path class="cls-17" d="M45.88,45.43c-.06,.03-.13,.03-.19-.01-.06-.04-.08-.11-.07-.18,0-.02,.12-.58-.36-.99-.07-.06-.17-.09-.29-.08-.47,.04-1.09,.61-1.18,.72-.03,.05-.09,.08-.15,.08-.13,0-.16-.12-.18-.18-.12-.42-.29-.68-.51-.76-.18-.07-.42-.03-.69,.13-.93,.55-1.71,3.48-1.94,4.6,.04,.2,.08,.33,.09,.38,.09,.19,1.11,2.15,3.06,1.27,2.36-1.07,3.01-4.12,3.12-4.72,.01-.06,.02-.12,.02-.17-.24-.34-.67-.12-.72-.09Z"/>
            <path class="cls-17" d="M24.37,42.44c-1.86-1.31-3.08-.53-4.02,.42-.06,.08-.72,.93-.39,2.51,.16-.06,.41-.08,.73,.06,0-.45,.1-1.24,.74-1.41,.58-.16,1.02,.25,1.26,.55,.11-.25,.3-.58,.6-.75,.24-.14,.5-.16,.79-.07,.45,.14,.97,.83,1.36,1.8,.24,.61,.91,2.6,.21,4.51,.21-.2,.4-.44,.57-.71,0,0,0,0,0,0,0,0,0,0,0,0,.85-1.36,.23-5.45-1.85-6.92Z"/>
            <g>
              <path class="cls-20" d="M24.45,14.68c-.53-.47-2.48-2.37-3.22-5.06-.4,.38-1.24,1.43-.99,3.32,.27,2.06,1.21,3.92,1.53,4.5,.85-.79,1.94-1.85,2.68-2.76Z"/>
              <path class="cls-20" d="M48.51,15.09s-.17-.06-.69,.44c-1.08,1.05-3.37,2.35-3.92,2.65,.22,.92,.83,2.67,1.31,3.96,2.16-1.58,3.2-4.17,3.35-5.47,.14-1.22,.05-1.54-.05-1.59Z"/>
              <path class="cls-17" d="M50.07,15.17c-.1-1.46-.31-2.19-.72-2.42-.44-.26-1.22,.03-2.26,.53-1.93,.94-4.67,1.04-5.71,1.04,.06,.06,.11,.13,.17,.19,.15,.18,.28,.36,.41,.55,.13,.19,.25,.38,.35,.58,.11,.2,.2,.41,.28,.62-.11-.2-.22-.39-.35-.57-.13-.18-.27-.36-.41-.52-.15-.17-.3-.33-.46-.47-.16-.15-.33-.29-.5-.42h0s-.02-.02-.03-.03c-5.25-4.64-11.13-2.58-11.61-2.4-.01,0-.02,.01-.04,.02,0,0,0,0-.01,0h0c-.3,.06-.62,.16-.92,.28-.3,.11-.6,.25-.9,.39-.29,.15-.58,.3-.86,.47-.14,.08-.28,.18-.42,.26-.14,.09-.27,.19-.41,.28,.13-.1,.25-.21,.38-.32,.13-.1,.26-.21,.39-.3,.27-.2,.54-.38,.83-.55,.28-.17,.58-.33,.88-.48,.1-.05,.2-.09,.3-.14-2.92-.57-4.8-2.44-5.96-3.59-.47-.47-.92-.91-1.12-.91-.79,0-2.75,1.67-2.96,5.79-.18,3.61,1.7,5.14,2.17,5.46,.16-.14,.5-.44,.93-.84-.28-.51-1.31-2.46-1.61-4.7-.35-2.63,1.27-3.78,1.34-3.82,.05-.03,.11-.04,.16-.02,.05,.02,.09,.07,.11,.12,.74,3.09,3.28,5.24,3.31,5.26,.07,.06,.08,.17,.02,.24-.8,1.01-2.06,2.23-2.97,3.07,0,0-.02,.02-.02,.02-.63,.58-1.1,.98-1.13,1.01-.03,.03-.76,.72-1.59,1.59-1.62,1.7-1.95,2.69,.69,7.1,2.59,4.34,9.48,6.66,9.77,6.75,0,0,.02,0,.02,0,.01,0,1.44,.67,4.37,.49h0s2.73-.18,6.58-1.73c3.81-1.53,6.15-3.59,6.59-4.56,.3-.67-.82-3.15-1.64-4.65,0,0,0,0,0-.01,0,0,0,0,0-.01-.07-.17-1.63-4.25-1.95-5.74-.02-.08,.02-.15,.09-.19,.03-.02,2.79-1.51,3.96-2.66,.49-.48,.82-.64,1.09-.51,.37,.18,.37,.85,.25,1.94-.16,1.38-1.27,4.14-3.57,5.77,.17,.45,.3,.81,.39,1.03,2.84-2.28,4.55-5.54,4.35-8.35Zm-14.3,11.02c-.09,.87-.55,1.65-1.31,2.19-.64,.46-1.42,.7-2.23,.7-.14,0-.28,0-.42-.02-.96-.1-1.84-.53-2.46-1.21-.63-.69-.92-1.54-.83-2.42,.09-.87,.55-1.65,1.31-2.19,.75-.54,1.69-.78,2.65-.68,.96,.1,1.84,.53,2.46,1.21,.63,.69,.92,1.54,.83,2.42Z"/>
              <path class="cls-2" d="M32.49,22.47c-.15-.02-.3-.02-.45-.02-.85,0-1.67,.25-2.33,.73-.77,.56-1.25,1.35-1.34,2.24-.09,.89,.21,1.76,.85,2.47,.65,.71,1.56,1.16,2.57,1.26,1.01,.1,2-.15,2.78-.71,.77-.56,1.25-1.35,1.34-2.24,.09-.89-.21-1.76-.85-2.47-.65-.71-1.56-1.16-2.57-1.26Z"/>
              <path class="cls-2" d="M30.82,22.99s2.29-5.36,0-7.62-6.14-.97-6.37-.69-1.96,2.53-2.96,3.25c-1,.72-2.57,2.44-2.57,2.44l-.39,.75s-.2,3.93,2.57,5.19,5.67,.8,8.03-1.32c0,0,.13-.58,.21-.7,.08-.12,1.49-1.29,1.49-1.29Z"/>
              <path class="cls-2" d="M34.9,23.91s-.69-3.72,1.23-5.51c1.93-1.79,5.41-2.35,7.57-.17l1.34,4,1.11,2.71,.68,1.52s-1.91,3.17-5.81,2.71c-3.9-.46-5.16-2.68-5.64-3.8-.48-1.13-.48-1.46-.48-1.46Z"/>
              <path class="cls-24" d="M30.6,22.7s1.45-3.08-.65-4.51c-2.11-1.43-4.65,.35-5.93,.56s-3.85,1.25-3.46,3.88c.39,2.63,2.92,3.96,5.73,3.37,2.81-.59,4.31-3.31,4.31-3.31Z"/>
              <path class="cls-24" d="M35.61,24.53s-1.02-4.42,1.93-5.48c1.81-.66,2.36,1.78,4.25,2.62,1.89,.84,5.41,4.06,1.2,6.41-4.21,2.35-7.23-2.58-7.37-3.55Z"/>
              <g class="cls-23">
                <path d="M28.81,27.33s.44,2.58,2.98,2.84c2.54,.26,3.54-2.08,3.54-2.08,0,0-3.78,2.15-6.52-.76Z"/>
              </g>
              <g class="cls-23">
                <path d="M29.68,24.66s-.87,2.39,1.11,3.48,3.6-.36,3.99-1.28c.39-.92,0-1.47,0-1.47,0,0-1.06,.36-1.22,.77-.16,.41-1.06,1.7-1.99,1.37-.93-.33-.85-1.54-.78-1.96,.08-.42-1.11-.9-1.11-.9Z"/>
              </g>
              <g class="cls-23">
                <path d="M30.11,24.37s1.03,.52,1.37,.34,.51-.59,.51-.59l.99,.31s.41,.72,.79,.81c.38,.09,.54,.1,.51,.17-.03,.07-.91,.36-1.28,.26-.37-.1-1.68-.19-2.32-.63-.64-.44-.56-.68-.56-.68Z"/>
              </g>
              <g>
                <path class="cls-18" d="M21.17,11.55c-.49,.5-.78,1.96-.81,2.14,.37,1.75,1.12,3.25,1.4,3.76,.56-.52,1.23-1.17,1.83-1.81-1.83-1.56-2.07-4.12-2.43-4.09Z"/>
                <path class="cls-18" d="M20.99,8.27c.94-.1,1.06,1.35,2.17,2.84,.89,1.2,3.13,1.93,3.13,1.93,0,0,0,0,0,0,.05-.04,.1-.08,.15-.12,.27-.2,.54-.38,.83-.55,.09-.05,.18-.1,.27-.15-.17-.08-1.09-.51-2.94-1.48-2.07-1.08-3.35-3.35-3.35-3.35-.05-.04-.06-.08-.05-.11-.87,.2-2.6,1.91-2.79,5.77-.1,2.04,.46,3.42,1.05,4.29-.22-.75-.53-2.12-.58-3.97-.07-2.61,1.19-5.01,2.12-5.11Z"/>
                <path class="cls-18" d="M45.48,23.88s0,0,0-.01c-.07-.17-1.63-4.25-1.95-5.74,0-.04,0-.08,.01-.11l-.18,.06s-.24-1.22-.09-1.7c.15-.48,1.76-.4,3.27-1.17,1.5-.78,2.57-1.65,2.86-1.21,.29,.44,.57,2.85-.59,5.24-.97,2.01-2.72,3.43-3.26,3.84,.07,.18,.13,.34,.17,.45,2.84-2.28,4.55-5.54,4.35-8.35-.1-1.43-.31-2.15-.69-2.4-.97,0-2.44,1.26-4.27,1.72-1.7,.43-2.95,.43-3.26,.42,.04,.05,.07,.1,.11,.15,.13,.19,.25,.38,.35,.58,.11,.2,.2,.41,.28,.62-.11-.2-.22-.39-.35-.57-.03-.05-.07-.09-.11-.14-1.33-1.13-4.83-3.25-7.93-3.67-.64-.09-1.33-.09-2.04-.05-.05,.22-.59,.46-1.28,.56-.71,.1-1.31,.01-1.39-.2-1.56,.31-2.77,.7-2.89,.74-.04,.02-.08,.05-.12,.07-.14,.08-.28,.18-.42,.26,0,0,0,0-.01,.01-.54,.59-1.05,1.45-1.05,1.45l-.14-.06s-.01,.07-.03,.09c-.8,1.01-2.06,2.23-2.97,3.07,0,0-.02,.02-.02,.02-.63,.58-1.1,.98-1.13,1.01,0,0-1.72,2.6-1.22,4.77,.5,2.17,5.76,8.19,12.78,8.76,7.02,.56,12.93-3.05,13.45-4.11,.37-.75,.58-1.97,.67-2.62-.28-.64-.6-1.27-.89-1.79,0,0,0,0,0-.01Z"/>
                <path class="cls-18" d="M48.32,17.71c-.02-.81-.3-1.36-.47-1.32-.23,.06-1.92,2.17-3.73,2.63,.29,.94,.72,2.17,1.08,3.13,1.68-1.23,2.68-3.06,3.12-4.43Z"/>
                <path class="cls-4" d="M21.23,9.62c-.4,.38-1.24,1.43-.99,3.32,.03,.25,.08,.5,.13,.74,.03-.18,.32-1.64,.81-2.14,.35-.02,.6,2.54,2.43,4.09,.31-.33,.6-.65,.85-.96-.53-.47-2.48-2.37-3.22-5.06Z"/>
                <g class="cls-23">
                  <path d="M26.05,13.28c-.13,.09-.26,.18-.39,.27,.13-.1,.25-.21,.38-.32,.08-.06,.16-.12,.24-.18,0,0,0,0,0,0,0,0-2.24-.73-3.13-1.93-1.11-1.49-1.23-2.95-2.17-2.84-.94,.1-2.19,2.51-2.12,5.11,.05,1.85,.35,3.22,.58,3.97,.45,.67,.92,1.03,1.12,1.17,.16-.14,.5-.44,.93-.84-.28-.51-1.31-2.46-1.61-4.7-.35-2.63,1.27-3.78,1.34-3.82,.05-.03,.11-.04,.16-.02,.05,.02,.09,.07,.11,.12,.74,3.09,3.28,5.24,3.31,5.26,.05,.04,.06,.09,.06,.15l.14,.06s.51-.86,1.05-1.45Z"/>
                </g>
                <g class="cls-23">
                  <path class="cls-13" d="M20.3,18.77s-.07-.05-.11-.08c.05,.06,.09,.09,.11,.08Z"/>
                </g>
                <g class="cls-23">
                  <path d="M48.81,19.23c1.16-2.39,.87-4.8,.59-5.24-.29-.44-1.35,.44-2.86,1.21-1.5,.78-3.12,.69-3.27,1.17-.15,.48,.09,1.7,.09,1.7l.18-.06s.04-.06,.08-.08c.03-.02,2.79-1.51,3.96-2.66,.49-.48,.82-.64,1.09-.51,.37,.18,.37,.85,.25,1.94-.16,1.38-1.27,4.14-3.57,5.77,.08,.22,.15,.41,.22,.58,.54-.41,2.29-1.83,3.26-3.84Z"/>
                </g>
                <path class="cls-4" d="M48.32,17.71c.12-.39,.2-.75,.24-1.04,.14-1.22,.05-1.54-.05-1.59-.02,0-.17-.06-.69,.44-1.08,1.05-3.37,2.35-3.92,2.65,.05,.23,.13,.52,.23,.83,1.81-.46,3.49-2.57,3.73-2.63,.17-.04,.45,.52,.47,1.32Z"/>
                <g class="cls-23">
                  <path d="M32.26,32.4c-7.02-.56-12.28-6.59-12.78-8.76-.5-2.17,1.22-4.77,1.22-4.77-.03,.03-.76,.72-1.59,1.59-1.62,1.7-1.95,2.69,.69,7.1,2.59,4.34,9.48,6.66,9.77,6.75,0,0,.02,0,.02,0,.01,0,1.44,.67,4.37,.49h0s2.73-.18,6.58-1.73c3.81-1.53,6.15-3.59,6.59-4.56,.2-.44-.21-1.65-.75-2.86-.09,.64-.3,1.86-.67,2.62-.52,1.06-6.43,4.67-13.45,4.11Z"/>
                </g>
                <g class="cls-15">
                  <path class="cls-2" d="M45.11,14.49c1.83-.46,3.3-1.71,4.27-1.72,0,0-.02-.01-.03-.02-.44-.26-1.22,.03-2.26,.53-1.93,.94-4.67,1.04-5.71,1.04,.06,.06,.11,.13,.17,.19,.11,.13,.21,.26,.3,.39,.31,0,1.56,.01,3.26-.42Z"/>
                </g>
                <g class="cls-15">
                  <path class="cls-2" d="M30.89,12.4c.69-.1,1.23-.34,1.28-.56,.71-.04,1.4-.04,2.04,.05,3.09,.42,6.6,2.54,7.93,3.67-.1-.13-.2-.26-.31-.38-.15-.17-.3-.33-.46-.47-.16-.15-.33-.29-.5-.42h0s-.02-.02-.03-.03c-5.25-4.64-11.13-2.58-11.61-2.4-.01,0-.02,.01-.04,.02,0,0,0,0-.01,0h0c-.3,.06-.62,.16-.92,.28-.3,.11-.6,.25-.9,.39-.25,.13-.5,.26-.74,.4,.12-.04,1.33-.43,2.89-.74,.08,.21,.69,.3,1.39,.2Z"/>
                </g>
                <g class="cls-15">
                  <path class="cls-2" d="M21.24,7.4s1.29,2.27,3.35,3.35c1.85,.97,2.76,1.4,2.94,1.48,.2-.11,.4-.22,.61-.32,.1-.05,.2-.09,.3-.14-2.92-.57-4.8-2.44-5.96-3.59-.47-.47-.92-.91-1.12-.91-.05,0-.11,0-.17,.02-.01,.03,0,.07,.05,.11Z"/>
                </g>
              </g>
              <g class="cls-15">
                <path class="cls-2" d="M32.01,23.78s1.12,.28,1.13,.15c.02-.12-1.36-.4-1.13-.15Z"/>
              </g>
              <path class="cls-8" d="M31.98,27.33s.63-.05,.62-.33c0-.28-.53-.82-1.03-.91-.5-.09-.82,.12-.82,.12,0,0,.09,.54,.12,.62,.03,.08,.59,.65,1.11,.5Z"/>
              <g>
                <g>
                  <path d="M32.98,35.29c-2.25,0-3.41-.49-3.57-.56-.46-.15-7.36-2.52-10-6.94-1.36-2.27-1.95-3.71-1.99-4.81-.04-1.11,.47-1.88,1.37-2.82,.57-.59,1.09-1.1,1.38-1.38-.69-.53-2.38-2.19-2.2-5.74,.22-4.33,2.35-6.21,3.39-6.21,.38,0,.78,.39,1.43,1.04,1.19,1.18,3.19,3.16,6.3,3.56,.33-.12,1.8-.63,3.85-.64,2.09-.01,5.19,.52,8.12,3.08,.58,.01,3.76,.02,5.83-.99,1.2-.58,2.06-.87,2.67-.52,.64,.37,.84,1.37,.93,2.77,.2,2.96-1.57,6.36-4.53,8.73,.51,.96,2,3.87,1.55,4.85-.44,.97-2.68,3.12-6.82,4.79-3.92,1.58-6.6,1.75-6.72,1.76-.36,.02-.69,.03-1,.03ZM21.36,7.36c-.3,0-.97,.34-1.6,1.27-.52,.77-1.16,2.16-1.27,4.44-.2,4.02,2.12,5.39,2.22,5.45,.07,.04,.12,.11,.13,.2,0,.08-.02,.17-.08,.22,0,0-.75,.71-1.59,1.59-1.48,1.56-2.02,2.44,.7,7,2.58,4.32,9.44,6.62,9.73,6.72,.01,0,.02,0,.04,.01,.01,0,1.43,.66,4.33,.49h0s2.72-.18,6.55-1.72c3.79-1.52,6.11-3.56,6.54-4.52,.27-.6-.79-3.04-1.64-4.57-.06-.11-.03-.25,.07-.33,2.93-2.27,4.7-5.58,4.5-8.42-.1-1.43-.3-2.13-.67-2.35-.35-.2-.98-.05-2.18,.53-2.4,1.17-6.02,1.05-6.17,1.04-.06,0-.12-.03-.16-.07-2.81-2.49-5.78-3.02-7.79-3.02-.01,0-.02,0-.04,0-2.19,0-3.73,.62-3.75,.62-.04,.02-.09,.02-.13,.02-3.33-.4-5.42-2.48-6.67-3.72-.42-.42-.9-.89-1.06-.89Z"/>
                  <path d="M20.58,19.01c-.07,0-.15-.03-.2-.09-.09-.11-.08-.28,.03-.37,.01,0,.41-.36,.98-.87-.33-.59-1.3-2.49-1.59-4.67-.36-2.68,1.3-3.86,1.38-3.91,.07-.05,.16-.06,.24-.03,.08,.03,.14,.1,.16,.18,.74,3.06,3.25,5.19,3.28,5.21,.11,.09,.13,.25,.04,.36-1.38,1.74-4.03,4.03-4.14,4.12-.05,.04-.11,.06-.17,.06Zm.6-9.22c-.41,.44-1.09,1.44-.86,3.14,.26,1.94,1.11,3.7,1.47,4.37,.82-.76,1.83-1.75,2.54-2.61-.6-.55-2.39-2.36-3.14-4.9Z"/>
                  <path d="M45.64,24.07c-.11,0-.2-.06-.25-.17-.07-.17-1.64-4.26-1.95-5.75-.02-.11,.03-.23,.13-.29,.03-.01,2.78-1.51,3.94-2.64,.35-.34,.8-.71,1.19-.52,.42,.21,.43,.9,.3,2.03-.16,1.44-1.25,4.13-3.56,5.8,.26,.69,.44,1.18,.45,1.19,.05,.14-.02,.29-.15,.34-.03,.01-.06,.02-.09,.02Zm-1.64-5.84c.22,.9,.79,2.53,1.25,3.78,2.08-1.57,3.08-4.08,3.22-5.34,.13-1.16,.05-1.43,0-1.49-.04,0-.2,.05-.59,.42-1.05,1.03-3.24,2.28-3.88,2.63Z"/>
                  <path d="M29.18,11.96c-1.11,.22-2.15,.73-3.1,1.32-.14,.09-.28,.18-.41,.27,.12-.11,.25-.22,.37-.32,.91-.74,1.91-1.41,3.03-1.78,.36-.09,.48,.44,.11,.51h0Z"/>
                  <path d="M41.13,13.94c.65,.66,1.16,1.46,1.46,2.33-.12-.19-.23-.38-.37-.56-.4-.52-.88-.99-1.42-1.36-.31-.22,.04-.67,.33-.41h0Z"/>
                  <path d="M33.53,26.09c-.11,0-.22-.01-.32-.04-.38-.1-.65-.38-.8-.6-.25,.18-.52,.27-.82,.27h0c-.9,0-1.68-.85-1.71-.88-.1-.11-.09-.27,.02-.37,.11-.1,.27-.09,.37,.02h0s.66,.71,1.33,.71h0c.26,0,.49-.11,.69-.33,.06-.07,.15-.1,.24-.08,.09,.02,.16,.07,.2,.16,0,0,.22,.49,.63,.6,.27,.07,.59-.03,.95-.3,.12-.09,.28-.06,.37,.05,.09,.12,.06,.28-.05,.37-.38,.28-.74,.43-1.09,.43Z"/>
                  <path d="M31.92,27.79c-.16,0-.33-.03-.5-.09-1.25-.45-1.27-1.94-1.11-2.66,.03-.14,.17-.23,.31-.2,.14,.03,.23,.17,.2,.31-.02,.07-.36,1.65,.77,2.05,1.11,.39,1.87-1.47,1.87-1.49,.05-.13,.21-.2,.34-.15,.13,.05,.2,.21,.15,.34-.03,.09-.76,1.88-2.04,1.88Z"/>
                  <path d="M32.88,27.34c-.12,0-.22-.08-.25-.2-.3-1.15-1.99-.85-2.06-.83-.14,.03-.28-.07-.31-.21-.03-.14,.07-.28,.21-.31,.77-.15,2.33-.09,2.66,1.22,.04,.14-.05,.28-.19,.32-.02,0-.04,0-.07,0Z"/>
                  <path d="M32.84,26.65s-.08-.47-1.11-.72c-.14-.03-.23-.18-.19-.32,.03-.14,.18-.23,.32-.19,1.41,.34,1.5,1.1,1.51,1.19l-.52,.04h0Z"/>
                  <path d="M32.15,24.94s-.75-1.16-.55-1.4c.2-.24,2-.02,1.88,.43s-.69,1.21-1.33,.97Z"/>
                  <path d="M24.98,21.18c.65-1.29,2.73-1.76,3.66-.51,.22,.29,.34,.61,.39,.96,.02,.17,.09,.52-.18,.52-.07,0-.13-.05-.16-.11-.33-.52-.79-1.08-1.44-1.1-.63-.04-1.24,.18-1.79,.48-.06,.03-.12,.06-.18,.09-.2,.09-.4-.14-.3-.33h0Z"/>
                  <path d="M36.89,23.46c.76-1.23,2.87-1.53,3.69-.2,.19,.31,.29,.64,.31,.99,0,.17,.04,.53-.23,.5-.07,0-.12-.06-.15-.12-.28-.54-.7-1.14-1.34-1.22-.62-.1-1.25,.07-1.82,.33-.06,.03-.12,.05-.18,.07-.21,.07-.39-.17-.27-.35h0Z"/>
                </g>
                <path d="M32.35,29.43c-.2,0-.41-.01-.61-.05-1.01-.15-1.9-.65-2.51-1.41-.62-.77-.89-1.71-.75-2.65,.14-.94,.67-1.76,1.48-2.32,.81-.55,1.81-.77,2.82-.62,1.01,.15,1.9,.65,2.51,1.41,.62,.77,.89,1.71,.75,2.65-.14,.94-.67,1.76-1.48,2.32-.65,.44-1.41,.67-2.21,.67Zm-.18-6.58c-.69,0-1.35,.2-1.91,.58-.69,.47-1.14,1.17-1.26,1.96-.12,.79,.11,1.59,.64,2.24,.53,.66,1.31,1.09,2.18,1.22,.87,.13,1.74-.06,2.44-.54,.69-.47,1.14-1.17,1.26-1.96h0c.12-.79-.11-1.59-.64-2.24-.53-.66-1.31-1.09-2.18-1.22-.18-.03-.36-.04-.53-.04Zm3.61,3.55h0Z"/>
              </g>
              <path d="M43.55,18.31c-1.85-1.22-4.43-1.9-6.44-.65-.66,.4-1.21,.97-1.66,1.6,.41-.66,.93-1.26,1.58-1.71,1.67-1.19,3.92-.98,5.72-.22,.38,.16,.73,.32,1.08,.54,.12,.08,.16,.24,.09,.36-.08,.13-.26,.17-.38,.08h0Z"/>
              <path d="M24.56,14.44c1.54-.76,3.39-.67,4.98-.11,1.21,.38,1.97,1.44,2.22,2.65,.2,.93,.19,1.89,.03,2.81,.11-.93,.08-1.88-.16-2.78-.24-.94-.81-1.83-1.71-2.23-1.21-.49-2.59-.62-3.86-.35-.43,.1-.86,.24-1.24,.46-.3,.18-.57-.28-.26-.45h0Z"/>
            </g>
            <path class="cls-2" d="M26.43,40.05s1.03-.79,1.41-2,.81-3.57,.81-3.57c0,0,4.15,1.21,7.38,.29,0,0,.79,4.01,2.72,5.1,0,0-3.3,.96-5.93,.96s-6.4-.79-6.4-.79Z"/>
            <ellipse class="cls-2" cx="23.21" cy="48.63" rx="1.1" ry="1.39" transform="translate(-13.42 9.11) rotate(-17.31)"/>
            <ellipse class="cls-2" cx="42.7" cy="48.45" rx="1.39" ry="1.1" transform="translate(-16.26 74.8) rotate(-72.69)"/>
            <path class="cls-8" d="M33.06,47.53s-3.18-1.76-2.44-3.48c.74-1.72,2.35,0,2.35,0,0,0,1.11-1.22,2.26-.44,1.14,.78-.41,3.01-2.17,3.91Z"/>
            <g>
              <path class="cls-18" d="M42.04,41.13l1.61-.82c.1,.03,.77,1.15,.75,1.14,0,0,0,0,0,0,.27,.02,.51,.09,.74,.17-.36-.5-.78-1.08-1.17-1.61-.46,.32-1.32,.81-1.92,1.12Z"/>
              <path class="cls-18" d="M26.62,49.36s0,0,0,0v-.05s0,.03,0,.04Z"/>
              <path class="cls-18" d="M42.92,42.07c.59,.25,.52,1.52,.54,1.93,0,0,0,0,0,0,.12,.15,.21,.33,.26,.47,.25-.22,.66-.51,1.01-.61,.38-.11,.62,0,.75,.12,.4,.34,.49,.75,.5,1.03,.02,0,.04,0,.06-.01-.03-.31-.13-1.07-.39-1.69-.34-.79-1.05-1.46-1.07-1.48-.54-.1-1.1-.02-1.67,.24Z"/>
              <path class="cls-18" d="M41.92,41.19h0c-.25,.13-.45,.21-.51,.22-.01,0-.02,0-.04,0-.1,0-.32-.08-.88-.92-.03-.05-.04-.1-.02-.15s.06-.09,.11-.11c.34-.11,.78-.32,1.2-.55-.02-.09-.17-.42-.28-.65-5.05,2.33-9.91,2.19-13.21,1.6-1.94-.34-3.57-.87-4.72-1.32-.03,.2-.08,.55-.14,.79,.39,.21,.76,.38,1.06,.45,.09,.02,.15,.11,.13,.2-.05,.32-.25,.85-.7,1.02,.2,.1,.41,.22,.62,.37,1.6,1.13,2.48,3.82,2.37,5.78l.07-.31s4.39,1.05,7.96,.83c2.82-.18,4.3-.87,4.79-1.16-.08-1.37,.11-3.17,1.35-4.37,.32-.31,.63-.56,.92-.77,0,0,0,0,0,0-.03-.07-.11-.97-.11-.97Z"/>
              <path class="cls-18" d="M43.14,38.91c-.16-.22-.3-.4-.38-.5-.1,.05-.19,.1-.29,.15,.09,.17,.24,.45,.3,.57,.15-.09,.27-.16,.36-.22Z"/>
              <path class="cls-18" d="M21.9,38.57c-.09,.12-.19,.24-.28,.38,.09,.06,.21,.15,.36,.25,.09-.15,.2-.33,.28-.46-.15-.07-.27-.13-.35-.17Z"/>
              <path class="cls-18" d="M23.23,50.64c0-.05-1.76-1.15-2.38-2.8,0,0,1.03,1.35,2.73,1.14,1.45-.18,1.67-2.23,1.7-2.84-.06-.19-.12-.34-.16-.45-.39-.97-.86-1.51-1.14-1.6-.19-.06-.36-.05-.51,.04-.4,.23-.56,.87-.56,.88-.01,.06-.06,.11-.12,.13,.02,.1,.02,.17-.04,.2-.18,.08-.56-.41-1.02-.45-.46-.04-.07,.73-.38,1.26-.31,.53-.74,.01-.99,0-.24-.01,.05,1.72,.14,2.17,.22,.37,.52,.77,.92,1.19,.91,.96,1.83,1.4,2.71,1.31,.03,0,.06,0,.09-.01-.5-.07-1.01-.17-1.01-.17Z"/>
              <path class="cls-18" d="M21.14,39.74l.14-.06s.82,.79,1.7,1.15c.74,.3,1.04,.4,1.11,.42,.1-.13,.16-.29,.19-.4-.95-.3-2.38-1.28-2.85-1.61-.1,.15-.19,.32-.28,.5Z"/>
              <path class="cls-18" d="M20.85,41.57c.03-.27,.35-.97,.35-.97h0c-.14-.09-.25-.17-.34-.24-.23,.58-.41,1.24-.45,1.97,.12-.11,.26-.23,.42-.34-.04-.04,0-.19,.03-.42Z"/>
              <path class="cls-18" d="M22.13,41.78c.4-.02,.69,.04,.69,.04,0,0-1.39,.35-1.9,1.05-.51,.7-.34,2.33-.22,2.57,0-.45,.1-1.24,.74-1.41,.58-.16,1.02,.25,1.26,.55,.11-.25,.3-.58,.6-.75,.02,0,.03-.02,.05-.02-.02-.27-.05-1.13,.23-1.28,.2-.1,.66-.03,1.08,.14-.09-.08-.19-.16-.29-.23-.88-.62-1.61-.77-2.24-.66Z"/>
              <path class="cls-18" d="M45.66,48.22c.17-.69,.42-2.2,.4-2.3-.02-.1-.24,.02-.58-.04s-.2-.76-.31-1.09c-.11-.33-1-.03-1.07,.03-.04,.04,.03-.14,.13-.31-.23,.16-.41,.33-.45,.38-.03,.05-.09,.08-.15,.08-.13,0-.16-.12-.18-.18-.12-.42-.29-.68-.51-.76-.18-.07-.42-.03-.69,.13-.53,.32-1.01,1.4-1.37,2.48,.09,.6,.44,2.23,1.54,2.56,1.35,.41,2.62-.75,2.62-.75,0,0-1.08,2.23-2.69,2.18,.33,.03,.7-.03,1.12-.22,1-.45,1.7-1.27,2.17-2.1,0-.03,.01-.06,.02-.1Z"/>
              <path class="cls-18" d="M51.2,40.12c-.34-.3-2.96-2.84-4.94-4.08-1.97-1.24-5.1-2.13-5.2-2.21-.32-.03-.56-.05-.71-.05-.26,.42-1.65,1.99-8.21,2.09-7.58,.12-13.3-8.71-13.3-8.71,0,0,0,0,0,0-.08-.09-.16-.19-.23-.28,.07,.14,.07,.2-.04,.12-.5-.36-1.63-1.61-1.66-1.78s.12-.71,.14-1c.02-.25-.11-.42-.16-.48-.08,.07-.15,.14-.19,.19-.09,.1-.15,.16-.26,.14-.04,0-.08-.04-.11-.07-.07,.04-.13,.06-.13,.05-.03-.02-.41-.56-.5-.73-.1-.17-.36-.16-.36-.16,0,0-.1,.14-.2,.3,0,.04,0,.08-.01,.1,0,.07-.05,.13-.12,.15-.02,0-.04,0-.06,0-.05,.07-.09,.12-.1,.13-.03,.02-.32-.14-.44-.17-.12-.03-.14,.55-.14,.55,0,0-.02-.01-.04-.04,.03,.12,.08,.25,.13,.39,.03,.07,0,.14-.05,.19-.05,.05-.13,.06-.19,.03-.33-.16-.78-.29-.92-.22-.01,0-.02,.01-.02,.03-.03,.11,.15,.35,.35,.57l-.08-.28s1.11,.58,1.41,.93c.31,.35,.75,2.26,2.5,4.98,1.64,2.56,5.44,5.28,5.88,5.59,.04-.06,.08-.11,.11-.17,.15-.24,.3-.49,.43-.75,.13-.26,.24-.53,.33-.81-.06,.28-.14,.57-.24,.84-.11,.27-.22,.54-.36,.8-.13,.26-.27,.52-.43,.77-.15,.25-.31,.49-.48,.73,0,0,0,0,0,0,0,0,0,0,0,0-.01,.02-.03,.03-.04,.04-.05,.05-.21,.2-.42,.44,.67,.33,3.01,1.43,6.26,2,3.5,.62,8.79,.73,14.18-2.18-.23-.38-.43-.78-.6-1.18-.12-.29-.23-.58-.33-.88,0,0,0,0,0,0,0,0,0,0,0,0-.06-.18-.12-.36-.17-.54,.09,.22,.19,.44,.29,.66,.52,.48,2.47,2.23,3.46,2.62,1.15,.45,3.36,1.37,4.01,2.14,.48,.58,.95,1.31,1.15,1.63,.04,0,.08,0,.1,0,.11-.32-.11-.7-.11-.71-.04-.07-.03-.16,.03-.22,.06-.06,.16-.06,.22,0,0,0,.4,.3,.65,.14,0,0,.01,0,.02-.03,.05-.2-.21-.73-.41-1.03-.04-.07-.04-.15,.02-.21,.05-.06,.14-.08,.21-.04,.26,.12,.54,.18,.62,.15,0-.04-.02-.09-.05-.16,0,.02-.14-.03-.47-.33Z"/>
              <path class="cls-18" d="M41.23,40.88s2.09-1.16,2.28-1.49c-.05-.07-.1-.14-.15-.2-.4,.25-1.58,.96-2.43,1.29,.11,.15,.22,.29,.31,.4Z"/>
              <g class="cls-23">
                <path d="M32.15,35.87c6.56-.1,7.95-1.67,8.21-2.09-.06,0-.1,0-.12,0-.35,.15-3.24,1.29-6.73,1.29-1.84,0-3.84-.32-5.72-1.26-.26-.1-4.84-1.82-8.92-6.65,0,0,0,0,0,0,0,0,5.72,8.83,13.3,8.71Z"/>
              </g>
              <g class="cls-23">
                <path d="M17.35,30.8c-1.75-2.72-2.19-4.63-2.5-4.98-.31-.35-1.37-.9-1.41-.93l.08,.28c.11,.13,.23,.25,.32,.35,.34,.36,.55,.59,.59,.79v.05c.31,1.62,1.77,7.17,7.98,11.12,.15-.18,.3-.36,.44-.55,.13-.18,.26-.36,.38-.54-.44-.31-4.24-3.03-5.88-5.59Z"/>
              </g>
              <g class="cls-23">
                <path d="M23.58,48.98c-1.7,.21-2.73-1.14-2.73-1.14,.62,1.65,2.38,2.74,2.38,2.8,0,0,.51,.1,1.01,.17,.29-.04,.57-.14,.84-.3,.87-1.62,.5-3.43,.21-4.37-.03,.61-.25,2.66-1.7,2.84Z"/>
              </g>
              <g class="cls-23">
                <path d="M23.58,42.53c-.29,.14-.25,1.01-.23,1.28,.22-.11,.47-.13,.74-.04,.45,.14,.97,.83,1.36,1.8,.24,.61,.91,2.6,.21,4.51,.21-.2,.4-.44,.57-.71,0,0,0,0,0,0,0,0,0,0,0,0,.81-1.3,.29-5.06-1.56-6.69-.42-.17-.88-.24-1.08-.14Z"/>
              </g>
              <g class="cls-23">
                <path d="M21.27,39.68l-.14,.06c-.05,.09-.1,.19-.14,.29,.65,.46,2.08,1.42,2.61,1.46,.22,.02,.37-.09,.47-.23-.07-.02-.37-.12-1.11-.42-.88-.36-1.7-1.15-1.7-1.15Z"/>
              </g>
              <g class="cls-23">
                <path d="M20.85,41.57c-.03,.23-.06,.37-.03,.42,.43-.3,.99-.57,1.68-.58-.46-.25-.95-.57-1.31-.81h0s-.31,.7-.35,.97Z"/>
              </g>
              <g class="cls-23">
                <path d="M27.01,47.63l-.07,.31c-.03,.53-.13,1-.3,1.38v.05c1.17,.39,7.38,2.24,13.39-.26-.07-.29-.22-.97-.27-1.81-.49,.28-1.97,.98-4.79,1.16-3.57,.22-7.96-.83-7.96-.83Z"/>
              </g>
              <g class="cls-23">
                <path d="M45.04,48.45s-1.26,1.16-2.62,.75c-1.1-.33-1.45-1.96-1.54-2.56-.27,.82-.47,1.64-.57,2.12,.04,.2,.08,.33,.09,.38,.07,.15,.72,1.4,1.94,1.49,1.61,.05,2.69-2.18,2.69-2.18Z"/>
              </g>
              <g class="cls-23">
                <path d="M42.92,42.07c-.51,.23-1.04,.6-1.56,1.11-1.31,1.27-1.34,3.34-1.18,4.68,.32-1.25,.99-3.45,1.91-3.99,.37-.22,.71-.27,1-.16,.16,.06,.29,.17,.38,.29,0,0,0,0,0,0-.03-.41,.05-1.68-.54-1.93Z"/>
              </g>
              <g class="cls-23">
                <path d="M22.25,38.74c-.08,.13-.19,.31-.28,.46,.39,.26,.94,.62,1.48,.91,.06-.24,.11-.6,.14-.79-.58-.23-1.04-.43-1.35-.58Z"/>
              </g>
              <g class="cls-23">
                <path d="M42.78,39.13c-.07-.12-.21-.39-.3-.57-.32,.17-.64,.32-.96,.47,.11,.23,.26,.56,.28,.65,.36-.19,.71-.39,.99-.55Z"/>
              </g>
              <g class="cls-23">
                <path d="M41.23,40.88c.07,.08,.13,.14,.17,.17,.26-.1,1.69-.87,2.35-1.33-.08-.11-.17-.22-.24-.33-.19,.33-2.27,1.49-2.28,1.49Z"/>
              </g>
              <g class="cls-23">
                <path d="M43.65,40.31l-1.61,.82s-.08,.04-.11,.06h0s.09,.9,.11,.97c0,0,0,0,0,0,.89-.61,1.68-.78,2.35-.71,0,0,0,0,0,0,.02,0-.64-1.11-.75-1.14Z"/>
              </g>
              <g class="cls-23">
                <path class="cls-13" d="M41.64,36.06s0,0,0,0c0,0,0,0,0,0,0,0,0,0,0,0Z"/>
              </g>
              <g class="cls-23">
                <path d="M45.23,38.79c-.99-.39-2.94-2.15-3.46-2.62,.11,.23,.23,.46,.36,.69,.24,.43,.52,.85,.83,1.22h0s0,0,0,0c.04,.05,.56,.74,1.18,1.58,0,0,0,0,0,0,0,0,0,0,0,0,.17,.23,.34,.47,.52,.7,.46-.08,2.19-.27,3.61,1.02,.04,.03,.06,.08,.06,.14,0,.3,.04,.77,.17,.9,.02,.02,.03,.02,.05,.02,.34-.02,.56-.34,.56-.35,.03-.04,.07-.07,.11-.08,.05,0,.09,0,.13,.03,.39,.27,.82,.48,1.03,.53-.2-.32-.67-1.05-1.15-1.63-.64-.78-2.86-1.69-4.01-2.14Z"/>
              </g>
              <g class="cls-15">
                <path class="cls-2" d="M16.91,25.22c.03,.17,1.16,1.42,1.66,1.78,.11,.08,.11,.02,.04-.12-.45-.55-.9-1.14-1.33-1.78-.03-.04-.04-.08-.03-.13,.1-.65,.11-1.32,.01-1.44-.11,0-.26,.1-.38,.21,.05,.05,.18,.23,.16,.48-.02,.29-.17,.84-.14,1Z"/>
              </g>
              <g class="cls-15">
                <path class="cls-2" d="M14.41,23.68c.12,.03,.41,.19,.44,.17,0,0,.05-.06,.1-.13-.05,0-.1-.02-.13-.05-.14-.15-.48-.42-.67-.32-.07,.03-.05,.38,.08,.84,.03,.03,.04,.04,.04,.04,0,0,.02-.58,.14-.55Z"/>
              </g>
              <g class="cls-15">
                <path class="cls-2" d="M17.54,23.33c.01-.06,0-.08-.08-.08,.03,.02,.05,.04,.08,.08Z"/>
              </g>
              <g class="cls-15">
                <path class="cls-2" d="M15.7,23.32c.1,.17,.48,.71,.5,.73,0,0,.06-.02,.13-.05,0-.01-.02-.03-.02-.04-.13-.39-.51-1.14-.8-1.14-.24,0-.35,.41-.39,.65,.11-.16,.2-.3,.2-.3,0,0,.27,0,.36,.16Z"/>
              </g>
              <g class="cls-15">
                <path class="cls-2" d="M20.91,42.87c.51-.7,1.9-1.05,1.9-1.05,0,0-.28-.06-.69-.04-.71,.12-1.28,.58-1.78,1.08-.06,.08-.72,.93-.39,2.51,.16-.06,.41-.08,.73,.06-.12-.25-.29-1.87,.22-2.57Z"/>
              </g>
              <g class="cls-15">
                <path class="cls-2" d="M20.37,46.15c.24,.01,.68,.53,.99,0,.31-.53-.08-1.3,.38-1.26,.46,.04,.84,.53,1.02,.45,.06-.03,.06-.1,.04-.2,0,0-.02,0-.03,0-.07,0-.14-.03-.18-.09,0,0-.45-.85-1.06-.68-.59,.16-.47,1.35-.47,1.36,0,.07-.02,.13-.08,.17-.06,.04-.13,.03-.19,0-.47-.32-.72-.19-.79-.14-.07,.19-.34,1.17,.51,2.57-.09-.45-.38-2.18-.14-2.17Z"/>
              </g>
              <g class="cls-15">
                <path class="cls-2" d="M45.66,43.31c.26,.62,.36,1.37,.39,1.69,.18-.04,.38-.03,.57,.07-.04-.84-.41-1.81-1.09-2.87-.3-.19-.62-.31-.94-.37,.02,.02,.73,.69,1.07,1.48Z"/>
              </g>
              <g class="cls-15">
                <path class="cls-2" d="M44.11,44.82c.07-.06,.96-.36,1.07-.03,.11,.33-.03,1.03,.31,1.09s.56-.06,.58,.04c.02,.1-.23,1.61-.4,2.3,0,.04-.02,.07-.02,.1,.64-1.12,.88-2.28,.94-2.62,.01-.06,.02-.12,.02-.17-.24-.34-.67-.12-.72-.09-.06,.03-.13,.03-.19-.01-.06-.04-.08-.11-.07-.18,0-.02,.12-.58-.36-.99-.07-.06-.17-.09-.29-.08-.23,.02-.5,.17-.73,.33-.1,.18-.17,.35-.13,.31Z"/>
              </g>
              <g class="cls-15">
                <path class="cls-2" d="M51.2,40.12c.34,.3,.48,.35,.47,.33-.3-.72-1.93-3.12-5.71-5.14-1.89-1.02-3.82-1.36-4.9-1.48,.1,.08,3.23,.97,5.2,2.21,1.97,1.24,4.6,3.77,4.94,4.08Z"/>
              </g>
            </g>
            <g>
              <path d="M25.2,50.9s-.09-.01-.13-.03c-.13-.07-.17-.23-.1-.36,1.07-1.92,.32-4.15,.07-4.79-.36-.91-.82-1.46-1.08-1.55-.17-.05-.31-.04-.44,.03-.36,.21-.51,.82-.51,.82-.03,.11-.11,.19-.22,.2-.11,.01-.21-.04-.27-.14,0,0-.42-.79-.96-.64-.44,.12-.44,.97-.41,1.26,.01,.1-.04,.2-.12,.25-.09,.05-.2,.05-.28,0-.49-.33-.69-.14-.7-.14h0s-.39-.36-.39-.36c.02-.02,.35-.37,.96-.16,.02-.48,.17-1.19,.8-1.36,.56-.15,.99,.17,1.26,.47,.12-.24,.31-.51,.58-.66,.26-.15,.55-.17,.86-.08,.57,.18,1.1,1.07,1.41,1.85,.28,.69,1.09,3.12-.09,5.24-.05,.09-.14,.13-.23,.13Z"/>
              <path d="M23.93,51.27c-.71,0-1.7-.28-2.82-1.46-2.02-2.13-1.67-3.78-1.54-4.18-.41-1.66,.18-2.68,.38-2.97,0-2.52,1.47-4.29,2.08-4.91-6.23-4.04-7.71-9.66-8.01-11.31v-.04c-.04-.1-.31-.38-.49-.58-.45-.48-.88-.93-.78-1.33,.03-.15,.13-.26,.26-.33,.21-.1,.5-.06,.76,.02-.13-.5-.18-1.06,.18-1.24,.28-.14,.58-.03,.81,.12,.11-.36,.34-.7,.75-.7,.5,0,.87,.63,1.06,1.07,.2-.18,.47-.37,.77-.32,.08,.01,.18,.05,.27,.17,.24,.33,.15,1.21,.08,1.66,4.37,6.34,10.17,8.43,10.23,8.45,.01,0,.02,0,.03,.01,5.51,2.77,12.07-.02,12.13-.05,.03-.01,.07-.02,.1-.02,.12,0,3.06,.02,5.97,1.59,3.88,2.08,5.69,4.61,5.96,5.51,.03,.1,.06,.25,0,.38-.11,.21-.33,.26-.56,.24,.12,.27,.21,.57,.16,.79-.03,.13-.1,.24-.21,.31-.18,.11-.38,.13-.56,.1,.02,.15,0,.32-.06,.48-.05,.12-.14,.22-.27,.26-.35,.11-.94-.22-1.32-.45-.15,.15-.4,.32-.73,.34-.14,0-.27-.04-.37-.14-.26-.25-.3-.81-.3-1.1-1.44-1.22-3.23-.82-3.25-.82-.14,.03-.28-.06-.31-.2-.03-.14,.05-.28,.2-.31,.09-.02,2.15-.48,3.81,1.02,.06,.05,.09,.13,.09,.2-.01,.35,.06,.74,.14,.83,.29-.02,.48-.3,.48-.31,.04-.06,.1-.1,.17-.11,.07-.01,.14,0,.2,.04,.38,.26,.83,.49,1.01,.51,.05-.22-.07-.48-.12-.57-.06-.11-.04-.25,.05-.33,.09-.08,.23-.09,.33-.01,.07,.05,.36,.23,.53,.15,.02-.14-.17-.59-.4-.95-.06-.1-.05-.23,.02-.32,.08-.09,.2-.11,.31-.06,.16,.07,.35,.13,.46,.15-.22-.65-1.85-3.08-5.69-5.14-2.59-1.4-5.27-1.52-5.67-1.53-.31,.13-1.88,.75-4.06,1.09-2.2,.34-5.46,.43-8.45-1.07-.18-.06-1.61-.6-3.57-1.88-1.88-1.24-4.62-3.43-6.96-6.85-.04-.06-.05-.12-.04-.19,.09-.56,.11-1.14,.05-1.33-.08,.02-.21,.11-.45,.36-.09,.1-.18,.2-.34,.16-.09-.02-.17-.09-.19-.18-.17-.49-.52-1.08-.71-1.08s-.29,.45-.31,.67c0,.1-.08,.19-.17,.23-.1,.03-.21,0-.28-.07-.15-.16-.42-.34-.54-.31-.05,.15,.06,.67,.23,1.12,.04,.1,.01,.21-.07,.29-.08,.07-.2,.09-.29,.04-.31-.15-.69-.25-.82-.23,.03,.17,.45,.61,.65,.83,.35,.37,.57,.61,.61,.83v.05c.31,1.62,1.78,7.21,8.07,11.14,.07,.04,.12,.12,.12,.2,0,.08-.03,.16-.09,.22-.02,.02-1.88,1.66-2.12,4.21,.78-.66,2.18-1.4,4.12-.03,2.15,1.51,3.02,5.84,1.97,7.51-.6,.96-1.48,1.56-2.41,1.66-.08,0-.17,.01-.26,.01Zm-3.52-8.35c-.07,.09-.75,1-.31,2.66,.02,.06,.01,.12-.01,.17-.03,.06-.62,1.57,1.41,3.7,.89,.94,1.78,1.37,2.64,1.28,.76-.08,1.5-.59,2.01-1.41,.84-1.34,.23-5.36-1.83-6.81-1.81-1.27-2.99-.51-3.91,.41Z"/>
              <path d="M42.5,51.08c-1.16,0-1.98-.85-2.38-1.54-3.51,1.44-7.04,1.42-9.41,1.15-2.62-.3-4.36-.96-4.44-.98-.14-.05-.2-.2-.15-.34,.05-.14,.2-.2,.34-.15,.07,.03,7.02,2.59,13.68-.25,.13-.06,.28,0,.34,.13,.04,.09,1.03,2.11,2.95,1.24,2.32-1.05,2.96-4.06,3.07-4.66,.18-1.04-.27-2.36-1.31-3.83-.8-1.13-2.04-2.78-2.45-3.33-5.49,2.95-10.88,2.83-14.45,2.2-3.91-.69-6.47-2.08-6.57-2.14-.13-.07-.17-.23-.1-.36,.07-.13,.23-.17,.36-.1,.03,.01,2.6,1.42,6.43,2.09,3.52,.62,8.86,.73,14.28-2.26,.11-.06,.26-.03,.34,.07,.02,.02,1.62,2.15,2.59,3.52,1.14,1.61,1.61,3.03,1.39,4.22-.11,.64-.8,3.88-3.37,5.04-.41,.19-.79,.26-1.15,.26Z"/>
              <path d="M41.47,35.51c.41,.9,.9,1.78,1.55,2.51,.23,.26-.15,.61-.39,.35-.56-.89-.9-1.87-1.16-2.87h0Z"/>
              <path d="M22.25,37.54c.58-.63,1.1-1.33,1.51-2.08,.13-.26,.25-.52,.35-.8-.1,.58-.31,1.13-.56,1.67-.26,.54-.54,1.05-.88,1.55-.08,.12-.25,.15-.37,.07-.13-.09-.15-.29-.04-.4h0Z"/>
              <path d="M23.65,41.92s-.05,0-.08,0c-.79-.06-2.74-1.46-2.96-1.62-.12-.09-.14-.25-.06-.37,.09-.12,.25-.14,.37-.06,.78,.57,2.2,1.49,2.69,1.53,.31,.02,.47-.27,.55-.48-1.14-.39-2.86-1.65-2.94-1.71-.12-.09-.14-.25-.06-.37,.09-.12,.25-.14,.37-.06,.02,.01,1.99,1.45,3.01,1.69,.13,.03,.22,.16,.2,.29-.06,.41-.36,1.15-1.08,1.15Z"/>
              <path d="M41.37,41.5c-.13,0-.36-.1-.94-.96-.05-.07-.06-.15-.03-.23,.03-.08,.09-.14,.17-.16,.96-.32,2.68-1.4,2.69-1.41,.12-.08,.28-.04,.36,.08,.08,.12,.04,.28-.08,.36-.07,.04-1.46,.92-2.48,1.34,.14,.19,.27,.35,.36,.43,.4-.17,1.89-.99,2.42-1.4,.12-.09,.28-.07,.37,.05,.09,.12,.07,.28-.05,.37-.55,.42-2.46,1.49-2.73,1.53-.02,0-.04,0-.06,0Z"/>
              <path d="M40.24,49.47c-.11,0-.22-.08-.25-.19-.05-.17-1.18-4.24,1.06-6.42,2.06-2.01,3.72-1.66,4.75-1.01,.12,.08,.16,.24,.08,.36-.08,.12-.24,.16-.36,.08-1.26-.79-2.64-.48-4.1,.94-2.01,1.96-.93,5.86-.92,5.9,.04,.14-.04,.28-.18,.32-.02,0-.05,.01-.07,.01Z"/>
              <path d="M40.14,49.04s-.03,0-.05,0c-.14-.03-.23-.17-.21-.31,.09-.42,.87-4.17,2.15-4.93,.4-.23,.76-.29,1.07-.16,.27,.11,.49,.34,.65,.7,.26-.22,.63-.45,.95-.55,.42-.12,.68,0,.83,.14,.38,.32,.5,.7,.52,.99,.33-.05,.71,.03,.95,.43,.07,.13,.03,.29-.09,.36-.13,.07-.29,.03-.36-.09-.2-.34-.59-.12-.63-.1-.09,.05-.2,.04-.29-.02-.08-.06-.12-.17-.1-.27,0-.02,.1-.53-.33-.9-.32-.27-1.17,.42-1.35,.63-.05,.07-.13,.12-.22,.11-.2,0-.25-.18-.26-.24-.11-.39-.27-.63-.46-.71-.16-.06-.36-.02-.61,.13-.92,.54-1.69,3.49-1.9,4.58-.03,.12-.13,.21-.26,.21Zm3.75-4.15h0s0,0,0,0Zm0,0s0,0,0,0c0,0,0,0,0,0Z"/>
            </g>
          </g>
        </g>
      </g>
    </g>
  </g>
</svg>