<?xml version="1.0" encoding="UTF-8"?>
<svg xmlns="http://www.w3.org/2000/svg" xmlns:xlink="http://www.w3.org/1999/xlink" viewBox="0 0 64 64">
  <defs>
    <style>
      .cls-1 {
        fill: url(#linear-gradient-2);
      }

      .cls-2, .cls-3 {
        fill: #fff;
      }

      .cls-4 {
        fill: #ff5c64;
      }

      .cls-5, .cls-3, .cls-6 {
        opacity: .5;
      }

      .cls-7 {
        fill: #8c8587;
      }

      .cls-7, .cls-8, .cls-9, .cls-6 {
        mix-blend-mode: overlay;
      }

      .cls-10 {
        fill: #ffb339;
      }

      .cls-11 {
        isolation: isolate;
      }

      .cls-12 {
        opacity: .2;
      }

      .cls-13 {
        fill: #d3294a;
      }

      .cls-14 {
        fill: #ffcf36;
      }

      .cls-15 {
        fill: #b8b4b1;
      }

      .cls-16, .cls-17 {
        fill: #2b2829;
      }

      .cls-16, .cls-18 {
        mix-blend-mode: screen;
      }

      .cls-19 {
        fill: #dcc2a7;
      }

      .cls-20 {
        fill: #8e8d8d;
      }

      .cls-21 {
        opacity: .3;
      }

      .cls-8 {
        fill: #8c9399;
      }

      .cls-22 {
        mix-blend-mode: multiply;
      }

      .cls-22, .cls-6 {
        fill: #88b6e4;
      }

      .cls-23 {
        opacity: .7;
      }

      .cls-24 {
        opacity: .45;
      }

      .cls-25 {
        fill: #1d1d1d;
      }

      .cls-26 {
        fill: #ea344f;
      }

      .cls-27 {
        fill: #000072;
      }

      .cls-28 {
        fill: #e57700;
      }

      .cls-29 {
        fill: #e8e8e8;
      }

      .cls-30 {
        opacity: .3;
      }

      .cls-9 {
        fill: #8c9499;
      }

      .cls-31 {
        fill: #777270;
      }

      .cls-32 {
        fill: url(#linear-gradient);
      }

      .cls-33 {
        fill: #f27e80;
      }

      .cls-34 {
        fill: #f7486a;
      }

      .cls-35 {
        fill: #666261;
      }

      .cls-36 {
        fill: #fc7e81;
      }
    </style>
    <linearGradient id="linear-gradient" x1="64" y1="34.03" x2="5.45" y2="34.03" gradientUnits="userSpaceOnUse">
      <stop offset="0" stop-color="#cf965b"/>
      <stop offset=".25" stop-color="#ca9257"/>
      <stop offset=".51" stop-color="#be864c"/>
      <stop offset=".78" stop-color="#a9733a"/>
      <stop offset="1" stop-color="#925d26"/>
    </linearGradient>
    <linearGradient id="linear-gradient-2" x1="61.28" y1="31.49" x2="1.36" y2="31.49" gradientUnits="userSpaceOnUse">
      <stop offset="0" stop-color="#e8b886"/>
      <stop offset=".25" stop-color="#e3b482"/>
      <stop offset=".5" stop-color="#d7a877"/>
      <stop offset=".76" stop-color="#c29464"/>
      <stop offset="1" stop-color="#a97c4e"/>
    </linearGradient>
  </defs>
  <g class="cls-11">
    <g id="_Слой_2" data-name="Слой 2">
      <g id="_Слой_1-2" data-name="Слой 1">
        <g>
          <g>
            <path class="cls-32" d="M60.49,6.68c-1.75-1.6-4.41-2.62-7.38-2.62H14.98c-5.26,0-9.53,3.19-9.53,7.11V55.87c0,2.22,1.37,4.2,3.51,5.51,1.75,1.6,4.41,2.62,7.38,2.62H54.47c5.26,0,9.53-3.19,9.53-7.11V12.19c0-2.22-1.37-4.2-3.51-5.51Z"/>
            <path class="cls-1" d="M57.77,4.65c-.41-.37-.86-.71-1.36-1.02-1.75-1.6-4.41-2.62-7.38-2.62H10.89C5.64,1.02,1.36,4.21,1.36,8.13V52.83c0,2.22,1.37,4.2,3.51,5.51,.41,.37,.86,.71,1.36,1.02,1.75,1.6,4.41,2.62,7.38,2.62H51.74c5.26,0,9.53-3.19,9.53-7.11V10.16c0-2.22-1.37-4.2-3.51-5.51Z"/>
            <path class="cls-19" d="M47.66,0H9.53C4.28,0,0,3.19,0,7.11V51.81c0,3.92,4.28,7.11,9.53,7.11H47.66c5.26,0,9.53-3.19,9.53-7.11V7.11c0-3.92-4.28-7.11-9.53-7.11Z"/>
          </g>
          <path class="cls-9" d="M5.89,14.33c-.01-2.85,.17-6.06,2.96-8,2.12-1.47,5.21-1.81,8.09-1.99,6.68-.42,13.42-.36,20.09,.18,3.3,.26,6.79,.71,9.28,2.36,3.69,2.45,3.93,6.61,3.9,10.29-.08,9.24-.15,18.48-.23,27.72-.02,2.2-.08,4.51-1.54,6.42-1.54,2-4.45,3.25-7.46,3.8-3.01,.55-6.15,.48-9.24,.41-5.15-.12-10.31-.24-15.43-.71-2.79-.26-9.22-.18-10.19-2.65-.66-1.68-.07-4.15-.07-5.9,0-2.02-.02-4.03-.03-6.05-.02-4.03-.04-8.06-.06-12.1-.02-4.59-.04-9.18-.07-13.78Z"/>
          <path class="cls-8" d="M20.65,20.31c-3.25-.39-6.54-1.19-8.94-2.87-2.39-1.69-3.67-4.43-2.38-6.69,.89-1.57,2.87-2.69,5.01-3.3,2.14-.61,4.45-.77,6.74-.89,5.74-.3,11.52-.39,17.22,.17,2.22,.22,4.55,.57,6.21,1.7,2.93,1.99,2.55,5.66,.4,8.14-5.33,6.17-16.02,4.75-24.26,3.75Z"/>
          <path class="cls-16" d="M9.75,46.11c-.57-1.77-.49-3.61-.4-5.43,.37-7.55,.74-15.09,1.11-22.64,.14-2.75,.39-5.74,2.81-7.82,2.2-1.89,5.7-2.58,9.03-2.93,4.04-.42,8.14-.47,12.2-.14,3.7,.3,7.69,1.06,9.9,3.3,1.87,1.9,2.03,4.41,2.12,6.77,.33,9.07,.66,18.2-1.13,27.18-.4,1.99-1,4.12-2.97,5.5-2.25,1.58-5.63,1.75-8.72,1.75-5.06,0-10.12-.25-15.13-.73-4.65-.45-7.58-.99-8.81-4.8Z"/>
          <path class="cls-22" d="M47.66,1.02h-1.63c4.51,0,8.17,2.73,8.17,6.1V51.81c0,3.37-3.66,6.1-8.17,6.1h1.63c4.51,0,8.17-2.73,8.17-6.1V7.11c0-3.37-3.66-6.1-8.17-6.1Z"/>
          <path class="cls-6" d="M44.83,56.21c2.15-.26,4.29-1.07,5.39-2.47,.86-1.09,1-2.4,1.05-3.66,.05-1.24,.02-2.47-.08-3.71-.07-.81-.31-1.78-1.32-2.08-.75-.23-1.65,.04-2.16,.52-.51,.47-.69,1.1-.74,1.7-.11,1.25,.25,2.52-.08,3.75-.39,1.42-1.68,2.63-3.23,3.51-1.13,.64-4.12,1.25-4.5,2.21,1.43,.58,4.04,.42,5.67,.23Z"/>
          <path class="cls-7" d="M3.88,2.71c-1.55,1.11-2.52,2.67-2.52,4.4v26.08c12.35-3.44,32.73-4.39,54.47,14.33v-14.97C26.86,28.05,11.39,13.17,3.88,2.71Z"/>
          <path class="cls-3" d="M3.58,9.23c.26-1.79,1.27-3.6,3.21-4.67,2.66-1.47,6.31-1.25,9.61-.96,1.02,.09,2.32,.39,2.36,1.15,.03,.67-.97,1.08-1.84,1.21-2.2,.34-4.63-.04-6.59,.77-1.42,.58-2.33,1.69-2.8,2.85s-.56,2.38-.73,3.58c-.07,.46-.15,.93-.44,1.34-1.08,1.49-2.05,.48-2.43-.37-.6-1.35-.53-3.5-.32-4.91Z"/>
          <g class="cls-18">
            <path class="cls-17" d="M36.44,9.78c.84,1.55-.18,3.32-2.26,3.94-2.08,.62-4.45-.13-5.29-1.69-.84-1.55,.18-3.32,2.26-3.94,2.08-.62,4.45,.13,5.29,1.69Z"/>
            <path class="cls-17" d="M43.37,11.71c.45,.84-.09,1.78-1.21,2.12-1.12,.34-2.39-.07-2.84-.91-.45-.84,.09-1.78,1.21-2.12,1.12-.34,2.39,.07,2.84,.91Z"/>
            <path class="cls-17" d="M40.11,16.13c.37,.7-.08,1.49-1.01,1.77-.93,.28-1.99-.06-2.37-.76-.37-.7,.08-1.49,1.01-1.77,.93-.28,1.99,.06,2.37,.76Z"/>
          </g>
          <g class="cls-18">
            <path class="cls-17" d="M23.64,45.38c.8,1.49-.17,3.17-2.16,3.77-1.99,.6-4.25-.13-5.05-1.61-.8-1.49,.17-3.17,2.16-3.77,1.99-.6,4.25,.13,5.05,1.61Z"/>
            <path class="cls-17" d="M20.79,40.39c.22,.41-.05,.87-.59,1.03-.54,.16-1.16-.03-1.38-.44-.22-.41,.05-.87,.59-1.03,.54-.16,1.16,.03,1.38,.44Z"/>
            <path class="cls-17" d="M15.3,41.5c.45,.84-.09,1.78-1.21,2.12-1.12,.34-2.39-.07-2.84-.91-.45-.84,.09-1.78,1.21-2.12,1.12-.34,2.39,.07,2.84,.91Z"/>
          </g>
          <g class="cls-21">
            <ellipse class="cls-22" cx="47.45" cy="37.02" rx="3.85" ry="2.87"/>
            <path class="cls-22" d="M53.92,29.6c.58,1.08-.12,2.3-1.57,2.74-1.45,.43-3.09-.09-3.67-1.17-.58-1.08,.12-2.3,1.57-2.74,1.45-.43,3.09,.09,3.67,1.17Z"/>
            <path class="cls-22" d="M45.56,30.99c.37,.7-.08,1.49-1.01,1.77-.93,.28-1.99-.06-2.37-.75-.37-.7,.08-1.49,1.01-1.77,.93-.28,1.99,.06,2.37,.76Z"/>
            <path class="cls-22" d="M10.65,25.55c.41,.75-.09,1.61-1.1,1.92-1.01,.3-2.16-.06-2.57-.82-.41-.75,.09-1.61,1.1-1.92,1.01-.3,2.16,.06,2.57,.82Z"/>
            <path class="cls-22" d="M11.29,21.09c.21,.39-.04,.84-.57,1-.53,.16-1.13-.03-1.34-.43-.21-.39,.04-.84,.57-1,.53-.16,1.13,.03,1.34,.43Z"/>
            <path class="cls-22" d="M6.59,20.15c.34,.63-.07,1.34-.91,1.59-.84,.25-1.79-.05-2.13-.68-.34-.63,.07-1.34,.91-1.59,.84-.25,1.79,.05,2.13,.68Z"/>
          </g>
        </g>
      </g>
      <g id="_Слой_10" data-name="Слой 10">
        <g id="_Слой_11" data-name="Слой 11">
          <g>
            <g>
              <path class="cls-15" d="M22.34,34.48s-2.01,5.18-5.15,4.11c-1.55-.53-2.56-1.61-3.19-2.62-.75-1.2-.98-2.3-.98-2.3l2.01-1.32,1.21-.79,6.09,2.93Z"/>
              <path class="cls-20" d="M22.34,34.48s-2.01,5.18-5.15,4.11c-1.55-.53-2.56-1.61-3.19-2.62,.72-.25,1.92-.81,1.95-1.83,.03-1.13-1.13-.92-.91-1.79l1.21-.79,6.09,2.93Z"/>
              <path class="cls-27" d="M18.06,39.02c-.31,0-.63-.05-.96-.17-3.51-1.21-4.32-4.98-4.35-5.14l-.04-.19,3.52-2.3,6.46,3.11-.09,.24c-.08,.2-1.76,4.44-4.54,4.44Zm-4.72-5.23c.2,.75,1.16,3.58,3.94,4.54,2.48,.85,4.27-2.74,4.7-3.71l-5.71-2.75-2.93,1.92Zm-.32-.12h0Z"/>
              <path class="cls-15" d="M52.56,28.97c-.32,.39-.67,.79-1.07,1.19-.33,.34-1.2,1.19-2.06,2.09-.48,.5-.95,1.01-1.32,1.46-.33,.4-.59,.75-.69,.98-.91,2.08-1.35,3.54-1.63,4.75-.53,2.26-.49,3.56-1.92,6.16,0,.01-.02,.03-.02,.04-1.2,2.17-2.75,3.31-4.21,3.9-2.39,.96-4.55,.42-4.55,.42,0,0-4.9-1.04-2.13-2.71,.74-.45,1.18-1.62,1.47-3.22,.34-1.86,.49-4.29,.71-6.81,.12-1.37,.26-2.77,.46-4.12,.3-1.96,.73-3.81,1.43-5.31,.01-.03,.03-.05,.04-.08,.81-1.71,1.95-2.96,3.26-3.87,.04-.02,.07-.05,.11-.08,.42-.28,.85-.53,1.3-.75,1.87-.91,3.95-1.27,5.86-1.33,3.23-.1,5.96,.64,6.39,1.02,1.15,.99,.83,3.48-1.42,6.25"/>
              <path class="cls-20" d="M52.56,28.97c-.32,.39-.67,.79-1.07,1.19-.33,.34-1.2,1.19-2.06,2.09-.48,.5-.95,1.01-1.32,1.46-.34,.4-.59,.75-.69,.98-.91,2.08-1.35,3.54-1.63,4.74-.53,2.26-.49,3.56-1.92,6.16,0,.01-.02,.03-.02,.04-1.2,2.17-2.75,3.31-4.21,3.9-2.39,.96-4.55,.42-4.55,.42l-.15-11.62s7.61,4.68,9.81-.89c.45-1.15,.93-2.61,1.99-4.6,.12-.23,.4-.55,.76-.93,.4-.42,.91-.89,1.42-1.35,.92-.83,1.86-1.61,2.21-1.92,.43-.37,.81-.74,1.16-1.1,1.25-1.32,2-2.6,2.29-3.68,.21,1.25-.41,3.1-2.03,5.1"/>
              <path class="cls-35" d="M43.88,45.6s-.02,.03-.02,.04c-1.2,2.17-2.75,3.31-4.21,3.9-2.39,.95-4.55,.42-4.55,.42l-.07-5.42-.07-5.1v-1.1s.02,.02,.09,.06c.5,.29,2.81,1.57,5.12,1.76,1.82,1.67,2.98,3.66,3.72,5.44"/>
              <path class="cls-35" d="M47.03,32.46c.4,.41,.76,.83,1.09,1.25-.08,.1-.16,.2-.24,.29-.02,.02-.04,.05-.05,.07-.09,.11-.16,.22-.23,.32-.08,.12-.14,.22-.18,.31-.91,2.08-1.35,3.54-1.63,4.75-.42-.42-.89-.84-1.4-1.24,.13-.22,.25-.47,.36-.74,.45-1.15,.93-2.61,1.99-4.61,.06-.11,.15-.24,.28-.39"/>
              <path class="cls-35" d="M54.35,25.9c-.08,.23-.17,.47-.29,.72-.04,.1-.09,.2-.14,.3-.03,.05-.05,.1-.08,.15-.11,.2-.23,.41-.36,.62-.03,.05-.07,.1-.1,.16-.1,.16-.21,.32-.33,.48-.15,.21-.32,.43-.5,.65-.16,.2-.33,.39-.51,.59-.09,.1-.18,.2-.27,.3-.09,.1-.19,.2-.29,.3-.05,.05-.12,.12-.19,.19-.02,.02-.03,.03-.05,.05-.42,.42-1.12,1.12-1.82,1.85-.14-.5-.36-1.01-.65-1.53,.05-.05,.1-.09,.16-.14,.92-.83,1.86-1.61,2.21-1.92,.43-.37,.81-.74,1.16-1.1,1.25-1.32,1.99-2.59,2.29-3.68,0,0,0,0,0,0,.1,.57,.02,1.26-.24,2.03"/>
              <path class="cls-31" d="M52.56,28.97c-.32,.39-.67,.79-1.07,1.19-.33,.34-1.2,1.19-2.06,2.09-.84-2.94-4.34-6.41-9.11-8.4,.04-.02,.07-.05,.11-.08,.32-.21,.76-.46,1.3-.75,1.87-.91,3.95-1.27,5.86-1.33,3.23-.1,5.96,.64,6.39,1.02,1.15,.99,.83,3.48-1.42,6.25"/>
              <path class="cls-31" d="M47.43,34.69c-.91,2.08-1.35,3.54-1.63,4.75-2.66-2.66-7.08-4.93-10.19-6.33,.3-1.96,.73-3.81,1.43-5.31,.69,.05,1.47,.17,2.35,.35,4.12,.87,6.92,3.27,8.73,5.55-.33,.4-.59,.75-.69,.98"/>
              <path class="cls-31" d="M43.88,45.6s-.02,.03-.02,.04c-1.2,2.17-2.75,3.31-4.21,3.9-1.34-1.97-3.31-3.89-5.21-5.51,.34-1.86,.49-4.29,.71-6.81,.44,.16,.91,.34,1.41,.57,4.04,1.81,6.19,5.05,7.32,7.8"/>
              <path class="cls-35" d="M54.35,25.9c-.08,.23-.18,.47-.29,.72-.05,.1-.09,.2-.14,.3-.03,.05-.05,.1-.08,.15-.11,.2-.23,.41-.36,.62-.03,.05-.07,.1-.1,.16-.1,.16-.21,.32-.33,.48-.15,.21-.32,.43-.5,.65-.16,.2-.33,.39-.51,.59-.09,.1-.18,.2-.27,.3-.09,.1-.19,.2-.29,.3-.05,.05-.12,.12-.19,.19-.02,.02-.03,.03-.05,.05-.42,.42-1.12,1.12-1.82,1.85-.14-.5-.36-1.01-.65-1.53,.05-.05,.1-.09,.16-.14,.92-.83,1.86-1.61,2.21-1.92,.43-.37,.81-.74,1.16-1.1,1.25-1.32,1.99-2.59,2.29-3.68,.1,.57,.02,1.26-.24,2.03"/>
              <path class="cls-35" d="M48.12,33.7c-.08,.1-.16,.2-.24,.29-.02,.02-.04,.05-.05,.07-.09,.11-.16,.22-.23,.32-.08,.12-.14,.22-.18,.31-.91,2.08-1.35,3.54-1.63,4.75-.42-.42-.89-.84-1.4-1.24,.13-.22,.25-.47,.36-.74,.45-1.15,.93-2.61,1.99-4.61,.06-.11,.15-.24,.28-.39,.4,.41,.76,.83,1.09,1.25"/>
              <path class="cls-35" d="M43.88,45.6s-.02,.03-.02,.04c-1.2,2.17-2.75,3.31-4.21,3.9-1.2-1.76-2.91-3.5-4.62-5-.2-.17-.39-.34-.59-.51,.24-1.3,.38-2.89,.52-4.59,.03-.34,.06-.69,.09-1.04,.5,.29,2.81,1.57,5.12,1.76,1.82,1.67,2.98,3.66,3.72,5.44"/>
              <g class="cls-24">
                <path class="cls-2" d="M50.23,24.08c.1,.89-1.22,1.77-2.94,1.96-1.72,.19-3.19-.39-3.29-1.28-.05-.46,.27-.91,.83-1.27-1.28,.33-2.54,.86-3.67,1.64-1.31,.91-2.45,2.16-3.26,3.87-.01,.03-.02,.05-.04,.08-.7,1.5-1.13,3.35-1.43,5.31-.2,1.35-.35,2.75-.46,4.12-.22,2.52-.37,4.95-.71,6.81-.29,1.6-.72,2.78-1.47,3.22-.42,.25-.66,.49-.77,.71-.9-.47-1.47-1.15-.06-2,.74-.45,1.18-1.62,1.47-3.22,.34-1.86,.49-4.29,.71-6.81,.12-1.37,.26-2.77,.47-4.12,.3-1.96,.73-3.81,1.43-5.31,.01-.03,.02-.05,.04-.08,.81-1.71,1.95-2.96,3.26-3.87,2.19-1.52,4.87-2.07,7.27-2.15,3.23-.1,5.96,.65,6.39,1.02,.32,.28,.53,.67,.61,1.15-.76-.36-2.96-.89-5.58-.89,.69,.23,1.15,.62,1.21,1.11"/>
              </g>
              <path class="cls-27" d="M36.6,50.39c-.9,0-1.5-.14-1.57-.16-.51-.11-2.99-.69-3.18-1.83-.08-.48,.25-.95,.97-1.39,1.3-.78,1.6-4.4,1.91-8.22,.31-3.85,.67-8.21,2.09-11.2,1.47-3.09,4.09-5.05,7.8-5.83,4.43-.93,8.93,.2,9.55,.74,.46,.39,.71,.99,.74,1.72,.07,1.73-1.14,4.02-3.22,6.13-.08,.08-.18,.18-.31,.31-.91,.91-3.34,3.33-3.7,4.13-1.31,2.99-1.64,4.68-1.93,6.18-.29,1.48-.53,2.75-1.66,4.79-1.68,3.04-4.05,4.09-5.75,4.44-.65,.13-1.24,.18-1.75,.18Zm-1.44-.7s1.39,.33,3.1-.03c2.29-.48,4.09-1.87,5.35-4.16,1.08-1.96,1.31-3.14,1.6-4.63,.29-1.53,.63-3.25,1.96-6.3,.35-.79,2.12-2.62,3.81-4.3,.13-.13,.23-.23,.31-.31,1.98-2,3.12-4.13,3.06-5.71-.02-.57-.21-1.03-.55-1.32-.19-.16-1.28-.56-3.09-.79-1.44-.19-3.66-.31-5.98,.18-3.53,.74-6.02,2.6-7.41,5.52-1.37,2.89-1.73,7.2-2.04,11-.34,4.15-.63,7.73-2.18,8.65-.5,.3-.75,.59-.71,.82,.09,.57,1.67,1.15,2.75,1.38h0Z"/>
              <path class="cls-27" d="M36.6,50.39c-.93,0-1.54-.15-1.58-.16-.49-.1-2.98-.69-3.18-1.83-.08-.48,.25-.95,.97-1.39,1.3-.78,1.59-4.4,1.91-8.22,.31-3.85,.67-8.21,2.09-11.2,1.47-3.09,4.09-5.05,7.8-5.83,4.43-.93,8.93,.21,9.55,.74,.46,.39,.71,.99,.74,1.72,.07,1.73-1.14,4.02-3.22,6.13h0c-.08,.08-.18,.18-.3,.3-.92,.91-3.35,3.34-3.7,4.14-1.31,2.99-1.64,4.68-1.92,6.18-.29,1.48-.53,2.75-1.66,4.8-1.68,3.04-4.05,4.09-5.75,4.44-.65,.13-1.24,.18-1.75,.18Zm11.59-28.42c-1.06,0-2.24,.09-3.46,.34-3.53,.74-6.03,2.6-7.42,5.52-1.38,2.89-1.73,7.2-2.04,11.01-.34,4.15-.63,7.73-2.17,8.65-.5,.3-.75,.59-.71,.82,.1,.57,1.67,1.15,2.75,1.38,.02,0,1.39,.33,3.11-.03,2.29-.48,4.09-1.87,5.35-4.16,1.08-1.96,1.31-3.14,1.6-4.63,.29-1.53,.63-3.25,1.96-6.3,.35-.79,2.13-2.63,3.82-4.31,.12-.12,.23-.23,.3-.3h0c1.98-2,3.12-4.13,3.06-5.71-.02-.57-.21-1.03-.55-1.32-.19-.16-1.28-.56-3.09-.79-.69-.09-1.55-.16-2.52-.16Zm3.3,8.19h0Z"/>
              <path class="cls-15" d="M15.25,51.75s2.32-.36,6.24,0c0,0-1.58-7.14-2.06-7.88-.49-.74-3.53-1.8-4.57,1.95-.94,3.42,.39,5.94,.39,5.94"/>
              <path class="cls-27" d="M15.1,52.05l-.09-.18c-.06-.11-1.37-2.65-.41-6.14,.58-2.1,1.74-2.71,2.62-2.85,1.13-.18,2.15,.36,2.45,.82,.5,.76,1.94,7.24,2.1,7.97l.08,.37-.38-.03c-3.83-.35-6.15,0-6.17,0l-.2,.03Zm2.55-8.64c-.12,0-.24,0-.36,.03-1.02,.16-1.77,1.01-2.17,2.44-.76,2.77,.02,4.95,.29,5.56,.63-.08,2.64-.26,5.72-.01-.64-2.85-1.62-6.93-1.94-7.42-.16-.24-.79-.6-1.54-.6Z"/>
              <path class="cls-20" d="M21.49,51.74c-3.92-.35-6.24,0-6.24,0,0,0-.94-1.77-.68-4.36,.16,1.59,.68,2.58,.68,2.58,0,0,2.15-.34,5.82-.04,.24,1.05,.41,1.82,.41,1.82"/>
              <path class="cls-27" d="M15.1,52.05l-.09-.18c-.06-.11-1.37-2.65-.41-6.14,.58-2.1,1.74-2.71,2.62-2.85,1.13-.18,2.15,.36,2.45,.82,.5,.76,1.94,7.24,2.1,7.97l.08,.37-.38-.03c-3.83-.35-6.15,0-6.17,0l-.2,.03Zm2.55-8.64c-.12,0-.24,0-.36,.03-1.02,.16-1.77,1.01-2.17,2.44-.76,2.77,.02,4.95,.29,5.56,.63-.08,2.64-.26,5.72-.01-.64-2.85-1.62-6.93-1.94-7.42-.16-.24-.79-.6-1.54-.6Z"/>
              <path class="cls-15" d="M35.36,52.03c-2.53,.33-1.65,.42-3.97,.29-.78-.04-1.62-.14-2.49-.24-1.3-.15-2.67-.3-3.98-.3-3.38,0-5.31,.11-6.64-1.13-.1-.09-.19-.19-.28-.29-.76-.87-1.01-2.08-1.01-3.44,0-2.37,1.45-5.03,2.17-6.91,.47-1.24,.7-2.44,.79-3.5,.21-2.59-.41-4.45-.41-4.45-2.02-4.3,10.89-.86,12.48,1.15,.3,.38,.79,1.14,1.36,2.15,2.43,4.31,6.2,13.16,2,16.67"/>
              <path class="cls-20" d="M30.46,50.23c0,.71-.59,1.37-1.56,1.86-1.3-.15-2.67-.3-3.98-.3-3.38,0-5.31,.11-6.64-1.13-.05-.14-.07-.28-.07-.43,0-1.54,2.74-2.79,6.13-2.79s6.13,1.25,6.13,2.79"/>
              <path class="cls-20" d="M25.41,42.07l5.79,.13s.11,1.18,1.72,1.93c-.81,1.67-9.94,2.67-9.94,2.67l2.43-4.73Z"/>
              <path class="cls-20" d="M33.36,35.36c-1.87,1.13-4.79,1.86-8.07,1.86-1.97,0-3.8-.26-5.36-.72,.21-2.59-.41-4.45-.41-4.45-2.02-4.3,10.89-.86,12.48,1.15,.3,.38,.79,1.14,1.36,2.15"/>
              <path class="cls-27" d="M32.76,52.65c-.3,0-.71-.02-1.38-.06-.81-.04-1.65-.14-2.55-.24-1.29-.15-2.62-.3-3.91-.3-.26,0-.51,0-.75,0-3.16,0-5.06,.01-6.39-1.52-.73-.84-1.08-2.02-1.08-3.62,0-1.87,.89-3.94,1.6-5.59,.22-.51,.42-.99,.59-1.42,1.51-3.98,.45-7.51,.37-7.75-.55-1.2,.02-1.78,.41-2.02,1.55-.95,5.48-.04,6.65,.26,2.39,.62,5.14,1.67,5.89,2.64,.85,1.09,2.98,4.73,4.26,8.63,1.65,5.02,1.33,8.68-.95,10.57l-.06,.05h-.08c-.79,.11-1.24,.19-1.56,.25-.44,.08-.66,.11-1.08,.11Zm-7.84-1.15c1.31,0,2.66,.15,3.97,.3,.89,.1,1.73,.2,2.52,.24,1.56,.08,1.64,.07,2.33-.05,.32-.06,.76-.13,1.51-.23,2.56-2.22,1.81-6.61,.71-9.92-1.25-3.78-3.37-7.43-4.17-8.46-.57-.72-2.92-1.75-5.6-2.44-2.94-.76-5.32-.88-6.22-.33-.27,.17-.58,.48-.19,1.33v.03c.06,.15,1.27,3.84-.37,8.14-.17,.45-.38,.93-.6,1.44-.73,1.69-1.55,3.62-1.55,5.37,0,1.46,.31,2.53,.94,3.26,1.16,1.34,2.87,1.33,5.97,1.32,.24,0,.49,0,.75,0Zm10.44,.52h0Z"/>
              <path class="cls-2" d="M28.82,52.03c-.03-.08-.06-.16-.09-.25,.03,.09,.05,.17,.09,.25"/>
              <path class="cls-36" d="M28.51,50.36c-.17,.87,.09,1.66,.57,1.75,.48,.09,1-.54,1.17-1.42,.17-.87-.09-1.66-.57-1.75-.48-.09-1,.54-1.17,1.42"/>
              <polyline class="cls-25" points="30.85 36.49 30.85 36.53 30.85 36.49 30.85 36.49"/>
              <polygon class="cls-25" points="32.55 36.53 32.55 36.53 32.55 36.49 32.55 36.53 32.55 36.53"/>
              <path class="cls-15" d="M35.36,52.03c-1.2,1-3.22,1.03-4.88,.96h0s0,0,0,0c-.02,0-.04-.04-.07-.09,0-.01-.01-.02-.02-.04-.02-.04-.04-.1-.06-.16,0-.01,0-.02-.01-.03-.02-.07-.05-.15-.07-.23,0-.02-.01-.04-.02-.06-.02-.07-.04-.14-.06-.22,0-.02-.01-.05-.02-.07-.01-.05-.02-.09-.04-.14,0-.02,0-.03-.01-.05-.03-.13-.06-.26-.1-.4,0-.02-.01-.05-.02-.07-.04-.18-.09-.38-.13-.57,0-.04-.02-.07-.02-.1,0-.02,0-.04-.01-.06-.01-.05-.02-.1-.03-.15-.01-.05-.02-.11-.04-.16-.01-.05-.02-.1-.03-.15,0-.02,0-.03-.01-.05-.02-.1-.04-.2-.06-.3,0,0,0,0,0,0,0-.03-.01-.05-.02-.08,0-.04-.01-.07-.02-.11,0-.04-.02-.08-.03-.12,0,0,0,0,0-.01-.01-.06-.02-.12-.04-.18,0-.03-.01-.06-.02-.08,0-.01,0-.03,0-.04,0-.03-.01-.05-.02-.08,0-.04-.02-.08-.02-.11,0-.04-.01-.07-.02-.1,0-.03-.01-.06-.02-.09-.04-.22-.07-.35-.07-.35-.51-3.97,2.69-5.58,4.3-3.84l1.94-4.59c.86,2.19,1.5,4.74,1.52,7,.02,2.05-.47,3.86-1.77,4.95"/>
              <path class="cls-20" d="M35.36,52.03c-1.2,1-3.22,1.03-4.88,.96h0s0,0,0,0c-.02,0-.04-.04-.07-.09,0-.01-.01-.02-.02-.04-.02-.04-.04-.1-.06-.16,0-.01,0-.02-.01-.03-.02-.07-.05-.15-.07-.23,0-.02-.01-.04-.02-.06-.02-.07-.04-.14-.06-.22,0-.02-.01-.05-.02-.07-.01-.05-.02-.09-.04-.14,0-.02,0-.03-.01-.05-.03-.13-.06-.26-.1-.4,0-.02-.01-.05-.02-.07-.04-.18-.09-.38-.13-.57,0-.04-.02-.07-.02-.1,0-.02,0-.04-.01-.06-.01-.05-.02-.1-.03-.15-.01-.05-.02-.11-.04-.16-.01-.05-.02-.1-.03-.15,0-.02,0-.03-.01-.05-.02-.1-.04-.2-.06-.3,0,0,0,0,0,0,0-.03-.01-.05-.02-.08,0-.04-.01-.07-.02-.11,0-.04-.02-.08-.03-.12,0,0,0,0,0-.01-.01-.06-.02-.12-.04-.18,0-.03-.01-.06-.02-.08,0-.01,0-.03,0-.04,0-.03-.01-.05-.02-.08,0-.04-.01-.08-.02-.11,0-.04-.01-.07-.02-.1,0-.03-.01-.06-.02-.09,.88,.01,1.96,0,1.96,0,0,0,.75,1.89,3.16,1.52,1.79-.28,2.25-1.99,2.57-3.31,.02,2.05-.47,3.86-1.77,4.95"/>
              <path class="cls-27" d="M35.88,39.98c.46,1.18,.84,2.39,1.11,3.63,.27,1.24,.45,2.51,.43,3.79-.01,.64-.07,1.29-.22,1.92-.15,.63-.37,1.26-.72,1.83-.18,.28-.38,.55-.62,.79-.12,.12-.24,.23-.37,.34-.13,.11-.28,.2-.42,.29-.59,.34-1.24,.51-1.88,.61-.64,.1-1.28,.12-1.92,.11-.16,0-.32,0-.48-.01h-.24s-.06-.01-.06-.01h-.01s0,0,0,0c.01,0-.03,0-.07,0-.03,0-.05-.02-.07-.03-.02,0-.03-.02-.04-.03-.02-.02-.04-.03-.05-.04-.04-.05-.05-.08-.07-.1-.01-.03-.02-.05-.03-.07-.04-.09-.06-.17-.09-.25-.03-.08-.05-.16-.07-.23-.04-.15-.08-.31-.12-.46-.15-.61-.29-1.23-.42-1.84l-.19-.92-.09-.46-.05-.23v-.02s0-.02,0-.02v-.03s-.01-.06-.01-.06c0-.04-.01-.09-.01-.13-.06-.65-.04-1.32,.12-1.96,.16-.65,.47-1.27,.96-1.76,.24-.24,.52-.45,.83-.59,.31-.15,.65-.24,1-.24,.35-.01,.69,.06,1,.2,.31,.15,.58,.36,.79,.62,.05,.06,.04,.15-.02,.2-.05,.05-.13,.04-.18,0h0c-.22-.2-.46-.37-.73-.46-.27-.1-.55-.13-.83-.1-.28,.03-.55,.12-.8,.25-.25,.14-.47,.31-.67,.52-.39,.42-.65,.95-.79,1.52-.15,.57-.18,1.17-.12,1.77,0,.04,0,.07,.01,.11v.05s0,.03,0,.03h0s0,.02,0,.02l.05,.23,.09,.46,.19,.92c.13,.61,.26,1.22,.42,1.82,.04,.15,.08,.3,.12,.45,.02,.07,.04,.15,.07,.22,.02,.07,.05,.14,.07,.19,0,.01,.01,.03,.02,.03,0,0,.01,.02,0,0,0,0-.01-.01-.02-.02,0,0-.02-.01-.03-.02-.02-.01-.03-.02-.06-.02-.03,0-.07,0-.05,0h0s.01,0,.01,0h.06s.23,.01,.23,.01c.16,0,.31,0,.46,.01,.62,0,1.23-.02,1.83-.1,.6-.09,1.18-.25,1.68-.54,.12-.07,.24-.15,.35-.24,.11-.09,.22-.19,.32-.29,.21-.21,.38-.44,.54-.69,.31-.5,.52-1.07,.65-1.66,.13-.59,.19-1.2,.2-1.81,.02-1.22-.15-2.46-.41-3.66-.27-1.21-.64-2.4-1.09-3.55h0c-.06-.14,.02-.3,.16-.36,.14-.06,.3,.02,.36,.16"/>
              <path class="cls-27" d="M35.88,39.98c.46,1.18,.84,2.39,1.11,3.63,.27,1.24,.45,2.51,.43,3.79-.01,.64-.07,1.29-.22,1.92-.15,.63-.37,1.26-.72,1.83-.18,.28-.38,.55-.62,.79-.12,.12-.24,.23-.37,.34-.13,.11-.28,.2-.42,.29-.59,.34-1.24,.51-1.88,.61-.64,.1-1.28,.12-1.92,.11-.16,0-.32,0-.48-.01h-.24s-.06-.01-.06-.01h-.01s0,0,0,0c.01,0-.03,0-.07,0-.03,0-.05-.02-.07-.03-.02,0-.03-.02-.04-.03-.02-.02-.04-.03-.05-.04-.04-.05-.05-.08-.07-.1-.01-.03-.02-.05-.03-.07-.04-.09-.06-.17-.09-.25-.03-.08-.05-.16-.07-.23-.04-.15-.08-.31-.12-.46-.15-.61-.29-1.23-.42-1.84l-.19-.92-.09-.46-.05-.23v-.02s0-.02,0-.02v-.03s-.01-.06-.01-.06c0-.04-.01-.09-.01-.13-.06-.65-.04-1.32,.12-1.96,.16-.65,.47-1.27,.96-1.76,.24-.24,.52-.45,.83-.59,.31-.15,.65-.24,1-.24,.35-.01,.69,.06,1,.2,.31,.15,.58,.36,.79,.62,.05,.06,.04,.15-.02,.2-.05,.05-.13,.04-.18,0h0c-.22-.2-.46-.37-.73-.46-.27-.1-.55-.13-.83-.1-.28,.03-.55,.12-.8,.25-.25,.14-.47,.31-.67,.52-.39,.42-.65,.95-.79,1.52-.15,.57-.18,1.17-.12,1.77,0,.04,0,.07,.01,.11v.05s0,.03,0,.03h0s0,.02,0,.02l.05,.23,.09,.46,.19,.92c.13,.61,.26,1.22,.42,1.82,.04,.15,.08,.3,.12,.45,.02,.07,.04,.15,.07,.22,.02,.07,.05,.14,.07,.19,0,.01,.01,.03,.02,.03,0,0,.01,.02,0,0,0,0-.01-.01-.02-.02,0,0-.02-.01-.03-.02-.02-.01-.03-.02-.06-.02-.03,0-.07,0-.05,0h0s.01,0,.01,0h.06s.23,.01,.23,.01c.16,0,.31,0,.46,.01,.62,0,1.23-.02,1.83-.1,.6-.09,1.18-.25,1.68-.54,.12-.07,.24-.15,.35-.24,.11-.09,.22-.19,.32-.29,.21-.21,.38-.44,.54-.69,.31-.5,.52-1.07,.65-1.66,.13-.59,.19-1.2,.2-1.81,.02-1.22-.15-2.46-.41-3.66-.27-1.21-.64-2.4-1.09-3.55h0c-.06-.14,.02-.3,.16-.36,.14-.06,.3,.02,.36,.16"/>
              <g class="cls-30">
                <path class="cls-27" d="M28.47,51.13c.05,.52,.28,.91,.61,.97,.26,.05,.54-.12,.77-.43-.49,.03-1-.08-1.37-.55"/>
              </g>
              <path class="cls-31" d="M16.34,48.3l-.04,.45-.17,2.13c-.25,.79-1.36,1.34-2.43,.55-.5-.37-1.01-1.28-1.34-2.37-.54-1.75-.66-3.98,.29-5.23,1.02-1.34,3.05-1.11,3.51,.71,.25,.97,0,2.42,.18,3.77"/>
              <path class="cls-35" d="M16.31,48.75l-.17,2.13c-.25,.79-1.36,1.34-2.43,.55-.5-.37-1.01-1.28-1.34-2.37,.44,.59,1.18,1.27,2.25,1.12,.83-.11,1.36-.78,1.69-1.43"/>
              <path class="cls-27" d="M16.27,50.93c-.03,.23-.14,.45-.29,.63-.15,.18-.35,.32-.57,.42-.22,.09-.46,.13-.7,.12-.24,0-.47-.06-.69-.15-.11-.05-.21-.1-.31-.16-.05-.03-.1-.06-.14-.09-.05-.03-.1-.07-.14-.11-.18-.16-.32-.33-.45-.51-.25-.36-.44-.74-.6-1.13-.32-.78-.53-1.59-.64-2.42-.1-.83-.11-1.68,.08-2.52,.1-.42,.26-.83,.5-1.21,.24-.37,.59-.7,1.01-.9,.41-.2,.9-.28,1.36-.2,.46,.08,.9,.33,1.21,.68,.31,.35,.5,.79,.58,1.22,.04,.22,.06,.43,.07,.64,0,.21,.01,.42,0,.62,0,.41-.03,.81-.05,1.21-.02,.4-.03,.8-.02,1.19h0c0,.08-.06,.14-.14,.14-.07,0-.12-.04-.14-.11-.1-.4-.14-.82-.17-1.23-.02-.41-.02-.82-.03-1.22,0-.4-.02-.79-.1-1.15-.07-.36-.23-.69-.46-.94-.23-.26-.54-.43-.87-.49-.34-.06-.69-.01-1.01,.13-.32,.15-.59,.39-.79,.7-.2,.3-.34,.66-.42,1.03-.17,.74-.16,1.54-.06,2.31,.05,.39,.13,.77,.24,1.15,.1,.38,.23,.75,.38,1.11,.15,.36,.33,.71,.54,1.01,.11,.15,.22,.29,.35,.4,.03,.03,.06,.05,.1,.08,.04,.03,.07,.05,.11,.07,.07,.05,.15,.09,.23,.12,.63,.3,1.38,.05,1.76-.57h0c.04-.07,.13-.09,.19-.05,.05,.03,.07,.08,.07,.14"/>
              <path class="cls-2" d="M13.03,48.42c.09,.95,.59,1.68,1.12,1.63s.87-.87,.78-1.82c-.09-.95-.59-1.68-1.12-1.63-.52,.05-.87,.86-.78,1.82"/>
              <path class="cls-2" d="M14.51,45.99c-.01,.35,.14,.65,.33,.65,.19,0,.36-.28,.37-.63,.01-.35-.14-.65-.33-.65-.19,0-.36,.28-.37,.63"/>
              <path class="cls-2" d="M13.41,45.09c-.01,.49,.19,.9,.46,.9,.27,0,.5-.38,.52-.87,.01-.49-.19-.9-.46-.9-.27,0-.5,.38-.52,.87"/>
              <path class="cls-2" d="M12.63,45.89c0,.33,.13,.59,.31,.6,.18,0,.33-.25,.34-.58,0-.33-.13-.59-.31-.6-.18,0-.33,.25-.34,.58"/>
              <path class="cls-15" d="M14.99,20.58l4.23-3.78,4.88-4.37c-2.94-2.78-8.62-5.7-10.28-4.59-.31,.21-.55,.67-.7,1.31-.56,2.41,.04,7.4,1.86,11.43"/>
              <path class="cls-20" d="M14.99,20.58l4.23-3.78c-1.28-2.81-4.44-9.23-6.09-7.65-.56,2.41,.04,7.4,1.86,11.43"/>
              <g class="cls-5">
                <path class="cls-2" d="M13.07,9.43c.14-.37,.32-.63,.54-.78,1.6-1.07,6.92,1.6,9.93,4.28l.56-.5c-2.94-2.78-8.62-5.7-10.28-4.59-.36,.24-.61,.81-.76,1.6"/>
              </g>
              <path class="cls-27" d="M15,20.85c-.11,0-.21-.06-.25-.16-2.24-4.95-2.81-11.93-1.07-13.09,1.15-.77,3.58,.18,4.93,.82,2.05,.97,4.23,2.42,5.69,3.8,.11,.11,.12,.28,.01,.39-.11,.11-.28,.12-.39,.01-1.42-1.34-3.54-2.76-5.54-3.7-2.08-.98-3.72-1.3-4.39-.86-1.26,.84-1.11,7.16,1.26,12.4,.06,.14,0,.3-.14,.37-.04,.02-.08,.02-.11,.02Z"/>
              <path class="cls-33" d="M15.14,16.36c.86-1.27,1.58-2.15,2.22-2.81,.56-.58,1.05-.98,1.51-1.34-.14-.57-3.87-3.58-4.39-2.56-.16,.31-.26,.77-.3,1.31-.14,1.68,.23,4.18,.96,5.4"/>
              <path class="cls-4" d="M14.17,10.96c.22-.31,.57-.67,.9-.6,.56,.11,1.82,1.92,2.29,3.2,.56-.58,1.05-.98,1.51-1.34-.14-.57-3.87-3.58-4.39-2.56-.16,.31-.26,.77-.3,1.31"/>
              <path class="cls-27" d="M15.13,16.88l-.23-.37c-1.01-1.67-1.39-5.59-.67-6.98h0c.08-.16,.29-.41,.79-.35,1.21,.14,3.96,2.34,4.12,2.97l.04,.17-.14,.11c-1,.79-2.1,1.75-3.67,4.09l-.24,.36Zm-.25-7.16c-.12,0-.14,.04-.15,.06h0c-.53,1.03-.35,4.29,.45,6.04,1.38-1.99,2.41-2.94,3.34-3.68-.48-.61-2.66-2.37-3.6-2.42-.01,0-.03,0-.04,0Zm-.4-.07h0Z"/>
              <path class="cls-15" d="M28.34,11.41l6.47,6.04,2.8,2.61c2.13-4.14,2.87-9.42,2.19-11.71-.14-.47-.34-.82-.6-1-1.7-1.2-7.71,1.43-10.86,4.06"/>
              <path class="cls-20" d="M34.81,17.45l2.8,2.61c2.13-4.14,2.87-9.42,2.19-11.71-.56-.68-1.47-1.16-2.28,1.06-.85,2.3-2.03,5.94-2.71,8.05"/>
              <g class="cls-5">
                <path class="cls-2" d="M28.34,11.41l.41,.38c3.25-2.47,9.15-4.65,10.36-4.02,.98,.51,.88,3.95,.46,6.7,.74-3.4,.62-6.43-.37-7.13-1.7-1.2-7.71,1.43-10.86,4.06"/>
              </g>
              <path class="cls-27" d="M37.61,20.34s-.09,0-.13-.03c-.14-.07-.19-.24-.12-.37,2.63-5.13,2.97-11.45,1.68-12.36-1.53-1.08-7.41,1.45-10.52,4.05-.12,.1-.29,.08-.39-.04-.1-.12-.08-.29,.04-.39,1.56-1.31,3.88-2.65,6.05-3.51,1.42-.56,3.98-1.39,5.15-.56,1.78,1.26,.98,8.22-1.51,13.07-.05,.1-.15,.15-.25,.15Z"/>
              <path class="cls-15" d="M41.47,27.58c-1.42,3.2-5.23,7.55-13.91,7.8l-4.86-.15c-8.54-.78-11.59-6.92-12.18-9.45-.12-.52-.14-.88-.08-1.02,.24-.57,.92-.73,1.64-2.28,0-.01,.01-.03,.02-.04,.15-.33,.29-.87,.47-1.54,1.03-3.87,3.25-12.26,15.09-11.34,9.45,.74,10.42,8.32,12.6,12.61,.74,1.46,1.42,1.57,1.74,1.95h0c.07,.08,.12,.18,.15,.31,0,.04,.02,.08,.02,.13,.06,.54-.11,1.68-.71,3.03"/>
              <path class="cls-2" d="M41.31,27.92c-1.54,3.16-5.38,7.22-13.75,7.46l-4.86-.15c-7.8-.71-11.02-5.89-11.97-8.72-.3-.9-.37-1.56-.29-1.76,.24-.57,.93-.74,1.66-2.32,.15-.33,.29-.87,.47-1.54,2.62-2.67,6.9-6.97,7.68,3.07l3.16-.07s.42-3.5,1.66-4.73c5.29-5.23,10.64,4.41,16.92,4.95h0c.07,.08,.12,.18,.15,.31,.12,.51-.06,1.88-.84,3.5"/>
              <path class="cls-29" d="M41.31,27.92c-1.54,3.16-5.38,7.22-13.75,7.46l-4.86-.15c-7.8-.71-11.02-5.89-11.97-8.72,1.51,2.08,4.86,5.11,11.88,6.04,7.04,.93,14.64-1.26,18.7-4.64"/>
              <path class="cls-31" d="M17.85,25.53c-2.13,2.44-7.16,.49-7.16,.49,0,0-.07-.09-.16-.24-.12-.52-.14-.88-.08-1.02,.24-.57,.92-.73,1.64-2.28,1.69-1.12,2.85-3.82,5.16-3.03,1.95,.67,2.5,3.91,.6,6.09"/>
              <path class="cls-31" d="M41.47,27.58c-1.4,.31-2.95,.58-4.49,.69-2.19,.16-10.96,.08-11.9-4.69-.79-4.06,3.41-5.9,6.13-3.56,1.71,1.48,7.27,4.83,10.97,4.54,.06,.54-.11,1.68-.71,3.03"/>
              <path class="cls-27" d="M37.99,16.52c.59,.95,1.03,1.99,1.44,3.01,.21,.51,.42,1.02,.64,1.53l.17,.37c.06,.12,.12,.25,.18,.37,.06,.12,.12,.24,.19,.36l.1,.17,.1,.17c.14,.22,.29,.43,.47,.61,.04,.05,.09,.09,.14,.13,.05,.04,.1,.08,.14,.12,.1,.08,.2,.15,.32,.24,.11,.08,.25,.17,.37,.32,.03,.04,.06,.08,.09,.12,.02,.04,.05,.09,.07,.13,.03,.09,.07,.18,.08,.27,0,.04,.02,.09,.02,.13v.12c.01,.08,0,.15,0,.23,0,.08,0,.15-.01,.22,0,.07-.01,.15-.02,.22-.08,.58-.23,1.13-.43,1.67-.2,.54-.43,1.06-.71,1.55-.28,.5-.59,.97-.93,1.43-.34,.45-.72,.88-1.12,1.28-.81,.79-1.72,1.49-2.7,2.05-.98,.56-2.03,1.01-3.1,1.33-1.08,.32-2.19,.53-3.3,.63-.08,0-.14-.05-.15-.13,0-.07,.04-.13,.11-.15h0c1.08-.22,2.15-.48,3.18-.84,1.03-.35,2.03-.79,2.97-1.34,.93-.55,1.8-1.22,2.56-1.99,.38-.39,.74-.79,1.06-1.23,.32-.43,.62-.89,.88-1.36,.26-.47,.48-.96,.67-1.47,.19-.5,.33-1.02,.4-1.54,.01-.06,.02-.13,.02-.19,0-.06,.01-.13,.01-.19,0-.06,0-.13,0-.18v-.09s-.01-.05-.02-.08c-.02-.1-.04-.17-.1-.23-.05-.07-.15-.14-.26-.22-.11-.08-.23-.17-.35-.26-.06-.05-.12-.1-.17-.15-.05-.05-.11-.1-.16-.16-.21-.22-.38-.46-.54-.71l-.11-.19-.1-.19c-.07-.13-.13-.25-.19-.38-.06-.13-.12-.26-.18-.38l-.17-.39c-.22-.51-.43-1.03-.63-1.55-.41-1.03-.8-2.06-1.17-3.1-.03-.07,.01-.15,.08-.18,.06-.02,.13,0,.17,.06"/>
              <path class="cls-27" d="M22.69,35.37c-2-.05-4.01-.55-5.81-1.48-.9-.46-1.75-1.02-2.53-1.67-.39-.33-.76-.67-1.1-1.04-.35-.37-.67-.76-.98-1.16-.61-.81-1.12-1.69-1.52-2.63-.2-.47-.37-.95-.5-1.45-.06-.25-.11-.51-.13-.78,0-.03,0-.07,0-.11,0-.04,0-.07,0-.11,0-.08,0-.15,.05-.28,0-.02,0-.02,.01-.03v-.03s.04-.05,.04-.05c.02-.04,.04-.07,.06-.1,.02-.03,.04-.07,.06-.09,.02-.03,.04-.06,.07-.09,.19-.22,.36-.38,.52-.55,.16-.17,.3-.35,.43-.55,.13-.19,.24-.4,.35-.61l.08-.16,.04-.08,.03-.08c.04-.1,.08-.21,.12-.33,.14-.46,.26-.94,.39-1.42,.13-.48,.26-.96,.41-1.44,.3-.96,.65-1.9,1.1-2.81,.44-.91,.97-1.78,1.61-2.57,.63-.79,1.37-1.51,2.2-2.11,.82-.6,1.73-1.08,2.68-1.44,.24-.09,.48-.17,.72-.25,.24-.07,.49-.14,.73-.2,.49-.12,.99-.22,1.49-.29,.25-.04,.5-.06,.75-.09l.38-.03,.19-.02h.19s.38-.03,.38-.03h.38c.25-.02,.5,0,.75,0,.25,0,.5,.02,.75,.03,.25,.02,.5,.03,.75,.05,.5,.05,1,.11,1.5,.21,.99,.2,1.96,.51,2.85,.98,.07,.04,.09,.12,.06,.19-.03,.06-.11,.09-.17,.07-.92-.33-1.87-.57-2.83-.72-.48-.07-.97-.13-1.45-.17-.24-.02-.49-.03-.73-.05-.24,0-.49-.02-.73-.02-.24,0-.49,0-.73,0h-.37s-.37,.03-.37,.03h-.18s-.18,.03-.18,.03l-.36,.03c-.24,.03-.48,.05-.72,.09-.48,.07-.96,.16-1.43,.28-.24,.06-.47,.13-.7,.2-.23,.08-.46,.15-.68,.24-.9,.34-1.76,.8-2.54,1.37-.78,.57-1.47,1.25-2.07,2-.6,.76-1.11,1.59-1.53,2.46-.42,.87-.76,1.79-1.05,2.73-.15,.47-.28,.94-.41,1.42-.13,.48-.25,.96-.41,1.45-.04,.12-.08,.25-.14,.37l-.04,.1-.04,.09-.08,.17c-.12,.23-.24,.46-.39,.67-.15,.22-.31,.43-.49,.62-.18,.19-.37,.37-.5,.53-.02,.02-.03,.04-.05,.06-.02,.02-.03,.04-.04,.06-.01,.02-.03,.04-.03,.06v.03s-.02,.01-.02,.01c0,0,0,.01,0,0,0,0,0,0,0,0,0,0,0,.01,0,.02,0,.02,0,.04,0,.06,0,.02,0,.05,0,.07,0,.03,0,.05,0,.08,.02,.22,.06,.45,.12,.68,.11,.46,.27,.92,.46,1.36,.38,.89,.86,1.73,1.44,2.51,.29,.39,.6,.76,.93,1.12,.33,.35,.68,.69,1.05,1,.74,.63,1.55,1.17,2.41,1.61,.86,.45,1.78,.79,2.71,1.07,.47,.14,.94,.26,1.42,.36,.48,.1,.96,.19,1.45,.27h0c.08,.01,.13,.08,.11,.16-.01,.07-.07,.12-.14,.12"/>
              <path class="cls-2" d="M19.59,27.37c.84,.51,1.67-.17,2.05-.68,0,0,.9,1.42,2.11,.86,.43-.2,1.31-1.83,1.31-2.17,.34-2.41-3.44-2.43-3.44-2.43-2.78-.16-3.03,2.01-2.4,3.64,0,.29,.07,.6,.37,.79"/>
              <path class="cls-33" d="M33.82,11.47c.99,.83,2.16,1.88,3.77,4.36,.09-.13,.17-.27,.25-.42,.55-1.08,.88-2.76,.93-4.17,.03-.88-.06-1.65-.28-2.1-.52-1.05-4.49,1.77-4.66,2.33"/>
              <path class="cls-4" d="M33.82,11.47c.99,.83,2.16,1.88,3.77,4.36,.09-.13,.17-.27,.25-.42-.12-1.01-.92-2.11-1.22-2.96-.64-1.77,.72-2.87,1.23-2.68,.3,.11,.74,1.06,.92,1.48,.03-.88-.06-1.65-.28-2.1-.52-1.05-4.49,1.77-4.66,2.33"/>
              <path class="cls-27" d="M37.59,16.11s0,0,0,0c-.09,0-.18-.05-.23-.13-1.57-2.42-2.69-3.45-3.71-4.29-.09-.07-.12-.19-.09-.29,.19-.63,3.05-2.65,4.34-2.76,.54-.04,.75,.22,.83,.38,.7,1.44,.19,5.34-.91,6.97-.05,.08-.14,.12-.23,.12Zm-3.4-4.69c.95,.8,2,1.8,3.39,3.89,.89-1.71,1.18-4.98,.65-6.04,0-.02-.04-.08-.23-.08-.98,.02-3.28,1.64-3.81,2.23Z"/>
              <path class="cls-33" d="M20.61,25.31c-.76,1.11-.42,3.69,1.23,3.52,1.76-.18,.88-2.59,1.95-3.3"/>
              <path class="cls-4" d="M23.79,25.53c-1.07,.71-.19,3.12-1.95,3.3-1.12,.11-1.64-1.05-1.61-2.15,.22,.87,.75,1.59,1.49,1.47,1.13-.18,1.02-1.66,1.39-2.66l.69,.05Z"/>
              <path class="cls-27" d="M21.56,25.78c-.25,.43-.09,1.68,0,1.68,.14,0,0-1.32,.7-1.79,.58-.39-.28-.63-.7,.1"/>
              <path class="cls-27" d="M21.69,29.11c-.57,0-1.05-.29-1.36-.82-.53-.89-.5-2.33,.05-3.14,.09-.13,.26-.16,.39-.07,.13,.09,.16,.26,.07,.39-.43,.63-.45,1.85-.03,2.55,.24,.4,.58,.58,1.01,.54,.76-.08,.89-.64,1.04-1.54,.11-.66,.23-1.35,.78-1.71,.13-.08,.3-.05,.39,.08,.08,.13,.05,.3-.08,.39-.36,.23-.45,.77-.54,1.34-.14,.84-.31,1.88-1.54,2-.06,0-.12,0-.18,0Z"/>
              <path class="cls-2" d="M19.59,26.64c.84,.51,1.67-.17,2.05-.68,0,0,.9,1.42,2.11,.86,.43-.2,.96-1.05,.97-1.39-1.46-1.13-3.16-1.31-3.16-1.31-1.44-.08-1.69,1.19-2.59,1.1,0,.29,.32,1.24,.63,1.43"/>
              <path class="cls-2" d="M15.56,16.19c-.15-.23,1.04-2.85,2.95-2.31,.7,.2,.59,.82,.19,1.02-.38,.19-.98,.18-1.47,.4-.96,.41-1.52,1.13-1.67,.9"/>
              <path class="cls-2" d="M31.53,16.39c.17-.26-1.2-3.13-3.3-2.5-.77,.23-.64,.91-.19,1.12,.43,.2,1.08,.18,1.63,.41,1.06,.44,1.7,1.22,1.86,.96"/>
              <path class="cls-14" d="M17.01,35.63c-.67-.42-.26-1.01,.11-.94-.11-.1,0-.3,.14-.17-.25-.54,.3-.88,.59-.42-.04-.2,.13-.36,.29-.22-.41-1.1,1.32-1.69,1.41-.43,.23-.61,.89-.54,.97,.09,.03-.17,.1-.32,.28-.32,.17,0,.29,.1,.31,.3,.06-.99,1.6-.78,1.47,.07,.77-.97,1.81,.21,.84,.87,.44-.15,1.38,.63,.27,1.36-6.04,4.02-7.08,.31-6.66-.17"/>
              <g class="cls-5">
                <path class="cls-2" d="M18.38,33.7s-.09-.5,.2-.64c.36-.18,.66,.14,.66,.26s-.53-.26-.86,.39"/>
              </g>
              <g class="cls-5">
                <path class="cls-2" d="M21.44,33.42s.03-.26,.35-.29c.47-.05,.56,.39,.5,.49-.03,.04-.2-.59-.85-.19"/>
              </g>
              <g class="cls-5">
                <path class="cls-2" d="M22.91,33.57s.18-.18,.44-.07c.38,.16,.18,.52,.07,.56-.05,.02,.22-.52-.51-.5"/>
              </g>
              <path class="cls-28" d="M19.1,37.81c-1.01,0-1.56-.42-1.82-.72-.41-.46-.54-1.06-.42-1.39-.36-.26-.4-.58-.31-.8,.07-.17,.22-.3,.38-.34,0,0,0-.02,0-.02,.02-.08,.06-.14,.12-.17-.04-.26,.07-.47,.24-.57,.13-.07,.3-.08,.46,.02,.03-.04,.06-.07,.1-.09,.03-.01,.05-.03,.08-.03-.04-.3,.05-.58,.26-.8,.26-.26,.65-.36,.97-.24,.13,.05,.33,.16,.44,.44,.14-.14,.31-.22,.5-.2,.18,.02,.33,.13,.43,.29,.09-.08,.19-.1,.27-.1,.1,0,.19,.03,.26,.08,.08-.16,.2-.28,.37-.36,.31-.14,.72-.1,1,.1,.13,.1,.22,.23,.27,.37,.22-.17,.46-.24,.7-.18,.28,.07,.49,.3,.54,.59,.04,.23-.03,.45-.18,.64,.21,.07,.42,.23,.52,.44,.09,.19,.22,.67-.51,1.16-2.15,1.43-3.65,1.86-4.68,1.86Zm-2-2.28s.02,.01,.03,.02c.06,.05,.06,.14,.01,.2-.1,.12-.07,.69,.34,1.16,.48,.55,2.04,1.53,6.14-1.19,.39-.26,.54-.55,.42-.8-.11-.23-.41-.37-.57-.31-.07,.02-.14,0-.17-.07-.03-.06-.01-.14,.05-.18,.25-.17,.36-.38,.33-.6-.03-.18-.17-.33-.34-.37-.21-.05-.44,.06-.64,.3-.04,.05-.11,.07-.16,.04-.06-.02-.09-.09-.08-.15,.03-.23-.08-.36-.19-.44-.2-.15-.5-.18-.72-.08-.13,.06-.28,.19-.3,.47,0,.07-.06,.13-.13,.13-.07,0-.13-.05-.14-.12-.02-.15-.1-.18-.18-.18-.04,0-.11,0-.14,.2-.01,.07-.07,.12-.14,.12-.07,0-.13-.05-.14-.12-.03-.22-.15-.38-.31-.39-.16-.02-.31,.11-.4,.33-.02,.06-.09,.1-.15,.09-.06,0-.11-.06-.12-.13-.02-.29-.14-.48-.34-.55-.21-.08-.49,0-.67,.18-.11,.11-.28,.36-.14,.74,.02,.06,0,.13-.05,.16-.05,.04-.12,.03-.17-.01-.02-.02-.03-.02-.04-.02-.01,0-.03,.05-.02,.1,.01,.07-.02,.13-.08,.16-.06,.03-.13,0-.17-.05-.08-.13-.2-.18-.29-.13-.09,.05-.15,.21-.05,.42,.03,.06,0,.13-.04,.17-.03,.02-.06,.03-.09,.03,0,.03,0,.07,0,.1-.03,.06-.09,.09-.15,.08-.11-.02-.23,.06-.28,.18-.07,.17,.03,.35,.27,.51,0,0,.02,.01,.02,.02Z"/>
              <path class="cls-10" d="M18.58,34.99c-.3,.22-.78-.15-.58-.53,.14-.27,.51-.24,.63-.08-.02-.25,.08-.68,.59-.68,.55,0,.82,.82,.21,1.13"/>
              <path class="cls-14" d="M18.76,35.01c-.23,.17-.61-.12-.45-.42,.11-.21,.4-.19,.49-.06-.01-.2,.07-.53,.46-.53,.43,0,.64,.64,.16,.88"/>
              <path class="cls-28" d="M18.8,35.06c-.05,.05-.13,.08-.21,.09-.08,0-.15-.02-.22-.05-.07-.04-.13-.09-.17-.16-.04-.07-.07-.15-.07-.24,0-.09,.03-.17,.08-.24,.05-.07,.13-.13,.21-.15,.08-.03,.17-.03,.25-.01,.08,.02,.17,.06,.23,.15h0s-.25,.09-.25,.09c-.01-.1,0-.21,.03-.31,.03-.1,.1-.21,.2-.27,.1-.07,.21-.1,.32-.1,.1,0,.23,.01,.33,.08,.1,.06,.18,.15,.23,.24,.05,.1,.08,.21,.06,.32,0,.11-.05,.22-.12,.3-.07,.08-.16,.13-.25,.16-.04,.01-.08,0-.09-.05,0-.03,0-.05,.02-.07h0c.06-.06,.1-.11,.13-.17,.03-.06,.04-.12,.04-.18,0-.12-.07-.24-.17-.29l-.04-.02s-.03,0-.04,0c-.03,0-.05,0-.09,0-.06,0-.12,.02-.16,.05-.04,.03-.07,.07-.1,.13-.02,.06-.03,.12-.03,.19,0,.08-.07,.14-.14,.14-.04,0-.07-.02-.1-.04h0s-.01-.02-.03-.02c-.01,0-.03-.01-.04-.01-.03,0-.07,0-.1,0-.03,0-.05,.02-.07,.05-.02,.02-.03,.06-.04,.09-.01,.06,.02,.14,.08,.19,.07,.05,.15,.07,.23,.04h0s.08,0,.09,.03c.01,.03,0,.06-.02,.08"/>
              <path class="cls-10" d="M22.76,35.01c.73-.08,.48-.9,.27-1.02-.26-.14-.5-.03-.66,.22-.01-.22-.08-.8-.77-.74-.55,.04-.82,1.02-.05,1.12"/>
              <path class="cls-14" d="M22.86,35.05c.48-.23,.21-.66,.01-.73-.28-.09-.44,.01-.65,.28-.01-.19,0-.79-.61-.74-.49,.04-.73,.9-.04,.99"/>
              <path class="cls-28" d="M22.83,34.98c.11-.07,.19-.17,.19-.26,0-.09-.07-.2-.15-.25,0,0-.02-.01-.03-.01,0,0-.01,0-.03,0-.03,0-.06-.01-.08-.01-.05,0-.1,0-.14,.02-.09,.03-.18,.13-.27,.23h0c-.05,.06-.14,.07-.2,.02-.03-.02-.04-.06-.05-.09,0-.11-.02-.21-.04-.3-.02-.09-.06-.16-.1-.22-.05-.05-.11-.08-.2-.1h-.03s-.03,0-.03,0c-.02,0-.05,0-.07,0-.04,0-.07,.01-.11,.03-.14,.06-.25,.24-.26,.41,0,.09,.03,.16,.08,.22,.06,.06,.15,.1,.24,.12h0s.06,.05,.05,.08c0,.03-.04,.06-.07,.05-.12,0-.24-.04-.35-.12-.11-.08-.17-.22-.18-.35-.01-.13,.02-.26,.08-.37,.06-.11,.15-.22,.27-.28,.06-.03,.13-.06,.2-.07,.03,0,.06,0,.1,0h.05s.05,0,.05,0c.13,.01,.27,.07,.37,.17,.1,.1,.15,.23,.18,.35,.03,.12,.03,.24,.03,.34l-.25-.08h0c.04-.06,.09-.12,.15-.18,.06-.06,.13-.12,.22-.15,.04-.02,.09-.03,.14-.04,.05,0,.1,0,.14,0,.05,0,.09,.02,.13,.03,.02,0,.05,.02,.07,.03,.02,.01,.04,.03,.06,.04,.07,.06,.13,.13,.17,.22,.04,.08,.06,.18,.04,.28-.02,.1-.07,.18-.13,.24-.06,.06-.14,.1-.21,.12-.04,.01-.08,0-.09-.04-.01-.03,0-.07,.03-.09h0Z"/>
              <g class="cls-5">
                <path class="cls-2" d="M19.05,34.31s.09-.14,.26-.08c.26,.1,.15,.35,.08,.39-.03,.02,.08-.4-.34-.3"/>
              </g>
              <g class="cls-5">
                <path class="cls-2" d="M21.54,34.16s.09-.14,.26-.08c.26,.1,.15,.35,.08,.38-.03,.02,.08-.4-.34-.3"/>
              </g>
              <path class="cls-14" d="M20.14,36.15c-.67-.42-.26-1.01,.11-.94-.11-.1,0-.3,.14-.17-.25-.54,.3-.88,.59-.42-.04-.2,.13-.36,.29-.22-.41-1.1,1.32-1.69,1.41-.43,.23-.61,.89-.54,.97,.09,.03-.17,.1-.32,.28-.32,.17,0,.29,.1,.31,.3,.06-.99,1.6-.78,1.47,.07,.77-.97,1.81,.21,.84,.87,.44-.15,1.38,.63,.27,1.36-6.04,4.02-7.08,.31-6.66-.17"/>
              <g class="cls-5">
                <path class="cls-2" d="M21.51,34.22s-.09-.5,.2-.64c.37-.18,.66,.14,.66,.26s-.53-.26-.86,.39"/>
              </g>
              <g class="cls-5">
                <path class="cls-2" d="M24.57,33.94s.03-.26,.35-.29c.47-.05,.56,.39,.5,.49-.03,.04-.2-.59-.85-.19"/>
              </g>
              <g class="cls-5">
                <path class="cls-2" d="M26.05,34.09s.18-.18,.44-.07c.38,.16,.18,.52,.07,.56-.05,.02,.22-.52-.51-.5"/>
              </g>
              <path class="cls-28" d="M22.24,38.33c-1.01,0-1.56-.42-1.82-.72-.41-.46-.54-1.06-.42-1.39-.36-.26-.4-.58-.31-.8,.07-.17,.22-.3,.38-.34,0,0,0-.02,0-.02,.02-.08,.06-.14,.12-.17-.04-.26,.07-.47,.24-.57,.13-.07,.3-.08,.46,.02,.03-.04,.06-.07,.1-.09,.03-.01,.05-.03,.08-.03-.04-.3,.05-.58,.26-.8,.26-.26,.65-.36,.97-.24,.13,.05,.33,.16,.44,.44,.14-.14,.31-.22,.5-.2,.18,.02,.33,.13,.43,.29,.09-.08,.19-.1,.27-.1,.1,0,.19,.03,.26,.08,.08-.16,.2-.28,.37-.36,.31-.14,.72-.1,1,.1,.13,.1,.22,.23,.27,.37,.22-.17,.46-.24,.7-.18,.28,.07,.49,.3,.54,.59,.04,.23-.03,.45-.18,.64,.21,.07,.42,.23,.52,.44,.09,.19,.22,.67-.51,1.16-2.15,1.43-3.65,1.86-4.68,1.86Zm-2-2.28s.02,.01,.03,.02c.06,.05,.06,.14,.01,.2-.1,.12-.07,.69,.34,1.16,.48,.55,2.04,1.53,6.14-1.19,.39-.26,.54-.55,.41-.8-.11-.23-.41-.37-.57-.31-.07,.02-.14,0-.17-.07-.03-.06-.01-.14,.05-.18,.25-.17,.36-.38,.33-.6-.03-.18-.17-.33-.34-.37-.21-.05-.44,.06-.64,.3-.04,.05-.11,.07-.16,.04-.06-.02-.09-.09-.08-.15,.03-.23-.08-.36-.19-.44-.2-.15-.5-.18-.72-.08-.13,.06-.28,.19-.3,.47,0,.07-.06,.13-.13,.13-.07,0-.13-.05-.14-.12-.02-.15-.1-.18-.18-.18-.04,0-.11,0-.14,.2-.01,.07-.07,.12-.14,.12h0c-.07,0-.13-.05-.14-.12-.03-.22-.15-.38-.31-.39-.16-.02-.31,.11-.4,.33-.02,.06-.09,.1-.15,.09-.06,0-.11-.06-.12-.13-.02-.29-.14-.48-.34-.55-.21-.08-.49,0-.67,.18-.11,.11-.28,.36-.14,.74,.02,.06,0,.13-.05,.16-.05,.04-.12,.03-.17-.01-.02-.02-.03-.02-.04-.02-.01,0-.03,.05-.02,.1,.01,.07-.02,.13-.08,.16-.06,.03-.13,0-.17-.05-.08-.13-.2-.18-.29-.13-.09,.05-.15,.21-.05,.42,.03,.06,0,.13-.04,.17-.03,.02-.06,.03-.09,.03,0,.03,0,.07,0,.1-.03,.06-.09,.09-.15,.08-.11-.02-.23,.06-.28,.18-.07,.17,.03,.35,.27,.51,0,0,.02,.01,.02,.02Zm.1-.95s0,0,0,0c0,0,0,0,0,0Z"/>
              <path class="cls-10" d="M21.72,35.52c-.3,.22-.78-.15-.58-.53,.14-.27,.51-.24,.63-.08-.02-.25,.08-.68,.59-.68,.55,0,.82,.82,.21,1.13"/>
              <path class="cls-14" d="M21.89,35.53c-.23,.17-.61-.12-.45-.42,.11-.21,.4-.19,.49-.06-.01-.2,.07-.53,.46-.53,.43,0,.64,.64,.16,.88"/>
              <path class="cls-28" d="M21.93,35.59c-.05,.05-.13,.08-.21,.09-.08,0-.15-.02-.22-.05-.07-.04-.13-.09-.17-.16-.04-.07-.07-.15-.07-.24,0-.09,.03-.17,.08-.24,.05-.07,.13-.13,.21-.15,.08-.03,.17-.03,.25-.01,.08,.02,.17,.06,.23,.15h0s-.25,.09-.25,.09c-.01-.1,0-.21,.03-.31,.03-.1,.1-.21,.2-.28,.1-.07,.21-.1,.32-.1,.1,0,.23,.01,.33,.08,.1,.06,.18,.15,.23,.24,.05,.1,.08,.21,.06,.32,0,.11-.05,.22-.12,.3-.07,.08-.16,.13-.25,.16-.04,.01-.08,0-.09-.05,0-.03,0-.05,.02-.07h0c.06-.06,.1-.11,.13-.17,.03-.06,.04-.12,.04-.18,0-.12-.07-.24-.17-.29l-.04-.02s-.03,0-.04,0c-.03,0-.05,0-.09,0-.06,0-.12,.02-.16,.05-.04,.03-.07,.07-.1,.13-.02,.06-.03,.12-.03,.19,0,.08-.07,.14-.14,.14-.04,0-.07-.02-.1-.04h0s-.01-.02-.03-.02c-.01,0-.03-.01-.04-.01-.03,0-.07,0-.1,0-.03,0-.05,.02-.07,.05-.02,.02-.04,.06-.04,.09-.01,.06,.02,.14,.08,.19,.07,.05,.15,.07,.23,.04h0s.08,0,.09,.03c.01,.03,0,.06-.02,.08"/>
              <path class="cls-10" d="M25.9,35.54c.73-.08,.48-.9,.27-1.02-.26-.14-.5-.03-.66,.22-.01-.22-.08-.8-.77-.74-.55,.04-.82,1.02-.05,1.12"/>
              <path class="cls-14" d="M26,35.57c.48-.23,.21-.66,.01-.73-.28-.09-.44,.01-.65,.28-.01-.19,0-.79-.61-.74-.49,.04-.73,.9-.04,.99"/>
              <path class="cls-28" d="M25.97,35.5c.11-.07,.19-.17,.19-.26,0-.09-.07-.2-.15-.25,0,0-.02-.01-.03-.01,0,0-.01,0-.03,0-.03,0-.06-.01-.08-.01-.05,0-.1,0-.14,.02-.09,.03-.18,.13-.27,.23h0c-.05,.06-.14,.07-.2,.02-.03-.02-.04-.06-.05-.09,0-.11-.02-.21-.04-.3-.02-.09-.06-.16-.1-.22-.05-.05-.11-.08-.2-.1h-.03s-.03,0-.03,0c-.02,0-.05,0-.07,0-.04,0-.07,.01-.11,.03-.14,.06-.25,.24-.26,.41,0,.09,.03,.16,.08,.22,.06,.06,.15,.1,.24,.12h0s.06,.05,.05,.08c0,.03-.04,.06-.07,.05-.12,0-.24-.04-.35-.12-.11-.08-.17-.22-.18-.35-.01-.13,.02-.26,.08-.37,.06-.11,.15-.22,.27-.28,.06-.03,.13-.06,.2-.07,.03,0,.06,0,.1,0h.05s.05,0,.05,0c.13,.01,.27,.07,.37,.17,.1,.1,.15,.23,.18,.35,.03,.12,.03,.24,.03,.35l-.25-.08h0c.04-.06,.09-.12,.15-.18,.06-.06,.13-.12,.22-.15,.04-.02,.09-.03,.14-.04,.05,0,.1,0,.14,0,.05,0,.09,.02,.13,.03,.02,0,.05,.02,.07,.03,.02,.01,.04,.03,.06,.04,.07,.06,.13,.13,.17,.22,.04,.08,.06,.18,.04,.28-.02,.1-.07,.18-.13,.24-.06,.06-.14,.1-.21,.12-.04,.01-.08,0-.09-.04-.01-.03,0-.07,.03-.09h0Z"/>
              <g class="cls-5">
                <path class="cls-2" d="M22.19,34.83s.09-.14,.26-.08c.26,.1,.15,.35,.08,.38-.03,.02,.08-.4-.34-.3"/>
              </g>
              <g class="cls-5">
                <path class="cls-2" d="M24.68,34.69s.09-.14,.26-.08c.26,.1,.15,.35,.08,.39-.03,.02,.08-.4-.34-.3"/>
              </g>
              <path class="cls-14" d="M15,37.37c-.67-.42-.26-1.01,.11-.94-.11-.1,0-.3,.14-.17-.25-.54,.3-.88,.59-.42-.04-.2,.13-.36,.29-.22-.41-1.1,1.32-1.69,1.41-.43,.23-.61,.89-.54,.97,.09,.03-.17,.1-.32,.28-.32,.17,0,.29,.1,.31,.3,.06-.99,1.6-.78,1.47,.07,.77-.97,1.81,.21,.84,.87,.44-.15,1.38,.63,.27,1.36-6.04,4.02-7.08,.31-6.66-.17"/>
              <g class="cls-5">
                <path class="cls-2" d="M16.37,35.44s-.09-.5,.2-.64c.36-.18,.66,.14,.66,.26s-.53-.26-.86,.39"/>
              </g>
              <g class="cls-5">
                <path class="cls-2" d="M19.43,35.16s.03-.26,.35-.29c.47-.05,.56,.39,.5,.49-.03,.04-.2-.59-.85-.19"/>
              </g>
              <g class="cls-5">
                <path class="cls-2" d="M20.91,35.31s.18-.18,.44-.07c.38,.16,.18,.52,.07,.56-.05,.02,.22-.52-.51-.5"/>
              </g>
              <path class="cls-28" d="M17.1,39.55c-1.01,0-1.56-.42-1.82-.72-.41-.46-.54-1.06-.42-1.39-.36-.26-.4-.58-.31-.8,.07-.17,.22-.3,.38-.34,0,0,0-.02,0-.02,.02-.08,.06-.14,.12-.17-.04-.26,.07-.47,.24-.57,.13-.07,.3-.08,.46,.02,.03-.04,.06-.07,.1-.09,.03-.01,.05-.03,.08-.03-.04-.3,.05-.58,.26-.8,.26-.26,.65-.36,.97-.24,.13,.05,.33,.16,.44,.44,.14-.14,.31-.22,.5-.2,.18,.02,.33,.13,.43,.29,.09-.08,.19-.1,.27-.1,.1,0,.19,.03,.26,.08,.08-.16,.2-.28,.37-.36,.31-.14,.72-.1,1,.1,.13,.1,.22,.23,.27,.37,.22-.17,.46-.24,.7-.18,.28,.07,.49,.3,.54,.59,.04,.23-.03,.45-.18,.64,.21,.07,.42,.23,.52,.44,.09,.19,.22,.67-.51,1.16-2.15,1.43-3.65,1.86-4.68,1.86Zm-2-2.28s.02,.01,.03,.02c.06,.05,.06,.14,.01,.2-.1,.12-.07,.69,.34,1.16,.48,.55,2.04,1.53,6.14-1.19,.39-.26,.54-.55,.41-.8-.11-.23-.41-.37-.57-.31-.07,.02-.14,0-.17-.07-.03-.06-.01-.14,.05-.18,.25-.17,.36-.38,.33-.6-.03-.18-.17-.33-.34-.37-.21-.05-.44,.06-.64,.3-.04,.05-.11,.07-.16,.04-.06-.02-.09-.09-.08-.15,.03-.23-.08-.36-.19-.44-.2-.15-.5-.18-.72-.08-.13,.06-.28,.19-.3,.47,0,.07-.06,.13-.13,.13-.07,0-.13-.05-.14-.12-.02-.15-.1-.18-.18-.18-.04,0-.11,0-.14,.2-.01,.07-.07,.12-.14,.12h0c-.07,0-.13-.05-.14-.12-.03-.22-.15-.38-.31-.39-.16-.02-.31,.11-.4,.33-.02,.06-.09,.1-.15,.09-.06,0-.11-.06-.12-.13-.02-.29-.14-.48-.34-.55-.21-.08-.49,0-.67,.18-.11,.11-.28,.36-.14,.74,.02,.06,0,.13-.05,.16-.05,.04-.12,.03-.17-.01-.02-.02-.03-.02-.04-.02-.01,0-.03,.05-.02,.1,.01,.07-.02,.13-.08,.16-.06,.03-.13,0-.17-.05-.08-.13-.2-.18-.29-.13-.09,.05-.15,.21-.05,.42,.03,.06,0,.13-.04,.17-.03,.02-.06,.03-.09,.03,0,.03,0,.07,0,.1-.03,.06-.09,.09-.15,.08-.11-.02-.23,.06-.28,.18-.07,.17,.03,.35,.27,.51,0,0,.02,.01,.02,.02Z"/>
              <path class="cls-10" d="M16.58,36.73c-.3,.22-.78-.15-.58-.53,.14-.27,.51-.24,.63-.08-.02-.25,.08-.68,.59-.68,.55,0,.82,.82,.21,1.13"/>
              <path class="cls-14" d="M16.75,36.75c-.23,.17-.61-.12-.45-.42,.11-.21,.4-.19,.49-.06-.01-.2,.07-.53,.46-.53,.43,0,.64,.64,.16,.88"/>
              <path class="cls-28" d="M16.79,36.8c-.05,.05-.13,.08-.21,.09-.08,0-.15-.02-.22-.05-.07-.04-.13-.09-.17-.16-.04-.07-.07-.15-.07-.24,0-.09,.03-.17,.08-.24,.05-.07,.13-.13,.21-.15,.08-.03,.17-.03,.25-.01,.08,.02,.17,.06,.23,.15h0s-.25,.09-.25,.09c-.01-.1,0-.21,.03-.31,.03-.1,.1-.21,.2-.27,.1-.07,.21-.1,.32-.1,.1,0,.23,.01,.33,.08,.1,.06,.18,.15,.23,.24,.05,.1,.08,.21,.06,.32,0,.11-.05,.22-.12,.3-.07,.08-.16,.13-.25,.16-.04,.01-.08,0-.09-.05,0-.03,0-.05,.02-.07h0c.06-.06,.1-.11,.13-.17,.03-.06,.04-.12,.04-.18,0-.12-.07-.24-.17-.29l-.04-.02s-.03,0-.04,0c-.03,0-.05,0-.09,0-.06,0-.12,.02-.16,.05-.04,.03-.07,.07-.1,.13-.02,.06-.03,.12-.03,.19,0,.08-.07,.14-.14,.14-.04,0-.07-.02-.1-.04h0s-.01-.02-.03-.02c-.01,0-.03-.01-.04-.01-.03,0-.07,0-.1,0-.03,0-.05,.02-.07,.05-.02,.02-.04,.06-.04,.09-.01,.06,.02,.14,.08,.19,.07,.05,.15,.07,.23,.04h0s.08,0,.09,.03c.01,.03,0,.06-.02,.08"/>
              <path class="cls-10" d="M20.76,36.75c.73-.08,.48-.9,.27-1.02-.26-.14-.5-.03-.66,.22-.01-.22-.08-.8-.77-.74-.55,.04-.82,1.02-.05,1.12"/>
              <path class="cls-14" d="M20.86,36.78c.48-.23,.21-.66,.01-.73-.28-.09-.44,.01-.65,.28-.01-.19,0-.79-.61-.74-.49,.04-.73,.9-.04,.99"/>
              <path class="cls-28" d="M20.83,36.72c.11-.07,.19-.17,.19-.26,0-.09-.07-.2-.15-.25,0,0-.02-.01-.03-.01,0,0-.01,0-.03,0-.03,0-.06-.01-.08-.01-.05,0-.1,0-.14,.02-.09,.03-.18,.13-.27,.23h0s0,0,0,0c-.05,.06-.14,.06-.2,0-.03-.02-.04-.06-.05-.09,0-.11-.02-.21-.04-.3-.02-.09-.06-.16-.1-.22-.05-.05-.11-.08-.2-.1h-.03s-.03,0-.03,0c-.02,0-.05,0-.07,0-.04,0-.07,.01-.11,.03-.14,.06-.25,.24-.26,.41,0,.09,.03,.16,.08,.22,.06,.06,.15,.1,.24,.12h0s.06,.05,.05,.08c0,.03-.04,.06-.07,.05-.12,0-.24-.04-.35-.12-.11-.08-.17-.22-.18-.35-.01-.13,.02-.26,.08-.37,.06-.11,.15-.22,.27-.28,.06-.03,.13-.06,.2-.07,.03,0,.06,0,.1,0h.05s.05,0,.05,0c.13,.01,.27,.07,.37,.17,.1,.1,.15,.23,.18,.35,.03,.12,.03,.24,.03,.35l-.25-.08h0c.04-.06,.09-.12,.15-.18,.06-.06,.13-.12,.22-.15,.04-.02,.09-.03,.14-.04,.05,0,.1,0,.14,0,.05,0,.09,.02,.13,.03,.02,0,.05,.02,.07,.03,.02,.01,.04,.03,.06,.04,.07,.06,.13,.13,.17,.22,.04,.08,.06,.18,.04,.28-.02,.1-.07,.18-.13,.24-.06,.06-.14,.1-.21,.12-.04,.01-.08,0-.09-.04-.01-.03,0-.07,.03-.09h0Z"/>
              <g class="cls-5">
                <path class="cls-2" d="M17.05,36.05s.09-.14,.26-.08c.26,.1,.15,.35,.08,.38-.03,.02,.08-.4-.34-.3"/>
              </g>
              <g class="cls-5">
                <path class="cls-2" d="M19.54,35.9s.09-.14,.26-.08c.26,.1,.15,.35,.08,.39-.03,.02,.08-.4-.34-.3"/>
              </g>
              <path class="cls-14" d="M21.02,37.59c-.67-.42-.26-1.01,.11-.94-.11-.1,0-.3,.14-.17-.25-.54,.3-.88,.59-.42-.04-.2,.13-.36,.29-.22-.41-1.1,1.32-1.69,1.41-.43,.23-.61,.89-.54,.97,.09,.03-.17,.1-.32,.28-.32,.17,0,.29,.1,.31,.3,.06-.99,1.6-.78,1.47,.07,.77-.97,1.81,.21,.84,.87,.44-.15,1.38,.63,.27,1.36-6.04,4.02-7.08,.31-6.66-.17"/>
              <g class="cls-5">
                <path class="cls-2" d="M22.39,35.66s-.09-.5,.2-.64c.36-.18,.66,.14,.66,.26s-.53-.26-.86,.39"/>
              </g>
              <g class="cls-5">
                <path class="cls-2" d="M25.45,35.38s.03-.26,.35-.29c.47-.05,.56,.39,.5,.49-.03,.04-.2-.59-.85-.19"/>
              </g>
              <g class="cls-5">
                <path class="cls-2" d="M26.92,35.53s.18-.18,.44-.07c.38,.16,.18,.52,.07,.56-.05,.02,.22-.52-.51-.5"/>
              </g>
              <path class="cls-28" d="M23.11,39.77c-1.01,0-1.56-.42-1.82-.72-.41-.46-.54-1.06-.42-1.39-.36-.26-.4-.58-.31-.8,.07-.17,.22-.3,.38-.34,0,0,0-.02,0-.02,.02-.08,.06-.14,.12-.17-.04-.26,.07-.47,.24-.57,.13-.07,.3-.08,.46,.02,.03-.04,.06-.07,.1-.09,.03-.01,.05-.03,.08-.03-.04-.3,.05-.58,.26-.8,.26-.26,.65-.36,.97-.24,.13,.05,.33,.16,.44,.44,.14-.14,.31-.22,.5-.2,.18,.02,.33,.13,.43,.29,.09-.08,.19-.1,.27-.1,.1,0,.19,.03,.26,.08,.08-.16,.2-.28,.37-.36,.31-.14,.72-.1,1,.1,.13,.1,.22,.23,.27,.37,.22-.17,.46-.24,.7-.18,.28,.07,.49,.3,.54,.59,.04,.23-.03,.45-.18,.64,.21,.07,.42,.23,.52,.44,.09,.19,.22,.67-.51,1.16-2.15,1.43-3.65,1.86-4.68,1.86Zm-2-2.28s.02,.01,.03,.02c.06,.05,.06,.14,.01,.2-.1,.12-.07,.69,.34,1.16,.48,.55,2.04,1.53,6.14-1.19,.39-.26,.54-.55,.41-.8-.11-.23-.41-.37-.57-.31-.07,.02-.14,0-.17-.07-.03-.06-.01-.14,.05-.18,.25-.17,.36-.38,.33-.6-.03-.18-.17-.33-.34-.37-.21-.05-.44,.06-.64,.3-.04,.05-.11,.07-.16,.04-.06-.02-.09-.09-.08-.15,.03-.23-.08-.36-.19-.44-.2-.15-.5-.18-.72-.08-.13,.06-.28,.19-.3,.47,0,.07-.06,.13-.13,.13-.07,0-.13-.05-.14-.12-.02-.15-.1-.18-.18-.18-.04,0-.11,0-.14,.2-.01,.07-.07,.12-.14,.12h0c-.07,0-.13-.05-.14-.12-.03-.22-.15-.38-.31-.39-.16-.02-.31,.11-.4,.33-.02,.06-.09,.1-.15,.09-.06,0-.11-.06-.12-.13-.02-.29-.14-.48-.34-.55-.21-.08-.49,0-.67,.18-.11,.11-.28,.36-.14,.74,.02,.06,0,.13-.05,.16-.05,.04-.12,.03-.17-.01-.02-.02-.03-.02-.04-.02-.01,0-.03,.05-.02,.1,.01,.07-.02,.13-.08,.16-.06,.03-.13,0-.17-.05-.08-.13-.2-.18-.29-.13-.09,.05-.15,.21-.05,.42,.03,.06,0,.13-.04,.17-.03,.02-.06,.03-.09,.03,0,.03,0,.07,0,.1-.03,.06-.09,.09-.15,.08-.11-.02-.23,.06-.28,.18-.07,.17,.03,.35,.27,.51,0,0,.02,.01,.02,.02Z"/>
              <path class="cls-10" d="M22.59,36.96c-.3,.22-.78-.15-.58-.53,.14-.27,.51-.24,.63-.08-.02-.25,.08-.68,.59-.68,.55,0,.82,.82,.21,1.13"/>
              <path class="cls-14" d="M22.77,36.97c-.23,.17-.61-.12-.45-.42,.11-.21,.4-.19,.49-.06-.01-.2,.07-.53,.46-.53,.43,0,.64,.64,.16,.88"/>
              <path class="cls-28" d="M22.81,37.03c-.05,.05-.13,.08-.21,.09-.08,0-.15-.02-.22-.05-.07-.04-.13-.09-.17-.16-.04-.07-.07-.15-.07-.24,0-.09,.03-.17,.08-.24,.05-.07,.13-.13,.21-.15,.08-.03,.17-.03,.25-.01,.08,.02,.17,.06,.23,.15h0s-.25,.09-.25,.09c-.01-.1,0-.21,.03-.31,.03-.1,.1-.21,.2-.27,.1-.07,.21-.1,.32-.1,.1,0,.23,.01,.33,.08,.1,.06,.18,.15,.23,.24,.05,.1,.08,.21,.06,.32,0,.11-.05,.22-.12,.3-.07,.08-.16,.13-.25,.16-.04,.01-.08,0-.09-.05,0-.03,0-.05,.02-.07h0c.06-.06,.1-.11,.13-.17,.03-.06,.04-.12,.04-.18,0-.12-.07-.24-.17-.29l-.04-.02s-.03,0-.04,0c-.03,0-.05,0-.09,0-.06,0-.12,.02-.16,.05-.04,.03-.07,.07-.1,.13-.02,.06-.03,.12-.03,.19,0,.08-.07,.14-.14,.14-.04,0-.07-.02-.1-.04h0s-.01-.02-.03-.02c-.01,0-.03-.01-.04-.01-.03,0-.07,0-.1,0-.03,0-.05,.02-.07,.05-.02,.02-.04,.06-.04,.09-.01,.06,.02,.14,.08,.19,.07,.05,.15,.07,.23,.04h0s.08,0,.09,.03c.01,.03,0,.06-.02,.08"/>
              <path class="cls-10" d="M26.78,36.98c.73-.08,.48-.9,.27-1.02-.26-.14-.5-.03-.66,.22-.01-.22-.08-.8-.77-.74-.55,.04-.82,1.02-.05,1.12"/>
              <path class="cls-14" d="M26.87,37.01c.48-.23,.21-.66,.01-.73-.28-.09-.44,.01-.65,.28-.01-.19,0-.79-.61-.74-.49,.04-.73,.9-.04,.99"/>
              <path class="cls-28" d="M26.84,36.94c.11-.07,.19-.17,.19-.26,0-.09-.07-.2-.15-.25,0,0-.02-.01-.03-.01,0,0-.01,0-.03,0-.03,0-.06-.01-.08-.01-.05,0-.1,0-.14,.02-.09,.03-.18,.13-.27,.23h0c-.05,.06-.14,.07-.2,.02-.03-.02-.04-.06-.05-.09,0-.11-.02-.21-.04-.3-.02-.09-.06-.16-.1-.22-.05-.05-.11-.08-.2-.1h-.03s-.03,0-.03,0c-.02,0-.05,0-.07,0-.04,0-.07,.01-.11,.03-.14,.06-.25,.24-.26,.41,0,.09,.03,.16,.08,.22,.06,.06,.15,.1,.24,.12h0s.06,.05,.05,.08c0,.03-.04,.06-.07,.05-.12,0-.24-.04-.35-.12-.11-.08-.17-.22-.18-.35-.01-.13,.02-.26,.08-.37,.06-.11,.15-.22,.27-.28,.06-.03,.13-.06,.2-.07,.03,0,.06,0,.1,0h.05s.05,0,.05,0c.13,.01,.27,.07,.37,.17,.1,.1,.15,.23,.18,.35,.03,.12,.03,.24,.03,.34l-.25-.08h0c.04-.06,.09-.12,.15-.18,.06-.06,.13-.12,.22-.15,.04-.02,.09-.03,.14-.04,.05,0,.1,0,.14,0,.05,0,.09,.02,.13,.03,.02,0,.05,.02,.07,.03,.02,.01,.04,.03,.06,.04,.07,.06,.13,.13,.17,.22,.04,.08,.06,.18,.04,.28-.02,.1-.07,.18-.13,.24-.06,.06-.14,.1-.21,.12-.04,.01-.08,0-.09-.04-.01-.03,0-.07,.03-.09h0Z"/>
              <g class="cls-5">
                <path class="cls-2" d="M23.06,36.27s.09-.14,.26-.08c.26,.1,.15,.35,.08,.39-.03,.02,.08-.4-.34-.3"/>
              </g>
              <g class="cls-5">
                <path class="cls-2" d="M25.55,36.13s.09-.14,.26-.08c.26,.1,.15,.35,.08,.38-.03,.02,.08-.4-.34-.3"/>
              </g>
              <path class="cls-2" d="M27.56,50.48s-.33,.08-.92,.18c-.42,.07-.98,.15-1.66,.23-.74,.08-1.61,.15-2.59,.17-.32,0-.66,.02-1.01,.02-.21,0-.41,0-.6,0-.98-.02-1.85-.11-2.6-.22-.66-.1-1.23-.21-1.68-.32-.81-.19-1.25-.36-1.25-.36-.15-.81-.28-1.61-.38-2.38-.81-6.16-.09-10.93-.09-10.93,.47,.5,.72,.74,1.22,1.23,.17-.1,.31-.18,.44-.26,.35-.2,.62-.37,1.03-.64,.25,.23,.44,.41,.63,.58,.19,.17,.39,.34,.66,.57,.58-.38,.86-.58,1.42-.98,.22,.18,.4,.33,.57,.46,.24,.19,.46,.36,.78,.61,.36-.27,.6-.46,.87-.68,.14-.12,.3-.24,.48-.39,.56,.4,.84,.6,1.42,.98,.24-.21,.42-.36,.6-.52,.05-.04,.09-.08,.14-.12,.17-.15,.34-.3,.55-.51,.46,.29,.74,.46,1.13,.7,.11,.06,.22,.13,.35,.2,.5-.48,.75-.73,1.22-1.23,1.02,8.29-.74,13.62-.74,13.62"/>
              <path class="cls-29" d="M27.56,50.48s-.33,.08-.92,.18c-.42,.07-.98,.15-1.66,.23-.74,.08-1.61,.15-2.59,.17-.32,0-.66,.02-1.01,.02-.21,0-.41,0-.6,0-.98-.02-1.85-.11-2.6-.22-.66-.1-1.23-.21-1.68-.32-.81-.19-1.25-.36-1.25-.36-.15-.81-.28-1.61-.38-2.38,.61,.41,1.74,.86,3.82,1.05,3.65,.32,6.22-.67,7.31-3.22,.28-.65-3.71-.25-3.93-3.73-.11-1.76,3.69-2.49,2.85-4.07,.05-.04,.09-.08,.14-.12,.17-.15,.34-.3,.55-.51,.46,.29,.74,.46,1.13,.7,.11,.06,.22,.13,.35,.2,.5-.48,.75-.73,1.22-1.23,1.02,8.29-.74,13.62-.74,13.62"/>
              <path class="cls-29" d="M25.34,46.75c-.07,1.3-.19,2.65-.36,4.14-.74,.08-1.61,.15-2.59,.17-.32,0-.66,.01-1.01,.01-.21,0-.41,0-.6,0-.98-.02-1.85-.11-2.6-.22-.66-.1-1.23-.21-1.68-.32-.81-.19-1.25-.36-1.25-.36-.15-.81-.28-1.61-.38-2.38,.61,.41,1.74,.86,3.82,1.05,1.53,.14,2.88,.04,4-.31,1.11-.34,2.01-.93,2.66-1.79"/>
              <path class="cls-29" d="M25.4,45.22c-.67-.2-1.75-.47-2.5-1.26,0-1.24-.06-2.37-.14-3.4,1.02-.93,2.75-1.62,2.15-2.74,.05-.04,.09-.08,.14-.12,.3,2.81,.41,5.13,.35,7.52"/>
              <path class="cls-26" d="M16.19,48.4c.08,.68,.19,1.39,.31,2.14-.81-.19-1.25-.36-1.25-.36-.08-.41-.15-.82-.22-1.23-.01-.09-.03-.18-.04-.27-.02-.12-.04-.25-.06-.37-.01-.07-.02-.15-.03-.22-.01-.1-.03-.19-.04-.29,.3,.2,.73,.41,1.33,.6"/>
              <path class="cls-26" d="M20.77,51.07c-.98-.02-1.85-.11-2.6-.22-.08-.73-.15-1.42-.21-2.09,.23,.03,.46,.06,.72,.08,.63,.06,1.23,.07,1.79,.05,.07,.71,.17,1.44,.3,2.18"/>
              <path class="cls-26" d="M25.34,46.75c-.07,1.3-.19,2.65-.36,4.14-.74,.08-1.61,.15-2.59,.17,.12-.88,.22-1.72,.29-2.52,1.11-.34,2.01-.93,2.66-1.79"/>
              <path class="cls-26" d="M25.09,38.19c-.06-.12-.12-.24-.19-.36,.05-.04,.09-.08,.14-.12,.02,.16,.03,.32,.05,.48"/>
              <path class="cls-34" d="M16.49,50.54c-.81-.19-1.25-.36-1.25-.36-1.39-7.27-.48-13.32-.48-13.32,.47,.5,.72,.74,1.22,1.23,.17-.1,.31-.18,.44-.26-.72,4.73-.7,7.98,.07,12.7"/>
              <path class="cls-34" d="M20.77,51.08c-.98-.02-1.85-.11-2.6-.22-.56-4.85-.58-8.22-.08-13.08,.19,.17,.39,.34,.66,.57,.58-.38,.86-.58,1.42-.98,.22,.18,.4,.33,.57,.46-.38,3.91-.84,8.29,.02,13.24"/>
              <path class="cls-34" d="M24.97,50.89c-.74,.08-1.61,.15-2.59,.17,.83-5.98,.54-10.18,.02-13.31,.14-.12,.3-.24,.48-.39,.56,.4,.84,.6,1.42,.98,.3-.26,.52-.44,.74-.64,.52,4.89,.49,8.3-.07,13.19"/>
              <path class="cls-34" d="M25.34,46.75c-.07,1.3-.19,2.65-.36,4.14-.74,.08-1.61,.15-2.59,.17,.12-.88,.22-1.72,.29-2.52,1.11-.34,2.01-.93,2.66-1.79"/>
              <path class="cls-26" d="M25.4,45.22c-.67-.2-1.75-.47-2.5-1.26,0-1.24-.06-2.37-.14-3.4,1.02-.93,2.75-1.62,2.15-2.74,.05-.04,.09-.08,.14-.12,.3,2.81,.41,5.13,.35,7.52"/>
              <path class="cls-26" d="M16.49,50.54c-.81-.19-1.25-.36-1.25-.36-.08-.41-.15-.82-.22-1.23-.01-.09-.03-.18-.04-.27-.02-.12-.04-.25-.06-.37-.01-.07-.02-.15-.03-.22-.01-.1-.03-.19-.04-.29,.3,.2,.73,.41,1.33,.6,.08,.68,.19,1.39,.31,2.14"/>
              <path class="cls-26" d="M20.77,51.07c-.98-.02-1.85-.11-2.6-.22-.08-.73-.15-1.42-.21-2.09,.23,.03,.46,.06,.72,.08,.63,.06,1.23,.07,1.79,.05,.07,.71,.17,1.44,.3,2.18"/>
              <path class="cls-26" d="M25.34,46.75c-.07,1.3-.19,2.65-.36,4.14-.74,.08-1.61,.15-2.59,.17,.12-.88,.22-1.72,.29-2.52,1.11-.34,2.01-.93,2.66-1.79"/>
              <path class="cls-26" d="M25.09,38.19c-.06-.12-.12-.24-.19-.36,.05-.04,.09-.08,.14-.12,.02,.16,.03,.32,.05,.48"/>
              <path class="cls-26" d="M27.56,50.48s-.33,.08-.92,.18c.78-4.75,.81-8.02,.1-12.77,.11,.06,.22,.13,.35,.2,.5-.48,.75-.73,1.22-1.23,1.02,8.29-.74,13.62-.74,13.62"/>
              <path class="cls-13" d="M21.37,51.36c-3.74,0-6.13-.88-6.23-.92-.09-.03-.16-.11-.18-.21-1.38-7.24-.49-13.35-.48-13.41,.02-.1,.09-.19,.19-.22,.1-.03,.21,0,.28,.07,.43,.45,.66,.68,1.06,1.07,.48-.28,.77-.45,1.29-.78,.11-.07,.25-.06,.34,.03,.45,.42,.7,.64,1.12,1.01,.46-.31,.74-.5,1.24-.86,.1-.07,.24-.07,.34,.01,.47,.39,.74,.6,1.18,.93,.44-.34,.71-.54,1.18-.93,.1-.08,.24-.08,.34-.01,.5,.36,.77,.55,1.24,.86,.42-.36,.67-.59,1.12-1.01,.09-.09,.23-.1,.34-.03,.52,.33,.8,.5,1.29,.78,.4-.39,.64-.63,1.06-1.07,.07-.08,.19-.11,.29-.07,.1,.03,.18,.12,.19,.23,1.01,8.25-.73,13.68-.75,13.74-.03,.09-.1,.16-.2,.18-.1,.02-2.52,.61-6.25,.61Zm-5.89-1.39c.57,.19,2.76,.83,5.89,.83s5.38-.43,5.97-.56c.26-.89,1.52-5.71,.75-12.76-.26,.26-.48,.48-.82,.81-.09,.09-.22,.1-.33,.04-.54-.31-.84-.49-1.31-.79-.41,.38-.67,.61-1.14,1.01-.09,.08-.23,.09-.33,.02-.52-.34-.81-.54-1.26-.86-.43,.35-.71,.57-1.2,.94-.1,.07-.24,.07-.33,0-.49-.37-.77-.59-1.2-.94-.45,.32-.74,.52-1.26,.86-.1,.07-.24,.06-.33-.02-.47-.4-.73-.63-1.14-1.01-.47,.3-.77,.48-1.31,.79-.11,.06-.24,.05-.33-.04-.34-.33-.56-.55-.82-.81-.18,1.65-.57,6.69,.52,12.49Z"/>
              <path class="cls-14" d="M18.68,31.49l-2.85-2.79c1.56-3.03,3.68-1.77,3.72-1.26h.04c.77-.19,.9,.52,.6,.73,.14-.01,.21,.21,.02,.22,.56,.2,.42,.82-.11,.71,.17,.11,.17,.34-.05,.36,1.08,.48,.28,2.12-.69,1.31,.28,.59-.24,1.01-.75,.63,.02,.03,.04,.06,.06,.09"/>
              <g class="cls-5">
                <path class="cls-2" d="M18.27,27.5s.3-.41,.6-.3c.38,.14,.36,.57,.28,.65-.08,.08-.19-.56-.88-.35"/>
              </g>
              <path class="cls-28" d="M15.82,28.84s-.04,0-.06-.02c-.07-.04-.1-.12-.06-.19,1.08-2.11,2.41-2.1,2.93-2,.6,.12,1.03,.5,1.05,.79,0,.08-.05,.14-.13,.15-.08,0-.14-.05-.15-.13,0-.11-.3-.43-.83-.54-.57-.11-1.66-.02-2.63,1.85-.02,.05-.07,.08-.12,.08Z"/>
              <path class="cls-28" d="M19.01,31.69c-.09,0-.19-.02-.29-.06-.06,.02-.14,0-.17-.06-.01-.02-.03-.05-.05-.07-.04-.06-.03-.13,.01-.18,.05-.05,.13-.05,.18-.01,.18,.14,.37,.16,.5,.05,.13-.1,.14-.3,.04-.51-.03-.06-.01-.13,.04-.17,.05-.04,.12-.04,.17,0,.22,.19,.44,.24,.63,.15,.2-.1,.35-.35,.34-.61,0-.16-.06-.45-.43-.61-.06-.03-.09-.09-.08-.15,.01-.06,.06-.11,.13-.11,.02,0,.04,0,.04-.01,0-.02,0-.06-.06-.09-.06-.04-.08-.11-.06-.17,.02-.06,.09-.1,.16-.08,.15,.03,.27-.02,.3-.12,.03-.1-.04-.25-.26-.33-.06-.02-.1-.09-.09-.15,0-.03,.02-.06,.04-.08-.03-.02-.05-.04-.06-.07-.02-.06,0-.13,.05-.16,.09-.06,.12-.21,.07-.32-.07-.17-.28-.23-.55-.16-.07,.02-.15-.03-.17-.1-.02-.07,.03-.15,.1-.17,.49-.11,.77,.09,.87,.32,.08,.17,.06,.37-.02,.51,0,0,0,.01,.01,.02,.04,.06,.06,.14,.04,.21,.22,.15,.29,.38,.24,.57-.04,.14-.15,.27-.34,.32,0,.05,0,.09,0,.14,0,.03-.02,.06-.03,.08,.24,.18,.38,.44,.39,.74,0,.37-.2,.72-.5,.86-.13,.06-.35,.12-.62,0,0,.2-.06,.37-.21,.49-.1,.08-.23,.13-.36,.13Z"/>
              <path class="cls-10" d="M18.94,29c.05-.37,.66-.45,.79-.04,.09,.29-.19,.53-.38,.51,.19,.16,.43,.54,.07,.9-.39,.4-1.16,.01-.95-.64l.47-.72Z"/>
              <path class="cls-14" d="M18.81,29.11c.04-.29,.51-.35,.62-.03,.07,.23-.14,.41-.3,.39,.15,.13,.33,.42,.06,.7-.3,.31-.9,0-.74-.5l.37-.56Z"/>
              <path class="cls-28" d="M18.74,29.1c0-.07,.03-.15,.08-.21,.05-.06,.12-.1,.19-.12,.07-.02,.15-.03,.23-.01,.08,.02,.16,.06,.22,.12,.06,.06,.1,.14,.11,.22,.02,.09,0,.18-.04,.26-.04,.08-.1,.14-.17,.19-.07,.04-.16,.08-.26,.06h0l.11-.24c.08,.06,.15,.14,.2,.24,.05,.1,.08,.22,.06,.33-.02,.12-.08,.22-.15,.3-.07,.08-.17,.16-.28,.18-.11,.03-.23,.02-.33,0-.1-.03-.2-.09-.27-.18-.07-.08-.12-.19-.13-.29-.01-.11,.02-.21,.06-.29,.02-.03,.06-.05,.09-.03,.02,.01,.04,.04,.04,.06h0c0,.09,0,.16,.03,.22,.02,.06,.06,.11,.1,.15,.09,.08,.22,.11,.33,.08h.04s.02-.03,.03-.03c.02-.02,.04-.03,.06-.06,.04-.05,.07-.1,.08-.15,0-.05,0-.1-.02-.16-.02-.06-.07-.11-.11-.16-.06-.06-.06-.15,0-.2,.03-.03,.06-.04,.1-.04h0s.02,0,.03,0c.01,0,.03-.01,.04-.02,.03-.02,.05-.04,.06-.07,.01-.03,.02-.05,.02-.08,0-.03-.02-.07-.03-.09-.03-.05-.11-.08-.2-.08-.08,.01-.16,.06-.19,.14h0s-.05,.06-.09,.05c-.03-.01-.05-.04-.05-.07"/>
              <g class="cls-5">
                <path class="cls-2" d="M19.1,29.82s.04,.16-.12,.24c-.25,.12-.36-.14-.33-.21,0-.03,.23,.34,.45-.03"/>
              </g>
              <path class="cls-31" d="M31.48,50.01l-.2,2.58c-.25,.79-1.36,1.34-2.43,.55-.48-.36-.96-1.2-1.3-2.24-.58-1.77-.73-4.08,.24-5.37,1.01-1.34,3.05-1.11,3.51,.71,.19,.74,.09,1.76,.11,2.79h0c0,.33,.03,.65,.07,.97"/>
              <path class="cls-35" d="M31.48,50.01s.06,.84,.05,1.62c0,.51-.25,.96-.25,.96-.25,.79-1.36,1.34-2.43,.55-.48-.36-.96-1.2-1.3-2.24,.35,.45,.87,.87,1.6,.94,1.94,.18,2.25-2.75,2.26-2.81,0,.32,.03,.65,.07,.97"/>
              <path class="cls-27" d="M31.41,52.63c-.03,.23-.14,.45-.29,.63-.15,.18-.35,.32-.57,.42-.22,.09-.46,.13-.7,.12-.24,0-.47-.06-.69-.15-.11-.05-.21-.1-.31-.16-.05-.03-.1-.06-.14-.09-.05-.03-.1-.07-.14-.11-.18-.16-.32-.33-.45-.51-.25-.36-.44-.74-.6-1.13-.32-.78-.53-1.59-.64-2.42-.1-.83-.11-1.68,.08-2.52,.1-.42,.26-.83,.5-1.21,.24-.37,.59-.7,1.01-.9,.41-.2,.9-.28,1.36-.2,.46,.08,.9,.33,1.21,.68,.31,.35,.5,.79,.58,1.22,.04,.22,.06,.43,.07,.64,0,.21,.01,.42,0,.62,0,.41-.03,.81-.05,1.21-.02,.4-.03,.8-.02,1.19h0c0,.08-.06,.14-.14,.14-.07,0-.12-.04-.14-.11-.1-.4-.14-.82-.17-1.23-.02-.41-.02-.82-.03-1.22,0-.4-.02-.79-.1-1.15-.07-.36-.23-.69-.46-.94-.23-.26-.54-.43-.87-.49-.33-.06-.69-.01-1.01,.13-.32,.15-.59,.39-.79,.7-.2,.3-.34,.66-.42,1.03-.17,.74-.16,1.54-.06,2.31,.05,.39,.13,.77,.24,1.15,.1,.38,.23,.75,.38,1.11,.15,.36,.33,.71,.54,1.01,.11,.15,.22,.29,.35,.4,.03,.03,.06,.05,.1,.08,.04,.03,.07,.05,.11,.07,.07,.05,.15,.09,.23,.12,.63,.3,1.38,.05,1.76-.57h0c.04-.07,.13-.09,.19-.05,.05,.03,.07,.08,.07,.14"/>
              <path class="cls-2" d="M28.17,50.12c.09,.95,.59,1.68,1.12,1.63,.52-.05,.87-.87,.78-1.82-.09-.95-.59-1.68-1.12-1.63-.52,.05-.87,.86-.78,1.82"/>
              <path class="cls-2" d="M29.65,47.69c-.01,.35,.14,.65,.33,.65,.19,0,.36-.28,.37-.63,.01-.35-.14-.65-.33-.65-.19,0-.36,.28-.37,.63"/>
              <path class="cls-2" d="M28.55,46.79c-.01,.49,.19,.9,.46,.9,.27,0,.5-.38,.52-.87,.02-.49-.19-.9-.46-.9-.27,0-.5,.38-.52,.87"/>
              <path class="cls-2" d="M27.77,47.59c0,.33,.13,.59,.31,.6,.18,0,.33-.25,.34-.58,0-.33-.13-.59-.31-.6-.18,0-.33,.25-.34,.58"/>
              <path class="cls-15" d="M31.2,42.2s-1.44,1.81-4.7,1.62c-.2-.01-.41-.03-.62-.06-3.04-.38-4.38-2.27-3.62-4.09l.02-.04c.52-1.2,2.33-1.42,4.17-1.5,.38-.02,.77-.03,1.15-.04,1.39-.05,1.98-.92,1.98-.92l1.59,4.89,.04,.14Z"/>
              <path class="cls-20" d="M31.2,42.2s-1.44,1.81-4.7,1.62c-.2-.01-.41-.03-.62-.06-3.04-.38-4.38-2.27-3.62-4.09,.12,.49,.54,1.33,1.9,2.3,2.27,1.61,6.05,.42,7,.08l.04,.14Z"/>
              <path class="cls-35" d="M26.95,42.8c-.12,.41-.27,.74-.45,1.02-.2-.01-.41-.03-.62-.06-.08,0-.15-.02-.23-.03-.07-.01-.15-.02-.22-.04-.11-.02-.22-.04-.32-.07-.07-.02-.14-.03-.21-.05-.03,0-.07-.02-.1-.03-.07-.02-.13-.04-.2-.06-.03-.01-.06-.02-.1-.03-.06-.02-.12-.04-.18-.07-.06-.02-.12-.05-.18-.07-.03-.01-.06-.02-.09-.04-.26-.11-.49-.24-.7-.38-.21-.14-.39-.3-.55-.46-.52-.53-.77-1.17-.75-1.84,0-.02,0-.04,0-.05,0,0,0-.02,0-.03,0-.03,0-.06,0-.09,0-.02,0-.04,0-.06,0-.04,.01-.08,.02-.13,0-.02,0-.04,.01-.06,0-.02,0-.04,.01-.06,0-.02,0-.04,.01-.06,0-.02,.01-.04,.02-.06,.02-.07,.04-.13,.06-.2,.01-.04,.03-.08,.05-.12,.12,.49,.54,1.33,1.9,2.3,.8,.57,1.8,.79,2.79,.82"/>
              <path class="cls-31" d="M27.12,41.94c-.09,.82-.33,1.43-.61,1.88-.2-.01-.41-.03-.62-.06-3.06-.39-4.39-2.29-3.61-4.13,.52-1.2,2.33-1.42,4.17-1.5,.5,.69,.9,1.86,.68,3.8"/>
              <path class="cls-35" d="M26.95,42.8c-.12,.41-.27,.74-.45,1.02-.2-.01-.41-.03-.62-.06-.08,0-.15-.02-.23-.03-.07-.01-.15-.02-.22-.04-.11-.02-.22-.04-.32-.07-.07-.02-.14-.03-.21-.05-.03,0-.07-.02-.1-.03-.07-.02-.13-.04-.2-.06-.03-.01-.06-.02-.1-.03-.06-.02-.12-.04-.18-.07-.06-.02-.12-.05-.18-.07-.03-.01-.06-.02-.09-.04-.26-.11-.49-.24-.7-.38-.21-.14-.39-.3-.55-.46-.52-.53-.77-1.17-.75-1.84,0-.02,0-.04,0-.05,0,0,0-.02,0-.03,0-.03,0-.06,0-.09,0-.02,0-.04,0-.06,0-.04,.01-.08,.02-.13,0-.02,0-.04,.01-.06,0-.02,0-.04,.01-.06,0-.02,0-.04,.01-.06,0-.02,.01-.04,.02-.06,.02-.07,.04-.13,.06-.2,.01-.04,.03-.08,.05-.12,.12,.49,.54,1.33,1.9,2.3,.8,.57,1.8,.79,2.79,.82"/>
              <path class="cls-27" d="M29.68,37.25c-.03,.06-.06,.1-.1,.15-.03,.05-.07,.09-.11,.14-.08,.09-.16,.17-.25,.24-.18,.15-.38,.27-.59,.36l-.08,.03-.08,.03c-.05,.02-.11,.04-.16,.06l-.17,.04c-.06,.01-.11,.02-.17,.03-.11,.02-.23,.03-.34,.04-.11,0-.21,0-.32,.02-.84,.04-1.68,.07-2.49,.19-.4,.06-.8,.15-1.17,.28-.36,.14-.7,.33-.91,.59-.03,.03-.05,.07-.08,.1-.02,.04-.04,.07-.06,.11-.02,.04-.04,.07-.05,.12l-.05,.13c-.06,.18-.1,.36-.12,.54-.04,.37,.02,.74,.18,1.07,.15,.34,.39,.64,.68,.89,.15,.12,.31,.24,.47,.34,.17,.1,.34,.19,.53,.27,.36,.16,.75,.27,1.15,.35,.1,.02,.2,.04,.3,.06,.1,.01,.2,.03,.3,.04,.2,.02,.41,.04,.61,.06,.81,.05,1.63-.04,2.4-.28,.38-.12,.75-.28,1.1-.47,.09-.05,.17-.1,.26-.15l.26-.16c.08-.06,.17-.11,.25-.17,.08-.06,.16-.12,.24-.18h.02c.06-.06,.15-.05,.19,.01,.04,.05,.04,.11,0,.16-.51,.76-1.32,1.22-2.15,1.49-.84,.28-1.73,.38-2.6,.34-.22-.01-.43-.03-.65-.05-.11,0-.22-.03-.33-.04-.11-.02-.22-.04-.32-.06-.43-.09-.86-.21-1.27-.39-.21-.09-.41-.19-.6-.31-.19-.12-.38-.25-.56-.4-.35-.3-.65-.67-.85-1.1-.2-.43-.27-.93-.22-1.4,.03-.24,.08-.47,.16-.69l.06-.16c.02-.05,.05-.11,.08-.17,.03-.05,.06-.11,.1-.16,.04-.05,.07-.1,.11-.15,.16-.19,.35-.35,.55-.48,.2-.13,.41-.22,.63-.3,.43-.15,.86-.24,1.29-.3,.86-.12,1.71-.13,2.56-.16,.1,0,.21,0,.31-.01,.1,0,.19,0,.29-.03,.19-.02,.38-.07,.56-.12,.18-.06,.36-.14,.53-.23,.08-.05,.17-.1,.24-.16,.04-.03,.08-.06,.12-.09,.04-.03,.08-.06,.11-.09h.02c.06-.06,.15-.06,.2,0,.04,.04,.04,.11,.02,.16"/>
              <path class="cls-31" d="M18.56,27.46c1.18,1,.97,4.02-2.47,5.44-.02,0-.04,.02-.06,.02,0,0-1.05,.39-1.74,.83-.69,.44-.93,.94-.93,.94-1.17-2.85,.09-5.03,1.14-6.11,1.07-1.11,2.41-1.47,3.3-1.38,.33,.03,.59,.13,.76,.27"/>
              <g class="cls-5">
                <path class="cls-2" d="M13.6,31.8c-.18-.06,.36-2.2,1.91-3.21,.97-.63,.1,.25-.58,1.18-.93,1.27-1.15,2.08-1.33,2.03"/>
              </g>
              <path class="cls-35" d="M18.56,27.46c1.18,1,.97,4.02-2.47,5.44,.07-.57,2.02-1.74,2.23-3.79,.1-.98-.16-1.57-.52-1.91,.33,.03,.59,.13,.76,.27"/>
              <path class="cls-27" d="M13.1,34.8c-.31-.76-.49-1.6-.49-2.44,0-.05,0-.1,0-.16v-.16c.02-.1,.03-.21,.04-.31,.04-.21,.06-.42,.12-.62,.04-.21,.12-.4,.18-.6,.08-.19,.15-.39,.25-.57,.19-.37,.41-.73,.66-1.06,.06-.08,.13-.16,.2-.24,.07-.08,.14-.15,.21-.23,.15-.15,.3-.3,.46-.43,.65-.53,1.44-.91,2.29-1.04,.21-.03,.43-.05,.65-.04,.22,.01,.44,.04,.67,.12,.11,.04,.23,.09,.34,.17,.03,.02,.06,.04,.08,.06l.06,.06s.08,.08,.12,.13c.15,.18,.27,.38,.36,.59,.09,.21,.14,.43,.17,.65,.03,.22,.03,.44,.02,.66-.03,.44-.16,.86-.34,1.25-.09,.19-.2,.38-.32,.56-.06,.09-.13,.17-.19,.26-.07,.08-.14,.16-.21,.24-.14,.15-.3,.3-.46,.44-.08,.07-.16,.13-.25,.19l-.13,.09s-.09,.06-.13,.09c-.35,.23-.72,.41-1.1,.56l-.28,.11-.28,.11c-.19,.07-.37,.14-.56,.2-.07,.03-.15-.01-.18-.09-.02-.06,0-.13,.06-.17,.17-.1,.35-.2,.53-.29l.27-.14,.26-.13c.35-.18,.68-.37,.98-.6,.04-.03,.08-.06,.12-.08l.11-.09c.08-.06,.15-.12,.21-.18,.14-.12,.27-.26,.4-.4,.25-.28,.45-.59,.61-.92,.16-.33,.26-.69,.29-1.05,.02-.18,.02-.36,0-.54-.02-.18-.06-.35-.13-.51-.06-.16-.15-.31-.26-.43-.03-.03-.05-.06-.08-.09l-.04-.04s-.03-.02-.04-.03c-.05-.04-.12-.07-.19-.1-.15-.06-.33-.08-.5-.09-.18,0-.36,0-.54,.03-.73,.11-1.43,.44-2.01,.92-.15,.12-.28,.25-.41,.38-.06,.07-.13,.14-.19,.21-.06,.07-.12,.15-.18,.22-.24,.3-.44,.62-.6,.96-.09,.17-.16,.35-.23,.52-.06,.18-.12,.36-.16,.54-.05,.18-.07,.37-.11,.56-.01,.09-.02,.19-.02,.28v.14s-.01,.09-.01,.14c0,.75,.15,1.51,.44,2.22,.06,.14,0,.3-.15,.36-.14,.06-.3,0-.36-.15"/>
              <path class="cls-27" d="M16.89,29.98c.05-.02,.1-.03,.14-.04,.05,0,.09-.02,.14-.02,.05,0,.09,0,.14-.01,.05,0,.09,0,.14,0,.19,0,.39,.05,.57,.13,.18,.08,.35,.2,.48,.35l.05,.05s.03,.04,.05,.06l.09,.12c.05,.08,.1,.17,.15,.25,.08,.13,.03,.3-.11,.38-.13,.08-.3,.03-.38-.11,0,0,0-.02-.01-.03v-.04c-.04-.07-.07-.14-.1-.2l-.05-.09s-.02-.03-.03-.05l-.03-.04c-.08-.12-.18-.21-.3-.29-.12-.08-.26-.13-.41-.16-.04,0-.08-.01-.11-.01-.04,0-.08,0-.12,0-.04,0-.08,0-.12,0-.04,0-.08,0-.11,.01h-.01c-.08,.01-.15-.04-.16-.11-.01-.07,.03-.13,.1-.15"/>
              <path class="cls-27" d="M17.56,28.02c.1-.02,.18-.04,.27-.05,.09,0,.18-.01,.27,0,.18,0,.37,.04,.55,.11,.04,.02,.09,.04,.13,.06l.13,.07s.08,.06,.12,.09c.02,.02,.04,.03,.06,.05l.05,.05s.07,.07,.1,.11l.09,.12s.05,.08,.07,.13l.07,.13c.07,.14,.02,.31-.12,.38-.14,.07-.31,.02-.38-.12,0-.01-.01-.02-.02-.04v-.03c-.05-.13-.1-.26-.18-.36l-.03-.04s-.02-.02-.03-.04c-.02-.02-.04-.05-.07-.07l-.08-.06s-.06-.04-.09-.05c-.12-.07-.26-.12-.41-.14-.07-.01-.15-.02-.23-.03-.07,0-.16,0-.22,0h-.01c-.08,0-.14-.05-.15-.12,0-.07,.04-.13,.11-.15"/>
              <path class="cls-27" d="M23.88,39.7c-.15,0-.3,0-.45,.03-.15,.02-.3,.05-.44,.09-.14,.04-.27,.1-.38,.17-.11,.07-.2,.16-.26,.25h0c-.09,.13-.26,.16-.39,.08-.13-.09-.16-.26-.08-.39,0-.01,.02-.02,.03-.03,.14-.15,.31-.26,.48-.34,.17-.08,.34-.11,.52-.14,.17-.03,.34-.03,.51-.03,.17,0,.33,.02,.5,.04,.08,.01,.13,.08,.11,.16-.01,.07-.07,.12-.14,.12h0Z"/>
              <path class="cls-27" d="M24.16,41.63c-.14,.01-.29,.04-.43,.08-.14,.03-.28,.08-.41,.13-.13,.05-.25,.12-.37,.19-.11,.07-.21,.16-.29,.25h0c-.1,.12-.28,.13-.39,.03-.11-.1-.12-.28-.02-.39,0-.01,.02-.02,.03-.03,.14-.12,.29-.21,.45-.28,.16-.07,.32-.12,.48-.16,.16-.04,.32-.06,.48-.07,.16-.01,.32-.02,.48,0,.08,0,.14,.07,.13,.15,0,.07-.06,.12-.12,.13h0Z"/>
              <g class="cls-5">
                <path class="cls-2" d="M23.25,39.8c-.09-.02,.14-.42,.77-.71,.64-.3,2.01-.34,2.16-.2,.09,.08-1.02,.19-1.87,.47-.57,.19-.96,.46-1.05,.44"/>
              </g>
              <g class="cls-5">
                <path class="cls-2" d="M19.22,12.07c-.09-.13,1.73-1.55,5.77-1.77,3.36-.18,5.84,.7,5.79,.9-.05,.2-3.66-.45-7.32,.12-2.94,.46-4.18,.85-4.25,.75"/>
              </g>
              <path class="cls-29" d="M19.63,26.57c.8,.48,1.59-.17,1.95-.65,0,0,.85,1.35,2.01,.82,.41-.19,.95-.6,.96-.93-2.1,1.06-3.05-1.65-3.05-1.65-.4,.54-1.26,2.23-2.39,1.7,0,.27,.23,.54,.52,.71"/>
              <path class="cls-27" d="M21.59,24.45c0,.12,0,.25,0,.37,0,.12,.03,.25,.05,.37,.02,.12,.05,.24,.09,.35,.03,.11,.08,.22,.13,.33h0c.06,.13,0,.28-.12,.34-.13,.06-.27,0-.33-.12,0-.01-.01-.02-.01-.04-.04-.14-.07-.28-.09-.41-.02-.14-.03-.28-.03-.41,0-.14,0-.27,.01-.41,.01-.14,.03-.27,.06-.4,.01-.07,.08-.11,.15-.1,.06,.01,.1,.07,.1,.13h0Z"/>
              <path class="cls-27" d="M23.54,24.26c-.07,.36-1.39,.99-2.12,.95-.78-.04-1.59-.71-1.67-1.07-.1-.41,.58-.87,2.11-.75,1.25,.1,1.76,.47,1.68,.87"/>
              <g class="cls-23">
                <path class="cls-2" d="M21.81,23.73c.02,.11-.25,.24-.48,.24-.13,0-.58,0-.61-.12-.03-.12,.1-.23,.52-.26,.38-.03,.54,.04,.57,.15"/>
              </g>
              <path class="cls-27" d="M19.11,25.21c.05,.3,.13,.62,.27,.87,.07,.13,.15,.23,.24,.29,.02,.02,.04,.03,.07,.04,0,0,.03,.01,.05,.02,.02,0,.03,.01,.05,.02,.07,.02,.13,.04,.2,.05,.27,.05,.54,0,.79-.13,.25-.13,.48-.33,.67-.56l.2-.28,.21,.31s.04,.05,.06,.08c.02,.03,.05,.06,.07,.09,.05,.06,.1,.11,.16,.16,.11,.1,.23,.19,.35,.26,.25,.14,.53,.2,.82,.15,.14-.03,.29-.07,.41-.14,.13-.07,.24-.16,.35-.27,.11-.11,.2-.24,.29-.37,.08-.13,.16-.28,.22-.42h0c.03-.08,.12-.12,.19-.09,.07,.03,.11,.11,.09,.18-.05,.18-.12,.34-.2,.51-.08,.16-.18,.32-.3,.46-.12,.14-.26,.28-.43,.38-.08,.05-.18,.1-.26,.13-.09,.04-.18,.06-.28,.09-.19,.05-.39,.06-.59,.03-.2-.02-.39-.09-.56-.18-.17-.09-.33-.21-.46-.34-.07-.07-.13-.13-.19-.21-.03-.04-.06-.07-.09-.11-.03-.04-.05-.08-.08-.13l.42,.02h0c-.21,.3-.48,.56-.82,.73-.34,.18-.75,.25-1.14,.16-.09-.02-.19-.05-.28-.08-.02,0-.04-.02-.07-.03-.02-.01-.04-.02-.07-.03-.05-.03-.1-.06-.14-.09-.18-.14-.28-.32-.36-.49-.07-.18-.11-.35-.14-.53-.02-.18-.03-.35-.02-.53,0-.08,.08-.15,.16-.14,.07,0,.13,.06,.14,.12h0Z"/>
            </g>
            <ellipse class="cls-27" cx="28.5" cy="23.59" rx="2.6" ry="2.26" transform="translate(3.1 50.49) rotate(-86.25)"/>
            <ellipse class="cls-2" cx="27.86" cy="23.17" rx=".93" ry=".74" transform="translate(2.91 49.44) rotate(-86.22)"/>
            <g class="cls-12">
              <ellipse class="cls-2" cx="29.16" cy="24.56" rx=".63" ry=".41" transform="translate(2.72 52.02) rotate(-86.19)"/>
            </g>
            <ellipse class="cls-27" cx="16.33" cy="23.42" rx="2.27" ry="1.97" transform="translate(-8.1 38.19) rotate(-86.25)"/>
            <ellipse class="cls-2" cx="15.78" cy="23.05" rx=".81" ry=".64" transform="translate(-8.26 37.27) rotate(-86.22)"/>
            <g class="cls-12">
              <ellipse class="cls-2" cx="16.91" cy="24.26" rx=".55" ry=".36" transform="translate(-8.42 39.52) rotate(-86.19)"/>
            </g>
          </g>
        </g>
      </g>
    </g>
  </g>
</svg>