<?xml version="1.0" encoding="UTF-8"?>
<svg xmlns="http://www.w3.org/2000/svg" xmlns:xlink="http://www.w3.org/1999/xlink" viewBox="0 0 120 120">
  <defs>
    <style>
      .cls-1 {
        fill: url(#linear-gradient-2);
      }

      .cls-2 {
        fill: #f6b57f;
      }

      .cls-2, .cls-3, .cls-4, .cls-5, .cls-6, .cls-7, .cls-8, .cls-9, .cls-10, .cls-11, .cls-12, .cls-13, .cls-14 {
        fill-rule: evenodd;
      }

      .cls-15 {
        fill: #a7a9ac;
      }

      .cls-15, .cls-16 {
        opacity: .5;
      }

      .cls-15, .cls-17, .cls-18, .cls-19 {
        mix-blend-mode: overlay;
      }

      .cls-3, .cls-16 {
        fill: #fff;
      }

      .cls-20 {
        fill: #68e1eb;
      }

      .cls-20, .cls-21, .cls-22 {
        mix-blend-mode: multiply;
      }

      .cls-4 {
        fill: #fdd6ad;
      }

      .cls-23 {
        isolation: isolate;
      }

      .cls-21 {
        fill: #a4edf3;
      }

      .cls-5 {
        fill: #0d305c;
      }

      .cls-6 {
        fill: #cfd6de;
      }

      .cls-24, .cls-25 {
        fill: #2b2829;
      }

      .cls-24, .cls-26 {
        mix-blend-mode: screen;
      }

      .cls-17 {
        fill: #848689;
      }

      .cls-27 {
        fill: #dcc2a7;
      }

      .cls-7 {
        fill: #e9a991;
      }

      .cls-8 {
        fill: #da7047;
      }

      .cls-18 {
        fill: #8c9699;
      }

      .cls-22 {
        opacity: .3;
      }

      .cls-9 {
        fill: #c37332;
      }

      .cls-10 {
        fill: #fefefe;
      }

      .cls-11 {
        fill: #b1634a;
      }

      .cls-12 {
        fill: #fad6b7;
      }

      .cls-13 {
        fill: #f08429;
      }

      .cls-14 {
        fill: #0e3059;
      }

      .cls-28 {
        fill: url(#linear-gradient);
      }

      .cls-19 {
        fill: #8c9899;
      }
    </style>
    <linearGradient id="linear-gradient" x1="120" y1="63.81" x2="10.21" y2="63.81" gradientUnits="userSpaceOnUse">
      <stop offset="0" stop-color="#cf965b"/>
      <stop offset=".25" stop-color="#ca9257"/>
      <stop offset=".51" stop-color="#be864c"/>
      <stop offset=".78" stop-color="#a9733a"/>
      <stop offset="1" stop-color="#925d26"/>
    </linearGradient>
    <linearGradient id="linear-gradient-2" x1="114.89" y1="59.05" x2="2.55" y2="59.05" gradientUnits="userSpaceOnUse">
      <stop offset="0" stop-color="#e8b886"/>
      <stop offset=".25" stop-color="#e3b482"/>
      <stop offset=".5" stop-color="#d7a877"/>
      <stop offset=".76" stop-color="#c29464"/>
      <stop offset="1" stop-color="#a97c4e"/>
    </linearGradient>
  </defs>
  <g class="cls-23">
    <g id="_Слой_2" data-name="Слой 2">
      <g id="_Слой_1-2" data-name="Слой 1">
        <g>
          <g>
            <path class="cls-28" d="M113.42,12.53c-3.28-2.99-8.27-4.91-13.84-4.91H28.09c-9.85,0-17.87,5.98-17.87,13.33V104.76c0,4.16,2.57,7.88,6.58,10.33,3.28,2.99,8.27,4.91,13.84,4.91H102.13c9.85,0,17.87-5.98,17.87-13.33V22.86c0-4.16-2.57-7.88-6.58-10.33Z"/>
            <path class="cls-1" d="M108.31,8.72c-.76-.7-1.62-1.34-2.55-1.9-3.28-2.99-8.27-4.91-13.84-4.91H20.43C10.57,1.9,2.55,7.89,2.55,15.24V99.05c0,4.16,2.57,7.88,6.58,10.33,.76,.7,1.62,1.34,2.55,1.9,3.28,2.99,8.27,4.91,13.84,4.91H97.02c9.85,0,17.87-5.98,17.87-13.33V19.05c0-4.16-2.57-7.88-6.58-10.33Z"/>
            <path class="cls-27" d="M89.36,0H17.87C8.02,0,0,5.98,0,13.33V97.14c0,7.35,8.02,13.33,17.87,13.33H89.36c9.85,0,17.87-5.98,17.87-13.33V13.33c0-7.35-8.02-13.33-17.87-13.33Z"/>
          </g>
          <path class="cls-19" d="M11.04,26.88c-.03-5.35,.31-11.35,5.56-15,3.98-2.76,9.76-3.4,15.18-3.73,12.53-.78,25.17-.67,37.67,.33,6.19,.5,12.74,1.34,17.39,4.42,6.92,4.59,7.37,12.4,7.31,19.3-.15,17.33-.29,34.66-.44,51.98-.03,4.12-.14,8.46-2.89,12.03-2.89,3.76-8.35,6.1-13.99,7.12-5.64,1.03-11.53,.9-17.33,.76-9.66-.23-19.33-.45-28.93-1.34-5.24-.48-17.29-.34-19.11-4.97-1.24-3.15-.12-7.78-.14-11.07-.02-3.78-.04-7.56-.05-11.34-.04-7.56-.07-15.12-.11-22.68-.04-8.61-.08-17.22-.12-25.83Z"/>
          <path class="cls-18" d="M38.72,38.08c-6.1-.74-12.27-2.23-16.76-5.39-4.49-3.16-6.87-8.31-4.46-12.55,1.68-2.95,5.38-5.05,9.39-6.19,4.01-1.14,8.35-1.44,12.64-1.67,10.76-.56,21.6-.72,32.29,.32,4.16,.41,8.53,1.08,11.64,3.19,5.49,3.73,4.78,10.61,.75,15.26-9.99,11.57-30.04,8.9-45.49,7.03Z"/>
          <path class="cls-24" d="M18.29,86.46c-1.07-3.32-.91-6.78-.74-10.18,.69-14.15,1.39-28.3,2.08-42.45,.25-5.16,.73-10.77,5.27-14.67,4.12-3.54,10.69-4.84,16.92-5.49,7.57-.78,15.27-.87,22.87-.26,6.94,.56,14.43,1.99,18.56,6.19,3.51,3.56,3.8,8.28,3.97,12.69,.62,17.01,1.24,34.13-2.12,50.97-.75,3.74-1.88,7.72-5.56,10.31-4.21,2.96-10.56,3.29-16.35,3.28-9.48,0-18.97-.47-28.38-1.37-8.72-.83-14.21-1.86-16.52-9.01Z"/>
          <path class="cls-20" d="M89.36,1.9h-3.06c8.46,0,15.32,5.12,15.32,11.43V97.14c0,6.31-6.86,11.43-15.32,11.43h3.06c8.46,0,15.32-5.12,15.32-11.43V13.33c0-6.31-6.86-11.43-15.32-11.43Z"/>
          <path class="cls-15" d="M84.06,105.39c4.03-.48,8.04-2,10.11-4.63,1.6-2.04,1.88-4.5,1.97-6.86,.09-2.32,.04-4.64-.15-6.95-.13-1.52-.59-3.33-2.47-3.91-1.41-.43-3.1,.08-4.05,.97-.95,.89-1.29,2.05-1.39,3.19-.21,2.35,.47,4.73-.16,7.04-.72,2.66-3.15,4.93-6.05,6.58-2.13,1.2-7.73,2.34-8.45,4.14,2.69,1.08,7.58,.8,10.64,.43Z"/>
          <path class="cls-17" d="M7.28,5.08c-2.91,2.08-4.72,5.01-4.72,8.25V62.22c23.17-6.44,61.36-8.23,102.13,26.86v-28.07C50.37,52.59,21.36,24.7,7.28,5.08Z"/>
          <path class="cls-16" d="M6.71,17.31c.48-3.36,2.38-6.75,6.01-8.76,4.99-2.76,11.84-2.34,18.01-1.8,1.91,.17,4.34,.73,4.42,2.17,.06,1.25-1.81,2.02-3.45,2.27-4.12,.63-8.68-.07-12.36,1.44-2.67,1.09-4.37,3.18-5.26,5.34s-1.05,4.46-1.37,6.71c-.12,.87-.28,1.75-.83,2.52-2.02,2.8-3.85,.9-4.55-.69-1.12-2.53-.99-6.56-.61-9.2Z"/>
          <g class="cls-26">
            <path class="cls-25" d="M68.32,18.35c1.57,2.92-.33,6.23-4.24,7.4-3.91,1.17-8.35-.25-9.91-3.16-1.57-2.92,.33-6.23,4.24-7.4,3.91-1.17,8.35,.25,9.91,3.16Z"/>
            <ellipse class="cls-25" cx="77.52" cy="23.1" rx="4.1" ry="3.06"/>
            <path class="cls-25" d="M75.2,30.24c.7,1.31-.15,2.79-1.9,3.31-1.75,.52-3.74-.11-4.44-1.42-.7-1.31,.15-2.79,1.9-3.31,1.75-.52,3.74,.11,4.44,1.42Z"/>
          </g>
          <g class="cls-26">
            <path class="cls-25" d="M44.32,85.08c1.5,2.78-.32,5.95-4.05,7.06-3.73,1.12-7.97-.24-9.47-3.02-1.5-2.78,.32-5.95,4.05-7.06,3.73-1.12,7.97,.24,9.47,3.02Z"/>
            <path class="cls-25" d="M38.99,75.73c.41,.76-.09,1.63-1.11,1.93s-2.18-.06-2.59-.83c-.41-.76,.09-1.63,1.11-1.93,1.02-.31,2.18,.06,2.59,.83Z"/>
            <path class="cls-25" d="M28.69,77.81c.84,1.57-.18,3.35-2.28,3.97-2.1,.63-4.48-.13-5.33-1.7-.84-1.57,.18-3.35,2.28-3.97,2.1-.63,4.48,.13,5.33,1.7Z"/>
          </g>
          <g class="cls-22">
            <path class="cls-21" d="M95.67,67.4c1.49,2.76-.31,5.9-4.02,7.01-3.7,1.11-7.91-.23-9.39-3-1.49-2.76,.31-5.9,4.02-7.01,3.7-1.11,7.91,.23,9.39,3Z"/>
            <path class="cls-21" d="M101.1,55.51c1.09,2.02-.23,4.32-2.94,5.13-2.71,.81-5.79-.17-6.88-2.19-1.09-2.02,.23-4.32,2.94-5.13,2.71-.81,5.79,.17,6.88,2.19Z"/>
            <path class="cls-21" d="M85.43,58.1c.7,1.31-.15,2.79-1.9,3.31-1.75,.52-3.74-.11-4.44-1.42-.7-1.31,.15-2.79,1.9-3.31,1.75-.52,3.74,.11,4.44,1.42Z"/>
            <path class="cls-21" d="M19.98,47.91c.76,1.42-.16,3.02-2.06,3.59-1.9,.57-4.05-.12-4.81-1.54-.76-1.42,.16-3.02,2.06-3.59,1.9-.57,4.05,.12,4.81,1.54Z"/>
            <path class="cls-21" d="M21.16,39.54c.4,.74-.08,1.58-1.08,1.88-.99,.3-2.12-.06-2.52-.8-.4-.74,.08-1.58,1.08-1.88,.99-.3,2.12,.06,2.52,.8Z"/>
            <path class="cls-21" d="M12.36,37.78c.63,1.17-.13,2.51-1.71,2.98-1.57,.47-3.36-.1-3.99-1.27-.63-1.17,.13-2.51,1.71-2.98s3.36,.1,3.99,1.27Z"/>
          </g>
        </g>
      </g>
      <g id="_Слой_10" data-name="Слой 10">
        <g id="_Слой_12" data-name="Слой 12">
          <g>
            <path class="cls-13" d="M54.82,90.55l6.49-12.76s10.91,2.18,14.56,4.85c0,0,2.68,12.16-4.91,12.16,0,0-13.58,.16-16.15-4.25Z"/>
            <path class="cls-8" d="M66.48,79.34c.69,1.01,1.45,2.68,.91,4.6,0,0,2.07-1.92,2.13-3.92-.92-.28-1.94-.52-3.03-.68Z"/>
            <path class="cls-14" d="M54.34,90.3l6.49-12.76c.12-.23,.38-.34,.62-.27,.75,.15,11.12,2.29,14.73,4.94,.11,.08,.18,.2,.21,.32,0,.04,2.82,12.81-5.43,12.81h-.04c-.87,0-13.93,.02-16.56-4.52-.09-.16-.09-.35-.01-.51h0Zm7.26-11.92l-6.17,12.13c2.67,3.77,14.64,3.76,15.48,3.76,.02,0,.03,0,.05,0,6.38,0,4.73-9.78,4.43-11.32-3.29-2.26-11.85-4.15-13.79-4.56Z"/>
            <path class="cls-13" d="M69.93,91.75l.06-5.13s.99-7.78,6.37-7.99c5.24-.2,5.69,3.99,4.88,8.31-.71,3.81-3.35,8.32-7.64,8.06-1.39-.08-3.19-.71-3.67-3.25Z"/>
            <path class="cls-12" d="M77.74,85.41c-1.26-.89-2.85,.12-3.74,2-1.24,2.63-.24,5,1.33,5.3,1.38,.27,2.68-1,3.3-2.6,.65-1.66,.57-3.68-.88-4.71Z"/>
            <path class="cls-12" d="M77.89,84.51c1.62-.47,1.03-3.91-.51-2.82-1.11,.78-1.09,3.29,.51,2.82Z"/>
            <path class="cls-12" d="M74.57,82.79c-.71,.7-.96,2.72,.34,2.46,.63-.13,1.08-1,1.12-1.74,.02-.55-.19-1.02-.73-1.05-.27-.01-.54,.15-.73,.33Z"/>
            <path class="cls-12" d="M79.31,85.94c.66,.77,1.85-.48,1.85-1.52,0-.39-.17-.74-.58-.95-.6-.3-1.21,.29-1.43,.87-.17,.44-.21,1.16,.17,1.6Z"/>
            <path class="cls-14" d="M70.51,86.69c-.45,3.43-1.81-6.55,4.41-8.34,2.5-.72,5.52-.07,6.63,2.53,.72,1.67,.63,3.91,.21,6.15h0c-.41,2.2-1.44,4.62-3.04,6.31-1.54,1.63-3.34,2.37-5.58,2.17-4.32-.39-3.13-6.26-2.68-3.86,.33,1.75,1.39,2.71,3.18,2.82,1.74,.1,3.19-.66,4.32-1.85,1.45-1.53,2.39-3.75,2.76-5.77,.39-2.07,.48-4.09-.14-5.54-.46-1.08-1.36-1.85-2.9-2.07-4.42-.64-6.64,3.51-7.16,7.46Z"/>
            <path class="cls-9" d="M59.38,84.63c-.23-.19-.44-.39-.65-.61l-.03,.06-3.27,6.43c.12,.17,.25,.32,.4,.47,.13,.13,.27,.25,.42,.37,.31,.24,.65,.46,1.03,.66,.17,.09,.35,.18,.53,.26,.18,.08,.37,.16,.56,.24,.6,.24,1.25,.44,1.93,.61,.21,.05,.42,.11,.63,.16,.77,.18,1.56,.32,2.35,.44,.21,.03,.43,.06,.64,.09,.21,.03,.41,.05,.61,.08,2.84,.34,5.4,.38,6.18,.38-.58-.76-.77-1.71-.76-2.37,.01-.83,.31-1.22,.5-.25,.23,1.21,.81,2.05,1.74,2.48,.27,.13,.57,.22,.89,.28,.17,.03,.35,.05,.54,.06,.16,.01,.32,.01,.48,0,1.14-.04,2.14-.45,3-1.11-.45,0-1.07,.03-1.76-.1-.19-.03-.39-.08-.58-.14-.18-.06-.36-.12-.54-.21-1.07-.5-2.19-1.55-3.05-3.77-.23-.59-.46-1.6-.82-1.81-.06,.11-.12,.09-.17-.03-.04,0-.08,.02-.13,.05-.03,.02-.06,.04-.09,.06-1.95,1.13-5.22,.18-7.22-.74-.16-.07-.32-.15-.48-.23-.79-.38-1.53-.79-2.2-1.26-.24-.17-.48-.35-.7-.54Z"/>
            <g>
              <path class="cls-13" d="M50.36,84.17c-3.66,.22-2.83,.57-6.88,.23-10.5-.88-15.62-11.6-19.69-19.71-2.75-5.48-9.36-1.05-8.62,4.47,.8,6.03,14.07,17.17,20.02,19.57,11.44,4.6,19.65-2.75,15.17-4.55Z"/>
              <path class="cls-9" d="M21.85,63.22c.18-.1,.37-.2,.57-.29-3.11-2.45-7.89,1.48-7.26,6.22,.8,6.03,14.07,17.17,20.02,19.57,9.61,3.87,16.94-.7,16.39-3.33-.18,.12-.36,.24-.54,.35-2.02,1.25-4.26,1.83-6.59,1.9-.78,.02-1.57-.01-2.36-.1-1.86-.21-3.74-.7-5.59-1.41-.83-.32-1.64-.68-2.45-1.08-1.7-.84-3.35-1.85-4.89-2.98-.65-.47-1.28-.97-1.89-1.48-1.79-1.5-3.39-3.13-4.67-4.79-.47-.6-.9-1.21-1.29-1.81-2.79-4.38-3.22-8.64,.55-10.77Z"/>
              <path class="cls-8" d="M26.15,70.51c-2.23,1.08-4.89,2.85-6.29,5.53,.45,.51,.93,1.03,1.43,1.55,1.43-2.42,3.73-4.21,5.78-5.43-.32-.55-.63-1.1-.93-1.65Z"/>
              <path class="cls-8" d="M30.56,77.34c-1.49,1.14-3.21,2.77-4.3,4.83,.64,.53,1.28,1.04,1.92,1.53,.92-1.93,2.47-3.52,3.83-4.67-.51-.54-.99-1.11-1.46-1.7Z"/>
              <path class="cls-8" d="M35.59,82.16c-.9,1.43-1.79,3.16-2.29,5,.77,.43,1.48,.79,2.1,1.04,.12,.05,.24,.1,.36,.14,.45-1.8,1.24-3.49,2.05-4.89-.78-.38-1.52-.81-2.22-1.29Z"/>
              <path class="cls-8" d="M43.15,84.94c-.65,1.46-1.28,3.08-1.74,4.67,.89,.06,1.74,.05,2.54-.03,.34-1.66,.87-3.16,1.48-4.48-.51-.02-1.15-.06-1.99-.13-.1-.01-.19-.02-.29-.03Z"/>
              <path class="cls-11" d="M21.29,77.59c.38-.64,.82-1.24,1.3-1.79-.47-.6-.9-1.21-1.29-1.81-.56,.61-1.05,1.29-1.44,2.05,.45,.51,.93,1.03,1.43,1.55Z"/>
              <path class="cls-11" d="M26.8,81.27c-.17,.26-.33,.53-.48,.81-.02,.03-.03,.07-.05,.1,.14,.12,.29,.24,.44,.36,.5,.4,.99,.8,1.49,1.17,.28-.58,.61-1.12,.97-1.64-.17-.12-.34-.25-.51-.38-.17-.13-.34-.26-.51-.39-.17-.13-.34-.27-.5-.4-.12-.1-.25-.2-.37-.31-.16,.22-.32,.44-.47,.67Z"/>
              <path class="cls-11" d="M34.05,85.05c-.29,.68-.55,1.38-.75,2.1,.77,.43,1.48,.79,2.1,1.04,.12,.05,.24,.1,.36,.14,.19-.76,.44-1.5,.73-2.21-.83-.32-1.64-.68-2.45-1.08Z"/>
              <path class="cls-11" d="M42.09,87.54c-.25,.68-.48,1.38-.68,2.06,.89,.06,1.74,.05,2.54-.03,.13-.67,.3-1.32,.5-1.94-.78,.02-1.57-.01-2.36-.1Z"/>
              <path class="cls-14" d="M50.29,83.6c-1.27,.08-1.99,.17-2.58,.24-1.05,.13-1.59,.2-4.19-.02-9.92-.83-14.95-10.88-18.92-18.78l-.31-.62c-.8-1.6-1.93-2.45-3.13-2.73-.84-.19-1.71-.1-2.53,.23-.8,.31-1.55,.84-2.19,1.52-1.32,1.41-2.16,3.51-1.85,5.78,.38,2.85,3.32,6.7,7,10.3,4.46,4.36,10.03,8.38,13.38,9.72,6.32,2.54,11.72,1.53,14.66-.24,.8-.48,1.43-1.03,1.85-1.58,.47-.61,.71-1.24,.69-1.83-.03-.83-.54-1.54-1.6-1.96-.09-.04-.19-.05-.28-.04h0Zm-2.43,1.38c.55-.07,1.24-.16,2.4-.23,.51,.24,.76,.55,.77,.9,.01,.32-.14,.69-.45,1.09-.35,.44-.87,.89-1.55,1.3-2.7,1.63-7.71,2.55-13.64,.16-3.22-1.29-8.64-5.22-13-9.48-3.52-3.44-6.32-7.07-6.67-9.64-.25-1.9,.45-3.66,1.55-4.84,.52-.56,1.13-.99,1.77-1.24,.62-.24,1.25-.31,1.86-.17,.88,.2,1.73,.86,2.36,2.12l.31,.62c4.09,8.15,9.28,18.52,19.85,19.41,2.71,.23,3.29,.15,4.43,.01Z"/>
            </g>
            <path class="cls-13" d="M60.18,72.14l-.71-14.29s8.62,6.55,15.17,3.87l3.98-.98s1.74,5.56-3.33,12.11c0,0-4.96,6.06-15.11-.71Z"/>
            <path class="cls-14" d="M59.64,72.12l-.7-14.25c-.02-.29,.21-.54,.51-.56,.14,0,.27,.04,.36,.12,.44,.33,8.52,6.28,14.62,3.79,.03-.01,.06-.02,.1-.03l3.95-.98c.28-.07,.56,.09,.64,.36,0,.02,1.83,5.82-3.42,12.59l-.02,.02s-5.26,6.42-15.81-.61c-.16-.1-.24-.28-.24-.46h0Zm.41-13.22l.64,12.94c9.47,6.18,14.05,.82,14.18,.67,4.01-5.18,3.61-9.67,3.34-11.12l-3.42,.84c-5.51,2.22-12.32-1.72-14.74-3.32Z"/>
            <path class="cls-9" d="M66.48,67.04c-.57,.02-1.21-.58-1.77-1.1-.13-.12-.25-.23-.37-.34,.17,.21,.38,.55,.59,1.02,.67,1.42,1.42,4.03,1.34,7.81,5.7,1.47,8.5-1.8,8.61-1.92,1.16-1.5,1.95-2.93,2.48-4.26-1.43,1.46-3.79,3.16-5.01,3.6-1.46,.52-2.68-.84-3.46-.87-1.95-.07-2-3.95-2.41-3.94Z"/>
            <path class="cls-13" d="M59.32,53.7l-18.87,3c4.39,8.18-8.67,15.63-10.13,27.04-.53,4.13,.38,8.65,3.8,11.36,7.95,6.29,20.79,.99,26.67-5.56,4.83-5.38,6.32-17.68,3.77-24,0,0-2.4-8.73-5.24-11.84Z"/>
            <path class="cls-13" d="M48.31,73.99c4.99,.71,10.85,.93,16.92-.22l.09-.02v.09c-.02,.72-.06,1.45-.13,2.18-.06,.73-.16,1.46-.27,2.19-.35,2.24-.92,4.43-1.72,6.37-.73,1.81-1.66,3.41-2.76,4.64-1.63,1.81-3.8,3.52-6.24,4.92-2.32,1.32-4.9,2.34-7.5,2.89-2.29,.48-4.6,.58-6.79,.17-1.98-.37-3.86-1.16-5.51-2.47-.73-.58-1.35-1.25-1.85-1.99-.54-.78-.95-1.64-1.25-2.55-.33-.98-.53-2.01-.61-3.06-.09-1.12-.06-2.25,.09-3.35,.3-2.36,1.12-4.57,2.19-6.65,1.06-2.08,2.37-4.03,3.64-5.89l.03-.05,.05,.02c2.54,.84,6.64,2.05,11.63,2.76Z"/>
            <path class="cls-9" d="M52.25,86.31c.58,1.31,.99,2.83,1.18,4.36,.16,1.29,.17,2.59,0,3.81,1.03-.54,2.02-1.15,2.95-1.8,.16-.11,.31-.22,.46-.33,.15-.11,.3-.22,.45-.34,.32-.24,.63-.49,.93-.75,.21-.18,.42-.36,.62-.54,.48-.43,.93-.88,1.35-1.33,.07-.08,.14-.15,.2-.23,.02-.02,.04-.05,.06-.07,.18-.2,.35-.42,.52-.64,.47-.62,.9-1.3,1.3-2.05,1.12-2.11,1.94-4.67,2.43-7.33,.03-.17,.06-.35,.09-.52,.02-.12,.04-.24,.06-.36,.01-.06,.02-.11,.03-.16,.14-.94,.24-1.88,.31-2.82,.01-.18,.02-.37,.03-.55,0-.01,0-.02,0-.03-.02,0-.03,.01-.05,.02-.25,.12-.49,.22-.73,.31-2.24,.88-3.89,.84-6.75,.31-.16-.03-.32-.06-.49-.09-.07-.01-.13-.03-.2-.04-.23-.05-.47-.09-.72-.14-3.15-.64-2.02-.31-4.84-.42-1.72-.07-3.25,1.33-5.24,2.72-.21,.15-.44,.3-.66,.45-.09,.06-.18,.11-.27,.17-1.22,.76-2.62,1.45-4.32,1.79,1.38,.13,2.96,.66,4.56,1.92,0,0,.02,0,.02,0,.05,0,.1,0,.15,0h.18c.32,0,.65,.03,.98,.09,1.16,.2,2.28,.7,3.23,1.51,.86,.72,1.59,1.8,2.16,3.08Z"/>
            <path class="cls-2" d="M70.96,84.57c.37-.66,1.26-1.8,2.46-2.69,.16-.12,.33-.24,.51-.35,.18-.12,.37-.22,.56-.32,1.28-.66,2.79-.94,4.35-.25,1.24,.55,2,1.42,2.07,1.57-.07-.44-.18-.86-.35-1.23-.46-1.08-1.36-1.85-2.9-2.07-1.88-.27-3.36,.33-4.48,1.4-.14,.13-.27,.27-.39,.41-.12,.14-.24,.28-.35,.43-.66,.89-1.15,1.96-1.49,3.1Z"/>
            <path class="cls-13" d="M39.23,79.93l1.96,17.45c-2.36,.62-7.07-2.29-7.07-2.29-6.84-5.51-3.73-13.51,5.11-15.17Z"/>
            <path class="cls-9" d="M63.77,62.98c.28-.15,.52-.31,.71-.47,.17-.14,.7-.44,1.16-.74-.7-.26-1.36-.55-1.99-.84-.25-.12-.49-.23-.72-.35,0,0,0,0-.01,0-.03-.07-.05-.14-.08-.21-.04-.1-.07-.19-.11-.29-.03-.09-.07-.17-.1-.26-.1-.26-.21-.52-.31-.78-.05-.13-.1-.25-.16-.38-.82-1.94-1.8-3.83-2.84-4.97l-18.32,2.91c.56,1.09,.83,2.17,.88,3.23,.02,.51,0,1.03-.08,1.55-.01,.09-.03,.18-.04,.27-.01,.09-.03,.17-.05,.26-.03,.17-.08,.35-.12,.52-.24,.93-.62,1.87-1.1,2.81,4.35,.71,13,.31,18.78-.87,.18-.04,.35-.07,.53-.11,.18-.04,.36-.08,.53-.12,1.43-.34,2.63-.73,3.45-1.17Z"/>
            <path class="cls-3" d="M65.17,70.97c-1.65-.51-3.17-.47-4.52-.02-.18,.06-.35,.13-.53,.2-.18,.08-.35,.16-.52,.25-.89,.46-2.04,.5-2.74,1.28-2.37,2.62-4.04,11.65-1.28,15.82,.72,1.09,1.68,2,2.91,2.66,.71-.62,1.37-1.25,1.95-1.91,1.1-1.22,2.03-2.83,2.76-4.64,.79-1.95,1.37-4.14,1.72-6.37,.78-4.97,.56-3.22,.24-7.26Z"/>
            <path class="cls-6" d="M65.26,74.63c-.37,.13-.63,.24-.89,.34-2.24,.88-3.89,.84-6.75,.31-.16-.03-.32-.06-.49-.09-.07-.01-.13-.03-.2-.04-.23-.05-.47-.09-.71-.14-.27-.06-.51-.1-.72-.14-1.57,3.78-2.21,10.27,.01,13.62,.72,1.09,1.68,2,2.91,2.66h0c.72-.62,1.37-1.25,1.96-1.91,1.1-1.22,2.02-2.83,2.76-4.64,.79-1.95,1.37-4.14,1.72-6.37,.32-2.06,.47-2.96,.4-3.59Z"/>
            <path class="cls-8" d="M38.8,68c.24,1.2,.91,2.98,2.74,3.94,0,0-3.36,.21-4.67-1.55,.6-.85,1.25-1.65,1.93-2.38Z"/>
            <path class="cls-8" d="M32.99,76.09c1.19,.79,6.2,1.29,6.74,.46-2.36-.5-3.85-1.85-4.73-3-.62,.88-1.28,1.75-2.02,2.53Z"/>
            <path class="cls-8" d="M30.15,83.1c1.66,.5,6.18-.64,6.52-1.79-2.59-.48-3.63-.84-5.05-1.87-.43,1.24-.88,2.48-1.48,3.66Z"/>
            <path class="cls-14" d="M39.97,56.96c-.14-.26-.04-.58,.22-.72,.26-.14,.58-.04,.72,.22,2.6,4.84-.45,9.29-3.9,14.34-2.64,3.86-5.54,8.09-6.17,13.02-.27,2.13-.15,4.36,.52,6.37,.58,1.74,1.58,3.31,3.08,4.5,3.45,2.73,7.89,3.18,12.24,2.28,5.34-1.12,10.55-4.26,13.7-7.78,2.27-2.53,3.79-6.67,4.46-10.97,.72-4.58,.49-9.31-.79-12.47-.72-1.81,3.45,2.41,1.85,12.64-.7,4.49-2.3,8.83-4.72,11.52-3.29,3.66-8.71,6.95-14.28,8.11-4.64,.97-9.38,.47-13.12-2.49-1.68-1.33-2.79-3.08-3.43-5-.73-2.17-.86-4.57-.57-6.85,.66-5.19,3.63-9.53,6.34-13.49,3.26-4.76,6.14-8.96,3.84-13.23Z"/>
            <g>
              <g>
                <g>
                  <g>
                    <path class="cls-13" d="M26.69,17.98c-5.61,.72-9.51,6.38-8.7,12.62,.81,6.25,6.01,10.72,11.62,10,5.61-.73,9.51-6.38,8.7-12.62-.81-6.25-6.01-10.72-11.62-10Z"/>
                    <path class="cls-2" d="M31.55,18.69c-9.66,.09-14.59,11.81-8.08,18.64,.26,.28,.55,.54,.85,.8,.13,.11,.26,.22,.39,.32,.16,.13,.32,.25,.49,.37,.27,.19,.54,.38,.84,.55,.7,.43,1.47,.81,2.32,1.16-.86-.03-1.71-.18-2.52-.44-.28-.09-.55-.19-.81-.3-.17-.08-.34-.15-.51-.24-.14-.07-.29-.15-.43-.23-.31-.18-.62-.37-.92-.58-.27-.19-.53-.39-.79-.61-2.09-1.79-3.58-4.46-3.98-7.58-.4-3.11,.36-6.07,1.92-8.34,1.54-2.24,3.86-3.8,6.59-4.15,1.61-.21,3.2,.03,4.64,.62Z"/>
                    <path class="cls-14" d="M26.63,17.49c-2.95,.38-5.45,2.06-7.1,4.45-1.64,2.38-2.44,5.48-2.03,8.72,.42,3.25,1.99,6.04,4.18,7.92,2.21,1.9,5.05,2.88,8,2.5,2.95-.38,5.45-2.06,7.1-4.45,1.64-2.38,2.45-5.48,2.03-8.72-.42-3.25-1.99-6.04-4.18-7.92-2.21-1.9-5.04-2.88-8-2.5h0Zm-6.29,5.01c1.5-2.17,3.76-3.69,6.42-4.03,2.66-.34,5.23,.55,7.23,2.27,2.02,1.73,3.46,4.3,3.84,7.3,.39,3-.35,5.85-1.86,8.04-1.5,2.17-3.76,3.69-6.42,4.03-2.66,.34-5.23-.55-7.23-2.27-2.01-1.73-3.45-4.3-3.84-7.3-.39-3,.35-5.85,1.86-8.04Z"/>
                  </g>
                  <g>
                    <path class="cls-3" d="M23.37,31.17c-.5-3.9,1.93-7.43,5.43-7.88,1.85-.24,3.63,.43,4.97,1.68,.14,.13,.28,.27,.41,.42,.01,.01,.03,.03,.04,.05,.12,.13,.23,.27,.33,.4,.24,.31,.46,.65,.65,1.01,.43,.8,.73,1.71,.85,2.68,.21,1.6-.08,3.14-.73,4.42-.85,1.67-2.31,2.92-4.1,3.35-.19,.05-.39,.08-.59,.11-.87,.11-1.72,.03-2.51-.23-.14-.05-.28-.1-.42-.15-.1-.04-.21-.09-.31-.13-.08-.04-.16-.08-.24-.12-.18-.1-.37-.2-.54-.32-1.69-1.09-2.93-3-3.23-5.29Z"/>
                    <path class="cls-6" d="M28.54,26.16c-2.25,1.23-3.77,3.69-3.98,6.53-.04,.59-.03,1.19,.05,1.81-.16-.27-.31-.56-.44-.86-.3-.68-.51-1.42-.61-2.21-.26-1.99,.23-3.87,1.22-5.31,.97-1.41,2.42-2.39,4.13-2.61,.64-.08,1.27-.06,1.88,.07,.23,.05,.46,.11,.68,.18,.16,.06,.32,.12,.47,.18,.34,.15,.67,.33,.99,.54,.3,.2,.59,.43,.86,.68,.05,.05,.12,.11,.21,.21,.09,.09,.16,.16,.2,.21l.02,.02h0l.02,.02c.05,.06,.1,.11,.14,.16,.01,.02,.02,.03,.03,.04,.01,.02,.02,.03,.04,.05-.04-.02-.08-.03-.12-.05-.71-.29-1.46-.46-2.24-.5-.39-.02-.79,0-1.2,.05-.12,.02-.24,.03-.36,.06-.71,.13-1.39,.38-2.01,.71Z"/>
                    <path class="cls-14" d="M23.87,31.11c-.24-1.83,.21-3.56,1.13-4.89,.91-1.31,2.27-2.23,3.88-2.44,.83-.11,1.65-.02,2.41,.24,.79,.27,1.53,.72,2.16,1.31,.05,.05,.12,.12,.2,.19,.07,.08,.13,.14,.18,.2l.04,.05c.06,.06,.11,.13,.16,.18,.05,.06,.1,.12,.15,.19,.11,.15,.22,.3,.32,.46,.1,.16,.2,.32,.28,.48,.21,.38,.38,.79,.51,1.21,.13,.41,.23,.84,.29,1.3,.1,.74,.08,1.46-.03,2.14-.12,.71-.34,1.38-.65,1.99-.4,.79-.95,1.47-1.6,2.01-.63,.52-1.37,.89-2.18,1.08-.09,.02-.18,.04-.27,.06-.08,.01-.17,.03-.27,.04-.4,.05-.79,.06-1.16,.02-.39-.03-.77-.11-1.14-.23-.08-.02-.15-.05-.19-.06h0c-.09-.03-.15-.06-.19-.07l-.14-.06c-.06-.03-.11-.05-.14-.06l-.11-.05-.11-.06c-.08-.04-.16-.09-.25-.14-.08-.05-.16-.1-.25-.15-.8-.52-1.49-1.23-2.02-2.09-.5-.83-.86-1.8-.99-2.85h0Zm.32-5.45c-1.05,1.52-1.56,3.5-1.29,5.57,.15,1.19,.55,2.29,1.13,3.24,.6,.99,1.4,1.81,2.32,2.4,.09,.06,.19,.12,.29,.18,.09,.05,.19,.11,.29,.16l.13,.06,.13,.06c.07,.03,.12,.06,.17,.08,.04,.02,.1,.04,.17,.07,.1,.04,.17,.07,.23,.09h0c.09,.03,.17,.06,.23,.08,.43,.14,.88,.23,1.35,.27,.46,.04,.92,.03,1.37-.02,.09-.01,.2-.03,.32-.05,.11-.02,.21-.04,.32-.07,.96-.23,1.83-.67,2.58-1.28,.76-.62,1.39-1.42,1.85-2.32,.35-.7,.61-1.47,.74-2.28,.13-.78,.15-1.6,.04-2.43-.06-.5-.18-1-.33-1.47-.16-.49-.35-.95-.58-1.38-.1-.19-.21-.38-.32-.55-.12-.18-.24-.35-.37-.52-.05-.07-.11-.14-.17-.22-.07-.08-.13-.15-.18-.21l-.04-.05c-.08-.09-.15-.17-.22-.23-.06-.06-.14-.14-.23-.22-.73-.69-1.59-1.21-2.52-1.53-.9-.31-1.87-.41-2.85-.29-1.9,.25-3.5,1.32-4.56,2.86Z"/>
                  </g>
                </g>
                <g>
                  <g>
                    <path class="cls-13" d="M71.62,12.18c5.61-.73,10.82,3.75,11.62,10,.81,6.25-3.09,11.9-8.7,12.62-5.61,.73-10.82-3.75-11.62-10-.81-6.25,3.09-11.9,8.7-12.62Z"/>
                    <path class="cls-2" d="M67.11,14.09c9.36-2.37,17.12,7.72,12.56,15.98-.18,.34-.39,.67-.61,.99-.1,.14-.2,.28-.3,.41-.12,.16-.25,.32-.38,.48-.21,.25-.43,.5-.67,.75-.57,.59-1.22,1.16-1.95,1.71,.83-.25,1.61-.61,2.33-1.07,.24-.16,.48-.32,.71-.5,.15-.12,.29-.23,.43-.36,.12-.11,.24-.22,.36-.33,.26-.25,.51-.52,.74-.8,.21-.25,.42-.52,.61-.79,1.56-2.26,2.33-5.22,1.92-8.34-.4-3.12-1.9-5.78-3.98-7.58-2.06-1.77-4.7-2.69-7.43-2.34-1.61,.21-3.08,.84-4.33,1.78Z"/>
                    <path class="cls-14" d="M71.56,11.69c2.95-.38,5.79,.6,8,2.5,2.19,1.89,3.76,4.68,4.18,7.92,.42,3.25-.39,6.34-2.03,8.72-1.65,2.4-4.15,4.07-7.1,4.45-2.95,.38-5.79-.6-8-2.5-2.19-1.88-3.76-4.67-4.18-7.92-.42-3.25,.38-6.34,2.03-8.72,1.65-2.4,4.15-4.07,7.1-4.45h0Zm7.36,3.25c-2-1.72-4.57-2.61-7.23-2.27-2.66,.35-4.92,1.86-6.42,4.03-1.51,2.18-2.25,5.04-1.86,8.04,.39,3,1.83,5.57,3.84,7.3,2,1.72,4.57,2.61,7.23,2.27,2.66-.35,4.92-1.86,6.41-4.03,1.51-2.19,2.25-5.04,1.86-8.04-.39-3-1.83-5.57-3.84-7.3Z"/>
                  </g>
                  <g>
                    <path class="cls-3" d="M78.19,24.09c-.5-3.9-3.75-6.69-7.26-6.24-1.85,.24-3.4,1.33-4.38,2.89-.1,.16-.2,.34-.29,.51-.01,.02-.02,.03-.03,.05-.08,.16-.15,.31-.22,.48-.15,.36-.28,.74-.37,1.14-.21,.88-.27,1.84-.14,2.81,.21,1.6,.87,3.01,1.83,4.09,1.24,1.4,2.98,2.24,4.82,2.19,.2,0,.4-.02,.6-.05,.87-.11,1.67-.41,2.37-.86,.12-.08,.24-.16,.36-.25,.09-.07,.18-.14,.27-.21,.07-.06,.14-.11,.2-.17,.16-.14,.3-.29,.44-.44,1.35-1.48,2.07-3.65,1.78-5.94Z"/>
                    <path class="cls-6" d="M71.92,20.55c2.49,.62,4.59,2.61,5.51,5.3,.19,.56,.33,1.15,.41,1.76,.09-.31,.16-.62,.21-.95,.12-.73,.13-1.5,.03-2.29-.26-1.99-1.21-3.69-2.53-4.82-1.29-1.11-2.95-1.69-4.66-1.47-.64,.08-1.24,.27-1.8,.54-.21,.11-.41,.22-.61,.35-.14,.09-.28,.19-.41,.3-.29,.23-.57,.49-.82,.77-.24,.27-.46,.57-.65,.88-.03,.05-.09,.14-.15,.25-.06,.11-.11,.2-.14,.26v.02s-.01,0-.01,0l-.02,.03c-.03,.07-.06,.13-.09,.19,0,.02-.02,.03-.02,.05,0,.02-.02,.03-.02,.05,.03-.03,.07-.05,.1-.08,.61-.46,1.29-.81,2.03-1.05,.38-.12,.77-.21,1.17-.26,.12-.02,.24-.03,.36-.04,.72-.05,1.44,.01,2.12,.18Z"/>
                    <path class="cls-14" d="M77.7,24.15c-.24-1.83-1.11-3.39-2.33-4.44-1.21-1.04-2.76-1.58-4.37-1.37-.83,.11-1.6,.4-2.27,.84-.7,.46-1.3,1.08-1.76,1.82-.04,.06-.09,.14-.14,.24-.05,.09-.09,.17-.13,.24l-.03,.05c-.04,.08-.08,.15-.11,.22-.03,.07-.06,.14-.1,.23-.07,.17-.14,.34-.19,.52-.06,.18-.11,.36-.15,.54-.1,.42-.16,.86-.19,1.3-.02,.43,0,.88,.05,1.33,.1,.74,.29,1.43,.58,2.07,.29,.65,.68,1.25,1.13,1.76,.59,.66,1.29,1.18,2.06,1.53,.74,.34,1.55,.52,2.38,.5,.09,0,.18,0,.28-.02,.08,0,.17-.01,.27-.03,.4-.05,.77-.14,1.13-.27,.36-.13,.72-.31,1.05-.51,.07-.05,.13-.08,.17-.11h0c.08-.05,.13-.09,.17-.12l.12-.09c.05-.04,.09-.08,.12-.1l.09-.08,.09-.08c.07-.06,.14-.13,.21-.2,.07-.06,.13-.13,.2-.21,.64-.7,1.13-1.57,1.42-2.54,.28-.93,.37-1.95,.23-3.01h0Zm-1.69-5.19c1.4,1.21,2.4,2.99,2.67,5.06,.15,1.19,.05,2.36-.27,3.42-.33,1.11-.89,2.1-1.63,2.92-.08,.08-.16,.16-.24,.24-.08,.08-.16,.15-.24,.23l-.11,.09-.11,.09c-.06,.05-.11,.09-.14,.12-.03,.03-.08,.06-.14,.11-.08,.06-.15,.11-.2,.14h0c-.08,.05-.15,.1-.2,.13-.38,.24-.8,.45-1.24,.61-.43,.16-.88,.27-1.33,.32-.09,.01-.2,.02-.32,.03-.11,0-.22,.01-.33,.02-.99,.02-1.94-.18-2.82-.58-.9-.41-1.71-1.02-2.38-1.78-.52-.59-.96-1.27-1.3-2.02-.32-.72-.55-1.51-.66-2.34-.07-.5-.08-1.01-.06-1.51,.03-.51,.1-1.01,.21-1.48,.05-.21,.11-.42,.17-.62,.07-.2,.14-.4,.22-.6,.03-.08,.07-.17,.11-.26,.04-.09,.08-.18,.12-.25l.03-.06c.05-.11,.1-.2,.15-.28,.04-.08,.1-.17,.16-.27,.53-.85,1.23-1.57,2.05-2.11,.8-.52,1.7-.87,2.68-1,1.9-.24,3.72,.39,5.14,1.6Z"/>
                  </g>
                </g>
              </g>
              <path class="cls-13" d="M71.53,22.85c8.74,7.28,12.82,22.86,4.63,32.01-7.8,8.71-33.24,12-42.99,5.56-10.24-6.77-10.27-22.87-3.66-32.14,4.95-6.94,11.96-11.06,19.4-12.13,8.23-1.18,16.28,1.41,22.63,6.7Z"/>
              <path class="cls-2" d="M25.31,46.1c.14-4.16,2-23.35,24.32-27.41,5.59-.43,10.21,.35,14.01,1.83,11.58,4.5,15.58,15.5,16.48,18.5-.02-.12-.04-.25-.06-.37-1.02-5.72-3.98-11.23-8.04-14.9-.17-.16-.36-.32-.56-.49-2.47-2.08-5.2-3.74-8.1-4.93-.87-.36-1.74-.67-2.64-.94-3.76-1.13-7.74-1.46-11.76-.88-3.75,.54-7.4,1.87-10.72,3.97-3.21,2.02-6.12,4.75-8.54,8.18-.15,.21-.29,.42-.42,.61-3,4.58-4.46,10.66-3.99,16.45,.01,.12,.02,.25,.03,.37Z"/>
              <path class="cls-3" d="M65.19,44.38c-8.27-3.62-17.01-2.5-24.09,3.11-2.85,2.26-5.63,9.81-6.81,12.91,9.42,6.08,33.2,3,40.77-5.27-1.93-2.69-6.54-9.29-9.87-10.75Z"/>
              <path class="cls-9" d="M68.6,55.37c-14.21,7.85-36.53,6.26-43.31-7.82,.87,5.17,3.4,9.91,7.88,12.86,.57,.38,1.19,.72,1.86,1.03,5.19,2.13,12.83,2.54,20.33,1.57,4.92-.64,9.76-1.87,13.77-3.59,2.09-.9,3.96-1.94,5.49-3.1,.57-.47,1.09-.96,1.54-1.47,3.58-3.99,4.81-9.21,4.34-14.43-1.27,6.53-5.85,11.6-11.9,14.94Z"/>
              <path class="cls-6" d="M35.58,57.23c-.5,1.21-.93,2.35-1.28,3.26,4.89,2.74,13.05,3.38,21.03,2.35,4.96-.64,9.81-1.92,13.75-3.73,2.4-1.11,4.46-2.41,5.99-3.89-.57-.79-1.27-1.78-2.06-2.82-9.83,6.72-26.3,8.81-37.43,4.84Z"/>
              <g>
                <g>
                  <path class="cls-8" d="M76.73,29.66s-1.51,5.17-7.16,6.51c0,0,6.76,1.52,9.44-1.58l-2.28-4.92Z"/>
                  <path class="cls-8" d="M80.17,35.9s-4.91,4.74-12.82,3.86c0,0,7.67,4.3,12.85,2.17l-.03-6.02Z"/>
                </g>
                <g>
                  <path class="cls-8" d="M26.21,36.19s2.77,4.61,8.58,4.47c0,0-6.15,3.18-9.53,.87l.96-5.34Z"/>
                  <path class="cls-8" d="M24.46,43.1s5.95,3.34,13.38,.47c0,0-6.32,6.1-11.88,5.36l-1.5-5.83Z"/>
                </g>
              </g>
              <path class="cls-10" d="M62.88,21.94c1.51,.58,2.56,1.52,2.33,2.1-.22,.59-1.63,.6-3.14,.03-1.51-.58-2.55-1.52-2.33-2.11,.22-.59,1.63-.6,3.14-.02Z"/>
              <path class="cls-10" d="M67.11,23.53c.8,.31,1.36,.81,1.24,1.12-.12,.31-.87,.32-1.67,.01-.8-.31-1.36-.81-1.24-1.12,.12-.31,.87-.32,1.68-.01Z"/>
              <path class="cls-10" d="M65.98,24.61c.5,.19,.84,.5,.77,.69-.08,.19-.54,.2-1.03,0-.5-.19-.84-.5-.77-.69,.07-.19,.54-.2,1.03,0Z"/>
              <path class="cls-14" d="M65,44.83c-4.05-1.78-8.22-2.39-12.23-1.87-4.02,.52-7.89,2.17-11.35,4.92-2.63,2.08-5.27,9.02-6.51,12.29v.03c4.65,2.8,12.63,3.47,20.41,2.46,7.78-1.01,15.32-3.68,19.12-7.57l-.02-.02c-2.03-2.84-6.34-8.89-9.41-10.23h0Zm-12.36-2.85c4.19-.54,8.53,.09,12.75,1.94,3.32,1.46,7.74,7.65,9.82,10.56l.24,.33c.15,.18,.15,.46-.02,.64-3.87,4.23-11.82,7.12-19.99,8.18-8.17,1.06-16.6,.28-21.41-2.82h0c-.19-.12-.28-.36-.19-.59l.15-.4c1.27-3.35,3.98-10.46,6.81-12.72,3.61-2.86,7.65-4.58,11.84-5.12Z"/>
              <g>
                <path class="cls-4" d="M69.6,41.46c1.39,.1,2.48,.54,2.45,.98-.03,.43-1.18,.7-2.57,.6-1.38-.1-2.48-.54-2.45-.98,.03-.43,1.18-.7,2.57-.6Z"/>
                <path class="cls-4" d="M36.1,45.79c-1.31,.45-2.26,1.16-2.12,1.57,.14,.41,1.32,.38,2.64-.08,1.31-.45,2.26-1.15,2.12-1.57-.14-.41-1.32-.38-2.64,.07Z"/>
              </g>
              <path class="cls-8" d="M48.16,18.99c1.52,12.22,4.6,11.82,2.96-.38-.49,.02-.99,.05-1.49,.09-.5,.09-.99,.19-1.47,.29Z"/>
              <path class="cls-7" d="M48.16,18.99c.48-.11,.97-.2,1.47-.29,.5-.04,1-.07,1.49-.09-.09-.69-.2-1.41-.32-2.17-.61,.05-1.22,.11-1.83,.2-.35,.05-.7,.11-1.05,.17,.07,.77,.16,1.5,.24,2.18Z"/>
              <path class="cls-8" d="M49.81,20.12c2.82-.36,7.93,1.39,6.72,3.69-2.24-2.46-10.73-1.37-12.28,1.59-1.75-1.92,2.74-4.92,5.56-5.28Z"/>
              <path class="cls-8" d="M50.33,24.12c1.93-.25,5.46,1.3,4.68,3.19-1.59-2.09-7.39-1.33-8.39,1.09-1.24-1.63,1.78-4.02,3.71-4.28Z"/>
              <path class="cls-14" d="M71.84,22.47c.19,.16,.38,.33,.58,.5,4.18,3.75,7.23,9.37,8.27,15.2,1.05,5.86,.08,11.93-3.77,16.55-.13,.15-.26,.31-.4,.46-3.98,4.45-12.41,7.51-21.07,8.62-8.66,1.12-17.58,.31-22.57-2.98-.18-.12-.35-.23-.51-.35-4.89-3.49-7.38-9.12-7.85-15.05-.47-5.9,1.04-12.11,4.13-16.8,.14-.22,.29-.43,.43-.64,2.47-3.46,5.44-6.23,8.73-8.29,3.41-2.13,7.15-3.49,11-4.04,4.13-.59,8.21-.25,12.06,.88,3.96,1.17,7.68,3.2,10.96,5.92h0Zm-.07,1.24c-.18-.16-.36-.32-.56-.48-3.17-2.64-6.77-4.6-10.61-5.73-3.72-1.1-7.66-1.43-11.64-.86-3.72,.54-7.33,1.85-10.62,3.91-3.18,1.98-6.05,4.67-8.45,8.03-.15,.2-.28,.41-.42,.61-2.98,4.51-4.43,10.49-3.98,16.18,.46,5.66,2.81,11.02,7.45,14.33,.16,.12,.32,.23,.48,.33,4.77,3.15,13.44,3.92,21.9,2.82,8.45-1.09,16.64-4.04,20.46-8.3,.13-.14,.25-.28,.38-.44,3.64-4.37,4.55-10.16,3.56-15.75-1.01-5.62-3.93-11.03-7.96-14.63Z"/>
              <path class="cls-5" d="M47.21,44.07s2.05,3.77,6.09,3.06c4.09-.33,5.11-4.51,5.11-4.51-1.13-4.42-11.23-3.12-11.2,1.45Z"/>
              <path class="cls-5" d="M50.63,41.27c-.88,.57-1.85,1.43-2.03,2.51,0,0,.36,.83,1.33,1.64,.46,.39,1.06,.77,1.83,1.05,.4,.15,.84,.28,1.34,.36-.86,.16-1.61,.07-2.28-.16-.52-.17-.99-.44-1.39-.73-.95-.7-1.56-1.6-1.83-2.04,.09-1.08,.87-1.96,1.94-2.57,.25-.14,.52-.27,.8-.39,.56-.23,1.17-.39,1.8-.48,0,0-.72,.29-1.51,.8Z"/>
              <path class="cls-5" d="M54.38,40.74c1,.34,2.16,.94,2.61,1.95,0,0-.13,.91-.87,1.95-.35,.5-.83,1.02-1.49,1.51-.35,.25-.75,.49-1.2,.7,.87-.06,1.58-.35,2.17-.74,.46-.31,.84-.68,1.15-1.08,.74-.93,1.1-1.98,1.24-2.47-.37-1.04-1.34-1.71-2.54-2.03-.28-.08-.58-.13-.88-.17-.6-.08-1.23-.08-1.86-.01,0,0,.77,.1,1.66,.4Z"/>
              <path class="cls-5" d="M47.71,43.94c.35,.58,2.2,3.29,5.51,2.7,.01,0,.03,0,.05,0,3.34-.27,4.44-3.36,4.64-4.01-.34-1.09-1.37-1.76-2.65-2.05-.87-.2-1.85-.23-2.81-.11-.96,.13-1.9,.4-2.69,.82-1.16,.61-1.99,1.52-2.04,2.66h0Zm5.66,3.67c-4.19,.73-6.38-2.96-6.57-3.29-.05-.07-.07-.16-.08-.25-.01-1.62,1.06-2.87,2.57-3.66,.89-.47,1.95-.79,3.02-.92,1.07-.14,2.17-.1,3.16,.13,1.67,.38,3.02,1.32,3.42,2.89,.02,.08,.02,.16,0,.24,0,.01-1.1,4.5-5.53,4.88Z"/>
              <g>
                <path class="cls-14" d="M69.38,33.42s-7.16-2.22-8.34,3.62c6.01-3.23,8.41,.69,6.67-.14-2.91-1.4-8.48,3.61-8.37,1.19,.89-11.55,15.19-3.11,10.04-4.66Z"/>
                <path class="cls-14" d="M34.26,37.96s6.36-3.97,8.98,1.38c-6.63-1.6-7.96,2.81-6.49,1.56,2.46-2.09,9.12,1.33,8.39-.98-3.8-10.94-15.48,.85-10.89-1.95Z"/>
              </g>
              <g>
                <path class="cls-14" d="M41.1,29.57c-.16,2.57-4.18,.49-5.96,3.28-.7,1.16-1.26-3.46,2.48-4.74,1.19-.41,3.71-.2,3.48,1.46Z"/>
                <path class="cls-14" d="M60.64,27.04c.81,2.44,4.17-.59,6.6,1.65,.97,.95,.34-3.66-3.6-3.95-1.25-.09-3.64,.76-3,2.3Z"/>
              </g>
              <path class="cls-14" d="M59.87,50.11c-.66,.84-1.73,2.06-3.57,3.09-2.61,1.46-5.29-.86-3.83-.91,4.29,.11,2.08,.39,7.09-2.5-.58-.51-1.23-.69-1.23-.69-1.22-.34,1.2-.71,2.18,.57,.81,1.05,.03,2.45-.09,1.65-.08-.51-.29-.91-.55-1.22Z"/>
            </g>
            <g>
              <path class="cls-13" d="M56.68,72.08l-11.45-1.69s-.76,23.35,7.09,27.49c0,0,7.31,2.84,11.27-1.14,0,0,1.83-2.54-1.8-5.18,0,0-1.28-.22-1.94-4.53,0,0-3.22-11.73-3.17-14.95Z"/>
              <path class="cls-9" d="M51.52,95.05c-.31,.06-.65,.02-.98-.09-.06-.02-.13-.05-.19-.07,.05,.09,.1,.19,.16,.28,.1,.16,.19,.32,.29,.47,.06,.09,.13,.18,.19,.28,.04,.06,.08,.11,.12,.17,.12,.15,.23,.29,.35,.43,.04,.04,.07,.08,.11,.12,.13,.14,.27,.27,.41,.38,.14,.12,.29,.22,.44,.31,.04,.02,.08,.05,.12,.07,.23,.09,1.59,.58,3.37,.81,.46,.06,.94,.1,1.44,.12,.69,.02,1.4-.01,2.11-.13,.68-.11,1.36-.31,2-.61,.62-.29,1.2-.68,1.72-1.2,.08-.13,.31-.55,.34-1.16-.43,.36-1.01,.66-1.68,.9-.31,.12-.65,.21-.99,.3-.88,.21-1.85,.32-2.76,.29-.33-.01-.66-.04-.97-.08-1.25-.18-2.31-.66-2.82-1.5-.09-.15-.16-.31-.22-.49-.05-.17-.09-.36-.1-.55,0-.1,0-.2,0-.3,.01-.3-.29-.2-.62,.01-.2,.12-.41,.28-.58,.42-.2,.16-.35,.3-.36,.31-.08,.1-.17,.18-.26,.25-.19,.14-.4,.23-.61,.27Z"/>
              <path class="cls-14" d="M55.33,91.57c-.87,.38,.02-.89,1.98-1.02,1.72-.12,3.28,1.25,2.15,.97-.75-.19-1.42-.27-1.98-.28-1.36-.02-2.14,.33-2.15,.33Z"/>
              <g>
                <path class="cls-8" d="M58.84,82.1c-1.47,.04-5.98-1.99-6.03-2.96,2.13,.69,3.99,.37,5.3-.13,.29,.97,.54,2.03,.73,3.09Z"/>
                <path class="cls-8" d="M46.29,79.54c1.98-.71,6.15-3.97,5.96-5.06-2.4,1.43-4.73,1.53-6.44,1.29,0,.99,.05,1.82,.15,2.37,.09,.47,.2,.94,.34,1.4Z"/>
                <path class="cls-8" d="M47.81,90.69c1.98-.71,6.85-4.6,6.66-5.7-2.4,1.43-5.57,1.53-7.29,1.28,0,.98,.25,1.82,.35,2.37,.08,.47,.13,1.59,.27,2.05Z"/>
              </g>
              <path class="cls-14" d="M45.06,70.32c.22-3.93,1.4,23.82,7.48,27.08,.23,.09,1.6,.58,3.37,.81,.19-.13,.35-.27,.5-.42,.21-.21,.37-.42,.49-.65,.27-.48,.35-.99,.34-1.47-.02-.67-.23-1.29-.43-1.74-.19-.42-.37-.68-.37-.69,0,0,0-.02-.01-.02-.01-.04,.01-.08,.06-.09,.13-.03,.3,.03,.48,.18,.16,.13,.34,.34,.51,.6,.29,.44,.54,1.05,.63,1.72,.07,.54,.03,1.13-.19,1.71-.08,.22-.19,.44-.34,.66-.07,.11-.15,.22-.23,.33,.69,.02,1.4-.01,2.11-.13,.26-.17,.47-.34,.66-.53,.2-.21,.36-.43,.49-.65,.27-.48,.35-.99,.34-1.47-.02-.67-.23-1.29-.43-1.74-.19-.42-.37-.68-.37-.69,0,0,0-.02,0-.02-.01-.04,.01-.08,.05-.09,.13-.03,.3,.03,.48,.18,.16,.14,.34,.34,.51,.6,.29,.44,.54,1.05,.63,1.72,.07,.54,.03,1.13-.19,1.71-.05,.12-.1,.24-.16,.37,.62-.29,1.2-.68,1.72-1.2,.19-.3,1.23-2.24-1.66-4.37-2.21-1.06-5.07-17.9-5.03-20.13-.37-4.07,4.29,19.16,5.41,19.15h0c.07,.01,.14,.05,.21,.09,3.82,2.79,2.15,5.57,1.94,5.89-.02,.04-.05,.07-.08,.1-4.2,4.23-11.81,1.28-11.83,1.27-.02,0-.04-.02-.06-.03-8.15-4.3-7.01-27.97-7.01-28.04Z"/>
            </g>
            <g>
              <path class="cls-13" d="M38.43,95.65l-1.33-14.98c6.41-1.99,11.15,3.42,12.71,8.96,2.2,7.85-3.04,15.21-11.38,6.02Z"/>
              <path class="cls-14" d="M37.33,80.83c-2.52,.78,2.73-3.51,8.23,.84,2.17,1.85,3.76,4.6,4.62,7.36,.05,.15,.09,.31,.14,.47,.8,2.85,.65,5.66-.25,7.7-.49,1.11-1.2,2-2.11,2.57-6.21,3.1-11.47-7.13-9.13-4.47,1.83,2.02,5.61,5.42,8.56,3.57,.72-.45,1.3-1.18,1.7-2.1,.81-1.83,.93-4.37,.2-6.99-.04-.14-.08-.29-.13-.44-.8-2.58-2.28-5.15-4.29-6.86-2.18-1.85-4.78-2.5-7.54-1.65Z"/>
            </g>
            <path class="cls-9" d="M44.39,90.28c-.26-.18-.51-.37-.76-.56-.64-.47-1.29-.9-2.03-1.09l-.21,.21c-.42,.21-.79,.38-1.11,.51-.19,.08-.37,.14-.53,.19-.2,.06-.37,.1-.53,.12-.61,.09-.97-.06-1.31-.32-.64-.5-1.21-1.39-3.33-1.69-.59-.08-1.09-.1-1.52-.13h-.03s-.01,0-.01,0h-.05s0,0,0,0h-.02c-.96-.05-1.58-.14-2.22-1.03,.05,1.26,.25,2.51,.65,3.68,.61,1.8,1.61,3.33,3.08,4.5,1.55,1.23,3.31,2,5.17,2.39-.27-.31-.5-.61-.69-.89-.17-.17-.33-.35-.5-.54l-.03-.33c-.17-.35-.2-.54-.04-.46,.09,.05,.24,.18,.46,.43,.54,.6,1.26,1.32,2.07,1.99,.25,.21,.52,.41,.79,.61,.28,.2,.57,.39,.87,.57,.53,.31,1.07,.56,1.62,.73,.49,.15,.99,.23,1.47,.21,.36-.01,.72-.08,1.06-.2,.23-.08,.46-.19,.68-.33,.4-.25,.77-.6,1.07-1.01,.07-.09,.13-.18,.19-.28,.12-.18,.23-.38,.33-.58,.01-.03,.03-.06,.04-.08,.02-.05,.05-.1,.07-.14,.07-.16,.14-.33,.2-.5,.06-.18,.12-.36,.17-.54,.06-.22,.11-.44,.16-.68,.1-.54,.16-1.11,.16-1.7,0-.59-.03-1.21-.12-1.84-.02-.12-.03-.23-.05-.35h-.14c-.15,0-.31,.01-.47,.03-.27,.03-.57,.08-.9,.16-.06,.01-.13,.03-.19,.04-.16,.03-.31,.05-.45,.05-1.19,.07-2.14-.5-3.05-1.16Z"/>
            <g>
              <path class="cls-13" d="M49.75,83.64c1.62,1.37,2.79,4.18,3.15,7.09,.49,3.91-.47,7.98-3.73,8.93-3.63,1.05-7.27-2.32-8.74-6.48-1.14-3.22-.97-6.92,1.51-9.41,2.15-2.16,5.51-2.08,7.81-.13Z"/>
              <path class="cls-14" d="M50.09,83.23c.86,.72,1.59,1.8,2.16,3.08,.58,1.31,.99,2.83,1.18,4.36,.27,2.18,.11,4.43-.63,6.2-.67,1.6-1.8,2.82-3.48,3.31-1.9,.55-3.79,.01-5.42-1.19-1.74-1.29-3.17-3.34-3.98-5.62-.63-1.78-.88-3.71-.58-5.52,.26-1.64,.96-3.18,2.22-4.44,1.16-1.17,2.64-1.74,4.15-1.76,1.55-.03,3.12,.52,4.39,1.6h0Zm1.18,3.51c-.5-1.13-1.14-2.08-1.87-2.7-1.07-.91-2.39-1.37-3.68-1.35-1.24,.02-2.45,.49-3.41,1.45-1.09,1.09-1.69,2.43-1.92,3.86-.26,1.63-.03,3.37,.54,4.99,.73,2.09,2.04,3.96,3.6,5.12,1.37,1.02,2.94,1.48,4.49,1.03,1.34-.39,2.25-1.39,2.79-2.69,.67-1.59,.81-3.65,.56-5.66-.18-1.44-.56-2.85-1.1-4.06Z"/>
              <path class="cls-12" d="M45.3,89.38c1.47-.97,3.34,.13,4.39,2.18,1.45,2.86,.28,5.44-1.55,5.77-1.62,.29-3.13-1.09-3.86-2.83-.76-1.81-.66-4,1.03-5.12Z"/>
              <path class="cls-12" d="M45.12,88.41c-1.9-.52-1.21-4.26,.6-3.07,1.3,.85,1.27,3.58-.6,3.07Z"/>
              <path class="cls-12" d="M49.01,86.54c.84,.76,1.13,2.96-.4,2.67-.74-.14-1.27-1.09-1.31-1.89-.03-.6,.22-1.11,.86-1.14,.31-.01,.64,.17,.85,.36Z"/>
              <path class="cls-12" d="M43.46,89.95c-.78,.84-2.17-.52-2.17-1.65,0-.42,.19-.81,.68-1.04,.7-.33,1.41,.32,1.68,.95,.2,.48,.25,1.27-.19,1.74Z"/>
              <path class="cls-2" d="M40.33,88.48c1.25-1.83,2.31-3.56,4.69-4.32,.28-.09,.55-.16,.81-.2,.12-.02,.24-.03,.35-.05,.03,0,.06,0,.1,0,.24-.02,.46-.02,.68,0,.1,0,.19,.02,.29,.03,.16,.02,.32,.06,.47,.09,1.06,.28,1.94,.9,2.9,1.47-.36-.58-.77-1.07-1.21-1.45-.7-.6-1.51-1-2.36-1.2-.11-.03-.23-.05-.34-.07-.23-.04-.46-.06-.69-.08-.04,0-.08,0-.11,0h-.23c-.17,0-.34,.02-.5,.04-1.04,.13-2.04,.6-2.85,1.41-1.09,1.09-1.69,2.43-1.92,3.86-.02,.16-.04,.31-.06,.47Z"/>
              <path class="cls-9" d="M44.87,97.25c-1.35-.68-2.54-1.75-3.3-2.75,.55,1.09,1.26,2.07,2.07,2.86,.18,.18,.36,.34,.55,.5,.11,.09,.23,.18,.34,.27,.1,.08,.2,.14,.3,.21,.6,.4,1.23,.69,1.88,.85,.31,.08,.62,.12,.94,.13,.32,.01,.65-.01,.98-.08,.13-.03,.26-.06,.39-.09,.9-.26,1.61-.8,2.14-1.52,.1-.14,.2-.29,.29-.44,.1-.18,.2-.36,.29-.55,.02-.06,.05-.12,.08-.17,0-.01,0-.02,.01-.03,.09-.22,.17-.45,.24-.69,.07-.22,.12-.44,.17-.66,.13-.6,.21-1.24,.24-1.89-.29,.88-.63,1.62-1,2.24-.11,.17-.21,.34-.32,.49-.08,.11-.16,.22-.24,.32-.07,.08-.14,.16-.21,.24-.12,.13-.24,.25-.37,.37-.06,.06-.13,.11-.19,.16-.06,.06-.13,.11-.2,.16-.21,.16-.44,.29-.66,.4-.27,.13-.55,.23-.83,.29-.42,.1-.84,.12-1.26,.09-.46-.03-.91-.13-1.36-.28-.33-.11-.65-.25-.96-.4Z"/>
            </g>
            <g>
              <path class="cls-13" d="M70.08,64.85s-2.95-.87-1.47-4.91c0,0-2.18-4.91,5.51-7.25,0,0,2.82-4.18,5.17-4.1,.8,.03,1.7,.59,1.8,1.4,.1,.85-.38,2.23-2.76,4.33,0,0,3.03,5.4-1.94,8.89l-6.3,1.64Z"/>
              <path class="cls-14" d="M67.29,66.78c-.33,1.68-1.46-1.51,.48-4.81,.17-.24,.5-.3,.74-.13,.24,.17,.3,.5,.13,.74-.75,1.06-1.35,4.18-1.35,4.19Z"/>
              <path class="cls-14" d="M70.23,64.34c1.62,.84-3.48,1.84-2.2-4.39-.34-1-1.39-5.46,5.74-7.71,.55-.77,3.16-4.26,5.52-4.18,.53,.02,1.09,.22,1.52,.56,.42,.33,.72,.78,.79,1.32,.06,.52-.04,1.19-.51,2.02-.4,.7-1.06,1.53-2.12,2.5,.47,1.04,1.54,4.03-.06,6.83-.14,.25-.47,.34-.73,.2-.25-.15-.34-.47-.2-.73,1.61-2.8,.02-5.87-.13-6.15-.13-.22-.09-.51,.1-.68,1.15-1.01,1.83-1.83,2.2-2.5,.34-.6,.42-1.04,.38-1.37-.03-.23-.18-.44-.38-.6-.26-.2-.59-.32-.9-.33-2.05-.07-4.7,3.85-4.71,3.87h0c-.06,.1-.16,.17-.28,.21-7.12,2.17-5.18,6.52-5.17,6.53,.05,.12,.06,.26,.01,.39-1.28,3.51,1.12,4.22,1.13,4.22Z"/>
              <path class="cls-9" d="M78.61,53.33c.14-.14,.28-.28,.4-.41,.13-.13,.25-.26,.36-.39,.35-.41,.61-.77,.8-1.1,.02-.03,.03-.06,.05-.09-.2,.03-.4,.05-.59,.01-.12-.02-.24-.06-.35-.13-.05-.03-.1-.07-.15-.1-.12-.08-.24-.14-.34-.2-.05-.02-.09-.05-.13-.07-.1-.05-.19-.08-.28-.11-.24-.08-.44-.1-.63-.11-.21-.01-.42,0-.66-.06-.01,0-.02,0-.03,0-.1-.02-.22-.06-.34-.11-.81,.75-1.51,1.64-1.88,2.14-.05,.06-.09,.12-.13,.17-.1,.14-.16,.23-.16,.23-.06,.1-.16,.17-.28,.21,0,0-.02,0-.02,0,.38,.07,.66,0,1.06,.11,.2,.05,.44,.14,.73,.31,.06,.03,.12,.07,.18,.11,.05,.03,.1,.06,.16,.1,.05,.03,.1,.06,.15,.08,.23,.09,.49,.08,.75,.05,.24-.03,.48-.09,.67-.1h.09c.21-.18,.4-.36,.58-.54Z"/>
              <g>
                <path class="cls-13" d="M76.38,63.22l-2.26-10.53s-3.16-3.19-.57-4.5c0,0,2.29-.9,4.47,2.86,0,0,5.54,8.21-1.64,12.16Z"/>
                <path class="cls-14" d="M73.51,52.82c-.7-.8-2.72-3.4-.64-4.86,3.2-2.26,6.32,3.76,7.13,6.1,3.23,9.28-6.87,10.32-3.89,8.68,4.75-2.62,3.45-7.29,2.33-9.77-1.75-3.88-3.92-4.77-4.85-4.16-1.21,.79,.2,2.95,.98,3.55,1.23,.94,.89,2.55,.5,1.85-.31-.54-1.09-.86-1.57-1.4Z"/>
              </g>
              <path class="cls-9" d="M70.02,60.35c.5,.3,.39,1.58,2.13,1.57,.95,0,3.07-.86,4.34-1.65,.55-.34,1.09-1.01,1.49-1.21,1.33-.65-1.27,5.69-7.11,4.96-2.66-.33-1.85-4.28-.85-3.68Z"/>
            </g>
          </g>
        </g>
      </g>
    </g>
  </g>
</svg>