<?xml version="1.0" encoding="UTF-8"?>
<svg xmlns="http://www.w3.org/2000/svg" xmlns:xlink="http://www.w3.org/1999/xlink" viewBox="0 0 64 64">
  <defs>
    <style>
      .cls-1 {
        fill: url(#linear-gradient-2);
      }

      .cls-2 {
        fill: #5b2003;
      }

      .cls-3, .cls-4, .cls-5 {
        fill: #fff;
      }

      .cls-6, .cls-7 {
        fill: #ae66ac;
      }

      .cls-6, .cls-8, .cls-9 {
        mix-blend-mode: multiply;
      }

      .cls-10 {
        fill: #8c8587;
      }

      .cls-10, .cls-7, .cls-11 {
        mix-blend-mode: overlay;
      }

      .cls-12 {
        isolation: isolate;
      }

      .cls-13 {
        fill: #303030;
      }

      .cls-4 {
        opacity: .5;
      }

      .cls-14 {
        fill: #773f03;
      }

      .cls-15, .cls-16 {
        fill: #2b2829;
      }

      .cls-15, .cls-17 {
        mix-blend-mode: screen;
      }

      .cls-18 {
        fill: #dcc2a7;
      }

      .cls-19 {
        fill: #f2403b;
      }

      .cls-20 {
        fill: #ff3e55;
      }

      .cls-21 {
        fill: #ffd9b0;
      }

      .cls-21, .cls-22 {
        opacity: .38;
      }

      .cls-8 {
        fill: #ddd;
      }

      .cls-23 {
        opacity: .3;
      }

      .cls-24 {
        fill: #f9f9f9;
      }

      .cls-25 {
        fill: #ff97a0;
      }

      .cls-22 {
        fill: #b3dbff;
      }

      .cls-26 {
        fill: #2b1903;
      }

      .cls-27 {
        fill: #f91223;
      }

      .cls-28 {
        fill: #badff4;
      }

      .cls-29 {
        fill: url(#linear-gradient);
      }

      .cls-9 {
        fill: #b50e81;
      }

      .cls-5 {
        mix-blend-mode: soft-light;
        opacity: .75;
      }

      .cls-11 {
        fill: #998a8e;
      }
    </style>
    <linearGradient id="linear-gradient" x1="64" y1="34.03" x2="5.45" y2="34.03" gradientUnits="userSpaceOnUse">
      <stop offset="0" stop-color="#cf965b"/>
      <stop offset=".25" stop-color="#ca9257"/>
      <stop offset=".51" stop-color="#be864c"/>
      <stop offset=".78" stop-color="#a9733a"/>
      <stop offset="1" stop-color="#925d26"/>
    </linearGradient>
    <linearGradient id="linear-gradient-2" x1="61.28" y1="31.49" x2="1.36" y2="31.49" gradientUnits="userSpaceOnUse">
      <stop offset="0" stop-color="#e8b886"/>
      <stop offset=".25" stop-color="#e3b482"/>
      <stop offset=".5" stop-color="#d7a877"/>
      <stop offset=".76" stop-color="#c29464"/>
      <stop offset="1" stop-color="#a97c4e"/>
    </linearGradient>
  </defs>
  <g class="cls-12">
    <g id="_Слой_2" data-name="Слой 2">
      <g id="_Слой_1-2" data-name="Слой 1">
        <g>
          <g>
            <path class="cls-29" d="M60.49,6.68c-1.75-1.6-4.41-2.62-7.38-2.62H14.98c-5.26,0-9.53,3.19-9.53,7.11V55.87c0,2.22,1.37,4.2,3.51,5.51,1.75,1.6,4.41,2.62,7.38,2.62H54.47c5.26,0,9.53-3.19,9.53-7.11V12.19c0-2.22-1.37-4.2-3.51-5.51Z"/>
            <path class="cls-1" d="M57.77,4.65c-.41-.37-.86-.71-1.36-1.02-1.75-1.6-4.41-2.62-7.38-2.62H10.89C5.64,1.02,1.36,4.21,1.36,8.13V52.83c0,2.22,1.37,4.2,3.51,5.51,.41,.37,.86,.71,1.36,1.02,1.75,1.6,4.41,2.62,7.38,2.62H51.74c5.26,0,9.53-3.19,9.53-7.11V10.16c0-2.22-1.37-4.2-3.51-5.51Z"/>
            <path class="cls-18" d="M47.66,0H9.53C4.28,0,0,3.19,0,7.11V51.81c0,3.92,4.28,7.11,9.53,7.11H47.66c5.26,0,9.53-3.19,9.53-7.11V7.11c0-3.92-4.28-7.11-9.53-7.11Z"/>
          </g>
          <path class="cls-11" d="M5.89,14.33c-.01-2.85,.17-6.06,2.96-8,2.12-1.47,5.21-1.81,8.09-1.99,6.68-.42,13.42-.36,20.09,.18,3.3,.26,6.79,.71,9.28,2.36,3.69,2.45,3.93,6.61,3.9,10.29-.08,9.24-.15,18.48-.23,27.72-.02,2.2-.08,4.51-1.54,6.42-1.54,2-4.45,3.25-7.46,3.8-3.01,.55-6.15,.48-9.24,.41-5.15-.12-10.31-.24-15.43-.71-2.79-.26-9.22-.18-10.19-2.65-.66-1.68-.07-4.15-.07-5.9,0-2.02-.02-4.03-.03-6.05-.02-4.03-.04-8.06-.06-12.1-.02-4.59-.04-9.18-.07-13.78Z"/>
          <path class="cls-11" d="M20.65,20.31c-3.25-.39-6.54-1.19-8.94-2.87-2.39-1.69-3.67-4.43-2.38-6.69,.89-1.57,2.87-2.69,5.01-3.3,2.14-.61,4.45-.77,6.74-.89,5.74-.3,11.52-.39,17.22,.17,2.22,.22,4.55,.57,6.21,1.7,2.93,1.99,2.55,5.66,.4,8.14-5.33,6.17-16.02,4.75-24.26,3.75Z"/>
          <path class="cls-15" d="M9.75,46.11c-.57-1.77-.49-3.61-.4-5.43,.37-7.55,.74-15.09,1.11-22.64,.14-2.75,.39-5.74,2.81-7.82,2.2-1.89,5.7-2.58,9.03-2.93,4.04-.42,8.14-.47,12.2-.14,3.7,.3,7.69,1.06,9.9,3.3,1.87,1.9,2.03,4.41,2.12,6.77,.33,9.07,.66,18.2-1.13,27.18-.4,1.99-1,4.12-2.97,5.5-2.25,1.58-5.63,1.75-8.72,1.75-5.06,0-10.12-.25-15.13-.73-4.65-.45-7.58-.99-8.81-4.8Z"/>
          <path class="cls-9" d="M47.66,1.02h-1.63c4.51,0,8.17,2.73,8.17,6.1V51.81c0,3.37-3.66,6.1-8.17,6.1h1.63c4.51,0,8.17-2.73,8.17-6.1V7.11c0-3.37-3.66-6.1-8.17-6.1Z"/>
          <path class="cls-7" d="M44.83,56.21c2.15-.26,4.29-1.07,5.39-2.47,.86-1.09,1-2.4,1.05-3.66,.05-1.24,.02-2.47-.08-3.71-.07-.81-.31-1.78-1.32-2.08-.75-.23-1.65,.04-2.16,.52-.51,.47-.69,1.1-.74,1.7-.11,1.25,.25,2.52-.08,3.75-.39,1.42-1.68,2.63-3.23,3.51-1.13,.64-4.12,1.25-4.5,2.21,1.43,.58,4.04,.42,5.67,.23Z"/>
          <path class="cls-10" d="M3.88,2.71c-1.55,1.11-2.52,2.67-2.52,4.4v26.08c12.35-3.44,32.73-4.39,54.47,14.33v-14.97C26.86,28.05,11.39,13.17,3.88,2.71Z"/>
          <path class="cls-4" d="M3.58,9.23c.26-1.79,1.27-3.6,3.21-4.67,2.66-1.47,6.31-1.25,9.61-.96,1.02,.09,2.32,.39,2.36,1.15,.03,.67-.97,1.08-1.84,1.21-2.2,.34-4.63-.04-6.59,.77-1.42,.58-2.33,1.69-2.8,2.85-.47,1.16-.56,2.38-.73,3.58-.07,.46-.15,.93-.44,1.34-1.08,1.49-2.05,.48-2.43-.37-.6-1.35-.53-3.5-.32-4.91Z"/>
          <g class="cls-17">
            <ellipse class="cls-16" cx="32.66" cy="10.91" rx="4.07" ry="3.03"/>
            <ellipse class="cls-16" cx="41.34" cy="12.32" rx="2.18" ry="1.63"/>
            <path class="cls-16" d="M40.11,16.13c.37,.7-.08,1.49-1.01,1.77-.93,.28-1.99-.06-2.37-.76-.37-.7,.08-1.49,1.01-1.77,.93-.28,1.99,.06,2.37,.76Z"/>
          </g>
          <g class="cls-17">
            <path class="cls-16" d="M23.64,45.38c.8,1.49-.17,3.17-2.16,3.77-1.99,.6-4.25-.13-5.05-1.61-.8-1.49,.17-3.17,2.16-3.77,1.99-.6,4.25,.13,5.05,1.61Z"/>
            <path class="cls-16" d="M20.79,40.39c.22,.41-.05,.87-.59,1.03-.54,.16-1.16-.03-1.38-.44-.22-.41,.05-.87,.59-1.03,.54-.16,1.16,.03,1.38,.44Z"/>
            <path class="cls-16" d="M15.3,41.5c.45,.84-.09,1.78-1.21,2.12-1.12,.34-2.39-.07-2.84-.91-.45-.84,.09-1.78,1.21-2.12,1.12-.34,2.39,.07,2.84,.91Z"/>
          </g>
          <g class="cls-23">
            <path class="cls-6" d="M51.02,35.95c.79,1.47-.17,3.15-2.14,3.74-1.98,.59-4.22-.12-5.01-1.6-.79-1.47,.17-3.15,2.14-3.74,1.98-.59,4.22,.12,5.01,1.6Z"/>
            <path class="cls-6" d="M53.92,29.6c.58,1.08-.12,2.3-1.57,2.74-1.45,.43-3.09-.09-3.67-1.17-.58-1.08,.12-2.3,1.57-2.74,1.45-.43,3.09,.09,3.67,1.17Z"/>
            <path class="cls-6" d="M45.56,30.99c.37,.7-.08,1.49-1.01,1.77-.93,.28-1.99-.06-2.37-.75-.37-.7,.08-1.49,1.01-1.77,.93-.28,1.99,.06,2.37,.76Z"/>
            <path class="cls-6" d="M10.65,25.55c.41,.75-.09,1.61-1.1,1.92-1.01,.3-2.16-.06-2.57-.82-.41-.75,.09-1.61,1.1-1.92,1.01-.3,2.16,.06,2.57,.82Z"/>
            <path class="cls-6" d="M11.29,21.09c.21,.39-.04,.84-.57,1-.53,.16-1.13-.03-1.34-.43-.21-.39,.04-.84,.57-1,.53-.16,1.13,.03,1.34,.43Z"/>
            <path class="cls-6" d="M6.59,20.15c.34,.63-.07,1.34-.91,1.59-.84,.25-1.79-.05-2.13-.68-.34-.63,.07-1.34,.91-1.59,.84-.25,1.79,.05,2.13,.68Z"/>
          </g>
        </g>
      </g>
      <g id="_Слой_10" data-name="Слой 10">
        <g id="_Слой_12" data-name="Слой 12">
          <path d="M13.53,53.4c-1.35,0-2.35-.91-2.96-1.67-.72-.9-1.3-2.11-1.6-3.33-.08-.36-.16-.71-.15-1.08,.04-.58,.16-.98,.39-1.31,.15-.2,.33-.35,.56-.45l.04-.02v-.04s0,0,0,0c.07-.71,.49-1.2,1.16-1.33,.11-.03,.21-.04,.32-.04,.27,0,.53,.08,.76,.22l.05,.03,.04-.04c.23-.26,.59-.41,.94-.41,.08,0,.15,0,.22,.02,.44,.07,.82,.37,1.15,.87l.05,.07,.06-.06c.77-.83,2.03-1.9,3.61-2.29,.44-.11,.87-.16,1.3-.16,.09,0,.18,0,.28,0h.08s-.01-.08-.01-.08c-.08-.51-.14-1.03-.16-1.54-.03-.57,0-1.15,.07-1.72,.14-1.09,.34-1.97,.63-2.79,.68-1.97,2.11-3.45,3.91-4.06,.92-.32,1.98-.49,3.15-.49,.08,0,.16,0,.25,0,.08,0,.17,0,.25,0,1.18,0,2.24,.16,3.15,.49,3.08,1.06,4.13,4,4.47,6.28,.14,.86,.19,1.61,.15,2.28-.02,.49-.08,1.01-.17,1.54v.08s.07,0,.07,0c.09,0,.18,0,.28,0,.43,0,.86,.05,1.3,.16,1.58,.39,2.84,1.46,3.61,2.29l.06,.06,.05-.07c.35-.54,.75-.83,1.22-.88,.05,0,.1,0,.15,0,.37,0,.71,.15,.94,.41l.04,.04,.05-.03c.23-.14,.49-.22,.76-.22,.23,0,.46,.05,.68,.15,.45,.19,.74,.64,.8,1.23v.04s.04,.02,.04,.02c.38,.17,.64,.47,.8,.92,.16,.47,.2,.99,.11,1.46-.27,1.4-.86,2.72-1.71,3.81-.48,.6-1.27,1.37-2.34,1.59-.2,.04-.41,.06-.62,.06h0c-.85,0-1.63-.31-2.07-.83-.04-.04-.07-.09-.1-.13h0s-.01-.02-.01-.02c-.49-.28-1.74-.93-2.81-1.02-.23-.02-.46-.03-.68-.03-1.45,0-2.59,.4-3.79,.82-.91,.32-1.86,.65-2.99,.84h-.01s0,0,0,0c-.41,.1-.83,.14-1.24,.14-.07,0-.14,0-.21,0h0s0,0,0,0c-.01,0-.02,0-.03,0-.06,0-.12,0-.17,0-.06,0-.12,0-.18,0,0,0-.02,0-.03,0h0s0,0,0,0c-.07,0-.14,0-.21,0-.42,0-.85-.05-1.26-.15h0c-1.13-.19-2.07-.52-2.98-.84-1.2-.42-2.33-.82-3.78-.82-.22,0-.45,0-.68,.03-1.07,.09-2.33,.75-2.81,1.02h-.01s0,.02,0,.02c-.22,.32-.53,.56-.89,.7-.43,.18-.87,.27-1.29,.27Z"/>
          <path class="cls-13" d="M45.93,47.84c-.14,.71-.39,1.4-.69,2.06-.7,1.46-1.92,3.12-3.72,2.98-.47-.05-.97-.16-1.35-.45-.05-.04-.1-.08-.14-.12-.12-.11-.23-.25-.31-.39h0c-.2-.33-.32-.73-.36-1.14,0-.07-.1-.07-.12,0-.05,.3-.04,.61,.02,.9-.64-.31-1.55-.69-2.4-.76-1.89-.16-3.23,.32-4.66,.82-.15,.05-.3,.1-.45,.16,.21-.18,.4-.38,.57-.59,.17-.21,.33-.44,.46-.68,.03-.06-.05-.1-.09-.05-.13,.18-.3,.36-.46,.51-.5,.47-1.09,.84-1.73,1.1-.42,.17-.86,.29-1.3,.36-.11,.02-.22,.04-.33,.05-.33,.05-.67,.07-1.01,.09h0c-.06,0-.12,0-.18,0-.06,0-.11,0-.17,0-.91-.05-1.81-.16-2.65-.5-.49-.2-.96-.46-1.38-.79-.3-.24-.58-.51-.81-.82-.01-.02-.04-.03-.06-.02-.02,.01-.03,.04-.02,.07,.11,.22,.25,.42,.39,.61,.19,.24,.41,.47,.65,.67-.15-.05-.3-.11-.45-.16-1.42-.5-2.77-.98-4.66-.82-.84,.07-1.76,.45-2.39,.76,.03-.14,.05-.28,.05-.43,0-.16,0-.31-.03-.47,0-.02-.03-.05-.05-.05-.03,0-.06,.02-.07,.06-.04,.4-.16,.8-.36,1.13h0c-.09,.15-.19,.28-.31,.39-.05,.04-.09,.08-.14,.12-.38,.29-.88,.41-1.35,.45-.84,.08-1.64-.29-2.24-.86-1.05-.99-1.7-2.38-2.08-3.76-.08-.32-.15-.64-.14-.97,0-.09,0-.17,.02-.26,.04-.32,.14-.66,.38-.88,.07,.38,.22,.74,.44,1.05,.07,.1,.15,.19,.23,.27,.02,.02,.05,.02,.07,0,.02-.02,.03-.05,.01-.07-.12-.17-.22-.37-.3-.59-.1-.27-.15-.56-.16-.85,0-.21,.03-.41,.09-.61,.04-.14,.11-.26,.19-.38,.22-.32,.63-.42,1-.41,.15,.01,.29,.06,.42,.13,.03,.02,.05,.03,.08,.05h0c-.04,.15-.04,.31-.01,.49,.04,.19,.12,.36,.22,.51,.03,.04,.1,.01,.09-.04-.04-.17-.07-.34-.06-.51,0-.06,.01-.12,.03-.18,.02-.08,.05-.15,.09-.22,.06-.1,.14-.18,.23-.25,.23-.17,.55-.24,.83-.17,.34,.09,.64,.39,.89,.79,0,0,0,0,0,0,.1,.15,.19,.32,.28,.5,.56,1.14,.94,2.7,1.29,3.44,.01,.02,.04,.04,.06,.03,.03,0,.05-.04,.04-.07-.12-.5-.21-1.02-.33-1.52-.12-.49-.27-1.17-.51-1.82-.06-.16-.13-.32-.2-.48,.32-.35,.77-.79,1.32-1.21,.23-.18,.49-.35,.76-.5,.43-.25,.91-.46,1.42-.58,.53-.13,1.06-.18,1.57-.14,.16,.8,.4,1.59,.69,2.35,.02,.04,.05,.06,.1,.05,.05,0,.07-.06,.06-.1-.16-.73-.29-1.46-.38-2.2,0-.01,0-.03,0-.04-.01-.1-.03-.2-.04-.3,0-.08-.02-.17-.03-.25-.02-.17-.03-.35-.05-.51-.06-.73-.07-1.47,0-2.19,.07-.73,.2-1.46,.38-2.16,.67-2.66,2.17-4.5,4.93-5.08,.71-.15,1.44-.22,2.17-.24,.73,.02,1.47,.08,2.17,.24,3.25,.69,4.63,3.06,5.16,6.15,.2,1.08,.23,2.19,.14,3.28-.01,.17-.03,.34-.05,.51-.02,.18-.04,.37-.06,.55-.02,.14-.04,.28-.06,.41-.09,.61-.2,1.22-.33,1.83-.02,.11,.12,.14,.16,.05,.28-.7,.49-1.43,.65-2.17,0-.01,0-.03,0-.04,0-.05,.02-.09,.03-.14,.07,0,.13,0,.2-.01,.45-.02,.9,.03,1.37,.15,.65,.16,1.25,.45,1.77,.79,.23,.15,.45,.31,.66,.48,.44,.36,.8,.72,1.07,1.02-.06,.12-.11,.24-.16,.37-.29,.75-.49,1.62-.64,2.36-.09,.42-.16,.8-.24,1.09,0,.03,0,.05,.03,.06,.03,.01,.06,0,.07-.03,.14-.32,.26-.65,.37-.98,.05-.13,.1-.27,.15-.43,.19-.56,.42-1.3,.72-1.93,.01-.03,.03-.06,.04-.09,.09-.18,.18-.35,.28-.51,.23-.35,.48-.63,.78-.75,.33-.13,.69-.07,.95,.13,.11,.08,.21,.19,.27,.32,.02,.05,.04,.1,.06,.15,.02,.06,.03,.13,.03,.2,.01,.16-.02,.32-.06,.49-.01,.05,.06,.09,.09,.04,.11-.16,.18-.32,.22-.48,.04-.18,.03-.35,0-.51h0c.15-.11,.31-.17,.5-.19,.37-.02,.77,.08,1,.41,.08,.11,.14,.24,.19,.38,0,.02,.01,.04,.02,.06,.05,.18,.07,.36,.07,.54h0c0,.07,0,.14,0,.2-.04,.43-.18,.87-.44,1.23-.04,.05,.03,.11,.08,.07,.17-.18,.31-.38,.42-.6,.1-.21,.18-.43,.23-.66,0-.02,0-.04,.01-.07,.24,.22,.33,.56,.38,.88,.04,.27,.03,.53-.03,.81Z"/>
          <ellipse class="cls-24" cx="27.68" cy="45.01" rx="6.23" ry="7.25"/>
          <path class="cls-24" d="M15.99,50.99h0c-.06,.33-.17,.65-.33,.92h0c-.09,.15-.19,.28-.31,.39-.05,.04-.09,.08-.14,.12-.38,.29-.88,.41-1.35,.45-.84,.08-1.64-.29-2.24-.86-1.05-.99-1.7-2.38-2.08-3.76-.08-.32-.15-.64-.14-.97,0-.09,0-.17,.02-.26,.04-.32,.14-.66,.38-.88,.07,.38,.22,.74,.44,1.05,.07,.1,.15,.19,.23,.27,.02,.02,.05,.02,.07,0,.02-.02,.03-.05,.01-.07-.12-.17-.22-.37-.3-.59-.1-.27-.15-.56-.16-.85,0-.21,.03-.41,.09-.61,.04-.14,.11-.26,.19-.38,.22-.32,.63-.42,1-.41,.15,.01,.29,.06,.42,.13,.03,.02,.05,.03,.08,.05h0c-.04,.15-.04,.31-.01,.49,.04,.19,.12,.36,.22,.51,.03,.04,.1,.01,.09-.04-.04-.17-.07-.34-.06-.51,0-.06,.01-.12,.03-.18,.02-.08,.05-.15,.09-.22,.06-.1,.14-.18,.23-.25,.23-.17,.55-.24,.83-.17,.34,.09,.64,.39,.89,.79h0c.1,.16,.19,.33,.28,.51,.5,1.01,.85,2.36,1.17,3.17,0,0,0,0,0,0,.41,1.5,.39,2.11,.39,2.13Z"/>
          <path class="cls-24" d="M39.37,50.99h0c.06,.33,.17,.65,.33,.92h0c.09,.15,.19,.28,.31,.39,.05,.04,.09,.08,.14,.12,.38,.29,.88,.41,1.35,.45,.84,.08,1.64-.29,2.24-.86,1.05-.99,1.7-2.38,2.08-3.76,.08-.32,.15-.64,.14-.97,0-.09,0-.17-.02-.26-.04-.32-.14-.66-.38-.88-.07,.38-.22,.74-.44,1.05-.07,.1-.15,.19-.23,.27-.02,.02-.05,.02-.07,0-.02-.02-.03-.05-.01-.07,.12-.17,.22-.37,.3-.59,.1-.27,.15-.56,.16-.85,0-.21-.03-.41-.09-.61-.04-.14-.11-.26-.19-.38-.22-.32-.63-.42-1-.41-.15,.01-.29,.06-.42,.13-.03,.02-.05,.03-.08,.05h0c.04,.15,.04,.31,.01,.49-.04,.19-.12,.36-.22,.51-.03,.04-.1,.01-.09-.04,.04-.17,.07-.34,.06-.51,0-.06-.01-.12-.03-.18-.02-.08-.05-.15-.09-.22-.06-.1-.14-.18-.23-.25-.23-.17-.55-.24-.83-.17-.34,.09-.64,.39-.89,.79h0c-.1,.16-.19,.33-.28,.51-.5,1.01-.85,2.36-1.17,3.17,0,0,0,0,0,0-.41,1.5-.39,2.11-.39,2.13Z"/>
          <g>
            <path class="cls-25" d="M11.92,46.94c-1.1,.49-1.47,2.06-.83,3.51,.64,1.45,2.06,2.23,3.16,1.74,1.1-.49,1.47-2.06,.83-3.51-.64-1.45-2.06-2.23-3.16-1.74Z"/>
            <path class="cls-25" d="M43.44,46.94c-1.1-.49-2.51,.29-3.16,1.74-.64,1.45-.27,3.02,.83,3.51,1.1,.49,2.51-.29,3.16-1.74,.64-1.45,.27-3.02-.83-3.51Z"/>
          </g>
          <path class="cls-5" d="M43.2,44.89s-.03-.02-.05-.03c-.19-.08-.4-.06-.59-.02-.45,.09-.88,.29-1.24,.56-.16,.12-.3,.24-.43,.38,.01-.03,.03-.06,.04-.09,.09-.18,.18-.35,.28-.51,.23-.35,.48-.63,.78-.75,.33-.13,.69-.07,.95,.13,.11,.08,.21,.19,.27,.32Z"/>
          <path class="cls-5" d="M45.22,45.43c-.23-.11-.47-.21-.72-.25-.32-.06-.67-.04-.97,.1,.04-.18,.03-.35,0-.51h0c.15-.11,.31-.17,.5-.19,.37-.02,.77,.08,1,.41,.08,.11,.14,.24,.19,.38,0,.02,.01,.04,.02,.06Z"/>
          <path class="cls-5" d="M11.34,44.58c.15,.01,.29,.06,.42,.13-.45,.11-.87,.39-1.14,.77-.3,.41-.35,.85-.39,1.33-.1-.27-.15-.56-.16-.85,0-.21,.03-.41,.09-.61,.04-.14,.11-.26,.19-.38,.22-.32,.63-.42,1-.41Z"/>
          <path class="cls-5" d="M14.15,45.19s0,0,0,0c-.06-.04-.12-.08-.18-.11-.15-.09-.3-.19-.47-.23-.31-.08-.64,0-.94,.11-.17,.06-.36,.13-.49,.25,0-.06,.01-.12,.03-.18,.02-.08,.05-.15,.09-.22,.06-.1,.14-.18,.23-.25,.23-.17,.55-.24,.83-.17,.34,.09,.64,.39,.89,.79Z"/>
          <path class="cls-5" d="M16.11,44.06c-.45,.51-.85,1.07-1.12,1.68-.06-.16-.13-.32-.2-.48,.32-.35,.77-.79,1.32-1.21Z"/>
          <path class="cls-5" d="M40.57,45.27c-.06,.12-.11,.24-.16,.37-.16-.37-.4-.71-.65-1.02-.09-.12-.18-.24-.26-.36,.44,.36,.8,.72,1.07,1.02Z"/>
          <path class="cls-8" d="M23.62,51.9c-.15-.05-.3-.11-.45-.16-1.42-.5-2.77-.98-4.66-.82-.44,.04-.89,.15-1.32,.3-.01,0-.02,0-.03,.01-.33,.11-.65,.25-.97,.41-.03,.01-.05,.02-.08,.04,.03-.14,.05-.28,.05-.43,0-.16,0-.31-.03-.47,0-.02-.03-.05-.05-.05-.03,0-.06,.02-.07,.06-.04,.4-.16,.8-.36,1.13-.09,.15-.19,.28-.31,.39-.05,.04-.09,.08-.14,.12-.38,.29-.88,.41-1.35,.45-.84,.08-1.64-.29-2.24-.86-1.05-.99-1.7-2.38-2.08-3.76-.08-.32-.15-.64-.14-.97,.19,.56,.42,1.07,.7,1.6,.58,1.13,1.68,2.6,3.02,2.82,.66,.11,1.36-.06,1.92-.44,.5-.34,.81-.9,1.04-1.43,.15-.36,.77,.1,1.02,.17,.44,.13,.9,.18,1.35,.13,.67-.06,1.31-.32,1.93-.57,.33-.13,.66-.27,1-.38,.4-.13,.48,.1,.66,.39,.21,.35,.45,.68,.69,1,.1,.13,.2,.26,.3,.38-.12-.13-.24-.26-.35-.4-.01-.02-.04-.03-.06-.02-.02,.01-.03,.04-.02,.07,.11,.22,.25,.42,.4,.61,.19,.24,.41,.47,.65,.67Z"/>
          <path class="cls-8" d="M45.93,47.84c-.14,.71-.39,1.4-.69,2.06-.7,1.46-1.92,3.12-3.72,2.98-.47-.05-.97-.16-1.35-.45-.05-.04-.1-.08-.14-.12-.12-.11-.23-.25-.31-.39-.2-.33-.32-.73-.36-1.13,0-.07-.1-.07-.12,0-.05,.3-.04,.61,.02,.9-.64-.31-1.55-.69-2.4-.76-1.89-.16-3.23,.32-4.66,.82-.15,.05-.3,.1-.45,.16,.21-.18,.4-.38,.57-.59,.17-.21,.33-.44,.46-.68,.03-.06-.05-.1-.09-.05-.13,.18-.3,.36-.46,.51-.5,.47-1.09,.84-1.73,1.1-.42,.17-.86,.29-1.3,.36-.11,.02-.22,.04-.33,.05,.57-.26,1.49-.69,1.71-1.33,.35-1.05-.22-3.6-1.72-3.44-.28,.03-.75,.26-1.04,.25-1.68-.08-5.24-2.99-5.93-3.26-.74-.29-.68,.55-.95,.97-.06,.09-.15,.19-.26,.18-.1,0-.16-.1-.22-.18-.8-1.15-2.02-1.99-3.37-2.35,.37-.19,.77-.35,1.2-.46,.53-.13,1.06-.18,1.57-.14,.16,.8,.4,1.59,.69,2.35,.02,.04,.05,.06,.1,.05,.05,0,.07-.06,.06-.1-.16-.73-.29-1.46-.38-2.2,0-.01,0-.03,0-.04-.01-.1-.03-.2-.04-.3,0-.08-.02-.17-.03-.25-.02-.17-.03-.35-.05-.51-.06-.73-.07-1.47,0-2.19,.02-.16,.04-.33,.06-.49,.35-.23,.72-.43,1.11-.57,.77-.28,1.6-.35,2.42-.38,.96-.03,1.91,0,2.87,.05,2.91,.15,5.89,.44,8.53,1.69,.04,.63,.02,1.26-.03,1.88-.01,.17-.03,.34-.05,.51-.02,.18-.04,.37-.06,.55-.02,.14-.04,.28-.06,.41-.09,.61-.2,1.22-.33,1.83-.02,.11,.12,.14,.16,.05,.28-.7,.49-1.43,.65-2.17,0-.01,0-.03,0-.04,0-.05,.02-.09,.03-.14,.07,0,.13,0,.2-.01,.45-.02,.9,.03,1.37,.15,.53,.13,1.02,.35,1.47,.61-.5,.55-.96,1.15-1.37,1.78-.48,.74-.89,1.56-.92,2.44-.01,.26,.01,.53,.13,.76,.23,.45,.79,.66,1.3,.63,.85-.05,1.62-.5,2.09-1.2,.05-.08,.11-.15,.17-.22,.06-.06,.15-.12,.21-.06,.03,.03,.04,.08,.04,.12,.02,.68-.01,1.21,.3,1.82,.24,.48,.61,.73,1.12,.89,1.65,.53,3.25-1.87,3.6-3.2,.04-.16,.08-.32,.12-.48,.1-.21,.18-.43,.23-.66,0-.02,0-.04,.01-.07,.24,.22,.33,.56,.38,.88,.04,.27,.03,.53-.03,.81Z"/>
          <path d="M27.68,47.07s-.07,0-.1-.02c-.09-.04-2.16-.9-4.2-2.57-1.2-.99-2.14-2.05-2.78-3.16-.81-1.4-1.15-2.88-1.02-4.39,.14-1.57,.62-2.84,1.43-3.75,.71-.81,1.63-1.29,2.67-1.41,1.68-.19,3.26,.62,4,1.98,.74-1.36,2.32-2.18,4-1.98,1.04,.12,1.96,.61,2.67,1.41,.81,.92,1.29,2.18,1.43,3.75,.14,1.51-.21,2.99-1.02,4.39-.64,1.11-1.58,2.17-2.78,3.16-2.04,1.67-4.11,2.54-4.2,2.57-.03,.01-.07,.02-.1,.02Z"/>
          <path class="cls-27" d="M31.65,44.05c-1.15,.94-2.33,1.63-3.12,2.04-.4,.21-.7,.35-.85,.41-.42-.19-2.11-.97-3.77-2.29-.07-.05-.14-.11-.2-.17-2.62-2.15-3.83-4.53-3.6-7.08,.05-.54,.14-1.04,.27-1.5,.54-1.84,1.73-3,3.36-3.18,.14-.02,.28-.02,.43-.02,1.49,0,2.82,.89,3.26,2.23,.02,.05,.05,.1,.1,.13,.04,.03,.1,.05,.16,.05,.12,0,.22-.07,.25-.18,.48-1.47,2.03-2.4,3.69-2.21,2.03,.23,3.39,1.98,3.63,4.68,0,.04,0,.07,0,.11,.18,2.51-1.03,4.86-3.61,6.97Z"/>
          <path class="cls-8" d="M31.65,44.05c-1.15,.94-2.33,1.63-3.12,2.04,0,0,0-.01,0-.02,.08-.25,.11-.55-.06-.77-.14-.19-.38-.25-.55-.41-.17-.16-.31-.36-.39-.58-.07-.18-.16-.38-.4-.39-.2,0-.31,.2-.33,.38-.02,.16-.02,.32,0,.48,0,.03,0,.07,0,.09-.02,.03-.07,.04-.1,.03-.04-.01-.07-.04-.09-.07-.18-.19-.31-.44-.52-.59-.17-.12-.39-.23-.59-.27-.43-.09-.9-.02-1.31,.13-.09,.03-.18,.07-.28,.12-.07-.05-.14-.11-.2-.17-2.62-2.15-3.83-4.53-3.6-7.08,.05-.54,.14-1.04,.27-1.5-.01,.32,0,.64,.06,.95,.1,.55,.37,1.1,.83,1.42,.32,.23,.71,.34,1.1,.39,.45,.07,.93,.07,1.33-.15,.91-.52,.39-1.72,.16-2.48-.03-.1-.06-.21-.04-.31,.14-.04,.28,.06,.38,.17,.28,.29,.46,.68,.77,.95,.05,.04,.11,.09,.18,.08,.08-.01,.12-.1,.15-.17,.09-.24,.11-.5,.2-.74,.02-.05,.04-.1,.08-.14,.04-.04,.1-.05,.15-.02,.04,.02,.05,.07,.06,.11,.08,.31,.12,.63,.27,.91,.05,.09,.1,.17,.18,.23,.14,.11,.33,.13,.51,.15,.19,.02,.38,.05,.56,.11,.19,.07,.37,.17,.55,.28,.15,.09,.29,.17,.41,.29,.13,.12,.22,.28,.3,.44,.26,.53,.3,1.09,.41,1.66,.06,.29,.24,.91,.62,.53,.26-.26,.47-.57,.7-.85,.05-.07,.11-.14,.19-.17,.24-.11,.18,.19,.18,.31,0,.14,0,.28,0,.42,0,.09,0,.18,.05,.25,.2,.27,.53-.35,.62-.47,.21-.28,.42-.56,.67-.81,.08-.08,.2-.15,.28-.08,.06,.05,.05,.15,.03,.23-.06,.25-.13,.5-.21,.74-.1,.29-.2,.68,.05,.86,.2,.14,.47,.04,.68-.07,1.24-.7,2.08-2,2.4-3.39,.18,2.51-1.03,4.86-3.61,6.97Z"/>
          <g>
            <path d="M25.68,39.94c-.41-1.46-.79-2.96-1.61-4.26,0-.01-.02-.02-.03-.01-.01,0-.02,.02-.01,.04,.29,.7,.54,1.41,.76,2.13,.31,1,.64,2.26,.92,3.27,.31,1.09,.54,2.2,.85,3.3,0,.02,.02,.03,.05,.03,.02,0,.04-.02,.04-.05-.13-1.13-.41-2.24-.67-3.35-.07-.28-.21-.83-.29-1.1Z"/>
            <path d="M25.73,39.09c.02,.08,.11,.13,.19,.11,.08-.02,.13-.11,.11-.19-.07-.25-.14-.51-.19-.77-.05-.26-.09-.52-.12-.79-.06-.53-.07-1.07-.05-1.61,0-.04-.05-.04-.06,0-.06,.27-.09,.54-.11,.81-.02,.27-.03,.55-.01,.82,.02,.55,.1,1.1,.24,1.63Z"/>
            <path d="M30.38,39.71s-.02,0-.02,0c-.37,.85-.63,1.76-.75,2.69,0,.21,.3,.22,.31,0,.03-.9,.18-1.81,.47-2.68,0,0,0-.02,0-.02Z"/>
            <path d="M31.95,39.19c-.78,1.16-1.34,2.48-1.64,3.86-.02,.09,.04,.17,.13,.19,.09,.01,.17-.05,.18-.13,.21-1.36,.69-2.68,1.39-3.88,.02-.04-.04-.08-.06-.04Z"/>
          </g>
          <path class="cls-20" d="M21.36,34.38c-.19,.3-.34,.63-.39,.98-.02,.13,0,.33,.14,.39,.17,.07,.3-.09,.38-.21,.23-.38,.58-.7,.93-.95,.38-.28,.81-.5,1.24-.69,.21-.09,.34-.3,.28-.52-.04-.19-.2-.34-.4-.37-.52-.06-1.01,.15-1.4,.48-.27,.23-.54,.54-.74,.84-.01,.02-.03,.04-.04,.06Z"/>
          <path class="cls-20" d="M25.68,33.41c-.04,.25-.32,.42-.64,.37-.32-.05-.55-.29-.51-.54,.04-.25,.32-.42,.64-.37,.32,.05,.55,.29,.51,.54Z"/>
          <path class="cls-20" d="M33.72,34.43c-.17,.22-.61,.15-.98-.14-.37-.29-.53-.71-.35-.93,.17-.22,.61-.15,.98,.14,.37,.29,.53,.71,.35,.93Z"/>
          <path d="M28.19,42.24c-.09-.17-.25-.31-.47-.42l-.1-.05,.1-.06c.42-.27,.68-.58,.79-.94,.13-.43-.12-.88-.49-1.1l-.07-.04,.05-.06c.19-.25,.32-.6,.3-.86-.05-.4-.36-.68-.76-.68-.11,0-.23,.02-.34,.07-.1,.04-.2,.1-.32,.2-.03,.03-.07,.05-.11,.08l-.19,.15v-.15c.02-.18,.02-.39-.03-.55-.11-.39-.4-.63-.77-.63-.02,0-.04,0-.06,0-.35,.02-.69,.3-.92,.67-.06,.1-.1,.19-.15,.28-.17,.34-.3,.59-.79,.82-.26,.12-.58,.18-.98,.18-.07,0-.14,0-.22,0-.71-.03-1.73-.43-2.55-.89-.04-.37-.05-.75-.02-1.13h0c0-.05,0-.1,.01-.15,.04-.47,.12-.91,.23-1.32,.34-1.29,.99-2.26,1.87-2.82,.17-.11,.36-.21,.55-.28-.04-.1-.09-.2-.14-.3-.03-.06-.07-.12-.1-.18-.07-.11-.16-.22-.26-.3-.38-.31-.89-.46-1.37-.43-.53,.03-1.02,.34-1.39,.71-.34,.35-.59,.77-.82,1.2-.69,1.25-1.3,2.56-1.75,3.92-.66,2.01-.75,3.62-.27,4.77,.39,.95,1.17,1.59,2.3,1.88,.36,.09,.74,.16,1.13,.19,.17,.02,.35,.03,.53,.03,.1,0,.18,0,.26,0,.62,0,1.24-.06,1.83-.14,.23-.03,.46-.07,.68-.11,.26-.04,.51-.09,.75-.14,.55-.1,1.17-.11,1.7-.11,.08,0,.16,0,.24,0h.01c.09,0,.17,0,.25,0,.92,0,1.63-.04,1.84-.49,.17-.37,.09-.64,0-.8Z"/>
          <path d="M39.61,40.02c-.1-1.56-.56-3.19-1.33-4.71-.67-1.31-1.64-2.59-2.67-3.5-.5-.44-1.18-.63-1.84-.48-.22,.05-.43,.13-.6,.28-.14,.12-.25,.28-.31,.45-.06,.17-.1,.35-.11,.53,.17,.08,.34,.17,.5,.28,.99,.67,1.67,1.87,1.93,3.45,.03,.2,.06,.42,.08,.63,.07,.84,0,1.66-.24,2.46-.01,.05-.03,.09-.04,.14-.99,.96-2.49,1.94-3.3,2.15-.14,.04-.28,.06-.41,.06-.15,0-.3-.03-.44-.08-.08-.03-.17-.06-.25-.1-.12-.05-.25-.11-.39-.14-.12-.03-.23-.04-.34-.04-.17,0-.33,.04-.46,.1-.26,.14-.42,.36-.46,.62-.05,.33,.09,.72,.37,1.01l.11,.12h-.17s-.08-.01-.12-.01c-.02,0-.09,0-.11,0h-.02c-.34,0-.76,.19-.88,.6-.13,.46,.21,.9,.61,1.03,.08,.03,.17,.05,.26,.07h.07s-.02,.08-.02,.08c-.06,.23-.07,.52,.05,.77,.06,.12,.14,.23,.27,.32,.04,.03,.08,.05,.13,.08,.23,.12,.51,.18,.84,.18,.09,0,.18,0,.27-.01h.1s-.03,.09-.03,.09c-.09,.28-.17,.69-.05,1,.08,.21,.25,.36,.48,.44,.08,.03,.16,.04,.24,.04,.49,0,.97-.48,1.53-1.04,.51-.51,1.09-1.09,1.78-1.4,.58-.26,1.04-.48,1.45-.72,.17-.1,.34-.2,.5-.3,.63-.41,1.2-.88,1.89-1.58,.8-.82,1.21-1.84,1.14-2.87Z"/>
          <g>
            <path class="cls-13" d="M27.75,42.51s.08,.15-.02,.38c0,0,0,.01-.01,.02-.14,.2-1.01,.19-1.65,.19-.65,0-1.38-.01-2.04,.11-.18,.03-.37,.07-.55,.1-.01,0-.03,0-.04,0-.16,.03-.32,.05-.48,.08-.22,.03-.45,.06-.67,.09-.57,.07-1.14,.1-1.7,.08-.18,0-.36-.02-.53-.04-.13-.01-.25-.03-.38-.05,0,0,0,0,0,0-.21-.03-.41-.08-.62-.13,0,0-.01,0-.02,0-.99-.27-1.63-.8-1.96-1.62-.5-1.23-.21-2.69,.15-3.92,.33-1.13,.74-2.24,1.29-3.29,.37-.7,.66-1.44,1.24-2.02,.34-.34,.83-.66,1.33-.66,.32,0,.79,.18,1.01,.46-.39,.23-.75,.52-1.07,.88-.81,.92-1.29,2.18-1.43,3.75-.02,.27-.03,.53-.03,.8,0,.04,0,.08,0,.13-.02-.01-.05-.03-.07-.04-.05-.03-.1,.02-.09,.07,.05,.12,.11,.23,.18,.34,.11,.16,.24,.3,.39,.42,0,0,.01,0,.02,.01,.07,.05,.14,.11,.21,.16,.14,.09,.28,.17,.43,.24,.24,.12,.5,.21,.75,.29,1.11,.34,2.56,.5,3.43-.45,.14-.14,.25-.35,.34-.54,.05-.1,.1-.2,.15-.28,.15-.24,.31-.34,.45-.34,.25,0,.44,.3,.38,.73-.02,.16-.07,.32-.15,.48-.05,.04-.09,.09-.14,.13-.02,.02-.04,.04-.06,.06-.03,.03,0,.07,.04,.07,.05,0,.1-.02,.15-.03,.18-.04,.35-.1,.52-.17,.03-.01,.05-.02,.08-.04,.19-.08,.37-.19,.53-.31,.07-.05,.15-.12,.24-.15,.06-.03,.12-.04,.18-.04,.25-.02,.44,.17,.43,.47-.05,.44-.44,.84-.87,1.15-.21,.16-.43,.29-.62,.4-.04,.02-.01,.09,.03,.07,.37-.1,.83-.3,1.2-.59,0,.01,.02,.02,.03,.03,.48,.4,.38,.67,.04,1.13-.15,.19-.33,.36-.52,.51-.14,.11-.29,.21-.44,.3-.02,.01-.04,.02-.06,.04-.12,.07-.23,.13-.35,.2-.05,.02-.03,.1,.02,.09,.21-.02,.41-.06,.61-.12,.09,.02,.22,.05,.34,.11,.01,0,.02,0,.03,.01,.15,.06,.28,.15,.35,.27Z"/>
            <path class="cls-13" d="M38.13,42.56c-.57,.58-1.06,1.01-1.6,1.38-.04,.03-.08,.05-.12,.08-.02,.01-.03,.02-.05,.03-.08,.05-.16,.1-.24,.15-.03,.02-.06,.03-.08,.05-.45,.27-.96,.52-1.59,.8-.76,.34-1.38,.95-1.92,1.49-.51,.51-.98,.98-1.29,.89-.13-.04-.17-.11-.19-.17-.09-.24,.03-.67,.17-.98,0,0,0,0,0,0,.2-.07,.38-.16,.53-.26,.06-.04,.02-.15-.06-.13-.07,.02-.15,.04-.22,.05-.05,0-.09,.02-.14,.02-.01,0-.03,0-.04,0-.18,.02-.36,.03-.54,.03-.22,0-.44-.04-.65-.08-.04-.01-.08-.02-.12-.03-.25-.08-.4-.18-.47-.35-.05-.12-.05-.28,0-.5,.19-.01,.38-.04,.57-.09,.03,0,.06-.01,.08-.02,.23-.06,.45-.15,.66-.25,.06-.03,.03-.11-.03-.1-.03,0-.06,0-.08,.01-.63,.1-1.41,.16-1.92-.19-.28-.22-.27-.59,.08-.73,.08-.04,.18-.06,.28-.07,.15-.02,.29-.04,.44-.06,.03,0,.06,0,.09-.01,.27-.04,.54-.1,.8-.2,.01,0,.02,0,.03-.01,.06-.02,.04-.11-.02-.11-.07,0-.13,0-.2,0-.01,0-.03,0-.04,0-.09-.05-.17-.1-.26-.15-.23-.15-.44-.34-.53-.6-.11-.29,.05-.54,.36-.55,.11,0,.21,.01,.3,.04,.21,.06,.41,.18,.64,.24,.08,.02,.17,.04,.25,.05,.08,.01,.16,.02,.24,.02,.75,0,1.52-.48,2.13-.88,.37-.26,.85-.6,1.29-1.01,.15-.13,.29-.27,.42-.41,.15-.17,.3-.34,.42-.51,.04-.05,.07-.1,.1-.16,.11-.17,.2-.35,.26-.53,.05-.15,.09-.31,.1-.46,0-.03-.01-.05-.04-.06-.03-.01-.07,0-.08,.04-.02,.06-.05,.12-.09,.19,.01-.1,.02-.2,.03-.29,0-.08,.01-.16,.02-.24,0-.12,.01-.24,.01-.36,0-.23,0-.46-.03-.69-.14-1.57-.62-2.84-1.43-3.75-.29-.33-.61-.6-.96-.82,.08-.15,.19-.28,.34-.36,.73-.39,1.42,.11,1.96,.61,.11,.1,.21,.2,.31,.29,.07,.07,.14,.13,.2,.2,.63,.66,1.18,1.52,1.6,2.33,.02,.03,.03,.07,.05,.1,.74,1.46,1.18,3.03,1.28,4.53,.06,.9-.3,1.79-1.01,2.51Z"/>
          </g>
          <path class="cls-8" d="M25.81,37.91c-.02-.07-.04-.14-.06-.22,.25,0,.44,.3,.39,.73-.02,.16-.07,.32-.15,.48-.05,.04-.09,.09-.14,.13-.01,.01-.03,.02-.05,.03,.11-.37,.11-.78,0-1.15Z"/>
          <path class="cls-8" d="M27.76,42.85s-.03,.04-.05,.06c-.22,.17-1.02,.16-1.61,.16-.65,0-1.38,0-2.04,.12-.2,.04-.39,.07-.59,.11-.01,0-.03,0-.04,0-.93,.16-1.89,.29-2.81,.26-.18,0-.36-.02-.53-.03-.14-.01-.28-.04-.42-.07,0,0,0,0,0,0-.21-.04-.42-.1-.63-.14-.99-.27-1.63-.8-1.96-1.62-.5-1.23-.21-2.69,.15-3.92,.33-1.13,.74-2.24,1.29-3.29,.37-.7,.66-1.44,1.24-2.02,.34-.34,.83-.66,1.33-.66,.32,0,.79,.18,1.01,.46-.39,.23-.75,.52-1.07,.88-.81,.92-1.29,2.18-1.43,3.75-.02,.27-.03,.53-.03,.8-.34-.17-.8-.08-1.11,.16-1.14,.89-1.56,2.51-1.01,3.84,.23,.57,.86,.87,1.45,1.04,1.24,.37,2.51,.34,3.78,.26,.67-.04,1.35-.21,2.02-.29,.89-.1,1.86-.23,2.71-.51,.02,0,.04-.01,.06-.02,.15,.06,.28,.15,.35,.27,.02,.04,.08,.15-.02,.38Z"/>
          <path class="cls-8" d="M27.27,41.59c-.14,.11-.29,.21-.44,.3,.5-.54,.81-1.24,.88-1.97,0,.01,.02,.02,.03,.03,.48,.39,.39,.67,.04,1.13-.15,.2-.32,.36-.51,.51Z"/>
          <path class="cls-8" d="M27.1,40.04c.36-.45,.51-1.05,.42-1.62,.25-.02,.44,.17,.43,.46-.05,.44-.44,.84-.86,1.16Z"/>
          <path class="cls-8" d="M29.44,42.47c-.11-.29,.05-.54,.36-.55,.11,0,.21,.01,.3,.04-.08,.42-.02,.87,.17,1.25-.01,0-.03,0-.04,0-.09-.05-.17-.1-.26-.15-.23-.15-.44-.34-.53-.6Z"/>
          <path class="cls-8" d="M28.77,44.41c-.28-.22-.27-.59,.08-.73,.08-.04,.18-.06,.28-.07,.15-.02,.29-.04,.44-.06-.05,.15-.03,.33,.07,.46,.1,.13,.24,.2,.39,.27,.22,.11,.45,.22,.67,.32-.63,.1-1.41,.16-1.92-.19Z"/>
          <path class="cls-8" d="M31.29,45.98c-.18,.02-.36,.03-.54,.03-.22,0-.44-.04-.65-.08-.53-.13-.7-.33-.59-.88,.19-.01,.38-.04,.57-.09,0,.06,.01,.12,.04,.18,.23,.5,.81,.7,1.36,.82-.05,0-.09,.02-.14,.02-.01,0-.03,0-.04,0Z"/>
          <path class="cls-8" d="M38.13,42.56c-.57,.58-1.06,1.01-1.6,1.38-.04,.03-.08,.05-.12,.08-.02,.01-.03,.02-.05,.03-.08,.05-.16,.1-.24,.15-.03,.02-.06,.03-.08,.05-.45,.27-.96,.52-1.59,.8-.76,.34-1.38,.95-1.92,1.49-.51,.51-.98,.98-1.29,.89-.13-.04-.17-.11-.19-.17-.09-.24,.03-.67,.17-.98,0,0,0,0,0,0-.02,.07-.02,.15,0,.22,.11,.26,.46,.32,.72,.21,.26-.11,.44-.34,.63-.54,.75-.81,1.77-1.3,2.69-1.91,.57-.38,1.1-.8,1.64-1.22,.42-.33,.85-.67,1.16-1.12,.5-.72,.6-1.63,.48-2.48-.1-.73-.3-1.73-1-2.12-.22-.12-.48-.14-.72-.1-.44,.08-.73,.25-.95,.62-.02,.04-.05,.08-.07,.12,0-.12,.01-.24,.01-.36,0-.23,0-.46-.03-.69-.14-1.57-.62-2.84-1.43-3.75-.29-.33-.61-.6-.96-.82,.08-.15,.19-.28,.34-.36,.73-.39,1.42,.11,1.96,.61,.11,.1,.21,.2,.31,.29,.07,.07,.14,.13,.2,.2,.63,.66,1.18,1.52,1.6,2.33,.02,.03,.03,.07,.05,.1,.74,1.46,1.18,3.03,1.28,4.53,.06,.9-.3,1.79-1.01,2.51Z"/>
          <path class="cls-5" d="M35.85,38.79c-.1,.75-.6,1.3-1.15,1.82-.6,.57-1.28,1.06-2.02,1.43-.33,.16-.67,.31-1.04,.33-.22,.02-.46-.02-.66-.11,.08,.01,.16,.02,.24,.02,.75,0,1.52-.48,2.13-.88,.5-.34,1.17-.84,1.71-1.42,.15-.17,.3-.34,.42-.51,.16-.22,.28-.45,.37-.68Z"/>
          <path class="cls-5" d="M25.15,38.32c-.09,.31-.33,.64-.5,.86-.25,.32-.56,.46-.95,.57-.78,.21-1.65,.14-2.4-.15-.45-.18-.87-.45-1.2-.81-.03-.03-.08-.09-.14-.15,0,0,.01,0,.02,.01,.19,.16,.41,.28,.64,.39,.25,.12,.5,.21,.75,.29,1.11,.33,2.57,.48,3.43-.47,.14-.14,.25-.35,.34-.54Z"/>
          <path d="M22.98,8.91c-.09-.15-2.17-3.64-5.15-3.83-1.61-.1-3.14,.78-4.57,2.63-1.14,1.48-1.53,2.97-1.18,4.45,.32,1.35,1.3,2.69,2.83,3.88,1.14,.89,2.17,1.38,2.22,1.4l.21,.1,4.36-6.47,.3-.45,1.07-1.58-.09-.15Z"/>
          <path class="cls-25" d="M21.28,10.74l-3.61,5.35c-.35-.32-1.04-1-1.67-1.81-.65-.83-1.34-1.93-1.34-2.87,0-.21,.03-.4,.1-.59,.48-1.23,1.1-1.92,1.89-2.11,1.01-.25,2.38,.3,4.17,1.67,.15,.12,.31,.24,.46,.36Z"/>
          <path class="cls-13" d="M14.27,10.62c-.83,2.12,2.3,5.18,3.1,5.92l-.22,.32c-.83-.44-3.92-2.23-4.55-4.83-.02-.08-.04-.16-.05-.24-.22-1.24,.16-2.5,1.13-3.76,1.24-1.61,2.55-2.43,3.9-2.43,.07,0,.14,0,.21,0,.49,.03,.95,.16,1.38,.36,1.69,.78,2.92,2.54,3.25,3.06l-.85,1.25c-2.17-1.75-3.79-2.42-5.06-2.11-.97,.24-1.71,1.04-2.26,2.44Z"/>
          <path class="cls-8" d="M20.82,10.37c-.04,.41-.17,.8-.38,1.15-.04,.07-.09,.14-.16,.19-.23,.16-.53-.04-.75-.21-.75-.61-1.65-1.09-2.62-1.14-.87-.04-1.79,.34-2.25,1.05,0-.21,.03-.4,.1-.59,.48-1.23,1.1-1.92,1.89-2.11,1.01-.25,2.38,.3,4.17,1.67Z"/>
          <path class="cls-5" d="M19.18,5.98c-.44-.08-.89-.09-1.34-.01-.52,.09-1.01,.31-1.47,.57-1.96,1.09-3.45,3.06-3.82,5.26-.22-1.24,.16-2.5,1.13-3.76,1.24-1.61,2.55-2.43,3.9-2.43,.07,0,.14,0,.21,0,.49,.03,.95,.16,1.38,.36Z"/>
          <path d="M32.33,9.05l1.07,1.58,.3,.45,4.36,6.47,.21-.1s1.08-.51,2.22-1.4c1.53-1.19,2.5-2.54,2.83-3.88,.36-1.48-.04-2.97-1.18-4.45-1.42-1.85-2.96-2.73-4.57-2.63-2.98,.19-5.06,3.68-5.15,3.83l-.09,.15Z"/>
          <path class="cls-25" d="M34.11,10.74l3.61,5.35c.35-.32,1.04-1,1.67-1.81,.65-.83,1.34-1.93,1.34-2.87,0-.21-.03-.4-.1-.59-.48-1.23-1.1-1.92-1.89-2.11-1.01-.25-2.38,.3-4.17,1.67-.15,.12-.31,.24-.46,.36Z"/>
          <path class="cls-13" d="M41.13,10.62c.83,2.12-2.3,5.18-3.1,5.92l.22,.32c.83-.44,3.92-2.23,4.55-4.83,.02-.08,.04-.16,.05-.24,.22-1.24-.16-2.5-1.13-3.76-1.24-1.61-2.55-2.43-3.9-2.43-.07,0-.14,0-.21,0-.49,.03-.95,.16-1.38,.36-1.69,.78-2.92,2.54-3.25,3.06l.85,1.25c2.17-1.75,3.79-2.42,5.06-2.11,.97,.24,1.71,1.04,2.26,2.44Z"/>
          <path class="cls-8" d="M34.58,10.37c.04,.41,.17,.8,.38,1.15,.04,.07,.09,.14,.16,.19,.23,.16,.53-.04,.75-.21,.75-.61,1.65-1.09,2.62-1.14,.87-.04,1.79,.34,2.25,1.05,0-.21-.03-.4-.1-.59-.48-1.23-1.1-1.92-1.89-2.11-1.01-.25-2.38,.3-4.17,1.67Z"/>
          <path class="cls-5" d="M36.22,5.98c.44-.08,.89-.09,1.34-.01,.52,.09,1.01,.31,1.47,.57,1.96,1.09,3.45,3.06,3.82,5.26,.22-1.24-.16-2.5-1.13-3.76-1.24-1.61-2.55-2.43-3.9-2.43-.07,0-.14,0-.21,0-.49,.03-.95,.16-1.38,.36Z"/>
          <path d="M42.26,23.6c-.05-.24-.16-.76-.31-1.46-.27-1.25-.69-3.14-1.04-4.94-1.27-6.53-5.71-9.84-13.21-9.85,0,0,0,0,0,0,0,0,0,0-.01,0,0,0,0,0-.01,0,0,0,0,0,0,0-7.46-.05-11.82,3.11-13.21,9.85-.37,1.8-.77,3.69-1.04,4.94-.16,.71-.27,1.22-.31,1.47-.59,3.1,.46,5.95,2.93,8.04,1.35,1.14,3.61,1.63,4.83,1.83,.54,.08,1.05,.29,1.48,.6,1.9,1.35,4.17,1.55,5.34,1.55s3.44-.2,5.34-1.55c.43-.31,.94-.51,1.48-.6,1.22-.19,3.47-.69,4.83-1.83,2.48-2.08,3.52-4.94,2.93-8.04Z"/>
          <path class="cls-24" d="M38.99,31.22c-1.25,1.06-3.4,1.52-4.57,1.71-.62,.1-1.21,.34-1.71,.69-1.3,.92-3.14,1.45-5.03,1.45-1.36,0-2.68-.27-3.8-.77-.45-.2-.86-.43-1.23-.69-.5-.35-1.09-.59-1.71-.69-.4-.06-.91-.16-1.46-.3-.65-.17-1.36-.4-2-.71-.4-.2-.78-.43-1.1-.7-2.32-1.95-3.3-4.63-2.75-7.53,.04-.24,.16-.77,.31-1.45,.02-.08,.03-.16,.05-.24,.27-1.25,.66-3.02,.99-4.71,.11-.55,.24-1.07,.39-1.57,.55-1.8,1.41-3.29,2.56-4.48h0c1.06-1.09,2.38-1.91,3.94-2.47,.05-.02,.09-.03,.14-.05,1.62-.56,3.51-.84,5.66-.84,1.54,0,2.94,.15,4.21,.43h0c2.98,.68,5.22,2.14,6.7,4.38h0c.85,1.28,1.44,2.82,1.79,4.6,.35,1.81,.77,3.7,1.04,4.95,.15,.68,.27,1.21,.31,1.45,.55,2.9-.43,5.57-2.75,7.53Z"/>
          <path class="cls-13" d="M19.7,17.08c-1.19,.93-2.27,2.09-2.93,3.27-.83,1.5-.46,3.68,1.11,4.49,2.27,1.16,4.95-.07,6.55-1.8,1.81-1.95,2.45-4.76,.9-7.01-.97-1.42-2.34-.9-3.65-.23-.65,.33-1.33,.77-1.98,1.28Z"/>
          <path class="cls-13" d="M35.7,17.08c1.19,.93,2.27,2.09,2.93,3.27,.83,1.5,.46,3.68-1.11,4.49-2.27,1.16-4.95-.07-6.55-1.8-1.81-1.95-2.45-4.76-.9-7.01,.97-1.42,2.34-.9,3.65-.23,.65,.33,1.33,.77,1.98,1.28Z"/>
          <ellipse class="cls-8" cx="22.39" cy="20.74" rx="3.34" ry="2.17" transform="translate(-.79 40.6) rotate(-83.4)"/>
          <ellipse class="cls-8" cx="33.1" cy="20.74" rx="2.17" ry="3.34" transform="translate(-2.16 3.94) rotate(-6.6)"/>
          <path d="M33.09,27.61c-.14-.05-.29,.03-.34,.17-.02,.05-.44,1.26-1.9,1.26-.06,0-.12,0-.18,0,0,0,0,0,0,0-.01,0-.03,0-.04,0-1.15-.14-2.16-1.29-2.51-1.73,.26-.1,.65-.27,1.05-.48,.96-.52,1.45-1.06,1.45-1.6,0-1.29-2.62-1.33-2.91-1.33h0s0,0,0,0c0,0,0,0,0,0h0c-.3,0-2.91,.04-2.91,1.33,0,.54,.49,1.08,1.45,1.6,.4,.21,.79,.38,1.05,.48-.37,.47-1.49,1.74-2.73,1.74-1.46,0-1.88-1.21-1.9-1.26-.05-.14-.2-.22-.34-.17-.14,.05-.22,.2-.17,.34,.19,.56,.93,1.63,2.41,1.63,.01,0,.02,0,.03,0,.07,.28,.23,.76,.52,1.25,.6,.99,1.5,1.52,2.6,1.52s2-.52,2.6-1.52c.3-.49,.45-.97,.52-1.25,0,0,.01,0,.02,0,1.48,0,2.22-1.07,2.41-1.63,.05-.14-.03-.29-.17-.34Z"/>
          <path class="cls-26" d="M30.08,25.22c0,.58-1.38,1.32-2.38,1.67-.87-.3-2.02-.89-2.31-1.42-.05-.08-.07-.17-.07-.25,0-.54,1.42-.79,2.38-.79,0,0,0,0,0,0,0,0,0,0,0,0,.49,0,1.1,.07,1.58,.2h0c.46,.13,.8,.33,.8,.59Z"/>
          <path class="cls-2" d="M30.29,29.51c-.04,.13-.09,.3-.17,.49-.31,.75-1,1.8-2.42,1.8-.87,0-1.56-.38-2.06-1.13-.03-.04-.05-.08-.08-.12-.24-.4-.38-.8-.45-1.05,1.23-.29,2.22-1.41,2.58-1.87,.36,.46,1.36,1.6,2.59,1.88Z"/>
          <path class="cls-19" d="M30.12,30c-.31,.75-1,1.8-2.42,1.8-.87,0-1.56-.38-2.06-1.13,.95-.48,2.1-.75,3.34-.75,.39,0,.78,.03,1.15,.08Z"/>
          <path class="cls-8" d="M38.99,31.22c-1.25,1.06-3.4,1.52-4.57,1.71-.62,.1-1.21,.34-1.71,.69-1.3,.92-3.14,1.45-5.03,1.45-1.36,0-2.68-.27-3.8-.77,1.25,.26,3.15,.51,4.74,.12,3.27-.81,5.16-2.7,5.16-2.7,0,0,9.33-2.34,4.81-19.04,.85,1.28,1.44,2.82,1.79,4.6,.35,1.81,.77,3.7,1.04,4.95,.15,.68,.27,1.21,.31,1.45,.55,2.9-.43,5.57-2.75,7.53Z"/>
          <g>
            <path d="M23.71,18.45c-.3-.59-.75-.95-1.27-1.01-.52-.06-1.04,.19-1.47,.7-.41,.49-.68,1.16-.76,1.9-.09,.74,.02,1.46,.31,2.03,.3,.59,.75,.95,1.27,1.01,.05,0,.1,0,.16,0,.47,0,.93-.25,1.31-.7,.41-.49,.68-1.16,.76-1.9,.09-.74-.02-1.46-.31-2.03Z"/>
            <path class="cls-14" d="M20.84,21.9c-.25-.51-.35-1.15-.27-1.82,.08-.67,.32-1.28,.68-1.71,.31-.37,.68-.58,1.04-.58,.04,0,.07,0,.11,0,.4,.05,.75,.34,.99,.82,.04,.08,.08,.17,.11,.26-.23-.34-.53-.55-.88-.59-.85-.1-1.64,.84-1.79,2.14-.1,.89,.12,1.69,.55,2.13-.21-.14-.4-.36-.55-.65Z"/>
            <ellipse class="cls-3" cx="22.75" cy="19.67" rx=".96" ry=".63" transform="translate(.59 40.01) rotate(-83.4)"/>
            <path class="cls-21" d="M21.89,21.47c-.03,.24-.22,.42-.42,.4-.2-.02-.35-.24-.32-.48s.22-.42,.42-.4c.2,.02,.35,.24,.32,.48Z"/>
            <path d="M31.38,20.48c.09,.74,.36,1.41,.76,1.9,.38,.46,.84,.7,1.31,.7,.05,0,.1,0,.16,0,.52-.06,.97-.42,1.27-1.01,.28-.57,.39-1.29,.31-2.03-.09-.74-.36-1.41-.76-1.9-.42-.51-.94-.76-1.47-.7-.52,.06-.97,.42-1.27,1.01-.28,.57-.39,1.29-.31,2.03Z"/>
            <path class="cls-14" d="M34.01,22.55c.43-.44,.66-1.24,.55-2.13-.15-1.3-.94-2.24-1.79-2.14-.35,.04-.65,.25-.88,.59,.03-.09,.07-.18,.11-.26,.24-.48,.59-.77,.99-.82,.04,0,.07,0,.11,0,.36,0,.73,.2,1.04,.58,.36,.43,.6,1.04,.68,1.71,.08,.67-.02,1.32-.27,1.82-.15,.29-.33,.51-.55,.65Z"/>
            <ellipse class="cls-3" cx="32.65" cy="19.67" rx=".63" ry=".96" transform="translate(-2.04 3.88) rotate(-6.6)"/>
            <path class="cls-21" d="M33.51,21.47c.03,.24,.22,.42,.42,.4,.2-.02,.35-.24,.32-.48s-.22-.42-.42-.4c-.2,.02-.35,.24-.32,.48Z"/>
          </g>
          <g>
            <path d="M23.71,18.45c-.3-.59-.75-.95-1.27-1.01-.52-.06-1.04,.19-1.47,.7-.41,.49-.68,1.16-.76,1.9-.09,.74,.02,1.46,.31,2.03,.3,.59,.75,.95,1.27,1.01,.05,0,.1,0,.16,0,.47,0,.93-.25,1.31-.7,.41-.49,.68-1.16,.76-1.9,.09-.74-.02-1.46-.31-2.03Z"/>
            <path class="cls-28" d="M20.84,21.9c-.25-.51-.35-1.15-.27-1.82,.08-.67,.32-1.28,.68-1.71,.31-.37,.68-.58,1.04-.58,.04,0,.07,0,.11,0,.4,.05,.75,.34,.99,.82,.04,.08,.08,.17,.11,.26-.23-.34-.53-.55-.88-.59-.85-.1-1.64,.84-1.79,2.14-.1,.89,.12,1.69,.55,2.13-.21-.14-.4-.36-.55-.65Z"/>
            <ellipse class="cls-3" cx="22.75" cy="19.67" rx=".96" ry=".63" transform="translate(.59 40.01) rotate(-83.4)"/>
            <path class="cls-22" d="M21.89,21.47c-.03,.24-.22,.42-.42,.4-.2-.02-.35-.24-.32-.48s.22-.42,.42-.4c.2,.02,.35,.24,.32,.48Z"/>
            <path d="M31.38,20.48c.09,.74,.36,1.41,.76,1.9,.38,.46,.84,.7,1.31,.7,.05,0,.1,0,.16,0,.52-.06,.97-.42,1.27-1.01,.28-.57,.39-1.29,.31-2.03-.09-.74-.36-1.41-.76-1.9-.42-.51-.94-.76-1.47-.7-.52,.06-.97,.42-1.27,1.01-.28,.57-.39,1.29-.31,2.03Z"/>
            <path class="cls-28" d="M34.01,22.55c.43-.44,.66-1.24,.55-2.13-.15-1.3-.94-2.24-1.79-2.14-.35,.04-.65,.25-.88,.59,.03-.09,.07-.18,.11-.26,.24-.48,.59-.77,.99-.82,.04,0,.07,0,.11,0,.36,0,.73,.2,1.04,.58,.36,.43,.6,1.04,.68,1.71,.08,.67-.02,1.32-.27,1.82-.15,.29-.33,.51-.55,.65Z"/>
            <ellipse class="cls-3" cx="32.65" cy="19.67" rx=".63" ry=".96" transform="translate(-2.04 3.88) rotate(-6.6)"/>
            <path class="cls-22" d="M33.51,21.47c.03,.24,.22,.42,.42,.4,.2-.02,.35-.24,.32-.48s-.22-.42-.42-.4c-.2,.02-.35,.24-.32,.48Z"/>
          </g>
          <path class="cls-5" d="M17.47,31.92h0c-.4-.2-.78-.43-1.1-.7-2.32-1.95-3.3-4.63-2.75-7.53,.04-.24,.16-.77,.31-1.45-1.04,7.05,3.54,9.67,3.54,9.67Z"/>
          <path class="cls-5" d="M31.89,8.31c-9.57-.73-13.9,2.88-13.96,2.93,2.18-2.24,5.44-3.36,9.74-3.37,1.54,0,2.94,.15,4.21,.43Z"/>
          <path class="cls-5" d="M29.28,24.63c-3.57-.21-3.9,.84-3.9,.84h0c-.05-.08-.07-.17-.07-.25,0-.54,1.42-.79,2.38-.79,0,0,0,0,0,0,0,0,0,0,0,0,.49,0,1.1,.07,1.58,.2Z"/>
          <path d="M35.79,37.07h-.54s0-.07,0-.1c-.24-2.7-1.6-4.45-3.63-4.68-1.66-.19-3.21,.74-3.69,2.21-.04,.11-.14,.18-.25,.18-.06,0-.11-.02-.16-.05-.04-.03-.08-.08-.1-.13-.44-1.34-1.77-2.23-3.26-2.23-.14,0-.28,0-.43,.02-1.63,.19-2.82,1.34-3.36,3.18-.13,.46-.23,.96-.27,1.5,0,.03,0,.07,0,.1h-.54s0-.1,.01-.15c.14-1.57,.62-2.84,1.43-3.75,.71-.81,1.63-1.29,2.67-1.41,1.68-.19,3.26,.62,4,1.98,.74-1.36,2.32-2.18,4-1.98,1.04,.12,1.96,.61,2.67,1.41,.81,.92,1.29,2.18,1.43,3.75,0,.05,0,.1,.01,.15Z"/>
          <path class="cls-27" d="M35.26,37.07h-15.16s0-.07,0-.1c.05-.54,.14-1.04,.27-1.5,.54-1.84,1.73-3,3.36-3.18,.14-.02,.28-.02,.43-.02,1.49,0,2.82,.89,3.26,2.23,.02,.05,.05,.1,.1,.13,.04,.03,.1,.05,.16,.05,.12,0,.22-.07,.25-.18,.48-1.47,2.03-2.4,3.69-2.21,2.03,.23,3.39,1.98,3.63,4.68,0,.03,0,.07,0,.1Z"/>
          <path class="cls-20" d="M21.36,34.38c-.19,.3-.34,.63-.39,.98-.02,.13,0,.33,.14,.39,.17,.07,.3-.09,.38-.21,.23-.38,.58-.7,.93-.95,.38-.28,.81-.5,1.24-.69,.21-.09,.34-.3,.28-.52-.04-.19-.2-.34-.4-.37-.52-.06-1.01,.15-1.4,.48-.27,.23-.54,.54-.74,.84-.01,.02-.03,.04-.04,.06Z"/>
          <path class="cls-20" d="M25.68,33.41c-.04,.25-.32,.42-.64,.37-.32-.05-.55-.29-.51-.54,.04-.25,.32-.42,.64-.37,.32,.05,.55,.29,.51,.54Z"/>
          <path class="cls-20" d="M33.72,34.43c-.17,.22-.61,.15-.98-.14-.37-.29-.53-.71-.35-.93,.17-.22,.61-.15,.98,.14,.37,.29,.53,.71,.35,.93Z"/>
          <path class="cls-8" d="M20.44,36.42c.04,.22,.11,.44,.2,.64h-.54s0-.07,0-.1c.05-.54,.14-1.04,.27-1.5-.01,.32,0,.64,.06,.95Z"/>
          <path class="cls-8" d="M27.65,37.07h-3.43c-.02-.5-.23-1.05-.35-1.46-.03-.1-.06-.21-.04-.31,.14-.04,.28,.06,.38,.17,.28,.29,.46,.68,.77,.95,.05,.04,.11,.09,.18,.08,.08-.01,.12-.1,.15-.17,.09-.24,.11-.5,.2-.74,.02-.05,.04-.1,.08-.14,.04-.04,.1-.05,.15-.02,.04,.02,.05,.07,.06,.11,.08,.31,.12,.63,.27,.91,.05,.09,.1,.17,.18,.23,.14,.11,.33,.13,.51,.15,.19,.02,.38,.05,.56,.11,.11,.04,.22,.09,.32,.15Z"/>
          <path d="M24.07,35.69c.28,.44,.5,.9,.7,1.38h-.24c-.15-.46-.32-.91-.51-1.36,0-.01,0-.03,.01-.04,.01,0,.03,0,.03,.01Z"/>
          <path d="M25.68,37.07h-.2c0-.14,0-.29,.02-.43,.02-.27,.06-.54,.11-.81,0-.03,.06-.03,.06,0-.02,.41-.02,.82,.01,1.23Z"/>
        </g>
      </g>
    </g>
  </g>
</svg>